<svg xmlns="http://www.w3.org/2000/svg" viewBox="0 0 196 132"><path class="bubble" fill="#FFB547" d="M38.003 129.662c-.55.025-1.098.06-1.647.07a6.89 6.89 0 0 1-.986-.035c-1.092-.129-2.178-.302-3.243-.576a13.641 13.641 0 0 1-1.413-.449c-1.448-.547-2.784-1.307-4.03-2.218-.492-.36-1-.677-1.562-.905a7.956 7.956 0 0 1-.452-.201 19.568 19.568 0 0 1-4.001-2.589c-1.621-1.358-2.864-3.026-3.968-4.81a7.218 7.218 0 0 1-.457-.877c-.807-1.808-1.564-3.634-1.823-5.621a9.402 9.402 0 0 1-.257-3.92c-.015-1.161.191-2.295.414-3.428.222-1.139.571-2.23 1.072-3.279.45-.943.894-1.885 1.478-2.756.333-.502.607-1.046.872-1.586.143-.293.254-.615.307-.937.158-.946.038-1.856-.444-2.708-.499-.882-1.172-1.588-2.059-2.082-.432-.24-.867-.476-1.311-.695a18.307 18.307 0 0 1-2.141-1.23 16.949 16.949 0 0 0-2.141-1.23c-1.337-.649-2.601-1.426-3.828-2.261a10.237 10.237 0 0 1-1.4-1.149c-1.148-1.124-2.094-2.398-2.789-3.85-.431-.899-.737-1.844-.822-2.837-.217-2.532.437-4.784 2.217-6.66.38-.401.793-.755 1.258-1.055 1.319-.852 2.757-1.356 4.322-1.472 1.259-.093 2.521-.159 3.784-.219.438-.021.882-.02 1.316.031 1.321.156 2.633.035 3.947-.077.776-.069 1.505-.313 2.214-.617a2.56 2.56 0 0 0 1.034-.798 3.749 3.749 0 0 0 .761-1.803 6.415 6.415 0 0 0-.22-2.775c-.329-1.049-.76-2.065-1.39-2.976a36.585 36.585 0 0 0-2.733-3.509c-.437-.492-.875-.984-1.312-1.478-1.351-1.529-2.499-3.201-3.495-4.981-.513-.92-.9-1.882-1.181-2.891a34.59 34.59 0 0 1-.392-1.601 6.14 6.14 0 0 1-.143-1.802c.085-1.151.257-2.284.626-3.392.588-1.774 1.621-3.234 3.025-4.435 1.265-1.083 2.709-1.86 4.299-2.375 1.102-.358 2.238-.553 3.368-.784.593-.121 1.201-.118 1.807-.064.383.033.767.078 1.149.079 1.437.002 2.848.205 4.244.517 1.233.274 2.461.571 3.696.842 2.36.519 4.704 1.107 7.059 1.651 1.659.385 3.313.785 4.972 1.172.102.025.216-.001.325-.004.133-.003.272-.244.231-.375-.15-.479-.444-.881-.697-1.303-.595-.995-1.057-2.05-1.444-3.14-.389-1.091-.662-2.208-.711-3.374-.021-.493-.062-.985-.083-1.479a5.794 5.794 0 0 1 .006-.823c.238-2.267.753-4.441 2.138-6.322.163-.221.294-.467.464-.682.203-.258.416-.513.651-.741.314-.306.645-.6.988-.872 1.044-.828 2.198-1.459 3.485-1.812.635-.175 1.29-.273 1.936-.402.107-.021.22-.036.328-.025.875.079 1.757.042 2.632.145 2.568.306 5.096.833 7.602 1.452 2.516.623 4.913 1.581 7.254 2.684.347.164.679.359 1.015.546 1.682.938 3.278 2.009 4.86 3.101.135.093.275.18.417.263.046.027.104.032.154.053.126.054.362-.042.437-.156.218-.33.271-.714.377-1.081.69-2.372 2.079-4.212 4.177-5.521.937-.583 1.915-1.078 2.971-1.405.63-.193 1.271-.352 1.903-.537.901-.265 1.823-.397 2.757-.457 1.207-.076 2.412-.154 3.619-.222a8.7 8.7 0 0 1 1.153-.006c1.862.144 3.72.321 5.558.67.921.174 1.821.409 2.713.691 1.373.433 2.654 1.047 3.814 1.905.4.297.776.613 1.094.997.421.507.825 1.03 1.164 1.597.198.329.39.663.59.993.086.139.18.276.278.407.138.181.422.242.563.046.258-.355.494-.726.741-1.087a4.592 4.592 0 0 1 1.278-1.268c.735-.484 1.464-.975 2.204-1.447.648-.415 1.318-.79 2.029-1.093 1.324-.565 2.728-.819 4.131-1.094.665-.13 1.313-.039 1.97-.021.329.008.659-.006.987 0 .33.005.662.004.988.041 1.529.169 3.052.382 4.541.785.636.173 1.274.339 1.915.498 1.711.423 3.366 1.015 5.007 1.646a81.836 81.836 0 0 1 4.561 1.905c1.9.867 3.761 1.818 5.456 3.054.462.336.906.318 1.378.04.378-.223.765-.433 1.148-.645.386-.212.769-.428 1.161-.627 2.547-1.291 5.103-2.565 7.643-3.872 2.444-1.256 4.933-2.419 7.39-3.646 1.817-.909 3.657-1.771 5.486-2.658 2.076-1.006 4.15-2.018 6.225-3.025A527.839 527.839 0 0 1 185.5 4.1c1.744-.808 3.484-1.625 5.229-2.431.399-.185.809-.347 1.221-.496.204-.074.426-.111.644-.135a1.922 1.922 0 0 1 2.094 1.474 2.363 2.363 0 0 1-.163 1.607 2.89 2.89 0 0 1-.673.929c-.908.804-1.69 1.727-2.494 2.628a1063.809 1063.809 0 0 0-13.033 14.877c-.788.915-1.592 1.819-2.266 2.828-.212.318-.479.601-.725.896-.46.546-.928 1.087-1.384 1.638-.279.338-.564.676-.808 1.039a19.746 19.746 0 0 1-1.308 1.695c-.497.588-.988 1.18-1.403 1.832a4.201 4.201 0 0 1-.39.53c-.906 1.035-1.602 2.232-2.483 3.285-.856 1.277-1.812 2.483-2.682 3.753-.743 1.088-1.488 2.177-2.225 3.269-.247.363-.484.736-.64 1.15-.078.206-.099.43-.044.648.039.159.084.319.152.469.516 1.153 1.025 2.308 1.561 3.453.21.446.472.868.727 1.292.276.459.687.688 1.231.679a5.958 5.958 0 0 0 1.467-.197c.477-.13.962-.224 1.454-.285.654-.082 1.305-.182 1.959-.261.272-.033.548-.045.82-.046.33-.001.659.024.988.027 1.336.019 2.614.289 3.847.804a14.37 14.37 0 0 1 2.601 1.416 13.31 13.31 0 0 1 2.476 2.159c.582.66 1.166 1.318 1.687 2.028a6.31 6.31 0 0 0 1.014 1.077c.418.357.827.725 1.234 1.093.408.369.78.77 1.141 1.187 1.371 1.59 2.497 3.341 3.475 5.193.386.728.771 1.457 1.153 2.186.636 1.219 1.244 2.448 1.754 3.727.756 1.898.779 2.215.9 4.157.01.163.016.329.018.494.01.385-.026.767-.096 1.147a8.291 8.291 0 0 1-1.045 2.758 4.9 4.9 0 0 1-1.175 1.365c-.476.374-.94.76-1.406 1.145-.921.76-1.988 1.146-3.167 1.252a5.717 5.717 0 0 1-1.64-.097 25.875 25.875 0 0 1-3.181-.858 23.062 23.062 0 0 0-2.378-.672 4.525 4.525 0 0 0-1.962.006c-.389.084-.709.29-.961.596a3.682 3.682 0 0 0-.624 1.152 8.375 8.375 0 0 0-.455 2.257c-.076 1.319.006 2.636.328 3.927.253 1.013.56 2.01.882 3.003.272.835.521 1.679.784 2.519.147.473.243.956.303 1.449.051.436.11.871.169 1.307.115.877.093 1.76-.012 2.631a7.605 7.605 0 0 1-1.176 3.225c-.478.747-1.031 1.42-1.726 1.973-.474.376-.937.765-1.414 1.135a10.296 10.296 0 0 1-5.445 2.14c-.546.052-1.096.08-1.645.101a6.916 6.916 0 0 1-.987-.021 17.838 17.838 0 0 1-4.478-1.059c-1.602-.61-3.089-1.431-4.52-2.361a555.667 555.667 0 0 1-4.825-3.161 28.327 28.327 0 0 0-4.03-2.233 19.422 19.422 0 0 0-2.627-.966 11.316 11.316 0 0 0-4.075-.415 9.732 9.732 0 0 0-2.724.604 3.49 3.49 0 0 0-1.462 1.037c-.709.854-1.246 1.807-1.559 2.876a45.834 45.834 0 0 0-1.003 3.995 36.703 36.703 0 0 1-.74 3.041 23.823 23.823 0 0 1-.521 1.562c-.531 1.455-1.292 2.787-2.176 4.056a11.994 11.994 0 0 1-1.843 2.099c-1.065.953-2.204 1.816-3.337 2.686a11.536 11.536 0 0 1-2.709 1.553c-.356.143-.711.29-1.065.439-1.225.521-2.526.756-3.821.986a8.23 8.23 0 0 1-2.463.062 10.763 10.763 0 0 0-.822-.072c-2.176-.117-4.215-.734-6.146-1.711-1.377-.697-2.669-1.52-3.811-2.576-1.051-.971-2.018-2.023-2.983-3.071a29.102 29.102 0 0 0-3.388-3.126c-1.703-1.342-3.65-1.701-5.756-1.233-.333.075-.592.281-.795.552-.307.41-.457.874-.476 1.381a6.07 6.07 0 0 0 .284 2.112c.188.575.371 1.151.565 1.724.301.885.53 1.79.751 2.697.2.814.197 1.63.027 2.451-.203.979-.575 1.889-1.064 2.756a3.751 3.751 0 0 1-.277.408c-.436.569-.913 1.098-1.483 1.537-.39.305-.784.604-1.168.914-1.439 1.158-3.076 1.9-4.867 2.324-.592.141-1.193.219-1.798.182-1.042-.062-2.085-.146-3.093-.443a40.327 40.327 0 0 1-2.033-.676 6.963 6.963 0 0 1-.897-.411c-.437-.231-.866-.478-1.295-.723-1.003-.573-1.994-1.162-2.863-1.933a3.168 3.168 0 0 0-.391-.303c-.98-.619-1.839-1.392-2.721-2.134-.588-.497-1.174-.995-1.825-1.41a5.21 5.21 0 0 1-.531-.39c-1.282-1.051-2.707-1.875-4.181-2.619-1.089-.552-2.248-.893-3.438-1.113-1.453-.27-2.622-.185-4.072.229a2.74 2.74 0 0 0-1.136.646c-.24.224-.467.465-.683.714-.507.577-1.017 1.154-1.503 1.751-.769.939-1.644 1.77-2.585 2.533-1.109.898-2.228 1.784-3.482 2.484-2.191 1.224-4.516 1.992-7.029 2.154l-.658.043.007.005zM22.928 58.551l.004-.005-.004.005zM191.792 3.769c-.101.118-.203.236-.306.353-.539.146-1.008.433-1.465.738-.457.305-.903.625-1.359.93-3.742 2.509-7.438 5.086-11.127 7.669-2.251 1.576-4.513 3.135-6.741 4.738-4.146 2.986-8.379 5.849-12.563 8.779-1.91 1.196-3.699 2.572-5.636 3.727-.473.281-.909.62-1.384.894-.404.235-.85.237-1.261.009a6.682 6.682 0 0 1-.813-.557c-1.788-1.375-3.641-2.65-5.618-3.742a15.458 15.458 0 0 0-1.321-.672 128.737 128.737 0 0 0-3.95-1.66c-1.279-.506-2.62-.821-3.965-1.11a34.183 34.183 0 0 0-4.564-.637 7.239 7.239 0 0 0-.988-.013c-2.976.183-5.707 1.067-8.108 2.873a42.809 42.809 0 0 0-2.559 2.078 11.03 11.03 0 0 0-1.836 2.104 14.007 14.007 0 0 0-1.485 2.749c-.385.97-.781 1.936-1.175 2.901a7.9 7.9 0 0 1-.268.601c-.053.103-.153.15-.263.161a.287.287 0 0 1-.286-.129 1.297 1.297 0 0 1-.152-.29c-.173-.521-.343-1.045-.508-1.568a37.468 37.468 0 0 0-1.322-3.551 16.907 16.907 0 0 0-.804-1.625 15.734 15.734 0 0 0-1.788-2.561c-.612-.708-1.283-1.357-1.913-2.046-.257-.281-.577-.506-.88-.743-.476-.372-.973-.716-1.44-1.1-.858-.7-1.805-1.25-2.817-1.692a14.859 14.859 0 0 0-3.954-1.102c-.82-.11-1.636-.175-2.464-.132-.996.051-1.958.24-2.899.57-.836.293-1.625.666-2.317 1.228-.298.244-.598.485-.91.709-.631.453-1.157 1.008-1.67 1.584-1.254 1.407-1.88 3.075-2.095 4.921-.026.218-.021.438-.058.655-.146.876-.115 1.753-.05 2.63.053.713.127 1.421.317 2.114.086.317.137.646.174.972.018.157-.027.323-.055.481-.024.143-.269.25-.403.185-.098-.047-.211-.075-.293-.142-1.41-1.137-2.912-2.159-4.25-3.386a2.16 2.16 0 0 0-.127-.106c-1.088-.836-2.201-1.642-3.284-2.485-.476-.372-.974-.714-1.469-1.062a65.73 65.73 0 0 0-1.496-1.021c-1.098-.732-2.199-1.456-3.355-2.093-1.106-.609-2.215-1.217-3.372-1.73-.1-.044-.204-.083-.3-.136-1.013-.563-2.111-.922-3.189-1.33a10.583 10.583 0 0 0-2.068-.547 35.017 35.017 0 0 0-1.961-.25 4.484 4.484 0 0 0-1.792.193c-.262.083-.524.164-.785.25a4.247 4.247 0 0 0-1.314.676c-.952.743-1.896 1.498-2.679 2.432a6.105 6.105 0 0 0-1.013 1.688 8.386 8.386 0 0 0-.52 1.903 57.78 57.78 0 0 0-.167 1.309 5.196 5.196 0 0 0 .05 1.642c.151.753.325 1.502.522 2.246.099.37.246.73.418 1.074.67 1.326 1.396 2.618 2.325 3.786.103.128.197.265.311.384.939 1 1.813 2.064 2.865 2.956.587.497 1.15 1.022 1.718 1.542.243.223.464.469.613.769a.417.417 0 0 1 .026.317c-.039.129-.246.265-.383.251-.055-.003-.111.003-.165-.005-.162-.025-.326-.046-.486-.083-2.083-.5-4.165-1.01-6.249-1.504-2.031-.48-4.065-.947-6.098-1.42-.108-.025-.215-.047-.322-.075-2.136-.513-4.27-1.037-6.409-1.542-1.23-.291-2.466-.549-3.7-.821-.429-.094-.862-.172-1.289-.277-1.176-.292-2.375-.443-3.573-.599a7.233 7.233 0 0 0-.987-.046c-.438.006-.877.048-1.317.06-1.167.032-2.279.341-3.379.69a6.15 6.15 0 0 0-1.901.969c-.785.601-1.566 1.207-2.346 1.815a3.6 3.6 0 0 0-.874.979c-.228.376-.452.754-.649 1.146a4.408 4.408 0 0 0-.488 2.229c.025.494.042.988.082 1.48.098 1.226.483 2.363 1.077 3.433.32.579.688 1.124 1.081 1.656a62.635 62.635 0 0 0 3 3.718c.36.416.705.844 1.074 1.25.967 1.06 1.77 2.243 2.562 3.429.739 1.106 1.225 2.333 1.597 3.604.123.421.211.853.314 1.28.116.486.158.977.113 1.474-.045.492-.092.983-.153 1.475-.168 1.34-.688 2.537-1.49 3.617a3.307 3.307 0 0 1-1.254 1.044 8.516 8.516 0 0 1-.756.325c-1.729.609-3.507.92-5.342.78-.714-.054-1.425-.081-2.14-.054-.769.029-1.536.041-2.304-.047a5.39 5.39 0 0 0-1.961.156c-.373.094-.748.184-1.125.26a3.328 3.328 0 0 0-1.345.597 77.21 77.21 0 0 0-1.823 1.414 3.243 3.243 0 0 0-.661.731 3.01 3.01 0 0 0-.542 1.533c-.04.662.007 1.317.102 1.973.096.663.334 1.273.687 1.84.322.513.687.994 1.13 1.412 1.002.944 2.05 1.826 3.282 2.469.681.355 1.354.727 2.053 1.053a47.648 47.648 0 0 1 3.804 1.967c.715.416 1.396.878 2.016 1.426.576.51 1.146 1.024 1.71 1.547.324.3.6.644.825 1.024.252.425.507.851.733 1.288.54 1.047.777 2.166.753 3.342-.012.609-.141 1.2-.324 1.777a8.591 8.591 0 0 1-.729 1.658c-.271.478-.549.951-.824 1.428-.247.428-.489.858-.74 1.284-.881 1.489-1.346 3.111-1.614 4.812-.27 1.707-.117 3.396.077 5.09.456 2.23 1.234 4.329 2.583 6.187.323.445.67.87 1.007 1.304.407.523.872.993 1.391 1.401.953.746 1.953 1.42 3.074 1.901.911.392 1.832.743 2.8.967.589.136 1.178.268 1.787.29.219.007.437.035.655.061 1.434.169 2.847.059 4.25-.279.91-.217 1.806-.456 2.684-.786 1.617-.606 3.046-1.509 4.363-2.606.253-.213.503-.428.767-.624 1.156-.863 2.13-1.9 2.938-3.093.34-.502.73-.963 1.137-1.409a4.057 4.057 0 0 1 1.315-.976c.25-.115.503-.221.755-.33 1.557-.672 3.178-.814 4.846-.596 1.649.219 3.211.712 4.704 1.443.89.436 1.752.914 2.578 1.464 1.557 1.033 3.088 2.099 4.491 3.34.577.51 1.171.997 1.818 1.418.275.182.537.384.785.601.833.726 1.768 1.306 2.697 1.891a14.143 14.143 0 0 0 4.559 1.85c.432.094.866.164 1.306.15a42.016 42.016 0 0 0 1.81-.098c1.473-.121 2.751-.713 3.89-1.634.554-.45 1.119-.888 1.657-1.356 1.14-.991 1.736-2.246 1.737-3.765.001-.883-.114-1.751-.408-2.593-.217-.622-.403-1.254-.616-1.879-.23-.678-.388-1.373-.552-2.069a3.648 3.648 0 0 1-.07-1.308c.027-.219.045-.438.064-.657.079-.964.48-1.794 1.048-2.556.2-.27.458-.479.764-.611.251-.109.508-.212.771-.289.369-.106.745-.188 1.119-.279a3.316 3.316 0 0 1 1.145-.08c.328.031.656.075.986.085.781.023 1.509.247 2.236.518 1.251.464 2.359 1.17 3.41 1.972.348.265.664.578.967.895a572.528 572.528 0 0 1 4.075 4.309c1.084 1.158 3.688 2.824 5.083 3.297a19.11 19.11 0 0 0 3.683.867c.379.047.769.052 1.151.037.768-.029 1.536-.08 2.305-.131 1.675-.108 3.228-.632 4.694-1.423.918-.496 1.814-1.029 2.59-1.748.32-.297.681-.556 1.031-.819a9.786 9.786 0 0 0 1.441-1.348c.218-.248.427-.504.656-.74 1.011-1.041 1.726-2.273 2.313-3.581.387-.853.66-1.747.87-2.659.31-1.338.609-2.677.905-4.02.286-1.29.674-2.546 1.205-3.76a8.41 8.41 0 0 1 1.293-2.094c1.008-1.186 1.217-1.356 2.775-1.969.458-.181.93-.332 1.421-.416.325-.055.649-.117.967-.197a4.177 4.177 0 0 1 1.473-.102c.326.035.656.062.986.061.72 0 1.421.129 2.117.286a21.037 21.037 0 0 1 5.967 2.323c1.474.855 2.922 1.746 4.315 2.729 1.076.76 2.194 1.463 3.306 2.173a20.349 20.349 0 0 0 2.918 1.527c1.316.563 2.686.971 4.131 1.062.438.028.875.084 1.312.122a5.296 5.296 0 0 0 1.799-.15c.373-.098.746-.188 1.117-.291 1.073-.295 2.054-.77 2.904-1.499.292-.249.59-.493.885-.739.125-.106.254-.211.377-.32 1.195-1.078 1.843-2.439 2.069-4.016.022-.163.033-.329.031-.494-.012-1.045-.082-2.08-.361-3.101a62.95 62.95 0 0 0-.835-2.845c-.187-.574-.363-1.152-.543-1.73-.392-1.262-.595-2.566-.855-3.857-.064-.318-.055-.656-.045-.984.016-.494.074-.986.087-1.48a7.91 7.91 0 0 1 .521-2.572c.152-.412.323-.818.519-1.211.145-.293.326-.573.518-.839.364-.505.86-.847 1.446-1.049a5.878 5.878 0 0 1 1.774-.335c.993-.021 1.976.068 2.931.371a316.932 316.932 0 0 1 2.822.913c1.01.343 2.045.384 3.095.251.555-.07 1.069-.246 1.518-.588.35-.266.693-.539 1.038-.814a6.36 6.36 0 0 0 1.118-1.205c.196-.266.361-.555.461-.87.371-1.171.516-2.36.213-3.572-.279-1.121-.627-2.214-1.143-3.258-1.073-2.167-2.178-4.315-3.42-6.391a21.043 21.043 0 0 0-2.21-3.074c-1.056-1.204-2.253-2.252-3.678-3.012a7.215 7.215 0 0 0-2.331-.77c-1.216-.189-2.407-.166-3.597.143a7.214 7.214 0 0 1-.97.184 46.058 46.058 0 0 1-3.942.308c-1.207.041-2.27-.35-3.215-1.074a12.214 12.214 0 0 1-2.988-3.266c-1.129-1.824-2.152-3.703-2.989-5.681-.343-.812-.706-1.61-1.059-2.416a9.124 9.124 0 0 1-.185-.458c-.18-.495-.129-.972.121-1.432.078-.143.166-.283.256-.422.952-1.476 1.886-2.966 2.915-4.393.482-.668.963-1.338 1.417-2.024.426-.643.882-1.26 1.368-1.856.209-.256.405-.522.584-.798.332-.506.701-.984 1.086-1.451.175-.211.36-.418.509-.648.566-.881 1.238-1.68 1.908-2.479.212-.252.43-.504.606-.78.539-.835 1.191-1.578 1.829-2.334.565-.672 1.133-1.342 1.632-2.07.309-.451.676-.866 1.032-1.284 1.357-1.586 2.72-3.168 4.081-4.75.43-.5.853-1.006 1.233-1.545.285-.403.602-.786.925-1.158 1.335-1.534 2.675-3.062 4.019-4.589.289-.329.58-.664.905-.956.614-.553 1.161-1.168 1.711-1.784l2.852-3.198c.328-.37.664-.733.896-1.176l.311-.349.001.002zM50.974 37.859a1.774 1.774 0 0 0-.376-.634c-.079-.25-.145-.503-.243-.746-.035-.088-.136-.158-.222-.212-.102-.066-.207-.037-.272.06-.026.038-.04.106-.025.147.037.095.08.193.144.272.167.209.388.351.621.476.078.239.204.451.37.64l.003-.003zM19.319 53.828a95.847 95.847 0 0 0-.377-.632c-.068-.146-.131-.293-.208-.435-.023-.042-.087-.091-.124-.085-.127.02-.15.117-.042.22.114.112.25.2.377.298l.367.644.007-.01zM178.65 9.923c-.156.042-.313.081-.469.13-.047.015-.114.061-.118.096-.007.125.079.16.206.072.135-.09.256-.197.383-.297l-.002-.001M14.147 45.579c.07.833.361 1.596.751 2.325.075.143.177.276.288.394.116.124.28.178.446.155.444-.059.825-.269 1.188-.519.363-.251.312-.792.09-1.018a2.208 2.208 0 0 0-.367-.324c-.741-.477-1.527-.854-2.405-1.006l.009-.007zm95.495-19.855c-.106-.363-.218-.725-.438-1.041-.074-.107-.171-.149-.263-.079-.086.065-.097.183-.04.289.074.141.145.296.253.41.146.155.328.278.493.415.093.315.211.622.385.901.864 1.396 1.586 2.866 2.293 4.344.047.098.118.182.175.273.079.132.346.171.438.065.073-.08.165-.149.219-.239.226-.373.437-.755.658-1.132.29-.496.342-1.029.242-1.583a10.154 10.154 0 0 0-.167-.801c-.426-1.582-.857-3.161-1.288-4.741-.014-.054-.041-.102-.065-.15-.05-.106-.128-.185-.238-.208a.249.249 0 0 0-.278.114 7.503 7.503 0 0 0-.374.724c-.264.6-.505 1.21-.77 1.809a3.333 3.333 0 0 1-.331.561.457.457 0 0 1-.431.187c-.159-.021-.315-.078-.473-.118M21.16 34.387a15.574 15.574 0 0 0-3.222 1.206c-.096.049-.175.131-.263.195-.168.123-.204.453-.069.584.392.385.83.714 1.286 1.016.594.393 1.172.806 1.727 1.253.128.102.266.192.402.284.446.3.908.365 1.383.07.418-.258.836-.519 1.25-.786.205-.133.27-.507.146-.744-.025-.048-.039-.103-.068-.149-.495-.787-.99-1.574-1.487-2.36-.059-.092-.131-.174-.197-.262-.179-.237-.593-.381-.888-.307m-.779 5.985c-.037-.1-.048-.222-.113-.297a2.655 2.655 0 0 0-.475-.443 44.29 44.29 0 0 1-1.851-1.345c-.475-.363-.994-.669-1.497-.996-.22-.141-.572-.089-.755.101-.038.038-.082.073-.117.114a7.2 7.2 0 0 0-1.188 1.945.955.955 0 0 0-.071.317c-.011.226.054.434.239.577.128.1.262.202.41.264 1.058.447 2.067.982 3.034 1.6.045.028.101.04.15.064.151.078.491.029.615-.096.5-.5 1.002-1 1.494-1.51.07-.07.084-.194.125-.295m131.911-17.553c-.036.006-.15.005-.246.049-.698.317-1.372.68-1.992 1.132-.195.142-.305.51-.206.742.468 1.107.938 2.214 1.414 3.319.042.097.126.177.189.264.076.105.343.186.447.132.917-.489 1.812-1.012 2.595-1.705a.919.919 0 0 0 .189-.266.603.603 0 0 0 .054-.474 1.448 1.448 0 0 0-.125-.301c-.46-.745-.918-1.49-1.39-2.227a3.367 3.367 0 0 0-.412-.505c-.115-.124-.274-.175-.517-.16M50.949 17.575c-.157.021-.27.021-.372.054-.741.24-1.403.619-1.946 1.184-.228.236-.438.489-.647.74-.195.235-.146.58.099.714.48.263.958.531 1.447.775.785.392 1.576.767 2.368 1.143.147.07.307.117.466.155a.826.826 0 0 0 .484-.03c.368-.14.677-.357.902-.683.135-.195.138-.413.052-.625a2.14 2.14 0 0 0-.236-.43 177.902 177.902 0 0 0-1.736-2.395 2.069 2.069 0 0 0-.469-.451c-.127-.089-.3-.112-.412-.151m62.647 3.535c.039.182.096.506.18.824.442 1.64.889 3.278 1.34 4.916.027.101.104.19.159.282.062.106.34.167.446.111.304-.153.51-.409.722-.661.303-.36.432-.783.316-1.229-.303-1.168-.395-2.378-.71-3.545-.114-.42-.141-.865-.219-1.295a6.73 6.73 0 0 0-.158-.637c-.096-.335-.483-.521-.781-.396-.357.151-.68.354-.97.609-.264.234-.394.522-.325 1.021m7.234-.858c.048.473.106 1.122.187 1.77.02.156.102.306.167.453.069.156.402.294.562.254.428-.103.813-.303 1.188-.527.353-.21.549-.517.558-.934 0-.054.009-.108.007-.162-.056-.985.069-1.955.227-2.922.036-.213.035-.432.043-.647.007-.166-.229-.441-.396-.473-.053-.01-.105-.034-.158-.04a5.594 5.594 0 0 0-1.783.095c-.302.069-.604.378-.633.675-.021.216-.048.434-.043.65.013.543.043 1.087.074 1.808m-37.878 6.401c-.066-.128-.111-.229-.168-.319a.382.382 0 0 0-.119-.114 13.628 13.628 0 0 0-2.179-1.137c-.167-.07-.493.129-.501.31-.013.271-.039.546-.024.818.033.558-.026 1.091-.29 1.595a1.424 1.424 0 0 0-.131.472c-.052.454.037.873.348 1.226.037.041.07.085.109.123.645.594 1.299 1.178 2.02 1.68.125.087.389 0 .409-.134.007-.054.04-.104.041-.157.004-1.32.167-2.622.462-3.908.035-.156.017-.324.023-.455m36.527-5.989c-.034-.517-.072-1.173-.124-1.831-.018-.216-.063-.432-.104-.647-.055-.307-.416-.555-.739-.519a2.29 2.29 0 0 0-1.329.588.758.758 0 0 0-.248.59c.007.218.014.44.066.649.149.587.271 1.177.346 1.776.027.218.055.439.114.649.209.741.325 1.5.443 2.259.017.107.065.209.096.313.048.161.396.316.555.253a1.97 1.97 0 0 0 .893-.701c.128-.18.203-.389.21-.614.006-.219.013-.44-.004-.657-.049-.656-.108-1.312-.175-2.108M23.46 68.07c-.126.051-.236.078-.327.133a1.386 1.386 0 0 0-.458.465c-.154.247-.195.518-.038.775.17.281.358.553.554.816.461.615.925 1.227 1.4 1.831.134.171.297.324.468.456a.771.771 0 0 0 .624.144 2.631 2.631 0 0 0 1.05-.452c.089-.064.172-.141.243-.222.398-.468.677-.995.783-1.606.031-.18-.101-.463-.27-.566-.094-.057-.178-.132-.276-.176-1.097-.502-2.22-.949-3.297-1.499-.141-.071-.318-.071-.456-.099m101.441-47.456c.033.157.061.263.083.371.037.172.314.384.488.372.655-.047 1.312-.092 1.945-.272a.817.817 0 0 0 .499-.403 4.31 4.31 0 0 0 .264-.598c.143-.415.278-.83.401-1.25.045-.155.049-.322.068-.486.018-.159-.175-.486-.324-.537-.257-.091-.514-.197-.777-.251-.48-.101-.966-.189-1.454-.247-.414-.049-.693.081-.844.6a9.207 9.207 0 0 0-.358 2.097c-.01.217.005.437.009.604M26.972 37.095c.211-.027.539-.068.864-.118.107-.017.209-.06.315-.089.173-.047.348-.349.315-.524-.113-.601-.363-1.147-.678-1.665a.956.956 0 0 0-.506-.401 4.849 4.849 0 0 0-1.286-.259c-.656-.047-1.314-.077-1.964.08-.205.05-.366.326-.286.516.365.863.853 1.655 1.404 2.407.13.178.345.29.576.261.378-.046.754-.123 1.246-.208M10.163 70.332c-.343.057-.667.109-.99.169-.2.037-.369.353-.285.517.026.049.034.105.064.15.608.914 1.265 1.793 2.01 2.6.238.259.566.337.908.276.546-.097 1.044-.327 1.528-.589.047-.024.081-.074.122-.108.147-.124.202-.438.12-.606-.265-.55-.667-1.004-1.04-1.477a4.817 4.817 0 0 0-.561-.599 1.17 1.17 0 0 0-.743-.319c-.381-.017-.765-.012-1.133-.014m13.684 30.59c-.069-.107-.133-.267-.249-.368a.97.97 0 0 0-.438-.212c-1.239-.235-2.481-.455-3.722-.677a.699.699 0 0 0-.165-.014c-.226.005-.437.069-.595.233a2.05 2.05 0 0 0-.492.844c-.057.188.059.504.226.566.972.377 1.942.757 2.918 1.119.307.115.631.188.95.268.437.109.869-.088 1.117-.498.171-.283.321-.575.403-.898.028-.103.029-.215.047-.363M84.48 23.375c-.035-.102-.052-.215-.11-.302a1.861 1.861 0 0 0-.313-.372 202.6 202.6 0 0 0-2.105-1.812c-.123-.103-.271-.177-.41-.263-.207-.125-.59-.035-.738.168a3.548 3.548 0 0 0-.663 1.646c-.052.407.076.755.406 1.009.171.133.353.258.544.36.624.333 1.255.651 1.884.977.049.024.102.039.151.062.25.109.582.028.743-.17.242-.299.44-.622.57-.984.036-.098.028-.213.041-.319m73.726.469c-.016-.104-.014-.221-.055-.317a8.87 8.87 0 0 0-1.38-2.231 1.415 1.415 0 0 0-.242-.222c-.184-.135-.396-.217-.613-.124-.504.217-1.004.444-1.492.691-.326.164-.484.483-.275.826.517.841 1.055 1.67 1.588 2.501.059.09.147.161.222.242.121.13.448.189.617.119a4.223 4.223 0 0 0 1.367-.897.896.896 0 0 0 .263-.588m-69.747-7.615c-.968.114-1.824.276-2.611.691-.12.064-.223.292-.185.426.015.053.021.107.039.159.018.05.038.103.068.148a20.916 20.916 0 0 0 1.615 2.065c.07.081.164.144.254.205.196.134.418.14.625.053.411-.168.753-.44 1.049-.768a.79.79 0 0 0 .172-.277c.263-.837.438-1.69.365-2.576-.012-.144-.203-.298-.354-.281-.108.012-.217.012-.325.029-.269.044-.538.093-.712.126M25.821 64.324c-.209.032-.375.045-.534.085-.398.101-.692.331-.796.742-.079.318-.147.64-.188.965-.045.356.123.632.396.851a1.2 1.2 0 0 0 .134.094c.815.453 1.665.827 2.549 1.12.339.113.669-.099.694-.48a4.853 4.853 0 0 0-.679-2.828 1.047 1.047 0 0 0-.804-.509c-.271-.031-.546-.03-.772-.04m136.177-43.183c-.031-.098-.047-.21-.101-.302a6.836 6.836 0 0 0-1.292-1.665c-.209-.193-.48-.277-.757-.179a9.368 9.368 0 0 0-1.753.845c-.166.102-.261.41-.185.579.023.051.031.108.06.152.495.776.996 1.551 1.495 2.327.062.094.329.158.452.115.051-.019.106-.025.153-.048a7.236 7.236 0 0 0 1.716-1.226.704.704 0 0 0 .212-.598M50.207 25.497c-.054-.092-.093-.2-.165-.274a.784.784 0 0 0-.273-.175c-1.121-.451-2.287-.753-3.458-1.04-.247-.061-.573.148-.642.395-.015.052-.042.101-.053.155-.088.43-.113.867-.105 1.307.004.259.235.559.473.605a16.83 16.83 0 0 0 3.425.324c.165-.003.307-.103.413-.24.206-.265.332-.563.385-.894.007-.053 0-.108 0-.163M22.015 73.139c.216-.037.539-.087.857-.146.175-.029.322-.379.236-.537-.026-.047-.036-.105-.066-.148-.436-.625-.868-1.254-1.314-1.872a3.176 3.176 0 0 0-.45-.471.69.69 0 0 0-.606-.179c-.583.121-1.172.23-1.731.45-.123.048-.218.291-.161.425.021.049.023.107.05.152.338.56.673 1.121 1.02 1.674.285.454.712.655 1.241.656.271 0 .543-.002.924-.004m82.608-54.673c-.037-.102-.051-.223-.117-.298a1.345 1.345 0 0 0-.376-.308 15.467 15.467 0 0 0-2.575-1.057 3.318 3.318 0 0 0-.646-.11.628.628 0 0 0-.571.258 2.503 2.503 0 0 0-.468 1.036c-.036.179.085.502.224.583.095.056.184.123.282.166.855.362 1.713.722 2.571 1.077.1.041.211.054.318.073a.628.628 0 0 0 .467-.11 2.57 2.57 0 0 0 .83-.995c.045-.094.042-.209.061-.315M21.898 96.314c-.245.031-.517.053-.786.102a1.207 1.207 0 0 0-.799.525c-.185.271-.354.551-.424.88-.04.187.08.457.267.548.098.047.191.115.295.135.966.184 1.934.362 2.902.529.158.027.326 0 .489-.011.26-.018.505-.323.472-.567a4.472 4.472 0 0 0-.483-1.556c-.199-.362-.502-.571-.922-.58-.328-.008-.656-.005-1.011-.005m31.943-79.417l-.531.085c-.202.035-.338.336-.235.515.543.949 1.201 1.814 1.896 2.653.034.042.079.074.119.11.172.156.382.233.6.181.477-.113.947-.25 1.372-.508.174-.105.294-.381.222-.562-.021-.05-.023-.108-.05-.154-.302-.517-.596-1.038-.913-1.545-.244-.39-.629-.585-1.067-.693-.428-.103-.864-.092-1.413-.082m31.948 4.973a.886.886 0 0 0 .698-.531.473.473 0 0 0 .021-.312 1.288 1.288 0 0 0-.211-.434c-.677-.847-1.366-1.684-2.052-2.524a.533.533 0 0 0-.125-.101c-.14-.095-.296-.155-.46-.1-.579.194-1.044.556-1.437 1.017-.078.092-.082.367-.006.462.067.083.123.18.202.252.282.253.561.513.863.743a74.99 74.99 0 0 0 1.838 1.341c.177.128.385.199.669.187M6.765 71.332c-.102.025-.212.04-.31.084-.353.155-.651.391-.929.653-.143.136-.162.479-.027.597.041.035.068.086.111.117.85.593 1.615 1.291 2.414 1.947.336.276.681.541 1.028.805a.591.591 0 0 0 .75-.054c.155-.14.225-.431.144-.597-.046-.1-.077-.209-.141-.293a384.655 384.655 0 0 0-2.073-2.732 2.002 2.002 0 0 0-.354-.334.964.964 0 0 0-.613-.193m15.068 33.076c-.052-.088-.119-.236-.216-.359a.77.77 0 0 0-.263-.186 5.95 5.95 0 0 0-.596-.262c-.765-.281-1.533-.555-2.301-.824-.153-.055-.314-.084-.472-.121-.284-.067-.675.133-.816.417a1.334 1.334 0 0 0-.161.623.617.617 0 0 0 .297.545c.184.112.38.213.583.286.969.354 1.942.697 2.915 1.044.051.019.106.019.159.032.157.039.486-.087.583-.225.156-.227.271-.471.302-.748.005-.05-.007-.107-.014-.222M4.439 73.904a.55.55 0 0 0-.396.265 2.711 2.711 0 0 0-.369 1.404c.001.055.012.108.017.163.033.301.31.646.585.727.157.047.312.098.472.131.962.197 1.923.391 2.887.579.103.02.216.003.323-.014a.341.341 0 0 0 .25-.185.294.294 0 0 0-.006-.314 1.377 1.377 0 0 0-.197-.258c-.158-.148-.316-.304-.494-.428-.855-.587-1.664-1.232-2.473-1.879a.877.877 0 0 0-.286-.156c-.098-.031-.21-.025-.313-.035m144.877-46.841c-.167-.404-.331-.809-.504-1.209-.064-.15-.153-.289-.231-.434-.134-.249-.449-.382-.694-.288-.153.058-.303.121-.455.183-.151.062-.3.135-.454.187a1.1 1.1 0 0 1-.945-.109c-.232-.14-.452-.303-.675-.461-.312-.221-.614-.454-.931-.667-.086-.059-.204-.07-.311-.099-.195-.057-.426.187-.373.4.024.103.055.219.121.296.104.125.229.24.365.324.513.313 1.033.614 1.552.917.849.495 1.694.995 2.483 1.587.435.327.914.594 1.377.881.035.024.113.012.154-.014.039-.024.085-.095.074-.133-.11-.485-.378-.903-.553-1.361M15.139 70.349c-.208.036-.474.082-.738.135-.167.032-.303.388-.213.546.348.611.704 1.219 1.162 1.757a.857.857 0 0 0 .56.301 6.46 6.46 0 0 0 1.937-.085c.2-.039.366-.314.297-.498-.019-.05-.022-.106-.044-.154a8.158 8.158 0 0 0-.83-1.393c-.273-.366-.629-.592-1.096-.606-.325-.011-.651-.003-1.035-.003m117.099-49.168c.342-.048.616-.201.779-.514.125-.242.202-.5.23-.773.042-.408-.157-.778-.511-.925-.564-.233-1.687-.558-2.178-.63-.109-.016-.372.117-.422.211-.05.096-.108.188-.148.289a6.381 6.381 0 0 0-.361 1.412c-.009.054.007.108.005.16-.002.17.202.459.359.504.776.215 1.568.311 2.247.266m33.419-2.4c-.01-.046-.01-.105-.034-.153a4.66 4.66 0 0 0-1.098-1.422.746.746 0 0 0-.768-.157 7 7 0 0 0-1.611.812c-.192.132-.273.538-.145.748.347.562.73 1.095 1.219 1.543.181.168.556.212.771.092a10.245 10.245 0 0 0 1.495-1.016c.128-.106.179-.269.171-.447M13.67 42.956c.045.199.073.361.121.52a.927.927 0 0 0 .523.602c.859.366 1.726.71 2.59 1.059.152.062.486-.082.577-.233.144-.241.217-.506.236-.78.016-.229-.079-.427-.226-.599a.712.712 0 0 0-.121-.112 10.611 10.611 0 0 0-2.923-1.487c-.101-.032-.216-.024-.325-.028-.123-.004-.346.168-.375.283-.013.053-.036.105-.041.159-.015.216-.025.434-.036.616m48.924-24.145c-.041-.206-.124-.343-.262-.437a1.035 1.035 0 0 0-.289-.146 21.113 21.113 0 0 0-3.815-.762c-.114-.012-.204.062-.245.171a.257.257 0 0 0-.011.161c.204.569.53 1.064.915 1.523.143.17.338.293.552.321.698.091 1.399.16 2.099.231.105.011.215-.01.324-.016a.756.756 0 0 0 .676-.606c.035-.156.042-.319.056-.44m-16.353 9.127a2.326 2.326 0 0 0-.377.048c-.106.02-.172.121-.204.226-.016.05-.035.109-.024.158.1.476.197.954.313 1.426.084.347.482.628.855.638.493.013.972-.055 1.431-.238.576-.232.91-.554.962-1.36a.683.683 0 0 0-.598-.653c-.692-.138-1.387-.252-2.358-.245m123.842 24.585c-.16.035-.323.054-.476.105-.275.093-.478.293-.51.578-.075.644-.114 1.295-.157 1.942-.02.287.247.614.562.73.314.117.633.126.957.041.236-.061.503-.332.527-.564.065-.647.123-1.294.178-1.944.009-.104-.027-.213-.043-.32-.035-.227-.318-.506-.551-.535-.16-.019-.323-.022-.487-.033M92.48 18.232c.202-.049.475-.095.733-.182a.878.878 0 0 0 .486-.42c.159-.292.246-.606.293-.935a.769.769 0 0 0-.465-.789 2.494 2.494 0 0 0-1.611-.082.764.764 0 0 0-.55.56c-.131.532-.224 1.073-.222 1.625.001.169.287.414.463.382.27-.048.539-.098.873-.159m-22.706 4.614c.169-.034.319-.105.409-.245.183-.28.269-.592.233-.928a.588.588 0 0 0-.223-.421 7.787 7.787 0 0 0-2.17-1.1.786.786 0 0 0-.32-.029.633.633 0 0 0-.304.099 1.098 1.098 0 0 0-.461.986c.005.102.054.21.109.299a.658.658 0 0 0 .225.229c.715.388 1.423.793 2.186 1.083.095.037.212.018.316.027m27.354-4.841c.074.002.347.024.619.027a.633.633 0 0 0 .444-.185c.322-.316.521-.697.576-1.148.016-.132-.103-.362-.22-.413-.15-.063-.3-.152-.457-.174a27.75 27.75 0 0 0-1.794-.189c-.285-.017-.521.14-.676.392-.146.238-.24.494-.269.768-.044.434.148.773.597.832.324.041.653.049 1.18.09M31.907 36.854c.27.013.539.029.809.039.178.006.429-.191.484-.374a1.013 1.013 0 0 0-.151-.922.881.881 0 0 0-.527-.355c-.789-.193-1.578-.38-2.37-.563-.103-.023-.214-.007-.321-.014-.154-.011-.319.186-.28.33.125.472.294.927.564 1.337.157.239.38.393.66.426.375.045.755.059 1.133.086-.001.004-.002.007-.001.01M20.06 107.875c.106-.014.292-.113.435-.295.091-.115.092-.358-.018-.457-.12-.109-.238-.239-.382-.299a31.084 31.084 0 0 0-1.686-.656c-.414-.145-.839-.256-1.26-.376-.191-.053-.453.102-.537.291a2.161 2.161 0 0 0-.162.801.763.763 0 0 0 .551.731c.053.014.103.043.156.05.764.085 1.526.172 2.291.247.161.014.327-.017.612-.037M4.56 77.98c-.182.001-.237.004-.291 0-.178-.016-.409.252-.383.44.007.054 0 .11.012.161.108.48.313.918.556 1.342.201.353.61.533.963.422.516-.162 1.021-.352 1.49-.627a.966.966 0 0 0 .465-.633c.048-.203-.082-.49-.248-.547-.103-.033-.201-.086-.305-.106-.794-.161-1.589-.319-2.259-.452m103.453-55.42c-.002-.02.003-.191-.057-.341a8.204 8.204 0 0 0-1.314-2.256c-.068-.084-.16-.15-.241-.223-.198-.179-.564-.18-.753-.011a2.06 2.06 0 0 0-.606.958c-.048.162.003.323.09.467.028.046.058.097.097.133a232.48 232.48 0 0 0 1.969 1.736.87.87 0 0 0 .288.146c.11.04.223.019.312-.052.133-.104.212-.242.215-.557M39.139 37.708a1.6 1.6 0 0 0-.333-.736 1.123 1.123 0 0 0-.529-.374c-.885-.282-1.78-.524-2.701-.656-.107-.015-.217-.008-.326-.016-.268-.016-.483.289-.42.573.09.407.344.678.705.848.195.092.408.158.621.206.853.187 1.708.361 2.563.535.05.01.106-.018.159-.018.128-.001.294-.226.261-.362m98.823-16.241c-.021-.272-.112-.461-.286-.61-.042-.036-.082-.075-.128-.103a6.629 6.629 0 0 0-2.132-.792c-.241-.046-.572.098-.706.318-.173.282-.292.582-.296.92-.002.13.136.363.242.402.051.017.1.049.15.062.739.187 1.478.376 2.218.556.6.146.962-.254.938-.753m-88.7 11.35c-.011-.057-.072-.433-.157-.802a.545.545 0 0 0-.451-.421c-.564-.091-1.073.083-1.522.421-.072.055-.11.189-.116.288a.67.67 0 0 0 .076.314c.311.636.665 1.248 1.084 1.818.063.084.155.151.238.22.302.25.679.058.806-.234.063-.145.107-.311.109-.47.006-.27-.028-.543-.067-1.134m-4.658 6.3c-.055-.541-.28-.832-.607-1.054a1.173 1.173 0 0 0-.286-.152 18.145 18.145 0 0 0-2.669-.676c-.234-.04-.45.168-.396.368.07.265.168.519.334.732.096.124.239.214.364.314a.45.45 0 0 0 .145.073c.875.286 1.759.535 2.673.659.184.026.448-.215.442-.264m29.813-14.693a1.094 1.094 0 0 0-.198-.617 1.43 1.43 0 0 0-.209-.249 5.51 5.51 0 0 0-1.645-1.041.563.563 0 0 0-.592.151c-.255.316-.326.678-.261 1.071.008.051.038.102.064.148a.465.465 0 0 0 .1.127 9.32 9.32 0 0 0 1.959 1.154c.288.128.686-.099.747-.432.02-.102.025-.212.035-.312m-27.404-2.948c-.371-.013-.708.403-.647.79a.363.363 0 0 0 .176.263c.092.059.189.113.29.152 1.227.465 2.5.773 3.756 1.145.049.013.108 0 .161-.005.116-.01.212-.063.261-.169a.264.264 0 0 0-.046-.306c-.074-.08-.148-.169-.241-.217a440.027 440.027 0 0 0-3.087-1.509 1.246 1.246 0 0 0-.623-.144m-28.836 89.916c-.25.042-.573.093-.895.152-.185.034-.382.292-.385.479-.006.388.068.759.226 1.114.104.234.448.368.697.264.659-.277 1.261-.653 1.832-1.076.084-.063.138-.168.201-.254.118-.167.035-.471-.151-.568-.047-.023-.093-.061-.144-.072-.105-.026-.215-.055-.322-.055-.328-.003-.656.008-1.059.016m154.306-56.314c.04.1.095.25.164.394.05.103.146.157.259.179.358.072.812-.161.928-.478.036-.102.088-.2.105-.303.068-.426.128-.853.183-1.281.015-.104 0-.214-.011-.32a.674.674 0 0 0-.469-.599 1.613 1.613 0 0 0-.472-.075.494.494 0 0 0-.486.352c-.17.682-.284 1.37-.201 2.131M49.718 40.507c-.008-.052.002-.116-.025-.156-.155-.22-.309-.442-.482-.648a2.556 2.556 0 0 0-1.355-.847c-.365-.092-.722-.224-1.11-.217a.49.49 0 0 0-.454.552c.058.343.259.586.545.765.091.057.192.103.295.133.776.234 1.552.471 2.358.585.121.016.199-.053.228-.167m89.851-18.679c-.071.064-.178.125-.221.213-.143.288-.04.734.187.904.044.033.081.074.129.1.67.381 1.374.683 2.12.882a.465.465 0 0 0 .449-.134c.154-.146.185-.451.056-.604-.104-.125-.207-.262-.338-.352-.634-.443-1.336-.754-2.056-1.026-.09-.034-.21.009-.326.017m-61.596 5.351a1.646 1.646 0 0 0-.583-1.261c-.284-.248-.577-.486-.934-.625-.097-.039-.208-.049-.313-.06-.132-.014-.345.129-.385.245-.131.384-.065.744.148 1.079.057.091.128.175.203.251a4.88 4.88 0 0 0 1.146.885.55.55 0 0 0 .462.049c.169-.059.259-.273.256-.563M25.6 62.907c.105-.025.215-.041.315-.082a.26.26 0 0 0 .17-.26c-.004-.106-.01-.227-.062-.313-.42-.706-.94-1.34-1.48-1.958-.066-.078-.18-.116-.275-.167-.125-.065-.368.088-.364.223 0 .056-.025.115-.011.164.178.63.312 1.274.608 1.866.157.317.416.5.772.527.108.009.217.001.327 0m-6.824 53.281a2.156 2.156 0 0 0 1.129-.367c.217-.137.365-.436.3-.703a3.234 3.234 0 0 0-.218-.607c-.113-.245-.462-.362-.696-.266-.406.168-.785.379-1.095.691a.643.643 0 0 0-.18.599c.084.389.45.67.76.653M172.005 14.444c.105-.02.22-.021.314-.064a3.408 3.408 0 0 0 1.285-.969c.141-.174.173-.389.122-.611-.041-.186-.316-.376-.492-.343-.053.009-.11.001-.161.018-.565.2-1.081.493-1.572.835a.551.551 0 0 0-.058.847c.114.108.265.177.404.256.045.027.104.022.158.031m-5.278 1.212c-.273.029-.521.12-.733.303-.106.091-.159.332-.104.452.229.496.546.933.892 1.349a.445.445 0 0 0 .438.151.996.996 0 0 0 .729-.585.484.484 0 0 0 .034-.312c-.157-.539-.491-.957-.945-1.277-.083-.058-.206-.055-.311-.081M20.061 117.389c-.104.031-.219.042-.308.096a.548.548 0 0 0-.204.711c.227.443.548.816.856 1.199.343.424.656.878 1.122 1.186.041.027.107.046.152.033.116-.032.16-.129.106-.248a29.493 29.493 0 0 1-.924-2.278c-.036-.104-.091-.198-.136-.298-.106-.235-.368-.394-.664-.401m-1.139-7.424c-.002 0 .375-.049.751-.111.119-.02.189-.109.204-.219.015-.106-.035-.201-.143-.258a1.374 1.374 0 0 0-.301-.121 3.174 3.174 0 0 0-.481-.096c-.596-.056-1.193-.104-1.791-.152-.053-.006-.108.011-.162.012-.17.001-.419.258-.423.437-.005.208.166.469.34.506.159.032.319.063.48.081.108.012.218.006.327-.001l1.199-.078m45.59-90.987a.593.593 0 0 0-.397.238 1.2 1.2 0 0 0-.211.776.6.6 0 0 0 .229.42c.211.185.467.277.738.333.288.059.561-.059.688-.319.073-.146.132-.3.179-.456.073-.245-.068-.575-.288-.716a1.884 1.884 0 0 0-.762-.287c-.053-.008-.108.006-.176.011m104.75-4.598c-.116.06-.27.12-.401.208a.525.525 0 0 0-.197.583c.119.373.312.699.632.934.14.103.303.117.467.052.206-.083.378-.215.533-.37a.574.574 0 0 0 .069-.747c-.19-.277-.427-.5-.745-.617-.099-.035-.215-.026-.358-.043M17.689 50.365c-.029-.095-.062-.254-.126-.4-.117-.266-.333-.409-.624-.431-.338-.025-.63.34-.513.642.158.409.401.752.769 1.002.109.074.35-.001.42-.129.106-.198.109-.408.074-.684M51.634 39.8c-.05.022-.109.031-.143.064a.21.21 0 0 0-.024.289c.358.492.808.887 1.309 1.225a.614.614 0 0 0 .462.113c.119-.022.18-.107.174-.227a.339.339 0 0 0-.039-.155 3.664 3.664 0 0 0-.705-.9 1.39 1.39 0 0 0-1.034-.409M7.169 83.066c.122.002.209-.051.25-.162a.362.362 0 0 0 .021-.156 4.198 4.198 0 0 0-.278-1.073.454.454 0 0 0-.384-.231.805.805 0 0 0-.156.024c-.351.105-.508.448-.353.747.178.337.416.613.749.803.045.025.101.032.151.048m160.445-29.081c-.004-.063-.005-.117-.011-.171-.069-.525-.352-.749-.877-.691a.433.433 0 0 0-.15.052c-.103.055-.173.153-.141.267.124.428.408.743.76 1.001.095.07.209.061.301-.015a.245.245 0 0 0 .081-.136c.023-.105.027-.211.037-.307m8.657.362c-.011-.219-.035-.438-.15-.632a.327.327 0 0 0-.261-.172.277.277 0 0 0-.272.133 1.006 1.006 0 0 0-.132.296c-.062.27-.052.541.018.812.039.158.187.295.348.303.147.006.33-.12.375-.258.016-.051.044-.102.049-.154.015-.109.018-.219.025-.328M21.901 94.624c-.009-.05-.006-.108-.03-.151-.162-.289-.408-.486-.697-.637-.102-.055-.214-.055-.307.016-.09.068-.124.175-.118.288.037.596.394.863.968.719.116-.03.174-.122.184-.235m154.321-83.342c-.061-.109-.146-.164-.257-.147a1.242 1.242 0 0 0-.798.451.379.379 0 0 0-.07.137.277.277 0 0 0 .056.29c.073.084.174.129.28.098.369-.106.659-.312.796-.688.015-.045-.005-.102-.007-.141m1.8 43.531c-.026.038-.077.079-.074.113.013.125.096.178.218.134.035-.013.079-.076.075-.11-.014-.125-.095-.17-.219-.137"/><path fill="#FFF" d="M39.177 60.474c-.091-.525-.163-.937-.232-1.349l-.076.012c.002-.011 0-.024.004-.034.348-.755 1.028-.51 1.616-.532.242-.01.485-.001.789-.001-.046-.523-.125-1.05-.125-1.578-.001-.226.124-.478.262-.666.064-.09.298-.081.452-.075.361.014.721.056 1.133.089l-.054-.182c-.075-.269-.249-.556-.205-.806.094-.544.535-.785 1.043-.919a13.385 13.385 0 0 1 4.857-.36c.408.042.82.029 1.231.033 2.037.025 4.071.056 6.108.065 1.27.004 2.542-.074 3.812-.035 1.857.06 3.711.218 5.57.285 1.903.07 3.812.086 5.719.118 1.55.026 3.102.012 4.649.064 1.847.062 3.692.183 5.538.269 1.735.082 3.473.164 5.21.217.662.02 1.328-.065 1.991-.056.617.008 1.234.074 1.851.127.993.083 1.985.177 2.978.269.07.006.14.021.207.037.963.251.837.28.924 1.209a75.98 75.98 0 0 1 .205 3.13c.035.701.018 1.404.037 2.106.031 1.163.1 2.326.104 3.488a87.99 87.99 0 0 1-.078 3.595c-.045 1.301-.145 2.602-.172 3.904-.041 2.041-.089 4.086-.042 6.126.028 1.253.247 2.499.353 3.75.083.973.123 1.948.178 2.921.051.98.098 1.962.143 2.942.01.215 0 .432 0 .7-.438.083-.258.953-1.022.844-.489-.07-1.022.198-1.543-.151.079.309.155.62.239.929.029.102.061.205.112.294.4.698-.251 1.052-.511 1.523-.079.146-.289.198-.502.08-.208-.116-.455-.161-.789-.272.045.458.058.827.121 1.188.052.285.176.557.245.839.116.46-.531 1.069-1.065 1.048a15.408 15.408 0 0 0-1.505.029c-.087.006-.233.17-.231.258.01.48.061.959.085 1.438a.342.342 0 0 1-.069.23 25.71 25.71 0 0 1-.758.792.203.203 0 0 1-.14.048c-.346-.019-.692-.067-1.036-.061-.257.004-.514.076-.798.122.103.433.212.874.313 1.319.052.229.099.46.134.691.011.072-.002.172-.044.225-.141.164-.304.307-.448.465-.203.224-.387.281-.728.217-.565-.109-1.166-.033-1.75-.051-1.103-.036-2.205-.08-3.308-.129-1.159-.049-2.316-.111-3.475-.158-.276-.012-.552.035-.827.025-1.088-.041-2.178-.109-3.268-.134-1.327-.03-2.653-.03-3.98-.036a72.119 72.119 0 0 0-2.079.014c-.574.014-1.15.064-1.724.076-.757.015-1.515-.014-2.271.015-.857.032-1.714.114-2.572.152-.439.019-.881-.027-1.321-.007-.538.021-1.073.094-1.611.119-1.351.06-2.7.096-4.051.157a95.92 95.92 0 0 0-2.565.161c-.667.047-1.331.113-1.997.167-1.505.122-3.013.235-4.519.366-1.263.108-2.525.221-3.786.359-.515.057-1.022.252-1.534.253-.222.001-.581-.296-.641-.519-.171-.653-.229-1.337-.319-2.01-.256-1.924-.503-3.848-.756-5.771-.16-1.221-.341-2.438-.479-3.661-.069-.62-.064-1.248-.094-1.872-.02-.458-.012-.92-.083-1.37-.026-.165-.243-.3-.403-.479.511-.551.308-1.256.244-1.921-.245-2.603-.506-5.198-.467-7.817.025-1.715-.055-3.428-.06-5.143a65.386 65.386 0 0 1 .078-3.515c.042-.794.18-1.583.263-2.375.04-.385.046-.772.081-1.158.042-.499.09-.999.149-1.497.032-.279.465-.73.757-.764.282-.033.337-.186.277-.412-.138-.522-.292-1.04-.438-1.56-.012-.045-.03-.094-.02-.135.06-.266.594-.534.862-.496.512.078 1.035.11 1.647.168m41.212 5.352l1.027-.865-.043-.088c-.195.053-.388.14-.583.15-.208.008-.42-.057-.695-.099.302-.204.554-.371.858-.575h-3.944l-.002.098c.65.048 1.301.09 1.95.151.144.013.308.062.41.154.06.054.059.249.011.338-.241.445-.453.918-.958 1.154-.129.061-.217.209-.325.315-.304.292-.606.585-.917.885-.148-.382-.287-.745-.442-1.15-.549.213-1.095.414-1.634.634-.42.173-.809.496-1.311.212-.047-.027-.238.088-.273.174-.125.31-.229.631-.311.955a60.549 60.549 0 0 0-.513 2.222.626.626 0 0 0 .093.438c.407.573.855 1.121 1.257 1.699.246.352.396.727.108 1.166-.219.339-.377.418-.722.193a1 1 0 0 1-.244-.246c-.318-.426-.631-.857-.947-1.286a3.448 3.448 0 0 0-.114.017c-.074.384-.203.768-.203 1.151-.001.372-.192.616-.398.856-.092.108-.213.29-.438.162-.205-.115-.399-.23-.375-.496.035-.362.058-.729.146-1.078.109-.43.297-.842.418-1.269.052-.181.107-.454.018-.565-.594-.727-1.224-1.42-1.842-2.125l-.373-.429c-.183.126-.397.319-.649.435a4.26 4.26 0 0 1-.893.272c-.471.101-.475.088-.443.585.24-.059.474-.137.715-.172.498-.075.999-.146 1.5-.184.257-.021.456.239.329.391-.218.259-.445.521-.716.715-.579.418-1.232.418-1.941.18.038.455.075.862.104 1.271.02.291.179.39.45.343.334-.057.672-.099.999-.185.432-.115.846-.285 1.278-.394.147-.038.388-.019.473.075.11.115.067.311-.106.451-.222.18-.377.447-.611.605-.363.246-.749.484-1.16.631-.352.123-.75.129-1.13.148a.873.873 0 0 1-.518-.125c-.317-.221-.6-.49-.92-.76-.522.879-1.437 1.293-2.364 1.682-.092-.072-.165-.159-.257-.201-.497-.222-.554-.631-.558-1.115a120.164 120.164 0 0 0-.099-4.029c-.024-.559.029-.723.504-.948.344-.163.475-.102.492.265.057 1.201.102 2.4.153 3.6.012.277.029.555.045.855.108-.032.178-.043.238-.073.601-.29 1.203-.577 1.796-.88.065-.035.11-.17.112-.26.023-.918.042-1.836.054-2.754.005-.332.299-.766.609-.811a38.528 38.528 0 0 1 1.891-.223c.335-.029.653.021.797.406.353-.455.828-.471 1.22-.062.325.338.647.68.978 1.01.092.091.217.147.284.191.341-.922.668-1.811.992-2.701.02-.057.021-.167-.01-.188-.423-.266-.827-.608-1.292-.747-.261-.079-.646.137-.938.289-.693.36-1.379.527-2.053.006-.235-.182-.41-.447-.596-.688-.29-.38-.556-.459-1.008-.303-.565.197-.928.624-1.13 1.139-.344.877-1.167.91-1.698.534a7.74 7.74 0 0 1-1.105-.912c-.444-.457-1.007-.621-1.591-.687-.283-.032-.578-.142-.905.063-.59.369-1.23.672-1.875.942-.839.351-1.717.559-2.639.487-.705-.054-1.321-.261-1.705-.929-.143-.247-.356-.454-.536-.677l-.274.234c-.017-.131.005-.297-.05-.329-.283-.165-.575-.381-.882-.417-.784-.091-1.578-.095-2.366-.133.017.102.055.189.041.27-.04.215-.091.431-.159.641-.115.363-.072.767-.412 1.074-.479.43-1.041.67-1.637.817-.671.164-1.363.235-2.043.355-1.138.206-2.236.121-3.3-.369-.237-.109-.534-.092-.804-.133-.021.037-.041.071-.06.107.162.203.351.39.481.611.229.387.189.807.133 1.242-.087.693-.418 1.147-1.089 1.361-.706.224-1.403.476-2.113.686-.259.075-.317.191-.247.426.171.574.39 1.113.755 1.603.411.552.751 1.155 1.135 1.726.671 1.005 1.352 2.003 2.026 3.004.522.775.726 1.648.726 2.567.001 1.529-.417 2.935-1.358 4.249.958.743 1.295 1.8 1.339 2.88 1.059-.409 2.064-.872 3.116-1.183 1.045-.311 2.135-.469 3.29-.712-.189-.277-.352-.515-.544-.8.213-.096.45-.303.677-.29.572.03 1.144.134 1.705.255.329.07.665.184.947.358.275.171.609.39.508.804-.229.936-.796 1.691-1.394 2.537l-.572-1.381c-.055-.13-.095-.275-.184-.379-.069-.082-.212-.169-.306-.154-1.172.193-2.351.361-3.506.629-.735.172-1.459.444-2.141.772-.84.405-1.706.739-2.178 1.731-.34.713-1.047 1.254-1.583 1.877-.134.154-.275.312-.361.493-.485 1.036-.381 2.126-.275 3.213.011.103.094.213.171.293.751.774 1.505 1.551 2.269 2.315.276.277.694.311 1.033.101 1.065-.665 2.255-.896 3.475-.864 1.139.031 2.19.355 3.096 1.16.54.48.943.955 1 1.679.02.247.185.192.334.187 1.351-.064 2.701-.14 4.052-.189 2.342-.086 4.684-.157 7.024-.23.926-.029 1.854-.048 2.781-.064.185-.005.309-.042.419-.229.644-1.081 1.604-1.81 2.687-2.413a10.683 10.683 0 0 1 3.052-1.135c.877-.186 1.796-.306 2.687-.266.962.043 1.914.307 2.903.48.358-.535.204-1.143-.059-1.713-.471-1.021-.978-2.028-1.098-3.167-.06-.583-.078-1.185.382-1.642.41-.406.857-.776 1.312-1.182.009.016-.021-.061-.076-.121-.9-1.03-1.048-2.223-.719-3.5.363-1.414 1.212-2.35 2.693-2.637.621-.119 1.24-.24 1.847-.409.501-.141.655-.683.304-1.075-.273-.303-.609-.551-.914-.825-.535-.481-1.157-.89-1.385-1.634-.016-.049-.102-.076-.148-.109l-.475.949c-.183-.352-.326-.646-.489-.928-.075-.131-.193-.238-.292-.355-.089.141-.242.275-.254.424-.027.301.023.609.035.916.021.545.158 1.119.036 1.63-.375 1.563-1.205 2.89-2.407 3.962-.778.693-1.667 1.244-2.654 1.58-.772.263-1.575.465-2.381.597-.717.117-1.463.082-2.133-.249-.438-.215-.83-.52-1.247-.787.565-.566.822-.601 1.51-.229.08.042.172.068.261.098 1.003.312 1.993.129 2.958-.139 1.732-.48 3.243-1.332 4.251-2.881.646-.995 1.103-2.063.774-3.293-.256-.958.081-1.782.534-2.565-.095-.165-.184-.313-.268-.459.717-.669 1.773-.837 2.442-.38.394-.579.808-1.145 1.167-1.744.181-.301.248-.67.391-1 .119-.277.336-.447.678-.506-.023.373.035.73-.078 1.02a12.5 12.5 0 0 1-.854 1.719c-.286.494-.659.938-.954 1.428-.092.152-.142.438-.059.567.233.37.52.716.833 1.022.585.572 1.229 1.088 1.797 1.674.296.304.442.736.374 1.172-.035.23-.227.434-.29.664-.141.512-.526.736-.981.846-.774.188-1.567.305-2.338.508-.745.195-1.214.694-1.412 1.459-.306 1.166-.08 2.221.699 3.115.251.289.668.442 1.026.625.436.223.891.403 1.327.623.065.031.112.189.092.273-.06.271-.143.537-.242.796-.014.038-.185.064-.241.03-.132-.084-.223-.24-.361-.309-.816-.399-1.668-.484-2.523-.152-.459.176-.539.438-.514.948.047 1.028.469 1.929.891 2.835.327.709.607 1.433.285 2.232-.068.169-.105.351-.177.595.429 0 .817.022 1.199-.005.808-.059 1.55-.346 2.273-.703 1.165-.575 1.669-1.585 1.798-2.797.061-.604-.038-1.224-.054-1.834a245.68 245.68 0 0 1-.066-3.324c-.024-1.989.014-3.98-.064-5.967-.061-1.584-.271-3.161-.386-4.744a178.09 178.09 0 0 1-.264-4.508c-.084-1.799-.134-3.598-.214-5.398-.029-.682-.104-1.364-.151-1.985-.224.251-.457.512-.692.778.08.158.299.401.245.52-.173.392-.212.908-.742 1.062-.293.084-.584.177-.869.283-.979.363-1.97.7-2.926 1.113-.828.359-.893.803-.321 1.507.401.491.804.981 1.184 1.487.563.75.702 1.549.218 2.4l-.668 1.164c-.11-.143-.202-.312-.34-.428-.248-.203-.238-.389-.034-.607.08-.084.131-.194.195-.293.249-.389.37-.801.135-1.229a8.948 8.948 0 0 0-.613-.935c-.401-.55-.858-1.064-1.216-1.641-.294-.472-.314-1.034.07-1.475.337-.385.729-.76 1.171-1.002.647-.354 1.353-.609 2.05-.862.478-.175.984-.275 1.464-.404-.19-.332-.355-.634-.538-.973m6.627 25.812c0-.813.001-1.542-.001-2.271-.005-1.577.031-3.157-.029-4.734-.068-1.809-.223-3.614-.333-5.423-.079-1.292-.143-2.586-.225-3.879-.078-1.246-.169-2.488-.26-3.734-.096-1.35-.16-2.705-.312-4.051-.195-1.722-.472-3.435-.691-5.154-.033-.271-.112-.361-.38-.368-1.008-.024-2.014-.102-3.022-.096a37.488 37.488 0 0 0-3.053.144c-.942.083-1.873.282-2.815.361-1.191.1-2.387.188-3.581.179-2.354-.02-4.708-.095-7.063-.173-1.001-.034-2-.14-3.001-.205-.82-.053-1.639-.085-2.459-.143-1.425-.097-2.849-.221-4.273-.304a153.34 153.34 0 0 0-4.012-.168 190.343 190.343 0 0 0-4.72-.101c-1.112-.006-2.223.056-3.334.071-1.022.013-2.042-.003-3.063.012-.173.003-.343.103-.531.163-.529-.272-1.125-.071-1.729-.124.048.268.097.472.122.679.028.241.141.335.391.349 1.301.068 2.602.155 3.903.229 1.032.058 2.065.1 3.096.163 1.178.071 2.354.163 3.532.234.881.054 1.766.083 2.648.135.868.051 1.735.138 2.604.167.799.028 1.601-.003 2.399.002 1.033.007 2.066.045 3.101.035 1.187-.011 2.372-.065 3.56-.088.622-.012 1.241.01 1.862-.002.562-.011 1.125-.056 1.688-.069 1.485-.036 2.971-.042 4.454-.1 2.008-.078 4.016-.229 6.024-.282 1.823-.05 3.646-.016 5.467-.005.6.003.789.257.792.858.002.738.036 1.477.083 2.214.068 1.042.172 2.083.243 3.125.061.877.113 1.755.139 2.633.021.65-.023 1.303-.001 1.953.029.818.082 1.639.148 2.457.061.757.146 1.51.228 2.266.106.975.242 1.949.321 2.928.075.924.123 1.853.132 2.779.021 2.024.009 4.049.012 6.072v1.213c1.223-.566 1.414-.565 1.939.053m5.516-1.81c.247-.25.34-.562.724-.556.267.005.352-.149.338-.414-.056-1.186-.074-2.374-.151-3.562-.077-1.219-.214-2.436-.313-3.654-.088-1.066-.188-2.133-.226-3.202-.031-.884.019-1.773.042-2.659.026-.916.053-1.832.096-2.748.078-1.723.205-3.445.242-5.169.031-1.526-.031-3.053-.049-4.581-.012-.913.004-1.827-.025-2.739-.037-1.065-.11-2.128-.17-3.193-.012-.222.029-.476-.068-.653-.056-.105-.334-.105-.516-.125-.584-.067-1.17-.13-1.757-.178-.313-.025-.629-.01-.945-.022-.619-.019-1.238-.051-1.858-.065-.686-.017-1.374-.02-2.059-.028-.546-.007-1.092-.015-1.637-.017-.34-.001-.681.03-1.017.003-.645-.051-1.285-.142-1.931-.199-.284-.024-.571.012-.855-.009-.768-.054-1.535-.13-2.302-.184-.28-.02-.563-.006-.842-.001-.341.006-.682.048-1.019.023-.667-.049-1.329-.163-1.995-.195-.654-.032-1.311.005-1.966.014-1.338.019-2.675.055-4.012.06-.934.003-1.871-.031-2.806-.057-.467-.013-.934-.052-1.398-.075-.32-.015-.641-.016-.96-.039-.403-.029-.806-.083-1.209-.11a112.16 112.16 0 0 0-1.924-.113c-.492-.026-.986-.079-1.479-.057-.768.033-1.532.123-2.299.179-.248.018-.498.002-.746 0-.837-.01-1.674-.015-2.511-.034-1.375-.03-2.75-.084-4.125-.105-.673-.009-1.326-.242-2.014-.108-.791.154-1.594.247-2.393.365-.176.027-.296.108-.229.307.054.158.021.358.324.358.799.003 1.599.054 2.397.096 1.62.087 3.238.227 4.859.261 1.565.032 3.133-.044 4.698-.066 1.469-.019 2.939-.031 4.409-.045 1.55-.016 3.101-.06 4.649-.038 1.304.018 2.607.113 3.91.173 1.27.06 2.54.168 3.81.171 1.706.004 3.411-.106 5.117-.105 2.208.003 4.416.045 6.623.109 1.524.044 3.049.142 4.571.235.275.018.549.119.813.209.079.027.16.145.175.232.154.818.294 1.64.437 2.46.213 1.202.417 2.406.642 3.604.174.942.481 1.873.538 2.819.091 1.529.043 3.065.021 4.597-.03 1.897-.094 3.794-.139 5.691-.014.622-.03 1.244-.012 1.864.034 1.163.104 2.327.139 3.491.031 1.006.024 2.013.049 3.02.024.953.049 1.906.111 2.857.037.639.144 1.272.223 1.907m-1.862-2.906c0-1.397.019-2.783-.005-4.166-.042-2.3-.167-4.6-.152-6.899.014-2.276.152-4.554.251-6.829.064-1.492-.047-2.964-.396-4.42a39.232 39.232 0 0 1-.494-2.38c-.194-1.112-.354-2.228-.529-3.343-.029-.195.005-.449-.106-.57-.073-.083-.351.045-.537.036a110.43 110.43 0 0 1-2.379-.167c-.462-.039-.92-.125-1.381-.141-1.006-.035-2.013-.039-3.02-.051-.686-.009-1.369-.009-2.054-.014-.394-.002-.787-.012-1.18-.007-.43.006-.86.032-1.29.041-.233.004-.468-.027-.701-.01-.645.048-1.288.168-1.93.158-1.053-.016-2.104-.115-3.154-.177-.068-.004-.14.016-.21.018-.342.007-.687.035-1.028.012-.489-.033-.972-.13-1.46-.152-.695-.032-1.392-.01-2.089-.032-.416-.012-.829-.089-1.244-.094a46.45 46.45 0 0 0-2.078.029c-1.407.044-2.815.114-4.222.143-.794.016-1.586-.033-2.38-.042-1.138-.013-2.278-.012-3.417-.021-.42-.005-.839-.037-1.259-.029-.212.003-.424.098-.636.095a49.181 49.181 0 0 1-2.138-.068c-.92-.049-1.84-.129-2.759-.185-.693-.042-1.385-.085-2.077-.096-.595-.01-1.191.028-1.786.041-.444.01-.499.07-.449.524.016.146.036.292.059.484.218 0 .438.011.659-.001.609-.033 1.219-.1 1.828-.106 1.537-.015 3.075.03 4.611-.015 1.336-.038 2.67-.183 4.006-.25 2.232-.112 4.44.189 6.651.424 1.542.165 3.087.344 4.635.38 1.823.043 3.649-.091 5.475-.097 1.799-.005 3.602.058 5.402.085 2.462.035 4.925.088 7.387.092 1.425.001 2.848-.076 4.27-.129.528-.021.793.207.861.724.094.721.214 1.439.333 2.156.108.657.279 1.306.335 1.964.101 1.167.146 2.333.336 3.493.154.945.133 1.92.189 2.88.063 1.088.157 2.173.184 3.263.062 2.395.071 4.789.142 7.184.03 1.034.12 2.069.254 3.095.108.822.321 1.631.492 2.443.052.243.118.483.18.727m-3.595-26.63c-.311.028-.556.056-.802.075-.417.034-.834.092-1.253.088-.893-.004-1.782-.054-2.672-.065-2.03-.024-4.057-.034-6.085-.056-.816-.008-1.631-.026-2.448-.048-1.018-.027-2.034-.094-3.051-.085-1.1.008-2.2.113-3.3.119a79.817 79.817 0 0 1-4.208-.078c-.978-.045-1.948-.191-2.924-.288-1.473-.145-2.945-.315-4.419-.42-1.051-.076-2.099-.086-3.16.047-1.11.141-2.245.089-3.368.099-1.248.012-2.495-.014-3.742.006-1.043.017-2.085.086-3.129.112-.76.019-1.52.003-2.284.003l.03.542c.098.012.188.036.28.034.941-.011 1.885-.045 2.827-.035 3.473.035 6.947.069 10.419.136 1.313.025 2.628.128 3.938.213 1.195.079 2.388.194 3.581.275 1.383.093 2.766.17 4.15.244 1.186.064 2.372.134 3.557.165a64.37 64.37 0 0 0 3.138-.003 58.932 58.932 0 0 0 3.339-.156c.981-.081 1.955-.275 2.937-.358 1.899-.159 3.801-.241 5.707-.097.433.034.867.02 1.299.026.349.005.738.311.771.578.233 1.912.469 3.822.713 5.732.071.556.208 1.105.251 1.664.101 1.297.155 2.6.247 3.896.055.781.148 1.561.215 2.344.056.678.094 1.355.15 2.035.035.448-.024.904.188 1.342.07.145-.057.375-.042.562.017.251.108.495.125.747.075 1.305.129 2.609.208 3.915.049.798.165 1.591.181 2.389.024 1.222-.028 2.444-.021 3.667a108.5 108.5 0 0 0 .084 3.277c.022.617.078 1.234.119 1.835l1.25-.106c-.056-.555-.174-1.085-.154-1.609.103-2.658-.262-5.258-.877-7.83a17.486 17.486 0 0 1-.484-3.732c-.053-2.794-.08-5.587-.159-8.379-.054-1.896-.169-3.787-.271-5.681a43.866 43.866 0 0 0-.211-2.81c-.128-1.072-.324-2.136-.486-3.205-.056-.359-.101-.718-.154-1.126M67.224 99.76l17.67.574c-.314-1.697-.623-3.382-.924-5.021-.347.385-.675.874-1.12 1.207-.45.336-1.012.529-1.535.76-.338.15-.688.277-1.043.377-.727.205-1.458.094-2.192.02-.215-.021-.455.046-.665.125-.238.092-.443.259-.676.361-.768.342-1.544.661-2.417.484-.21-.043-.432-.068-.623-.159-.314-.147-.609-.339-.907-.519a.2.2 0 0 1-.08-.145c-.004-.241.462-.606.7-.547.133.036.263.092.392.147.844.367 1.635.132 2.417-.229-.778-.166-1.494-.586-2.356-.289-.542.188-1.159.147-1.735.244-.444.073-.896.158-1.312.319-.43.166-.828.421-1.229.655-.697.407-1.39.819-2.071 1.252-.132.085-.205.265-.294.384M37.2 64.005c-.643 5.114-.638 10.131-.302 15.198.186-.084.386-.115.492-.232.451-.5.899-1.01 1.294-1.555.162-.222.133-.572.277-.814.427-.723.195-2.123-.359-2.7-.291-.304-.615-.574-.914-.87-.836-.828-.745-1.402-.023-2.121.19-.191.256-.381.325-.621.133-.467.242-.981.517-1.361.521-.719 1.15-1.357 1.734-2.029.036-.04.108-.076.11-.116.045-.869.685-1.264 1.331-1.62.402-.221.855-.351 1.292-.504.186-.066.394-.136.583-.12.291.025.571.149.86.188.323.043.446-.119.401-.461-.197-.012-.393-.021-.589-.035-1.628-.104-3.257-.231-4.889-.302-.722-.034-1.447.046-2.14.075m.821 28.891c.07.562.133 1.104.207 1.646.176 1.318.35 2.635.537 3.949.125.883.283 1.76.403 2.643.04.291.185.291.413.261.677-.093 1.354-.19 2.034-.245 2.44-.196 4.881-.375 7.321-.564.617-.047 1.232-.103 1.852-.156-.261-1.358-1.721-2.184-2.787-2.165-1.217.021-2.265.511-3.337.97-.481.206-.975.328-1.48.117a3.923 3.923 0 0 1-1.558-1.18c-.229-.284-.49-.542-.737-.811l-.082.035c.095.915.123 1.823-.247 2.744l-.664-.438c0-.215.006-.387-.001-.56-.041-.962-.068-1.927-.141-2.889-.017-.194-.203-.378-.316-.563-.081-.133-.21-.249-.248-.393-.194-.737-.364-1.482-.55-2.246a62.166 62.166 0 0 1-.619-.155m2.082-16.959c-.029.156-.04.247-.064.335-.145.525-.217 1.088-.461 1.562-.284.555-.693 1.053-1.096 1.535-.381.455-.779.918-1.421 1.039-.048.009-.103.166-.097.25.015.27.066.537.087.807.105 1.385.203 2.77.309 4.152.024.322.073.643.111.971 1.333-.148 2.37-.766 3.298-1.637-.304-.38-.645-.711-.867-1.109-.2-.354-.437-.812-.367-1.168.167-.853.592-1.609 1.463-1.977.446-.188.91-.34 1.372-.51-.403-1.595-1.219-2.941-2.267-4.25m-2.277 16.014c.538-.135 1.103.164 1.446-.398.108.039.245.137.304.102.347-.207.806-.372.988-.689a9.898 9.898 0 0 1 1.708-2.17.551.551 0 0 0 .166-.32c.066-1.049-.254-1.975-.96-2.811-1.071 1.135-2.383 1.82-3.976 2.075l.324 4.211m4.178-25.81c.218.083.41.172.612.228.525.146 1.054.377 1.584.389.756.016 1.518-.123 2.273-.217.845-.105 1.668-.29 2.386-.782a.817.817 0 0 0 .296-.328c.114-.276.185-.57.272-.849-1.235-.08-2.542-.165-3.858-.248-.035.301-.03.595-.109.861-.077.257-.242.489-.377.747-.592-.507-2.374-.36-3.079.199m45.245 31.136c-.084-1.865-.165-3.688-.244-5.51-.303.396-.64.599-1.127.646-.525.051-.693.345-.637.866.056.513.109 1.025.159 1.539.043.452.058.909.123 1.359.056.399.163.791.245 1.166l1.481-.066M76.31 64.525l-.023-.069-8.01.325c.217.539.944.855 1.454.656.373-.146.735-.311 1.097-.48.463-.215.885-.236 1.31.115a5.35 5.35 0 0 0 1.002.645c.491.246 1.001.45 1.571.216.391-.161.795-.29 1.191-.438.116-.044.227-.106.363-.172l-.33-.562.375-.236m-37.412 5.576l.069.071c.704-.24 1.412-.469 2.109-.724.454-.165.598-.438.417-.886-.125-.311-.361-.575-.579-.908-.796.776-1.561 1.484-2.016 2.447m3.578 11.202c-.657.283-1.27.494-1.725.961-.126.127-.186.421-.135.598.148.51.47.916.928 1.191.607-.815.864-1.708.932-2.75M54.469 64.85c.279.609.749.829 1.327.88.911.079 1.764-.182 2.61-.455.301-.097.588-.232.88-.349-.007-.025-.017-.051-.025-.076h-4.792zm8.563.036l-.055.088c.437.327.858.678 1.318.968.146.093.488.114.577.016.368-.397.673-.852.989-1.271l-2.829.199m-18.064.608l.01-.125c-.915-.361-2.23-.296-2.491.133.415-.06.825-.163 1.234-.164.415 0 .831.099 1.247.156m11.418 1.018c.782-.014 1.593.006 2.314-.421-.01-.044-.016-.086-.026-.13l-2.288.551m2.594-.767c.136.044.266.137.344.104.299-.123.59-.272.864-.442.113-.07.179-.22.266-.332l-.056-.036-1.418.706m-19.247 4.859l.048.143.869-.328-.039-.101c-.292.094-.586.19-.878.286M91.162 91.93c.263-.176.238-.519 0-.895v.895zM157.686 97.64c-.333-.612-.824-.646-1.334-.587-.745.085-1.463-.074-2.188-.195-.354-.059-.719-.069-1.075-.123-.581-.088-1.157-.193-1.733-.289-1.013-.168-2.022-.358-3.04-.492a53.92 53.92 0 0 0-2.866-.272c-.491-.038-.987-.009-1.479-.026-.858-.033-1.716-.086-2.572-.119-.865-.035-1.732-.041-2.597-.096-1.157-.072-2.312-.191-3.471-.264-.809-.051-1.622-.057-2.433-.086-1.323-.045-2.648-.121-3.974-.137-1.722-.021-3.447.008-5.169.008-1.541-.001-3.082.012-4.621-.029-.737-.02-1.471-.182-2.209-.217-1.122-.053-2.246-.057-3.37-.068-.553-.006-1.115.08-1.656.002-.312-.045-.589-.332-.779-.448-.021-.499-.001-.921-.066-1.327-.224-1.385-.268-2.775-.266-4.176.001-.965-.083-1.929-.101-2.894a255.855 255.855 0 0 1-.046-4.552c-.001-2.381-.008-4.764.029-7.145.032-2.081.123-4.16.179-6.24.021-.728-.01-1.457.021-2.183.044-1.045.139-2.088.182-3.133.05-1.234.067-2.47.101-3.706.021-.68.062-1.36.057-2.041-.003-.5-.082-1.002-.095-1.504-.004-.155.097-.314.158-.47.016-.04.075-.071.079-.109.04-.427.377-.39.653-.396.822-.018 1.646-.01 2.468-.018 1.426-.012 2.852-.04 4.276-.038 3.182.004 6.361.025 9.542.036 2.001.006 4.002-.011 6.003.015 2.179.025 4.357.061 6.535.141 2.539.092 5.076.25 7.614.352 1.481.061 2.965.06 4.447.103 1.871.053 3.741.129 5.612.184.553.017 1.107-.015 1.66-.007.238.003.499.001.706.096.136.061.275.297.269.446-.026.391-.16.773-.198 1.165a84.661 84.661 0 0 0-.258 3.178c-.043.732-.016 1.468-.042 2.202-.022.629-.087 1.258-.114 1.887-.03.682-.031 1.366-.058 2.048-.055 1.399-.056 2.805-.192 4.195-.156 1.564-.453 3.115-.655 4.675a124.71 124.71 0 0 0-.44 3.995 94.19 94.19 0 0 0-.289 3.354 300.846 300.846 0 0 0-.366 6.578c-.083 1.978-.109 3.956-.146 5.936-.008.443.088.89.063 1.331-.011.222-.173.44-.284.651-.131.245-.278.48-.472.809m-.872-1.799c.02-.241.035-.358.038-.474.048-1.825.075-3.651.146-5.476.062-1.528.162-3.058.274-4.585.126-1.734.269-3.467.438-5.197.117-1.216.283-2.428.444-3.64.177-1.345.384-2.687.557-4.032.146-1.143.308-2.285.38-3.434.08-1.194.042-2.396.089-3.594.042-.999.136-1.995.199-2.993.092-1.456.177-2.913.268-4.371.033-.523.071-1.048.104-1.539-.927-.035-1.8-.075-2.672-.1-.998-.028-1.995-.04-2.991-.063-1.006-.024-2.011-.041-3.015-.084-.78-.035-1.557-.125-2.336-.158-.488-.021-.979.045-1.468.025-1.232-.052-2.462-.129-3.693-.197-.972-.053-1.942-.134-2.918-.154-1.484-.029-2.972-.005-4.458-.024-.698-.009-1.395-.087-2.093-.099-1.41-.023-2.822-.031-4.233-.031-1.891 0-3.779.027-5.67.02-2.104-.008-4.208-.061-6.312-.062-1.256-.001-2.511.063-3.769.087-.631.012-1.262.002-1.913.002.02.297.048.515.046.732-.007.829-.031 1.657-.037 2.487-.01 1.442.006 2.883-.016 4.325-.017 1.218-.077 2.437-.103 3.655-.017.878.016 1.755-.01 2.633-.037 1.255-.137 2.509-.155 3.764-.03 1.858-.025 3.719-.013 5.577.01 2.002.03 4.004.068 6.005.029 1.538.07 3.077.143 4.612.036.806.15 1.606.221 2.41.038.451.059.903.095 1.459.334 0 .744-.002 1.154 0 1.165.006 2.331-.015 3.497.03 1.348.053 2.695.206 4.046.237 1.479.035 2.957-.041 4.435-.03 2.103.015 4.207.053 6.31.106 1.386.034 2.772.104 4.16.176 1.982.103 3.965.227 5.948.332 1.739.092 3.479.157 5.219.254 1.922.105 3.787.578 5.676.907 1.283.227 2.586.337 3.92.502"/><path fill="#FFB547" d="M102.343 76.244c.403-.651-.134-1.305.079-2.023-.477.044-.892.082-1.305.122-.922.092-1.847.183-2.768.286-.127.014-.244.098-.447.183-.271-.146-.646-.312-.982-.533-.115-.076-.201-.282-.207-.435a29.961 29.961 0 0 1-.018-1.799c.006-.244.057-.486.094-.729.051-.333.331-.37.574-.379 1.588-.049 3.179-.084 4.767-.116.242-.006.339-.096.317-.343-.041-.467-.084-.937-.093-1.404a1.767 1.767 0 0 1 .11-.632c.056-.148.195-.373.298-.373.302-.001.668.004.891.166.583.426 1.088.955 1.651 1.411.844.683 1.716 1.334 2.57 2.005.197.156.395.324.548.52.047.059-.081.233-.074.352.046.766-.515 1.053-1.049 1.381-.867.535-1.735 1.066-2.569 1.65-.492.346-.914.79-1.378 1.18-.051.043-.184.043-.247.008-.249-.148-.486-.316-.762-.498"/><path fill="#FFF" d="M54.267 80.051c.068.572.111 1.012.173 1.451.044.312-.216.855-.493.987-.256.122-.6-.038-.668-.362a24.126 24.126 0 0 1-.267-1.665 37.595 37.595 0 0 1-.219-1.917c-.037-.443-.069-.896-.007-1.331.032-.226.232-.516.432-.606.245-.111.59-.111.771.209.716-.352 1.415-.671 2.234-.485.503.113.607.285.415.771-.07.181-.132.366-.16.556-.064.399-.346.64-.608.896-.174.169-.361.326-.519.467L57 80.149c.104-.508.212-1.016.309-1.525.132-.689.394-1.312.863-1.844.211-.238.916-.188 1.124.113a9.66 9.66 0 0 1 1.283 2.689c.164.537.351 1.068.53 1.608-.107.138-.238.294-.356.457-.107.149-.205.31-.306.465-.201-.167-.472-.294-.584-.507-.191-.357-.279-.768-.41-1.154l-.278-.818c-.216.176-.375.361-.577.457-.499.24-.454.71-.49 1.123-.037.427-.278.711-.527 1.008-.066.076-.108.172-.211.343-.226-.269-.418-.528-.641-.762-.241-.253-.482-.52-.768-.715-.517-.354-1.069-.659-1.694-1.036m-.038-1.129c.729-.096 1.178-.58 1.282-1.384-.499-.063-.878.247-1.25.472-.126.074-.052.486-.063.744-.004.056.019.112.031.168m4.226.076l.445-.105-.328-.598-.117.703M67.537 76.505c-.279.188-.549.308-.731.507-.406.445-.93.648-1.465.854-.07.027-.145.154-.145.235 0 .216.039.432.071.712.556-.133 1.103-.243 1.637-.398.351-.102.39-.117.621.153.316-.512.622-1.048.971-1.558.148-.217.37-.387.577-.555.165-.133.706-.069.849.084.117.123.146.212.005.396-.457.605-1.089 1.105-1.193 1.936-.08.636.005 1.213.487 1.678.22.213.808.119.967-.188.139-.271.203-.582.292-.846l-.941-.41c.18-.207.308-.441.504-.554.203-.116.469-.134.712-.154.12-.011.247.101.371.099.448-.005.482.264.503.623.063 1.115-.602 1.783-1.374 2.422a1.94 1.94 0 0 1-.849.402c-.578.132-.902-.184-1.238-.531-.168-.175-.322-.363-.486-.551-.436.674-1.852 1.265-2.635 1.118-.52-.097-1.055-.835-1.064-1.463-.011-.718.04-1.446-.063-2.151-.067-.453.106-.747.323-1.057.599-.851 2.221-1.273 3.294-.803m-.048 2.237c-.647.658-1.228 1.354-2.214 1.291.018.648.074.697.646.58.368-.076.74-.142 1.093-.262.147-.05.333-.213.36-.353.077-.384.079-.784.115-1.256M46.578 79.559c.506.355.942.692 1.412.973.121.07.358-.016.523-.078.06-.023.117-.201.091-.283-.085-.287-.461-.475-.762-.409-.044.009-.099.038-.132.022-.514-.241-1.146-.268-1.494-.818-.054-.085-.14-.154-.222-.221-.499-.393-.583-.859-.233-1.405.31-.481.628-.963 1.124-1.28a.915.915 0 0 1 .384-.137c.268-.023.541-.023.81-.016.539.016.978.562.857 1.11 1.264-.206 2.47-.729 3.775-.624-.023.329-.144.461-.402.557-.222.082-.479.191-.549.516-.029.133-.265.221-.466.376.071.493.133 1.063.239 1.624.126.666.29 1.324.432 1.988a.338.338 0 0 1-.026.195c-.093.208-.176.424-.298.615-.169.266-.77.147-.888-.205a10.041 10.041 0 0 1-.378-1.5c-.126-.715-.211-1.438-.303-2.158-.033-.252-.141-.316-.38-.242-.337.106-.678.198-1.021.276-.081.019-.213-.017-.266-.076-.178-.198-.333-.42-.506-.646.052-.062.142-.165.213-.247-.125-.107-.218-.23-.34-.279a.554.554 0 0 0-.396-.013c-.208.097-.528.226-.557.386-.057.305.155.564.475.695.554.227 1.113.441 1.648.709.241.119.466.322.63.541.307.412.265.822-.071 1.238-.24.299-.253.73-.612.988-.459.325-.965.336-1.406-.016-.264-.211-.571-.365-.847-.562a3.328 3.328 0 0 1-.535-.454c-.35-.388-.246-.795.235-1.014.104-.046.204-.105.242-.126M58.466 85.481c.092-.081.165-.139.231-.204.436-.423.922-.786 1.515-.92.33-.075.7-.014 1.046.027.198.023.372.173.299.397-.115.361-.271.71-.426 1.059-.049.112-.142.205-.264.373.785.312 1.528.608 2.264.899-.184.309-.322.611-.528.859-.096.113-.274.225-.507.117-.67-.311-1.359-.581-2.106-.893.423.76.36 1.408-.461 1.83-.801-.279-.732-1.074-.97-1.736-.274.401-.53.768-.777 1.143-.176.266-1.041.407-1.3.215-1.31-.971-1.048-2.557-.472-3.539.247-.419.646-.492.972-.719.336-.232 1.062.166 1.279.625.068.148.13.298.205.467m-1.239-.167c-.513.246-.476 1.688.057 2.123.384-.349.353-1.542-.057-2.123M54.225 71.22c.106.819.231 1.636.308 2.458.023.252-.09.518-.135.778-.023.124-.035.249-.051.386-.245-.125-.472-.22-.673-.354-.084-.055-.143-.188-.163-.294-.074-.401-.162-.806-.183-1.212a99.963 99.963 0 0 1-.121-3.238c-.013-.543.554-.941 1.068-.767.083.027.149.132.204.212.301.455.597.912.951 1.456.158-.556.274-1.015.42-1.462.075-.23.179-.458.311-.66.155-.237.756-.141.855.135.207.584.388 1.178.588 1.766.249.73.43 1.499.785 2.175.285.542-.043.927-.106 1.38-.005.029-.138.08-.165.059-.229-.168-.551-.304-.65-.533-.387-.9-.703-1.833-1.019-2.686-.205.539-.449 1.186-.696 1.83-.745-.237-1.049-.871-1.4-1.461l-.128.032M73.841 93.547c-.204.316-.381.607-.577.887-.064.092-.165.189-.268.217-.687.181-1.373.399-2.098.304-.121-.017-.245-.101-.34-.187a2.523 2.523 0 0 1-.422-.467 1.153 1.153 0 0 1-.197-.509c-.065-.868-.105-1.737-.155-2.606-.003-.059.004-.129-.027-.172-.262-.372.125-.577.213-.857.002-.009.018-.017.029-.02.544-.195.923-.692 1.515-.812.598-.12 1.181-.321 1.783-.401.276-.036.582.132.862.204-.24.359-.425.654-.633.93-.059.078-.185.119-.288.144-.559.133-1.126.231-1.678.386-.521.143-.558.247-.459.912.315-.074.629-.143.94-.223.488-.125.969-.287 1.463-.375.174-.03.402.083.56.193.043.032-.051.31-.129.447-.11.193-.246.381-.405.537a.98.98 0 0 1-.417.234c-.483.133-.975.242-1.463.357-.452.104-.591.355-.41.795.026.062.138.137.199.129.465-.064.95-.088 1.384-.242.436-.157.7.084 1.018.195M49.73 95.549c-.865-.26-1.225-.963-1.674-1.521-.08.238-.144.482-.238.713-.099.239-.226.467-.341.703-.155-.068-.267-.127-.383-.166-.515-.174-.488-.646-.524-1.036-.056-.584-.08-1.183-.01-1.761.046-.384.253-.762.443-1.111.124-.229.841-.231 1.019-.016.311.379.59.78.955 1.158-.065-.4-.086-.814-.208-1.197-.129-.412.126-.694.336-.891.154-.141.549-.104.795-.021.126.04.209.351.23.547.095.907.159 1.818.236 2.728.03.35-.025.655-.238.961-.18.262-.263.593-.398.91M60.129 72.032c.109.397.183.766.309 1.116.149.404.187.779-.08 1.15-.064.089-.085.209-.131.33-.365-.082-.657-.196-.816-.621-.315-.846-.388-1.73-.53-2.605-.067-.417-.074-.848-.173-1.258-.077-.32-.386-.45-.685-.545-.062-.02-.132-.02-.22-.033.204-.641.579-1.125 1.146-1.426.805-.426 1.666-.558 2.549-.258.45.152.625.591.563 1.071a4.727 4.727 0 0 1-.909 2.255 5.356 5.356 0 0 1-.588.687c-.089.086-.26.086-.435.137m-.213-1.086c.265-.346.476-.611.673-.884.176-.235.361-.469.502-.723.165-.294.042-.476-.285-.443a7.91 7.91 0 0 0-.896.139c-.079.018-.199.134-.193.193.05.545.123 1.088.199 1.718M53.83 96.027c-.289-.268-.503-.452-.695-.658-.046-.049-.028-.173-.013-.258.172-1 .331-2.004.539-2.997.057-.271.263-.511.411-.76.121-.2.262-.388.387-.586.222-.348.759-.548 1.126-.394.097.04.184.15.231.25.225.488.427.986.652 1.475.08.17.201.319.302.479.017.027.04.055.047.085.129.673.262 1.347.382 2.021.015.08-.024.179-.064.254-.087.156-.169.324-.294.447-.099.096-.283.21-.382.176-.165-.056-.36-.195-.423-.349-.131-.321-.183-.675-.27-1.016-.033-.132-.073-.262-.101-.362-.387.174-.743.328-1.088.5-.077.037-.131.144-.167.229-.193.476-.378.953-.58 1.464m1.458-3.272c-.115-.272-.216-.518-.32-.763-.034.012-.069.021-.104.031l-.126.902c.223-.07.374-.116.55-.17M48.156 70.131l-.839-.807c-.097.072-.303.171-.433.332-.623.773-1.019 1.654-.91 2.66.114 1.066.904 1.496 1.815 1.272.244-.061.397-.206.473-.467.162-.548.339-.695.699-.693.204.001.335.073.294.286-.111.578-.177 1.157-.546 1.675-.431.604-1.027.681-1.617.549-.875-.194-1.645-.63-2.029-1.521-.26-.602-.19-1.219-.076-1.842.207-1.152.734-2.148 1.44-3.059.322-.414 1.303-.536 1.745-.258.276.174.407.582.291.894-.017.042-.04.085-.046.13-.047.273-.09.547-.135.822l-.126.027M49.325 71.755c-.016-.883.384-1.625.711-2.382.038-.091.172-.18.274-.195.354-.061.72-.145 1.07-.107.226.021.5.186.633.373.876 1.245 1.101 2.454.451 3.861a8.883 8.883 0 0 0-.247.566c-.167.439-.766.619-1.146.467-.618-.25-1.257-.539-1.478-1.252-.134-.43-.182-.885-.268-1.331m1.403-1.802l-.115.058c-.072.554-.185 1.104-.205 1.658-.016.445.091.901.46 1.206.128.105.349.145.522.136.248-.015.367-.198.415-.45.143-.77-.099-1.458-.473-2.1-.125-.213-.399-.342-.604-.508M67.539 92.393c.033-.256.087-.508.096-.764.014-.459.223-.83.472-1.189.165-.238.386-.107.549-.027.136.068.32.256.305.367-.119.932-.335 1.853-.41 2.786-.062.776-.576 1.3-.882 2.034-.284-.355-.593-.629-.756-.971-.461-.965-.857-1.958-1.285-2.938-.107-.244-.237-.478-.362-.73.09-.155.169-.355.304-.506.073-.078.241-.092.367-.097.566-.024.6.011.828.543.217.504.45.999.677 1.498.031-.003.064-.004.097-.006"/><path fill="#FFF" d="M73.2 82.07c-.553-.451-.596-.964-.549-1.563a3.398 3.398 0 0 0-.213-1.479c-.124-.307-.324-.699-.756-.792-.574-.124-.927-.511-1.162-1.04.356-.582.59-.697 1.3-.315.541.292.869.174 1.288-.193.382-.339.853-.58 1.291-.853.288-.179.499.074.726.178.027.013-.014.302-.097.411-.375.503-.94.776-1.435 1.135-.216.157-.243.274-.078.513.379.543.516 1.175.532 1.831.007.235-.059.482-.008.704.184.782-.504 1.002-.839 1.463M59.571 95.84c-.476-.193-.721-.423-.747-.918-.054-1.019-.191-2.03-.298-3.105-.657.183-1.179-.031-1.515-.684.149-.432.487-.594 1.019-.619.721-.035 1.437-.221 2.158-.319.632-.087 1.263-.098 1.887.159-.007.188-.032.283-.259.364-.634.227-1.245.521-1.857.804-.061.029-.105.177-.099.264.066.713.14 1.427.22 2.138.057.497.151.985-.259 1.403-.122.126-.165.331-.25.513M62.559 82.363c-.259-.213-.604-.416-.686-.836a55.13 55.13 0 0 1-.364-2.006c-.061-.369-.082-.745-.122-1.135-.073.007-.143.003-.207.021-.309.092-.593.141-.735-.26-.052-.145-.154-.269-.259-.445.167-.316.521-.572 1.062-.613.593-.047 1.177-.188 1.768-.246.214-.021.44.081.656.127-.049.322-.152.498-.444.566-.282.068-.578.547-.532.84.146.936.302 1.871.485 2.801.036.18.049.273-.087.42-.196.21-.335.472-.535.766M45.494 95.881c-.564-.174-.745-.551-.795-1.086a50.868 50.868 0 0 0-.389-2.96c-.06-.4-.066-.792.269-1.034.201-.146.512-.17.777-.178.07-.002.191.251.213.398.177 1.146.333 2.296.5 3.444.086.598-.286.99-.575 1.416M51.977 95.503c-.518-.073-.706-.413-.772-.878-.146-1.021-.312-2.039-.465-3.059-.038-.252.469-.747.747-.736.128.006.264.007.38.049.081.029.182.119.194.192.152 1.003.273 2.012.437 3.013.096.598-.101 1.056-.521 1.419M63.424 95.205c-.573-.131-.662-.68-.703-1.252-.063-.879-.146-1.758-.156-2.639-.002-.234.169-.576.363-.678.202-.105.529.006.796.051.045.006.083.155.093.242.124 1.086.277 2.17.336 3.26.015.277-.255.582-.424.855-.051.086-.2.11-.305.161"/><path fill="#FFB547" d="M122.151 71.947c.339-.621.882-.684 1.299-.506.281.119.4.619.514.81.239-.192.571-.503.945-.745.248-.162.553-.268.847-.322.259-.048.488.264.556.704.163 1.054.292 2.111.483 3.159.105.577-.205.994-.423 1.458-.079.171-.178.163-.332.056-.316-.219-.539-.432-.541-.883-.006-.771-.107-1.541-.188-2.31-.021-.226-.1-.446-.162-.712-.387.381-.706.738-.852 1.25-.136.473-.356.922-.545 1.396-.255-.191-.473-.314-.631-.49-.097-.107-.118-.295-.142-.451-.075-.496-.134-.994-.234-1.492-.529.965-.281 2.15-.905 3.098-.236-.18-.457-.332-.655-.51a.433.433 0 0 1-.113-.278c-.039-.844-.064-1.687-.098-2.529a9.42 9.42 0 0 0-.034-.559c-.03-.331.376-.907.661-.929.363-.027.485.082.51.455.005.07.017.139.04.33M129.123 75.579c.035.237.082.524.12.811.063.486.2.979.156 1.456-.037.404-.284.791-.446 1.181-.015.038-.097.059-.149.064-.261.03-.766-.431-.796-.695-.173-1.491-.354-2.982-.526-4.474-.031-.269-.071-.54-.056-.809.016-.249.03-.458-.359-.463.22-.359.379-.673.593-.945.095-.121.29-.198.452-.229.438-.078.879-.164 1.318-.168.748-.004 1.45.167 1.915.833.345.497.409 1.02.112 1.569-.32.596-.621 1.22-1.244 1.551-.305.165-.675.203-1.09.318m-.242-1.282c.573-.102 1.066-.283 1.436-.723.143-.166.192-.319.107-.539-.231-.6-1.188-.749-1.646-.457-.08.051-.129.227-.116.336.053.448.14.895.219 1.383M151.954 74.604c-.427.439-.917.879-1.661.818-.078-.006-.176.002-.231-.039-.901-.645-1.355-1.518-.861-2.672.283-.66.688-1.228 1.252-1.668.373-.291.79-.52 1.347-.294v-1.203c-.001-.257-.058-.53.009-.769.06-.217.255-.395.398-.604.125.027.246.062.369.076.256.027.357.174.358.418.003.693-.007 1.389.021 2.081.022.603.075 1.207.14 1.808.066.614.163 1.225.242 1.839a.26.26 0 0 1-.032.16c-.17.259-.339.521-.532.761-.047.06-.251.084-.283.043-.198-.241-.366-.506-.536-.755m-.098-2.998c-.11-.013-.201-.039-.286-.03a.777.777 0 0 0-.296.078c-.686.375-1.124 1.34-.893 2.07.052.166.296.359.474.384.458.06 1.1-.608 1.083-1.079-.017-.468-.053-.933-.082-1.423M139.037 75.031c-.236-.201-.466-.348-.621-.552-.092-.118-.078-.327-.088-.495-.032-.559-.057-1.117-.088-1.781-.675.381-1.1.154-1.413-.385.011-.012.048-.034.053-.062.094-.52.487-.66.928-.723.206-.029.231-.119.214-.31-.071-.808-.098-1.619.178-2.401a3.045 3.045 0 0 1 1.113-1.496c.242-.173.513-.269.826-.127.285.129.603.197.879.339.134.069.265.24.289.382.017.103-.145.236-.227.356-.049.076-.081.182-.152.221-.242.137-.442-.003-.634-.137-.119-.083-.229-.182-.328-.26-.854.552-.858 1.361-.788 2.194.013.153.011.307.02.46.039.557.041.553.604.611.27.027.537.066.804.105.069.01.154.021.2.062.148.143.282.3.422.451-.147.1-.281.24-.442.293a5.693 5.693 0 0 1-.923.203c-.28.043-.385.176-.324.451.046.205.075.414.117.621.166.785-.261 1.373-.619 1.98M116.166 72.221c0-.22.035-.352-.006-.445-.077-.168-.171-.383-.315-.452-.14-.066-.36.014-.54.054a.538.538 0 0 0-.269.145c-.13.146-.277.301-.337.479-.081.24.105.371.305.486.657.374 1.323.739 1.955 1.153.609.397.772 1.072.487 1.737-.073.172-.13.351-.222.511-.209.367-.506.526-.904.436-.812-.186-1.622-.388-2.346-.831-.041-.024-.072-.058-.118-.095.018-.067.04-.132.055-.198.114-.525.253-.592.79-.455.499.126 1.005.214 1.509.314.053.011.11-.009.303-.029-.248-.272-.41-.514-.631-.678a3.21 3.21 0 0 0-.883-.479c-.538-.176-.918-.552-1.293-.928-.232-.231-.356-.551-.213-.901.256-.627.56-1.221 1.129-1.631.612-.441 1.88-.264 2.363.32.314.381.232.818.011 1.147-.131.195-.517.223-.83.34M145.606 72.744c.155.77.539 1.107 1.272 1.053.458-.034.912-.16 1.378-.246.174.586-.344.811-.665 1.123-.477.461-1.094.454-1.697.382-.184-.022-.36-.154-.528-.253-.634-.371-1.083-1.33-.995-2.061.02-.156-.08-.332-.042-.478.055-.208.155-.425.293-.591.204-.243.477-.427.684-.669.36-.419.826-.633 1.346-.684.51-.05.915.239 1.241.604.182.205.331.449.448.695.045.094-.023.255-.071.371a.661.661 0 0 1-.189.236c-.201.172-.352.386-.69.371-.52-.023-1.044.04-1.565.072-.069.008-.135.046-.22.075M132.987 75.275c-.228-.207-.423-.366-.591-.549-.064-.068-.092-.193-.094-.291-.007-.68-.003-1.359-.005-2.039-.005-1.045-.032-2.089-.007-3.133.01-.418-.096-.848.216-1.259.233-.307.493-.122.726-.171.086-.017.188.235.174.475-.035.543.057 1.093.089 1.641.023.383.037.765.048 1.146.021.833.008 1.668.067 2.496.033.459-.138.822-.334 1.194-.087.165-.188.32-.289.49M156.608 74.047c-.155.71-.657 1.215-1.262 1.531-.274.145-.793.021-1.101-.156-.34-.197-.624-.607-.485-1.051.156-.496.476-.919 1.019-1.072.13-.037.294.028.439.061.507.109 1.048.146 1.39.687M142.619 70.712c.485.003.562.16.557.669-.006.688.005 1.392.147 2.058.119.566-.054.985-.335 1.411-.116.176-.228.156-.397.012-.647-.553-.58-1.318-.632-2.041-.031-.443-.001-.889.015-1.333.01-.353.376-.779.645-.776M119.16 71.091c.037.042.188.134.212.248.17.885.378 1.768.446 2.659.032.434-.205.889-.332 1.33-.009.031-.132.07-.147.053-.229-.241-.63-.32-.684-.73a96.965 96.965 0 0 0-.339-2.41c-.039-.255-.047-.479.052-.734.128-.34.364-.407.792-.416M134.564 72.509c.067-.231.133-.571.27-.882.055-.124.282-.271.398-.247.229.05.569-.003.598.404.039.584.052 1.181.188 1.744.142.579-.363.843-.485 1.281-.004.011-.145.013-.179-.022-.284-.303-.631-.566-.663-1.037-.027-.373-.077-.746-.127-1.241M119.371 68.569c-.164.486-.308.905-.457 1.351-.252-.219-.485-.383-.665-.597-.071-.083-.066-.304-.005-.404.097-.16.252-.334.419-.388.181-.058.403.016.708.038M142.761 70.388c-.178-.222-.374-.407-.482-.636-.048-.102.043-.324.14-.423.122-.124.329-.269.475-.243.505.081.569.378.218.861-.113.151-.233.293-.351.441M135.171 70.48c-.198-.126-.391-.228-.559-.363-.056-.045-.087-.188-.06-.26.164-.439.406-.578.845-.437.108.035.252.302.213.381-.138.289-.346.543-.439.679"/><path fill="none" d="M26.51 41.714h163.377v66.004H26.51z"/></svg>
