<svg xmlns="http://www.w3.org/2000/svg" viewBox="0 0 196 182"><path class="bubble" fill="#FFB547" d="M86.594 5.78c1.747-.546 3.424-1.073 5.104-1.594.524-.165 1.052-.325 1.61-.364.725-.048 1.413-.239 2.101-.439.58-.17 1.161-.337 1.749-.483a2.992 2.992 0 0 1 1.337-.036c.432.092.781.39 1.005.907.117.27.21.557.284.843.071.284.116.578.159.868.209 1.454.392 2.903.846 4.334.141.441.064.87-.093 1.227a3.818 3.818 0 0 1-.454.8 76.94 76.94 0 0 1-1.757 2.231c-.559.684-1.134 1.346-1.699 2.022-.302.361-.584.75-.901 1.086-.839.885-1.599 1.869-2.372 2.839-.405.51-.821 1.003-1.247 1.483a21.68 21.68 0 0 0-1.842 2.399c-.3.454-.601.906-.924 1.333-1.26 1.665-2.29 3.571-3.297 5.503a22.83 22.83 0 0 0-1.522 3.721c-.119.377-.247.745-.367 1.119-1.063 3.306-.976 3-1.496 6.679a31.746 31.746 0 0 0-.288 4.416c0 .853.055 1.723.101 2.588.031.578.414.932.872.828.214-.05.43-.094.639-.161.838-.264 1.675-.536 2.512-.807.94-.304 1.876-.621 2.881-.709.331-.027.649-.131.965-.222.474-.139.942-.296 1.414-.447 2.513-.802 5.024-1.612 7.539-2.404.575-.182 1.156-.367 1.757-.444.883-.114 1.731-.333 2.571-.597.734-.229 1.47-.458 2.209-.667.422-.119.848-.25 1.289-.289.891-.078 1.735-.319 2.581-.557.474-.137.949-.293 1.443-.348.83-.089 1.643-.235 2.442-.445.212-.054.431-.097.651-.11a11.15 11.15 0 0 0 2.124-.352 6.15 6.15 0 0 1 .815-.146c1.209-.151 2.418-.297 3.63-.435.607-.07 1.218-.111 1.824-.176a87.981 87.981 0 0 1 7.35-.427c1.516-.028 3.037.003 4.557.021 2.424.029 4.858.175 7.308.475 1.711.209 3.425.487 5.138.89 2.459.579 4.915 1.271 7.354 2.266 1.926.784 3.837 1.651 5.694 2.818.326.203.661.377.993.567.33.189.668.353.989.574 1.659 1.15 3.352 2.211 4.913 3.645.199.182.414.337.622.505a56.9 56.9 0 0 1 4.53 4.07 72.784 72.784 0 0 1 3.415 3.649c1.242 1.429 2.468 2.893 3.516 4.56 1.085 1.722 2.244 3.365 3.38 5.035 1.913 2.809 3.667 5.746 5.031 8.985.087.202.181.405.281.603.445.852.775 1.762 1.088 2.677.264.772.526 1.545.784 2.323.988 2.98.986 2.98 1.632 6.004.015.072.034.146.05.217.501 2.398.79 4.793.876 7.174.055 1.51.07 3.016-.053 4.485a43.587 43.587 0 0 1-.89 5.901c-.47 2.115-1.074 4.119-1.941 5.949-.133.285-.236.594-.36.891-.617 1.471-1.304 2.877-2.105 4.177a67.387 67.387 0 0 1-.97 1.544c-.564.86-1.113 1.738-1.708 2.562a58.872 58.872 0 0 1-4.702 5.737c-1.816 1.957-3.62 3.937-5.557 5.719-.167.156-.328.322-.494.482-.658.643-1.312 1.291-1.977 1.926-1.45 1.389-2.978 2.654-4.472 3.976a108.81 108.81 0 0 1-4.836 4.019c-.932.734-1.861 1.471-2.797 2.195-.534.416-1.075.818-1.619 1.217-.636.457-1.283.9-1.92 1.359-.502.358-.984.753-1.496 1.092-2.089 1.395-4.176 2.797-6.285 4.153-1.544.993-3.115 1.94-4.688 2.881-1.286.767-2.576 1.531-3.898 2.225-1.074.563-2.099 1.247-3.222 1.703a2.304 2.304 0 0 0-.432.249c-.464.319-.974.524-1.471.762-1.29.622-2.539 1.346-3.87 1.873-.102.04-.193.105-.286.168-.559.377-1.173.617-1.788.857-.512.2-1.044.36-1.517.65-.904.558-1.879.927-2.859 1.285-.566.207-1.143.399-1.66.729-.614.396-1.278.651-1.954.888-1.088.383-2.173.772-3.264 1.154-.728.252-1.44.531-2.119.919-.43.247-.891.438-1.358.597-3.647 1.221-7.299 2.427-10.95 3.637-.521.174-1.051.324-1.606.373-.668.06-1.303.24-1.931.439-1.363.426-2.729.849-4.093 1.272-.525.164-1.055.317-1.611.356-.671.047-1.304.229-1.938.416-1.159.342-2.303.738-3.54.796a.827.827 0 0 0-.164.028c-1.319.391-2.69.573-4.046.818-1.196.217-2.413.326-3.616.509-.927.144-1.883.169-2.818.278-2.925.347-5.908.337-8.909.166-2.659-.149-5.331-.43-8.024-1.021-2.405-.529-4.798-1.18-7.188-2.07-2.791-1.038-5.524-2.388-8.216-3.998-.329-.197-.664-.369-.994-.56-.331-.19-.662-.378-.986-.589-2.282-1.478-4.471-3.208-6.605-5.076a26.578 26.578 0 0 0-2.026-1.618c-.479-.342-.966-.677-1.421-1.077-1.881-1.645-3.709-3.393-5.344-5.471-.658-.836-1.335-1.654-1.977-2.51-1.158-1.542-2.273-3.129-3.249-4.857-.287-.512-.588-1.01-.885-1.513a46.474 46.474 0 0 1-1.675-3.097c-.977-1.984-1.974-3.959-2.741-6.062a5.216 5.216 0 0 0-.264-.613c-.579-1.12-.977-2.32-1.381-3.518-.378-1.128-.748-2.259-1.119-3.389a21.245 21.245 0 0 1-.696-2.575 16 16 0 0 0-.366-1.512c-.489-1.646-.803-3.316-1.081-4.983a72.745 72.745 0 0 1-.98-13.853c.022-.852.068-1.697.08-2.551.033-2.283.29-4.49.431-6.737.017-.28.059-.552.096-.826.258-1.915.504-3.837.781-5.744.227-1.566.511-3.105.918-4.58.105-.383.177-.787.274-1.174.164-.648.318-1.301.512-1.926.352-1.13.723-2.243 1.1-3.354.168-.492.368-.961.559-1.438.265-.651.536-1.297.805-1.945.171-.414.328-.837.512-1.24a155.235 155.235 0 0 1 2.418-5.12c.978-1.957 1.917-3.95 2.987-5.821.549-.96 1.063-1.957 1.602-2.93.18-.322.383-.622.584-.923.267-.402.541-.796.812-1.194.442-.646.871-1.307 1.33-1.931.564-.77 1.149-1.516 1.733-2.262a28.628 28.628 0 0 1 7.193-6.564c.752-.483 1.553-.85 2.312-1.311a11.002 11.002 0 0 1 2.253-1.025c.677-.226 1.354-.453 2.035-.673.836-.27 1.678-.521 2.578-.566.332-.019.651-.113.977-.174.326-.058.647-.141.979-.168 2.885-.244 5.785-.381 8.755-.029.912.108 1.821.19 2.731.292.683.075 1.366.165 2.049.241.381.043.655-.265.63-.706a98.394 98.394 0 0 0-.134-1.952 29.743 29.743 0 0 1-.08-3.872c.115-2.256.296-4.488.712-6.627.169-.868.322-1.741.494-2.604.356-1.798.833-3.523 1.308-5.247.423-1.532.902-3.032 1.588-4.375.084-.165.148-.352.218-.533.907-2.354 2.06-4.464 3.518-6.268.297-.365.578-.752.882-1.108.955-1.114 1.93-2.198 3.04-3.074a54.01 54.01 0 0 1 2.425-1.83c1.19-.836 2.42-1.597 3.725-2.197a6.78 6.78 0 0 0 .877-.468c.563-.366 1.172-.618 1.795-.836a2644.08 2644.08 0 0 0 4.918-1.705m78.145 47.059c-.242-.216-.47-.482-.763-.544-.038-.008-.099.046-.104.092a.268.268 0 0 0 .063.178c.253.261.529.262.806.27l-.002.004zM64.718 54.996c-.404-.794-.941-1.438-1.51-2.043-.288-.307-.608-.535-.955-.622-.567-.145-1.135-.291-1.695-.265-.135.005-.261.292-.214.462.139.515.428.928.672 1.371.299.54.697.881 1.185.973.853.164 1.699.263 2.517.12v.004zm24.836-41.123c-1.11.392-2.251.792-3.389 1.197a9.522 9.522 0 0 0-1.643.779c-1.006.586-2.009 1.175-3.028 1.74a19.235 19.235 0 0 0-3.428 2.422c-.598.528-1.186 1.07-1.775 1.612-1.224 1.126-2.299 2.449-3.329 3.841-1.209 1.641-2.225 3.471-3.141 5.408-.135.285-.271.568-.382.87-.558 1.518-1.083 3.062-1.513 4.665-.223.833-.39 1.706-.525 2.587a35.857 35.857 0 0 0-.01 10.864c.264 1.744.594 3.484 1.193 5.183.147.419.263.852.372 1.281.093.364.1.725.053 1.072-.077.541-.494.982-.9.955-.17-.013-.34-.021-.512-.046-3.594-.497-7.17-.799-10.71-.761-1.346.014-2.68.115-4.017.192-.332.021-.653.11-.98.165-.326.057-.646.147-.98.164-.899.044-1.742.287-2.58.556-.627.203-1.254.406-1.878.619-.936.318-1.875.634-2.706 1.22-.136.097-.289.165-.439.235-1.813.83-3.442 2.023-4.966 3.411a69.692 69.692 0 0 0-2.363 2.259c-1.795 1.811-3.307 3.972-4.735 6.241a52.42 52.42 0 0 0-3.338 6.223c-.783 1.722-1.564 3.453-2.162 5.334-.893 2.809-1.814 5.601-2.719 8.403-.261.811-.5 1.637-.655 2.512-.047.27-.109.531-.178.787-.556 2.053-.968 4.186-1.382 6.317-.673 3.468-1.154 7.028-1.561 10.614a74.704 74.704 0 0 0-.502 8.643c.01 3.943.297 7.922.968 11.928.328 1.957.753 3.907 1.365 5.834.562 1.771 1.128 3.534 1.765 5.28a37.399 37.399 0 0 0 1.745 4.082c1.605 3.173 3.42 6.14 5.565 8.811 1.243 1.546 2.464 3.12 3.821 4.505.433.442.869.884 1.31 1.316 1.422 1.393 2.911 2.65 4.389 3.926.305.262.624.499.94.734.423.313.854.607 1.277.921 1.803 1.335 3.673 2.414 5.562 3.435 1.108.598 2.218 1.184 3.345 1.689a47.601 47.601 0 0 0 11.443 3.51c4.126.721 8.186.882 12.208.659a96.258 96.258 0 0 0 4.994-.39c.332-.035.658-.094.983-.151.327-.056.644-.157.977-.176.839-.05 1.646-.216 2.448-.417.213-.054.432-.098.653-.107.842-.042 1.639-.25 2.431-.481.58-.17 1.164-.327 1.78-.365.558-.035 1.091-.172 1.619-.326.527-.155 1.055-.31 1.581-.468.528-.158 1.059-.298 1.616-.338.671-.051 1.303-.238 1.933-.434 1.574-.493 3.147-.984 4.719-1.482.838-.265 1.678-.517 2.563-.621.493-.059.971-.205 1.439-.356a265.826 265.826 0 0 0 4.694-1.558c.52-.178 1.037-.376 1.518-.645.68-.381 1.396-.656 2.124-.905 1.766-.613 3.53-1.227 5.293-1.841.883-.309 1.762-.619 2.57-1.123.376-.234.797-.376 1.206-.535.614-.24 1.241-.444 1.856-.689.459-.181.924-.361 1.35-.618a11.38 11.38 0 0 1 1.945-.909c.724-.267 1.435-.557 2.086-.998.092-.063.188-.125.29-.16 1.404-.492 2.658-1.342 4.023-1.935.402-.175.781-.409 1.171-.618.294-.156.575-.339.876-.472.604-.271 1.195-.566 1.751-.946.093-.062.189-.118.29-.162 1.313-.578 2.528-1.367 3.767-2.11.715-.429 1.454-.8 2.167-1.231.713-.434 1.416-.883 2.126-1.322a145.115 145.115 0 0 0 5.2-3.346 179.71 179.71 0 0 0 6.979-4.986c2.521-1.885 4.972-3.898 7.415-5.923.609-.506 1.19-1.065 1.786-1.594.728-.64 1.462-1.267 2.188-1.906.344-.298.694-.589 1.01-.927.758-.802 1.559-1.536 2.357-2.271 2.315-2.131 4.521-4.424 6.689-6.771.235-.257.468-.523.686-.803 1.16-1.5 2.325-2.996 3.475-4.514.357-.475.692-.979 1.003-1.506a104.172 104.172 0 0 0 2.011-3.53 32.436 32.436 0 0 0 2.861-7.348c.613-2.392.981-4.907 1.113-7.534.154-3.066-.188-6.172-.698-9.305-.48-2.015-.815-4.058-1.541-6.027-.255-.697-.473-1.409-.716-2.114-.121-.35-.235-.707-.387-1.042-.854-1.886-1.663-3.801-2.637-5.617a46.88 46.88 0 0 0-2.828-4.668c-1.108-1.593-2.23-3.167-3.495-4.587-1.021-1.15-2.03-2.317-3.114-3.368-1.032-1.001-2.067-1.998-3.179-2.832a9.156 9.156 0 0 1-.621-.506 26.48 26.48 0 0 0-4.795-3.383c-.938-.521-1.868-1.089-2.806-1.619-1.774-.998-3.583-1.743-5.395-2.482-1.981-.806-3.983-1.388-5.981-1.873-1.772-.43-3.546-.829-5.312-.985a8.032 8.032 0 0 1-.51-.057c-3.2-.438-6.354-.477-9.494-.416-1.514.029-3.005.188-4.495.342-1.27.132-2.534.29-3.8.441a8.213 8.213 0 0 0-.816.135c-.539.118-1.077.236-1.638.254a.837.837 0 0 0-.167.015c-.812.158-1.61.369-2.438.46-.832.091-1.629.284-2.428.498-.477.129-.955.267-1.451.313-.835.078-1.632.283-2.421.518-.896.266-1.791.526-2.74.603-.441.035-.863.179-1.287.294-.582.163-1.159.343-1.737.518-.581.176-1.163.334-1.776.381-.559.037-1.09.18-1.617.336-.631.19-1.26.393-1.898.563-.474.13-.956.259-1.45.314-.721.08-1.416.241-2.1.448-.473.145-.945.294-1.424.415-.426.109-.855.218-1.296.262-.665.067-1.311.204-1.945.389-.632.184-1.271.345-1.944.381a3.026 3.026 0 0 0-.656.093c-1.113.313-2.271.441-3.413.641-1.959.342-3.943.558-5.928.777-.441.051-.882.1-1.328.129-.388.023-.779.04-1.174.024-.771-.033-1.378-.641-1.6-1.579-.393-1.661-.729-3.328-.877-5-.136-1.521-.284-3.047-.359-4.559a36.281 36.281 0 0 1 .185-5.732c.127-1.174.306-2.33.483-3.483.083-.54.209-1.064.329-1.589.148-.653.317-1.298.464-1.953.176-.792.422-1.533.73-2.233.256-.579.486-1.182.743-1.76a43.35 43.35 0 0 1 .874-1.887c1.01-2.013 2.09-3.954 3.379-5.674.286-.379.556-.782.822-1.185a27.755 27.755 0 0 1 2.496-3.241c.31-.348.618-.699.914-1.069.921-1.153 1.832-2.316 2.818-3.389.47-.511.929-1.048 1.292-1.696a.34.34 0 0 0 .026-.196c-.019-.167-.109-.275-.247-.277a7.389 7.389 0 0 0-2.457.357c-1.2.381-2.411.749-3.646 1.136M36.458 60.695c-.47-.994-.937-1.987-1.508-2.911-.181-.292-.544-.414-.772-.245-.134.099-.273.189-.401.3-.213.186-.426.371-.625.578a125.5 125.5 0 0 0-1.659 1.753c-.076.083-.128.202-.188.309a.934.934 0 0 0-.029.805c.467 1.083 1.034 2.096 1.746 2.98.232.29.732.384.953.17.533-.513 1.06-1.036 1.586-1.559.324-.319.69-.579.953-.99.031-.052.068-.102.087-.162a1.12 1.12 0 0 0 .012-.62c-.034-.136-.101-.271-.155-.408m-4.421 5.054c-.031-.091-.047-.164-.078-.229-.418-.862-.859-1.708-1.404-2.47-.08-.113-.185-.202-.28-.301-.14-.147-.522-.199-.654-.092-.043.037-.097.058-.136.099-.822.904-1.571 1.895-2.191 3.042-.056.108-.1.236-.127.366-.058.273-.047.563.106.833a12.33 12.33 0 0 0 2.047 2.71c.171.171.494.166.628-.002.075-.09.164-.164.225-.268.442-.732.943-1.394 1.437-2.065.139-.193.259-.409.382-.62.132-.231.146-.726.045-1.003m71.985-18.557c-.312.104-.626.196-.933.313-.15.059-.3.138-.428.244-.23.191-.354.498-.301.878.118.793.273 1.589.419 2.381.024.142.083.282.127.423.124.403.501.8.807.849.114.018.228.046.342.05.911.044 1.749-.192 2.539-.595.278-.14.448-.617.356-1.03-.225-1.004-.461-2.007-.694-3.013-.017-.07-.059-.134-.08-.203-.106-.314-.472-.634-.714-.611-.221.021-.44.032-.652.084-.266.064-.52.167-.779.253l-.009-.023M19.999 93.961c-.027-.071-.048-.143-.084-.206-.072-.127-.139-.263-.227-.368-.908-1.068-1.819-2.133-2.729-3.196-.045-.054-.099-.092-.146-.143-.235-.247-.635-.188-.721.107-.262.881-.446 1.81-.629 2.735-.083.426.018.859.307 1.225.218.275.457.527.688.787.739.838 1.491 1.652 2.157 2.59.077.108.2.175.308.23a.231.231 0 0 0 .303-.062.79.79 0 0 0 .18-.317c.219-.979.429-1.964.63-2.956.024-.123-.023-.284-.037-.426m78.268-45.325c-.356.163-.709.317-1.055.485-.191.093-.366.586-.32.866.023.144.035.291.072.432.187.719.418 1.423.7 2.108.081.202.198.396.323.563.124.173.282.305.463.345.056.014.112.045.168.047.798.061 1.573.012 2.29-.288.149-.062.287-.164.411-.279.18-.163.244-.439.213-.729a24.69 24.69 0 0 0-.248-1.737 8.813 8.813 0 0 0-.294-1.067c-.208-.646-.777-1.122-1.278-1.044-.489.076-.968.197-1.445.298m10.85-2.706c-.306.134-.667.262-1 .452-.248.139-.389.436-.41.799-.016.275-.001.569.043.855.118.726.332 1.43.619 2.117.168.403.539.742.854.763.737.052 1.45-.005 2.129-.236.154-.053.306-.121.444-.211.249-.156.37-.44.394-.808.004-.069 0-.143-.006-.214-.082-1.099-.387-2.154-.838-3.178-.168-.38-.583-.681-.895-.622-.43.081-.856.181-1.334.283m7.646.658c-.093-.224-.245-.643-.426-1.044-.198-.439-.509-.673-.875-.731-.812-.13-1.569-.013-2.253.381-.308.179-.433.547-.426 1.005.002.142.011.291.041.431.177.796.408 1.576.74 2.321.031.068.068.131.105.191.158.259.359.457.596.49.92.132 1.792.039 2.598-.359.339-.168.495-.689.354-1.22-.039-.142-.067-.289-.113-.428-.088-.283-.185-.564-.341-1.037m-99.587 61.639c.074-.086.187-.146.215-.261.232-.905.367-1.86.476-2.824.057-.513-.121-1.007-.423-1.446a3.641 3.641 0 0 0-.258-.339c-.746-.833-1.505-1.646-2.306-2.383-.25-.229-.629-.115-.688.203-.166.87-.261 1.767-.283 2.694a2.366 2.366 0 0 0 .562 1.614c.179.219.351.446.539.652.608.673 1.22 1.339 1.833 1.999.1.108.222.122.333.091m23.065-51.305a11.844 11.844 0 0 0-1.055-2.043c-.169-.259-.562-.433-.792-.339-.051.021-.108.021-.155.051-.561.349-1.124.695-1.675 1.061-.134.092-.239.245-.343.389-.151.206-.152.487-.08.783.033.141.094.279.149.415.368.883.811 1.722 1.295 2.525.27.447.654.63 1.073.372a22.95 22.95 0 0 0 1.507-1.032c.36-.261.485-.902.313-1.461-.043-.14-.091-.281-.237-.721M21.427 88.291c-.128-.183-.235-.384-.375-.525a85.435 85.435 0 0 0-1.62-1.572 27.5 27.5 0 0 0-1.049-.958.53.53 0 0 0-.331-.125c-.107-.004-.24.024-.297.112-.396.62-.638 1.362-.728 2.202-.03.284.07.573.199.844a.934.934 0 0 0 .116.185 52.74 52.74 0 0 0 2.754 3.163c.168.178.512.139.611-.055.056-.111.128-.21.17-.329.108-.306.209-.617.306-.929.134-.44.297-.866.322-1.364.009-.205-.049-.429-.078-.649m20.552-35.515c-.367.133-.739.231-1.034.505-.217.201-.323.5-.292.883.01.139.036.289.074.427a7.343 7.343 0 0 0 1.097 2.365c.266.376.593.549.939.493a5.901 5.901 0 0 0 1.981-.728c.256-.146.39-.666.275-1.075-.019-.068-.031-.142-.054-.21-.296-.924-.74-1.751-1.257-2.527a.808.808 0 0 0-.627-.373c-.398-.024-.748.135-1.102.24m-13.47 18.381c-.054-.116-.099-.266-.178-.377a21.005 21.005 0 0 0-1.83-2.305c-.046-.051-.104-.08-.154-.124-.161-.143-.5-.116-.618.048a10.64 10.64 0 0 0-1.246 2.235c-.127.315-.051.897.177 1.228.283.409.576.811.87 1.208.293.397.593.789.894 1.182.238.309.589.369.757.136.522-.72.964-1.521 1.331-2.396.099-.236.104-.522-.003-.835m98.194-26.028c-.081-.208-.213-.553-.353-.898-.169-.421-.549-.759-.859-.746-.612.025-1.224.062-1.834.105a1.008 1.008 0 0 0-.314.095c-.328.136-.523.425-.544.883-.009.213-.002.43.025.646a7.51 7.51 0 0 0 .44 1.715c.192.518.612.884.992.83.767-.104 1.528-.22 2.293-.336.054-.008.098-.046.151-.062.234-.075.404-.489.371-.806-.048-.441-.194-.86-.368-1.426M24.381 79.852c-.081-.158-.156-.386-.284-.534a22.48 22.48 0 0 0-2.291-2.324c-.174-.151-.503-.106-.6.097-.292.618-.578 1.24-.86 1.867-.115.257-.037.757.145 1.021a23.826 23.826 0 0 0 2.224 2.782c.046.049.106.071.158.112.187.149.506.122.618-.052.033-.05.078-.086.104-.14a9.654 9.654 0 0 0 .807-2.365c.024-.125-.01-.28-.021-.464M49.69 53.656c-.187-.446-.353-.852-.529-1.254-.231-.525-.584-.76-1.014-.822-.688-.096-1.326.029-1.948.231-.154.05-.296.137-.441.211-.275.146-.417.646-.301 1.05.042.143.073.287.125.421a9.611 9.611 0 0 0 1.004 1.926c.209.309.498.47.785.435.763-.095 1.484-.334 2.19-.618.329-.134.469-.569.323-.994-.07-.207-.137-.416-.194-.586m68.51-7.094c.165.384.352.865.574 1.321.165.34.429.558.724.633.223.056.452.085.672.081.389-.008.752-.123 1.105-.267.383-.154.601-.594.511-1.098a74.87 74.87 0 0 0-.407-2.146c-.127-.604-.546-1.028-1.039-1.087-.113-.015-.227-.041-.337-.036a6.73 6.73 0 0 0-1.915.393c-.222.079-.374.519-.284.846.119.425.245.846.396 1.36m-22.185 5.425c-.17-.423-.356-.9-.556-1.369-.164-.383-.582-.683-.883-.659a3.861 3.861 0 0 0-1.695.541c-.267.16-.43.637-.352 1.033.158.794.399 1.561.745 2.289.166.348.416.608.714.633a5.798 5.798 0 0 0 1.958-.174c.287-.075.506-.571.414-.96-.103-.427-.217-.851-.345-1.334m-79.469 63.751c-.066-.127-.128-.26-.199-.381a.73.73 0 0 0-.132-.163c-.64-.597-1.311-1.112-2.03-1.488-.254-.134-.56.091-.601.438a9.928 9.928 0 0 0 .061 2.748c.058.369.212.706.449.971.596.672 1.203 1.32 1.874 1.857.199.156.505.043.531-.21.114-1.097.139-2.217.126-3.347-.001-.136-.051-.282-.079-.425m111.683-70.401c.08.198.212.544.352.881.167.407.566.756.861.742a49.922 49.922 0 0 0 1.82-.121c.161-.016.31-.101.458-.167.215-.093.388-.536.345-.832-.098-.651-.28-1.288-.484-1.921-.096-.305-.446-.664-.686-.686-.904-.087-1.8-.131-2.646.112-.053.014-.1.049-.15.07-.101.042-.228.346-.222.496.018.443.178.859.352 1.426M16.93 110.578c-.1-.158-.198-.363-.332-.518a288.048 288.048 0 0 0-2.34-2.657c-.244-.275-.583-.127-.617.259-.077.898-.125 1.808-.082 2.741.018.374.144.726.402.981.629.624 1.268 1.231 1.957 1.727.154.111.33.163.496.225.147.055.347-.096.396-.254.195-.635.232-1.33.216-2.046-.003-.138-.058-.282-.096-.458m72.153-58.982c-.292.141-.591.269-.881.419-.282.147-.448.62-.381 1.006.099.584.291 1.133.565 1.649.181.336.433.542.728.63.113.035.227.062.337.071a3.385 3.385 0 0 0 1.889-.429c.271-.15.427-.618.361-1.022-.095-.581-.284-1.133-.508-1.674-.24-.58-.709-.93-1.153-.857-.107.019-.217.021-.321.051-.207.062-.412.134-.618.202l-.018-.046m-70.825 50.319c.061-.101.192-.228.235-.405.166-.692.056-1.404-.322-2.082-.716-1.285-1.559-2.421-2.578-3.33-.049-.045-.108-.07-.161-.111-.19-.15-.509-.068-.58.141a4.847 4.847 0 0 0-.242 1.822c.017.292.124.571.284.818.079.121.161.242.254.341.854.898 1.708 1.795 2.569 2.682.144.147.319.217.541.124m32.589-49.003c.104.231.302.704.526 1.159.169.34.426.571.716.662.278.086.568.158.839.146.549-.023 1.089-.102 1.631-.168.255-.031.402-.474.285-.806-.05-.138-.084-.285-.152-.41a43.158 43.158 0 0 0-.741-1.32c-.317-.542-.749-.795-1.216-.854a7.453 7.453 0 0 0-1.827-.014c-.275.033-.471.426-.363.743.024.069.037.14.062.208.048.139.099.275.24.654m86.085-8.39c-.078-.178-.157-.387-.256-.583-.175-.352-.428-.553-.727-.646-.056-.018-.113-.025-.171-.036-.745-.125-1.466-.073-2.187-.027-.311.018-.529.493-.445.922.1.509.244 1.003.455 1.48.234.522.586.846 1.009.885.733.064 1.463.051 2.158-.121.241-.062.442-.447.403-.772-.019-.143-.028-.291-.06-.432-.049-.215-.114-.429-.179-.67m-110.89 31.81c-.053-.137-.086-.294-.162-.408-.597-.906-1.239-1.754-1.964-2.497-.288-.296-.724-.286-.916.019-.033.051-.076.092-.101.149-.159.341-.322.681-.47 1.03-.128.301-.042.747.176 1.004.636.751 1.322 1.42 2.015 2.071.096.09.212.155.321.208.174.082.343.089.479-.034.302-.275.503-.653.605-1.123.029-.127.013-.278.017-.419m58.103-23.43c-.196.099-.395.188-.587.299a.685.685 0 0 0-.301.436c-.134.54-.087 1.107.148 1.683.121.292.318.517.555.55.742.109 1.47.11 2.159-.105a1.11 1.11 0 0 0 .294-.147.743.743 0 0 0 .333-.632 2.76 2.76 0 0 0-.636-1.817 1.046 1.046 0 0 0-.473-.322 1.906 1.906 0 0 0-.676-.083c-.276.014-.543.087-.816.138M78.99 15.794c.39-.209.88-.565 1.344-.977.178-.159.217-.656.082-.96a9.07 9.07 0 0 0-.744-1.315c-.183-.279-.558-.44-.784-.348-.606.244-1.18.557-1.687 1.009-.124.113-.23.254-.343.386-.07.083-.1.463-.045.6.249.625.588 1.163 1.06 1.56a.827.827 0 0 0 .658.194c.107-.014.206-.065.459-.149M22.059 86.478c.121-.078.24-.108.296-.204.235-.394.268-.869.064-1.395a2.648 2.648 0 0 0-.297-.581c-.709-.986-1.448-1.931-2.247-2.796-.046-.048-.107-.067-.158-.108-.116-.092-.387-.056-.466.057-.289.392-.449.882-.515 1.434-.034.287.043.573.231.814.043.056.084.118.133.165.831.804 1.66 1.611 2.5 2.399.136.127.323.153.459.215m-5.656 35.977c-.07-.129-.125-.279-.212-.382a12.691 12.691 0 0 0-1.764-1.692c-.198-.16-.481.021-.478.305.001.07-.013.139-.01.211.044.865.188 1.734.349 2.602.099.535.361.967.743 1.28.359.299.72.595 1.129.725.125.036.366-.124.383-.278.009-.066.041-.128.04-.195-.02-.715-.04-1.434-.072-2.15-.006-.139-.071-.285-.108-.426m39.612-70.897c-.282.042-.428.507-.317.821.201.563.515 1.039.814 1.526.236.385.561.588.907.706.057.021.113.044.168.05.446.035.894.076 1.339.094.337.013.557-.469.421-.881-.046-.139-.088-.283-.148-.414a6.782 6.782 0 0 0-.771-1.292 1.23 1.23 0 0 0-.618-.445c-.567-.188-1.125-.202-1.679-.203-.052.002-.102.033-.116.038m94.394-5.108c-.098-.22-.179-.427-.278-.62-.139-.263-.322-.487-.55-.594-.838-.392-1.682-.631-2.529-.69-.194-.012-.394.291-.361.547.009.073.005.147.021.215.096.435.239.851.45 1.237.182.336.432.575.724.655.79.22 1.581.405 2.368.451.212.016.375-.29.305-.581-.05-.213-.103-.424-.15-.62M85.789 9.029c-.205.108-.449.224-.686.357-.267.152-.398.626-.287 1.062.074.281.158.563.264.833.204.526.615.81.999.739.43-.078.843-.204 1.212-.449.295-.195.444-.524.424-.986a4.369 4.369 0 0 0-.216-1.277c-.083-.237-.367-.51-.556-.506-.111 0-.226-.017-.328.007-.264.061-.524.139-.826.22m59.367 36.209c-.071-.166-.125-.303-.188-.435-.239-.505-.576-.812-1.007-.899a7.48 7.48 0 0 0-.848-.109c-.109-.008-.215.038-.322.064-.245.064-.433.445-.399.769a3.72 3.72 0 0 0 .459 1.459c.151.27.361.432.591.52.514.192 1.02.214 1.521.179.266-.019.475-.378.406-.728-.027-.143-.049-.288-.086-.429-.037-.143-.092-.281-.127-.391m-4.2-.833c-.159-.454-.426-.744-.787-.876-.451-.167-.894-.177-1.334-.149-.315.019-.539.452-.462.885.076.432.203.851.39 1.247.234.494.562.817.992.893.278.047.558.07.834.073.314.002.563-.372.567-.801a3.639 3.639 0 0 0-.2-1.272M71.09 22.356c-.19-.536-.5-1.008-.841-1.458-.127-.166-.517-.239-.635-.119a3.857 3.857 0 0 0-.975 1.717c-.053.196-.022.42.059.628.22.552.52 1.028.932 1.395.189.167.48.181.631.049.385-.343.645-.818.845-1.36.092-.252.067-.534-.016-.852m-6.845 29.33c.055.105.146.307.26.486.27.423.58.803.921 1.134a.282.282 0 0 0 .162.078c.135.004.192-.099.162-.279-.183-1.076-.369-2.15-.552-3.225-.038-.215-.065-.432-.107-.646a3.694 3.694 0 0 0-.459-1.226c-.262-.423-.486-.901-.861-1.196-.121-.094-.231-.052-.268.089a1.21 1.21 0 0 0-.046.401c.107 1.364.36 2.725.688 4.079.017.072.044.14.1.305M83.574 11.36c-.071-.153-.155-.358-.256-.549-.192-.366-.605-.581-.914-.505-.539.129-.98.45-1.372.876-.141.151-.178.532-.083.765.197.481.452.906.771 1.282.266.318.667.448.952.317.299-.14.56-.34.792-.597.252-.275.319-.657.227-1.116-.028-.142-.071-.284-.117-.473m-10.002 7.823a3.551 3.551 0 0 0-.828-1.433c-.223-.225-.581-.277-.789-.107a2.537 2.537 0 0 0-.752.954c-.137.308-.131.659.016 1.013.226.54.513 1.04.846 1.501.141.197.469.299.632.206.391-.226.664-.604.868-1.067.133-.304.117-.654.007-1.067m2.942-2.612c-.051-.107-.126-.323-.242-.496a10.604 10.604 0 0 0-.641-.846c-.222-.273-.571-.365-.799-.245a1.787 1.787 0 0 0-.637.55c-.265.369-.313.832-.137 1.369.141.424.332.817.576 1.179.279.411.63.553.92.371.377-.24.722-.529.955-.976.119-.226.133-.505.005-.906m17.202-6.934c.19-.098.385-.192.575-.296.28-.156.423-.589.328-1.034a3.688 3.688 0 0 0-.19-.622c-.148-.359-.387-.595-.685-.687a2 2 0 0 0-1.152-.007c-.287.082-.521.474-.524.878-.005.428.075.852.182 1.276.096.371.405.673.662.632.266-.042.531-.091.804-.14M64.724 40.722c-.214-.537-.397-.843-.643-1.098-.136-.139-.39-.1-.424.081-.012.065-.047.121-.052.187-.074 1.046-.157 2.087-.209 3.141-.021.438.139.869.387 1.237.114.17.278.297.431.42.143.116.382.01.419-.157.028-.132.081-.252.086-.389.034-.917.064-1.833.084-2.752.007-.285-.042-.577-.079-.67m-47.965 87.722c-.303-.802-.718-1.21-1.25-1.438a.286.286 0 0 0-.386.232c-.014.133-.047.269-.032.405.123 1.162.468 2.276.943 3.352.149.337.381.601.679.731.146.064.369-.062.38-.229.002-.07.03-.135.024-.203-.061-.711-.115-1.423-.198-2.137-.028-.28-.125-.566-.16-.713m48.95-94.719c-.071-.125-.21-.375-.356-.622-.103-.171-.373-.207-.443-.067-.055.108-.132.204-.164.328-.245.957-.427 1.95-.58 2.956-.029.198-.017.419.004.632.03.295.144.56.331.787.179.218.504.25.595.044.075-.172.167-.334.21-.524.186-.845.362-1.695.53-2.549.053-.265.022-.554-.127-.985m30.763-27.66c-.133.071-.238.11-.325.178-.236.188-.327.489-.278.871.056.438.183.861.406 1.238.151.25.346.434.592.49a.927.927 0 0 0 .782-.164c.179-.13.304-.338.341-.624a3.432 3.432 0 0 0-.044-1.057c-.117-.62-.568-1.062-1.036-1.013-.162.017-.319.058-.438.081m-6.82 1.747c-.144.1-.287.18-.411.292a.845.845 0 0 0-.245.489c-.099.564-.002 1.123.286 1.663.105.198.27.335.439.379.423.108.769-.024 1.006-.414a.878.878 0 0 0 .107-.373 4.06 4.06 0 0 0-.256-1.696c-.059-.153-.287-.361-.438-.363-.164-.005-.326.015-.488.023M67.109 28.897c-.083-.145-.184-.335-.295-.519-.129-.211-.495-.244-.606-.07a3.366 3.366 0 0 0-.508 1.652 2.137 2.137 0 0 0 .576 1.575c.181.201.474.168.586-.046.202-.386.341-.812.424-1.28.072-.414.002-.838-.177-1.312m85.04 18.258c.224.624.518.982.934 1.172.277.122.553.189.831.19.265.003.459-.352.378-.716-.113-.526-.353-.954-.746-1.226-.368-.256-.75-.435-1.147-.46-.212-.016-.398.229-.354.523.03.21.086.421.104.517m4.018.652a.344.344 0 0 0-.131.335c.078.629.425 1.184.846 1.395.502.25 1.009.421 1.521.526.222.045.392-.272.301-.555-.116-.369-.302-.678-.575-.876-.53-.38-1.075-.705-1.648-.881a.358.358 0 0 0-.166-.004c-.052.011-.1.039-.148.06M68.871 26.096c-.178-.486-.451-.903-.848-1.162-.17-.111-.341-.09-.474.026-.222.196-.344.488-.362.852-.007.136.01.297.061.425.166.418.385.803.679 1.101a.533.533 0 0 0 .326.149c.472.025.83-.777.618-1.391m-51.827 109.01c.417 1.253.891 2.224 1.384 3.182.012.025.111.034.115.018a.406.406 0 0 0 .003-.199 35.034 35.034 0 0 1-.77-3.168 1.564 1.564 0 0 0-.401-.741c-.147-.158-.388-.213-.458-.091a.5.5 0 0 0-.043.38c.071.28.153.557.17.619m144.384-84.38a.699.699 0 0 0-.391-.401c-.171-.071-.33.117-.279.332.078.324.252.514.505.55.166.022.27-.244.165-.481"/><path fill="none" d="M-2 8.256h182.086V131H-2z"/><path fill="#FFF" d="M78.938 123.839c.359-.274.758-.588 1.168-.889 2.108-1.555 4.22-3.104 6.217-4.573-.187-.473-.349-.787-.435-1.119-.467-1.82-.966-3.633-1.354-5.47-.414-1.969-.664-3.972-1.076-5.942-.704-3.385-1.49-6.755-2.217-10.136-.34-1.581-.635-3.173-.934-4.763-.175-.931-.309-1.869-.489-2.798-.024-.125-.217-.217-.318-.31.368-1.103 1.376-.935 2.209-.987 2.057-.128 4.118-.219 6.179-.235a964.52 964.52 0 0 1 14.027-.012c2.766.018 5.53.108 8.294.205 2.008.071 4.015.295 6.021.29 2.67-.006 5.341-.137 8.008-.272 1.822-.093 3.637-.321 5.459-.417.534-.028 1.081.188 1.586.285-.116.288-.24.501-.288.73-.581 2.773-1.155 5.549-1.721 8.326-.39 1.905-.731 3.821-1.148 5.72-.467 2.128-.996 4.241-1.496 6.362-.424 1.793-.824 3.59-1.276 5.375-.227.896-.561 1.766-.815 2.656-.047.165.056.373.091.577l-.4.508 6.879 5.636c-.436.414-.937.939-1.495 1.394-.155.123-.485.056-.731.035-2.53-.2-5.056-.456-7.589-.603a92.17 92.17 0 0 0-6.087-.136c-2.054.017-4.107.151-6.16.216-1.036.032-2.075-.01-3.111.041-1.576.078-3.15.215-4.726.312-.936.057-1.874.076-2.81.134-2.053.123-4.101.291-6.152.381-1.561.069-3.128.015-4.688.074-1.033.038-2.063.179-3.094.278a789.91 789.91 0 0 0-4.042.408c-.414.043-.643-.143-.827-.508-.133-.26-.383-.458-.659-.773m5.197-26.713c.141.673.283 1.346.423 2.02.061-.017.122-.031.182-.046l-.57-2c-.222-1.374-.437-2.748-.666-4.121-.074-.441-.128-.902-.295-1.312-.24-.591-.575-1.146-.947-1.867.58-.016 1.055-.039 1.529-.04 1.694-.003 3.389.014 5.083-.003.88-.01 1.759-.102 2.639-.111 2.095-.022 4.191.024 6.286-.034 2.03-.057 4.058-.268 6.088-.299 2.164-.033 4.332.033 6.496.111 1.935.07 3.863.31 5.796.309 3.449-.001 6.896-.136 10.345-.185.347-.004.78.115 1.01.342.117.116-.103.611-.223.915-.369.943-.855 1.837-1.087 2.835-.251 1.078-.581 2.139-.815 3.221-.657 3.068-1.445 6.111-1.798 9.238-.096.861-.408 1.736-.315 2.57.144 1.297-.271 2.52-.258 3.785.003.293-.013.629-.15.871-.391.686-.849 1.33-1.275 1.982-.529-.333-.524.156-.738.375.446.045.837.076 1.226.13.361.049.576-.074.629-.447.08-.575.12-1.161.257-1.724.418-1.71.909-3.4 1.307-5.114.66-2.839 1.251-5.692 1.904-8.532.616-2.689 1.284-5.368 1.907-8.057.247-1.072.432-2.158.65-3.27-.158-.022-.248-.053-.335-.045-.995.089-1.988.227-2.983.267-2.938.115-5.88.278-8.818.261-3.007-.017-6.014-.265-9.021-.336a724.534 724.534 0 0 0-13.985-.222c-3.732-.016-7.465.083-11.196.144-.23.003-.456.114-.573.146.495 2.036.965 3.97 1.438 5.906l.161-.043.092-.307c.087.486.153.925.25 1.354.098.447.232.889.35 1.333m33.518 23.165c.094-.042.233-.059.27-.129.223-.417.578-.438.957-.318.097.031.221.229.202.325-.059.321-.178.632-.305 1.046.791.035 1.509.067 2.371.107l-.469-.707c.177-.187.32-.456.538-.537.247-.094.559-.019.842-.017-.005.163.011.329-.019.487-.044.229-.121.45-.203.746h1.501l-.543-1.152.93-.784c-.354-.483-1.111-.57-1.243-1.288-.008-.045-.189-.082-.292-.084-1.313-.033-2.63-.121-3.939-.068-1.352.053-2.693.277-4.043.369-1.709.113-3.432.087-5.132.267-2.917.309-5.823.054-8.733.021-1.451-.016-2.902-.044-4.354-.014-1.715.035-3.426.193-5.138.17-1.004-.014-2.057.025-3.007-.543-.038.234-.174.508-.09.66.223.406.004.557-.272.761-.46.338-.897.71-1.412 1.12l.293.072c.344.08.855-.021.519.661-.133.271-.021.662-.021 1.066l2.325-.115.048-.165c-.24-.178-.478-.357-.714-.534l.454-.545-.932-1.388c.352-.303.741-.946 1.542-.391-.022.145-.1.348-.079.54.033.33-.483.706-.034.954.569.316.331.731.285 1.144l-.036.306h2.493l-1.41-2.315c.276-.597.704-.8 1.392-.417l-.307 1.314h1.077c-.101.43-.182.777-.282 1.211.528.446 1.178-.006 1.801.074l.138-.219a98.545 98.545 0 0 0-.671-.504c.058-.096.198-.233.17-.301-.174-.415-.387-.814-.601-1.248.08-.094.178-.303.331-.361.302-.115.635-.145.954-.21-.01.226-.012.452-.038.677-.024.217-.073.43-.109.636.718.366.781.611.315 1.454l1.888-.113c-.39-.679-.743-1.299-1.097-1.914.318-.529.733-.887 1.448-.509-.104.415-.21.833-.324 1.28.146-.012.276-.021.403-.029.13-.009.264-.039.39-.023.357.047.479.357.318.646-.041.077.117.389.201.396.457.04.921.02 1.384.02l.187-.205c-.917-.271-.98-1.162-1.541-1.718.035-.06.067-.123.109-.183.318-.458.87-.701 1.228-.482.421.258-.029.562-.012.85.005.072.008.146.012.223.34.059.668.113 1.021.172l-.305 1.262 1.711-.08c-.172-.701-.19-.713-.786-.531l-.635-1.107c.131-.209.228-.418.374-.584.253-.289 1.111-.202 1.078.09-.055.474.188.453.508.477.345.027.547.163.38.584-.12.305-.146.648-.222 1.006l4.261-.283c-.128-.453-.297-.702-.68-.38-.234-.44-.469-.877-.713-1.334.031-.028.092-.095.166-.146.229-.152.455-.408.694-.422.319-.019.817-.043.695.582-.009.04.28.107.39.207.111.104.419-.019.307.404-.085.327-.307.69-.171 1.146l4.424-.21-1.156-1.869c.144-.119.312-.201.391-.334.302-.514.704-.199 1.073-.162l-.127.885.82.255-.397 1.122h1.479l-.701-.603c.41-.319.64-.972 1.417-.648-.143-.249-.287-.499-.355-.62.237-.259.448-.488.691-.755.168.058.543.077.667.264.095.142-.111.507-.225.755-.143.319-.28.842-.5.887-.477.097-.331.393-.468.719h3.543c-.177-.207-.318-.355-.437-.522-.062-.087-.082-.206-.12-.312l-.006.012zm7.615-28.78c-.266-.015-.579-.052-.893-.045-2.258.054-4.517.185-6.773.157-2.104-.023-4.208-.217-6.313-.324-.793-.04-1.569.068-2.362.178-1.917.262-3.868.271-5.809.373-1.148.062-2.298.102-3.446.154-1.281.057-2.563.197-3.84.156-2.559-.082-5.112-.282-7.669-.397-1.148-.053-2.302.022-3.449-.045-.504-.029-.5.182-.435.516.094.479.213.955.313 1.433.283 1.36.531 2.729.853 4.081.203.852.315 1.719.666 2.554.154.362.134.878.279 1.331.26.801.414 1.641.569 2.473.381 2.07.697 4.154 1.124 6.215.288 1.391.708 2.754 1.104 4.121.035.126.301.275.449.266.75-.048 1.494-.163 2.244-.221 2.527-.193 5.055-.423 7.586-.543 2.297-.109 4.598-.104 6.898-.135 3.219-.043 6.438-.081 9.658-.111 1.413-.013 2.829-.023 4.242.011.485.013.679-.135.705-.612.025-.449.128-.893.179-1.342.178-1.528.3-3.064.534-4.583.302-1.968.683-3.925 1.046-5.883.241-1.294.439-2.602.78-3.87.52-1.953 1.147-3.876 1.76-5.908m-8.202 24.35c-8.8.092-17.61-.388-26.379.654-.152.019-.303.068-.453.104a24.2 24.2 0 0 0 3.267.113c2.126-.062 4.25-.196 6.376-.22 2.142-.022 4.285.124 6.424.068 2.723-.07 5.443-.255 8.164-.421.87-.051 1.734-.194 2.601-.298m-31.058 5.11c-.04-.033-.08-.064-.117-.097-.792.636-1.583 1.274-2.459 1.979 1.043-.139 1.958-.26 3.007-.397l-.799-.983c.098-.135.233-.321.368-.502m40.06.642l.135-.194-1.284-1.404c-.763.357-1.048.738-1.063 1.362l2.212.236"/><path fill="#FFB547" d="M147.587 85.258c.39-.902.884-1.182 1.782-1.079.605.07.74-.049.973-.859.281-.977.835-1.231 1.798-.958 1.192.336 2.415.566 3.612.886 1.321.351 2.62.794 3.947 1.123 1.622.401 3.265.724 4.898 1.082 1.444.317 2.888.65 4.338.95 1.267.263 2.543.479 3.812.743.283.059.598.168.8.357.18.168.357.518.304.727-.24.94-.641 1.843-.835 2.79-.36 1.746-1.385 3.187-2.048 4.788-.748 1.807-1.355 3.671-2.001 5.519a87.374 87.374 0 0 0-1.221 3.687c-.45 1.483-.789 2.999-1.286 4.465a68.326 68.326 0 0 1-2.047 5.345c-.255.586-.835 1.051-1.329 1.501-.161.146-.534.137-.788.088-.638-.126-1.26-.339-1.897-.457-.139-.026-.406.165-.475.317-.567 1.286-1.291 2.44-2.37 3.379-.325.281-.575.234-.892.177-.11-.019-.209-.079-.318-.103-.8-.167-.863-.124-1.191.621a28.449 28.449 0 0 1-.893 1.904c-.185.35-.397.763-.714.944-.301.173-.795.2-1.132.083-1.984-.684-3.913-1.547-5.928-2.114-1.527-.429-3.146-.534-4.732-.729a69.503 69.503 0 0 0-4.256-.396c-.948-.06-1.906-.021-2.858.012-.263.009-.524.136-.779.231-.409.151-.801.299-1.182-.078-.184-.182-.415-.316-.558-.423.956-2.604 1.926-5.194 2.854-7.799.789-2.212 1.511-4.448 2.298-6.661.304-.852.731-1.66 1.06-2.506.288-.744.516-1.511.77-2.27.091-.272.172-.55.265-.821.225-.652.437-1.311.688-1.952.187-.479.445-.928.641-1.404.192-.471.334-.963.516-1.438.332-.868.7-1.722 1.01-2.597.399-1.13.757-2.272 1.127-3.411.323-.996.598-2.01.978-2.983.12-.304.488-.662.792-.715.818-.144 1.662-.607 2.467.034m-13.026 32.881c.192 0 .338-.004.48 0 1.394.04 2.794.013 4.181.139 2.115.193 4.229.447 6.33.77 1.327.203 2.646.527 3.942.892 1.009.284 1.979.71 2.96 1.088.305.116.444.015.558-.265.453-1.113.968-2.205 1.375-3.336.618-1.715 1.105-3.477 1.761-5.175.71-1.835 1.53-3.63 2.337-5.426.953-2.126 1.94-4.235 2.919-6.35.867-1.876 1.762-3.74 2.606-5.628.479-1.069.887-2.173 1.338-3.286-.262-.113-.492-.256-.743-.314-1.13-.265-2.264-.522-3.401-.753-1.244-.253-2.511-.41-3.739-.723-1.946-.494-3.867-1.084-5.798-1.63-.939-.265-1.875-.54-2.823-.773-.203-.051-.449.06-.667.095-.568-.707-1.544-.462-2.303-.846l-1.185 3.439c-.733 2.142-1.441 4.292-2.203 6.425-1.009 2.811-2.056 5.607-3.089 8.41-.232.627-.47 1.252-.709 1.891.938.148 1.803.262 2.658.426 3.623.691 7.257 1.342 10.862 2.124 1.325.288 2.712.579 3.969 1.655l-1.824.274.103.256c-2.642-.585-5.255-1.218-7.89-1.73-2.668-.519-5.358-.917-8.205-1.396l.641-.642-.248-.77-.13-.04c-.793 2.34-1.584 4.68-2.398 7.076.627 0 1.241-.051 1.843.01 1.725.178 3.467.289 5.161.629 2.684.539 5.335 1.239 7.998 1.879.721.173.8.306.723 1.027-.466-.166-.814.008-1.136.348-.087.092-.302.123-.438.09-.584-.133-1.16-.301-1.739-.456-3.763-1.005-7.581-1.665-11.474-1.88-.389-.021-.777-.078-1.166-.119l-.007-.13c.189-.135.381-.271.548-.388l-.356-.957-1.622 4.07m33.947-29.845l-.024.124c.402.123.805.248 1.208.37.796.242.89.36.641 1.165-.597 1.912-1.185 3.829-1.856 5.715-.552 1.553-1.185 3.079-1.845 4.59-.571 1.305-1.282 2.549-1.845 3.856-1.116 2.597-2.178 5.216-3.251 7.829-.319.778-.602 1.571-.926 2.422.488.062.891.092 1.285.168.292.057.441.001.55-.303.501-1.41 1.081-2.794 1.535-4.219.733-2.306 1.387-4.637 2.084-6.953.899-2.984 2.099-5.844 3.533-8.609.895-1.727 1.791-3.461 2.273-5.525l-3.362-.63m-.163 2.173c-.45-.037-.771-.433-.924.425-.213 1.191-.807 2.321-1.283 3.458-.368.881-.837 1.719-1.205 2.598-.428 1.021-.757 2.086-1.196 3.101-.345.79-.839 1.513-1.191 2.3a239.085 239.085 0 0 0-2.446 5.654 190.782 190.782 0 0 0-2.216 5.482c-.605 1.586-1.144 3.198-1.708 4.787.551.085.557.088.812-.406.162-.314.336-.629.446-.963a102.151 102.151 0 0 1 4.235-10.719c.721-1.549 1.553-3.049 2.223-4.617 1.113-2.605 2.141-5.246 3.197-7.875.416-1.044.815-2.093 1.256-3.225m-17.15-5.785l6.688 1.178c.014-.049.026-.099.038-.149l-6.543-1.69c-.069.255-.118.429-.183.661M65.398 94.707c.124 1.623.186 3.254.391 4.867.134 1.053.472 2.081.725 3.118.42 1.727.833 3.454 1.271 5.179.559 2.201 1.144 4.396 1.708 6.598.263 1.019.495 2.044.76 3.062.109.416.28.815.406 1.227.357 1.165.313 1.172-.569 1.863-1.731 1.357-3.797 1.638-5.809 2.114-2.139.505-4.287.974-6.443 1.405-1.452.291-2.925.479-4.385.728-1.833.311-3.623.766-5.356 1.458-.7.281-1.457.447-2.203.57-.553.092-1.129.045-1.694.023-.094-.004-.202-.186-.269-.307-1.333-2.402-2.022-5.055-2.883-7.634-.956-2.864-1.79-5.771-2.604-8.68-.256-.913-.263-1.892-.413-2.837-.206-1.297-.43-2.593-.663-3.886-.422-2.347-.874-4.687-1.276-7.037-.209-1.221-.347-2.454-.487-3.684a.688.688 0 0 1 .203-.521c.449-.373.944-.688 1.402-1.05.993-.785 2.217-1.006 3.378-1.298 2.878-.724 5.791-1.313 8.683-1.982 1.756-.407 3.496-.876 5.251-1.289a26.435 26.435 0 0 1 5.226-.707c.599-.02 1.196-.075 1.792-.105 1.155-.059 2.046.585 2.856 1.247.667.545.568 1.488.665 2.274.141 1.138.163 2.289.245 3.434.044.614.112 1.228.169 1.841-.025.003-.051.007-.077.009M40.242 93.13l-.005-.177c-.229-.069-.47-.223-.686-.193-.556.076-1.097.25-1.65.35-.411.075-.333.314-.26.585.153.571.335 1.138.442 1.718.458 2.525.892 5.055 1.34 7.583.156.87.352 1.733.488 2.604.19 1.225.23 2.484.533 3.679.635 2.49 1.369 4.956 2.125 7.412.437 1.417 1.001 2.796 1.504 4.19.356.986.688 1.982 1.064 2.961.312.811.599.926 1.271.813.735-.126 1.446-.397 2.169-.606 1.353-.39 2.689-.862 4.066-1.15 1.895-.396 3.829-.609 5.73-.978 2.471-.477 4.93-1.021 7.391-1.554.854-.184 1.696-.42 2.584-.641-.203-.498-.408-.882-.519-1.291-.34-1.245-.64-2.502-.96-3.752-.581-2.256-1.184-4.508-1.74-6.77-.441-1.791-.798-3.602-1.243-5.39-.51-2.058-.725-4.146-.829-6.254-.104-2.166-.193-4.333-.339-6.496-.076-1.111-.522-1.964-2.076-1.885-.655.033-1.309.1-1.959.177-1.396.165-2.814.244-4.184.542-2.436.533-4.834 1.231-7.262 1.807-1.618.384-3.259.675-4.888 1.012-.754.155-1.436.408-1.732 1.227-.064.182-.246.32-.375.477"/><path fill="#FFF" d="M103.705 94.692c-.146.577-.265 1.163-.443 1.729-.411 1.321-.854 2.633-1.284 3.948l-.23.733c-.97-.922-1.91-1.777-2.447-3.152-.515 1.129-.96 2.109-1.452 3.193-.523-.605-1.211-.976-1.424-1.768-.324-1.213-.664-2.423-.984-3.639-.204-.77.345-1.433 1.168-1.436.185 0 .366.021.487.03.238.634.468 1.239.748 1.979.21-.446.382-.723.472-1.025.224-.734.861-.715 1.405-.735.523-.02.708.452.878.886.129.328.317.635.546 1.084.154-.66.307-1.19.397-1.73.158-.934.935-1.494 1.842-1.236.148.041.271.328.322.524.05.196-.009.423-.02.634l.019-.019z"/><path fill="#FFF" d="M103.687 94.713c.059-.039.153-.068.171-.121.2-.604.711-.701 1.236-.758.314-.033.531.015.664.411.23.686.584 1.329.878 1.974.231-.379 1.103-.706 1.604-.605.761.152.626 1.032 1.098 1.379l1.124-2.941c.407-.037.727-.089 1.047-.088.355.001.598.076.466.57-.383 1.441-.639 2.918-1.079 4.34-.297.953-.824 1.834-1.29 2.842l-1.899-2.207c-.147.305-.322.643-.478.989-.162.372-.308.75-.47 1.147a5.725 5.725 0 0 1-1.827-2.828c-.405-1.375-.818-2.748-1.229-4.123l-.016.019M89.806 100.894c-1.046-.659-1.594-1.521-1.893-2.618-.263-.969-.696-1.891-1.078-2.896.234-.158.069-.762.673-.868.44-.077.84-.315 1.126.271-.008-.102-.019-.201-.027-.303l.076-.035.782 1.901c.264-.493.533-.911.717-1.364.12-.297.278-.377.579-.439 1.052-.217 1.08-.227 1.548.756.184.385.341.783.651 1.172.086-.599.131-1.206.266-1.793.226-.977.433-1.521 1.751-1.18.027 2.583-.536 5.045-1.598 7.402-1.266-.904-1.922-2.224-2.464-3.768l-1.109 3.762M97.477 113.521l-1.132-1.055c.913-1.912 2.151-3.539 4.618-3.79-.503-.109-.611-.394-.486-.812.054-.18.115-.367.111-.552-.009-.433.561-.811.094-1.288-.322-.329-.604-.697-.928-1.076.077-.148.15-.443.338-.6.187-.156.484-.223.74-.243.416-.032.838.024 1.256.005.405-.02.808-.088 1.32-.148-.097.551-.167.959-.248 1.424l.258.354-.635 2.228-.513-.536-.565 1.227c2.663.379 3.4 2.392 2.107 4.907-.437-.584-.983-1.057-1.194-1.648-.439-1.234-1.287-1.275-2.302-1.004-.924.247-1.583.898-2.154 1.633-.248.318-.466.66-.685.974"/><path fill="#FFF" d="M97.252 104.613c.432-.288.79-.603 1.206-.783.414-.182.601.035.485.467-.134.498-.276.994-.404 1.494-.026.098-.041.27.01.303.639.433.126.967.11 1.438-.01.369-.196.732-.34 1.221l-.729-1.043-.988 1.279c-.395-.346-.752-.655-1.138-.99.142-.279.256-.651.488-.925.307-.361.234-.603-.053-.913-.345-.371-.644-.783-1.008-1.236.541-1.131 1.062-1.217 2.361-.312M114.812 98.608l-1.188 2.103c-.343-.288-.734-.567-1.062-.907-.22-.229.35-1.178.703-1.19.492-.018.985-.006 1.547-.006M109.349 118.818c.192.064.386.189.575.184.493-.016.367.381.296.536-.207.46-.503.882-.796 1.373l-.729-1.352c.194-.221.409-.465.654-.741M103.995 119.096l.947.23-.741 1.91-.781-1.477c.146-.168.363-.417.575-.663M120.418 120.479a423.28 423.28 0 0 0-.56-1.412l.717-.675.85.43-1.007 1.657M117.663 120.273c-.22.293-.29.064-.361-.109-.148-.361-.287-.729-.446-1.134.395-.368.879-.764 1.437-.29l-.639 1.553.009-.02"/><path fill="#FFB547" d="M158.644 104.66c-.818.129-1.596-.129-2.515-.434.361.775 1.239.464 1.645 1.154-5.394-1.818-10.855-2.794-16.303-3.83l-.008-.209c.232-.023.465-.066.697-.065.259.002.516.045.815.007-.625-.107-.977-.464-1.125-1.215.706.064 1.381.064 2.031.193 1.619.319 3.236.655 4.837 1.06 2.913.735 5.818 1.501 8.711 2.312.47.132.858.556 1.285.843l-.07.184M138.594 111.766l-.453-1.083c.67.065 1.203.086 1.729.171 3.394.549 6.79 1.094 10.178 1.683a21.87 21.87 0 0 1 3.1.78c.437.146.788.559 1.175.847-.414.607-1.437.841-2.073.66-1.353-.386-2.714-.749-4.091-1.028a94.73 94.73 0 0 0-5.114-.869c-1.508-.219-3.027-.356-4.541-.539-.169-.021-.33-.097-.495-.146l-.018-.159c.196-.104.393-.208.603-.317M140.835 103.617c1.948.297 3.773.502 5.563.867 2.098.428 4.171.979 6.247 1.512.979.253 1.951.551 2.896.904.455.172.844.521 1.294.811-.816.723-1.485-.002-2.182.002l-.074.148c.377.188.753.374 1.142.566-.047.014-.117.057-.177.047-.346-.064-.698-.109-1.03-.217-4.526-1.459-9.163-2.434-13.893-3.002l.006-.24.755-.263c-.087-.156-.184-.315-.267-.483-.08-.165-.145-.337-.28-.652M159.883 98.783c-.183-.02-.371-.012-.547-.061-3.386-.934-6.76-1.913-10.157-2.797-1.546-.4-3.143-.607-4.71-.923-.223-.046-.421-.214-.631-.325.216-.056.433-.109.648-.167.034-.009.067-.028.18-.079l-.493-.969c.805.054 1.571.043 2.314.169.924.156 1.837.396 2.738.651 1.148.326 2.273.736 3.425 1.053 1.281.354 2.578.651 3.872.957 1.479.351 2.926.772 4.203 1.643-.331.363-.331.363-1.674.291l.858.423-.026.134m-1.231-.803c-.081-.076-.114-.133-.162-.146-1.061-.311-2.124-.612-3.186-.924-.212-.062-.413-.16-.626-.23-.564-.189-1.13-.387-1.703-.554-.414-.121-.84-.211-1.263-.29-.456-.088-.914-.147-1.521-.242.45.414 8.13 2.531 8.461 2.386M147.177 98.301c3.491.895 6.983 1.785 10.476 2.68-.019.064-.034.13-.051.195l-14.351-3.4-.046-.207.729-.271c-.125-.284-.277-.631-.432-.978l.135-.208c4.925 1.211 9.848 2.424 14.758 3.633-.13.867-.251 1-.954.829-1.192-.286-2.362-.662-3.55-.964-1.188-.304-2.388-.562-3.582-.844-.424-.1-.842-.227-1.268-.317-.602-.128-1.21-.235-1.815-.351l-.049.203M161.478 95.771c-1.295-.818-2.772-1.077-4.202-1.478a10.864 10.864 0 0 1-1.582-.562c-.826-.381-1.731-.653-2.721-.632-.793.017-1.598-.285-2.386-.49-.299-.078-.556-.307-.852-.416-.463-.172-.99-.021-1.406-.086-.73-.111-1.767.084-2.104-.989-.035-.116-.139-.209-.311-.461.318.066.501.097.681.142 1.428.36 2.863.694 4.283 1.09 2.964.827 5.918 1.69 8.877 2.537.378.108.768.178 1.14.302.518.178.733.536.583 1.043"/><path fill="#FFB547" d="M145.63 91.79c5.202 1.165 10.406 2.321 15.554 4.323-.266.081-.428.191-.531.151a71.357 71.357 0 0 0-9.358-2.844c-1.705-.392-3.427-.712-5.136-1.087-.223-.051-.417-.236-.624-.359l.095-.184M145.368 89.383c4.525.847 9.113 1.375 13.581 2.828-.165.038-.294.109-.404.086-4.398-.914-8.795-1.836-13.192-2.758a4.32 4.32 0 0 1 .015-.156M146.21 88.586c3.998.786 8.072 1.185 12.061 2.437-.136.078-.22.169-.282.156-3.938-.801-7.873-1.611-11.811-2.42l.032-.173M43.578 114.363c-.393-1.32-.866-2.643-1.169-4.004-.511-2.301-.868-4.635-1.375-6.936-.263-1.186-.712-2.326-1.067-3.488-.082-.267-.13-.543-.192-.804.459-.208.794-.669 1.348-.414.036.019.11-.015.158-.042 1.499-.873 3.23-.584 4.832-.965 1.259-.3 2.565-.395 3.841-.627 2.974-.545 5.942-1.119 8.912-1.681.485-.091.927-.222 1.451.03.822.397.759 1.183.881 1.82.512 2.676.925 5.371 1.388 8.057.095.551.326 1.088.35 1.639.054 1.202-.594 1.815-1.675 2.244-1.346.531-2.794.805-4.197 1.193-2.888.801-5.777 1.602-8.663 2.412-1.203.338-2.402.693-3.597 1.062-.385.12-.749.307-1.226.504m-1.465-14.105c.997 3.926 1.956 7.701 2.891 11.389l15.907-4.209-1.896-10.371c-1.859.369-3.638.731-5.421 1.075-2.233.43-4.476.812-6.701 1.281-.786.165-1.671.033-2.338.657-.04.037-.16-.022-.241-.017-.75.064-1.501.132-2.201.195"/><path fill="#FFB547" d="M47.363 101.631l.762-.721c.178.033.357.039.517.099.313.118.624.251.92.405.184.096.323.297.512.354 1.887.573 3.778 1.133 5.674 1.679.453.131.39.25.129.576-.812 1.015-1.883 1.634-2.983 2.285-1.146.678-2.137 1.621-3.188 2.457-.361.288-.701.604-1.167 1.009-.312-.981-.754-1.882-.864-2.821-.205-1.768-.22-3.557-.312-5.322"/></svg>
