<svg xmlns="http://www.w3.org/2000/svg" viewBox="0 0 194 132"><path class="bubble" fill="#FFB547" d="M105.1 122.748c-1.622.646-3.164 1.268-4.707 1.884-.772.308-1.551.599-2.372.758-.251.05-.505.106-.739.201-1.369.551-2.807.871-4.225 1.254a52.09 52.09 0 0 1-2.606.64c-1.562.34-3.111.732-4.695.961-.633.091-1.257.234-1.888.338-1.642.266-3.283.514-4.944.631-.51.036-1.018.113-1.525.159-.827.077-1.654.183-2.484.21-1.979.068-3.959.174-5.941.164-.512-.002-1.022-.029-1.533-.046-.512-.016-1.022-.051-1.534-.046-1.794.014-3.579-.135-5.358-.32a92.008 92.008 0 0 1-5.511-.734c-3.029-.502-6.047-1.076-9.005-1.901-1.291-.36-2.598-.68-3.851-1.171a2.632 2.632 0 0 0-.364-.121c-1.376-.324-2.674-.873-3.974-1.408-1.774-.729-3.54-1.479-5.308-2.223a17.148 17.148 0 0 1-2.06-1.021c-.606-.354-1.236-.669-1.857-.999-1.525-.812-2.987-1.731-4.443-2.655-.54-.343-1.035-.751-1.571-1.1-2.314-1.507-4.348-3.359-6.392-5.198a32.146 32.146 0 0 1-2.165-2.172c-1.515-1.647-2.973-3.345-4.273-5.171a47.503 47.503 0 0 1-2.564-4.048c-.127-.221-.226-.461-.369-.672-.726-1.064-1.224-2.242-1.718-3.423-.197-.471-.395-.942-.588-1.416-.555-1.362-1.136-2.716-1.402-4.175-.617-1.959-.949-3.975-1.24-6.002-.338-2.352-.399-4.713-.253-7.08.079-1.275.145-2.547.042-3.828-.073-.892-.048-1.789-.043-2.684.003-.832.051-1.665.198-2.484.227-1.258.472-2.513.74-3.763.105-.498.276-.985.452-1.464.569-1.563 1.225-3.089 1.91-4.604.424-.937.966-1.806 1.507-2.671.984-1.571 1.932-3.166 2.984-4.693 1.415-2.054 2.834-4.103 4.377-6.062.91-1.155 1.786-2.335 2.688-3.497.392-.504.81-.989 1.217-1.48 1.186-1.427 2.449-2.787 3.558-4.274.116-.155.243-.298.378-.435 1.531-1.545 2.908-3.232 4.37-4.839.516-.568 1.048-1.12 1.576-1.676.263-.279.538-.547.8-.827a109.671 109.671 0 0 1 8.13-7.861c.048-.042.099-.081.146-.125 2.516-2.279 5.225-4.312 7.998-6.262 1.254-.882 2.515-1.764 3.833-2.543 1.264-.746 2.484-1.578 3.838-2.166.293-.127.576-.283.84-.458.804-.537 1.677-.931 2.562-1.301 1.535-.64 3.07-1.276 4.607-1.908.414-.17.825-.364 1.257-.47 1.489-.371 2.927-.913 4.42-1.27a57.305 57.305 0 0 1 13.297-1.595c.702-.002 1.406.007 2.107.048 1.278.074 2.552.17 3.826.268 3.196.247 6.337.83 9.445 1.587.747.182 1.484.392 2.229.574.686.167 1.36.355 2.021.603.241.09.48.182.729.239 1.188.278 2.315.731 3.439 1.194 2.246.926 4.486 1.865 6.727 2.806.708.296 1.391.639 2.066 1.011 1.116.62 2.265 1.183 3.382 1.804 3.021 1.68 5.96 3.484 8.731 5.555.818.613 1.661 1.194 2.464 1.828 2.356 1.867 4.643 3.819 6.8 5.911 1.561 1.513 3.085 3.067 4.46 4.755 1.576 1.933 3.085 3.914 4.383 6.051.529.876 1.046 1.755 1.473 2.688.183.407.406.797.635 1.182a17.383 17.383 0 0 1 1.835 4.411c.146.554.306 1.111.505 1.648.313.843.545 1.705.718 2.584.206 1.067.445 2.128.633 3.197.4 2.272.519 4.572.596 6.873.067 1.987-.062 3.965-.271 5.936-.188 1.779-.432 3.554-.895 5.288-.099.373-.176.748-.26 1.124-.479 2.121-1.083 4.207-1.912 6.222-.318.77-.63 1.539-.934 2.312-.093.238-.148.488-.215.734-.051.192.103.572.273.68.161.105.316.222.489.299.524.236 1.056.457 1.588.678 5.312 2.21 10.625 4.419 15.939 6.627.826.345 1.641.711 2.434 1.131.677.357 1.39.646 2.098.941a49291.31 49291.31 0 0 0 22.664 9.445c.53.221 1.064.438 1.59.67.232.104.453.234.672.367.438.262.632.857.448 1.347-.045.12-.082.243-.141.356-.412.794-.88 1.559-1.407 2.282-.283.384-.704.554-1.182.502-.7-.075-1.397-.161-2.092-.271-1.012-.163-2.028-.255-3.048-.34-1.528-.127-3.062-.219-4.581-.452-.566-.087-1.145-.111-1.718-.156-2.358-.184-4.718-.359-7.075-.548-.765-.062-1.526-.159-2.291-.235-.761-.074-1.524-.158-2.291-.215-8.032-.598-16.065-1.188-24.1-1.785-1.466-.108-2.937-.17-4.393-.398-.125-.018-.255-.014-.382-.015-.329-.006-.635.067-.896.276-.099.08-.197.161-.291.248-1.26 1.18-2.519 2.361-3.777 3.543a91.71 91.71 0 0 1-5.947 5.139c-.703.553-1.397 1.119-2.112 1.657-2.094 1.577-4.281 3.019-6.504 4.409-1.139.713-2.342 1.312-3.458 2.063-.211.142-.447.247-.678.353-.872.404-1.722.844-2.54 1.348-.488.301-1.022.529-1.55.758-1.581.686-3.172 1.359-4.681 2.005m25.133-22.941c-.965.534-1.664 1.371-2.431 2.131-.045.043-.077.103-.108.156-.132.224-.227.465-.187.725.12.754.271 1.502.492 2.232.019.06.052.117.084.17.034.054.079.1.118.149.086.106.422.181.53.118.831-.49 1.529-1.137 2.126-1.886.246-.312.308-.698.258-1.087a3.34 3.34 0 0 0-.17-.742c-.231-.661-.48-1.313-.724-1.971l.012.005zm52.496-.529l.004-.007c-.783-.439-1.623-.754-2.449-1.096-12.041-5.018-24.08-10.028-36.12-15.043-.59-.246-1.18-.496-1.764-.753-.175-.076-.334-.187-.495-.288-.357-.225-.567-.771-.448-1.18.07-.246.143-.492.237-.728.215-.534.45-1.06.671-1.591.661-1.594 1.301-3.192 1.78-4.856.796-2.77 1.525-5.548 1.887-8.412.216-1.711.349-3.434.383-5.161.04-2.111-.101-4.216-.308-6.318-.032-.317-.06-.637-.12-.95-.331-1.692-.509-3.417-1.057-5.064-.02-.06-.03-.123-.041-.187-.141-.825-.413-1.61-.724-2.381-.625-1.54-1.276-3.07-1.881-4.619-.656-1.679-1.669-3.162-2.544-4.719-1.039-1.458-2.073-2.917-3.203-4.308a52.107 52.107 0 0 0-5.387-5.717c-2.314-2.11-4.648-4.201-7.186-6.053-1.342-.979-2.659-1.994-4.06-2.892-.699-.449-1.422-.863-2.111-1.325-1.384-.925-2.854-1.705-4.314-2.494-.842-.455-1.647-.98-2.537-1.352a18.746 18.746 0 0 1-1.887-.942 15.012 15.012 0 0 0-1.382-.666c-1.411-.6-2.826-1.192-4.249-1.77-.531-.216-1.082-.385-1.629-.567-.302-.102-.619-.162-.915-.283-1.186-.486-2.419-.824-3.646-1.181-2.334-.678-4.686-1.287-7.079-1.713-2.078-.369-4.176-.594-6.27-.842-.697-.084-1.403-.085-2.106-.11-.447-.018-.896-.002-1.343-.017a48.47 48.47 0 0 0-11.246.938c-.942.191-1.856.482-2.794.675-.882.183-1.733.448-2.57.765-.599.228-1.201.438-1.829.571-.691.145-1.351.389-2.001.659-.709.292-1.418.584-2.126.88-.651.27-1.282.576-1.88.951a7.323 7.323 0 0 1-1.007.556c-1.413.608-2.745 1.359-4.07 2.136-1.654.972-3.288 1.976-4.852 3.084-2.819 1.994-5.585 4.059-8.147 6.383-.615.559-1.251 1.093-1.873 1.646-.478.423-.962.841-1.421 1.286-2.479 2.403-4.953 4.812-7.212 7.426-.168.193-.334.387-.517.567-1.641 1.619-3.091 3.408-4.604 5.143-.293.336-.568.69-.85 1.039-.522.645-1.02 1.312-1.57 1.934-1.316 1.485-2.503 3.074-3.72 4.637-1.726 2.219-3.336 4.527-4.961 6.822-.333.469-.633.962-.941 1.447-.24.377-.462.766-.71 1.139-.954 1.44-1.822 2.933-2.67 4.435a22.131 22.131 0 0 0-1.871 4.405 28.557 28.557 0 0 0-.979 4.299c-.084.567-.17 1.141-.184 1.713-.087 3.407.187 6.77 1.259 10.031.08.243.147.49.204.74a15.545 15.545 0 0 0 1.876 4.596c.231.381.438.779.64 1.18.89 1.778 1.976 3.432 3.197 4.996.274.354.572.688.841 1.047 1.653 2.211 3.632 4.122 5.565 6.074 2.11 1.86 4.2 3.738 6.453 5.432 2.201 1.654 4.5 3.156 6.849 4.586.927.564 1.859 1.124 2.855 1.569.29.13.557.31.84.459.452.241.897.491 1.362.704.696.32 1.37.691 2.058 1.027a59.097 59.097 0 0 0 6.902 2.865c.847.29 1.7.555 2.538.873.358.135.72.265 1.085.379 2.752.85 5.55 1.512 8.356 2.141 1.375.309 2.768.51 4.157.726 1.832.285 3.667.535 5.521.644 1.212.072 2.424.154 3.635.254 1.531.128 3.065.119 4.599.094 1.216-.018 2.429-.073 3.642-.127a34.841 34.841 0 0 0 1.913-.136c.955-.091 1.91-.176 2.86-.31 1.897-.266 3.796-.533 5.683-.879 1.95-.361 3.877-.822 5.795-1.311 1.114-.283 2.207-.651 3.325-.92.371-.091.728-.244 1.087-.38.599-.224 1.191-.462 1.79-.684.422-.154.839-.333 1.271-.429 1.513-.327 2.907-.976 4.32-1.57a6.685 6.685 0 0 0 1.027-.511c.919-.593 1.919-1.02 2.914-1.454 1.056-.462 2.104-.932 3.061-1.587.264-.179.561-.305.843-.456 1.352-.727 2.654-1.534 3.95-2.354 1.729-1.097 3.345-2.354 4.993-3.567 1.699-1.25 3.284-2.645 4.836-4.074a53.81 53.81 0 0 0 2.31-2.297c.977-1.014 1.925-2.052 2.89-3.078.085-.093.185-.176.279-.26a1.472 1.472 0 0 1 1.056-.381c.447.016.895.043 1.337.1 2.789.355 5.572.758 8.36 1.135 3.484.471 6.962.969 10.448 1.428 2.535.334 5.064.701 7.598 1.06 1.199.171 2.4.371 3.604.535 2.341.317 4.689.607 7.031.931 2.786.383 5.57.788 8.354 1.186.51.071 1.018.098 1.529.022M37.971 121.795c.093-.083.229-.147.272-.253.246-.586.46-1.185.701-1.773.553-1.357.881-2.788 1.355-4.17.073-.216-.075-.558-.271-.665-.111-.062-.212-.141-.328-.191a310.52 310.52 0 0 0-2.984-1.272c-.114-.049-.246-.058-.371-.086-.136-.03-.448.076-.517.188-.133.215-.282.424-.387.652-.453.982-.888 1.972-1.436 2.908-.286.493-.49 1.033-.711 1.562-.073.17-.098.366-.121.556a.624.624 0 0 0 .181.523c.177.176.373.345.586.479 1.085.68 2.282 1.119 3.474 1.566a.472.472 0 0 0 .187.027c.124-.01.248-.034.37-.051m14.674-2.321c-.11-.094-.234-.269-.4-.324a73.83 73.83 0 0 0-2.55-.803c-.428-.127-.865-.218-1.3-.317-.381-.089-.74.141-.88.55-.02.06-.049.118-.064.179-.254.992-.645 1.934-1.027 2.879-.238.59-.474 1.184-.699 1.779-.067.176-.095.368-.138.554-.047.197.148.551.344.63.117.049.231.112.35.148 1.218.379 2.457.682 3.702.949.184.039.379.045.569.047.277 0 .48-.146.627-.371.068-.105.136-.218.171-.338.465-1.591.925-3.182 1.382-4.771a1.01 1.01 0 0 0 .029-.379c-.012-.124-.066-.242-.116-.412m-27.819-12.359c-.111.104-.283.209-.378.361-.92 1.459-1.585 3.041-2.214 4.639-.046.115-.07.244-.088.369-.04.26.004.506.163.721.076.102.153.207.246.289 1.004.887 2.115 1.621 3.277 2.28.193.109.568.007.685-.183.033-.054.087-.096.112-.152.772-1.812 1.547-3.622 2.305-5.439.101-.24.017-.508-.159-.708a2.078 2.078 0 0 0-.43-.376c-.855-.549-1.716-1.09-2.581-1.625a1.88 1.88 0 0 0-.525-.215c-.114-.027-.246.02-.413.039m74.189 11.631c-.068-.166-.096-.227-.117-.285-.072-.193-.42-.387-.632-.34-.688.146-1.385.256-2.057.452-.919.269-1.832.556-2.772.751a2.686 2.686 0 0 0-.706.284.97.97 0 0 0-.478.575 2.421 2.421 0 0 0-.121.558 28.698 28.698 0 0 0 .029 3.253c.007.124.067.246.105.367.042.139.323.319.448.312.518-.029.987-.255 1.49-.348a10.127 10.127 0 0 0 1.664-.441c1.019-.38 2.037-.748 3.091-1.021.429-.11.736-.601.672-1.044-.073-.504-.179-1.006-.257-1.508-.09-.57-.211-1.129-.359-1.565m-52.772-1.18c-.119-.099-.244-.262-.41-.329-1.057-.438-2.122-.856-3.187-1.276-.117-.047-.247-.05-.372-.074-.131-.025-.434.098-.504.221-.127.218-.263.434-.365.664-.696 1.574-1.083 3.256-1.659 4.873a1.056 1.056 0 0 0-.038.377c.006.193.064.38.22.508.146.119.299.247.471.316.765.31 1.535.618 2.313.891.802.283 1.328.039 1.67-.787.633-1.527 1.238-3.066 1.85-4.602.046-.116.074-.246.077-.371.003-.123-.038-.247-.066-.411m43.52 7.915c.54-.151.896-.55.955-.974.008-.062.029-.123.032-.187.066-1.146.045-2.29-.03-3.435-.004-.062-.028-.123-.037-.186-.047-.298-.372-.559-.688-.551-.128.004-.257-.01-.382.01-1.255.213-2.51.428-3.763.648-.188.033-.37.094-.547.164-.373.148-.675.396-.761.797-.277 1.309-.482 2.629-.484 3.973-.001.062.022.125.028.188.018.206.313.468.536.464.189-.002.382.006.571-.014 1.587-.173 3.129-.573 4.57-.897m-55.331-12.836c-.063-.108-.112-.228-.191-.32a1.027 1.027 0 0 0-.294-.24 331.01 331.01 0 0 0-2.693-1.428c-.056-.03-.119-.042-.179-.067-.331-.144-.797.039-.975.38-.029.057-.07.107-.095.166-.68 1.644-1.362 3.287-2.036 4.934a1.284 1.284 0 0 0-.077.371.878.878 0 0 0 .239.697c.129.139.272.277.435.367.78.426 1.566.838 2.355 1.248.258.134.676-.008.842-.263.103-.159.207-.319.307-.481.94-1.52 1.566-3.192 2.314-4.803.052-.113.058-.248.073-.373.008-.062-.018-.126-.025-.188m-16.007-10.764c-.104-.17-.18-.354-.31-.485-.805-.816-1.674-1.562-2.555-2.292-.048-.041-.111-.062-.164-.1-.181-.127-.549-.07-.697.107-.04.049-.094.087-.13.139a26.453 26.453 0 0 0-2.108 3.401c-.228.439-.142.875.152 1.255.545.702 1.088 1.411 1.672 2.083.499.573 1.051 1.103 1.587 1.647.223.225.662.129.807-.164.027-.059.069-.109.093-.169.356-.884.741-1.759 1.056-2.658.253-.718.43-1.464.616-2.202.044-.175-.01-.375-.019-.562m36.158 17.949c-.1.078-.216.139-.296.232a.89.89 0 0 0-.188.328 592.796 592.796 0 0 0-1.345 4.601 1.704 1.704 0 0 0-.061.567.827.827 0 0 0 .38.633c.105.072.225.129.346.162 1.114.31 2.253.446 3.403.529.221.017.536-.185.619-.387.024-.058.067-.11.086-.171a65.052 65.052 0 0 0 1.239-4.431c.061-.246.077-.504.107-.756.024-.219-.172-.557-.364-.631-.178-.066-.354-.153-.538-.193-.75-.16-1.504-.311-2.257-.455a5.856 5.856 0 0 0-.758-.094c-.122-.006-.248.043-.373.066m15.249 7.869c.111-.117.251-.242.359-.391a.916.916 0 0 0 .143-.352c.319-1.554.632-3.108.944-4.666.045-.219-.198-.51-.437-.54-1.135-.147-2.277-.19-3.42-.229a1.79 1.79 0 0 0-.377.045c-.26.049-.468.195-.628.399-.2.251-.32.548-.417.851-.232.727-.452 1.455-.691 2.18-.138.422-.315.832-.447 1.255-.074.241-.101.495-.137.745-.041.291.24.664.52.71.062.012.125.036.187.038 1.268.051 2.538.096 3.808.07.184-.004.369-.07.593-.115m-49.943-24.298c-.1.108-.278.221-.347.381-.4.935-.803 1.866-1.148 2.821-.26.713-.445 1.455-.64 2.19a.938.938 0 0 0 .223.89c.599.66 1.275 1.236 1.995 1.76.099.072.232.099.351.139.153.051.438-.035.525-.15.039-.05.092-.09.125-.143.966-1.506 1.655-3.143 2.285-4.807.022-.057.027-.122.04-.184.065-.338-.037-.627-.253-.881a2.742 2.742 0 0 0-.269-.27c-.721-.623-1.498-1.174-2.294-1.694-.101-.066-.238-.084-.362-.104-.057-.008-.123.028-.231.052m45.03 18.285c-.078-.193-.219-.336-.406-.363-1.004-.156-2.008-.317-3.017-.426-.743-.08-1.025.199-1.269.883-.085.238-.141.486-.209.732-.318 1.164-.639 2.326-.959 3.49a3.843 3.843 0 0 0-.046.185c-.153.651.104 1.024.684 1.13.876.158 1.762.231 2.654.209.416-.01.72-.246.887-.62.181-.405.368-.815.479-1.24.274-1.05.661-2.056 1.042-3.065.09-.234.135-.487.189-.734.011-.059-.019-.126-.029-.181m17.945-.071a.437.437 0 0 0-.29-.232c-.122-.029-.248-.075-.371-.072-1.016.027-2.027.09-3.033.244-.274.041-.612.35-.677.61-.016.062-.047.12-.057.182-.212 1.382-.424 2.761-.633 4.143-.01.062.005.126 0 .188-.02.314.275.639.576.631 1.081-.031 2.155-.119 3.215-.347.124-.026.244-.07.362-.116a.873.873 0 0 0 .508-.533c.022-.059.046-.119.056-.182.133-.941.276-1.885.39-2.83.053-.439.057-.885.063-1.33.002-.117-.071-.238-.109-.356m-5.997.538c-.112-.246-.276-.358-.466-.384a10.48 10.48 0 0 0-2.847.029c-.411.057-.668.335-.812.717-.023.061-.047.119-.061.181-.273 1.175-.55 2.351-.813 3.526-.056.246-.069.503-.095.756-.037.371.293.733.692.762.189.012.382.047.569.037.697-.04 1.394-.092 2.091-.145.124-.012.253-.037.372-.076.247-.08.45-.236.587-.457.101-.16.194-.334.247-.514.396-1.348.62-2.723.604-4.13-.001-.122-.054-.245-.068-.302m25.815-5.563c.003.008.006.014.008.023-.423.141-.845.281-1.266.424-.181.061-.361.121-.541.188-.25.09-.494.463-.502.754-.002.063-.017.128-.01.189.11.949.3 1.881.549 2.803.033.119.11.228.172.34.138.257.533.443.809.389.062-.012.129-.007.189-.025 1.157-.354 2.269-.826 3.351-1.364.058-.027.107-.071.16-.106.332-.238.521-.562.508-.97-.035-.956-.202-1.896-.399-2.831-.014-.059-.057-.113-.076-.172-.062-.182-.418-.426-.604-.402-.188.021-.385.029-.562.092-.599.209-1.19.443-1.786.668m18.951-8.032c-.003-.009-.062-.321-.132-.633-.027-.124-.075-.243-.11-.366-.061-.219-.422-.338-.638-.201-1.077.681-2.151 1.364-3.226 2.048a.817.817 0 0 0-.149.12c-.224.234-.393.504-.418.835-.016.189-.015.384.004.573.06.634.122 1.268.203 1.9.023.184.104.364.17.542.08.214.455.373.645.28 1.264-.619 2.387-1.455 3.509-2.293.099-.074.177-.182.25-.285.156-.211.256-.449.215-.713-.078-.502-.178-1.002-.323-1.807m-13.026 10.422c.518-.207 2.322-1.254 2.797-1.627a.782.782 0 0 0 .29-.678c-.067-1.018-.25-2.021-.459-3.017-.048-.228-.387-.433-.591-.353-.354.141-.708.282-1.056.434a61.47 61.47 0 0 0-1.57.703 2.617 2.617 0 0 0-.484.303c-.267.201-.444.482-.44.812.003 1.022.195 2.023.412 3.02.013.06.059.114.084.172.075.178.44.354.646.313.124-.024.254-.035.371-.082M9.295 98.967c.039.092.055.154.088.207.394.649.781 1.302 1.192 1.939.099.152.264.268.417.375.108.076.25.068.362.006.109-.061.23-.125.3-.219.719-.966 1.309-2.014 1.908-3.057.238-.418.212-.876-.097-1.248a23.354 23.354 0 0 0-1.937-2.08c-.174-.164-.531-.091-.644.132-.086.169-.18.334-.256.508-.361.809-.724 1.617-1.175 2.382a1.624 1.624 0 0 0-.154.346 1.11 1.11 0 0 0-.004.709m-2.638-5.055c.229.498.486 1.082.762 1.654.138.287.325.543.564.764.19.174.54.194.687.02.041-.049.095-.087.133-.137.577-.775.956-1.648 1.227-2.57a.929.929 0 0 0-.11-.736 6.236 6.236 0 0 0-.315-.477c-.528-.719-1.061-1.433-1.59-2.148-.189-.256-.372-.516-.563-.77-.126-.168-.558-.203-.698-.059-.133.137-.267.273-.382.424-.541.717-.658 1.502-.353 2.346.193.539.405 1.071.638 1.689m117.09 15.699c.115-.055.241-.09.34-.164.704-.542 1.41-1.087 2.104-1.645.195-.158.374-.348.528-.547.201-.26.301-.578.216-.896-.208-.801-.448-1.592-.679-2.385-.064-.228-.438-.384-.621-.268-.804.515-1.536 1.127-2.256 1.749-.403.347-.591.815-.584 1.358.009.832.175 1.641.366 2.445.011.059.062.105.091.164.071.154.354.262.495.189m-9.753 1.836c-.283.18-.613.37-.923.592-.333.236-.481.584-.454.989a12.01 12.01 0 0 0 .559 2.98c.053.153.318.251.491.185a8.167 8.167 0 0 0 1.688-.869c.39-.266.619-.658.609-1.127a11.735 11.735 0 0 0-.454-3c-.056-.189-.466-.347-.649-.242-.276.154-.551.313-.867.492m20.743-13.681c-.217-.415-.403-.82-.635-1.197-.188-.305-.519-.334-.825-.094-.099.077-.202.156-.287.25-.301.328-.593.662-.887.998-.404.467-.521 1-.376 1.6.104.433.167.875.274 1.308.061.245.164.479.26.716.119.297.561.42.803.241.614-.459 1.143-1.01 1.691-1.538.091-.087.159-.198.226-.305.138-.223.215-.475.148-.727-.113-.428-.263-.848-.392-1.252m6.472-1.007c-.19-.554-.437-.821-.822-.946-.36-.117-.725-.189-1.108-.155-.214.019-.456.331-.409.544a7.58 7.58 0 0 0 .885 2.269c.032.054.076.1.112.151.268.361.896.545 1.368.398.213-.064.386-.365.336-.603-.134-.612-.269-1.224-.362-1.658m18.975 1.948c-.122-.079-.266-.219-.438-.271-.551-.17-1.126-.192-1.7-.198-.483-.008-.835.297-.892.803a3.87 3.87 0 0 0-.013.57c.014.322.276.635.554.697a7.107 7.107 0 0 0 1.896.154.728.728 0 0 0 .358-.119.493.493 0 0 0 .138-.131c.282-.462.297-.952.097-1.505m-24.453-1.742c.224.441.418.838.628 1.229a.993.993 0 0 0 .242.287c.203.158.433.262.701.188.268-.072.427-.255.49-.519.028-.122.058-.251.042-.374-.093-.766-.332-1.488-.818-2.09-.339-.412-.813-.578-1.356-.501-.248.035-.429.329-.346.575.14.418.289.834.417 1.205m10.373 1c.161.334.281.627.44.898.318.543.795.779 1.429.693.234-.029.469-.299.448-.523-.053-.564-.121-1.13-.322-1.662a.909.909 0 0 0-.515-.525 2.947 2.947 0 0 0-1.287-.25c-.22.008-.492.313-.438.516.083.301.173.603.245.853m9.501.392a1.01 1.01 0 0 0-.527-.545 3.148 3.148 0 0 0-1.315-.191c-.317.018-.622.295-.646.594-.036.451-.006.896.136 1.324.084.255.292.411.553.481.373.104.754.128 1.138.063a.752.752 0 0 0 .587-.436c.198-.423.218-.859.074-1.29m-10.935-.574c-.168-.34-.317-.688-.506-1.012a1.074 1.074 0 0 0-.918-.557c-.233-.01-.508.236-.509.455-.01.699.133 1.365.442 1.996.247.502.846.758 1.434.607.23-.059.394-.354.324-.596-.085-.299-.178-.596-.267-.893m6.976.317a7.53 7.53 0 0 0-.092-.283.89.89 0 0 0-.52-.523 2.044 2.044 0 0 0-.929-.158c-.25.016-.446.25-.454.523-.015.521.106 1.01.337 1.471.217.434.573.664 1.064.689.415.021.768-.301.726-.689-.04-.38-.095-.757-.132-1.03m14.186 1.362a.876.876 0 0 0-.44.604c-.094.416.135.803.516.875.438.082.871.158 1.32.131.218-.012.468-.222.527-.479.027-.123.046-.249.05-.375a.733.733 0 0 0-.501-.727 2.704 2.704 0 0 0-1.312-.094c-.062.011-.118.048-.16.065m-2.021-.091c-.085-.094-.154-.209-.255-.275-.329-.213-.703-.273-1.088-.248a.734.734 0 0 0-.612.389.847.847 0 0 0-.083.168c-.253.654.014 1.175.669 1.275.248.037.503.039.755.027a.635.635 0 0 0 .484-.256c.24-.332.26-.701.13-1.08M5.464 88.611c.09-.101.234-.227.336-.377.308-.45.379-.926.072-1.406-.201-.316-.419-.623-.635-.928-.034-.049-.1-.072-.146-.113-.113-.1-.427-.017-.491.139-.048.112-.117.233-.111.35a8.58 8.58 0 0 0 .358 2.027c.032.109.127.211.216.293.093.087.222.085.401.015m169.143 12.17c-.085-.088-.155-.212-.261-.26-.412-.184-.854-.24-1.304-.236-.062 0-.124.021-.188.03-.265.036-.521.376-.535.708-.013.241.197.49.442.543.438.099.878.145 1.325.07.062-.012.121-.039.182-.057.282-.079.465-.515.339-.798m1.826.149c-.143.066-.252.293-.235.479.015.172.185.378.333.419.555.149 1.114.2 1.687.132.149-.016.354-.193.398-.361.061-.232-.106-.531-.33-.601a3.814 3.814 0 0 0-1.68-.147c-.062.006-.116.051-.173.079m-5.684-.612a.817.817 0 0 0-.654-.416.679.679 0 0 0-.739.456c-.063.182-.09.372-.027.556.04.111.121.232.218.293.283.179.593.186.898.043.333-.158.467-.641.304-.932m9.975 1.065c-.345.135-.437.424-.34.559.07.098.152.208.255.257.406.187.831.229 1.267.11a.404.404 0 0 0 .259-.248c.062-.145-.057-.383-.211-.456-.405-.184-.822-.268-1.264-.207-.059.008-.112.044.034-.015m3.37.635c-.027.057-.07.109-.08.168-.021.14.035.261.161.318.414.19.852.208 1.296.16a.432.432 0 0 0 .175-.062.329.329 0 0 0 .125-.126c.057-.121.039-.254-.072-.33-.443-.301-.938-.325-1.444-.227-.061.013-.109.065-.161.099m3.803.433c-.028.057-.074.111-.077.169-.008.134.064.241.188.306.29.153.602.174.919.117a.329.329 0 0 0 .163-.087c.11-.098.142-.241.034-.339-.335-.304-.857-.363-1.227-.166M4.195 83.387a2.527 2.527 0 0 0-.128-.104c-.019.05-.058.104-.052.149.021.163.104.208.204.114.021-.021-.014-.105-.024-.159"/><path fill="none" d="M13 9h146.678v122.312H13z"/><path fill="#FFF" d="M117.102 66.265c-.321-.205-.606-.373-.872-.567-.082-.06-.124-.187-.163-.291-.164-.442-.319-.886-.479-1.329-.016-.044-.036-.087-.094-.217-.438.661-.819 1.218-1.175 1.791-.043.069.018.244.082.333.783 1.083 1.57 2.164 2.373 3.234.063.086.267.149.366.113.941-.343 1.926-.482 2.913-.557.36-.026.739.134 1.103.234.079.022.155.143.186.234.139.415.074.832-.066 1.227a79.695 79.695 0 0 1-1.039 2.776c-.35.877-.74 1.737-1.104 2.61-.073.179-.112.371-.184.608.295.132.583.265.873.39 1.573.689 3.148 1.373 4.717 2.067.197.089.383.218.546.361.227.196.196.478-.04.657-.212.162-.413.345-.637.49-.094.062-.235.062-.355.07-1.058.082-2.115.176-3.175.232-.598.031-1.199.013-1.8-.006-.255-.008-.318.084-.305.322.069 1.244-.141 2.461-.381 3.674-.117.588-.234 1.176-.347 1.766-.074.398-.447.463-.717.634-.189.121-.419.183-.669.285-.199-.368-.363-.751-.597-1.084-.256-.364-.58-.681-.869-1.021-.156-.184-.319-.365-.446-.566-.098-.157-.175-.188-.326-.076-1.472 1.096-2.948 2.188-4.419 3.287-.072.055-.154.195-.133.263.28.865.133 1.71-.08 2.558-.456 1.826-1.7 3.024-3.208 3.992-1.166.748-2.472 1.172-3.822 1.459-.798.17-1.595.398-2.403.463a24.384 24.384 0 0 1-5.036-.135c-1.515-.191-2.898-.719-4.243-1.39-.27-.136-.484-.197-.74.05-.39.375-.806.725-1.229 1.061-.401.318-.755.722-1.295.82-.205.038-.31-.027-.46-.218-.501-.636-.111-1.31-.168-1.958-.031-.354.033-.714.06-1.072.016-.22-.08-.336-.294-.398-.496-.146-.987-.313-1.58-.504 0 .476.013.932-.003 1.386-.022.68-.073 1.358-.098 2.038-.008.217.034.435.037.652.009.625-.52 1.268-1.07 1.557-.509.268-.963.059-1.433.012-1.468-.15-2.927-.377-4.395-.492-1.03-.082-2.07-.023-3.104-.045-.4-.009-.812-.023-1.196-.117-.278-.068-.396.01-.531.221-.622.965-1.26 1.92-1.883 2.883-.088.139-.127.307-.175.428-.133.086-.262.16-.381.252-.27.203-.523.432-.806.613-.222.145-.437-.068-.622-.412-.383-.715-.238-1.512-.424-2.254a8.308 8.308 0 0 1-.17-.951c-.039-.312-.191-.424-.505-.424-1.685.006-3.369-.002-5.054-.016-1.014-.01-2.028-.07-3.043-.061-1.406.012-2.812.068-4.219.107-.229.008-.459.023-.69.023a.51.51 0 0 1-.233-.051c-.222-.113-.583-.939-.531-1.191.219-1.082.477-2.16.647-3.25.171-1.092.263-2.197.375-3.297.036-.349-.024-.621-.463-.734-1.229-.315-2.438-.705-3.666-1.02-.97-.249-1.956-.433-2.935-.643-.101-.022-.203-.031-.369-.057-.092 2.205-.231 4.377.16 6.492-.1.098-.194.186-.283.28-.207.219-.391.463-.618.659-.263.227-.546.169-.777-.111-.923-1.119-1.817-2.263-2.776-3.352-1.021-1.16-2.102-2.269-3.156-3.399-.157-.169-.315-.336-.499-.532-.382.342-.753.678-1.124 1.012a16.264 16.264 0 0 0-2.871 3.44c-.348.554-.777 1.103-1.423 1.388-.642-.338-.845-.733-.779-1.436.147-1.574.283-3.148.424-4.723.009-.092.028-.184.042-.274.106-.726-.033-.933-.707-1.205-1.056-.426-2.169-.731-3.115-1.39a4.16 4.16 0 0 1-.869-.789c-.108-.137-.104-.428-.051-.622.198-.724.744-1.216 1.277-1.687 1.184-1.043 2.396-2.055 3.625-3.104-.369-.755-.738-1.494-1.091-2.242-.667-1.417-1.586-2.673-2.478-3.949-.244-.349-.49-.697-.72-1.057-.216-.335-.132-.598.222-.762.487-.229.949-.238 1.488-.067.82.261 1.686.377 2.531.562.584.127 1.166.263 1.797.406 0-.471.01-.902-.001-1.332-.049-2.24-.114-4.479-.149-6.719-.011-.691.071-1.383.078-2.075a.777.777 0 0 0-.201-.501c-1.213-1.215-2.146-2.592-2.563-4.281a2.822 2.822 0 0 1-.083-.507c-.111-1.973.124-3.9.829-5.754a15.577 15.577 0 0 1 2.483-4.308c1.207-1.482 2.596-2.795 4.101-3.971.721-.564 1.517-1.038 2.297-1.52.563-.349 1.156-.653 1.746-.958.207-.108.276-.236.257-.466-.105-1.195-.195-2.392-.293-3.588-.109-1.343-.217-2.687-.332-4.029a1.25 1.25 0 0 1 .348-.994c.15-.147.526-.134.782-.09 1.156.202 2.304.194 3.466.041 1.106-.146 2.224-.217 3.336-.32.924-.086 1.848-.204 2.774-.247.99-.047 1.985-.029 2.978-.027.223 0 .33-.001.416-.289.59-1.982 1.703-3.628 3.306-4.94 1.168-.956 2.498-1.643 3.873-2.231.765-.328 1.579-.553 2.388-.763.797-.207 1.607-.411 2.426-.483a16.457 16.457 0 0 1 2.928-.015c1.026.093 2.052.295 3.057.537 1.569.378 2.985 1.088 4.199 2.17.427.381.848.768 1.273 1.154.551-.663.728-1.468.981-2.238.115-.349.211-.706.317-1.059.095-.313.271-.423.625-.388.888.088 1.469.571 1.967 1.268.804 1.124 1.66 2.212 2.487 3.32.216.287.451.319.741.126 1.108-.74 2.222-1.471 3.327-2.217.618-.417 1.212-.871 1.841-1.271.158-.101.429-.125.613-.068.452.14.846.397 1.081.835a.563.563 0 0 1 .085.257c-.01 1.047-.015 2.094-.053 3.14-.01.27.091.328.319.371 1.406.266 2.823.211 4.242.204 1.566-.008 3.133.054 4.699.066 2.047.017 4.093.011 6.139.023 1.558.009 3.115.007 4.67.064.355.013.713.226 1.047.393.162.081.235.248.199.49-.089.601-.125 1.21-.157 1.817-.068 1.309-.094 2.621-.191 3.927-.072.973-.233 1.94-.349 2.91-.076.649-.137 1.299-.214 1.948-.111.939-.238 1.877-.346 2.817-.07.619-.125 1.24-.168 1.861-.006.089.083.203.158.274.105.102.241.174.39.277l.086-.319c.453.382.894.693 1.261 1.074 1.161 1.202 2.203 2.501 2.806 4.079.344.899.592 1.838.843 2.77.346 1.281.367 2.595.372 3.915.006 1.522-.464 2.904-1.178 4.195-.293.53-.845.927-1.308 1.352-.523.482-1.085.924-1.618 1.396-.073.066-.105.2-.12.308-.088.626-.146 1.257-.25 1.88-.055.322-.162.64-.289.942-.069.162-.229.28-.332.4M71.067 98.783c.38-.582.803-1.084 1.058-1.66.201-.458.535-.643.926-.812.168-.074.357-.162.528-.148.49.041.974.163 1.464.195.928.06 1.86.108 2.79.108 1.695-.002 3.359.29 5.032.49.593.071.593.073.664-.522.003-.022.007-.045.009-.068.115-1.342.234-2.682.337-4.023a.483.483 0 0 0-.148-.345c-.662-.604-1.359-1.17-2.001-1.793a6.668 6.668 0 0 1-1.601-2.438c-.591-1.574-.686-3.215-.507-4.873.217-2.012.877-3.836 2.351-5.297.041-.039.02-.143.027-.216-.239.183-.384.396-.57.562-.581.521-1.124 1.113-1.78 1.518-1.257.775-2.681 1.102-4.151 1.167-1.283.058-2.554-.116-3.811-.353-1.084-.203-2.09-.639-3.053-1.162-.531-.288-1.033-.631-1.588-.975.078.383-.007.676-.265.936-.239.242-.487.398-.838.373a3.314 3.314 0 0 0-.69.008c-1.037.146-2.076.288-3.107.475-.547.098-1.075.285-1.607.43.357.375.65.757 1.014 1.049 1.039.839 2.114 1.633 3.162 2.463.439.35.857.729 1.26 1.121.203.197.381.438.517.686.242.446-.041.772-.312 1.088-.25.295-.533.355-.896.219-.354-.135-.709-.271-1.074-.373-1.316-.37-2.637-.732-3.959-1.088-.486-.131-.98-.234-1.521-.363.014.146.015.258.035.365.066.326.14.65.211.976.129.583.236 1.171.394 1.746.16.584.372 1.153.552 1.731.031.102.057.25.008.32-.151.217-.36.393-.513.609-.293.418-.51.471-.952.217-.22-.126-.453-.225-.711-.35-.066 2.041-.4 3.97-.845 5.943.181 0 .327.002.472 0 1.189-.018 2.379-.051 3.568-.052 1.502-.002 3.004.007 4.505.04 1.569.035 3.138.1 4.707.162.11.004.267.07.317.156.197.345.386.699.529 1.068.071.188.041.417.063.69m2.818-37.843c-.557-.034-1.072-.087-1.59-.093-1.785-.02-3.568-.045-5.353-.027-1.392.013-2.781.096-4.171.13-.803.019-1.439-.692-1.395-1.502.062-1.153.115-2.307.17-3.461.008-.14.002-.281.002-.422l-.097-.023c-.802 1.498-1.964 2.692-3.258 3.87.455.052.836.099 1.219.138.455.047.915.062 1.363.147.137.026.338.23.343.359.014.427-.048.857-.08 1.286-.008.103-.033.21-.013.307.06.282.151.556.21.838.186.887.395 1.771.535 2.665.111.717.145 1.448.197 2.174.068.949.14 1.9.176 2.852.023.633.23 1.16.689 1.598.18.173.346.365.497.563.662.866 1.313 1.742 1.982 2.603.059.076.22.093.335.098.349.018.716-.084 1.021.174.211.178.436.344.623.545 1.215 1.305 2.746 2.098 4.407 2.633.894.289 1.834.475 2.769.584.768.09 1.567.078 2.336-.025 1.959-.264 3.171-1.578 4.141-3.157.369-.601 1.034-.831 1.68-.53.402.187.569.553.808.867.398.529.78 1.071 1.171 1.607l.096-.033c.023-.107.07-.215.066-.321-.031-.7-.032-1.407-.123-2.101-.073-.557-.014-1.018.429-1.399a8.314 8.314 0 0 0 1.679-1.954c.667-1.078 1.255-2.15 1.352-3.462.068-.933-.264-1.661-.79-2.352-.633.423-1.237.847-1.861 1.237-.86.537-1.729 1.06-2.61 1.559-.146.083-.461.095-.558-.001-.333-.328-.574-.746-.573-1.231.002-.992.076-1.984.048-2.974-.028-1.033-.138-2.065-.23-3.095-.006-.065-.177-.169-.267-.165-.635.023-1.271.127-1.9.096-.816-.041-1.382.24-1.739.98-.187.388-.349.845-.661 1.101-.332.272-.265.698-.578.933-.034-.014-.126-.074-.148-.055-.207.178-.417.357-.598.561-.222.253-.703.403-.851.212-.144-.187-.296-.404-.338-.628-.146-.769-.245-1.547-.36-2.321a355.8 355.8 0 0 1-.202-1.385m-23.27 1.7c.241-.395.529-.77.709-1.191.165-.385.422-.524.799-.579.43-.062.891-.079 1.27-.256a18.045 18.045 0 0 0 2.213-1.233 10.695 10.695 0 0 0 1.615-1.285c1.091-1.061 2.131-2.174 2.838-3.542.791-1.527 1.313-3.135 1.242-4.875-.039-.92-.17-1.838-.285-2.753-.033-.269-.135-.535-.243-.784a.44.44 0 0 0-.296-.216c-.672-.096-1.348-.164-2.022-.249-.204-.026-.319.042-.394.24-.557 1.477-1.145 2.944-1.33 4.532-.02.164-.102.32-.155.48l-.063-.066c-.137.048-.271.108-.412.143-.221.056-.391.242-.653.203-.175-.027-.409.094-.532.016-.154-.098-.273-.321-.318-.51a20.322 20.322 0 0 1-.367-1.921c-.096-.749-.133-1.505-.193-2.258-.014-.18-.07-.289-.281-.23-1.39.386-2.791.688-4.244.727-.804.022-1.617.011-2.389.311-.257.1-.516.24-.783.263-.66.055-.61.09-.772-.483-.015-.054-.022-.113-.052-.159-.277-.421-.166-.7.332-.875.082-.029.188-.17.182-.251a198.902 198.902 0 0 0-.295-3.443c-.037-.394-.104-.786-.16-1.207-.104.036-.186.048-.248.088-.697.446-1.388.906-2.091 1.343-1.521.945-2.833 2.132-4.058 3.425-.953 1.005-1.765 2.123-2.326 3.376-.516 1.148-.926 2.349-1.118 3.615-.246 1.628-.056 3.156.762 4.613a7.008 7.008 0 0 0 1.81 2.098c1.332 1.051 2.912 1.477 4.556 1.687 2.126.272 4.206-.02 6.264-.574.36-.096.771-.195 1.112.127.111.105.238.192.359.287-.377.422.018.887.017 1.366m12.061-16.388c-.025.055-.043.076-.041.096.006.092.011.184.026.275.321 1.72.556 3.442.101 5.179-.02.074.033.24.066.243.417.047.299.386.312.608.041.714.062 1.431.058 2.147a197.624 197.624 0 0 1-.076 3.925c-.009.301.048.508.39.515.586.01 1.174.025 1.76.02 1.848-.018 3.695-.056 5.542-.064 1.049-.004 2.099.032 3.147.058.438.011.873.037 1.31.072a.338.338 0 0 1 .219.142c.245.38.444.773.444 1.248 0 .309.057.618.089.927l.125.035c.205-.312.474-.6.6-.942.205-.555.404-.735.966-.746 1.037-.02 2.074-.057 3.11-.107 1.431-.067 2.861-.119 4.285.1.313.049.63.087.998.136 0-.219.013-.391-.002-.559-.089-.952-.161-1.906-.283-2.854-.13-1.017-.303-2.029-.47-3.041-.163-.989-.413-1.969-.497-2.964-.12-1.413-.126-2.836-.174-4.255-.011-.288-.031-.586.026-.863.07-.33.22-.644.34-.98-.013 0-.083-.022-.11.003a162.45 162.45 0 0 0-1.818 1.601c-.209.188-.367.451-.714.39a.249.249 0 0 0-.193.06c-.227.241-.521.206-.803.21-.075.001-.2-.053-.217-.107-.098-.322-.216-.649-.239-.98-.021-.314.047-.64.11-.954.223-1.108.393-2.221.34-3.447-.804-.081-1.621-.189-2.442-.234-.289-.016-.481-.009-.449-.364.003-.034-.034-.072-.053-.107l-.101.009c.124 1.704.158 3.408.187 5.164-.161-.06-.25-.126-.293-.104a5.092 5.092 0 0 0-.684.403c-.348.258-.669.206-.891-.165-.06-.098-.14-.184-.213-.274-.396-.493-.809-.973-1.187-1.48-.475-.637-.922-1.295-1.379-1.944-.09-.126-.154-.247-.355-.143-.552.287-1.105.573-1.675.823-1.001.441-1.995.909-3.112.995-.224.017-.443.08-.699.129l.414 1.758c.063.263-.068.543-.285.609-.36.11-.717.239-1.081.333-.134.035-.291.011-.431-.017-.289-.058-.57-.159-.86-.202-.399-.059-.804-.078-1.207-.118-.642-.064-1.283-.131-1.931-.198m51.489 3.711v-.376c0-1.334-.032-2.67.008-4.003.038-1.222.119-2.445.245-3.66.127-1.215.354-2.419.501-3.632.197-1.637.363-3.278.536-4.918.135-1.286.252-2.573.397-3.858.029-.268-.072-.324-.296-.325-.645-.003-1.289-.014-1.935-.015-1.408-.003-2.814.007-4.222-.004-1.744-.015-3.488-.052-5.231-.068-1.768-.016-3.536-.006-5.303-.034-.836-.013-1.671-.088-2.507-.135 0 .559-.009 1.122.011 1.685.003.066.164.175.258.182.805.061 1.614.066 2.414.16 1.2.141 2.398.313 3.586.53.578.105 1.136.334 1.694.53.092.032.181.177.205.286.044.193.038.398.053.61-.093.008-.179-.003-.248.025-1.021.423-2.042.845-3.054 1.287-.079.035-.134.22-.126.33.008.116.095.233.165.338.688 1.025 1.389 2.041 2.067 3.072.425.646.813 1.316 1.224 1.971.153.245.077.533-.126.577-.497.108-.931.504-1.487.345-.146-.042-.291-.099-.438-.111-1.192-.097-2.386-.182-3.578-.278-.218-.018-.306.082-.358.274-.201.723-.398 1.448-.62 2.164-.303.98-.624 1.955-.944 2.928-.066.202-.126.391-.423.427-.283.034-.549.201-.827.296-.361.123-.628-.009-.815-.345-.091-.164-.238-.296-.393-.483l-.518 4.289c.23-.024.377-.042.525-.056l1.925-.184c1.193-.112 2.386-.243 3.581-.326.621-.043 1.243-.223 1.873.016.63.238.799.461.801 1.115 0 .349.059.698.097 1.126.101-.112.146-.146.17-.192.297-.548.6-1.094.882-1.65.161-.317.367-.506.75-.458.684.086 1.369.172 2.056.225.999.078 2 .143 3.002.184 1.46.06 2.921.093 4.423.139m-37.942-7.724l.065-.022c-.054-.458-.089-.92-.168-1.375-.091-.516.078-.917.506-1.177.503-.305 1.024-.594 1.478-.964a39.17 39.17 0 0 0 2.271-2.02c1.333-1.278 2.108-2.82 2.015-4.706a19.833 19.833 0 0 0-.279-2.539c-.122-.672-.293-1.361-.588-1.972-.627-1.299-1.648-2.271-2.883-2.998-.611-.359-1.248-.715-1.92-.922a13.015 13.015 0 0 0-2.662-.539c-1.062-.095-2.147-.124-3.207-.019-.967.095-1.93.348-2.859.639-1.632.509-3.208 1.127-4.48 2.365-1.064 1.035-1.938 2.162-2.365 3.598-.045.146-.062.299-.094.461.642 0 1.236.056 1.814-.016.62-.077 1.157.12 1.686.352.229.1.481.316.564.538.333.894.656 1.798.885 2.723.237.968.359 1.964.538 2.947.229 1.269.459 2.54.705 3.807.136.698.304 1.389.478 2.178.797-.213 1.594-.333 2.312-.639.982-.418 1.963-.893 2.83-1.505.57-.402 1.042-.338 1.594-.181.346.098.575.331.773.636.303.467.657.901.991 1.35m-42.34 30.506l-.053.108c.09.146.186.289.266.438.547 1.01 1.086 2.021 1.638 3.029.379.691.771 1.375 1.164 2.059.094.163.161.301.016.479-.256.31-.467.66-.743.947-.184.193-.466.287-.675.461-.832.696-1.659 1.399-2.476 2.115-.322.283-.607.61-.922.93.1.08.139.127.188.151.813.399 1.642.772 2.442 1.199.643.343 1.441.457 1.842 1.183.02.035.091.041.107.047-.254.436.059.854-.008 1.27-.068.431-.078.872-.121 1.309-.043.426-.099.85-.154 1.332.152-.08.279-.117.365-.197.895-.828 1.802-1.646 2.662-2.508.424-.425.883-.644 1.477-.685.42-.028.738.096 1.002.396a443.92 443.92 0 0 1 2.632 3.018c.56.646 1.104 1.303 1.658 1.953.03.037.087.052.175.102 0-.24.005-.434-.001-.625-.043-1.301-.062-2.597.229-3.88.129-.565.436-.817 1.011-.888.957-.116 1.874.057 2.784.294 1.211.315 2.42.649 3.623.997.841.242 1.668.527 2.504.789.386.121.775.238 1.199.367-.072-.399-.104-.758-.201-1.098-.397-1.41-.812-2.816-.738-4.332.242-.07.473-.197.697-.188.435.02.875.082 1.298.189 1.216.311 2.423.652 3.634.98.088.023.18.031.32.054-.059-.085-.072-.12-.098-.138-1.479-1.037-2.798-2.264-4.078-3.531-.228-.225-.395-.52-.558-.801-.122-.211.052-.625.29-.689.326-.087.669-.111.996-.195 1.102-.285 2.193-.615 3.303-.871.795-.184 1.611-.276 2.496-.424-.648-1.408-1.602-2.584-2.639-3.725 0 .415-.014.812.004 1.21.02.399.145.823-.391 1.005-.047.016-.096.078-.11.129-.097.33-.373.303-.616.297-.54-.013-1.079-.06-1.619-.072-2.389-.059-4.779-.115-7.168-.164-1.059-.022-1.06-.016-1.507.931-.019.041-.028.088-.047.13-.388.922-.774 1.844-1.166 2.764a.719.719 0 0 1-.165.217c-.25.244-.531.463-.753.729-.379.457-.699.466-1.07.003-.298-.371-.358-.793-.379-1.256-.034-.816-.135-1.629-.185-2.445-.028-.472.006-.947-.027-1.418-.008-.115-.17-.313-.264-.314a41.112 41.112 0 0 0-2.651.039c-1.137.059-2.271.173-3.407.242-1.011.062-2.025.058-3.031.158-.402.039-.644-.074-.867-.357-.118-.152-.262-.287-.366-.448a.6.6 0 0 1-.097-.333c.022-.548.065-1.095.096-1.643.013-.217-.102-.295-.312-.326-.433-.064-.863-.155-1.293-.243-.388-.081-.774-.171-1.162-.256m82.848 11.827c.064-.424.117-.75.166-1.077.176-1.188.215-2.379.028-3.569-.037-.244.262-.636.503-.638.762-.008 1.522-.003 2.283-.019.521-.01 1.041-.041 1.562-.063l.017-.114c-.303-.111-.607-.217-.909-.334-.782-.305-1.557-.633-2.347-.917-.528-.188-.731-.489-.784-1.038-.054-.58.134-1.091.338-1.598.462-1.141.957-2.268 1.429-3.404.169-.408.304-.828.481-1.318-.351.055-.623.082-.888.141-.682.154-1.356.322-1.916.789-.171.143-.379.189-.544-.076a14.067 14.067 0 0 0-.672-.963c-.434-.581-.873-1.157-1.315-1.73-.344-.444-.664-.914-1.056-1.311-.165-.168-.511-.289-.735-.241-.674.144-1.342.341-1.984.591-.827.319-1.618.732-2.443 1.059-.373.146-.567.246-.455.732.188.818.221 1.67.375 2.496.327 1.762.536 3.53.495 5.324-.008.346-.031.689-.313.932-.159.137-.4.196-.525.354-.21.266-.354.126-.551.008-.253-.152-.517-.328-.798-.391a98.94 98.94 0 0 0-4.165-.867c-1.733-.312-3.477-.572-5.22-.838-.112-.018-.297.074-.364.173-.292.427-.546.88-.826 1.315-.368.57-.76 1.121-1.543 1.149-.144-.241-.372-.47-.417-.731a21.06 21.06 0 0 1-.264-2.323c-.015-.259-.038-.349-.307-.343-.772.018-1.545.01-2.317.021a.3.3 0 0 0-.214.127c-.225.375-.437.758-.649 1.141-.123.222-.046.35.176.463.255.131.486.308.724.471.651.449 1.086 1.083 1.489 1.745.123.2.057.7-.128.813-.283.172-.575.328-.864.49-.254.143-.508.283-.761.426l.032.092c.142-.02.282-.043.425-.059.697-.076 1.395-.213 2.092-.213.964-.001 1.868.203 2.246 1.311.927-.396 1.839-.789 2.618-1.44a1.16 1.16 0 0 1 .599-.247c.732-.076 1.246.417 1.232 1.148-.003.149-.01.301-.037.449-.169.883-.349 1.766-.515 2.649-.073.399-.125.802-.193 1.252.133-.032.177-.037.217-.052.776-.295 1.547-.602 2.328-.881 1.265-.453 2.578-.789 3.745-1.49.658-.395 1.746.039 1.999.671.183.457.338.927.479 1.399.123.41.209.834.318 1.277.125-.054.206-.072.266-.119.406-.318.802-.65 1.212-.963a143.79 143.79 0 0 1 2.353-1.758c.655-.477 1.302-.953 1.75-1.65.074-.115.222-.244.345-.254.493-.044.944.09 1.291.465.45.488.89.985 1.406 1.556M38.327 62.316c.058.368.112.622.132.878.031.391.035.783.053 1.175.099 2.129.213 4.257.289 6.387.041 1.145.019 2.293.017 3.439 0 .232.082.349.323.34.529-.02 1.061-.02 1.589-.057.989-.067 1.976-.181 2.966-.229a67.31 67.31 0 0 1 3.422-.077c.63.003 1.264.065 1.889.147.265.035.45.203.41.559-.041.34.024.689.043 1.036l.103.007c.03-.126.061-.253.095-.379.13-.484.348-.648.848-.635.617.018 1.235.04 1.854.061 2.027.063 4.056.133 6.085.188.731.021 1.466.003 2.243.003-.023-.411-.053-.819-.068-1.227-.047-1.289-.078-2.578-.134-3.865a50.777 50.777 0 0 0-.179-2.758 51.455 51.455 0 0 0-.416-3.349c-.123-.748-.359-1.476-.533-2.216-.053-.223-.062-.456-.094-.699-.383-.04-.793-.111-1.205-.12-.414-.009-.829.051-1.244.065a3.314 3.314 0 0 0-1.596.475c-.693.401-1.455.692-2.209.973-.242.091-.437.174-.554.401-.271.519-.524 1.048-.809 1.56-.277.498-.275 1.124-.718 1.545-.099.093-.187.198-.279.297-.221.237-.432.484-.667.704-.052.048-.237.042-.28-.008-.259-.3-.596-.587-.714-.943-.19-.572-.24-1.193-.332-1.797-.071-.472-.114-.949-.175-1.458-3.457.905-6.81 1.015-10.155-.423m50.709 31.745l.103.035c.195-.174.376-.375.594-.516.202-.129.441-.264.671-.275.611-.031 1.153.236 1.687.504 1.326.662 2.683 1.213 4.181 1.381 1.77.199 3.534.213 5.271-.166 1.028-.226 2.021-.611 3.028-.93.718-.228 1.307-.67 1.865-1.156.657-.573 1.064-1.328 1.444-2.092.26-.521.425-1.086.408-1.681-.273.065-.513.11-.746.179-.461.135-.722.027-.846-.423-.222-.812-.413-1.632-.62-2.446-.088-.345-.182-.686-.273-1.033-.469.199-.875.394-1.297.547-1.18.43-2.364.843-3.548 1.262-.804.285-1.603.584-2.414.848-.397.129-.879-.031-1.004-.455-.09-.304-.174-.625-.17-.938.007-.641.049-1.282.125-1.918.062-.506.194-1.003.296-1.503-.688.282-1.354.549-2.015.832-.476.204-.942.435-1.416.646a.543.543 0 0 1-.255.039c-.141-.014-.277-.052-.416-.08-.028.026-.058.051-.085.077-.112-.315-.293-.628-.318-.95-.026-.343.093-.695.154-1.078-.207-.014-.38-.049-.546-.03-.835.099-1.667.237-2.504.313-.719.066-1.444.119-2.162.086-.623-.029-.968-.879-.548-1.354.438-.496.943-.941 1.459-1.357.332-.27.734-.449 1.105-.668l.084-.123c-.12-.07-.245-.136-.358-.216-.46-.327-.904-.678-1.377-.983-.483-.312-.773-.918-.491-1.545.214-.477.382-.974.577-1.478-.398-.118-.812-.265-1.236-.358-.326-.072-.651-.111-.785-.486-.27.162-.342.359-.306.613.079.549.182 1.096.215 1.646.022.395-.026.799-.088 1.191-.101.637-.234 1.268-.36 1.898a.61.61 0 0 1-.101.251c-.152.202-.304.408-.483.584-.13.128-.293.265-.462.302-.466.099-.661-.302-.874-.588-.362-.484-.675-1.007-1.034-1.552-.548.579-.894 1.206-1.145 1.869a9.99 9.99 0 0 0-.547 5c.088.621.232 1.269.517 1.819.855 1.66 2.208 2.863 3.841 3.729.78.413 1.629.698 2.448 1.037.61.253.727.43.722 1.08-.001.203.023.406.035.61m3.11-50.69c-.414.601-.776 1.175-1.187 1.712-.734.961-1.495 1.903-2.254 2.846-.06.076-.183.107-.282.145-.222.084-.48.114-.659.25-.202.153-.403.107-.582.076-.419-.072-.52-.416-.572-.787-.032-.225-.106-.444-.162-.666l-.112.021c.03.469.067.936.087 1.405.034.785-.016 1.58.098 2.353.281 1.928.618 3.849.961 5.767.266 1.483.29 2.98.339 4.476.003.101-.066.227-.141.303-.146.147-.377.236-.471.405-.211.387-.517.284-.814.219-.593-.129-1.179-.303-1.775-.413-.39-.071-.795-.061-1.141-.083l.208 5.183c.059-.022.116-.032.16-.062.723-.508 1.454-1.007 2.163-1.534.312-.232.653-.478.854-.798.298-.474.715-.462 1.151-.439.646.035 1.155.438 1.696.727.42.223.784.55 1.179.836.02-.013.053-.027.075-.051.963-1.027 1.925-2.054 2.884-3.084.416-.446.851-.871.973-1.521.051-.272.276-.442.609-.464.604-.04 1.089.125 1.519.576.654.683 1.361 1.315 2.038 1.975.275.268.531.555.832.872.289-.621.566-1.165.799-1.727.339-.817.679-1.636.958-2.475.223-.671.521-.867 1.215-.621.289.102.563.246.842.373l2.233 1.024c.319.146.637.29.989.449.183-1.511.362-2.952.529-4.395.048-.414.286-.648.66-.623.713.047 1.427.085 2.14.124.138.008.275.001.413.001l.029-.095c-.534-.508-1.058-1.028-1.606-1.52-.719-.643-1.438-1.296-1.808-2.205-.256-.633-.639-.936-1.312-.828-.114.018-.259.086-.315.177-.754 1.224-1.275 2.551-1.702 3.919-.028.092-.087.216-.161.245-.368.141-.74.302-1.125.356-.181.026-.499.087-.598-.263-.254-.908-.544-1.805-.788-2.715-.157-.586-.261-1.187-.39-1.793-.064 0-.109-.003-.153 0-1.092.086-2.186.164-3.276.261-1.444.13-2.887.271-4.329.414-.393.039-.697-.089-.786-.384-.229-.751-.229-1.518-.107-2.285.114-.716.271-1.425.36-2.143.115-.939.182-1.884.265-2.826.005-.058-.016-.14-.056-.177-.177-.164-.363-.315-.594-.513m2.233-18.152c-.091.028-.128.031-.151.049-1.242.896-2.436 1.877-3.908 2.386-.546.189-1.115.376-1.684.419-.685.053-1.174-.395-1.568-.919-.514-.681-1.022-1.367-1.537-2.048-.141-.186-.298-.36-.479-.578-.182.416-.312.773-.486 1.105-.271.511-.371 1.162-1.061 1.346.103.283.229.534.283.801.194.947.399 1.893.533 2.849.256 1.82.083 3.582-.829 5.226-.582 1.05-1.451 1.844-2.3 2.658-.344.33-.706.639-1.132 1.022.433.076.778.134 1.123.198.605.113 1.218.183 1.756.544.421.283.492.464.459.99-.044.711-.011 1.428-.011 2.182.28-.259.549-.524.837-.764.109-.091.269-.181.401-.177.705.02 1.304.253 1.781.82.579.687 1.216 1.326 1.578 2.168.021.049.067.087.123.159.26-.369.507-.712.745-1.06.716-1.044 1.504-2.042 2.001-3.221.133-.315.351-.488.723-.414.597.118 1.126.344 1.544.81.293.325.645.598.928.93.347.404.785.506 1.279.529.2.009.34-.023.4-.23.146-.505.314-1.004.438-1.515.162-.679.298-1.364.426-2.051.06-.318.347-.585.684-.565 1.104.066 2.211.135 3.316.205.358.022.717.048 1.141.078-.168-.281-.285-.491-.415-.691-.744-1.152-1.494-2.299-2.235-3.452-.471-.736-.298-1.438.444-1.873.199-.117.392-.245.588-.369a14.178 14.178 0 0 0-2.071-.306c-.689-.049-1.383-.042-2.074-.069-.354-.014-.724-.124-1.057-.054-.303.064-.389-.057-.451-.262-.086-.283-.188-.576-.193-.867a105.662 105.662 0 0 1-.007-3.605c.01-.78.074-1.559.118-2.384m-46.855 7.139c0 .091-.005.158.001.224.045.505.109 1.008.133 1.513.012.261-.074.525-.066.785.022.768.061 1.536.111 2.303.069 1.042.155 2.083.235 3.124.073.977.149 1.954.225 2.93.052.667.11 1.334.156 2.001.017.223.114.298.333.284.402-.027.805-.035 1.208-.048 1.349-.041 2.642-.377 3.905-.809.443-.152.854-.171 1.269-.013.407.154.815.334.871.859.001.005.038.007.097.018.049-.218.112-.436.148-.659.057-.355.253-.716.693-.688.262.016.526.017.787.044 1.24.128 2.479.257 3.719.397 1.316.149 2.633.314 3.951.462.235.026.477.003.732.003 0-.059.008-.103-.001-.145-.331-1.555-.681-3.107-.989-4.667-.32-1.617-.607-3.239-.894-4.862-.211-1.194-.454-2.376-.933-3.5-.104-.242-.229-.318-.492-.31-.746.024-1.495.015-2.243.014-1.802-.001-3.604-.074-5.402.012-1.772.085-3.538.328-5.306.503-.742.073-1.484.149-2.248.225m48.539 29.971c-.657.65-1.244 1.233-1.835 1.813-1.07 1.052-1.901 2.318-3.019 3.331-.483.439-.881.43-1.157-.152-.016-.03-.021-.067-.04-.094-.21-.303-.423-.603-.635-.902l-.125.07c.022.094.024.199.068.281.256.467.276.975.253 1.484-.031.661-.048 1.331-.156 1.983-.123.742-.588 1.34-.991 1.959-.285.44-.536.902-.824 1.391.379.113.708.205 1.034.311 1.537.496 3.104.666 4.706.4 1.122-.186 1.58.042 1.848.979.271-.274.586-.388.962-.322.987.171 1.975.336 2.963.504 1.248.213 2.498.42 3.744.644.783.142 1.561.306 2.34.468.479.099.954.209 1.531.338-.104-1.125-.172-2.203-.308-3.272-.146-1.166-.404-2.317-.526-3.485-.16-1.535-.238-3.08-.344-4.621-.082-1.184-.146-2.37-.238-3.554-.01-.124-.139-.291-.257-.345-.613-.286-1.24-.543-1.877-.816-.033.045-.059.071-.072.101-.652 1.427-1.302 2.855-1.955 4.281a.952.952 0 0 1-.161.26c-.137.144-.271.303-.439.402-.229.134-.481.261-.737.301-.103.016-.281-.188-.357-.329-.288-.536-.787-.858-1.206-1.262-.731-.703-1.446-1.418-2.19-2.147m17.335-5.784c-.102.117-.161.208-.241.275-.195.164-.402.312-.598.475-.245.204-.487.06-.747.04-.828-.063-1.661-.049-2.491-.085-.239-.01-.289.09-.313.296-.162 1.408-.336 2.815-.51 4.222a.464.464 0 0 1-.104.244c-.107.111-.254.185-.357.299-.294.326-.834.473-1.107.255l.354 4.798c.215-.118.35-.203.494-.269a39.72 39.72 0 0 1 4.491-1.688.704.704 0 0 0 .32-.245c.315-.411.624-.828.919-1.254.386-.558.78-1.112 1.123-1.696.379-.646 1.284-.72 1.727-.333.42-.31.847-.598 1.243-.924.504-.415 1.01-.835 1.462-1.304.345-.359.693-.761.89-1.21.404-.926.497-1.937.519-2.937.031-1.505-.23-2.97-.668-4.411-.35-1.146-.677-2.279-1.394-3.283-.613-.857-1.221-1.704-2.008-2.41-.047-.042-.112-.064-.177-.1-.021.053-.041.084-.042.115-.009.196-.01.392-.018.588-.067 1.578-.08 3.155.091 4.729.021.188-.027.383-.035.478-.224.073-.363.121-.505.166-.282.089-.562.232-.85.25-.347.023-.699-.078-1.05-.096-1.441-.075-2.882-.139-4.324-.204-.22-.01-.44-.002-.74-.002.123.158.186.253.262.334.474.505.95 1.007 1.429 1.509.867.912 1.727 1.831 2.61 2.727.205.211.381.396.345.651"/><path fill="none" d="M17.234 16.001h118v92.04h-118z"/></svg>
