<svg xmlns="http://www.w3.org/2000/svg" viewBox="0 0 224 162"><path class="bubble" fill="#FFB547" d="M153.734 122.186c-.639 1.868-1.273 3.728-1.91 5.584-.186.551-.402 1.09-.801 1.564-.309.364-.463.784-.619 1.203-.24.625-.484 1.25-.971 1.786-.031.036-.062.071-.082.114-.422.893-1.016 1.723-1.516 2.588-.504.865-1.098 1.695-1.688 2.523-1.104 1.547-2.254 3.076-3.578 4.533-1.773 1.953-3.584 3.892-5.664 5.709-1.816 1.588-3.793 3.096-5.855 4.561-1.5 1.067-3.092 2.092-4.889 3.004-.102.051-.213.098-.305.156-2.027 1.284-4.648 2.203-7.191 3.168-.926.352-1.982.609-3.004.895a45.19 45.19 0 0 1-6.854 1.338c-.749.088-1.487.186-2.229.277-2.528.324-5.291.373-8.161.311-2.457-.053-5.015-.33-7.601-.64-2.329-.278-4.693-.716-7.078-1.224-.548-.115-1.098-.256-1.649-.394-.457-.112-.918-.255-1.374-.353-2.499-.537-4.929-1.375-7.369-2.176-.449-.149-.889-.328-1.329-.5-.441-.172-.869-.357-1.312-.523-4.651-1.744-8.943-3.809-13.013-6.071-.468-.259-.93-.522-1.404-.776a28.838 28.838 0 0 1-2.249-1.34 45.624 45.624 0 0 0-4.805-2.768c-2.203-1.105-4.332-2.26-6.323-3.489-2.206-1.363-4.37-2.744-6.297-4.208-.894-.68-1.809-1.355-2.704-2.037-.447-.34-.893-.684-1.294-1.031a94.077 94.077 0 0 0-2.506-2.08 31.497 31.497 0 0 1-3.097-2.87c-.387-.409-.729-.821-1.156-1.226-1.067-1.012-2.006-2.03-2.93-3.057a42.755 42.755 0 0 1-1.578-1.843c-.704-.872-1.425-1.743-2.124-2.616-1.441-1.797-2.612-3.592-3.931-5.387-.227-.307-.391-.613-.585-.92-.456-.717-.915-1.432-1.363-2.146-.289-.461-.579-.922-.837-1.379-1.174-2.087-2.369-4.176-3.497-6.259-1.018-1.88-1.803-3.737-2.613-5.597a95.588 95.588 0 0 1-2.209-5.547c-.654-1.792-1.251-3.575-1.658-5.33-.091-.389-.219-.783-.317-1.176a149.21 149.21 0 0 1-.542-2.194 99.116 99.116 0 0 1-.437-1.897c-.105-.485-.211-.971-.287-1.45a91.557 91.557 0 0 1-.775-6.283c-.044-.52-.096-1.04-.126-1.558-.079-1.313-.014-2.594-.046-3.896-.026-1.119.208-2.168.115-3.302a2.31 2.31 0 0 1 .068-.678 8.57 8.57 0 0 0 .218-2.025c-.01-.463.118-.893.224-1.328.222-.912.525-1.798.467-2.79-.02-.373.112-.712.22-1.052a480.23 480.23 0 0 1 1.451-4.594c.136-.425.27-.853.57-1.22.418-.516.645-1.098.858-1.687.274-.754.538-1.513 1.126-2.157a.666.666 0 0 0 .143-.233c.325-.98 1.111-1.785 1.623-2.695.265-.473.63-.911.983-1.351.736-.918 1.434-1.849 2.25-2.736 1.395-1.523 2.698-3.088 4.039-4.634.582-1.025 1.471-1.935 1.832-3.044.108-.34.307-.651.533-.949.339-.448.562-.936.738-1.444.426-1.221.841-2.448 1.279-3.667.152-.418.297-.843.558-1.222.425-.61.681-1.275.908-1.952.524-1.566 1.055-3.131 1.583-4.695.201-.592.458-1.162.84-1.693.271-.375.431-.794.599-1.208.284-.706.51-1.43 1.076-2.035a.742.742 0 0 0 .152-.23c.338-.783.857-1.496 1.334-2.225a17.155 17.155 0 0 1 1.841-2.318c1.19-1.267 2.426-2.514 4.013-3.596.481-.331.989-.648 1.502-.963.419-.257.862-.5 1.29-.754.57-.338 1.198-.641 1.906-.897.468-.172.914-.359 1.385-.529 2.536-.922 5.351-1.628 8.571-2.02.818-.1 1.643-.193 2.542-.212.326-.005.641-.022.955-.044 4.071-.263 8.513.126 13.21.971a41.61 41.61 0 0 1 3.84.856c.64.181 1.282.331 1.927.482 1.572.375 3.103.86 4.61 1.453.613.242 1.23.486 1.847.719 2.308.868 4.554 1.808 6.686 2.876.487.246.978.493 1.473.731 2.585 1.238 4.92 2.622 7.207 4.031.441.271.865.552 1.273.837a844.553 844.553 0 0 1 4.498 3.129 25.31 25.31 0 0 1 1.545 1.164c1.201.996 2.552 1.949 3.977 2.875 2.219 1.444 4.153 2.962 6.131 4.469 1.982 1.512 3.751 3.062 5.436 4.625 2.064 1.916 4.113 3.835 6.168 5.753.164.149.336.3.471.453 1.186 1.332 2.598 2.647 3.779 3.978.73.819 1.463 1.637 2.213 2.454 2.098 2.302 4.021 4.609 5.908 6.918a165.305 165.305 0 0 1 3.049 3.847c1.49 1.951 2.873 3.902 4.219 5.848.25.358.482.716.863 1.074.246.233.799.469 1.221.5.262.018.531.05.775.046 3.578-.075 7.277.002 10.895-.026 6.086-.048 12.248.006 18.334-.037 4.609-.031 9.277.017 13.875-.024 5.338-.05 10.766.011 16.102-.037 4.602-.04 9.258-.009 13.879-.02.99-.003 1.961-.031 2.953-.033.738-.003 1.494.008 2.252.028.338.011.703.076 1.078.175.744.194 1.375.69 1.326 1.059-.021.184-.115.338-.348.433-.225.09-.455.182-.729.237-.482.096-.982.179-1.5.245-1.713.217-3.225.593-4.658 1.029-3.807 1.149-7.576 2.327-11.406 3.458-3.266.963-6.459 1.983-9.729 2.945-2.203.646-4.346 1.335-6.557 1.973-2.721.783-5.34 1.64-8.059 2.425-2.148.622-4.223 1.294-6.373 1.916-2.785.801-5.465 1.677-8.246 2.479a389.858 389.858 0 0 0-6.176 1.866A76.116 76.116 0 0 1 155 82.373c-.461.115-.885.254-1.238.443-.928.496-1.34 1.189-1.32 2.05 0 .093.014.189.031.286.273 1.633.533 3.264 1.076 4.949.494 1.53.969 3.059 1.355 4.576a42.66 42.66 0 0 1 1.125 6.492c.145 1.469.258 2.928.277 4.369.014.928-.033 1.842-.051 2.762-.006.323.002.648-.014.969-.008.322-.006.647-.057.956a9.004 9.004 0 0 0-.131 1.634c.002.461-.094.901-.189 1.339-.127.612-.291 1.216-.234 1.882.047.521-.113.988-.248 1.459-.548 1.889-1.099 3.772-1.648 5.647m42.926-54.802l.615-.079-.014-.015-.615.082.014.012zm-77.285-28.399c-.154-.142-.307-.285-.463-.427.004-.137-.057-.193-.117-.142-.023.016.078.092.125.14l.469.428c.152.144.309.287.465.43.047.234.086.471.441.721.051.034.17.075.225.075.055-.001.113-.045.1-.077-.111-.258-.463-.487-.779-.718a27.573 27.573 0 0 1-.466-.43m31.352 52.342c-.002-.092.004-.183.004-.274.002-.467-.168-.961-.412-1.466-.125-.257-.369-.52-.777-.74a22.369 22.369 0 0 0-3.023-1.375c-.086-.032-.182-.044-.271-.071-.217-.063-.553.016-.568.118-.035.317.123.671.254 1.019.139.365.492.713 1.07 1.031 1.18.643 2.395 1.256 3.736 1.758h-.013zm58.697-28.329l-.004-.004a8.03 8.03 0 0 0-1.328-.148l-2.246-.018c-5.58-.044-11.055.045-16.609.027-4.314-.012-8.605.003-12.881.034-1.15.008-2.318-.003-3.479-.005-7.039-.008-14.012.071-21.078.027-.248 0-.498-.004-.742.003-2.91.084-5.939.022-8.912.028a47.65 47.65 0 0 1-1.506-.024 14.116 14.116 0 0 1-2.41-.308c-1.203-.251-2.381-.618-3.482-1.148-1.094-.528-2.02-1.124-2.781-1.786-.518-.45-.957-.909-1.326-1.372-.525-.669-1.006-1.335-1.354-1.998-.643-1.22-1.494-2.452-2.34-3.681-.49-.718-1.061-1.438-1.562-2.155-2.248-3.234-4.848-6.467-7.51-9.699a120.844 120.844 0 0 0-4.018-4.61c-.978-1.071-1.94-2.147-2.962-3.219-1.068-1.121-2.109-2.246-3.285-3.357a5.224 5.224 0 0 1-.431-.461c-.643-.771-1.462-1.529-2.275-2.285a631.727 631.727 0 0 0-2.783-2.572c-.934-.855-1.868-1.712-2.979-2.538-.389-.289-.727-.593-1.066-.893a41.18 41.18 0 0 0-2.184-1.776c-1.458-1.124-3.022-2.218-4.598-3.304-2.411-1.661-5.058-3.217-7.814-4.716-1.422-.773-2.911-1.487-4.435-2.18-1.355-.62-2.748-1.186-4.13-1.766A24.406 24.406 0 0 0 73.05 6.4c-1.445-.473-2.899-.927-4.352-1.382a16.768 16.768 0 0 0-1.098-.307c-2.292-.549-4.567-1.048-6.843-1.398-2.748-.421-5.307-.552-7.793-.554-1.155 0-2.297.025-3.354.141-2.338.257-4.613.566-6.583 1.137-1.265.367-2.53.732-3.641 1.202-1.943.825-3.646 1.785-5.142 2.863-2.475 1.791-4.299 3.868-5.78 6.095-.561.843-1.166 1.668-1.504 2.593a1.596 1.596 0 0 1-.297.462c-.404.474-.63 1.009-.82 1.557-.313.886-.621 1.771-.942 2.651-.121.336-.202.692-.432.985-.635.821-.896 1.768-1.208 2.699-.609 1.819-1.219 3.639-1.831 5.459-.158.463-.297.938-.628 1.34-.425.515-.63 1.104-.864 1.684-.185.457-.345.925-.636 1.338a10.107 10.107 0 0 0-.961 1.65 2.556 2.556 0 0 1-.287.466c-.971 1.31-1.99 2.601-3.146 3.833-1.287 1.374-2.531 2.766-3.614 4.225-.695.935-1.488 1.832-1.977 2.846a1.976 1.976 0 0 1-.312.456c-.384.434-.603.924-.82 1.416-.179.412-.348.828-.623 1.202a6.073 6.073 0 0 0-.81 1.56 116.94 116.94 0 0 0-2.664 8.425 6.247 6.247 0 0 0-.241 1.741c.007.464-.109.898-.182 1.341-.073.443-.246.864-.226 1.328.059 1.266-.312 2.42-.176 3.705-.137.613.045 1.307-.026 1.937-.097.856-.027 1.754.04 2.647.229 3.016.518 6.044 1.135 9.143.509 2.564 1.098 5.141 1.955 7.766.402 1.238.794 2.473 1.2 3.71.521 1.583 1.165 3.186 1.832 4.788.835 2.006 1.758 4.022 2.905 6.061.287.508.509 1.012.746 1.517.382.808.834 1.621 1.372 2.441.336.513.678 1.025.961 1.533 1.135 2.04 2.589 4.092 4.066 6.144a84.531 84.531 0 0 0 5.149 6.464c1.623 1.847 3.295 3.687 5.303 5.501 1.057.953 2.09 1.912 3.123 2.871a47.416 47.416 0 0 0 4.125 3.414c1.11.82 2.189 1.652 3.349 2.457a93.745 93.745 0 0 0 10.514 6.318c3.316 1.711 6.765 3.287 10.475 4.588.717.252 1.416.537 2.119.811a40.915 40.915 0 0 0 4.881 1.562c1.191.299 2.384.586 3.576.915.364.1.734.187 1.098.266 3.868.833 7.646 1.41 11.336 1.696 1.752.135 3.416.152 5.072.154 2.241.002 4.401-.08 6.383-.362 1.313-.187 2.641-.362 3.958-.547.73-.103 1.41-.248 2.077-.405 1.532-.365 2.948-.812 4.369-1.256 2.975-.93 5.566-2.099 7.95-3.394 2.334-1.267 4.43-2.663 6.389-4.128.92-.687 1.721-1.428 2.607-2.129a37.492 37.492 0 0 0 2.914-2.592c1.264-1.235 2.557-2.457 3.674-3.756.621-.721 1.236-1.445 1.865-2.164 1.285-1.473 2.381-3.023 3.438-4.59.59-.879 1.287-1.717 1.643-2.686.061-.166.191-.311.318-.455.34-.398.551-.846.729-1.305a6.98 6.98 0 0 1 .842-1.549c.268-.377.439-.793.598-1.211.361-.962.695-1.934 1.031-2.903a6.58 6.58 0 0 1 .701-1.458c.588-.883 1.141-2.63 1.168-3.692.014-.554.121-1.08.268-1.596.281-.987.561-1.975.826-2.968.094-.344.211-.687.199-1.057-.023-.843.176-1.621.275-2.428.135-1.076.186-2.174.262-3.266.061-.909-.051-1.863.012-2.772.096-1.461-.115-2.991-.197-4.489-.068-1.312-.301-2.66-.479-3.996-.059-.43-.15-.868-.266-1.307-.381-1.47-.725-2.93-1.24-4.42-.51-1.49-.871-2.954-1.23-4.418-.25-1.027-.354-2.022-.404-3.006-.027-.521.156-.973.533-1.363.73-.746 1.809-1.273 3.363-1.518.719-.112 1.443-.224 2.109-.38.869-.206 1.797-.354 2.732-.504.791-.123 1.602-.235 2.332-.406.939-.222 1.943-.38 2.951-.537.648-.101 1.328-.181 1.914-.33 1.119-.284 2.363-.457 3.586-.648.791-.126 1.598-.237 2.332-.408.939-.22 1.941-.379 2.951-.537.648-.101 1.326-.181 1.916-.329 1.119-.282 2.361-.456 3.586-.647.789-.125 1.598-.238 2.334-.409.934-.216 1.941-.377 2.947-.535.723-.113 1.459-.213 2.119-.374.996-.241 2.086-.399 3.164-.571.863-.135 1.746-.258 2.549-.439.945-.215 1.943-.378 2.953-.536.719-.114 1.455-.216 2.117-.375.93-.222 1.936-.38 2.945-.538.721-.113 1.461-.209 2.123-.372.996-.241 2.082-.403 3.162-.57.793-.123 1.621-.223 2.35-.396 1.135-.27 2.355-.461 3.588-.646.432-.065.891-.114 1.279-.218 1.303-.34 2.779-.534 4.209-.767.357-.055.685-.136 1.031-.207m-61.858 66.182c.021-.13.035-.22.047-.31.041-.296-.383-.75-.941-1.009-.17-.078-.332-.162-.506-.23a493.127 493.127 0 0 0-3.682-1.441c-.258-.1-.539-.168-.812-.242-.393-.104-.961-.049-1.076.104-.396.521-.648 1.091-.84 1.685-.037.126.266.463.518.586.082.039.15.088.234.125 1.523.686 3.086 1.328 4.648 1.965.539.218 1.193.24 1.404.056.454-.397.842-.821 1.006-1.289m-10.439 9.266c.336.13 1.037.403 1.746.667.264.1.539.174.811.254.273.082.801.064.934-.022.41-.263.703-.578.902-.933.127-.221-.137-.646-.58-.865-1.641-.803-3.285-1.602-4.93-2.401-.08-.039-.178-.064-.264-.096-.385-.129-.729-.165-1.027-.119-.141.02-.283.055-.365.114-.551.4-.926.879-1.232 1.385-.137.219.221.65.693.85.258.109.512.225.779.315.715.248 1.437.485 2.533.851m-1.256-5.327c-.133.373.156.795.812 1.148 1.422.765 2.9 1.484 4.402 2.186.086.038.18.062.268.1.52.213 1.205.245 1.402.053.311-.311.613-.623.889-.947.088-.105.115-.241.131-.375.033-.235-.121-.488-.516-.731a6.908 6.908 0 0 0-.938-.506c-1.207-.507-2.424-.997-3.641-1.492-.172-.069-.357-.122-.537-.184-.629-.212-1.258-.204-1.619.005-.344.196-.545.448-.653.743m6.067-9.879c-.139.428-.262.713-.209 1.049.041.257.455.674.912.858 1.293.521 2.594 1.04 3.896 1.55.254.098.539.168.809.22.375.072.699.058.887-.065.492-.322.816-.721.949-1.192.037-.126.012-.271-.113-.43a1.839 1.839 0 0 0-.762-.554c-1.547-.643-3.094-1.277-4.645-1.913-.17-.069-.355-.114-.533-.176-.27-.088-.768-.044-.846.083-.144.228-.281.462-.345.57m9.601-43.486c.605.192.785.252.971.306.771.231 1.443.281 2 .139.258-.066.51-.14.744-.225.111-.042.18-.116.258-.179.145-.117.008-.407-.258-.562-.15-.086-.285-.188-.451-.262-1.852-.841-3.709-1.676-5.566-2.512a5.137 5.137 0 0 0-.527-.205c-.369-.122-.736-.193-1.057-.174-.797.05-1.447.208-1.902.512-.119.077-.102.275.062.408.186.146.357.3.58.428 1.074.617 2.266 1.146 3.459 1.665.677.298 1.396.55 1.687.661m-6.025 52.81l.066-.137c.018-.041.041-.08.053-.123.078-.297-.09-.576-.68-.842a117.34 117.34 0 0 0-4.863-2.056c-.395-.156-.977-.196-1.229-.097-.703.285-.967.745-.91 1.324.025.249.299.5.678.732.145.089.299.18.465.252 1.355.592 2.711 1.186 4.107 1.725.26.1.531.189.795.281.309.105.756.076.889-.039.338-.297.416-.693.629-1.02M121.67 148.41c-.418-.133-.777-.248-1.137-.359-.387-.118-.736-.136-.994-.065-.521.138-.9.355-1.086.676-.104.18.135.544.471.714.082.04.15.09.234.127 1.828.852 3.736 1.621 5.611 2.426.082.033.176.061.264.094.41.157.984.204 1.238.106.578-.218 1.053-.49 1.324-.872.121-.172-.131-.545-.512-.697-.863-.35-1.732-.693-2.6-1.038-.954-.379-1.911-.754-2.813-1.112m11.109-5.178c.402.146 1.373.512 2.355.859.371.129.729.154.998.076.584-.176.881-.484.939-.898.029-.213-.271-.556-.645-.725-.168-.076-.33-.161-.5-.234a97.387 97.387 0 0 0-5.264-2.057c-.555-.201-1.064-.2-1.338.022a5.704 5.704 0 0 0-.646.608c-.09.105-.098.248-.121.379-.035.2.322.557.703.717.26.107.514.225.779.318.719.252 1.44.492 2.74.935m-31.171 16.206c-.015-.049-.006-.098-.049-.143-.138-.151-.272-.307-.452-.448-1.282-1.027-2.729-2.007-4.134-3a.922.922 0 0 0-.239-.12c-.173-.062-.375-.152-.526-.164a15.436 15.436 0 0 0-2.643.062c-.532.058-.503.369-.112.696.06.05.109.102.177.146 1.354.94 2.706 1.88 4.076 2.815.367.25.837.381 1.285.403.853.045 1.694.07 2.406-.056.146-.025.21-.096.211-.191m50.855-45.335c.016-.294.039-.563.043-.835.004-.174-.447-.582-.773-.717-.256-.106-.51-.215-.775-.313-.963-.36-1.93-.718-2.896-1.073-.174-.064-.359-.113-.535-.172-.363-.117-.947-.07-1.072.089-.348.44-.521.94-.404 1.521.051.253.346.514.791.711 1.008.449 2.02.896 3.086 1.271.352.125.717.217 1.08.312.379.097.947.036 1.057-.118.15-.226.271-.463.398-.676m.58-5.724c.014-.202.053-.422.041-.654-.01-.295-.262-.603-.744-.881a42.182 42.182 0 0 0-3.873-1.953c-.082-.036-.178-.059-.264-.09-.287-.109-.791-.1-.904.018-.029.034-.094.059-.115.096a2.628 2.628 0 0 0-.332 1.425c.006.136.084.294.18.444.129.207.357.416.697.576 1.084.502 2.193.98 3.342 1.406.088.031.18.058.271.088.641.215 1.326.17 1.49-.1.068-.116.129-.234.211-.375m-25.148 36.705c-.826-.307-1.436-.545-2.057-.764-.381-.134-.734-.146-.994-.072-.449.127-.721.351-.898.622-.074.12.104.457.318.579.15.088.293.184.461.26a83.047 83.047 0 0 0 5.645 2.393c.086.033.178.057.27.083.393.116.734.127.979.045.486-.163.77-.435.998-.73.125-.164-.146-.546-.514-.706-1.443-.634-2.9-1.251-4.208-1.71m25.052-43.522c-.016-.354.01-.625-.047-.91a3.789 3.789 0 0 0-.309-.883c-.094-.199-.312-.412-.641-.586a34.537 34.537 0 0 0-3.758-1.705c-.406-.158-.928-.078-.932.152-.008.547-.014 1.096-.018 1.645 0 .046.01.094.029.143.094.26.322.517.732.732 1.27.677 2.656 1.233 4.053 1.776.084.033.178.044.27.069.209.068.557.002.568-.11.024-.131.044-.262.053-.323m-54.245 53.854c.096.127.158.289.333.425a69.87 69.87 0 0 0 3.728 2.748c.207.14.435.278.673.403.417.223.866.361 1.313.363.836.004 1.577-.084 2.188-.291.211-.072.152-.354-.135-.535-1.377-.869-2.755-1.74-4.141-2.607-.292-.183-.603-.355-.913-.529-.608-.342-1.206-.477-1.792-.404-.375.045-.766.072-1.036.199-.1.046-.131.134-.218.228m10.215-1.939c-.391-.109-.737-.15-1.048-.115-.529.058-.996.161-1.382.329-.053.022-.082.062-.127.09-.112.069-.086.298.063.409.193.144.369.305.6.419 1.784.896 3.579 1.783 5.374 2.671.16.079.344.145.521.207.271.098.544.16.804.167.615.021 1.062-.091 1.371-.312.133-.095.051-.411-.152-.558-.201-.143-.389-.291-.617-.421a563.33 563.33 0 0 0-3.692-2.081 25.95 25.95 0 0 0-1.201-.617c-.159-.077-.351-.13-.514-.188m35.442-36.043c-.012.213-.037.434-.033.662.004.25.443.663.91.852 1.293.52 2.59 1.031 3.891 1.543.17.066.355.106.539.158.422.119.945.088 1.104-.061.33-.307.447-.678.336-1.122-.039-.151-.184-.306-.387-.444a6.079 6.079 0 0 0-.67-.392c-.691-.34-3.357-1.454-4.09-1.724-.486-.176-1.166-.15-1.307.055-.103.151-.189.307-.293.473m5.793 5.701c.025-.186.057-.361.066-.541.02-.318-.408-.77-.977-.996-1.299-.519-2.6-1.031-3.906-1.541-.17-.067-.361-.105-.541-.154-.406-.108-.932-.064-1.098.08a1.047 1.047 0 0 0-.371.981c.039.251.27.511.68.731.467.252.963.492 1.471.711.848.369 1.715.719 2.574 1.073.172.069.355.123.533.188.486.174 1.154.139 1.295-.073.102-.153.188-.309.274-.459m-31.261 32.659c0-.097-.059-.198-.195-.3-.129-.096-.25-.201-.402-.283-1.723-.941-3.438-1.891-5.268-2.762a6.823 6.823 0 0 0-.519-.217c-.377-.145-.731-.19-1.037-.149-.444.06-.787.192-1.077.36-.171.098-.129.375.096.541.129.098.241.203.392.288 1.708.95 3.422 1.897 5.139 2.843.152.084.336.156.512.223.369.141.732.211 1.027.15.484-.098.891-.251 1.195-.465.082-.056.092-.152.137-.229m17.463-16.47c-1.248-.396-2.061-.662-2.877-.906a9.941 9.941 0 0 0-1.086-.237c-.377-.067-.686-.026-.91.067a.91.91 0 0 0-.514.508c-.062.166.129.434.412.574.824.404 1.682.765 2.561 1.104.967.373 1.93.746 2.896 1.117.176.067.361.12.537.179.381.13 1.008.14 1.197.025.424-.259.678-.588.811-.968.047-.133-.238-.453-.527-.572-.258-.107-.51-.228-.777-.318-.716-.245-1.438-.479-1.723-.573m18.392-64.233c.068.101.09.217.211.299a56.406 56.406 0 0 0 4.471 2.657c.377.202.963.31 1.293.258a5.611 5.611 0 0 0 1.65-.512c.236-.114.197-.474-.1-.661a40.762 40.762 0 0 0-3.9-2.207 4.598 4.598 0 0 0-.521-.208 2.417 2.417 0 0 0-.799-.158c-.834 0-1.553.104-2.143.318-.107.039-.111.142-.162.214m-11.133 2.908c-.014.209-.057.43-.035.663.025.247.27.5.646.738.145.09.289.184.449.265 1.369.696 2.74 1.39 4.115 2.083.418.211.959.271 1.229.16.4-.159.705-.366.977-.592.227-.189-.012-.583-.508-.832-.16-.082-.311-.17-.48-.244-1.785-.783-3.531-1.595-5.168-2.498-.074-.04-.178-.062-.264-.097-.184-.074-.609-.07-.682.013-.089.107-.177.217-.279.341m-56.251 77.759c-.054.137.046.291.249.436 1.129.803 2.265 1.604 3.409 2.4.199.139.441.269.678.391.411.209.856.357 1.317.43.72.111 1.407.168 2.065.164.406-.002.501-.28.161-.539-.191-.145-.372-.293-.572-.434-.871-.609-1.746-1.223-2.622-1.83-1.508-1.051-1.8-1.115-3.639-1.156a5.746 5.746 0 0 0-.724.012c-.137.013-.218.082-.322.126m61.656-54.05c-.451-.157-.715-.25-.98-.345-.295-.104-.748-.025-.785.123-.09.348.004.736.076 1.12.045.251.281.507.664.74 1.258.766 2.625 1.465 4.045 2.127.082.039.178.063.264.101.328.137.811.098.805-.072-.016-.508-.016-1.014-.059-1.528-.021-.249-.297-.503-.678-.737a4.438 4.438 0 0 0-.475-.25c-1.018-.454-2.03-.903-2.877-1.279m-21.268 47.985c.824.273 1.711.408 2.104-.107.105-.139.002-.404-.256-.561-.217-.133-.432-.281-.68-.386a846.892 846.892 0 0 0-5.371-2.274 2.776 2.776 0 0 0-.535-.16c-.174-.033-.373-.062-.508-.047-.615.08-.977.299-.969.695.004.195.225.407.525.584.297.173.627.345.971.472 1.406.521 2.807 1.046 4.184 1.612.168.071.355.115.535.172m-9.992.375c-.182-.049-.363-.109-.541-.146-.385-.077-.709-.07-.883.062-.166.132-.143.325.068.54.148.148.326.301.535.438a43.39 43.39 0 0 0 3.375 1.975c.475.25.975.48 1.475.713.555.258 1.328.327 1.701.154.266-.121.51-.258.592-.469.07-.176-.021-.369-.303-.574a2.433 2.433 0 0 0-.418-.273c-1.725-.835-3.535-1.574-5.334-2.327-.087-.036-.177-.061-.267-.093m11.279-7.132l-.877-.248c-.834-.235-1.602-.084-1.688.334-.018.096.189.364.348.443.244.123.48.251.736.365 1.609.724 3.311 1.338 4.961 2.018.168.07.361.111.543.16.385.106.74.127 1.004.061.471-.124.715-.359.688-.708-.006-.102-.094-.206-.252-.298-.15-.088-.303-.188-.471-.248-1.154-.429-2.307-.86-3.441-1.32-.52-.212-1.068-.388-1.551-.559m33.551-69.092c-.205-.036-.492-.116-.74-.126-.777-.033-1.416.072-1.965.257-.209.07-.188.366.068.518.895.534 1.793 1.069 2.703 1.597.373.22.777.429 1.184.63.445.219.9.295 1.301.258a3.951 3.951 0 0 0 1.502-.432c.049-.025.072-.066.115-.098.105-.078.037-.301-.135-.421-1.09-.766-2.406-1.407-3.701-2.057-.08-.043-.176-.068-.332-.126m-17.233 40.72c-.043.129-.062.168-.068.213-.037.396.352.834 1.057 1.137 1.111.48 2.225.951 3.354 1.408a6.03 6.03 0 0 0 1.078.313c.363.073.686.06.885-.071a.581.581 0 0 0 .268-.462c.027-.294-.203-.585-.688-.874a7.614 7.614 0 0 0-1.232-.589c-.887-.328-1.771-.65-2.658-.97a17.71 17.71 0 0 0-1.072-.357c-.285-.083-.539-.067-.682.019-.14.083-.21.2-.242.233m-34.105 43.594c-.117-.125-.216-.286-.406-.417a6.996 6.996 0 0 0-.917-.519c-1.478-.721-2.964-1.432-4.451-2.145-.248-.119-.497-.24-.759-.34-.46-.176-.903-.252-1.289-.191-.277.046-.354.309-.139.463.064.047.103.104.177.146 1.148.654 2.224 1.343 3.306 2.027.648.409 1.303.822 2.044 1.185a2.58 2.58 0 0 0 1.303.283c.396-.026.745-.089.969-.243.082-.055.099-.147.162-.249m35.379-67.127c-.082.441-.037.908.236 1.424.17.317.492.62.988.877.801.416 1.639.807 2.521 1.146.172.066.361.107.539.16.307.087.738-.004.766-.147.084-.354-.016-.743-.23-1.149-.133-.256-.404-.514-.787-.743-.977-.583-2.055-1.095-3.158-1.585-.346-.155-.826-.141-.875.017m25.469-16.881c.604.209 1.301.314 1.885.189.402-.086.758-.21 1.133-.322.061-.019.098-.052.15-.076.27-.126.18-.427-.174-.66-.713-.473-1.527-.87-2.4-1.217a2.418 2.418 0 0 0-.795-.164c-1.002-.007-1.867.113-2.484.439-.178.093-.094.369.156.545.677.486 1.452.899 2.529 1.266m-4.92-1.225c-.18-.032-.375-.088-.535-.095a4.728 4.728 0 0 0-1.742.237c-.293.097-.297.418-.002.634.133.097.246.199.391.288.717.464 1.486.896 2.309 1.302.863.425 1.49.524 2.217.318.252-.072.494-.151.73-.237.113-.042.195-.107.295-.159.125-.065.072-.312-.094-.411a71.538 71.538 0 0 0-3.303-1.776c-.077-.041-.174-.069-.266-.101M82.42 155.498c.038.098.04.195.117.293.413.515 1.05 1.004 1.578 1.506.769.736 1.802 1.183 3.095 1.367.355.053.712.098 1.067.142.319.042.531-.192.344-.369-.053-.049-.075-.104-.137-.151a48.956 48.956 0 0 0-3.23-2.266 4.36 4.36 0 0 0-2.549-.682c-.165.009-.248.073-.285.16m67.328-68.367c-.045-.178-.082-.461-.193-.757-.113-.302-.418-.607-.887-.88-.98-.571-2.047-1.078-3.146-1.559-.082-.035-.18-.047-.268-.076-.217-.073-.541 0-.553.115-.057.45.133.939.455 1.449.129.208.385.41.703.574.961.488 1.949.957 3.004 1.358.641.247.889.147.885-.224m-2.021 7.36c-.225-.055-.537.015-.58.112-.104.248-.025.537.07.83.102.311.41.604.926.859a32.065 32.065 0 0 0 3.279 1.434c.09.033.176.064.268.095.361.122.762.098.754-.104a3.476 3.476 0 0 0-.102-.706c-.078-.305-.377-.598-.869-.87-1.082-.601-2.275-1.101-3.479-1.589-.08-.032-.178-.041-.267-.061m10.517-15.539c.094-.091.027-.298-.143-.417-.273-.188-.533-.383-.838-.555-1.227-.696-2.469-1.385-3.707-2.074a3.115 3.115 0 0 0-.496-.233c-.266-.084-.555-.172-.807-.199-.543-.058-.973.008-1.275.181-.113.063-.055.307.104.412.141.094.262.196.422.274.568.283 1.143.566 1.73.832 1.264.569 2.537 1.133 3.816 1.691.252.109.537.164.801.178.182.008.313-.023.393-.09m-8.781 31.64c.002-.002.004-.002.002-.005.701.261 1.4.524 2.104.78.381.141.895.077 1.02-.113.162-.242-.053-.605-.488-.84-.156-.084-.303-.174-.467-.252-1.225-.597-2.525-1.11-3.832-1.615-.395-.151-.949-.128-1.088.045-.115.146-.18.309-.131.508.064.266.334.518.783.703.685.281 1.396.527 2.097.789m30.467-38.196c-.07-.1-.111-.204-.221-.294-.373-.301-.896-.518-1.385-.756-.619-.305-1.221-.424-1.797-.37-.604.057-1.186.129-1.625.32-.256.112-.246.415.051.644.129.097.252.201.402.28.391.208.797.41 1.205.602.543.254 1.064.333 1.537.274.664-.083 1.217-.249 1.678-.481.094-.049.108-.145.155-.219m-31.981 11.555c.295.104.385.133.473.166.197.075.598.084.699.012.398-.275.176-.85-.504-1.224a50.73 50.73 0 0 0-4.115-2.054c-.234-.104-.596-.073-.602.057-.006.137-.021.27.01.412.119.521.621 1.008 1.498 1.436.899.438 1.819.857 2.541 1.195m-33.207 67.072c-.088-.018-.18-.039-.266-.048-.488-.052-.873.206-.697.486a.818.818 0 0 0 .291.292c.768.425 1.555.838 2.34 1.254.945.497 1.889.994 2.846 1.484.232.12.502.217.77.311a1.9 1.9 0 0 0 .771.113c.322-.021.385-.273.104-.443-.291-.178-.564-.368-.881-.525-1.463-.725-2.797-1.515-4.105-2.322a10.968 10.968 0 0 0-.664-.395c-.155-.08-.339-.138-.509-.207m-35.368 3.915c-.137-.045-.227-.077-.315-.1a10.104 10.104 0 0 0-1.609-.289c-.354-.032-.524.168-.299.367.786.697 1.69 1.361 2.723 1.987.458.278.996.446 1.556.52.304.04.578-.155.45-.326-.037-.05-.046-.103-.091-.151a14.078 14.078 0 0 0-1.791-1.635c-.18-.142-.438-.264-.624-.373m100.513-84.301c.053.099.059.204.16.29.17.143.381.287.611.407.746.399 1.395.521 1.984.403.477-.097.914-.217 1.25-.409.047-.026.068-.064.109-.095.104-.074.016-.307-.141-.417a5.68 5.68 0 0 0-.936-.488c-.449-.196-.889-.282-1.293-.259-.627.036-1.168.14-1.557.361-.09.054-.125.139-.187.207M74.75 155.439c.021.007.203.057.382.097.194.046.353.043.437-.017.089-.061.077-.16-.06-.266a50.282 50.282 0 0 0-1.522-1.142 3.485 3.485 0 0 0-.7-.366 4.583 4.583 0 0 0-1.585-.334c-.228-.006-.387.155-.241.279.229.193.455.389.707.579.521.392 1.162.707 1.892.951.176.059.356.114.69.219m56.398-102.792c-.182-.07-.354-.096-.498-.064-.291.061-.424.202-.383.403.084.438.381.897.779 1.359.086.098.232.201.381.288.234.137.506.208.764.204.242-.005.432-.13.398-.246-.014-.046.004-.091-.023-.142-.326-.555-.615-1.113-1.195-1.673-.045-.048-.146-.087-.223-.129m55.668 16.675c-.164-.017-.451-.081-.66-.063-.609.049-1.139.167-1.488.409-.09.063-.066.17.059.272.451.367 1.182.609 1.697.577.465-.031.857-.115 1.154-.277.356-.199.004-.68-.762-.918m-53.283-12.999c-.166-.007-.35-.034-.488-.013-.303.043-.432.182-.42.377.018.235.164.484.365.742.205.258.756.463 1.156.426.316-.029.533-.125.564-.307.053-.326-.17-.669-.676-1.02a1.32 1.32 0 0 0-.501-.205m-7.894-10.275c-.08-.008-.176-.032-.236-.022-.143.021-.223.09-.184.191.213.546.662 1.094 1.229 1.641.051.046.131.092.209.132a.845.845 0 0 0 .49.115c.068-.008.145-.027.16-.062.029-.08.074-.165.025-.257-.299-.551-.781-1.098-1.453-1.633-.053-.04-.158-.069-.24-.105m4.086 4.816c-.088-.284-.219-.668-.844-1.055-.123-.075-.336-.133-.5-.168-.238-.047-.439.079-.406.207.082.34.348.684.744 1.029.152.135.529.266.711.242.146-.02.236-.073.295-.255m59.334 18.125c.041.117.143.212.314.295.256.122.523.179.754.16a2.95 2.95 0 0 0 1.256-.377c.102-.057.113-.144.02-.245a.747.747 0 0 0-.455-.2c-.781-.065-1.408.018-1.852.265-.043.023-.03.076-.037.102m-52.381-8.638c.021-.039.07-.071.062-.115-.053-.29-.248-.583-.721-.859a1.398 1.398 0 0 0-.746-.187c-.248.008-.402.115-.365.246.102.357.871.826 1.564.945.075.012.133-.019.206-.03m-12.705-16.157c.102-.053.135-.135.059-.244a11.001 11.001 0 0 0-1.463-1.673c-.129-.117-.328-.173-.457-.135-.121.039-.115.138-.037.248.389.561.869 1.119 1.436 1.675a.527.527 0 0 0 .462.129M68.124 152.779c-.01-.047.005-.094-.034-.139-.183-.205-.457-.385-.803-.53a13.219 13.219 0 0 0-1.833-.61c-.081-.021-.227-.034-.238-.014-.036.088.07.181.247.274.698.372 1.473.671 2.22.996.073.032.18.056.255.061.073.004.126-.024.186-.038m125.448-84.764c.008.043-.012.09.027.13.043.04.16.099.219.104.164.01.32.002.471-.012.172-.016.246-.091.141-.194-.107-.105-.303-.146-.473-.117-.133.022-.258.059-.385.089"/><path fill="#FFB547" d="M26.994 81.135c-.539-.062-.896-.371-1.217-.772-.322-.402-.371-.622-.116-1.086.282-.513.732-.78 1.291-.814.634-.04 1.274-.008 1.842-.008.279-.207.531-.415.803-.585.896-.562 1.629-1.297 2.303-2.102.82-.977 1.637-1.956 2.463-2.928 1.007-1.185 1.971-2.399 2.74-3.76.212-.375.495-.712.705-1.007-.239-.744-.558-1.461-.693-2.211-.215-1.194-.074-2.402.191-3.583.145-.65.352-1.285.554-1.92.148-.463.585-.801.987-.806.075-.001.198.006.218.048.124.25.344.172.539.18 1.173.045 2.183.387 2.962 1.355.8.995 1.41 2.067 1.489 3.347.047.75-.084 1.509-.511 2.188-.595.945-.57.782.21 1.367 1.108.832 2.238 1.668 3.457 2.321 1.212.649 2.545 1.08 3.827 1.596.797.322 1.604.616 2.4.942.22.091.328.04.484-.13.284-.31.612-.575.921-.859.278-.256.578-.085.851-.015.265.069.35.333.327.579-.027.3-.109.594-.174.937.256.32.691.301 1.144.402-.032-.418-.057-.813-.096-1.206-.219-2.166-.442-4.33-.662-6.495-.195-1.925-.417-3.847-.573-5.774a114.682 114.682 0 0 1-.316-5.466c-.064-1.891-.049-3.787-.07-5.68-.001-.11.007-.225-.024-.327-.108-.368-.017-.616.462-.685l-.293-.833c.33-.366.73-.278 1.183-.193.589.108 1.2.085 1.801.12.354.021.708.056 1.062.057.215 0 .431-.065.647-.079 1.395-.088 2.789-.191 4.185-.248 1.585-.063 3.176-.059 4.761-.131 1.716-.078 3.431-.228 5.148-.316 1.463-.075 2.928-.124 4.395-.152 2.388-.046 4.777-.066 7.166-.1 1.418-.019 2.838-.049 4.258-.056.905-.005 1.811.034 2.716.038 2.175.012 4.35-.008 6.524.032 1.261.022 2.514-.116 3.774-.098 1.288.02 2.578.028 3.864-.006 1.253-.033 2.504-.131 3.754-.192 1.07-.05 2.141-.085 3.21-.135.443-.021.648.365.977.542.033.017.049.117.033.166-.361 1.125-.102 2.266-.096 3.401.002.92-.047 1.844.004 2.76.061 1.114.213 2.222.307 3.334.143 1.705.273 3.411.4 5.119.086 1.153.166 2.306.234 3.459.037.653.041 1.307.068 1.96.039 1.043.115 2.086.119 3.13.006.94-.08 1.882-.092 2.824-.014.938.023 1.877.029 2.817.006 1.421-.01 2.842.018 4.262.01.48.131.957.176 1.438.023.278.168.619-.291.737-.188.047-.35.188-.527.283-.197.107-.396.281-.58-.029-.021-.037-.135-.039-.199-.029-.559.092-1.113.223-1.675.282a90.075 90.075 0 0 1-3.95.356c-1.783.111-3.569.164-5.352.252-1.882.092-3.763.207-5.645.29-1.419.064-2.842.107-4.263.14-1.46.031-2.921.045-4.381.051-.532.002-1.064-.062-1.597-.064-.709-.005-1.42.035-2.129.035-2.549.008-5.098.002-7.648.011-.866.003-1.733.024-2.6.053-1.595.054-3.19.119-4.785.181-1.277.049-2.558.086-3.834.156-.735.04-1.473.234-2.199.187-1.174-.077-2.311.179-3.463.265-.948.07-1.884.324-2.825.489-.067.011-.193-.009-.209-.051-.119-.271-.29-.549-.307-.832-.099-1.759-.159-3.521-.237-5.283-.014-.302-.047-.602-.073-.915-.611.294-1.217.087-1.812.108-.266.009-.538-.036-.802-.081-.062-.009-.125-.112-.153-.186-.116-.322-.385-.397-.601-.218-.498-.302-.958-.629-1.458-.872-.575-.278-1.187-.48-1.78-.718-1.015-.409-2.027-.823-3.042-1.23-.716-.288-1.442-.556-2.153-.859-.374-.161-.725-.377-1.143-.602.104.443.222.847.291 1.257.084.502.113 1.011.186 1.515.161 1.092.323 2.182.509 3.27.046.269.094.571.434.681.05.017.072.161.081.248.098 1.198.196 2.397.281 3.597.107 1.5.196 3.002.309 4.502.104 1.382.234 2.762.34 4.145.047.613.047 1.232.099 1.846.137 1.688-.164 3.352-.228 5.027-.042 1.047-.048 2.096-.068 3.145-.002.107.002.221.021.328.125.698.163.658.863.736 1.015.114 2.021.329 3.028.516.174.031.335.133.527.216-.057.162-.121.339-.2.566 1.136-.077 2.249-.156 3.361-.228.716-.047 1.432-.069 2.148-.127.313-.026.558.007.75.303.074.115.052.111-.006.204-.29.474-.675.718-1.255.738-1.326.052-2.648.157-3.973.24-.948.061-1.899.093-2.842.194-1.403.148-2.8.356-4.201.525-.387.046-.776.06-1.164.066-1.778.027-3.556.031-5.333.08-1.225.033-2.451.123-3.675.19-.897.05-1.796.092-2.69.163-.642.051-1.279.152-1.918.219-.168.018-.342 0-.511-.021-.294-.039-.501-.16-.562-.501-.033-.197-.174-.38-.252-.539.239-.509.656-.212 1.042-.224.763-.021 1.525-.123 2.284-.202.36-.038.718-.098 1.08-.148-.179-.618.009-1.243.585-1.524.704-.344 1.46-.582 2.199-.854.318-.117.662-.173.961-.32.119-.057.209-.287.214-.439.02-.84.017-1.682.003-2.522-.014-.839-.075-1.676-.07-2.513.01-1.102.068-2.201.101-3.301.018-.556-.002-1.113.044-1.666.124-1.506.294-3.006.407-4.514.06-.763.032-1.533.046-2.3.011-.657.058-1.315.03-1.972-.017-.427.102-.906-.222-1.201.064-.348.155-.643.17-.944.063-1.2.114-2.403.145-3.605.021-.857.002-1.716.002-2.572 0 .001-.063.011-.096.048-.634.709-1.483 1.15-2.188 1.768-.271.238-.473.55-.728.808-.296.301-.612.582-.923.867-.533.493-1.051 1.005-1.609 1.472-.88.739-1.786 1.448-2.68 2.17-.55.445-1.086.909-1.652 1.336-.759.573-1.047.59-1.698-.053-.054-.051-.096-.109-.147-.163-.464-.479-.384-.991.153-1.395.336-.254.606-.597.905-.898a1.155 1.155 0 0 1-.045-.11m86.453-34.031c-.371.026-.702.065-1.034.073-.655.015-1.312-.006-1.968.025-1.005.043-2.006.138-3.01.175-.933.038-1.871.029-2.805.039-.693.006-1.387.002-2.079.012-.787.012-1.573.033-2.359.053-1.444.039-2.887.108-4.331.11-1.184 0-2.366-.116-3.548-.117-2.507-.004-5.016.028-7.524.053-1.611.018-3.224.037-4.835.079-1.901.048-3.805.103-5.703.189-1.089.049-2.173.185-3.262.251-1.027.063-2.057.087-3.086.125-1.774.066-3.545.122-5.318.196-1.338.057-2.674.146-4.013.201-.623.026-1.249.005-1.825.005.021.308.049.619.059.929.055 1.616.099 3.232.163 4.847.056 1.363.117 2.725.208 4.085.105 1.596.228 3.189.374 4.782.13 1.427.301 2.849.454 4.274l.366 3.405c.096.896.207 1.788.284 2.684.079.909.066 1.828.193 2.727.253 1.812.317 3.633.347 5.459.007.526.044 1.053.064 1.526 1.451-.118 2.865-.251 4.283-.345a261.71 261.71 0 0 1 5.238-.295c2.446-.113 4.892-.223 7.338-.297 1.827-.057 3.656-.083 5.486-.075 2.58.011 5.16.084 7.739.093 1.642.004 3.283-.057 4.924-.093 1.448-.034 2.895-.058 4.342-.118 1.554-.064 3.108-.179 4.663-.252 1.813-.086 3.629-.109 5.439-.238 1.918-.137 3.83-.365 5.673-.545 0-.994-.002-2.058 0-3.121 0-1.864-.002-3.727.004-5.59.006-1.45.047-2.9.031-4.349a144.711 144.711 0 0 0-.121-4.75 153.3 153.3 0 0 0-.273-4.336c-.086-1.201-.209-2.398-.303-3.599-.1-1.248-.227-2.495-.264-3.745-.046-1.491-.011-2.987-.011-4.532M44.625 84.006c-.37.138-.691.264-1.016.378-1.456.509-2.912 1.009-4.365 1.526-.094.034-.207.17-.216.266a430.917 430.917 0 0 0-.377 5.092c-.086 1.285-.203 2.573-.212 3.861-.015 1.699.041 3.398.108 5.098.049 1.207-.052 2.373-.627 3.461-.111.208-.225.412-.337.617l-.051-.135c-.231-.012-.469-.064-.691-.026-.278.046-.546.161-.815.258-.228.081-.449.181-.632.255l5.921-.318c-.006-.096.001-.242-.027-.383-.336-1.719-.401-3.457-.363-5.201.019-.834.082-1.668.13-2.5.078-1.388.163-2.775.24-4.162.073-1.312.141-2.625.207-3.938.005-.098-.033-.197-.04-.241.043-.072.08-.153.134-.22.222-.284.519-.173.753-.069.126.058.238.296.242.456.022.902.037 1.809.005 2.713-.078 2.252-.212 4.502-.264 6.754-.035 1.417-.125 2.844.204 4.25.107.457.026.96.146 1.412.108.402.285.759-.137 1.154.271.023.459.041.647.059 1.019.088 2.04.164 3.057.269.879.091 1.755.201 2.637.03.129-.028.257-.08.384-.12l-.001-.146c-.424-.053-.846-.12-1.272-.154-.721-.058-1.444-.084-2.164-.146-.392-.033-.628-.267-.656-.664-.059-.833-.136-1.673-.119-2.508.025-1.188.164-2.373.188-3.562a91.11 91.11 0 0 0-.015-4.497c-.031-1.031-.166-2.057-.233-3.086-.068-1.02-.1-2.039-.165-3.057-.058-.934-.139-1.864-.208-2.776m-16.339-4.044c-.025.056-.069.11-.069.165-.005.121.047.251.015.361-.163.569-.343 1.133-.517 1.7.054-.033.117-.068.174-.111.538-.412 1.072-.828 1.61-1.24.172-.132.365-.236.528-.379.776-.672 1.548-1.346 2.311-2.031.864-.776 1.716-1.566 2.576-2.348.394-.357.763-.753 1.195-1.054.772-.535 1.509-1.073 1.862-2 .087-.232.292-.506.507-.581.236-.081.542.046.767.077-.047.581-.102 1.093-.126 1.608-.057 1.239-.121 2.479-.138 3.719-.017 1.072.027 2.143.042 3.214.005.349-.008.698 0 1.046.016.625.044 1.25.057 1.875.005.209-.017.418-.029.674.488-.176.911-.33 1.333-.481 1.31-.464 2.618-.933 3.932-1.384.226-.078.263-.189.236-.403-.094-.727-.06-1.442-.385-2.17-.343-.765-.407-1.665-.523-2.517-.138-1.023-.186-2.059-.301-3.084-.089-.77-.236-1.532-.336-2.301-.032-.241-.067-.527.027-.733.252-.544.713-.641 1.212-.3.862.59 1.758 1.117 2.735 1.494.441.168.896.301 1.331.483.694.291 1.375.612 2.064.917.766.337 1.537.659 2.296 1.009.405.187.786.432 1.187.627.306.149.661.212.939.397.579.381 1.188.38 1.817.239.088-.021.21-.14.217-.226.077-.673-.173-1.003-.829-1.135-.023-.004-.053.006-.073-.005-.335-.18-.717-.31-.993-.559-.217-.199-.301-.542-.479-.886-.176.3-.308.555-.472.786-.054.076-.214.148-.293.122a38.31 38.31 0 0 1-2.048-.753c-1.236-.504-2.444-1.073-3.692-1.54-2.158-.805-3.9-2.203-5.553-3.757-.59.457-1.137.986-1.948 1.034-.817.047-1.417-.365-1.927-.884-.267.429-.502.851-.779 1.243-.934 1.313-1.854 2.636-2.832 3.914-.793 1.035-1.653 2.022-2.506 3.012a28.907 28.907 0 0 1-1.771 1.9c-.357.348-.807.604-1.237.918-.14-.177-.277-.352-.43-.543-.059.297-.111.563-.165.824-.513-.09-.966-.169-1.417-.25l-.015.092c.314.069.626.14.913.205m10.413-18.877c-.371 1.072-.437 2.11-.467 3.147-.026.903.158 1.763.704 2.508.234.322.455.684.768.909.398.289.836.534 1.401.218 1.258-.703 1.833-1.867 1.572-3.293-.116-.632-.39-1.242-.647-1.839-.461-1.07-1.308-1.617-2.472-1.637-.207-.002-.417.104-.625.159 0 .039-.002.078-.004.118a35.883 35.883 0 0 1-.23-.29"/><path fill="#FFF" d="M86.948 104.217c2.034 1.561 2.747 3.709 3.096 6.041 1.116-2.336 1.84-4.908 3.453-6.971-.264-.654-.621-1.278-.765-1.949-.214-.986-.148-2.007.082-2.997.217-.929.451-1.853.704-2.771.234-.847 1.101-1.464 2.05-1.506 1.312-.058 1.736.37 2.254 1.552.565 1.296.647 2.677.461 4.078-.15 1.139-.411 2.241-.973 3.254-.156.282-.361.541-.557.828.906.757 1.346 1.834 1.8 2.884.454 1.052.82 2.142 1.229 3.225.616-2.528 1.547-4.943 3.448-6.812-.21-.569-.508-1.129-.611-1.722a19.55 19.55 0 0 1-.284-2.885c-.021-.871.083-1.752.501-2.542.182-.346.386-.794.7-.938.79-.36 1.678-.569 2.519-.215.643.273 1.099.826 1.387 1.484.324.736.553 1.49.628 2.299.15 1.605-.098 3.127-.889 4.535-.159.282-.447.494-.688.75.497.6.942 1.234 1.133 2.02.181.754.394 1.503.603 2.285 1.096-1.982 2.214-3.957 3.8-5.609-.821-.887-.968-1.99-.97-3.128-.001-1.12.109-2.235.498-3.292.32-.873.787-1.666 1.549-2.242.066-.052.139-.117.215-.133.385-.069.67-.25.885-.598.158-.258.744-.245 1.18.01.641.371 1.039.956 1.299 1.631.576 1.49.881 3.031.654 4.626-.17 1.222-.541 2.387-1.395 3.307 2.223 1.923 2.896 4.526 3.285 7.237 1.336-.094 2.664-.205 3.996-.274 1.043-.054 2.094-.027 3.135-.103.361-.027.68.012 1.008.128.221.081.311.135.092.362-.236.246-.395.564-.598.843a.278.278 0 0 1-.199.104c-.701.01-1.404.018-2.107.006-1.59-.022-3.17.094-4.748.295-.852.108-1.715.122-2.574.174-1.559.096-3.119.197-4.681.279-1.32.07-2.643.107-3.962.176-.586.029-.596.061-.712.644-.043.22-.114.434-.217.671-.213-.402-.98-.402-.718-1.15-.595.043-1.155.092-1.718.117-.851.038-1.702.058-2.552.084-.642.02-1.285.045-1.928.055-.31.004-.286.24-.334.43-.047.18-.086.361-.146.616-.365-.335-.667-.61-1.012-.925-2.852-.076-5.758.633-8.666.27-.092.32-.159.545-.235.812-.257-.197-.474-.385-.713-.541a.714.714 0 0 0-.39-.126c-1.466.061-2.935.122-4.401.206-1.513.084-3.025.195-4.537.291-1.175.073-2.352.125-3.525.214-.507.038-1.007.165-1.516.218-.652.068-1.308.086-1.963.15-.965.094-1.928.213-2.894.316-.397.043-.797.059-1.194.105-.479.056-.956.135-1.435.191-.086.01-.261-.043-.259-.062.016-.36-.287-.362-.501-.46-.05-.021-.104-.033-.161-.051.459-.687 1.151-.752 1.859-.812 1.064-.092 2.128-.211 3.19-.334.081-.01.213-.125.219-.199.11-1.3.509-2.536.864-3.777a15.602 15.602 0 0 1 2.158-4.615c.124-.178.274-.336.412-.501-.59-.95-.841-1.946-.781-3.088.051-1.014.184-1.985.483-2.95.074-.236.082-.502.076-.754-.017-.619.347-1.047.815-1.289.967-.498 1.964-.461 2.905.143a.877.877 0 0 1 .252.252c.621.939 1.031 1.939.974 3.1-.057 1.176-.103 2.352-.484 3.476-.174.507-.441.985-.673 1.496 1.926 1.231 2.517 3.215 2.693 5.468.151-.534.271-1.028.429-1.509.158-.482.324-.966.537-1.428a39.01 39.01 0 0 1 1.085-2.176c.102-.19.314-.319.48-.481-1.017-.541-1.289-1.537-1.38-2.613-.109-1.291.064-2.56.395-3.809a32.11 32.11 0 0 1 .622-2.145c.103-.301.328-.562.51-.832.051-.076.146-.158.229-.168.754-.085 1.458-.486 2.25-.335.649.122.988.58 1.251 1.118.866 1.767.801 3.623.479 5.492-.087.51-.238 1.011-.399 1.505-.253.792-.666 1.491-1.366 1.964m31.056 5.918c-.025-.426-.014-.791-.07-1.145a10.876 10.876 0 0 0-1.596-4.227c-.389-.605-.893-1.059-1.646-1.029-.303.013-.531.215-.828-.152-.193-.24-.67-.25-.94-.338-.021.129-.045.376-.064.376-.568-.022-.812.429-1.1.772-1.367 1.645-2.325 3.537-3.295 5.422-.122.234-.188.496-.295.788l9.834-.467m-44.725 2.601l7.723-.709c-.451-.156-.301-.518-.28-.818.027-.373.109-.743.123-1.119a6.53 6.53 0 0 0-.938-3.65c-.298-.498-.625-.981-1.257-1.137-.146-.036-.25-.21-.39-.297a1.41 1.41 0 0 0-.42-.195c-.373-.095-.751-.156-1.125-.248-.13-.031-.249-.117-.395-.186.054.188.097.338.153.541-.468-.154-.654.138-.787.393-.49.928-1.032 1.844-1.39 2.824-.442 1.213-.731 2.481-1.06 3.732-.044.172.064.386.103.578l.112-.014-.172.305m25.477-1.593c-.014-.223-.004-.383-.036-.536-.402-1.888-1.083-3.665-2.104-5.306-.374-.602-.787-.723-1.473-.473-.042-.343-.281-.404-.571-.391-.061.005-.14.029-.179 0-.374-.268-.58.078-.697.275a28.617 28.617 0 0 0-1.141 2.182c-.279.577-.52 1.172-.761 1.766-.37.906-.724 1.818-1.084 2.723 2.729.344 5.373-.252 8.046-.24m1.697-.204c.786 0 1.51.019 2.235-.004 1.351-.045 2.701-.115 4.052-.179.07-.003.177-.051.201-.106.102-.232.248-.474.251-.715.027-1.613-.235-3.174-.964-4.631-.243-.49-.556-.618-1.082-.492-.066-.307-.066-.307-.427-.48a.391.391 0 0 1-.131-.113c-.108-.129-.212-.262-.27-.331-.125.107-.182.172-.251.212-.209.118-.465.188-.626.352-.336.343-.668.706-.928 1.107-.705 1.098-1.206 2.29-1.561 3.541-.177.626-.341 1.254-.499 1.839m-18.093.992c2.243-.141 4.402-.276 6.555-.409 0-.639.105-1.289-.021-1.893a9.475 9.475 0 0 0-1.623-3.664c-.372-.509-.937-.789-1.631-.625-.073.019-.195-.078-.267-.15-.154-.156-.291-.33-.456-.521l.096-.233-.129-.05c-.048.129-.161.273-.13.379.09.33-.02.534-.292.698-.057.033-.091.114-.121.181-.258.53-.543 1.052-.759 1.598-.281.719-.553 1.446-.746 2.191-.205.793-.313 1.614-.476 2.498m32.111-17.124c.033.024.068.045.102.069-.135.036-.336.146-.398.093-.279-.234-.531-.1-.723.062-.262.224-.532.484-.679.787-.818 1.673-.852 3.399-.318 5.17.324 1.08 1.513 1.455 2.499.82.709-.456 1.09-1.132 1.244-1.961.275-1.498.119-2.959-.324-4.395-.125-.402-.387-.775-.645-1.117-.076-.104-.41-.132-.531-.053-.134.091-.157.345-.227.525m-29.517 1.019c-.11.195-.205.309-.242.438-.237.822-.498 1.642-.673 2.479-.114.542-.133 1.112-.127 1.669.004.508-.187 1.05.224 1.519.184.214.26.518.42.756.287.426.959.602 1.431.4.939-.403 1.439-1.18 1.666-2.116.284-1.185.408-2.39.139-3.605-.075-.344-.024-.725-.137-1.053-.41-1.199-1.037-1.185-1.865-.812-.303.137-.52.471-.759.698-.01-.051-.033-.165-.077-.373m9.389.395c-.105.291-.213.537-.287.791-.35 1.219-.65 2.447-.386 3.729.148.717.456 1.363.976 1.882.13.128.363.219.548.214.739-.018 1.197-.484 1.508-1.093.658-1.28.744-2.653.574-4.054-.047-.391-.157-.775-.225-1.163-.179-1.005-.617-1.321-1.382-1.229-.455.054-.507.132-.37.573l-.29-.259-.084 1.17a86.87 86.87 0 0 0-.582-.561m9.327.233c-.08.293-.149.477-.176.666-.167 1.259-.176 2.521.152 3.749.151.562.443 1.093.73 1.605.168.3.489.389.859.338.732-.102 1.179-.553 1.469-1.17.493-1.049.383-2.171.214-3.252-.113-.725-.438-1.423-.724-2.11-.161-.385-.812-.583-1.243-.465-.327.091-.515.417-.531.894-.005.148-.048.295-.057.347l-.693-.602m-24.351 2.978c.028-.569-.145-1.314-.477-2.012-.133-.281-.345-.613-.606-.729-.724-.321-1.565-.05-1.864.745-.23.607-.392 1.244-.538 1.881-.289 1.232-.229 2.432.456 3.547.257.418.646.626 1.133.559.752-.102 1.151-.634 1.438-1.25.369-.798.434-1.661.458-2.741M81.959 69.938c-.372.292-.72.568-1.07.84-.442.344-.717.293-1.035-.177-.57-.845-.515-1.722-.213-2.648.222-.674.602-1.189 1.23-1.578-.575-.503-.463-1.158-.453-1.769a44.092 44.092 0 0 0-.283-5.757 125.98 125.98 0 0 1-.209-1.948c-.006-.062.02-.149.063-.188.505-.471.981-.974 1.65-1.231 1.152-.44 2.393.426 2.408 1.648.006.547.051 1.091-.197 1.591-.173.351-.365.708-.619 1-.364.417-.796.774-1.19 1.167-.078.077-.167.194-.166.291.021 1.35.059 2.699.094 4.048.002.095.032.189-.027.229l-.446.438c-.059.057-.158.102-.174.169-.076.345.269.318.431.402.232.123.516.169.783.196.255.026.321.165.353.378.073.518.145 1.034.241 1.546.038.209.138.407.233.671.345-.247.645-.462 1.034-.738-.059-.559-.133-1.244-.209-1.974.158-.123.363-.28.578-.448.4.128.798.272 1.201-.125a3.503 3.503 0 0 1 1.025-.684c.468-.205 1.071 0 1.627.457-.137.292-.308.512-.673.583-.394.075-.843.137-1.142.37a2.009 2.009 0 0 0-.677 1.039c-.101.397.011.854.057 1.282.027.263.102.522.15.765l-1.233 1.133-.569-1.433c-.292.498-.759.684-1.255.847-.605.2-.973.12-1.318-.392m-.201-10.29c.69-.293 1.03-1.509.976-2.29-.032-.45-.542-.753-.953-.648-.086.022-.198.183-.195.275.044.878.109 1.754.172 2.663m-.345 7.956l-.182-.052-.283 1.267.167.038.298-1.253M92.585 77.611l.905-.66c.072.056.144.108.238.18-.06-.662-.137-1.286-.166-1.912a98.606 98.606 0 0 1-.088-3.607c-.001-.125.227-.245.333-.379.11-.139.173-.186.395-.124.773.217.748.188.766.944.02.858.107 1.715.17 2.643.176-.136.316-.222.428-.336.661-.667 2.222-.11 2.5.742.235.725.096 1.369-.393 1.939-.56.657-1.167 1.267-1.967 1.629-.323.146-.673.298-1.015.309-.163.005-.39-.287-.493-.492-.106-.211-.422-.36-.268-.688.021-.044-.095-.152-.115-.181-.594.521-.994 1.345-1.936 1.268-.399-.033-.621.044-.881.33-.349.383-.761.76-1.35.625-.214-.049-.458-.186-.584-.358-.613-.827-.762-1.745-.394-2.718.18-.476.346-.97.616-1.394.235-.365.577-.685.933-.941.146-.107.461-.034.681.024.439.117.945.211 1.122.694.137.371.167.789.195 1.19.034.439.084.859.368 1.273m2.824-.208c.357-.178.647-.293.907-.456.41-.26.583-.774.371-1.207-.085-.172-.311-.333-.501-.375-.117-.026-.381.154-.417.286-.149.547-.234 1.111-.36 1.752m-4.751-1.783c-.048.003-.096.006-.144.007-.11.302-.231.601-.326.908-.164.536-.295 1.081-.083 1.634.032.087.134.208.203.206.078 0 .182-.107.226-.193.184-.358.285-.72.205-1.146-.061-.311.024-.647.02-.974-.002-.146-.065-.293-.101-.442M72.777 56.983c.128-.122.275-.27.432-.407.049-.044.131-.094.185-.082.301.063.595.152.899.214.076.015.204-.008.244-.062.271-.358.598-.478 1.032-.334.283.094.576.152.879.229.281-.217.585-.469.911-.693.526-.362 1.612.031 1.723.652.2 1.129.313 2.276.527 3.402.158.831-.371 1.263-.872 1.784-.224-.511-.513-.943-.546-1.526-.053-.942-.217-1.877-.354-2.813-.019-.122-.148-.228-.226-.34-.094.077-.213.138-.278.236-.389.59-.619 1.231-.595 1.955.009.251 0 .516-.07.755-.047.156-.215.282-.336.413-.213.233-.433.458-.686.723-.227-.536-.511-.926-.403-1.502.089-.483-.046-1.009-.123-1.519-.413.824-.417 1.69-.292 2.455-.37.407-.681.747-1.016 1.11-.32-.235-.544-.512-.581-.911-.057-.616-.089-1.234-.164-1.847-.078-.636-.191-1.266-.29-1.892M68.286 78.946c-.558-.32-.701-.864-.85-1.399-.086-.299-.138-.609-.203-.915h-.093l-.212 1.979-.966 1.062c-.249-.267-.568-.516-.637-.943-.121-.764-.231-1.53-.394-2.299-.312.323-.389.721-.415 1.126-.021.328.021.659.004.987a.93.93 0 0 1-.142.443c-.171.261-.365.51-.57.746-.16.186-.297.18-.5-.025-.529-.541-.386-1.252-.542-1.884-.126-.506-.17-1.031-.284-1.54-.04-.177-.203-.324-.264-.501-.052-.147-.097-.34-.044-.475.071-.187.254-.329.351-.51.125-.236.308-.146.501-.172.744-.096.978.292.95 1.036.392-.389.724-.694 1.231-.559.409.107.953-.097 1.132.555.194-.17.38-.289.509-.453.324-.413.731-.306 1.153-.248.489.065.652.393.735.808.129.653.264 1.305.375 1.963.026.152.09.311-.144.46-.269.17-.446.483-.681.758M74.271 79.428c-.902-1.202-.8-2.576-.955-3.888-.025-.217.537-.605.747-.535.043.016.095.037.134.026.358-.081.543.113.677.439.411-.268.637-.786 1.331-.547.578.2.863.493.988 1.071.352-.271.655-.548.996-.762.586-.366 1.465.068 1.568.748.09.6.156 1.204.28 1.796.103.488-.119.8-.452 1.082-.143.12-.292.231-.486.386-.842-.683-.583-1.735-.792-2.753-.204.537-.378.977-.534 1.423-.068.19-.128.348-.315.483-.258.188-.452.465-.678.699-.072.071-.158.13-.222.183-.148-.231-.304-.418-.394-.633-.104-.25-.161-.52-.218-.785-.082-.391-.146-.784-.217-1.177-.039-.002-.075-.003-.111-.006-.064.431-.111.866-.2 1.292-.033.17-.135.337-.24.48a7.257 7.257 0 0 1-.529.621c-.119.128-.255.24-.378.357M67.574 60.944c.057-.322-.01-.558-.291-.733-.487-.299-.96-.617-1.439-.928a.158.158 0 0 1-.057-.048c-.29-.527-.637-1.042-.608-1.673.022-.473.158-.931.522-1.273.22-.206.442-.411.684-.591.375-.282.769-.497 1.263-.24.329.17.796.062 1 .49.112.239.294.449-.09.667-.315.18-.562.481-.86.748l-.63-.794c-.484.44-.398 1.399.11 1.775.549.41 1.087.839 1.6 1.294.512.455.461 1.198-.051 1.648a6.961 6.961 0 0 0-.667.696c-.427.488-.966.354-1.414.146-.809-.376-1.54-.892-1.972-1.73.09-.139.175-.298.288-.436.175-.219.347-.464.69-.229.089.061.25.008.348.061.114.06.23.162.289.274.234.447.64.68 1.065.886.058.028.14-.004.22-.01M105.521 75.969c-.287.345-.506.704-.812.96-.533.449-1.107.855-1.69 1.241-.748.496-1.519.276-1.93-.656-.484-1.097-.29-2.089.091-3.099.28-.736.874-1.216 1.528-1.63.506-.321 1.461.271 1.457.882-.009.834-.261 1.488-.976 1.946-.204.13-.379.306-.572.451-.289.216-.359.587-.116.848.07.076.291.109.379.056.41-.251.849-.457 1.083-.943.099-.206.39-.39.622-.438.188-.037.42.143.631.228.071.029.138.069.305.154M88.271 58.308c.474.047.837-.098 1.166-.419.111-.108.367-.124.543-.099.252.034.492.145.805.245-.09.126-.151.275-.262.359-.642.485-1.247 1.052-2.054 1.24-.366.085-.763.051-1.144.028-.096-.005-.207-.159-.27-.268-.658-1.111-.627-2.26-.142-3.416.167-.397.321-.84.611-1.135.341-.35.808-.591 1.25-.822.123-.063.351.102.534.129.648.096.651.62.684 1.079.031.43-.236.738-.583.979-.296.206-.564.455-.869.646-.481.301-.454.72-.331 1.177.024.083.038.166.062.277M80.57 77.037c-.035-.995.319-1.668 1.037-2.149.17-.114.397-.327.521-.283.448.161.917.346 1.273.645.452.377.602.957.769 1.528.248.852-.135 1.369-.747 1.838-.276.212-.523.465-.786.695-.296.259-.654.314-1.02.237-.132-.027-.274-.154-.353-.275-.471-.714-.761-1.488-.694-2.236m1.612-1.137c-.203.798-.063 1.82.274 2.115.542-.599.395-1.807-.274-2.115M79.268 69.494c.132.399.04.638-.288.838-.559.342-1.079.751-1.638 1.096-.279.175-.802.009-1.008-.259-1.149-1.502-.856-3.642.605-4.666.596-.417 1.269-.417 1.822.072.08.071.141.198.159.306.078.484.024.941-.364 1.291-.381.344-.764.689-1.163 1.013-.355.287-.084.542.026.79.111.251.305.103.464.031.343-.153.68-.318 1.028-.464.104-.042.231-.032.357-.048"/><path fill="#FFF" d="M86.353 58.908c-.412-.075-.469.26-.646.458-.179.199-.383.374-.585.569-.758-1.473-.778-3.02-.9-4.546-.084-1.076-.175-2.15-.263-3.202.301-.282.642-.388 1.018-.281.149.043.36.143.397.262.351 1.101.322 2.258.457 3.392.111.949.236 1.896.365 2.845.02.15.092.295.157.503M70.757 67.203c-.045.388-.16.785-.118 1.164.06.529.17 1.074.381 1.558.208.476.43.496.927.29.167-.068.313-.184.481-.254.2-.086.41-.157.58.075.168.229.054.394-.121.528-.487.367-.96.758-1.479 1.072-.368.225-.721-.002-1.029-.235-1.369-1.034-1.46-2.887-1.007-4.113.259-.703 1.212-1.122 1.936-.907.321.095.635.157.875.437.288.333.205.784-.211.958-.05.021-.077.089-.121.128-.282.243-.62.132-.724-.223-.051-.171-.128-.333-.195-.498a4.924 4.924 0 0 0-.175.02M71.522 78.665l.969-.702c.13.093.317.169.391.305.067.121.072.379-.011.458-.422.409-.861.807-1.338 1.15-.15.108-.458.099-.651.027-.303-.111-.627-.207-.815-.544-.416-.745-.774-1.478-.589-2.379.162-.779.555-1.392 1.117-1.935.392-.378.779-.131 1.147-.032.518.14.785.855.474 1.31a5.074 5.074 0 0 1-.916.971c-.191.162-.276.304-.189.519.113.271.253.531.411.852M100.358 77.619c-.168.189-.306.35-.451.504-.139.149-.264.323-.432.422-.06.036-.278-.08-.339-.177-.425-.678-.481-1.453-.534-2.226-.099-1.468-.198-2.936-.286-4.403-.005-.082.07-.188.138-.25.114-.104.252-.181.4-.283.075.032.171.08.272.111.187.059.485.058.537.172.11.244.1.545.122.824.011.154-.034.313-.022.469.062.687.12 1.374.207 2.058.12.948.263 1.893.388 2.779M86.566 78.247l-.949 1.314c-.645-.833-.717-1.691-.809-2.545-.063-.589-.159-1.175-.242-1.779.59-.571.902-.595 1.493-.169.462-.208.858-.48 1.289-.552.321-.053.695.121 1.024.249.201.079.111.41-.163.629-.136.109-.271.219-.42.311a.81.81 0 0 1-.299.109c-.595.084-.732.162-.794.771-.062.596-.014 1.204-.014 1.809a3.01 3.01 0 0 0-.116-.147M73.646 65.02c.146 0 .292.012.435-.002.333-.033.533.151.565.479.142 1.422.291 2.844.449 4.264.027.243-.017.396-.222.554-.212.162-.364.398-.541.603-.174.199-.279.137-.415-.063-.347-.515-.467-1.104-.526-1.692a54.062 54.062 0 0 1-.232-3.528c-.007-.231.247-.473.38-.709.037.029.073.061.107.094M71.138 62.13c-.704-.934-.672-1.926-.826-2.871-.132-.819-.285-1.636-.429-2.455l-.101.009c.146-.157.289-.315.437-.47.031-.032.077-.083.106-.076.354.065.75.067 1.043.24.184.111.263.474.306.737.187 1.149.337 2.302.508 3.452.025.169.02.269-.166.373-.184.102-.311.31-.45.481-.149.186-.283.382-.428.58M92.294 60.06c-.474 0-.837-.274-.942-.639a9.962 9.962 0 0 0-.197-.621c-.161-.444-.021-.819.334-1.115.375-.313.73-.442 1.221-.244.322.13.496.296.571.624.033.142.13.286.237.39.208.2.208.572-.02.754-.317.25-.627.512-.951.754-.089.068-.217.084-.253.097M105.477 77.07c.037-.459.276-.802.6-1.095.054-.048.125-.081.17-.136.199-.243.48-.333.742-.234.429.159.85.389.783.963-.018.148-.082.325-.187.42-.366.33-.75.641-1.145.938-.323.244-.592.152-.73-.215-.068-.182-.147-.359-.218-.54-.013-.032-.011-.071-.015-.101M87.607 69.628c.084-.129.152-.276.258-.387.191-.2.401-.378.609-.561a.29.29 0 0 1 .162-.07c.486-.034 1.104.525 1.114 1.009.001.079-.018.189-.071.233-.422.356-.85.706-1.292 1.034-.063.047-.297-.001-.324-.063-.166-.371-.295-.76-.456-1.195"/></svg>
