<svg xmlns="http://www.w3.org/2000/svg" viewBox="0 0 210 126"><path class="bubble" fill="#FFB547" d="M188.564 96.16c-.827.098-1.262.007-1.699-.024-.383-.027-.765-.065-1.146.028-.169.041-.411.308-.402.473.004.056 0 .11.004.165.01.109.021.219.034.327.156 1.204.125 2.412.067 3.619a5.76 5.76 0 0 1-.105.817c-.275 1.41-.715 2.762-1.409 4.027a21.172 21.172 0 0 1-1.72 2.612c-.367.483-.807.9-1.3 1.256-1.025.74-2.069 1.45-3.211 2.006-.296.144-.594.286-.884.441-1.715.918-3.561 1.437-5.459 1.791-.376.07-.761.126-1.143.131-.989.016-1.978.004-2.967-.009a5.11 5.11 0 0 1-.819-.074c-.65-.113-1.308-.16-1.962-.233s-1.308-.178-1.949-.323c-2.264-.516-4.424-1.288-6.379-2.581a76.409 76.409 0 0 1-4.033-2.857c-.438-.332-.878-.66-1.369-.912a1.042 1.042 0 0 0-.952-.026 6.823 6.823 0 0 0-.722.395c-1.265.785-2.6 1.433-3.953 2.036-1.205.538-2.469.925-3.739 1.279-.582.162-1.173.291-1.761.427-.589.137-1.18.266-1.785.303-.165.011-.331.021-.491.057-1.136.253-2.29.253-3.444.255-.604.002-1.208-.004-1.812-.01a11.544 11.544 0 0 1-2.13-.193c-.7-.137-1.41-.217-2.113-.345-1.468-.268-2.872-.733-4.264-1.247-.515-.191-1.019-.411-1.525-.624a6.343 6.343 0 0 1-.596-.281c-1.546-.845-3.035-1.782-4.374-2.93-1.042-.895-2.032-1.851-2.873-2.943-.503-.651-1.066-1.255-1.521-1.947-.572-.872-1.166-1.73-1.643-2.662-.175-.343-.39-.663-.572-1.002a13.19 13.19 0 0 1-.519-1.028c-.677-1.562-1.375-3.116-1.919-4.732a3.235 3.235 0 0 0-.271-.6.959.959 0 0 0-.646-.471 4.668 4.668 0 0 0-.816-.093c-.879-.02-1.758-.024-2.637-.031-1.098-.01-2.195-.005-3.286-.19-.43-.074-.875-.063-1.314-.076-.659-.02-1.319-.024-1.978-.038-.659-.013-1.317-.045-1.967-.175a7.686 7.686 0 0 0-.816-.108c-3.143-.277-6.159-1.079-9.094-2.211a31.938 31.938 0 0 1-2.127-.892c-2.099-.983-4.032-2.232-5.837-3.686-.77-.621-1.543-1.236-2.224-1.957-.378-.399-.763-.79-1.088-1.236-.097-.134-.191-.271-.302-.391-1.347-1.487-2.239-3.25-3.063-5.054-.784-1.713-1.236-3.521-1.49-5.38-.082-.596-.083-1.205-.089-1.808a17.992 17.992 0 0 1 .792-5.354c.048-.157.099-.314.146-.472.188-.643.077-.924-.479-1.221-.145-.078-.29-.158-.438-.228-1.727-.803-3.151-2.001-4.379-3.43-1.68-1.956-2.817-4.183-3.209-6.757-.083-.543-.157-1.087-.236-1.631a6.04 6.04 0 0 1 .005-1.806c.051-.325.115-.649.156-.976.26-2.054 1-3.931 2.114-5.664.445-.692.943-1.35 1.425-2.019.194-.27.345-.556.441-.876.206-.684.418-1.366.641-2.044.241-.734.567-1.43.98-2.083.411-.649.786-1.319 1.234-1.947.772-1.081 1.678-2.034 2.645-2.931a17.55 17.55 0 0 1 1.407-1.14c2.251-1.687 1.737-1.361 4.174-2.623 2.459-1.274 5.057-2.128 7.774-2.636 1.403-.263 2.805-.537 4.233-.628.11-.008.221-.014.328-.036 1.246-.259 2.512-.249 3.774-.262 1.648-.017 3.296-.018 4.944-.033.384-.003.77-.016 1.151-.06a.772.772 0 0 0 .637-.464c.129-.301.237-.616.309-.936.253-1.128.613-2.223 1.008-3.307.17-.464.358-.923.572-1.367a22.474 22.474 0 0 1 2.819-4.442c.415-.509.886-.975 1.349-1.445 1.645-1.667 1.903-1.846 3.809-3.129 2.222-1.498 4.671-2.404 7.28-2.948 1.739-.362 3.491-.372 5.249-.279.546.029 1.087.152 1.628.243 3.082.517 5.895 1.705 8.498 3.417.922.606 1.787 1.277 2.562 2.062.386.391.773.78 1.17 1.161.836.804 1.533 1.723 2.193 2.669.282.404.501.851.751 1.278.083.142.167.283.26.42.233.345.536.325.842.065a7.16 7.16 0 0 0 .364-.334c.236-.23.475-.457.702-.695 1.066-1.118 2.298-2.042 3.497-3.003 1.248-.999 2.609-1.825 3.99-2.622a16.106 16.106 0 0 1 1.617-.817 38.902 38.902 0 0 1 3.379-1.306c1.361-.453 2.754-.752 4.169-.958.109-.016.221-.018.327-.041 1.466-.313 2.95-.259 4.433-.231.164.003.33.012.493.033 1.69.219 3.375.484 4.999 1.012 1.943.632 3.785 1.478 5.403 2.757.56.442 1.148.846 1.656 1.354 2.266 2.267 3.841 4.924 4.597 8.052.22.911.381 1.827.371 2.769-.006.659-.002 1.318.005 1.977.016 1.564-.354 3.048-.912 4.494-.119.307-.256.607-.378.913-.135.339.109.639.512.623.273-.012.552-.008.819-.059 1.362-.261 2.736-.186 4.108-.158.219.005.439.029.654.07.65.121 1.306.18 1.966.203.718.025 1.413.2 2.115.325 1.737.308 3.426.809 5.053 1.478 2.294.944 4.467 2.117 6.393 3.705.254.209.505.424.743.651.438.417.861.848 1.297 1.267 1.769 1.705 3.042 3.745 4.026 5.974.557 1.261.927 2.584 1.185 3.937.052.269.067.545.095.818.049.492.086.985.145 1.476.046.385.035.765-.017 1.148-.052.381-.081.765-.12 1.147-.266 2.615-1.089 5.034-2.532 7.237-.544.83-1.218 1.557-1.842 2.323-.171.209-.404.369-.612.548-.249.215-.506.421-.753.639-.292.256-.311.641-.028.852 1.017.76 1.899 1.663 2.77 2.58.494.52.929 1.084 1.309 1.692 1.209 1.932 2.055 4.001 2.351 6.277.057.435.132.869.194 1.303.079.546.108 1.1.032 1.644-.152 1.087-.259 2.183-.538 3.248-.434 1.655-1.044 3.234-1.922 4.712-.848 1.426-1.831 2.736-3.02 3.894-.354.345-.702.696-1.059 1.039-.36.347-.645.747-.861 1.197-.143.297-.288.593-.435.889-.616 1.242-1.407 2.354-2.425 3.302-.201.188-.397.379-.597.569-.439.421-.938.756-1.47 1.05-1.308.723-2.678 1.27-4.149 1.555-.486.095-.972.175-1.467.199-.658.03-1.315.071-1.587.086M71.3 64.362c.258-.084.53-.139.772-.257a43.885 43.885 0 0 0 1.733-.907c.668-.365 1.33-.74 1.991-1.117.331-.187.66-.379.979-.584a.584.584 0 0 0 .269-.393.313.313 0 0 0-.015-.158c-.043-.108-.131-.17-.248-.163-.106.008-.222.016-.315.062a1049.67 1049.67 0 0 0-4.377 2.187c-.096.048-.181.119-.269.183a1.012 1.012 0 0 0-.38.516c-.062.207-.09.424-.134.636l-.006-.005zm42.538 20.78c-.766.073-1.496.306-2.229.518a1.593 1.593 0 0 0-.902.673c-.385.596-.756 1.2-1.128 1.804a1.356 1.356 0 0 0-.137.297 1.376 1.376 0 0 0-.083.642c.051.384.186.739.353 1.085.079.166.417.282.568.19.046-.028.104-.038.146-.072 1.101-.908 2.053-1.955 2.896-3.102.194-.267.306-.582.361-.906.065-.376.1-.757.147-1.135l.008.006zm21.267 19.756c1.428.097 3.047-.168 4.641-.629.053-.016.106-.027.16-.041 2.039-.546 3.885-1.501 5.627-2.673.092-.062.184-.124.264-.198.282-.26.591-.5.833-.794.664-.805 1.315-1.622 1.793-2.56.623-1.223 1.277-2.431 1.765-3.72.115-.306.283-.593.446-.878.11-.191.281-.335.477-.444.393-.221.946-.077 1.153.3.053.096.119.186.157.288.117.308.217.621.336.929.299.768.592 1.538.91 2.298.405.965.954 1.854 1.498 2.745a17.628 17.628 0 0 0 2.881 3.586 10.54 10.54 0 0 0 2.271 1.625c.583.314 1.2.562 1.849.687.808.157 1.622.317 2.44.375 1.314.093 2.635.12 3.943-.125.376-.07.763-.095 1.145-.135a18.143 18.143 0 0 0 4.327-.978c.466-.17.921-.362 1.347-.615.235-.14.468-.291.678-.466.682-.568 1.247-1.231 1.654-2.029.351-.688.663-1.389.823-2.146a79.36 79.36 0 0 0 .444-2.264c.068-.38.048-.766-.006-1.148-.075-.544-.153-1.088-.22-1.633a6.202 6.202 0 0 0-.934-2.615c-.207-.324-.428-.64-.632-.965-.086-.14-.147-.293-.215-.443-.123-.273.001-.674.26-.888a1.07 1.07 0 0 1 .764-.25c.216.012.435.055.646.111.742.2 1.476.435 2.224.614 1.228.294 2.463.555 3.735.586.492.013.984.091 1.473.159a5.98 5.98 0 0 0 1.642-.006c.488-.068.981-.143 1.474-.156.94-.025 1.856-.184 2.763-.417.426-.11.852-.217 1.276-.331a12.2 12.2 0 0 0 2.159-.802c.396-.19.793-.38 1.185-.579 1.823-.931 3.494-2.071 4.897-3.578.149-.161.306-.315.46-.473a8.893 8.893 0 0 0 1.041-1.274c.307-.456.625-.904.912-1.372.987-1.608 1.686-3.327 1.955-5.207.039-.271.111-.539.146-.811.049-.381.09-.764.111-1.146.055-.994-.099-1.967-.249-2.947a13.442 13.442 0 0 0-.847-3.006c-.646-1.594-1.555-3.018-2.776-4.246-.898-.903-1.875-1.688-2.988-2.308-.24-.132-.473-.279-.703-.428a1.367 1.367 0 0 1-.247-.216c-.407-.428-.373-.936-.027-1.333.106-.123.233-.234.367-.328.405-.282.824-.546 1.228-.832 1.04-.736 1.898-1.661 2.713-2.63a2.29 2.29 0 0 0 .19-.269c.642-1.025 1.264-2.056 1.673-3.206.333-.936.617-1.876.716-2.869.043-.436.114-.871.181-1.305a5.12 5.12 0 0 0 .012-1.478c-.075-.544-.136-1.089-.218-1.632-.057-.38-.125-.759-.21-1.133-.547-2.39-1.521-4.58-3.073-6.497a7.19 7.19 0 0 1-.198-.262c-.744-1.033-1.649-1.917-2.61-2.737-1.812-1.546-3.86-2.713-6.065-3.604-.561-.226-1.121-.46-1.7-.626-1.69-.486-3.395-.915-5.151-1.089-.327-.032-.652-.093-.979-.142-1.214-.181-4.692-.2-5.919-.031-.108.015-.216.039-.325.057-.978.161-1.968.181-2.953.248-.711.048-1.23-.763-.903-1.376.077-.145.15-.293.238-.432.207-.324.434-.636.63-.966.854-1.434 1.427-2.964 1.563-4.641.049-.602.176-1.202.176-1.802 0-.6-.139-1.199-.172-1.801-.048-.887-.248-1.743-.509-2.581-.58-1.861-1.502-3.534-2.868-4.942-.383-.394-.777-.776-1.163-1.168-.856-.869-1.846-1.555-2.921-2.122-.389-.205-.786-.394-1.177-.597-1.227-.641-2.531-1.063-3.884-1.331-.807-.16-1.606-.367-2.437-.398a48.274 48.274 0 0 0-3.954 0c-.328.015-.659.04-.982.099-.702.127-1.407.252-2.099.426-2.52.631-4.905 1.577-7.139 2.922a36.391 36.391 0 0 0-6.873 5.348c-.586.58-1.158 1.173-1.746 1.75a2.893 2.893 0 0 1-.519.402c-.471.291-.988.177-1.31-.264a4.415 4.415 0 0 1-.336-.566c-.228-.439-.435-.888-.667-1.325-.621-1.167-1.334-2.278-2.2-3.276a20.392 20.392 0 0 0-4.338-3.772 21.789 21.789 0 0 0-1.276-.754c-1.302-.728-2.691-1.242-4.118-1.661-1.375-.405-2.771-.682-4.214-.675-.439.002-.879-.002-1.318-.006-1.047-.01-2.075.127-3.106.319-2.536.472-4.795 1.553-6.89 3.013-.539.377-1.07.776-1.557 1.217-1.099.998-2.139 2.052-3.007 3.268-.385.538-.723 1.101-1.072 1.66-.998 1.6-1.663 3.336-2.14 5.152a9.9 9.9 0 0 0-.298 1.619c-.024.272-.07.544-.13.812a1.965 1.965 0 0 1-.177.458c-.159.311-.42.52-.756.581a5.67 5.67 0 0 1-.983.08c-1.264.011-2.527 0-3.79.015-.549.006-1.103.011-1.643.093-.874.131-1.75.179-2.628.171-1.711-.014-3.389.305-5.077.503-.762.089-1.517.252-2.267.417-1.667.369-3.266.956-4.868 1.535a3.835 3.835 0 0 0-.303.13c-1.447.668-2.871 1.378-4.187 2.289-.633.438-1.247.9-1.855 1.371a13.674 13.674 0 0 0-2.429 2.45 22.717 22.717 0 0 0-1.47 2.184c-.632 1.044-1.052 2.17-1.406 3.329-.242.794-.305 1.619-.458 2.427a9.024 9.024 0 0 0-.008 3.277c.077.433.13.869.206 1.302a12.929 12.929 0 0 0 1.337 3.879c.513.968 1.058 1.928 1.831 2.729.152.157.276.342.409.516.268.352.578.66.926.933.26.203.516.411.768.623 1.539 1.29 3.266 2.218 5.218 2.713.32.081.634.182.948.28.104.032.206.077.304.125.431.208.671.549.716 1.028.031.331.017.663-.059.983-.253 1.081-.26 2.179-.255 3.278.007 1.77.314 3.688.853 5.344.102.314.206.627.315.938a18.936 18.936 0 0 0 1.791 3.7 27.726 27.726 0 0 0 2.205 3.079 16.918 16.918 0 0 0 2.576 2.542 29.76 29.76 0 0 0 6.932 4.091c.405.17.81.343 1.203.537 1.036.514 2.11.938 3.19 1.338 1.805.667 3.633 1.264 5.556 1.501.753.183 1.52.227 2.29.229.824.003 1.647-.001 2.471-.023.384-.012.77-.051 1.146-.119 1.026-.188 2.05-.395 3.032-.76.669-.249 1.341-.492 2.013-.733.258-.092.519-.178.782-.252.349-.1.786.085 1.002.41.159.241.201.51.132.786a6.033 6.033 0 0 1-.204.627c-.115.308-.247.609-.361.919a10.358 10.358 0 0 0-.617 4.533c.029.327.075.655.146.977.523 2.363 1.648 4.419 3.268 6.196.887.973 1.854 1.873 2.8 2.791a8.88 8.88 0 0 0 1.021.831c1.698 1.22 3.462 2.327 5.363 3.213.802.373 1.618.678 2.474.896 1.678.429 1.999.474 3.743.493.162.002.327.001.73.001M86.106 78.519c-.042-.099-.058-.224-.129-.292-.666-.645-1.343-1.28-2.017-1.916-.039-.037-.094-.057-.138-.088-.193-.138-.589-.101-.761.08-.151.157-.306.312-.438.484-.697.91-1.379 1.832-2.109 2.718-.382.463-.726.956-1.086 1.438a1.628 1.628 0 0 0-.284.584.571.571 0 0 0 .084.467c.059.09.126.183.209.249.599.478 1.232.905 1.907 1.269a1.5 1.5 0 0 0 .306.114.757.757 0 0 0 .762-.169c.479-.448.89-.96 1.288-1.481.694-.912 1.369-1.84 2.106-2.719.104-.124.186-.271.251-.42.042-.095.034-.212.049-.318m.421 7.392c.12-.056.289-.098.406-.199a2.57 2.57 0 0 0 .428-.49 64.064 64.064 0 0 0 2.282-3.586c.055-.093.082-.201.122-.303.069-.17-.003-.506-.141-.605-.352-.255-.703-.515-1.067-.752-.272-.179-.564-.326-.85-.483-.163-.089-.475-.022-.608.118-.037.039-.087.067-.12.109-1.11 1.415-2.245 2.811-3.306 4.264-.062.084-.085.198-.124.299-.047.124.012.387.105.457.13.098.253.212.397.283.684.34 1.395.617 2.12.856.1.033.215.021.356.032m63.315 16.873c.002.032.016.416.058.796.03.284.177.521.411.685.407.281.842.514 1.308.684.051.02.107.02.16.033.131.035.374-.045.443-.157.086-.138.192-.271.242-.423.155-.469.287-.944.428-1.417.173-.578.351-1.155.518-1.734.096-.33.054-.654-.104-.957-.128-.242-.278-.473-.408-.714-.287-.529-.564-1.065-.851-1.597-.13-.241-.269-.478-.405-.714-.105-.184-.438-.188-.565-.033-.214.257-.339.563-.489.853-.229.441-.397.902-.446 1.403a7.374 7.374 0 0 1-.12.813c-.15.703-.187 1.413-.18 2.479M79.08 69.482c-.005-.097-.002-.152-.011-.206a2.902 2.902 0 0 0-.389-1.067c-.099-.168-.424-.256-.58-.137-.693.529-1.391 1.053-2.021 1.656-1.025.98-2.035 1.976-3.046 2.971a3.444 3.444 0 0 0-.408.507.765.765 0 0 0-.114.625c.105.43.303.815.556 1.177.16.227.521.303.723.145.085-.067.184-.12.26-.196a2019.05 2019.05 0 0 0 4.596-4.659c.114-.114.214-.251.289-.394.073-.142.106-.305.145-.422m-3.617 8.746c.124-.06.295-.098.41-.2a15.686 15.686 0 0 0 1.907-2.018c.403-.519.843-1 1.297-1.473.377-.393.756-.786 1.123-1.188.146-.16.273-.34.389-.523a.726.726 0 0 0 .074-.628 1.962 1.962 0 0 0-.517-.822c-.184-.18-.541-.192-.748-.02-.125.104-.26.201-.374.316-1.376 1.399-2.752 2.8-4.122 4.206-.15.153-.273.34-.388.522a.793.793 0 0 0-.082.631c.111.436.331.806.699 1.072.084.06.2.077.332.125m94.496 33.583c.297-.014.515-.021.731-.034a6.4 6.4 0 0 0 1.75-.381c.294-.104.488-.449.437-.787-.149-.975-.461-1.902-.809-2.819a.506.506 0 0 0-.084-.139c-.108-.124-.232-.236-.397-.268a1.925 1.925 0 0 0-.484-.041 6.247 6.247 0 0 0-1.593.335.831.831 0 0 0-.534.576 7.813 7.813 0 0 0-.35 2.414c.003.162.035.324.061.485.032.21.332.525.543.56.267.045.537.073.729.099M94.05 87.805c.265.01.484.036.701.021a.894.894 0 0 0 .576-.277c.077-.077.154-.158.214-.248.516-.771 1.032-1.542 1.538-2.32.087-.135.137-.295.188-.449a.307.307 0 0 0-.071-.308c-.072-.08-.148-.166-.24-.215-.676-.363-1.393-.625-2.125-.85-.159-.049-.507.064-.599.191-.032.044-.073.082-.101.128-.66 1.068-1.31 2.143-1.876 3.265a.784.784 0 0 0-.097.31.571.571 0 0 0 .08.305.57.57 0 0 0 .398.261c.485.073.973.128 1.414.186M77.396 57.748c.011-.218-.178-.542-.392-.656a4.923 4.923 0 0 0-1.548-.529 1.15 1.15 0 0 0-.931.232c-.682.555-1.278 1.197-1.838 1.873a.973.973 0 0 0-.207.611c-.002.054 0 .11.011.163.096.447.016.871-.158 1.285-.042.1-.074.206-.102.311-.032.122.005.223.109.283.044.024.111.042.155.026 1.146-.388 2.17-1.036 3.259-1.548.345-.163.666-.377.996-.57a.527.527 0 0 0 .122-.109c.071-.083.147-.165.201-.258.197-.337.319-.696.323-1.114m.381 22.882c.12-.059.295-.098.401-.204.268-.271.519-.561.749-.863 1.055-1.391 2.075-2.806 3.167-4.168.067-.083.117-.187.153-.287a.796.796 0 0 0 .06-.316c-.028-.343-.178-.624-.477-.81a.34.34 0 0 0-.317-.027c-.099.04-.207.08-.285.15-.693.618-1.352 1.277-1.927 2.002-.713.9-1.501 1.728-2.282 2.564-.148.159-.274.339-.406.512-.153.203-.123.547.053.76.211.256.455.47.762.6.098.041.21.054.349.087m-6.79-13.346c.026.206.05.423.08.638.032.218.306.389.489.312.101-.041.21-.063.304-.115 1.824-1.005 3.499-2.225 5.121-3.522.085-.068.153-.155.23-.232.243-.241.31-.743.143-1.073-.088-.175-.387-.317-.553-.262-.155.052-.317.091-.463.161-1.529.729-2.962 1.635-4.435 2.467-.187.105-.352.257-.512.404a1.012 1.012 0 0 0-.314.562c-.042.213-.06.432-.09.66m48.359 33.043c-.176.013-.332.084-.417.223-.455.741-.899 1.489-1.342 2.239a1.157 1.157 0 0 0-.109.307c-.055.221-.037.436.109.617.101.128.213.248.337.353.334.278.675.549 1.019.818.171.133.351.255.529.377.192.132.607.05.743-.142.032-.044.073-.082.101-.128.449-.748.83-1.529 1.166-2.334a.69.69 0 0 0 .04-.158.82.82 0 0 0-.128-.62c-.062-.089-.125-.181-.203-.254a9.877 9.877 0 0 0-1.689-1.273c-.044-.026-.107-.018-.156-.025M89.833 87.028c.359.026.713-.093.965-.426.199-.261.389-.531.555-.814.442-.757.872-1.521 1.301-2.286.079-.143.135-.299.2-.449.123-.288-.003-.686-.269-.878a2.526 2.526 0 0 0-.883-.425.634.634 0 0 0-.612.145 2.61 2.61 0 0 0-.425.495c-.713 1.105-1.416 2.218-2.119 3.33-.058.091-.087.199-.132.3-.108.244.022.562.27.696a2.69 2.69 0 0 0 1.149.312m35.524 17.55c-.068-.099-.131-.277-.256-.354-.558-.346-1.134-.663-1.705-.987a.476.476 0 0 0-.157-.047.637.637 0 0 0-.469.089.809.809 0 0 0-.229.23 14.88 14.88 0 0 0-1.177 2.347c-.09.227.035.59.243.73.64.433 1.33.76 2.051 1.03.236.089.599-.028.733-.233.061-.093.133-.177.182-.273.335-.693.606-1.409.781-2.16.025-.103.003-.217.003-.372m42.154 4.168c-.015-.132-.031-.295-.054-.458-.03-.225-.32-.53-.534-.569-.491-.091-.981-.103-1.467.024a.861.861 0 0 0-.508.393 1.15 1.15 0 0 0-.152.29c-.223.733-.438 1.471-.654 2.207-.015.051-.004.108-.011.162-.021.165.157.496.302.55.621.229 1.258.381 1.924.38.055 0 .108-.017.163-.021.246-.023.547-.266.604-.493.191-.802.355-1.607.387-2.465m-37.76-2.087c.005-.08-.19-.386-.352-.462a17.118 17.118 0 0 0-1.986-.787c-.101-.034-.217-.027-.326-.026-.234.001-.418.115-.559.294a1.255 1.255 0 0 0-.167.282c-.255.608-.489 1.224-.63 1.87-.012.053-.006.109-.013.164-.014.116.103.376.199.433.095.056.186.124.288.158.729.245 1.484.387 2.246.491.31.042.689-.17.818-.446.068-.148.149-.296.192-.453.131-.476.286-.947.29-1.518M66.81 49.271c-.104.025-.232.02-.308.08-.51.404-1.009.821-1.51 1.236-.166.139-.334.278-.487.431-.335.337-.439.749-.305 1.199a3.61 3.61 0 0 0 .902 1.526c.122.123.466.172.61.081.045-.029.099-.047.141-.081.762-.615 1.438-1.319 2.075-2.061.035-.04.059-.091.083-.139.098-.201.153-.412.054-.625a6.112 6.112 0 0 0-.978-1.49c-.067-.075-.184-.107-.277-.157m113.864 51.291c-.119-.021-.369.097-.429.198a9.83 9.83 0 0 0-.818 1.786c-.074.213-.038.438.052.642.065.148.144.298.242.426a7.622 7.622 0 0 0 1.503 1.504c.209.156.588.094.729-.124a7.13 7.13 0 0 0 .994-2.413.738.738 0 0 0 .014-.163c-.001-.284-.073-.555-.309-.727-.573-.421-1.162-.818-1.817-1.105-.048-.021-.107-.016-.161-.024m-26.137 1.93a.39.39 0 0 0-.206.231c-.288.879-.577 1.758-.857 2.639-.049.154-.067.32-.082.481-.014.167.021.337.142.455.47.453.977.863 1.551 1.183.09.05.206.058.312.075a.483.483 0 0 0 .42-.206c.364-.676.566-1.41.749-2.15a.779.779 0 0 0 .018-.161c.015-.279-.034-.547-.203-.772a5.6 5.6 0 0 0-.524-.624c-.385-.381-.697-.835-1.15-1.146-.038-.025-.106-.005-.17-.005m-5.818.776h-.031c0-.327.004-.653-.003-.979a1.346 1.346 0 0 0-.057-.318.249.249 0 0 0-.231-.193.233.233 0 0 0-.156.036c-.171.133-.345.266-.497.419a17.183 17.183 0 0 1-1.715 1.507 1.136 1.136 0 0 0-.389.515c-.271.771-.479 1.557-.562 2.371-.013.129.225.272.366.218a11.898 11.898 0 0 0 2.723-1.458c.043-.032.08-.073.119-.11.204-.193.354-.423.376-.703.033-.436.039-.872.057-1.305m26.564 3.13c-.101 0-.156-.009-.209.001-.484.083-.953.216-1.365.494a.619.619 0 0 0-.287.555c.027.322.095.645.177.958.165.629.319 1.264.608 1.854.117.237.446.391.682.314.624-.201 1.193-.519 1.769-.825.095-.05.174-.128.263-.189.146-.104.229-.417.153-.592-.021-.05-.029-.106-.056-.152-.375-.661-.75-1.322-1.131-1.979a.722.722 0 0 0-.212-.243c-.132-.089-.285-.145-.392-.196m-57.14-7.232c-.032-.102-.041-.224-.104-.304-.37-.465-.752-.921-1.133-1.378-.125-.15-.46-.156-.597-.015-.563.587-1.045 1.242-1.532 1.891-.255.337-.237.867.01 1.227.37.536.803 1.021 1.237 1.504.091.099.366.104.452.014.036-.039.091-.065.12-.108.571-.794 1.052-1.641 1.494-2.511.024-.047.03-.104.039-.157.009-.054.01-.108.014-.163m-6.467-4.741c.099-.043.269-.079.386-.177.292-.241.567-.506.836-.772 1.19-1.184 1.11-1.073.771-2.717-.066-.318-.15-.634-.228-.949-.055-.227-.35-.336-.507-.187-.668.637-1.334 1.274-1.999 1.913-.077.076-.146.16-.217.242a.808.808 0 0 0-.179.759c.14.526.344 1.029.585 1.517.047.095.13.172.202.251.077.084.179.121.35.12m-12.09-6.167c.172-.01.446-.145.572-.284.072-.08.153-.157.207-.25.3-.519.538-1.064.711-1.639.087-.291-.104-.676-.399-.808a6.774 6.774 0 0 0-1.389-.459c-.345-.074-.677.038-.857.316-.177.272-.346.552-.521.826-.204.32-.415.638-.617.959-.086.138-.155.285-.231.43-.134.252.007.615.265.65.698.097 1.398.184 2.097.271.052.008.108-.007.162-.012M71.389 70.594c.003.248.06.569.195.875.022.05.051.097.075.146.093.199.398.277.553.13.833-.793 1.667-1.586 2.494-2.385.709-.685 1.399-1.391 2.188-1.99.258-.195.472-.455.692-.698a.725.725 0 0 0 .135-.293.246.246 0 0 0-.111-.282.284.284 0 0 0-.149-.046.743.743 0 0 0-.454.163c-1.35 1.036-2.781 1.95-4.241 2.82-.329.197-.655.401-.968.622-.288.202-.409.502-.409.938m109.164 35.947c-.049-.115-.076-.295-.18-.402-.562-.59-1.144-1.163-1.721-1.739-.133-.133-.459-.146-.611-.047-.37.24-.674.549-.93.904-.17.234-.189.502-.129.777a.695.695 0 0 0 .051.156c.327.688.713 1.344 1.169 1.956.146.198.525.288.739.18.098-.048.202-.089.288-.151.44-.324.836-.695 1.163-1.137a.526.526 0 0 0 .081-.141c.031-.103.048-.209.08-.356m-66.075-12.54c-.105.015-.233-.005-.313.049-.645.429-1.164.989-1.642 1.591-.217.273-.258.601-.148.933.172.523.434 1.003.729 1.465.059.09.148.158.225.236.097.099.345.138.462.072.094-.054.201-.096.277-.169.456-.44 1.237-1.469 1.482-1.949a.628.628 0 0 0 .032-.481c-.187-.575-.443-1.118-.828-1.589-.062-.078-.183-.106-.276-.158m24.24 12.583c-.897.091-1.697.253-2.491.442a.687.687 0 0 0-.47.421c-.169.405-.252.832-.315 1.264-.046.313.229.688.537.704.271.016.546.035.812-.002.539-.076 1.072-.19 1.607-.29.415-.077.679-.329.797-.726.093-.312.176-.629.237-.949.029-.156.002-.323-.005-.485-.006-.131-.187-.329-.309-.344-.16-.015-.321-.027-.4-.035M70.622 53.932c-.028-.104-.032-.225-.09-.307a4.452 4.452 0 0 0-1.038-1.03c-.16-.115-.469-.096-.606.049-.037.039-.086.069-.119.111a7.895 7.895 0 0 1-1.639 1.585c-.132.095-.253.207-.373.317-.08.073-.149.159-.225.237-.185.191-.213.557-.044.75.179.204.361.408.56.592.117.108.265.189.41.26a.524.524 0 0 0 .472-.013c.097-.048.2-.096.279-.167.767-.693 1.532-1.389 2.29-2.092.07-.066.084-.194.123-.292m61.591 55.596c.288-.023.669-.034 1.043-.087.344-.05.587-.272.745-.575.203-.39.285-.814.338-1.248.03-.258-.182-.573-.428-.61-.643-.101-1.285-.198-1.929-.29a.98.98 0 0 0-.324.008c-.22.039-.412.137-.521.345-.281.534-.411 1.116-.53 1.702-.065.318.19.642.54.674.325.031.649.05 1.066.081m28.019.401c-.047.204.159.563.471.686.05.021.097.053.148.065.369.092.738.186 1.109.267.234.051.596-.124.704-.322.025-.048.062-.091.083-.14.287-.649.501-1.322.673-2.009.111-.446-.167-.763-.553-.849a30.283 30.283 0 0 0-1.118-.225c-.299-.054-.691.155-.824.42-.024.048-.062.091-.082.141a10.817 10.817 0 0 0-.611 1.966M73.335 55.886c-.031-.101-.039-.22-.098-.302a1.592 1.592 0 0 0-.93-.613.993.993 0 0 0-.477.025c-.154.04-.302.123-.436.211-.826.535-1.534 1.205-2.193 1.928-.197.216-.158.557.072.709.364.24.746.442 1.161.578.28.09.553.057.765-.132.728-.651 1.428-1.33 2.032-2.101a.488.488 0 0 0 .068-.146c.017-.05.024-.104.036-.157m107.508 41.899c0 .145.002.199 0 .253-.026.589.198 1.062.678 1.402.354.252.721.486 1.087.716.09.056.205.07.31.099.188.052.463-.089.549-.262.098-.199.145-.407.156-.626.044-.774-.146-1.511-.39-2.233-.089-.27-.314-.439-.569-.552a1.77 1.77 0 0 0-.796-.132c-.391.017-.763.269-.869.628-.078.259-.118.528-.156.707m-39.528 10.625c.107-.008.222.004.322-.027.412-.135.829-.261 1.227-.43.423-.179.699-.521.804-.967.111-.475.181-.958.264-1.439.009-.05-.023-.104-.032-.158-.015-.116-.247-.301-.357-.285-.054.008-.113-.005-.162.013-.607.231-1.22.454-1.818.707a1.08 1.08 0 0 0-.621.715c-.091.313-.173.628-.246.945-.023.103-.009.215-.011.324-.008.326.309.629.63.602m16.839-2.549c-.103.029-.215.04-.303.092a.61.61 0 0 0-.226.228 9.179 9.179 0 0 0-.679 2c-.064.291.05.539.26.729.325.293.694.52 1.109.668.231.083.594-.046.706-.268a6.077 6.077 0 0 0 .649-2.17.639.639 0 0 0-.246-.575 4.95 4.95 0 0 0-1.113-.667c-.047-.021-.104-.025-.157-.037m-51.922-17.44c.378-.021.706-.027 1.032-.061.338-.034.631-.184.863-.432.3-.321.547-.681.724-1.087a.467.467 0 0 0-.333-.625c-.545-.099-1.092-.059-1.638-.04a2.437 2.437 0 0 0-.486.071 1.088 1.088 0 0 0-.561.322 4.342 4.342 0 0 0-.797 1.233c-.073.173.086.501.267.521.326.038.652.07.929.098M63.184 48.216c-.005.496.095.968.327 1.41.063.121.301.18.44.107.783-.41 1.414-1.003 1.977-1.672a.758.758 0 0 0 .149-.617 2.622 2.622 0 0 0-.311-.922c-.126-.216-.499-.327-.714-.205-.572.321-1.08.73-1.566 1.165-.207.187-.301.448-.302.734m117.754 43.648c-.068.01-.121.021-.175.025-.145.014-.31.19-.309.331 0 .106-.022.219 0 .32.142.634.286 1.266.445 1.895.072.287.298.44.566.529.101.032.211.051.317.056.165.007.362-.009.438-.153.229-.432.546-.8.809-1.206.027-.042.03-.104.031-.157a.45.45 0 0 0-.021-.159c-.143-.421-.381-.787-.746-1.035a2.69 2.69 0 0 0-1.355-.446m-77.386-5.993h-.126c-.474.012-.823.227-1.061.634-.22.378-.392.773-.472 1.204a.465.465 0 0 0 .133.443c.075.07.178.133.277.151.459.081.862-.031 1.164-.405a5.9 5.9 0 0 0 .779-1.233c.165-.355.037-.746-.496-.777l-.198-.017M65.034 43.502l-.011.001c-.022-.27-.041-.54-.068-.809-.011-.108-.041-.213-.058-.319-.025-.152-.214-.314-.336-.286a.355.355 0 0 0-.255.187 10.13 10.13 0 0 0-.82 2.455c-.031.153-.004.321.003.482.007.141.227.292.352.255.431-.124.771-.383 1.06-.714a.67.67 0 0 0 .178-.443c-.003-.269-.029-.539-.045-.809m123.834 48.951c-.038.005-.306.038-.571.079-.179.029-.336.347-.272.52.133.363.346.671.633.928.169.15.373.221.594.223.331.003.64-.083.918-.272a.579.579 0 0 0 .23-.567c-.105-.571-.436-.879-.976-.908-.108-.008-.216-.003-.556-.003m-3.661-.001c-.104.011-.266.025-.426.044-.223.026-.371.281-.299.484.156.429.442.743.847.94a2.99 2.99 0 0 0 1.088.31.913.913 0 0 0 .321-.032.228.228 0 0 0 .166-.252c-.029-.337-.234-.598-.396-.876a1.119 1.119 0 0 0-.918-.588c-.109-.008-.217-.015-.383-.03m8.313.161c-.003-.046-.005-.101-.011-.154-.041-.354-.314-.604-.653-.6a1.71 1.71 0 0 0-.928.259.554.554 0 0 0-.265.554c.017.16.053.321.105.474a.658.658 0 0 0 .631.426 1.24 1.24 0 0 0 .88-.363.82.82 0 0 0 .241-.596m3.526-1.918c.078-.094.107-.201.039-.281s-.181-.074-.29-.022c-.432.209-.87.409-1.293.635-.136.071-.247.202-.343.327-.06.079-.082.196-.098.299-.031.213.215.43.405.357.147-.057.303-.112.429-.204.434-.317.802-.704 1.151-1.111M74.873 108.623c-.439 0-.879-.014-1.318.002-1.438.053-2.844-.192-4.253-.425a3.241 3.241 0 0 1-.322-.07c-1.431-.389-2.84-.839-4.189-1.473-1.505-.706-2.85-1.647-4.128-2.693a9.273 9.273 0 0 1-1.485-1.537c-.201-.261-.394-.528-.598-.786-1.362-1.719-2.165-3.68-2.538-5.827-.056-.324-.123-.648-.171-.974a7.531 7.531 0 0 1-.019-2.136c.167-1.197.392-2.381.818-3.522a11.6 11.6 0 0 1 1.385-2.606c.743-1.062 1.685-1.869 2.789-2.514.474-.277.94-.567 1.41-.852a7.898 7.898 0 0 1 2.117-.893 6.89 6.89 0 0 1 1.3-.199c1.727-.111 3.393.18 5.01.77.67.245 1.329.522 1.985.804.353.149.697.326 1.032.514a41.675 41.675 0 0 1 4.569 2.939c1.1.816 2.188 1.657 3.158 2.636a84.017 84.017 0 0 0 1.875 1.853c1.08 1.024 1.999 2.188 2.915 3.354.818 1.042 1.435 2.208 1.957 3.423.306.712.46 1.466.576 2.227a3.55 3.55 0 0 1-.052 1.311 9.52 9.52 0 0 1-.212.796c-.33 1.036-.984 1.827-1.876 2.429-.227.154-.476.273-.71.417-.233.145-.475.28-.685.453-.906.744-1.949 1.224-3.041 1.611-.362.128-.727.25-1.099.348-1.33.353-2.673.623-4.059.615-.714-.005-1.427-.001-2.141-.001v.006zm5.406-4.061c.503-.01 1.107-.023 1.711-.033.833-.015 1.63-.226 2.417-.466a4.22 4.22 0 0 0 1.176-.587c.669-.467 1.057-1.102 1.134-1.917a4.588 4.588 0 0 0-.229-1.947c-.504-1.473-1.284-2.787-2.271-3.983-.419-.507-.846-1.009-1.271-1.512-.142-.167-.281-.338-.436-.493-.927-.935-1.813-1.915-2.873-2.708a3.716 3.716 0 0 1-.377-.319c-.748-.73-1.568-1.373-2.379-2.028a17.11 17.11 0 0 0-2.59-1.747c-.289-.156-.582-.31-.864-.479-1.468-.888-3.057-1.485-4.697-1.96a4.701 4.701 0 0 0-.806-.155c-.876-.091-1.754-.1-2.632-.035-.442.031-.858.154-1.27.321-1.164.471-2.449 1.815-2.89 3.018a18.75 18.75 0 0 0-.846 3.177 5.414 5.414 0 0 0 .023 2.126c.046.214.094.429.129.646.287 1.729 1.083 3.221 2.211 4.531.932 1.084 1.967 2.068 3.201 2.819.282.171.554.357.832.533.466.294.957.536 1.461.757 1.363.596 2.784 1.02 4.226 1.363 1.709.407 3.443.693 5.179.962.324.05.655.066.984.079.548.018 1.098.023 1.747.037m-15.83-1.998c-.044-.098-.063-.221-.134-.286-.516-.479-1.051-.938-1.639-1.328a.523.523 0 0 0-.469-.05c-.321.108-.559.32-.723.616-.092.165-.045.47.091.606.463.462.985.848 1.539 1.19.141.087.31.101.473.071.335-.059.603-.229.799-.509a.399.399 0 0 0 .063-.31m1.568.923c-.052.013-.107.021-.157.04-.26.099-.473.261-.65.476-.177.214-.11.546.142.697.375.224.758.43 1.182.548a.722.722 0 0 0 .479-.01c.316-.135.532-.367.637-.698.044-.138-.036-.352-.15-.441a3.559 3.559 0 0 0-1.16-.583c-.101-.032-.215-.021-.323-.029m-5.49-3.086c.119-.068.273-.128.393-.229.287-.239.358-.607.169-.869-.285-.393-.581-.776-.878-1.161-.122-.157-.424-.164-.592-.024-.285.236-.39.568-.29.861.141.413.337.797.613 1.136a.78.78 0 0 0 .248.201c.092.046.204.054.337.085m10.416 5.181a.509.509 0 0 0-.241-.395c-.382-.202-.785-.337-1.218-.354a.593.593 0 0 0-.302.09c-.189.109-.32.278-.424.469-.153.28-.03.571.219.669.404.156.831.193 1.258.228.378.029.708-.299.708-.707M58.251 94.17c-.12.003-.226.052-.26.162-.046.151-.097.314-.085.467.05.648.219 1.271.449 1.877.018.049.065.085.093.13.081.124.311.162.441.073.194-.132.298-.327.266-.547-.1-.698-.357-1.349-.646-1.988-.046-.101-.147-.152-.258-.174m15.606 12.601c.12-.011.228-.017.334-.031.052-.008.102-.037.153-.054.127-.041.252-.241.235-.379-.013-.111-.067-.21-.172-.259a3.857 3.857 0 0 0-1.242-.341.958.958 0 0 0-.612.146c-.099.056-.15.152-.169.266-.022.143.096.331.228.387.401.175.823.25 1.245.265m2.964-.459c-.107.014-.216.021-.322.043-.137.026-.192.112-.139.229.017.039.081.066.129.081.05.014.107.011.161.008a.962.962 0 0 0 .161-.024c.153-.037.322-.044.415-.201.052-.088-.121-.147-.405-.136M43.24 120.136c-.72.033-1.585-.092-2.444-.295a18.728 18.728 0 0 1-2.506-.8 6.223 6.223 0 0 1-.742-.354c-1.257-.688-2.436-1.481-3.42-2.539a14.519 14.519 0 0 0-.582-.582c-1.519-1.461-2.679-3.18-3.66-5.036a25.025 25.025 0 0 1-1.797-4.411c-.407-1.34-.471-2.71-.293-4.075.218-1.67.875-3.17 2.114-4.36 1.05-1.009 2.275-1.73 3.717-1.994a18.737 18.737 0 0 0 2.389-.606c.26-.084.533-.126.799-.193.65-.162 1.292-.146 1.956-.029 1.032.181 2.022.478 3.003.843 1.605.597 3.099 1.403 4.523 2.337.916.6 1.799 1.257 2.575 2.042.386.389.779.772 1.165 1.162 1.367 1.38 2.419 2.973 3.197 4.751.445 1.012.717 2.073.883 3.161.144.943-.021 1.858-.351 2.746-.097.256-.219.503-.326.755-.192.454-.381.91-.572 1.365-.128.303-.241.613-.388.906-.652 1.294-1.514 2.394-2.744 3.214-1.346.897-2.784 1.521-4.367 1.837-.651.128-1.306.15-2.129.155M32.397 98.324c-.561.359-1.028.822-1.459 1.323-.071.083-.122.183-.183.272-.151.223-.059.566.191.709.302.172.712.047.838-.255.042-.102.1-.198.13-.302.165-.581.324-1.164.485-1.746l-.002-.001zm13.14 16.094c1.31.04 2.584-.271 3.822-.75.898-.347 1.582-.975 2.146-1.737.129-.173.219-.38.305-.58.358-.837.38-1.711.219-2.588a8.992 8.992 0 0 0-.761-2.34c-.435-.893-.993-1.706-1.553-2.52-.722-1.049-1.614-1.94-2.593-2.742-.892-.73-1.838-1.387-2.807-2.015-1.775-1.15-3.721-1.867-5.777-2.303-1.021-.216-1.96.047-2.833.576a2.182 2.182 0 0 0-.494.431c-.889 1.031-1.39 2.228-1.456 3.592-.03.603-.028 1.207-.025 1.81.003.772.127 1.525.316 2.276.325 1.291.824 2.502 1.559 3.608.923 1.394 1.312 1.784 2.704 2.843.088.064.173.134.261.199.886.663 1.841 1.193 2.905 1.515.21.062.415.145.628.197 1.118.279 2.238.552 3.434.528m-14.468-8.762c-.1.012-.209.018-.315.039-.324.062-.554.422-.463.742.103.363.21.729.342 1.084.114.305.249.603.452.862.138.18.317.311.541.322a.897.897 0 0 0 .829-.419.68.68 0 0 0 .112-.464 5.404 5.404 0 0 0-.434-1.562c-.169-.379-.481-.574-.894-.605-.054-.003-.109.001-.17.001m10.601 12.367c.237 0 .345.009.452-.001.344-.031.622-.178.781-.495.072-.144.128-.297.169-.452.106-.406-.069-.756-.445-.93-.297-.138-.604-.23-.936-.22a.824.824 0 0 0-.584.237 3.11 3.11 0 0 0-.674 1.092c-.073.192.049.416.269.522.349.167.716.234.968.247M37.068 114a.601.601 0 0 0-.143-.452 3.738 3.738 0 0 0-1.009-.812.92.92 0 0 0-.633-.078c-.272.054-.503.195-.718.366-.16.128-.21.427-.103.594.298.464.692.831 1.127 1.161.256.193.65.201.908-.018.164-.139.311-.301.447-.468.065-.079.085-.195.124-.293m-7.313-10.886c.038.266.071.535.117.803.034.196.265.384.467.399.055.004.11.017.164.011.959-.099 1.224-.5 1.125-1.421-.006-.053-.022-.107-.035-.16a.916.916 0 0 0-.487-.624 3.04 3.04 0 0 0-.613-.218c-.261-.07-.579.137-.623.395-.045.267-.076.538-.115.815m8.884 13.771a.66.66 0 0 0 .454-.15c.3-.248.493-.567.618-.934a.62.62 0 0 0-.147-.596 1.627 1.627 0 0 0-.858-.424.628.628 0 0 0-.464.104 2.745 2.745 0 0 0-.788.804c-.112.17-.08.472.063.598.245.217.515.394.816.521.097.042.207.053.306.077m-4.238-5.614c-.002-.055.006-.111-.009-.161a2.486 2.486 0 0 0-.902-1.302.543.543 0 0 0-.459-.099 1.75 1.75 0 0 0-.447.17.66.66 0 0 0-.284.835c.178.396.396.766.714 1.064a.624.624 0 0 0 .432.19c.343-.002.627-.136.835-.406.062-.081.082-.194.12-.291m11.678 5.854a.533.533 0 0 0-.211-.419c-.337-.254-.858-.254-1.206-.003a.531.531 0 0 0-.114.113c-.192.256-.213.64-.022.904.177.246.449.274.725.231.274-.042.507-.167.688-.383a.653.653 0 0 0 .14-.443m2.693-.959c-.032-.037-.057-.096-.097-.108-.162-.05-.312.017-.459.075-.097.039-.191.092-.283.143-.146.08-.213.304-.12.404a.268.268 0 0 0 .286.076c.264-.073.483-.215.64-.441.027-.039.023-.099.033-.149M13.724 124.753c-.274 0-.548.006-.822-.001-1.627-.045-3.132-.48-4.49-1.398-.546-.37-1.074-.759-1.543-1.224-.311-.309-.621-.62-.936-.925a9.722 9.722 0 0 1-1.69-2.213 11.739 11.739 0 0 1-.871-1.947c-.368-1.058-.426-2.145-.334-3.247.019-.217.056-.437.118-.646.317-1.062.791-2.044 1.565-2.856.227-.238.464-.466.701-.694a5.579 5.579 0 0 1 1.334-.951c.829-.425 1.651-.859 2.435-1.368a4.756 4.756 0 0 1 2.645-.782c.603.002 1.206.001 1.809.006.607.006 1.2.108 1.782.278.949.275 1.871.619 2.758 1.061a11.68 11.68 0 0 1 3.84 3.04c.969 1.176 1.492 2.539 1.526 4.08.019.894-.134 1.747-.539 2.547-.397.783-.75 1.584-1.064 2.404a5.344 5.344 0 0 1-.732 1.281c-.132.176-.281.339-.401.521-.556.846-1.325 1.453-2.176 1.971a5.943 5.943 0 0 1-1.659.705c-.852.214-1.713.38-2.598.361-.22-.006-.439-.002-.658-.003zm7.786-9.818c-.022-.253-.031-.528-.074-.799a2.565 2.565 0 0 0-.169-.632c-.407-.914-.969-1.718-1.734-2.371-1.227-1.047-2.598-1.82-4.159-2.264-.638-.182-1.288-.258-1.935-.374a4.511 4.511 0 0 0-1.797.033c-.213.048-.433.072-.646.126-.723.183-1.283.601-1.703 1.212-.061.09-.116.188-.152.29-.224.626-.369 1.263-.241 1.935.051.269.089.541.118.814.065.605.246 1.181.465 1.744.382.98.93 1.865 1.596 2.675.454.553.965 1.052 1.587 1.42.856.506 1.743.931 2.748 1.046.163.018.324.061.485.09.384.07.765.058 1.144-.03.214-.05.429-.093.641-.148 1.638-.44 2.821-1.415 3.507-2.978.157-.356.25-.726.282-1.11.018-.22.024-.439.037-.679m-12.085 3.934c-.012-.108-.002-.225-.042-.321a2.838 2.838 0 0 0-.739-1.069c-.134-.119-.473-.146-.616-.04-.043.033-.093.059-.135.094-.377.326-.661.728-.895 1.164-.139.261-.112.524.051.774.151.232.341.425.566.585.226.16.553.176.772.036.375-.239.68-.547.918-.92.058-.09.081-.202.12-.303m-1.851-3.479a1.414 1.414 0 0 0-.184-.61c-.115-.199-.397-.289-.559-.157-.462.373-.926.745-1.376 1.132a.625.625 0 0 0-.195.592c.053.325.189.617.388.881.126.167.423.213.584.094a5.246 5.246 0 0 0 1.123-1.162c.164-.229.228-.488.219-.77m3.022 6.745c.095-.048.211-.075.282-.146.309-.314.508-.7.662-1.108a.466.466 0 0 0-.082-.456 1.173 1.173 0 0 0-.67-.433.587.587 0 0 0-.465.082 3.112 3.112 0 0 0-.91.915c-.104.158-.08.472.046.608.227.245.502.414.818.512.099.032.212.019.319.026m-3.694-10.004c0-.219.004-.329-.001-.437-.003-.055-.025-.106-.031-.161-.019-.15-.262-.261-.384-.172-.087.062-.187.114-.26.191a4.398 4.398 0 0 0-1.072 1.991.663.663 0 0 0 .019.321c.033.121.147.193.256.145.565-.254.943-.718 1.296-1.205a.816.816 0 0 0 .125-.299c.035-.158.045-.322.052-.374m6.195 10.586c.188-.027.403-.048.613-.092a.768.768 0 0 0 .291-.135c.182-.137.283-.325.256-.558a.444.444 0 0 0-.281-.369 3.983 3.983 0 0 0-.613-.198.617.617 0 0 0-.467.084c-.288.18-.471.436-.527.776-.024.146.097.368.222.395.158.033.317.061.506.097m3.878-.919c-.261.023-.522.044-.783.071-.05.006-.097.037-.147.052-.141.04-.251.266-.187.387.053.101.137.175.246.168.422-.024.834-.092 1.155-.403.026-.024.023-.113-.001-.147-.065-.087-.168-.118-.283-.128"/><path fill="none" d="M3 2h205.137v122.756H3z"/><path fill="#FFB547" d="M146.826 44.622l-.161-.146a3.298 3.298 0 0 0-.468-.389 2.326 2.326 0 0 0-.335-.186 14.136 14.136 0 0 1-1.964-1.079c-.17-.111-.341-.22-.51-.333-.112-.076-.13-.188-.107-.312.009-.046.067-.103.109-.105.043-.001.086-.003.129-.001.118.002.232-.015.35-.034.263-.044.526-.091.794-.099.053-.002.106-.009.16-.013l1.054-.087c.276-.024.554-.025.831-.064.147-.021.298-.013.447-.02l.38-.017c.024-.034.05-.058.06-.086.327-.906.75-1.77 1.158-2.639.24-.514.489-1.022.758-1.521.071-.131.152-.257.226-.387.06-.103.111-.208.17-.31.046-.078.109-.132.209-.111.043.008.089.026.126.016.147-.042.273.007.396.077.028.017.059.029.087.042.063.032.091.087.094.155.002.075.006.15.003.225-.013.353.018.705.035 1.057.013.256.058.509.078.765.032.414.104.825.121 1.242.007.213.038.425.044.639.004.128.016.256.018.384 0 .099.023.19.055.282.012.034.059.071.097.071.03.001.062.001.095-.001.288-.021.575-.049.862-.063.343-.017.685-.025 1.027-.033.191-.004.384.003.577-.002.415-.008.832-.025 1.249-.033.158-.004.319-.037.475.025.027.01.064.002.093-.005a.5.5 0 0 0 .12-.047c.115-.066.226-.05.33.023.077.056.15.119.224.18.033.027.03.093-.002.112-.072.045-.145.091-.219.133-.083.049-.169.091-.25.143a1.067 1.067 0 0 1-.262.119c-.081.025-.166.047-.24.088-.291.158-.586.309-.85.514a6.997 6.997 0 0 1-.664.446c-.264.163-.528.325-.793.486a6.876 6.876 0 0 1-.767.398c-.127.057-.246.127-.366.197-.049.029-.067.084-.055.141a.61.61 0 0 0 .047.152c.116.241.206.491.284.747.036.122.093.239.15.352.14.267.264.538.334.831a.57.57 0 0 0 .03.091c.103.227.144.469.189.71.011.053.008.108.024.158.106.302.16.62.28.918.027.067.025.127-.037.169-.065.047-.068.1-.036.166.016.028.028.058.04.084-.047.104-.156.106-.238.15a.63.63 0 0 1-.396.072c-.229-.149-.451-.297-.677-.438a5.518 5.518 0 0 1-.619-.457c-.245-.206-.484-.418-.753-.597-.054-.035-.104-.073-.161-.104a5.903 5.903 0 0 1-.946-.6c-.023-.019-.057-.026-.092-.042-.052.038-.108.07-.152.113-.186.179-.396.328-.604.477a15.33 15.33 0 0 0-.867.659 7.583 7.583 0 0 1-1.096.779c-.362.206-.717.424-1.076.637a.593.593 0 0 1-.269.096.127.127 0 0 1-.129-.071.32.32 0 0 1-.029-.217.86.86 0 0 1 .085-.206c.106-.198.214-.395.312-.596.229-.473.407-.964.574-1.461.187-.557.368-1.115.556-1.672a4.82 4.82 0 0 1 .163-.418c.043-.102.063-.205.081-.319"/><path fill="#FFB547" d="M151.124 44.147c.126-.077.242-.152.361-.222.074-.043.151-.081.229-.116.499-.219.974-.487 1.435-.779l.407-.256c.072-.046.146-.089.213-.143.231-.19.479-.359.731-.518.019-.012.032-.029.05-.041.022-.016.029-.035.013-.056-.012-.015-.032-.033-.048-.034-.214-.003-.428-.009-.642-.006-.32.005-.641.02-.962.023-.48.005-.959.05-1.438.096-.224.021-.447.04-.662-.054-.078.014-.113-.042-.149-.095-.126-.182-.169-.393-.195-.604-.035-.297-.053-.596-.076-.895-.004-.054-.001-.107-.007-.161l-.104-1.05c-.015-.149-.017-.299-.037-.447a5.091 5.091 0 0 1-.052-.799 3.645 3.645 0 0 0-.006-.256.128.128 0 0 0-.021-.057c-.004-.008-.017-.014-.027-.016-.009-.001-.022 0-.027.006-.028.032-.06.062-.077.1-.078.163-.152.329-.228.494l-.253.554c-.099.225-.189.454-.298.673a19.5 19.5 0 0 0-.853 2.004 1.07 1.07 0 0 0-.082.372.283.283 0 0 1-.178.248.61.61 0 0 1-.276.07c-.182-.009-.364-.013-.545-.02-.171-.007-.342-.023-.513-.021-.224.003-.448.019-.672.032-.512.03-1.023.06-1.537.093-.105.007-.21.027-.315.045-.018.002-.041.021-.045.035-.005.017.003.046.017.057.075.061.152.118.228.176.256.196.521.375.81.517.212.103.42.209.631.315.412.208.799.453 1.144.762.118.107.222.231.374.298.036.016.052.066.046.112-.003.022-.004.043-.01.064-.024.082-.047.165-.076.245-.093.261-.175.525-.255.792-.104.348-.239.686-.346 1.033a15.3 15.3 0 0 1-.401 1.149c-.06.148-.106.302-.158.454a.058.058 0 0 0-.001.032.05.05 0 0 0 .017.027c.006.006.017.012.024.01.131-.028.223-.121.325-.198.461-.347.919-.698 1.381-1.043a6.01 6.01 0 0 0 .819-.717c.102-.11.223-.199.338-.293a.167.167 0 0 1 .18-.025c.13.051.259.102.387.155a.275.275 0 0 1 .147.119c.073.135.185.229.305.321.145.111.292.215.447.311.227.141.452.282.661.451.184.147.361.301.54.453.099.083.196.167.312.224.014.007.038-.003.055-.01.009-.002.016-.018.016-.027a.172.172 0 0 0-.006-.064c-.13-.429-.248-.861-.421-1.277a6.073 6.073 0 0 1-.333-1.069c-.098-.439-.251-.86-.396-1.296.022-.071.049-.151.085-.257M137.334 87.35c-.012.029-.017.062-.035.086a.545.545 0 0 0-.119.225c-.027.135-.135.215-.209.318-.016.023-.05.038-.079.051-.187.082-.352.205-.517.32-.219.154-.431.318-.643.479-.103.076-.116.123-.078.25.055.174.106.348.198.508.289.506.445 1.062.595 1.619.012.041.02.09.006.125-.059.162-.083.332-.12.499-.011.05-.065.085-.121.083-.066-.002-.13-.016-.176-.064-.247-.259-.552-.438-.846-.633a7.244 7.244 0 0 1-.834-.648c-.063-.059-.128-.114-.193-.169-.03-.025-.093-.026-.119 0-.063.06-.13.112-.184.179a5.33 5.33 0 0 1-.915.848c-.111.084-.22.171-.327.26a4.039 4.039 0 0 0-.69.711l-.119.152c-.061.08-.142.084-.23.062-.038-.009-.082-.057-.082-.088a.765.765 0 0 1 .079-.373c.049-.095.099-.189.136-.289.069-.18.117-.365.156-.555.099-.493.149-.992.228-1.488.017-.105.021-.213.025-.32a.124.124 0 0 0-.051-.111 2.103 2.103 0 0 0-.188-.124c-.184-.106-.372-.209-.556-.316a3.193 3.193 0 0 1-1.053-1.015.218.218 0 0 1-.017-.215 2.24 2.24 0 0 1 .122-.226c.029-.048.071-.079.132-.072.042.005.086.015.128.015.128.002.256.013.384-.014.028-.007.07-.004.091.014.091.079.196.071.303.062.171-.014.341-.031.512-.043.255-.02.511-.043.749-.02.074-.029.091-.084.112-.13.1-.214.194-.428.29-.644.043-.098.079-.198.123-.295.1-.215.175-.437.23-.666a6.41 6.41 0 0 1 .33-1.004c.037-.088.083-.174.131-.256.054-.09.142-.125.244-.127.049-.001.086.018.103.058.008.02.021.038.025.058.073.346.166.688.292 1.016.164.43.304.867.439 1.306.037.122.086.241.138.359a.782.782 0 0 0 .101.162c.04.054.096.085.164.085.3.006.599.014.899.016.095.001.19-.012.286-.022.191-.021.382-.044.572-.066.043-.007.057 0 .178.067"/><path fill="#FFB547" d="M134.829 87.846c-.144-.332-.295-.65-.375-.996a1.422 1.422 0 0 0-.062-.184l-.418-1.072c-.007-.018-.026-.029-.039-.044a.235.235 0 0 0-.097.126c-.09.229-.192.452-.249.693-.085.354-.226.688-.345 1.031a1.036 1.036 0 0 1-.205.359c-.021.025-.052.043-.085.025-.086-.045-.165.012-.249.01-.061.042-.065.137-.155.163a1.953 1.953 0 0 0-.565.018 3.052 3.052 0 0 1-.447.03 8.277 8.277 0 0 0-.383.023c-.015.002-.028.026-.038.044-.004.006.002.021.008.028.027.033.053.066.084.094.166.154.356.272.555.381.131.072.263.141.396.207.145.073.271.167.389.287a21.71 21.71 0 0 1-.089.73c-.035.254-.066.508-.101.761-.034.242-.085.481-.114.737.042-.013.074-.015.097-.03.16-.123.32-.247.48-.373.286-.224.573-.446.823-.711.089-.095.176-.187.225-.31.02-.049.05-.094.078-.139.042-.066.097-.115.18-.116.021-.001.045 0 .064-.007a.235.235 0 0 1 .236.059c.127.115.257.227.385.338.145.127.286.258.434.38.083.067.175.12.266.178.023.015.043.007.051-.017.004-.01.011-.021.009-.029-.011-.041-.019-.084-.036-.121-.056-.115-.119-.228-.174-.343-.137-.292-.21-.604-.295-.913-.072-.268.032-.484.242-.646.186-.145.384-.271.575-.408.034-.023.064-.054.095-.084.004-.004-.001-.02-.004-.029-.003-.008-.008-.021-.015-.023-.148-.034-.298-.016-.447-.009a1.672 1.672 0 0 1-.685-.098"/><path fill="#FFF" d="M99.667 65.805c.063.004.127.01.191.011.296.002.533.138.74.333.131.127.246.268.335.426a.874.874 0 0 1 .116.428c.003.253-.032.49-.228.675a2.995 2.995 0 0 1-.703.691 1.753 1.753 0 0 1-.695.313c-.041.008-.085.008-.125.023-.185.071-.354.025-.524-.055a.728.728 0 0 1-.272-.217 1.599 1.599 0 0 1-.256-.512 2.961 2.961 0 0 1-.136-.85c-.002-.213.023-.429.185-.596.106-.209.303-.324.479-.46a.434.434 0 0 1 .208-.077.695.695 0 0 0 .185-.045c.161-.073.326-.096.5-.088M105.101 41.565c.558-.01.912.159 1.202.477.13.143.234.304.328.473a.666.666 0 0 1 .01.617c-.074.155-.176.29-.301.411-.199.196-.425.356-.65.518a1.227 1.227 0 0 1-.6.21.772.772 0 0 1-.406-.07 1.302 1.302 0 0 1-.676-.653 1.699 1.699 0 0 1-.155-.874.754.754 0 0 1 .04-.186c.027-.081.061-.161.096-.238.129-.286.331-.492.638-.59.249-.077.315-.095.474-.095M104.976 54.377c.163-.013.338.029.516.07a.863.863 0 0 1 .414.231c.211.212.399.442.529.719a.734.734 0 0 1 .049.467.257.257 0 0 1-.02.061c-.171.349-.375.672-.727.87-.064.037-.125.08-.191.116-.095.05-.188.104-.287.141a.698.698 0 0 1-.724-.116 6.843 6.843 0 0 1-.386-.337 1.725 1.725 0 0 1-.419-.638c-.093-.236-.093-.481-.054-.727a.264.264 0 0 1 .052-.114c.078-.102.161-.2.242-.299a.455.455 0 0 1 .206-.148.902.902 0 0 0 .349-.222.278.278 0 0 1 .204-.074h.247M109.734 76.516a.8.8 0 0 1 .434.096c.074.041.148.086.153.188.001.058.05.089.084.13.198.241.349.51.462.801a.955.955 0 0 1 .068.439c-.01.116-.023.233-.035.35a.649.649 0 0 1-.237.44c-.153.132-.308.267-.485.367-.248.142-.507.163-.766.029-.338-.175-.405-.192-.611-.618a3.137 3.137 0 0 1-.299-1.205c-.008-.127.016-.256.027-.383a.662.662 0 0 1 .098-.27.446.446 0 0 1 .317-.244c.179-.033.356-.074.534-.104.084-.014.17-.011.256-.016M112.473 31.532a.679.679 0 0 1-.118.432c-.034.055-.062.113-.095.167a.996.996 0 0 1-.228.268c-.144.11-.292.216-.438.322-.044.031-.092.056-.136.085-.231.16-.479.162-.734.074a.362.362 0 0 1-.085-.044 1.506 1.506 0 0 1-.289-2.311.624.624 0 0 1 .396-.192c.286-.039.574-.036.861.018a.576.576 0 0 1 .308.161c.135.137.267.276.386.428a.805.805 0 0 1 .172.504v.088M123.543 76.118a1.6 1.6 0 0 1 .248-.912c.021-.036.044-.073.068-.106.165-.213.374-.31.645-.248.157.035.31.074.452.153.129.07.269.126.406.182a.428.428 0 0 1 .174.135c.226.263.305.579.333.913a.4.4 0 0 1-.016.158c-.082.23-.144.469-.285.674-.117.17-.251.316-.435.415-.084.044-.168.092-.253.136-.244.127-.476.089-.691-.065a1.266 1.266 0 0 1-.412-.48 2.957 2.957 0 0 1-.217-.667c-.02-.094-.011-.193-.017-.288M135.037 47.778c0-.281.052-.552.147-.816a.968.968 0 0 1 .463-.512.642.642 0 0 1 .244-.066c.264-.026.515.041.747.146a.97.97 0 0 1 .443.407c.093.157.165.326.207.502.028.125.062.248.105.369.09.246.029.466-.136.656-.158.179-.37.289-.581.392a.52.52 0 0 1-.221.035c-.138 0-.275.007-.414.016-.347.024-.622-.118-.83-.394a.872.872 0 0 1-.161-.447c-.009-.096-.009-.193-.013-.288M115.611 45.211c.064.006.129.003.189.019.105.028.209.041.316.042a.506.506 0 0 1 .244.068c.158.087.312.186.426.331.182.232.229.498.193.784a.839.839 0 0 1-.125.359c-.121.19-.275.351-.462.479s-.39.22-.602.292a.715.715 0 0 1-.501-.01c-.089-.034-.176-.076-.264-.115-.447-.188-.616-.761-.544-1.093a1.65 1.65 0 0 1 .704-1.028.71.71 0 0 1 .426-.128M123.047 33.562a.785.785 0 0 1-.259.618c-.15.139-.32.257-.502.338-.228.1-.468.144-.717.049a1.013 1.013 0 0 1-.474-.364 1.529 1.529 0 0 1-.291-.866 3.333 3.333 0 0 1 .021-.479 1.4 1.4 0 0 1 .368-.765.563.563 0 0 1 .491-.182c.194.019.374.083.547.167a.397.397 0 0 1 .125.098c.239.274.451.566.567.917.017.051.039.099.06.148.047.11.074.223.064.321M145.002 27.952c.017-.243.046-.465.102-.683a.86.86 0 0 1 .267-.428.784.784 0 0 1 .402-.183.385.385 0 0 1 .158.011c.134.036.266.078.397.121.186.06.343.169.499.281a.425.425 0 0 1 .151.202c.092.238.189.474.237.729.081.432-.102.821-.493 1.009-.153.073-.312.136-.469.203a.591.591 0 0 1-.579-.046c-.335-.208-.554-.495-.624-.887-.02-.115-.033-.232-.048-.329M132.78 26.375c-.029.307-.056.562-.076.817a.275.275 0 0 1-.174.247 5.516 5.516 0 0 1-.389.145.268.268 0 0 1-.126.003c-.105-.015-.21-.034-.316-.052a.684.684 0 0 1-.342-.162 1.963 1.963 0 0 1-.507-.69 1.422 1.422 0 0 1-.073-.91c.037-.166.084-.331.129-.495a.728.728 0 0 1 .23-.375.332.332 0 0 1 .265-.09c.116.014.233.026.35.044.216.037.396.153.569.278a.452.452 0 0 1 .126.142c.14.24.271.484.297.769.011.126.046.251.037.329M133.825 81.221c-.046 0-.109-.002-.174 0a.49.49 0 0 1-.321-.124c-.296-.245-.397-.571-.381-.94.009-.191.058-.378.147-.552.059-.114.105-.233.165-.347a.803.803 0 0 1 .284-.338.444.444 0 0 1 .208-.078c.064-.004.128-.007.191-.017.185-.028.359.003.533.067.356.133.573.393.701.739.033.09.053.185.07.279.059.3-.024.569-.175.825a.531.531 0 0 1-.178.181 2.569 2.569 0 0 1-.736.302.695.695 0 0 1-.334.003M123.737 43.893c-.007-.278.049-.513.205-.719.117-.155.263-.28.436-.367a.783.783 0 0 1 .376-.063c.194.006.377.072.563.117a.52.52 0 0 1 .187.12c.16.144.268.331.4.498.088.217.188.429.176.675-.018.326-.173.564-.432.745-.054.037-.114.06-.167.096-.203.138-.436.166-.671.186a.765.765 0 0 1-.59-.204 1.363 1.363 0 0 1-.467-.887l-.016-.197M115.786 66.762a.943.943 0 0 1 .081-.449c.035-.076.08-.149.115-.227a.663.663 0 0 1 .355-.349c.05-.021.098-.046.148-.057.094-.021.188-.032.284-.045.097-.012.19-.018.276.045.086.062.199.063.287.132.229.175.475.324.663.549.194.232.291.491.245.798a.597.597 0 0 1-.144.315c-.151.18-.33.332-.526.464-.043.028-.095.046-.145.064a1.375 1.375 0 0 1-.376.066.679.679 0 0 1-.48-.141 4.97 4.97 0 0 1-.349-.28c-.224-.198-.346-.457-.422-.74-.012-.059-.011-.126-.012-.145M135.179 37.418c-.122-.042-.232-.117-.366-.108a.952.952 0 0 1-.664-.554 1.083 1.083 0 0 1-.111-.462c0-.139.003-.277.013-.415.006-.096.027-.191.033-.285.008-.141.051-.273.092-.405a.617.617 0 0 1 .113-.19.297.297 0 0 1 .251-.12c.086.002.171.002.254.018.146.029.289.072.436.103.172.037.312.138.453.233a.553.553 0 0 1 .149.163c.072.119.139.241.194.367.057.126.101.257.149.387a.504.504 0 0 1-.056.488c-.083.124-.166.247-.24.377a.598.598 0 0 1-.28.252c-.136.063-.273.12-.42.151"/><path fill="#FFB547" d="M145.323 85.451c.159-.018.284 0 .396.078a.693.693 0 0 1 .068.064c.025.025.035.062.017.088-.091.125-.121.271-.16.415a.184.184 0 0 1-.28.1c-.035-.024-.062-.058-.096-.084a.244.244 0 0 0-.319.026.908.908 0 0 0-.126.184c-.04.068-.013.184.057.229.071.047.146.088.224.123.215.096.43.189.646.282.236.1.408.269.533.488.026.046.05.096.06.146.043.224.041.448-.038.664-.062.17-.127.34-.19.51a.883.883 0 0 1-.288.378.583.583 0 0 1-.453.115 4.82 4.82 0 0 1-.714-.177.377.377 0 0 1-.255-.225c-.028-.068-.073-.129-.116-.191a.212.212 0 0 1-.039-.15.987.987 0 0 1 .087-.307.32.32 0 0 1 .274-.191.269.269 0 0 1 .258.094.742.742 0 0 1 .135.215.331.331 0 0 0 .267.207c.115.023.229.055.344.07.149.021.249-.09.264-.221.026-.266-.084-.479-.277-.652a1.08 1.08 0 0 0-.297-.187c-.206-.089-.411-.18-.616-.273a1.857 1.857 0 0 1-.225-.118.32.32 0 0 1-.148-.238 1.157 1.157 0 0 1 .049-.568c.067-.181.146-.355.259-.514a.94.94 0 0 1 .247-.248c.144-.097.301-.155.452-.132"/><path fill="#FFF" d="M116.576 54.767c.026-.241.07-.466.194-.654a.87.87 0 0 1 .728-.407 1.46 1.46 0 0 1 .596.106c.246.102.436.268.563.5.061.112.111.231.157.351.082.225.04.442-.069.648a1.022 1.022 0 0 1-.288.339c-.145.11-.283.226-.459.289a.756.756 0 0 1-.441.021 2.574 2.574 0 0 1-.303-.103c-.348-.137-.549-.396-.625-.756-.023-.116-.037-.232-.053-.334M157.851 71.855h-.16a.45.45 0 0 1-.384-.194c-.165-.22-.263-.458-.224-.743.036-.271.123-.516.297-.73.087-.106.165-.222.248-.333.04-.054.09-.088.161-.085a.338.338 0 0 0 .095-.01c.256-.07.508-.043.758.029a.86.86 0 0 1 .316.146c.048.039.112.059.168.09a.634.634 0 0 1 .328.449c.012.062.021.126.024.189a.684.684 0 0 1-.231.572 2.489 2.489 0 0 1-.385.285c-.126.08-.258.151-.389.222a1.327 1.327 0 0 1-.622.113M143.556 78.773c.045.003.088.003.13.009a.258.258 0 0 1 .221.199c.046.198.105.392.169.585.049.143.111.277.182.408.052.1.126.098.19-.005a1.75 1.75 0 0 0 .185-.406c.097-.316.201-.631.257-.959.006-.036.051-.077.088-.083a.476.476 0 0 1 .281.031c.07.033.127.077.146.158.012.053.03.104.036.156.024.234.089.461.143.689.068.291.133.583.198.874.022.095.049.187.065.281a.121.121 0 0 1-.025.089.92.92 0 0 1-.29.191c-.014.008-.042-.004-.059-.014a.281.281 0 0 1-.128-.177c-.033-.124-.057-.25-.087-.374-.03-.125-.062-.248-.096-.373a.22.22 0 0 0-.045-.082c-.009-.012-.047-.016-.055-.008a.775.775 0 0 0-.089.131 1.044 1.044 0 0 1-.527.494 1.472 1.472 0 0 0-.143.072c-.063.037-.124.025-.181-.011-.062-.04-.119-.088-.181-.131-.021-.016-.072.001-.078.026-.043.176-.098.35-.129.529-.037.209-.175.307-.359.363-.049.016-.104.014-.157.014-.018 0-.047-.017-.051-.031-.031-.1-.077-.194-.036-.309.053-.15.088-.308.125-.464.053-.22.062-.444.067-.669a5.87 5.87 0 0 0-.019-.607 2.027 2.027 0 0 1 .037-.51c.009-.039.05-.078.088-.081.043.001.086-.002.127-.005M127.695 60.494a.5.5 0 0 1-.305-.083c-.295-.182-.491-.435-.55-.784-.009-.052-.012-.107-.024-.158-.089-.347.016-.652.201-.938a.674.674 0 0 1 .462-.313c.031-.005.062-.015.093-.023.3-.083.565 0 .816.165.266.175.396.439.484.728a.6.6 0 0 1 .013.253c-.049.291-.157.558-.372.764-.177.17-.393.292-.629.367-.059.017-.124.015-.189.022M157.938 79.422c.013-.184.027-.344.037-.504.006-.078-.019-.105-.117-.106-.071 0-.127-.019-.161-.079a.247.247 0 0 1 .13-.344c.249-.094.504-.076.758-.033.171.027.33.086.474.185.07.05.143.095.214.142a.96.96 0 0 1 .288.297.474.474 0 0 1 .042.457.676.676 0 0 1-.276.342c-.081.051-.164.099-.243.15-.021.014-.019.039 0 .056.022.021.045.046.073.06.192.09.38.199.582.264.263.084.438.254.58.473.032.049.019.096-.03.138a.387.387 0 0 1-.259.109c-.04 0-.097-.009-.117-.036-.135-.167-.326-.23-.513-.311a7.16 7.16 0 0 1-.407-.188 1.649 1.649 0 0 0-.392-.133c-.022-.004-.067.034-.066.059l.019.575c.001.042.002.085-.001.128a.165.165 0 0 1-.108.146c-.099.037-.197.081-.308.084-.069.002-.125-.031-.137-.102a1.188 1.188 0 0 1-.023-.223 11.3 11.3 0 0 0-.058-1.055c-.018-.194.002-.384.019-.551m.567-.027c.009.051.015.104.029.153.005.017.031.039.046.038a.636.636 0 0 0 .471-.233c.052-.063.049-.176 0-.239a.701.701 0 0 0-.366-.245c-.038-.011-.09.014-.104.053-.012.03-.026.06-.03.091-.018.125-.031.253-.046.382M139.45 57.102c-.006.035-.013.109-.025.182a.585.585 0 0 1-.16.308c-.109.115-.219.232-.331.346a.552.552 0 0 1-.127.098 8.247 8.247 0 0 1-.394.21c-.314.159-.641.02-.825-.223a.825.825 0 0 1-.168-.475c-.012-.292.019-.576.156-.84.036-.066.059-.138.087-.207a.678.678 0 0 1 .259-.317.39.39 0 0 0 .054-.036c.175-.15.381-.179.6-.162.043.003.085.013.128.015a.54.54 0 0 1 .341.159c.031.028.06.061.09.092.209.217.304.366.315.85M177.799 32.109c.011.183.003.329-.041.475a.453.453 0 0 1-.147.241c-.282.222-.591.378-.962.37-.322-.007-.574-.136-.742-.417a1.267 1.267 0 0 1-.161-.982c.06-.251.183-.477.407-.63a.403.403 0 0 1 .204-.083c.159-.011.316-.01.473.045.23.08.467.142.688.253a.426.426 0 0 1 .222.256c.055.165.064.333.059.472"/><path fill="#FFB547" d="M142.291 85.9c.032.035.035.078.032.119-.012.203-.014.406-.041.606a3.04 3.04 0 0 0 .228 1.628.64.64 0 0 0 .405.383.627.627 0 0 0 .156.024.192.192 0 0 0 .145-.058.606.606 0 0 0 .178-.299c.021-.082.037-.166.039-.252a4.01 4.01 0 0 0-.098-1.113c-.035-.146-.062-.292-.091-.439a.778.778 0 0 1 .125-.58.286.286 0 0 1 .27-.139c.035 0 .067.02.073.05.065.345.15.688.185 1.039.039.403.03.81-.083 1.207-.035.123-.062.249-.096.371a2.445 2.445 0 0 1-.253.587.573.573 0 0 1-.527.304 1.294 1.294 0 0 1-.255-.023.737.737 0 0 1-.541-.407 3.122 3.122 0 0 1-.311-1.137 4.208 4.208 0 0 1 .002-.736 3.25 3.25 0 0 0 .007-.639c-.021-.171.051-.312.154-.44a.138.138 0 0 1 .079-.05c.073-.008.146-.034.218-.006"/><path fill="#FFF" d="M155.022 27.331a1.49 1.49 0 0 1 .254-.896c.065-.097.121-.201.186-.299a.473.473 0 0 1 .365-.228c.053-.005.105-.015.158-.017.305-.014.44.038.657.252.188.186.3.417.354.669a.77.77 0 0 1-.147.664c-.14.177-.281.347-.489.45-.048.023-.089.058-.134.088a1.108 1.108 0 0 1-.729.185.247.247 0 0 1-.169-.077c-.188-.203-.31-.433-.306-.715v-.076M167.907 61.554c.03.2-.019.385-.072.57a.806.806 0 0 1-.391.486 2.402 2.402 0 0 1-.716.269c-.277.055-.479-.059-.635-.271a1 1 0 0 1-.177-.475 1.492 1.492 0 0 1 .237-1.067.904.904 0 0 1 .303-.277c.258-.149.513-.115.766.003.125.058.25.121.35.222a.834.834 0 0 0 .207.148c.098.05.134.132.129.237-.003.053-.001.107-.001.155M149.278 78.268h.287a.58.58 0 0 1 .3.1c.051.033.062.092.019.133-.029.031-.061.059-.093.088a.276.276 0 0 1-.203.078 2.083 2.083 0 0 0-.51.045c-.113.025-.228.053-.341.082-.036.008-.08.067-.07.096.076.225.083.461.12.691.005.031.01.064.023.093.013.028.038.054.074.052.106-.008.213-.014.317-.027.159-.021.316-.047.476-.07.063-.009.127-.016.191-.02a.163.163 0 0 1 .117.04c.04.036.079.072.117.11.029.029.031.088.006.115a.576.576 0 0 1-.353.201c-.223.029-.441.071-.664.108a1.464 1.464 0 0 0-.124.028c-.032.007-.078.064-.075.095.017.202.033.404.054.606.01.099.062.129.153.096.18-.068.359-.139.54-.203.11-.039.223-.071.336-.104.063-.019.122-.005.181.033.266.178.248.208.01.369a.784.784 0 0 1-.2.096 9.145 9.145 0 0 0-.723.26c-.129.052-.264.088-.396.13a.314.314 0 0 1-.409-.249c-.02-.115-.042-.231-.047-.348a8.767 8.767 0 0 0-.141-1.143c-.04-.231-.074-.464-.105-.697a1.177 1.177 0 0 1 .032-.475.328.328 0 0 1 .147-.201 1.4 1.4 0 0 1 .664-.211c.094-.008.191-.002.288-.002v.005zM170.635 49.646c-.164-.01-.302-.012-.437-.06a.504.504 0 0 1-.216-.133.774.774 0 0 1-.205-.458 1.877 1.877 0 0 1 .001-.225.55.55 0 0 1 .027-.156c.075-.191.174-.371.336-.501.176-.14.361-.266.543-.398a.488.488 0 0 1 .365-.084c.236.034.459.107.657.239a.376.376 0 0 1 .13.139c.094.184.142.379.092.589a1.701 1.701 0 0 1-.154.419.85.85 0 0 1-.331.339c-.14.079-.286.146-.43.217a.647.647 0 0 1-.378.073M167.93 28.777c0 .043-.002.085 0 .128a.661.661 0 0 1-.269.555 3.126 3.126 0 0 1-.367.256c-.117.072-.245.13-.367.194a.609.609 0 0 1-.468.029.51.51 0 0 1-.138-.078.756.756 0 0 1-.246-.331 1.412 1.412 0 0 1-.093-.338 1.729 1.729 0 0 1 .203-1.082c.025-.047.058-.09.088-.135.095-.138.231-.198.39-.156.188.05.375.067.566.085a.936.936 0 0 1 .331.116c.096.051.18.114.23.214.014.028.033.055.051.081a.466.466 0 0 1 .089.301v.161zM146.58 78.641c.392.017.701.086.984.254.129.076.265.141.366.257a.4.4 0 0 1 .094.357.684.684 0 0 1-.026.093.89.89 0 0 1-.164.272c-.144.162-.313.29-.511.38-.127.057-.254.112-.381.17-.067.031-.092.076-.08.155.024.159.049.317.08.474.012.051.039.099.063.146.028.057.075.109.09.169.041.165.038.294-.148.369-.099.04-.198.081-.298.118-.015.005-.044-.009-.056-.022a.353.353 0 0 1-.072-.104 1.895 1.895 0 0 1-.146-.458c-.036-.199-.065-.4-.099-.601-.005-.032-.005-.065-.017-.095-.091-.234-.088-.481-.113-.725-.015-.15-.029-.299-.045-.447-.01-.085-.019-.091-.121-.113-.102-.021-.154-.076-.16-.166a.27.27 0 0 1 .049-.182.596.596 0 0 1 .305-.224c.153-.049.31-.087.406-.077m.141.845l-.01.001c.018.147.034.295.053.442.004.035.065.066.1.057a1.12 1.12 0 0 0 .562-.402c.019-.023.028-.057.039-.086.026-.069-.006-.154-.065-.196-.171-.12-.366-.165-.568-.19-.055-.007-.107.033-.108.088-.005.095-.003.191-.003.286M148.894 54.397a.494.494 0 0 1-.372-.139.998.998 0 0 1-.241-.446c-.085-.29-.008-.549.161-.787.074-.104.161-.199.25-.292.111-.114.237-.213.34-.338a.248.248 0 0 1 .261-.083c.104.022.206.053.31.081.021.006.051.013.057.027.051.128.186.131.279.194.035.023.074.048.098.082.122.162.252.318.318.515a.63.63 0 0 1 .034.22.33.33 0 0 1-.053.182c-.15.226-.325.422-.586.528-.087.036-.166.098-.255.132-.201.076-.415.093-.601.124M135.623 70.051c.057 0 .089.004.121-.002.155-.017.29.035.424.109a.536.536 0 0 1 .251.278 1.7 1.7 0 0 1 .116.782.42.42 0 0 1-.146.277c-.268.229-.547.438-.904.514a.38.38 0 0 1-.251-.018c-.057-.026-.116-.051-.171-.083a1.43 1.43 0 0 1-.399-.364.78.78 0 0 1-.165-.441c-.013-.207.03-.402.113-.59a.653.653 0 0 1 .498-.405c.177-.036.355-.078.513-.057M146.022 64.136h.152c.348.004.256-.012.585.122.273.111.4.331.427.619a.568.568 0 0 1-.211.508 2.778 2.778 0 0 1-.44.315c-.175.102-.36.181-.547.259-.242.103-.461.012-.599-.164a1.503 1.503 0 0 1-.292-.527 1.224 1.224 0 0 1 .117-.957.324.324 0 0 1 .229-.16c.146-.027.293-.059.443-.03.053.009.107.011.136.015M158.98 35.953c.002-.025.003-.111.012-.196a.862.862 0 0 1 .374-.642.295.295 0 0 1 .114-.052c.158-.022.317-.042.477-.054.117-.008.232.014.349.035.161.03.273.109.348.251a.714.714 0 0 0 .068.107c.193.258.185.533.073.818a.91.91 0 0 1-.257.362c-.104.09-.206.184-.312.272a.64.64 0 0 1-.136.084c-.114.056-.232.109-.349.161a.26.26 0 0 1-.188.004.502.502 0 0 1-.239-.152c-.2-.234-.332-.496-.334-.811v-.187M173.423 69.982c.042.006.107.008.169.026.151.048.303.101.452.155a.66.66 0 0 1 .381.369c.065.146.11.299.127.459a.66.66 0 0 1-.073.371 1.057 1.057 0 0 1-.219.273.288.288 0 0 1-.108.068 4.634 4.634 0 0 1-.676.187.365.365 0 0 1-.249-.03c-.086-.045-.172-.086-.257-.131a.75.75 0 0 1-.314-.31 1.393 1.393 0 0 1-.172-.544c-.028-.229.066-.418.207-.586.185-.216.434-.294.732-.307M161.161 80.877c.009 0-.014.001-.033-.006-.133-.039-.264-.08-.396-.121-.021-.008-.038-.02-.059-.027-.152-.071-.196-.171-.147-.34.021-.066.085-.109.146-.094.061.016.122.037.184.053.156.039.314.051.477.044.231-.009.438-.081.634-.196.049-.028.044-.1-.007-.131-.027-.016-.054-.033-.083-.048-.124-.062-.248-.125-.373-.183-.261-.123-.524-.239-.783-.365a1.815 1.815 0 0 1-.3-.184c-.075-.058-.139-.133-.201-.204-.052-.058-.064-.13-.072-.206-.028-.27.074-.475.278-.645.212-.18.46-.268.727-.312.07-.011.15.006.22.028a1.5 1.5 0 0 1 .682.459.435.435 0 0 1 .095.268c0 .031-.037.093-.068.101-.061.014-.123.031-.186.035-.066.005-.127-.016-.16-.081-.009-.02-.022-.037-.032-.056-.07-.157-.205-.241-.354-.308a.258.258 0 0 0-.245.018 1.143 1.143 0 0 0-.266.228c-.134.149-.109.332.055.44.071.045.148.082.226.119.27.129.541.255.81.385.077.035.151.078.228.117.155.078.279.195.389.326a.283.283 0 0 1-.002.381.932.932 0 0 1-.331.246 3.351 3.351 0 0 1-.89.256c-.047.007-.09.003-.163.003M140.724 79.951c-.008-.264.058-.49.141-.709a.748.748 0 0 1 .296-.369c.089-.059.188-.07.269-.01.151.113.316.16.5.186.225.031.425.139.599.285a.73.73 0 0 1 .197.249c.174.378.197.759.002 1.138-.084.164-.2.301-.354.404-.17.114-.351.203-.553.242a.615.615 0 0 1-.563-.149 1.6 1.6 0 0 1-.45-.725c-.059-.182-.103-.372-.084-.542m.632.029c-.023.287.078.554.207.812a.16.16 0 0 0 .188.081.773.773 0 0 0 .551-.771.687.687 0 0 0-.283-.576.5.5 0 0 0-.26-.112.3.3 0 0 0-.185.037.387.387 0 0 0-.219.358l.001.171M159.686 56.837c-.095 0-.191.001-.287-.001a.258.258 0 0 1-.171-.075c-.017-.014-.035-.026-.048-.042-.23-.285-.316-.599-.202-.956.096-.308.281-.544.561-.707.195-.113.409-.125.621-.089.145.024.287.077.419.149.096.052.177.12.229.216.138.255.184.524.101.804-.06.203-.205.347-.383.453a4.219 4.219 0 0 1-.338.182.628.628 0 0 1-.182.054c-.105.011-.212.01-.319.015v-.003zM177.266 52.397a1.158 1.158 0 0 1 .368-.92c.076-.074.155-.146.235-.215a.624.624 0 0 1 .567-.141 1.2 1.2 0 0 1 .545.251c.211.184.297.411.22.688-.052.186-.133.36-.243.518a.904.904 0 0 1-.22.229c-.15.1-.312.181-.473.264a.967.967 0 0 1-.468.088.418.418 0 0 1-.328-.172c-.144-.185-.221-.389-.203-.59M179.274 64.445l-.011.256a.79.79 0 0 1-.069.279.409.409 0 0 1-.183.218c-.162.079-.309.19-.494.22-.189.029-.378.07-.566.11a.374.374 0 0 1-.326-.092.384.384 0 0 1-.046-.044c-.149-.191-.25-.404-.242-.648.016-.436.207-.776.589-1.002a.524.524 0 0 1 .245-.064c.149-.007.3-.003.448-.001.031 0 .066.006.093.021.152.078.302.158.452.241a.192.192 0 0 1 .1.155c.009.117.014.234.021.352h-.011zM171.326 78.937a.767.767 0 0 1-.092.371c-.107.184-.211.368-.339.54a.804.804 0 0 1-.469.312c-.247.061-.486.031-.682-.164a1.23 1.23 0 0 1-.218-.273.639.639 0 0 1-.082-.305c0-.021.002-.043-.001-.064-.038-.344.113-.619.316-.875a.471.471 0 0 1 .116-.107c.362-.23.738-.252 1.12-.053a.52.52 0 0 1 .274.338c.026.091.04.185.057.28M156.308 81.098h-.063c-.207.013-.354-.097-.441-.264a1.551 1.551 0 0 1-.183-.959 2.2 2.2 0 0 1 .171-.58c.095-.223.261-.39.434-.547.133-.119.311-.141.483-.133.104.005.212.031.312.062.34.105.556.347.695.664.071.16.073.334.047.504-.092.545-.516.989-.896 1.133-.182.069-.361.132-.559.12m.973-1.487c.019-.103-.027-.228-.122-.338l-.127-.145a.475.475 0 0 0-.245-.139.177.177 0 0 0-.15.027.298.298 0 0 0-.141.238.264.264 0 0 1-.118.213c-.131.092-.186.227-.21.379-.007.053-.017.105-.019.158-.012.161.01.318.065.469.025.066.069.096.146.101.12.01.232-.011.336-.075.054-.033.11-.062.163-.097.266-.177.402-.427.422-.791M167.853 40.727c.016-.224.062-.46.188-.678.109-.191.266-.33.455-.435a.411.411 0 0 1 .15-.047.835.835 0 0 1 .497.071c.038.02.078.035.116.052.26.117.386.328.412.6a.92.92 0 0 1-.134.612c-.03.044-.057.091-.081.138a.722.722 0 0 1-.343.321c-.113.057-.233.104-.349.157a.566.566 0 0 1-.281.043.351.351 0 0 1-.253-.119c-.057-.063-.109-.134-.176-.184-.151-.114-.201-.267-.203-.445.002-.021.002-.042.002-.086M159.821 46.254c0-.096-.005-.191.001-.287a.505.505 0 0 1 .174-.331.848.848 0 0 1 .549-.226c.158-.012.319-.012.472.052a.58.58 0 0 0 .123.036c.213.036.364.172.498.325.19.214.167.598-.009.798a.843.843 0 0 1-.221.182c-.092.053-.188.104-.272.167a.835.835 0 0 1-.318.141c-.082.019-.168.026-.249.05-.212.063-.378-.014-.515-.167a.88.88 0 0 1-.234-.579v-.16h.001zM139.293 80.272c.007.228.051.425.137.611.021.046.071.075.13.073.195-.007.38-.053.545-.161.045-.029.085-.067.133-.087a.168.168 0 0 1 .123.001c.065.032.126.075.186.122.071.055.072.119.015.191a.723.723 0 0 1-.271.22 1.89 1.89 0 0 1-.671.2c-.363.027-.648-.093-.831-.421a1.495 1.495 0 0 1-.191-.8c.018-.407.114-.803.319-1.16.059-.102.13-.196.204-.287a.739.739 0 0 1 .25-.195.49.49 0 0 1 .401-.031c.123.043.236.098.34.176.075.057.105.199.061.291a.133.133 0 0 1-.039.049.536.536 0 0 1-.263.107c-.057.008-.103-.018-.15-.041-.021-.012-.063.002-.087.019-.025.017-.043.046-.06.073-.19.333-.262.697-.281 1.05M154.871 78.238c.155.011.305.027.453.027.138 0 .247.061.355.13.03.021.039.085.02.114-.057.084-.133.144-.234.15-.127.01-.256.006-.384.01-.096.003-.192.006-.287.016a.169.169 0 0 0-.146.149c-.026.233-.033.469.008.701.07.39.143.777.218 1.165.02.104.053.205.077.31.012.05-.019.109-.067.132-.078.035-.153.072-.242.078-.093.01-.167-.027-.208-.113a1.51 1.51 0 0 1-.115-.398l-.175-.944a3.065 3.065 0 0 1-.043-.542c-.001-.513.059-.49-.453-.389-.054.011-.106.015-.16.02-.053.006-.132-.053-.146-.105a.27.27 0 0 1 .012-.188.214.214 0 0 1 .082-.094.832.832 0 0 1 .177-.072 3.426 3.426 0 0 1 1.073-.156c.063.001.126-.001.185-.001M151.062 81.182c-.022-.037-.062-.08-.07-.127a2.21 2.21 0 0 1-.032-.381 6.488 6.488 0 0 0-.067-.925 6.195 6.195 0 0 1-.042-.732c0-.062.011-.128-.033-.184-.109-.017-.212.019-.315.04a.83.83 0 0 1-.285.025c-.073-.008-.145-.07-.15-.142a1.205 1.205 0 0 1 0-.159c.005-.057.068-.125.119-.139.011-.002.021-.006.031-.006.279-.015.542-.109.813-.164.24-.049.48-.096.727-.098.144 0 .272.041.384.132.021.017.027.062.011.085a.422.422 0 0 1-.288.184c-.105.013-.21.037-.313.059-.068.014-.104.057-.119.131-.066.34-.024.678.021 1.017.049.369.079.741.071 1.114-.003.084-.037.141-.113.178-.108.049-.214.101-.35.092M153.023 78.672c0 .225.004.427-.001.63-.006.267.024.53.075.792.053.273.07.549.062.826-.001.042-.007.084-.01.119-.021.021-.031.043-.049.051a3.387 3.387 0 0 1-.264.107c-.028.012-.064.006-.095-.003-.042-.011-.079-.036-.09-.081a.774.774 0 0 1-.02-.125 9.271 9.271 0 0 0-.104-.984c-.036-.208-.046-.422-.062-.635-.022-.245.02-.487.054-.729.003-.021.013-.04.019-.061.042-.124.18-.169.283-.087.068.051.127.112.202.18M139.438 88.385c-.074.021-.155.059-.237.065-.226.019-.44.075-.658.128a.656.656 0 0 1-.406-.033.126.126 0 0 1-.067-.101.478.478 0 0 1 .178-.394.33.33 0 0 1 .144-.064c.155-.033.313-.061.472-.082.2-.027.401-.047.603-.066.053-.006.106.005.159.008.024 0 .052.051.043.072l-.04.087c-.06.114-.115.227-.191.38M139.34 86.748c-.036.145-.109.238-.148.347a.374.374 0 0 1-.046.083c-.036.054-.081.104-.146.117-.166.036-.333.073-.499.099a.512.512 0 0 1-.341-.062.178.178 0 0 1-.079-.217.777.777 0 0 1 .177-.263.227.227 0 0 1 .17-.075c.193-.002.381-.045.571-.061.042-.004.085-.009.126-.005.063.008.126.021.215.037M137.467 80.074c.035.01.101.016.157.042.067.03.126.075.188.116.02.013.016.072-.007.084-.103.056-.201.123-.31.16-.242.084-.488.153-.734.226a.4.4 0 0 1-.125.011c-.055-.005-.104-.031-.124-.086a.606.606 0 0 1-.033-.154.209.209 0 0 1 .149-.221c.242-.08.493-.135.746-.173.022-.003.043-.001.093-.005M137.685 79.641c-.288.121-.419.155-.651.168a38.04 38.04 0 0 1-.577.022c-.029.002-.085-.047-.093-.078-.005-.021-.014-.041-.016-.062-.016-.181.051-.267.229-.271.224-.008.448-.006.673-.003.04 0 .084.014.123.029.089.036.178.074.263.118.022.012.031.05.049.077M181.188 78.416c.01.004.022.004.027.012.013.021.004.032-.023.023-.007-.002-.014-.012-.018-.021 0-.002.011-.01.014-.014M120.575 63.798c-.009.003-.02.012-.027.01-.032-.007-.034-.021-.008-.035a.042.042 0 0 1 .029.003c.004.003.004.015.006.022M120.729 63.403l.026-.007-.004.02zM161.713 28.407l.03.025-.022.021c-.007-.008-.016-.015-.019-.023-.002-.005.007-.014.011-.023M148.568 44.193c.007.007.021.018.019.021-.014.029-.029.027-.038-.002-.001-.003.013-.012.019-.019"/><path fill="none" d="M93.057 15.962h93.371v80.78H93.057z"/></svg>
