<svg xmlns="http://www.w3.org/2000/svg" viewBox="0 0 224 114"><path class="bubble" fill="#FFB547" d="M109.706 8.51c2.041-.616 3.983-1.204 5.928-1.79.974-.292 1.949-.57 2.946-.736.305-.052.613-.109.91-.2 1.727-.523 3.482-.85 5.227-1.23a93.827 93.827 0 0 1 3.191-.643c1.905-.348 3.808-.742 5.713-.995.76-.101 1.523-.248 2.286-.358 1.979-.288 3.961-.561 5.929-.72.606-.05 1.217-.134 1.823-.192.986-.096 1.978-.215 2.956-.27 2.333-.13 4.673-.291 6.993-.354.599-.016 1.191-.011 1.786-.015.596-.005 1.186.007 1.785-.015 2.104-.076 4.161-.011 6.202.085 2.115.099 4.222.236 6.292.433 3.437.326 6.844.711 10.124 1.316 1.432.265 2.893.492 4.25.87.128.036.262.071.398.092 1.541.229 2.938.655 4.343 1.068 1.915.565 3.816 1.147 5.722 1.724a18.15 18.15 0 0 1 2.187.806c.63.283 1.298.532 1.952.793 1.605.644 3.113 1.384 4.612 2.127.558.276 1.047.608 1.597.89 2.378 1.214 4.347 2.736 6.334 4.245.737.56 1.41 1.168 2.054 1.792 1.407 1.363 2.737 2.772 3.855 4.297.803 1.087 1.483 2.226 2.105 3.392.1.186.164.388.282.565.616.891.938 1.886 1.255 2.884.125.398.252.798.373 1.198.348 1.152.729 2.297.716 3.543.288 1.664.23 3.387.12 5.121-.125 2.012-.578 4.042-1.274 6.083-.376 1.102-.734 2.198-.897 3.297-.112.764-.341 1.538-.543 2.308-.188.716-.43 1.434-.784 2.144-.545 1.09-1.107 2.18-1.699 3.265-.234.433-.541.857-.855 1.277-1.01 1.365-2.119 2.702-3.258 4.03-.703.822-1.531 1.59-2.358 2.354-1.499 1.387-2.963 2.793-4.532 4.146-2.114 1.818-4.229 3.633-6.473 5.374-1.321 1.027-2.608 2.074-3.923 3.105-.571.448-1.167.881-1.753 1.316-1.706 1.271-3.487 2.486-5.115 3.807a6.2 6.2 0 0 1-.541.388c-2.135 1.384-4.118 2.884-6.189 4.321-.729.505-1.475 1-2.216 1.498-.372.249-.754.49-1.122.74a177.341 177.341 0 0 1-11.265 7.055c-.064.039-.132.072-.199.112-3.452 2.051-7.075 3.897-10.754 5.675-1.665.805-3.336 1.607-5.054 2.326-1.646.688-3.26 1.446-4.976 2.001a9.628 9.628 0 0 0-1.086.425c-1.059.49-2.171.861-3.29 1.211-1.938.605-3.876 1.207-5.817 1.807-.521.16-1.046.343-1.576.449-1.825.373-3.63.891-5.458 1.25-1.75.346-3.5.648-5.251.9a96.829 96.829 0 0 1-10.676.949c-.822.025-1.645.041-2.456.033-1.479-.02-2.95-.057-4.422-.094-3.688-.098-7.236-.488-10.711-1.029-.832-.13-1.649-.284-2.48-.416a22.234 22.234 0 0 1-2.234-.445c-.26-.068-.521-.141-.798-.18-1.33-.197-2.55-.547-3.763-.904-2.426-.717-4.841-1.446-7.256-2.176-.762-.229-1.487-.5-2.194-.797-1.171-.493-2.391-.937-3.562-1.432-3.164-1.338-6.205-2.785-8.992-4.469-.822-.498-1.681-.969-2.479-1.485-2.345-1.522-4.589-3.12-6.653-4.844-1.492-1.246-2.931-2.528-4.167-3.933-1.417-1.607-2.745-3.259-3.789-5.053-.427-.734-.837-1.472-1.128-2.26a6.798 6.798 0 0 0-.483-.994c-.656-1.162-1.027-2.409-1.17-3.73-.05-.473-.112-.946-.225-1.401a9.25 9.25 0 0 1-.268-2.198c-.005-.91-.05-1.814-.033-2.729.036-1.941.409-3.916.827-5.895.364-1.707.954-3.414 1.635-5.118.615-1.536 1.294-3.073 2.221-4.583.198-.322.371-.649.552-.975 1.034-1.843 2.202-3.661 3.62-5.424.542-.672 1.08-1.348 1.606-2.024.162-.208.281-.425.414-.64.103-.167.008-.489-.168-.576-.165-.083-.322-.178-.509-.238a60.908 60.908 0 0 0-1.709-.526 93771.67 93771.67 0 0 0-17.195-5.136 30.876 30.876 0 0 1-2.6-.885c-.713-.283-1.485-.506-2.247-.735-8.146-2.443-16.297-4.88-24.446-7.319-.571-.17-1.148-.339-1.713-.521a6.271 6.271 0 0 1-.705-.292c-.456-.21-.551-.715-.227-1.144.079-.105.15-.212.245-.312a23.464 23.464 0 0 1 2.154-2.013 2.176 2.176 0 0 1 1.495-.475c.803.04 1.601.09 2.389.159 1.148.104 2.318.146 3.494.183 1.762.055 3.537.079 5.263.227.645.054 1.316.054 1.978.072 2.722.073 5.446.141 8.165.219.882.026 1.75.083 2.628.121.876.037 1.752.082 2.636.103 9.274.229 18.551.45 27.826.676 1.693.042 3.402.04 5.056.185.142.013.294.003.443 0a2.395 2.395 0 0 0 1.111-.271c.135-.073.268-.146.397-.224l5.209-3.184a151.876 151.876 0 0 1 8.103-4.634c.946-.501 1.884-1.013 2.841-1.503 2.804-1.431 5.685-2.75 8.595-4.026 1.492-.653 3.032-1.214 4.507-1.899.278-.128.578-.228.873-.328a43.943 43.943 0 0 0 3.272-1.25c.639-.276 1.314-.492 1.983-.707 2.007-.642 4.019-1.278 5.932-1.888M75.182 29.151c1.249-.494 2.252-1.239 3.319-1.919.062-.039.113-.092.161-.14.204-.197.37-.408.379-.63.027-.644.016-1.283-.082-1.905a.4.4 0 0 0-.061-.143c-.028-.044-.071-.083-.105-.124-.077-.088-.454-.141-.594-.083a12.864 12.864 0 0 0-2.908 1.699c-.358.276-.516.611-.544.945-.021.215-.01.43.036.633.124.56.271 1.113.41 1.67l-.011-.003zM13.59 31.48l-.005.005c.82.353 1.734.591 2.625.859l38.96 11.655c.638.19 1.272.384 1.9.585.187.06.35.148.516.23a.688.688 0 0 1 .262 1 7.114 7.114 0 0 1-.438.635c-.37.466-.762.928-1.137 1.392-1.129 1.397-2.234 2.794-3.164 4.244-1.546 2.412-3.016 4.829-4.075 7.306a37.577 37.577 0 0 0-1.593 4.456c-.515 1.818-.817 3.624-1.042 5.426-.032.272-.071.547-.069.813.014 1.445-.163 2.923.113 4.321.01.051.009.104.006.159-.018.705.128 1.37.321 2.023.388 1.303.812 2.596 1.177 3.907.396 1.423 1.253 2.661 1.933 3.972.893 1.217 1.782 2.437 2.795 3.594a35.827 35.827 0 0 0 5.042 4.727c2.242 1.732 4.512 3.449 7.071 4.952 1.354.794 2.672 1.62 4.111 2.345.72.361 1.474.691 2.179 1.064 1.417.746 2.964 1.364 4.5 1.991.885.362 1.712.785 2.671 1.073a19.8 19.8 0 0 1 2 .743c.468.196.965.367 1.472.523 1.519.466 3.046.925 4.583 1.372.574.166 1.182.291 1.781.43.333.076.69.117 1.01.209 1.279.379 2.648.625 4.008.887 2.581.5 5.2.941 7.911 1.223 2.35.243 4.758.361 7.153.501.798.047 1.624.022 2.444.019.517 0 1.047-.029 1.566-.033a81.227 81.227 0 0 0 13.38-1.205c1.145-.198 2.279-.482 3.421-.682a30.285 30.285 0 0 0 3.178-.75c.753-.217 1.505-.42 2.27-.557.843-.149 1.668-.384 2.489-.638.895-.276 1.791-.554 2.684-.834a22.825 22.825 0 0 0 2.414-.886c.427-.188.858-.371 1.303-.514 1.79-.574 3.517-1.268 5.239-1.984 2.153-.895 4.289-1.818 6.366-2.827 3.745-1.816 7.441-3.692 10.956-5.784.844-.503 1.709-.986 2.561-1.483.653-.382 1.313-.759 1.947-1.158 3.437-2.157 6.867-4.317 10.095-6.649.238-.172.477-.344.729-.506 2.281-1.451 4.375-3.043 6.533-4.59.418-.3.818-.615 1.226-.924.755-.574 1.486-1.168 2.267-1.721 1.872-1.326 3.613-2.736 5.384-4.125 2.515-1.971 4.914-4.015 7.325-6.049.493-.415.954-.85 1.422-1.277.365-.335.713-.676 1.085-1.006 1.437-1.273 2.784-2.59 4.11-3.912a25.139 25.139 0 0 0 3.169-3.858 26.284 26.284 0 0 0 2.098-3.734c.225-.493.452-.988.598-1.481.858-2.936 1.282-5.819.749-8.589a4.538 4.538 0 0 1-.074-.629 8.597 8.597 0 0 0-1.178-3.888 9.5 9.5 0 0 1-.487-.993c-.649-1.499-1.552-2.883-2.637-4.187-.243-.293-.516-.571-.751-.87-1.444-1.844-3.339-3.418-5.17-5.029-2.058-1.525-4.088-3.067-6.353-4.444-2.211-1.346-4.57-2.556-7.001-3.703-.961-.453-1.931-.899-2.994-1.249-.314-.101-.586-.248-.884-.365-.477-.192-.943-.391-1.438-.558-.747-.25-1.452-.545-2.184-.81a66.366 66.366 0 0 0-7.447-2.219c-.928-.22-1.867-.417-2.778-.661a24.436 24.436 0 0 0-1.186-.289c-3.035-.632-6.165-1.102-9.312-1.543-1.541-.216-3.128-.34-4.705-.476-2.083-.18-4.176-.329-6.326-.357a243.772 243.772 0 0 1-4.199-.088c-1.764-.056-3.562.006-5.365.083-1.426.06-2.86.151-4.292.241-.754.047-1.514.108-2.27.185-1.139.112-2.277.22-3.419.369-2.281.297-4.563.593-6.85.959-2.364.38-4.722.846-7.078 1.335-1.365.283-2.729.64-4.098.909-.453.092-.905.236-1.355.366-.751.214-1.498.44-2.25.653-.526.147-1.054.315-1.582.413-1.845.336-3.619.944-5.409 1.507-.443.14-.896.289-1.315.476-1.208.543-2.473.947-3.734 1.356-1.34.435-2.672.876-3.938 1.475-.348.163-.723.282-1.087.422-1.743.674-3.449 1.415-5.149 2.167-2.268 1.005-4.438 2.145-6.636 3.247-2.27 1.137-4.434 2.394-6.568 3.68a87.228 87.228 0 0 0-3.215 2.061c-1.367.906-2.709 1.833-4.065 2.75-.122.083-.255.158-.386.233-.41.241-.858.366-1.318.367-.52.001-1.039-.004-1.544-.038-3.187-.206-6.358-.454-9.538-.679-3.976-.28-7.939-.584-11.919-.856-2.894-.196-5.777-.421-8.661-.64-1.37-.104-2.73-.233-4.103-.333-2.671-.189-5.356-.355-8.029-.55-3.178-.229-6.348-.479-9.519-.722a8.677 8.677 0 0 0-1.789.037M188.104 6.933c-.129.075-.301.136-.374.228-.419.513-.801 1.036-1.213 1.551-.95 1.187-1.651 2.431-2.513 3.637-.135.188-.035.476.17.564.114.049.215.113.34.152 1.069.333 2.137.663 3.214.988.122.038.274.04.415.061.152.02.542-.083.648-.182.202-.189.424-.375.598-.575.745-.861 1.475-1.729 2.324-2.554.444-.435.804-.907 1.18-1.37.123-.149.195-.319.265-.481a.37.37 0 0 0-.095-.445 2.74 2.74 0 0 0-.58-.391c-1.121-.546-2.425-.883-3.721-1.225a.713.713 0 0 0-.214-.018c-.148.016-.296.041-.444.06m-17.698 2.521c.108.078.215.224.396.265.928.217 1.864.412 2.809.601.473.094.965.156 1.451.227.426.063.897-.147 1.152-.505.036-.052.084-.102.115-.156.518-.862 1.185-1.687 1.841-2.514.41-.517.815-1.035 1.213-1.558.117-.152.193-.32.286-.48.097-.172-.054-.469-.264-.532-.127-.037-.245-.086-.379-.114a55.657 55.657 0 0 0-4.124-.684 4.43 4.43 0 0 0-.655-.02 1.266 1.266 0 0 0-.819.34 1.726 1.726 0 0 0-.274.298 968.673 968.673 0 0 0-2.676 4.156.787.787 0 0 0-.118.326c-.013.107.023.206.046.35m29.834 9.643c.155-.094.377-.19.524-.324 1.4-1.289 2.529-2.674 3.622-4.071.077-.102.137-.212.185-.32.105-.226.106-.437-.03-.615-.069-.085-.137-.173-.226-.24-.979-.728-2.117-1.32-3.331-1.846-.202-.087-.665.015-.844.182-.052.047-.124.085-.164.136a694.565 694.565 0 0 0-3.907 4.764c-.172.208-.132.436.03.603.116.117.256.227.42.307.881.442 1.769.877 2.661 1.307.168.078.362.135.567.167.129.018.296-.027.493-.05m-84.299-7.36c.044.141.063.191.074.242.043.163.408.317.666.269.838-.151 1.677-.27 2.508-.461 1.136-.265 2.269-.544 3.412-.746.298-.053.605-.159.892-.271.292-.114.54-.289.688-.511.104-.159.211-.323.264-.485.31-.936.523-1.87.688-2.798.017-.106-.023-.209-.041-.312-.021-.117-.31-.263-.455-.253-.613.044-1.216.255-1.822.353-.688.111-1.37.247-2.049.439-1.276.363-2.552.717-3.847.988-.523.11-.994.544-1.017.922-.025.432-.014.859-.033 1.29-.021.487-.003.965.072 1.334m61.539-.87c.116.082.227.217.405.27 1.144.339 2.295.661 3.45.984.125.036.277.035.418.051.149.018.531-.1.641-.208.196-.192.403-.383.572-.584 1.164-1.38 1.992-2.84 3.024-4.253a.853.853 0 0 0 .129-.326c.037-.167.009-.324-.146-.428-.144-.098-.293-.203-.479-.257-.83-.239-1.66-.476-2.513-.684-.876-.215-1.547.014-2.13.737-1.079 1.337-2.131 2.684-3.187 4.027a.932.932 0 0 0-.173.322c-.029.105-.009.209-.011.349M128.271 5.61c-.667.149-1.172.505-1.332.871-.024.055-.064.108-.08.163a19.4 19.4 0 0 0-.728 2.954c-.01.054.005.105.003.159-.01.254.311.468.681.449.151-.007.301 0 .451-.023 1.517-.226 3.033-.457 4.551-.69.226-.036.453-.095.676-.161.469-.141.878-.366 1.068-.715.614-1.136 1.146-2.278 1.449-3.435.013-.055 0-.107.007-.162.025-.177-.264-.391-.524-.38-.223.009-.445.008-.672.033-1.897.207-3.791.608-5.55.937m61.949 9.071c.05.091.081.192.152.269.074.08.176.15.29.196.942.384 1.891.757 2.838 1.133.058.024.131.032.194.051.355.111.941-.062 1.228-.362.047-.049.105-.095.147-.146 1.16-1.439 2.323-2.877 3.479-4.318a1.12 1.12 0 0 0 .171-.323c.086-.229.042-.433-.125-.592a1.431 1.431 0 0 0-.428-.301 128.11 128.11 0 0 0-2.481-.988c-.273-.106-.792.03-1.044.255-.156.141-.313.282-.467.425-1.438 1.342-2.544 2.803-3.774 4.216-.085.1-.124.215-.168.323-.023.054-.007.108-.012.162m16.355 8.692c.085.143.133.299.256.407.762.674 1.613 1.284 2.483 1.881.048.033.117.049.17.08.183.103.626.042.841-.117.057-.044.129-.078.182-.123a35.57 35.57 0 0 0 3.224-3.004c.364-.386.36-.757.1-1.074-.482-.584-.96-1.175-1.494-1.733-.458-.476-.987-.912-1.493-1.361-.212-.185-.747-.087-.981.17-.045.05-.105.096-.145.148-.615.773-1.259 1.54-1.829 2.326-.453.626-.827 1.275-1.209 1.917-.092.153-.073.322-.105.483M168.214 9.216c.136-.069.284-.126.397-.209.116-.083.227-.187.294-.29.871-1.333 1.737-2.67 2.595-4.007.104-.158.171-.331.198-.491.037-.228-.08-.411-.305-.531a1.224 1.224 0 0 0-.37-.126c-1.235-.227-2.54-.305-3.867-.336-.256-.004-.666.18-.809.356-.041.05-.105.097-.139.15a63.002 63.002 0 0 0-2.436 3.857c-.127.215-.201.437-.294.655-.077.19.076.473.287.53.192.052.381.119.588.147.842.112 1.691.214 2.539.311.284.031.576.051.868.055.143.002.302-.045.454-.071m-16.112-6.227c-.153.104-.348.218-.508.35-.104.087-.188.2-.243.306-.718 1.35-1.43 2.699-2.142 4.051-.099.188.119.431.394.448 1.296.086 2.623.083 3.953.076.146-.002.3-.027.452-.051.314-.052.593-.186.824-.367.288-.225.496-.483.678-.749.433-.632.854-1.268 1.292-1.9.256-.368.553-.728.801-1.096.141-.21.229-.43.327-.647.111-.25-.135-.563-.451-.592-.073-.006-.139-.025-.211-.025-1.475.001-2.951.008-4.444.075-.218.012-.45.074-.722.121M205.2 22.117c.14-.096.375-.199.487-.339.679-.818 1.355-1.635 1.972-2.47.464-.623.845-1.268 1.235-1.908.173-.281.144-.553-.062-.758-.556-.546-1.221-1.018-1.948-1.442-.1-.059-.246-.077-.377-.106-.17-.039-.521.045-.649.147-.059.044-.129.079-.179.126-1.466 1.331-2.634 2.764-3.741 4.218-.038.051-.061.108-.087.162-.15.292-.098.538.101.749.074.08.161.154.255.222.706.51 1.494.957 2.312 1.375.102.054.259.063.399.078.064.005.148-.028.282-.054M156.521 7.99c.05.163.182.28.396.297 1.14.099 2.282.201 3.437.258.854.044 1.247-.207 1.685-.805.151-.207.271-.423.405-.637.632-1.013 1.267-2.025 1.898-3.039.032-.053.065-.106.095-.16.322-.566.104-.878-.55-.947a19.755 19.755 0 0 0-3.062-.086c-.49.024-.898.238-1.177.566-.301.354-.612.715-.835 1.085-.555.913-1.231 1.792-1.9 2.674-.158.206-.267.425-.386.64-.025.05-.004.105-.006.154m-21.03.701c.048.1.141.166.288.188.137.022.272.056.42.049a40.572 40.572 0 0 0 3.608-.317c.326-.045.792-.323.925-.55.031-.053.081-.105.107-.159.554-1.197 1.108-2.391 1.659-3.587.024-.054.021-.108.041-.163.094-.271-.181-.54-.534-.522-1.275.066-2.552.179-3.842.413a4.193 4.193 0 0 0-.451.114 1.346 1.346 0 0 0-.712.476c-.039.052-.081.105-.106.159-.364.816-.739 1.631-1.084 2.45-.158.38-.262.764-.368 1.146-.028.102.031.203.049.303m7.142-.678c.077.208.246.299.459.314 1.086.076 2.204.019 3.342-.127a1.613 1.613 0 0 0 1.111-.646c.041-.053.082-.105.11-.157.581-1.021 1.165-2.043 1.736-3.065.121-.214.192-.434.278-.653.125-.32-.182-.621-.643-.63-.219-.005-.438-.027-.658-.013-.825.059-1.654.129-2.48.199a3.151 3.151 0 0 0-.451.078 1.81 1.81 0 0 0-.791.416c-.152.14-.3.293-.403.451-.763 1.173-1.33 2.365-1.623 3.576-.024.105.009.21.013.257m-31.462 5.711a.041.041 0 0 1-.005-.019c.524-.138 1.052-.273 1.576-.411.226-.058.451-.118.674-.179.312-.087.684-.417.757-.667.016-.055.046-.111.053-.165a11.31 11.31 0 0 0-.023-2.393c-.011-.102-.077-.192-.122-.287-.105-.215-.528-.362-.863-.304-.076.011-.152.009-.226.027-1.436.347-2.84.792-4.228 1.294-.073.027-.142.065-.21.099-.44.217-.736.501-.811.852-.172.823-.184 1.625-.158 2.423.002.05.039.095.048.145.034.154.395.351.619.325.225-.025.456-.039.678-.099.747-.204 1.492-.427 2.241-.641m-23.975 7.588c.001.007.002.275.015.54.003.106.033.207.047.312.022.186.42.275.702.15 1.413-.624 2.821-1.25 4.231-1.877.071-.031.14-.07.201-.11.315-.209.571-.448.675-.733.061-.163.103-.329.123-.492.069-.543.137-1.087.183-1.629.014-.157-.041-.31-.079-.46-.045-.181-.449-.305-.69-.219-1.617.578-3.119 1.338-4.619 2.099-.133.067-.247.164-.356.255-.229.186-.399.396-.409.622-.022.428-.015.855-.024 1.542m17.566-9.434c-.654.197-2.998 1.162-3.638 1.5-.288.151-.453.375-.49.593-.146.874-.154 1.729-.131 2.58.006.194.356.358.613.282.447-.134.892-.268 1.334-.411.668-.214 1.331-.434 1.993-.66.218-.075.434-.175.635-.279.356-.183.627-.431.696-.713.223-.881.22-1.735.188-2.585-.002-.051-.045-.096-.061-.144-.05-.151-.438-.291-.688-.248-.151.026-.306.04-.451.085m111.859 13.678c-.023-.079-.027-.131-.056-.177-.318-.543-.626-1.091-.968-1.625-.08-.129-.25-.222-.403-.309-.109-.061-.276-.049-.423.009-.141.054-.296.114-.4.198-1.054.857-1.979 1.781-2.91 2.699-.374.367-.442.763-.163 1.071a15.812 15.812 0 0 0 1.806 1.72c.166.136.601.061.781-.136.139-.148.284-.294.413-.445.604-.709 1.207-1.419 1.906-2.093a1.81 1.81 0 0 0 .257-.304c.143-.213.204-.429.16-.608m1.967 4.256c-.156-.421-.328-.914-.522-1.397a1.554 1.554 0 0 0-.492-.636c-.184-.143-.589-.148-.8.007-.061.044-.13.079-.186.123a9.588 9.588 0 0 0-2.008 2.255.582.582 0 0 0-.035.63c.078.137.168.271.264.399.459.6.923 1.196 1.386 1.793.163.213.322.43.488.642.11.141.609.156.806.026.185-.123.373-.244.542-.379.791-.635 1.102-1.315.934-2.031-.111-.458-.239-.909-.377-1.432m-133.635-9.33c-.146.051-.303.086-.435.152-.944.493-1.892.986-2.828 1.49a5.291 5.291 0 0 0-.739.49c-.293.231-.48.508-.454.78.067.681.173 1.354.267 2.027.025.195.428.315.668.208 1.056-.472 2.05-1.024 3.03-1.585.549-.313.874-.724.986-1.19.173-.716.158-1.407.113-2.091-.001-.051-.05-.091-.069-.138-.051-.128-.358-.211-.539-.143m11.827-1.927c.372-.166.802-.342 1.213-.543.441-.215.693-.521.754-.868.146-.87.159-1.721.004-2.544-.026-.132-.316-.205-.534-.142-.747.217-1.475.479-2.168.808-.516.243-.873.59-.963.991-.197.874-.253 1.733-.134 2.566.022.162.468.281.705.185.358-.143.716-.289 1.123-.453M69.456 31.068c.163.35.29.692.478 1.009.153.254.532.269.945.05a3.67 3.67 0 0 0 .393-.224c.423-.293.842-.592 1.259-.892.578-.416.833-.878.795-1.39-.025-.369-.001-.747-.032-1.116-.017-.207-.084-.406-.144-.606-.075-.251-.565-.341-.888-.179-.82.417-1.562.91-2.321 1.385-.125.077-.231.175-.333.269-.211.197-.357.416-.334.631.038.366.12.721.182 1.063m-7.803 1.099c.1.469.33.689.752.785a3.96 3.96 0 0 0 1.265.093c.254-.024.606-.3.599-.483a4.204 4.204 0 0 0-.534-1.92c-.025-.044-.065-.083-.099-.126-.231-.301-.927-.436-1.512-.294-.264.063-.532.329-.525.531.019.523.042 1.042.054 1.414m-21.788-1c.125.064.264.18.452.217.608.127 1.276.126 1.946.111.566-.011 1.045-.286 1.223-.722.067-.163.108-.329.141-.492.056-.277-.182-.536-.492-.581-.701-.1-1.433-.11-2.187-.064a1.27 1.27 0 0 0-.446.117.742.742 0 0 0-.189.116c-.434.408-.56.83-.448 1.298m28.249.627c-.166-.373-.305-.707-.463-1.036a.635.635 0 0 0-.222-.238.976.976 0 0 0-.779-.137c-.328.071-.555.234-.688.464-.061.105-.123.219-.132.324-.06.655.058 1.269.495 1.769.303.343.825.469 1.478.384.296-.041.574-.3.531-.508-.07-.355-.152-.708-.22-1.022m-11.926-.491c-.114-.282-.189-.53-.316-.757-.251-.457-.759-.643-1.519-.547-.28.034-.615.274-.64.467-.064.485-.111.969.007 1.42.054.203.222.354.487.433.442.136.922.199 1.452.169.258-.014.645-.288.626-.46-.031-.257-.068-.512-.097-.725m-11.04.002c.052.204.267.387.498.449.461.125.962.155 1.498.119.376-.026.794-.276.888-.535.141-.389.207-.772.134-1.135-.043-.215-.251-.343-.541-.394a4.025 4.025 0 0 0-1.317-.015c-.322.047-.594.181-.785.398-.327.371-.445.747-.375 1.113m12.68.104c.121.287.218.58.368.853.158.287.477.444.952.446.269 0 .645-.221.696-.408.165-.602.147-1.171-.076-1.703-.177-.424-.822-.623-1.543-.471-.284.059-.54.317-.512.524.033.254.077.506.115.759m-8.099-.023c.024.136.034.188.045.239.051.216.233.353.492.433.318.096.67.13 1.053.102.295-.021.578-.23.648-.465a1.806 1.806 0 0 0-.069-1.255c-.157-.365-.524-.55-1.093-.555-.483-.002-.967.287-1.004.62-.035.324-.054.646-.072.881m-16.311-.666c.323-.131.526-.313.65-.535.203-.362.019-.687-.41-.734-.495-.056-.987-.106-1.517-.066-.259.018-.598.207-.725.43a1.658 1.658 0 0 0-.141.324c-.09.291.094.533.425.608.474.105.98.114 1.517.033.074-.011.147-.044.201-.06m2.347.006c.079.077.135.174.237.228.339.172.764.209 1.22.174.32-.026.591-.149.804-.356.05-.046.095-.096.134-.146.441-.574.246-1.011-.5-1.076a6.442 6.442 0 0 0-.878.004 1.122 1.122 0 0 0-.625.238c-.354.293-.461.612-.392.934m183.045 3.605c-.125.09-.323.203-.475.336-.462.399-.65.811-.397 1.214.165.264.353.521.539.777.026.039.1.057.146.091.107.082.495 0 .604-.136.082-.1.189-.207.207-.305.115-.593.115-1.17.03-1.733-.011-.094-.1-.177-.187-.245-.089-.071-.24-.065-.467.001M23.434 29.898c.08.072.136.176.248.215.441.143.947.175 1.475.155.073-.002.149-.023.227-.032.318-.04.693-.341.784-.628.068-.208-.123-.415-.397-.452a5.296 5.296 0 0 0-1.537-.013c-.075.012-.15.037-.225.055-.348.079-.659.46-.575.7m-2.105-.063c.182-.062.362-.261.383-.421.021-.146-.133-.318-.297-.347a6.717 6.717 0 0 0-1.945-.055c-.18.02-.457.179-.546.327-.123.201.007.453.253.504a5.72 5.72 0 0 0 1.934.067c.073-.009.145-.049.218-.075m6.521.323c.136.235.373.317.673.334.387.021.758-.14.967-.418.116-.159.189-.325.155-.479a.371.371 0 0 0-.188-.246c-.293-.143-.654-.137-1.044-.004-.426.148-.69.569-.563.813m-11.443-.56c.432-.128.604-.38.521-.492-.061-.083-.132-.174-.243-.213-.433-.146-.923-.167-1.458-.049a.642.642 0 0 0-.358.221c-.104.126-.02.33.146.386.434.143.903.201 1.435.133.069-.008.14-.043-.043.014m-3.807-.426c.044-.05.107-.097.13-.147.057-.121.017-.222-.118-.269-.443-.147-.951-.148-1.48-.091a.825.825 0 0 0-.219.059.539.539 0 0 0-.176.113c-.093.106-.101.22.013.282.452.243 1.027.246 1.642.143.069-.013.139-.06.208-.09m-4.359-.237c.045-.049.112-.098.127-.147.039-.116-.022-.206-.151-.257-.307-.123-.666-.128-1.05-.069a.659.659 0 0 0-.213.082c-.15.088-.219.212-.114.292.327.249.925.281 1.401.099m210.896 9.847l.127.085c.035-.044.093-.091.095-.132.013-.139-.074-.175-.211-.09-.031.019-.008.09-.011.137"/><path fill="#FFF" d="M113.695 73.791c-.394-.385-.857-.238-1.286-.195-1.207.121-2.411.277-3.617.418-.235.029-.778-.458-.78-.691 0-.038.018-.095-.001-.113-.637-.598-.322-1.381-.368-2.075-.121-1.849-.125-3.704-.261-5.551-.125-1.703-.361-3.399-.539-5.032-.031.456-.085.982-.1 1.511-.064 2.132-.137 4.264-.167 6.396a53.225 53.225 0 0 0 .079 3.595c.032.614.078.597-.511.873-.211.1-.356.349-.571.433-.507.198-1.03.393-1.564.492a36.6 36.6 0 0 1-2.821.4c-1.341.146-2.686.287-4.031.361-1.373.077-2.753.045-4.127.109-.989.047-1.975.18-2.963.264-.291.023-.587.006-.88.02-1.246.053-2.491.115-3.738.164-1.035.04-2.071.069-3.106.096-1.104.031-2.208.066-3.312.077a164.5 164.5 0 0 1-4.156-.005c-1.395-.022-2.791-.096-4.186-.12-2.044-.038-4.089-.052-6.133-.073-.122-.002-.25-.005-.363.033-.302.104-.432-.004-.522-.299-.062-.205-.229-.377-.36-.578.493-.26.373-.771.382-1.203.016-.768-.057-1.537-.062-2.306-.007-.926.022-1.851.028-2.776.02-3.323.033-6.646.058-9.969.016-2.271.097-4.542.053-6.812-.027-1.428-.237-2.851-.357-4.278-.072-.875-.119-1.751-.201-2.625-.05-.537-.139-1.069-.221-1.603-.067-.435.34-.931.786-.948 3.135-.117 6.269-.262 9.405-.342 1.958-.051 3.918-.029 5.877.006 2.19.04 4.371-.031 6.554-.243 2.395-.232 4.8-.439 7.204-.489 3.744-.078 7.494-.016 11.24-.011.284 0 .568.002.854.006.807.012 1.177.109 1.843.469l.174 14.357.073.005c.046-.62.086-1.24.141-1.859.16-1.83.396-3.657.469-5.49.07-1.75-.023-3.509-.053-5.264-.005-.336-.058-.672-.075-1.009-.024-.501.282-.678.688-.961.848-.59 1.697-.122 2.526-.132 1.821-.023 3.646.126 5.471.188 2.74.093 5.48.213 8.221.242 1.417.015 2.835-.139 4.253-.22s2.834-.167 4.251-.249c1.643-.095 3.285-.22 4.929-.271 1.256-.039 2.513.014 3.77.033.968.014 1.937.051 2.903.049.318-.001.636-.088.952-.145.427-.076.771.1 1.094.344.039.03.048.112.052.171.057.741.112 1.482.163 2.223.117 1.736.19 3.477.358 5.208.189 1.932.479 3.854.697 5.784.119 1.059.174 2.127.271 3.19.113 1.25.249 2.498.358 3.748.053.605.054 1.215.1 1.82.047.619.152 1.236.173 1.854.032 1.019.007 2.038.021 3.058a82.6 82.6 0 0 0 .067 2.17c.021.482.081.965.07 1.447a.841.841 0 0 1-.242.553c-.238.217-.54.363-.818.533-.047.029-.145.061-.163.041-.257-.286-.511-.042-.771-.014-.669.072-1.34.156-2.011.177-2.709.078-5.418.168-8.127.19-2.62.021-5.238-.022-7.856-.058-2.078-.026-4.145.13-6.213.288-1.212.092-2.428.081-3.642.13-1.58.063-3.158.141-4.735.209-.461.02-.461.018-.598.274m-8.676-31.67c-.108-.015-.174-.029-.24-.031-1.566-.026-3.131-.055-4.698-.077-.894-.013-1.786-.029-2.68-.018-1.248.017-2.495.048-3.744.092a91.1 91.1 0 0 0-3.174.157c-1.562.108-3.121.247-4.681.369-.283.022-.567.022-.849.048-.795.07-1.59.182-2.387.213-.98.038-1.963.017-2.944.011-1.858-.011-3.714-.04-5.571-.042-.914-.001-1.828.035-2.743.068-1.147.041-2.295.101-3.444.141-.992.035-1.984.053-3.021.08.057.388.116.701.147 1.017.115 1.153.245 2.306.323 3.461.124 1.846.264 3.693.298 5.542.032 1.729-.082 3.458-.101 5.188a425.904 425.904 0 0 0-.021 6.493c.008 2.417.044 4.833.057 7.25.003.46.161.949-.192 1.363-.025.029-.003.096-.003.165h1.715c.807-.003 1.616-.035 2.422-.007 2.075.072 4.149.191 6.224.252 1.466.043 2.933.042 4.399.025 1.906-.023 3.812-.046 5.716-.129 2.564-.113 5.122-.322 7.686-.416 2.984-.111 5.968-.197 8.932-.588.797-.104 1.605-.178 2.347-.553-.028-.285-.079-.555-.077-.823.017-2.013.013-4.025.075-6.036.065-2.092.249-4.18.286-6.273.047-2.592 0-5.187-.014-7.779-.011-2.057-.031-4.113-.042-6.17-.006-.987-.001-1.974-.001-2.993m24.912 18.938l-.042.096 2.023 2.88-.473.208.232.754c-.272.135-.563.207-.749.387-.342.334-.661.676-1.167.722-.245.022-.493.005-.738.026-.643.058-1.284.143-1.927.188-1.597.111-3.192.211-4.789.307-.939.055-1.884.168-2.82.123-1.277-.061-2.54-.137-3.815.278l-.575-2.345 2.288-2.655a1.065 1.065 0 0 0-.591.099c-.587.294-1.162.616-1.749.91-.525.264-.758.223-1.14-.209a24.354 24.354 0 0 1-1.172-1.395c-.222-.291-.507-.398-.8-.273-.525.226-1.062.467-1.515.807-.482.359-.878.837-1.301 1.273a.414.414 0 0 0-.099.285c.031.391.087.779.128 1.168.094.888.224 1.773.265 2.664.067 1.404.09 2.809.092 4.215.002.33.181.726-.265 1.016.186 0 .294.01.399-.001 1.046-.109 2.092-.243 3.141-.321.377-.028.597-.172.814-.469 1.539-2.08 3.596-2.984 6.169-2.23 1.358.398 2.749.555 4.137.387 2.399-.288 4.79-.655 7.175-1.049 1.877-.311 3.662-.92 5.276-1.959.649-.418.633-1.164-.035-1.553-.208-.121-.433-.213-.647-.326a.52.52 0 0 1-.197-.16 3.566 3.566 0 0 1-.309-.598c-.04-.116-.049-.307.018-.386.24-.279.478-.604.791-.771.962-.51 1.93-1.031 2.948-1.4.918-.334 1.472-.953 1.893-1.759.242-.463.153-.692-.279-.981-.184-.123-.375-.27-.49-.451-.143-.225-.21-.497-.343-.835.303-.103.628-.242.968-.319.547-.125.658-.234.588-.735-.161-1.133-.936-1.776-1.856-2.297-.045-.024-.116-.002-.221-.002.136.212.275.367.346.549.233.619-.368 1.513-1.031 1.526-.803.016-1.607.004-2.472.004.136.096.229.163.325.229 1.694 1.18 1.476 3.316-.261 4.316-1.32.758-2.74.666-4.169.408-.659-.122-1.32-.231-1.979-.346m12.651-14.156c.502-.594.993-1.2 1.51-1.782.688-.774 1.335-1.548 1.163-2.699-.071-.479-.116-.554-.599-.503-.119.013-.234.064-.354.083-.31.048-.62.125-.93.124-.314-.002-.627-.111-.942-.124a42.475 42.475 0 0 0-2.111-.028c-1.814.018-3.631.012-5.444.086-1.404.056-2.805.229-4.209.331-1.2.086-2.4.155-3.603.211a79.957 79.957 0 0 1-3.284.103c-1.081.005-2.163-.049-3.244-.067-1.009-.017-2.019-.003-3.026-.038-1.181-.041-2.357-.124-3.536-.182-.937-.046-1.87-.093-2.806-.12-.651-.019-1.305-.004-1.948-.004.074 1.212.148 2.411.226 3.649.174-.222.382-.386.453-.598.231-.672.748-.747 1.295-.743.737 1.17 1.325 2.394 2.221 3.441.289-.265.521-.514.787-.717.437-.333.874-.676 1.354-.931.215-.114.547-.063.807-.006.105.022.169.26.239.406.243.5.479 1.002.696 1.46.586-.786 1.15-1.563 1.74-2.324.205-.265.566-.44.688-.729.182-.429.559-.314.844-.434.075-.032.284.095.338.198.315.604.589 1.228.897 1.834.298.579.618 1.146.922 1.706.163-.139.317-.227.408-.358.637-.913 1.285-1.818 1.873-2.761.197-.315.485-.298.736-.354.11-.024.327.234.433.403.416.676.807 1.368 1.211 2.051.029.049.095.078.168.135.398-.673.812-1.305 1.151-1.974.192-.379.462-.481.832-.48h.335l2.508 3.327c.458-.905.865-1.722 1.284-2.533.151-.292.278-.628.51-.839.352-.319.996-.156 1.268.247.178.267.33.555.537.797.526.615 1.075 1.211 1.66 1.865.29-.491.533-.903.78-1.314.316-.528.638-1.053.952-1.582.115-.193.215-.396.326-.592.19-.335.535-.171.801-.258.456-.149.629.074.784.433.209.483.422.967.68 1.425.154.272.398.494.619.759m-27.615 25.091c1.344 0 2.739.037 4.13-.01 1.89-.062 3.777-.218 5.668-.281 1.98-.066 3.964-.09 5.945-.1 2.261-.012 4.521.043 6.781.017 2.73-.032 5.459-.113 8.188-.187.173-.005.361-.098.511-.199.252-.172.479-.381.726-.583.072-6.357-.581-12.736-1.111-19.149-.117 0-.195-.005-.271.001-.904.083-1.81.165-2.712.253-.691.066-1.383.136-2.072.225-.1.013-.223.118-.271.213-.154.292-.349.479-.702.509-.227.02-.445.124-.753.215.149.064.196.086.246.104 1 .365 1.805.959 2.295 1.933.143.287.351.544.473.839.233.563.373 1.16.128 1.751-.125.303-.357.563-.542.844.29.42.516.901.407 1.418-.079.379-.299.74-.512 1.076-.453.713-.932 1.428-1.713 1.823-.55.278-1.14.479-1.709.722-.422.18-.84.373-1.241.552.347.327.683.581.938.901.452.571.643 1.266.183 1.929-.473.683-1.031 1.282-1.753 1.686-1.792 1.002-3.687 1.682-5.763 1.83-.72.05-1.418.337-2.137.444-1.302.196-2.608.344-3.916.502-1.316.16-2.636.08-3.951-.031-.238-.02-.467-.129-.702-.189-.509-.13-1.021-.37-1.528-.359-1.259.028-2.415.408-3.26 1.301m17.809-20.918c-1.54-1.136-2.352-2.75-3.558-4.183l-1.481 3.256c-1.208-.758-1.572-2.11-2.328-3.243-1.002 1.287-1.927 2.543-2.3 4.2-.371-.333-.74-.565-.965-.895-.339-.496-.576-1.062-.854-1.6-.353-.69-.702-1.382-1.075-2.112-1.263 1.148-2.048 2.545-2.635 4.094-.293-.206-.598-.41-.891-.63-.065-.05-.09-.156-.129-.239l-.882-1.92c-.74.633-1.468 1.151-1.926 1.944-.033.057-.208.102-.262.067-.673-.425-1.156-1.018-1.539-1.713-.353-.644-.748-1.266-1.118-1.885-1.771 1.68-1.769 3.845-1.825 5.995.166-.027.311-.069.457-.071.32-.005.641.022.961.015 1.251-.023 2.5-.056 3.751-.082 1.107-.023 2.216-.043 3.325-.067.499-.01.999-.015 1.497-.046 1.264-.079 2.526-.182 3.791-.254 1.236-.07 2.474-.108 3.711-.174.835-.045 1.668-.14 2.505-.163 1.139-.031 2.279.015 3.417-.026 1.117-.041 2.233-.153 3.35-.227 1.724-.115 3.448-.203 5.17-.343 1.581-.129 3.156-.311 4.699-.466-.111-1.626-.218-3.151-.322-4.678-1.242 1.117-2.157 2.49-3.021 3.905l-.162.015c-.667-1.117-1.334-2.233-2.071-3.471l-2.466 4.487-3.089-3.708c-.042.038-.128.079-.155.145-.396.974-.787 1.949-1.172 2.926-.139.363-.26.732-.408 1.147m-3.564 12.17c-.076-.161-.105-.271-.17-.35-.65-.787-1.267-1.604-1.969-2.338-.748-.781-1.579-1.482-2.374-2.217.037-.019.076-.035.113-.053l-.143-.959c.743-.477 1.594-.283 2.428-.263.682.016 1.365.003 2.046.003a5.624 5.624 0 0 0-1.056-.784c-1.175-.691-2.384-1.331-3.214-2.472-.043-.059-.215-.083-.289-.047-.252.123-.481.289-.73.422-1.27.676-2.546 1.344-3.815 2.023-.439.234-.867.492-1.323.754.592 0 1.133.022 1.67-.006.537-.026 1.071-.103 1.607-.155.346-.035.609.048.822.374.25.383-.111.453-.26.618-.601.67-1.241 1.308-1.821 1.995-.738.872-1.425 1.786-2.147 2.673-.428.523-.883 1.025-1.324 1.538l.066.093 11.883-.849m-5.383-10.236c-.016-.035-.029-.071-.043-.106-3.733.122-7.447.697-11.244.413.533.316.982.619 1.464.857.521.26.666.706.695 1.217.081 1.43-.598 2.528-1.62 3.422a1.552 1.552 0 0 1-2.242-.194c-.302-.38-.608-.761-.85-1.179-.412-.712-.702-1.364.128-2.219.014-.015.008-.05.014-.086l-.245-.298c.573-.501 1.139-.994 1.661-1.452l-2.669.151c-.233 2.731-.284 5.437-.08 8.212.196-.137.374-.214.487-.346.463-.539 1.029-.929 1.647-1.27 1.096-.605 1.953-.271 2.665.67.161.215.312.441.456.669.177.276.401.324.69.185.557-.268 1.146-.48 1.669-.804.604-.374 1.239-.354 1.872-.272.264.033.436-.027.554-.188.307-.417.576-.86.86-1.293l-.06-.139-2.159.406c-.122-.383-.236-.726-.339-1.072-.022-.072.002-.156-.003-.235a95.793 95.793 0 0 0-.045-.806l.34-.212c-.29-.462.072-.583.342-.734.705-.395 1.42-.775 2.124-1.168.738-.41 1.464-.838 2.203-1.241.569-.31 1.152-.593 1.728-.888m1.855-.255a11.09 11.09 0 0 1-.064.164c.487.41.942.867 1.47 1.219 1.114.745 2.273 1.424 3.399 2.153.447.289.773.693.862 1.245-.315.143-.61.213-.475.711.089.321.015.754-.38.985-.204.117-.386.268-.571.398.854.139 1.665.256 2.47.402 1.182.215 2.333.172 3.451-.312.549-.238.437-.721.457-1.148.017-.334-.153-.583-.468-.731a34.411 34.411 0 0 1-1.337-.654.959.959 0 0 1-.341-.307 3.37 3.37 0 0 1-.322-.637c-.042-.11-.067-.314-.009-.361.259-.205.53-.419.834-.54 1-.397 2.058-.197 3.094-.234.175-.007.353-.001.528-.001l.021-.115c-.322-.157-.627-.388-.965-.457-.803-.163-.867-.9-1.19-1.429-.046-.074.079-.299.177-.405.157-.172.359-.301.527-.437l-11.168.491m-13.714 5.121c.281-.125.543-.199.756-.344.739-.499.818-1.275.81-2.072-.002-.108-.058-.272-.138-.313-.386-.201-.775-.422-1.19-.529-.258-.067-.59-.026-.71.363-.042.143-.218.248-.338.364-.329.316-.469.837-.272 1.248.159.337.36.658.583.955.105.14.307.207.499.328M189.243 71.141c-.812.45-1.666.438-2.466.639-.931.235-1.791-.129-2.686-.104-.901.022-1.807.019-2.699.117-.231.024-.421.394-.641.593-.077.07-.21.18-.273.154-.692-.268-1.36.073-2.039.068-.08 0-.16.023-.24.031-.69.062-.699.061-.726.771-.039.997-.105 1.996-.084 2.992.016.707.158 1.413.244 2.121.196-.016.427.003.632-.056.434-.126.434.173.381.409-.053.235-.216.447-.343.662-.08.137-.183.258-.306.428.554 0 1.061.031 1.563-.005.981-.071 1.96-.196 2.941-.263.298-.02.606.076.91.125.447.068.261.396.159.562-.166.271-.41.502-.657.708-.089.074-.284.006-.424.035-1.661.346-3.347.299-5.028.322-1.353.017-2.708.001-4.059.067-1.302.062-2.602.212-3.902.321-.134.011-.271.002-.405.018-.335.039-.593.018-.675-.414-.034-.176-.264-.314-.393-.46.389-.657 1.065-.554 1.665-.618 1.01-.106 2.023-.176 3.036-.258.282-.023.565-.033.953-.056l.36-7.454c-.391-.037-.714-.047-1.025-.113-.094-.021-.153-.2-.232-.313-.53 0-1.104-.005-1.679.002-1.249.017-2.503.013-3.753.071-1.429.068-2.853.224-4.282.289-.962.044-1.93-.006-2.895-.008-.778-.001-1.559-.003-2.337.009-1.604.028-3.206.081-4.809.089-.82.004-1.64-.061-2.459-.107-.365-.021-.627-.395-.63-.889-.004-1.283.028-2.57-.01-3.854-.05-1.702-.119-3.404-.238-5.102a295.474 295.474 0 0 0-.558-6.572c-.218-2.381-.447-4.76-.692-7.137-.122-1.167-.33-2.325-.429-3.492-.09-1.062-.085-2.132-.125-3.198-.012-.278-.044-.554-.051-.833-.005-.196-.057-.445.039-.578.268-.368.659-.633 1.132-.542 2.545.497 5.12.296 7.683.377 1.527.047 3.054.099 4.58.154 1.783.065 3.567.152 5.351.2 2.256.059 4.509.104 6.765.121 2.05.014 4.101-.021 6.15-.029 2.134-.008 4.268-.002 6.402-.02.715-.005 1.428-.085 2.143-.09.331-.002.448.278.497.572.265 1.588.045 3.185.092 4.777.03 1.056.134 2.11.129 3.165-.004 1.241-.087 2.481-.14 3.721-.052 1.234-.135 2.466-.158 3.701-.064 3.333-.111 6.667-.148 10-.012 1.063-.012 2.13.07 3.188.021.271.369.519.573.771.059.072.138.122.246.215m-9.495-13.106l.144.053c.646-1.323 1.354-2.622 1.921-3.979.604-1.445 1.078-2.946 1.602-4.424.132-.374-.172-.833-.575-.865a18.46 18.46 0 0 0-1.244-.06 480.044 480.044 0 0 0-4.156-.024c-.55-.001-1.101.019-1.65.031-1.634.035-3.269.069-4.901.107-.831.02-1.663.073-2.494.069-1.265-.006-2.528-.069-3.793-.074-1.755-.007-3.511.016-5.267.029-1.917.013-3.834.03-5.753.04-.278.001-.558.09-.795-.217-.172-.223-.43-.397-.632-.595-.273-.267-.242-.497-.257-.768-.054-1.009-.054-2.024-.157-3.029-.077-.75.153-1.1.902-1.104a3.7 3.7 0 0 0 .364-.02c.911-.086 1.821-.235 2.734-.247.943-.013 1.888.129 2.833.155.828.022 1.659-.045 2.487-.031 1.509.027 3.017.096 4.524.124.803.016 1.607-.026 2.411-.024.996.002 1.993.041 2.989.035 2.053-.013 4.101-.036 6.149-.238 1.571-.154 3.159-.142 4.739-.162.853-.012 1.706.049 2.557.117.186.015.479.175.512.317.18.788.354 1.586.414 2.39.066.907-.377 1.779-.179 2.731.099.471-.145 1.012-.234 1.521l-.128-.017-.236-.297c-.115.354-.213.689-.334 1.015-.166.442-.401.862-.519 1.314-.45 1.729-1.136 3.364-1.976 4.929-.436.814-.98 1.571-1.486 2.346-.235.358-.462.702-.38 1.169.051.289.047.59.071.886.076.925.117 1.856.242 2.775.114.839.363 1.657.477 2.495.152 1.135.229 2.279.345 3.418.018.182.061.359.091.543.246-.059.438-.145.629-.143 1.55.012 3.099.036 4.648.064.226.006.335-.072.326-.297-.01-.254-.042-.51-.041-.765.004-1.36 0-2.722.032-4.082.044-1.917.112-3.835.182-5.752.018-.515-.026-.579-.527-.521-.228.026-.453.066-.729.109.217.701.303 1.391.008 2.131-.297-.217-.609-.398-.861-.644-.261-.253-.463-.565-.765-.946-.031.936-.904 1.166-1.201 1.869a355.3 355.3 0 0 1-.94-.869c.397-.672.787-1.345 1.197-2.007.155-.251.155-.425-.097-.61-.345-.254-.667-.538-.996-.807l.359-.67c.37.056.799.089 1.209.193.347.087.472-.022.586-.343.214-.598.478-1.18.739-1.761.12-.266.332-.235.444-.012.116.225.142.496.22.742.041.128.101.255.172.37.056.086.178.141.21.231.221.625.583 1.158 1.045 1.72.043-.153.074-.226.079-.299.141-1.588.312-3.175.406-4.768.12-2.025.186-4.053.256-6.08.026-.709-.023-1.421.008-2.129.027-.638.119-1.275.188-1.979-.285 0-.483-.01-.681.002-.505.032-1.009.095-1.515.107-.939.023-1.878.014-2.818.024-2.177.024-4.352.071-6.529.076-2.119.003-4.238-.027-6.356-.056a881.869 881.869 0 0 1-6.298-.113 211.733 211.733 0 0 1-3.284-.095c-1.28-.044-2.557-.118-3.837-.144-1.231-.024-2.466.025-3.695-.012-1.108-.034-2.215-.143-3.35-.221.028.302.065.565.079.831.039.793.018 1.595.113 2.381.207 1.683.499 3.354.705 5.036.295 2.4.551 4.807.808 7.211.095.899.144 1.801.213 2.703.14 1.8.299 3.599.41 5.399.07 1.141.074 2.284.098 3.426.013.603.043 1.208-.01 1.805-.026.297.041.366.301.363a109.67 109.67 0 0 1 2.146-.022c2.681.006 5.359.048 8.038.015 1.606-.021 3.212-.16 4.817-.242 1.13-.056 2.26-.123 3.391-.15.659-.018 1.321.025 1.981.06.273.015.367-.089.418-.356.207-1.125.442-2.246.667-3.369l.117-.592-.996.37-.869-.694.544-.908-1.41-1.625c.173-.261.316-.561.535-.79 1.381-1.45 2.324-3.19 3.272-4.924.377-.689.936-1.331.806-2.218-.03-.208.032-.429.041-.644.027-.714.024-1.432.077-2.145.078-1.041.566-1.882 1.383-2.516.494-.384 1.129-.496 1.544.022a.625.625 0 0 0 .385.209c.513.051.617.42.648.819.023.293-.007.595-.047.887-.065.467-.209.93-.228 1.396-.018.435-.048.958.165 1.292.325.511.289.891-.043 1.32-.065.083-.172.144-.214.236-.033.072-.012.183.019.265.037.102.138.185.16.286.065.307.102.613.151.916m-26.799-10.398c.684 0 1.305.008 1.924-.002 1.833-.03 3.666-.072 5.5-.101a635.63 635.63 0 0 1 4.778-.06c1.309-.011 2.617.025 3.925-.019 1.226-.042 2.448-.194 3.674-.237 1.234-.044 2.472-.017 3.707-.017 1.768 0 3.536.004 5.304.006h2.162c0-.81-.003-1.654.002-2.499.001-.256-.101-.354-.365-.348-1.022.024-2.045.032-3.068.043-.919.01-1.837-.009-2.755.03-.937.04-1.87.162-2.809.199a89.43 89.43 0 0 1-4.111.085c-1.468-.01-2.937-.085-4.404-.133-1.47-.049-2.939-.09-4.41-.153-1.405-.06-2.822.139-4.218-.124-1.685-.319-3.329-.008-4.987.229l.151 3.101m25.488 9.29c-.219.038-.532.08-.841.152-.063.015-.136.133-.148.211-.328 2.069-1.063 4.026-1.608 6.036-.364 1.346-.61 2.723-.889 4.091-.257 1.269-.486 2.541-.73 3.817 1.758.451 3.595.107 5.441.029-.062-.723-.118-1.391-.18-2.058-.094-.993-.153-1.993-.296-2.979a41.108 41.108 0 0 1-.431-5.441c-.011-1.02-.136-2.038-.215-3.057-.019-.23-.059-.458-.103-.801m-2.172.906l-.094-.037c-.066.094-.142.183-.199.284-.51.905-.996 1.827-1.533 2.716-.471.779-.997 1.523-1.504 2.28-.195.294-.319.532.094.788.237.146.46.385.429.752-.008.092.265.302.29.285.234-.163.558-.197.663-.555.438-1.485.918-2.96 1.354-4.447.2-.678.336-1.377.5-2.066m-.12 20.588c-.022-.325-.068-.673-.066-1.021.005-.74.032-1.479.057-2.217.024-.766.065-1.533.079-2.299.001-.076-.137-.214-.22-.221-.547-.052-.798.285-.792.979.006.726-.02 1.452-.022 2.177-.004.974-.001 1.947-.001 2.878.249-.07.574-.164.965-.276m9.417-20.647l-.523-.845-.334.845h.857z"/><path fill="#FFB547" d="M69.759 64.656c.084-.559.114-1.132.265-1.672.255-.918.899-1.571 1.67-2.089.306-.206.655-.353.999-.495.153-.062.337-.049.506-.062.146-.012.318.031.434-.031.568-.316 1.111-.143 1.634.083.363.156.634.06.926-.146.883-.616 1.837-.762 2.863-.409.291.101.6.142.888.243 1.011.352 1.687 1.115 2.043 2.053.248.66.598 1.361.443 2.132-.264 1.316-1.1 2.178-2.244 2.779-.189.1-.259.186-.29.409-.071.515-.105 1.08-.35 1.516-.317.572-.797 1.062-1.254 1.543-.618.648-1.396 1.062-2.246 1.332-.559.18-1.109.057-1.647-.109-1.336-.412-2.205-1.664-2.135-3.08.016-.312.051-.505-.413-.494-.447.01-.803-.334-1.071-.711-.101-.143-.192-.294-.301-.431-.552-.693-.739-1.486-.72-2.361m7.079-3.37c.394.747.7 1.454.58 2.188.24.211.45.366.619.557.1.11.106.305.206.418.397.453.815.889 1.23 1.338 1.157-.354 1.522-.871 1.455-2.08-.003-.066.007-.134.009-.201.013-1.15-1.175-2.338-2.319-2.173-.25.036-.587.085-.75-.043-.373-.294-.665-.046-1.03-.004m-4.239.556c-.647.285-.963.506-1.153.961-.107.258-.109.568-.113.856-.012.977-.149 1.972.787 2.702.462.361.754.391 1.077-.096.155-.234.283-.512.498-.678.397-.31.478-.658.332-1.11-.037-.108-.012-.239-.005-.358.039-.808.158-1.598.582-2.36-.195-.042-.343-.118-.473-.095-.282.055-.553.166-.832.246-.236.067-.494.358-.7-.068m1.185 6.274c0 .139-.022.305.003.462.201 1.244.796 1.949 2.212 1.648.352-.074.688-.236 1.023-.379.79-.33 1.341-1.25 1.283-2.107-.292-.045-.604-.178-.868-.116-.515.122-.963.003-1.377-.24-.327-.19-.592-.18-.905.002-.43.249-.877.469-1.371.73m1.805-5.468l-.132 1.41c.512-.266.565-.782.132-1.41m1.275 3.272l.888.2.016-.077-.584-.615-.32.492M78.885 52.313c.028.215.052.429.086.643.058.364.174.726.176 1.09.004.916-.264 1.719-1.147 2.235-.36-.478-.875-.173-1.326-.174-1.034 0-2.067.077-3.102.136-1.088.061-2.177.131-3.266.21-.861.063-1.722.153-2.584.217-.115.007-.291-.037-.346-.119-.328-.494-.713-.937-.538-1.647.107-.431-.04-.936-.123-1.399-.136-.751.378-1.282 1.134-1.245 1.329.063 2.662.091 3.992.074 1.419-.018 2.838-.09 4.254-.168.59-.032 1.175-.19 1.764-.199.376-.005.754.157 1.132.245l-.106.101m-1.442 2.28c0-.272.015-.503-.007-.729-.009-.085-.108-.23-.162-.228-.53.015-1.06.049-1.587.09-.358.028-.715.102-1.074.11-.778.018-1.558.001-2.337.013-.559.008-1.119.057-1.678.057-.658.001-1.314-.027-1.972-.049-.261-.008-.426.062-.375.367.012.08.007.162.009.243.014.57.014.576.604.543.926-.05 1.852-.104 2.778-.165.604-.04 1.208-.107 1.812-.144a81.452 81.452 0 0 1 2.367-.107c.533-.014 1.065-.001 1.622-.001M83.705 58.189c-.187-.235-.378-.474-.565-.717-.044-.056-.096-.125-.098-.189a785.493 785.493 0 0 1-.218-4.847c-.06-1.44-.093-2.881-.168-4.32-.044-.858-.177-1.712-.213-2.571-.01-.261.171-.53.261-.784l.62.13.12-.053c.086.547.201 1.092.251 1.642.102 1.115.174 2.232.253 3.349.056.794.083 1.589.162 2.38.14 1.432.309 2.862.473 4.349.157 0 .352.002.548 0 1.331-.024 2.667-.007 3.994-.088 1.518-.091 3.029-.284 4.545-.407a21.944 21.944 0 0 1 2.306-.086c.327.007.649.189 1.064.322-.426.402-.771.741-1.134 1.06-.078.068-.221.079-.337.087-.959.074-1.92.133-2.878.211-.885.073-1.768.188-2.652.24-1.328.078-2.659.114-3.988.173-.785.035-1.568.078-2.346.119M66.654 48.693c-.092-.953-.185-1.906-.271-2.86a.394.394 0 0 1 .07-.211c.401-.662 1.067-.806 1.758-.853 1.132-.076 2.265-.13 3.396-.169.585-.02.748.179.801.752.116 1.232.148 2.486.418 3.685.227 1.007-.379 1.523-.857 2.163-.026.034-.096.049-.144.051-.657.024-1.326.135-1.967.043a5.227 5.227 0 0 0-1.822.054c-.147.03-.32.103-.44.054-.517-.21-.701-.708-.822-1.18-.125-.491-.12-1.015-.172-1.523a.488.488 0 0 1 .052-.006m4.615 1.008l-.409-3.512h-2.921l.374 3.512h2.956zM78.839 46.868c.082.911.166 1.823.244 2.734a.388.388 0 0 1-.047.232c-.217.314-.439.626-.673.928-.175.229-.417.25-.7.251-1.184.002-2.366.028-3.528.306-.096.022-.255-.122-.352-.22-.61-.618-.587-1.415-.627-2.201-.042-.855-.117-1.708-.178-2.562-.022-.295-.123-.608-.051-.877.067-.243.292-.467.499-.639.15-.125.38-.205.581-.218 1.298-.08 2.599-.149 3.898-.186.229-.007.46.16.693.24.32.108.213.376.228.596.035.536.065 1.072.099 1.608l-.086.008m-1.469 2.59c0-1.098.007-2.16-.015-3.222-.002-.093-.198-.247-.316-.262-.292-.037-.594-.006-.892-.006l-1.631.001c.099 1.264.193 2.441.287 3.622l2.567-.133"/><path fill="#FFB547" d="M85.507 54.734c.718-.932 1.671-1.598 2.558-2.336 1.221-1.016 2.428-2.047 3.645-3.065.712-.596 1.44-1.17 2.145-1.773.24-.208.429-.475.708-.79l-.897.199-.344-.993c.225-.314.514-.559.945-.629.596-.096 1.182-.252 1.778-.322a1.87 1.87 0 0 1 .897.134c.113.048.152.352.167.543.029.371-.028.752.031 1.116.079.488-.32.68-.524.988-.084.128-.234.213-.394.352l-.358-.963c-.208.149-.368.239-.496.362-.803.754-1.573 1.545-2.401 2.269-1.407 1.231-2.852 2.42-4.276 3.631-.776.662-1.543 1.336-2.32 1.998-.147.125-.28.193-.396-.079-.098-.222-.291-.404-.468-.642M99.557 68.302c-.32.153-.556.291-.809.382-1.054.377-2.169.385-3.262.458-1.768.116-3.542.115-5.312.2-.883.041-1.762.166-2.639.251l-.197-1.065c.609-.515 1.37-.362 2.062-.4 2.304-.125 4.613-.16 6.92-.264.695-.031 1.387-.174 2.08-.264.092-.011.213-.043.274.002.296.214.573.451.883.7M98.216 60.916c-.366.337-.781.585-1.365.611-2.657.127-5.309.301-7.963.46-.465.028-.931.071-1.454.111l.165-.485c-.091-.121-.204-.273-.332-.44.704-.483 1.471-.403 2.192-.444 2.564-.143 5.13-.24 7.696-.361.457-.022.917-.089 1.061.548M87.749 65.755c-.031-.38-.06-.716-.092-1.087.456-.283 1.022-.31 1.617-.307.926.003 1.854-.055 2.779-.106 1.579-.087 3.162-.113 4.715-.485.323-.078.729-.104.996.221.223.27.158.461-.147.623-1.173.627-2.478.605-3.74.723-1.824.17-3.657.229-5.485.34-.214.011-.425.051-.643.078M84.757 62.148c-.041-.18-.138-.369-.108-.537.053-.317.095-.707.298-.912.279-.285.719-.301 1.122-.158.027.01.024.082.05.115.175.225.378.434.519.678a.507.507 0 0 1-.002.437c-.351.559-.906.861-1.507 1.078-.077.026-.264-.089-.315-.186-.077-.147-.079-.333-.113-.503l.056-.012M84.623 69.725c-.109-.463-.233-.82-.269-1.185-.031-.326.087-.617.447-.763.747-.305.936-.309 1.219.04.519.638.534.747-.214 1.363-.32.265-.776.365-1.183.545M84.948 65.393c-.089-.154-.191-.305-.265-.466-.038-.085-.058-.265-.032-.274.338-.146.71-.414 1.023-.359.372.064.826.273.872.805.018.208.017.378-.222.498-.272.137-.511.341-.766.516-.258.178-.423.084-.522-.186-.061-.165-.114-.332-.17-.5l.082-.034M139.579 66.893v-1.697c-.001-.305.672-.807 1.074-.809.336-.002.674-.002 1.006-.033.368-.036.739-.021 1.044-.342.143-.15.435-.196.666-.222.652-.071 1.31-.116 1.965-.151.305-.016.557.268.54.578-.017.309-.103.623-.068.924.062.544.206 1.078.288 1.621.104.692.224 1.387.258 2.086.031.59-.284 1.099-.762 1.398-.243.152-.645.074-.973.059-1.373-.066-2.741-.062-4.103.156-.285.045-.43-.061-.628-.285-.477-.539-.362-1.098-.274-1.712.074-.514.016-1.047.016-1.571h-.049m5.4 1.921l-.706-3.653c-.284.036-.599.032-.887.118-.59.178-1.103.587-1.765.551-.192-.01-.388.051-.611.083v2.901h3.969zM168.828 51.157c-.026-.072-.03-.133-.056-.144-.493-.201-.217-.507-.091-.767.122-.252.344-.298.607-.198.362.138.729.261 1.097.388.491.17.98.353 1.478.499.325.095.28.274.199.516-.236.714-.722 1.246-1.233 1.768-.309.312-.587.653-.899 1.005-.403-.514-1.143-.744-.949-1.565-.962.163-1.484.829-1.501 1.754-.019 1.011.016 2.036-.146 3.026-.265 1.616-.561 3.241-1.359 4.71-.6 1.104-1.479 1.914-2.57 2.527-.915.516-1.832.999-2.861 1.268-1.713.447-3.292.154-4.812-.702-.399-.226-.368-.567-.278-.86.064-.207.334-.374.547-.498.078-.045.27.068.391.139 1.657.969 3.368 1.049 5.078.211a17.379 17.379 0 0 0 2.473-1.502c.837-.6 1.324-1.494 1.618-2.461.339-1.117.643-2.252.876-3.397.108-.531.032-1.104.01-1.658-.041-1.053.06-2.071.683-2.967.404-.586.991-.912 1.698-1.092M165.924 69.885c-.858-.381-.814-.377-.742-1.309.064-.873 0-1.756.039-2.634.025-.581-.183-1.179.116-1.739.037-.07.076-.197.116-.199.45-.014.461-.541.823-.674.349-.132.689-.316.995-.533.402-.284.811-.355 1.258-.172.081.033.195.168.18.228-.376 1.563.116 3.05.409 4.548.094.478.135.939.017 1.404-.061.239-.151.404-.521.402-.69-.004-1.386.114-2.068.246-.226.043-.416.281-.622.432m.404-1.826c.454-.062.918-.117 1.377-.205.066-.014.153-.197.142-.291a43.465 43.465 0 0 0-.25-1.758c-.075-.482-.163-.963-.244-1.441l-1.024.341v3.354z"/><path fill="#FFF" d="M181.719 69.203c.123-.35.244-.621-.166-.757-.073-.023-.132-.228-.12-.34.079-.737.203-1.47.266-2.206.055-.642.064-1.287.062-1.931-.003-.381.384-.823.766-.863a56.137 56.137 0 0 0 2.159-.282c.412-.061.602.102.709.502.236.884.13 1.764.086 2.655a8.79 8.79 0 0 0 .146 2.118c.098.484-.021.894-.142 1.322-.017.059-.276.117-.377.072-.403-.174-.77-.447-1.252-.34-.399.088-.804.203-1.208.223-.297.015-.603-.106-.929-.173m1.204-4.697c-.137 1.173-.271 2.307-.39 3.441-.004.051.157.176.234.17.524-.029 1.047-.086 1.577-.133-.275-1.218.316-2.445.015-3.68-.51.073-.975.137-1.436.202"/><path fill="#FFB547" d="M153.956 66.699c.64-.072 1.23-.159 1.826-.203.75-.055 1.505-.068 2.256-.112.344-.021.523.064.532.462.018.687.111 1.371.136 2.057.015.438-.039.879-.065 1.373-.088 0-.194.023-.283-.004-.837-.252-1.689-.236-2.544-.154-.266.025-.527.152-.788.149-.198-.003-.393-.147-.593-.212-.243-.078-.312-.211-.3-.479a11.45 11.45 0 0 0-.053-1.492c-.02-.21-.165-.408-.183-.619-.021-.24.035-.487.059-.766m1.164 2.046c.742.054 1.463.099 2.181.163.265.022.324-.12.271-.314-.088-.312.136-.739-.324-.92-.01-.006-.024.006-.039.008-.424.047-.85.096-1.275.145-.795.091-.795.091-.814.918M172.442 59.332c-.952-.625-1.817-.434-2.679-.035-.181.084-.337.16-.467-.09-.063-.121-.483-1.045-.491-1.185-.042-.754.158-1.513-.108-2.268-.055-.156.165-.41.251-.601 1.145-.055 2.279-.124 3.413-.16.559-.017.612.029.58.555-.062 1.027.105 2.073-.223 3.08-.072.22-.167.433-.276.704m-2.631-2.819v1.359l1.99.089c.03-.505.065-.947.079-1.39.008-.203-.078-.327-.324-.29-.571.086-1.144.153-1.745.232M160.044 68.623c.111-.471.163-.965.354-1.398.099-.225.439-.346.675-.506.081-.055.208-.068.259-.14.351-.505.696-.573 1.302-.55.599.022.977.248 1.252.744.258.466.305.939.249 1.477-.085.823-.373 1.488-1.06 1.969-.515.359-1.027.542-1.644.195-.419-.237-.936-.336-1.132-.845-.112-.295-.167-.61-.255-.946m1.509-.955c-.09.215-.17.383-.23.559-.087.256.106.758.347.805.426.085.769-.113 1.085-.395.269-.24.302-.549.232-.838-.098-.407-.478-.551-.66-.267-.219.339-.446.296-.774.136M155.052 52.47c.06-.2.081-.423.188-.59a.663.663 0 0 1 .419-.269 37.143 37.143 0 0 1 2.133-.199c1.091-.072 2.182-.127 3.273-.18.546-.027 1.094-.028 1.64-.051.184-.007.367-.056.552-.071.438-.035.622.221.481.64-.039.118-.07.247-.065.369.021.453-.296.494-.616.5-.794.015-1.588-.013-2.379.025-1.245.057-2.487.154-3.73.238-.078.006-.154.049-.232.055-.351.023-.702.147-1.02-.18-.154-.157-.429-.197-.644-.287M163.229 58.693c-.154.428-.324.771-.396 1.133-.067.339-.257.284-.496.295-1.506.068-3.012.143-4.515.248-.532.036-1.057.213-1.589.24-.338.02-.686-.109-1.024-.191-.051-.012-.104-.125-.109-.196-.052-.546.269-.962.806-1.008 1.997-.165 3.995-.315 5.992-.474.308-.025.612-.074.921-.097.112-.008.226.027.41.05M163.12 54.572c-.165.566-.3 1.022-.416 1.423-1.664.145-3.293.284-4.92.43-.562.05-1.128.185-1.685.152-.326-.019-.652-.268-.951-.455-.114-.072.144-.828.295-.888.16-.064.33-.129.499-.141 1.241-.083 2.48-.153 3.721-.225.643-.037 1.287-.055 1.929-.106.47-.036.939-.115 1.528-.19M153.586 51.184c.823-.072 1.152.591.899 1.221-.132.328-.202.68-.322 1.013-.028.081-.166.204-.209.188-.36-.134-.769-.227-1.042-.468-.259-.228-.451-.599-.195-1.004.09-.143.098-.334.168-.492.143-.311.335-.566.701-.458M153.897 60.789c-.106-.008-.228.016-.316-.028-.266-.133-.725-.276-.737-.442-.035-.477-.125-1.06.285-1.412.244-.209.669-.311 1.001-.289.354.023.433.414.406.729-.036.415-.109.83-.217 1.23-.031.121-.229.196-.353.291l-.069-.079M153.706 54.706c.643-.016.857.548.782.996-.045.264-.092.527-.13.792-.052.349-.227.435-.54.269-.212-.112-.444-.191-.641-.324-.251-.17-.457-.384-.346-.739.107-.342.033-.783.509-.916.121-.034.245-.053.366-.078"/><path fill="none" d="M53 4.474h138.311v88.247H53z"/></svg>
