<svg xmlns="http://www.w3.org/2000/svg" width="300" height="240" viewBox="0 0 300 240"><path fill="#FFB547" d="M293.898 152.857c-.853-.088-1.905-.141-2.936-.316-1.245-.211-2.496-.316-3.754-.391-.941-.057-1.888-.127-2.815-.278-1.251-.202-2.502-.278-3.762-.284-1.889-.01-3.778-.013-5.668-.013-1.68 0-3.357.042-5.012.396-.409.088-.83.113-1.246.152-4.635.422-9.07 1.604-13.397 3.301-2.95 1.16-5.713 2.639-8.375 4.327a30.838 30.838 0 0 0-2.557 1.833c-1.974 1.562-3.994 3.07-5.739 4.902a60.036 60.036 0 0 0-1.676 1.876c-.343.396-.635.839-.992 1.22-2.395 2.539-4.216 5.49-6.049 8.426-1.165 1.865-2.282 3.766-3.229 5.764-2.198 4.659-4.048 9.449-5.442 14.41-1.248 4.447-2.228 8.961-3.059 13.504-.471 2.578-.86 5.172-1.274 7.764-.081.516-.099 1.043-.163 1.564-.113.936-.24 1.873-.363 2.805-.027.209-.092.416-.102.623-.11 2.729-.69 5.408-.849 8.133a19.775 19.775 0 0 1-.275 2.184c-.069.408-.196.82-.362 1.201-.394.898-1.353 1.369-2.351.852-.275-.143-.556-.309-.782-.521-1.454-1.365-2.928-2.705-4.468-3.971-.485-.4-.911-.869-1.362-1.309-1.353-1.32-2.722-2.619-4.05-3.965-1.257-1.273-2.684-2.344-4.028-3.516-1.344-1.172-2.552-2.498-4.009-3.541a13.168 13.168 0 0 1-.979-.791c-3.649-3.168-7.549-6.01-11.521-8.758-2.329-1.613-4.798-3.006-7.25-4.424-2.461-1.42-5.004-2.643-7.597-3.791a71.243 71.243 0 0 0-14.966-4.759c-2.269-.452-4.568-.649-6.84-1.056-.82-.147-1.673-.136-2.511-.158a263.257 263.257 0 0 0-13.535.007c-1.262.034-2.518.104-3.754.364-.411.086-.83.14-1.248.18-4.398.391-8.712 1.28-12.997 2.316a162.88 162.88 0 0 0-17.173 5.168c-2.76 1-5.475 2.131-8.212 3.193-3.424 1.332-6.801 2.777-10.168 4.238-2.983 1.293-5.922 2.691-8.885 4.029a169.295 169.295 0 0 1-4.044 1.746c-.286.119-.6.195-.906.25-1.21.211-2.085-.816-1.87-1.889.061-.305.152-.615.297-.889.346-.648.722-1.279 1.099-1.908a28.492 28.492 0 0 0 2.638-5.701c.628-1.891 1.243-3.783 1.609-5.754.291-1.555.501-3.105.516-4.684.016-1.469-.007-2.938.031-4.408.094-3.822-.667-7.514-1.716-11.152-.935-3.234-2.157-6.355-3.75-9.33-1.194-2.229-2.577-4.326-4.043-6.373a39.929 39.929 0 0 0-4.723-5.477 55.896 55.896 0 0 1-1.558-1.56c-2.043-2.132-4.366-3.925-6.782-5.601-.778-.541-1.572-1.051-2.354-1.582-1.826-1.238-3.745-2.312-5.706-3.328-4.203-2.176-8.566-3.946-13.057-5.445a106.158 106.158 0 0 0-14.31-3.691c-1.24-.232-2.474-.479-3.708-.732a2.804 2.804 0 0 1-1.131-.519c-.732-.556-.858-1.568-.324-2.233.255-.326.563-.625.891-.875a142.232 142.232 0 0 1 3.303-2.416c1.119-.791 2.134-1.697 3.104-2.66.374-.371.749-.736 1.117-1.107 3.822-3.824 6.888-8.188 9.132-13.1 1.621-3.54 2.798-7.237 3.383-11.106.078-.517.154-1.039.263-1.551.245-1.136.333-2.284.247-3.441a14.823 14.823 0 0 1 .019-2.2c.14-1.786.086-3.564-.278-5.325a10.49 10.49 0 0 1-.193-1.245c-.25-2.851-1.09-5.553-2.057-8.221-.462-1.281-1.011-2.533-1.523-3.798a6.549 6.549 0 0 0-.265-.571c-1.489-2.775-2.999-5.536-5.026-7.972-.334-.405-.672-.805-.993-1.222a33.975 33.975 0 0 0-6.475-6.393 69.31 69.31 0 0 1-2.223-1.755c-.796-.651-1.077-1.518-.983-2.524.018-.208.031-.421.072-.625.436-2.158.87-4.32 1.326-6.476.152-.716.326-1.436.692-2.083.471-.834 1.356-1.385 2.351-1.264.311.036.624.087.924.174.706.206 1.404.429 2.105.657 1.196.392 2.388.8 3.587 1.184a165.97 165.97 0 0 0 10.895 3.104c1.335.33 2.674.527 4.045.518 1.995-.011 3.988-.036 5.981-.071a17.624 17.624 0 0 0 3.122-.344c1.032-.203 2.078-.311 3.104-.523 3.41-.708 6.672-1.872 9.807-3.36 1.414-.672 2.769-1.5 4.071-2.378 1.74-1.17 3.427-2.426 4.888-3.953.651-.682 1.331-1.339 2-2.008 2.012-2.013 3.692-4.276 5.21-6.685 1.963-3.119 3.53-6.438 5.092-9.762.314-.662.552-1.36.812-2.046.411-1.08.823-2.159 1.208-3.248.347-.987.696-1.979.985-2.986.67-2.317 1.383-4.624 1.955-6.97.099-.403.272-.791.446-1.172.394-.858 1.599-1.252 2.418-.78.361.207.731.43 1.023.718.596.587 1.187 1.192 1.705 1.847.849 1.074 1.773 2.073 2.734 3.041 1.998 2.011 3.993 4.023 6.001 6.022 1.262 1.26 2.567 2.468 3.975 3.576 1.4 1.099 2.698 2.326 4.135 3.39 2.365 1.752 4.771 3.431 7.389 4.789.188.096.37.195.552.3 4.213 2.464 8.763 3.973 13.526 4.964 3.122.649 6.254.647 9.398.49 1.679-.084 3.33-.468 4.942-.928 1.711-.489 3.397-1.083 5.065-1.715 1.571-.597 3.046-1.405 4.479-2.291 2.056-1.272 4.002-2.697 5.897-4.191a16.549 16.549 0 0 0 2.882-2.894c1.862-2.404 3.715-4.817 5.252-7.457 1.898-3.264 3.943-6.44 5.736-9.77.596-1.106 1.229-2.194 2.005-3.193.577-.742 1.85-.824 2.515-.13.287.299.562.626.772.982a216.554 216.554 0 0 1 2.201 3.817c1.191 2.1 2.367 4.207 3.564 6.3.575 1.003 1.171 1.99 1.772 2.974 2.021 3.316 4.047 6.628 6.215 9.849.94 1.394 1.919 2.754 2.921 4.102.816 1.1 1.732 2.105 2.679 3.088 1.39 1.445 2.935 2.682 4.577 3.828 3.113 2.167 6.409 3.998 9.845 5.583.855.396 1.731.757 2.616 1.081 1.182.437 2.387.804 3.571 1.23 2.08.75 4.233 1.217 6.401 1.625 1.233.233 2.479.436 3.725.603.83.113 1.672.17 2.509.199 3.882.128 7.765.119 11.646-.009 1.154-.038 2.304-.133 3.436-.392.611-.142 1.236-.235 1.856-.342 4.687-.806 9.153-2.335 13.442-4.341 3.326-1.557 6.501-3.414 9.343-5.78.483-.401 1.003-.76 1.524-1.111.35-.233.736-.398 1.161-.461.56-.086 1.046.071 1.406.505.359.435.423.953.217 1.474a2.697 2.697 0 0 1-.468.811c-.556.627-1.152 1.218-1.726 1.831-2.308 2.46-4.314 5.14-5.893 8.129-.246.464-.473.937-.722 1.399-2.654 4.957-4.212 10.272-5.198 15.779-.112.617-.149 1.247-.222 1.874-.084.729-.128 1.467-.263 2.188-.254 1.346-.332 2.706-.34 4.07a531.156 531.156 0 0 0-.005 4.723c.006 1.786.092 3.558.422 5.325.284 1.545.392 3.118.701 4.667.434 2.162.989 4.294 1.553 6.423.214.809.497 1.604.785 2.391.439 1.179.928 2.34 1.378 3.517 1.654 4.329 3.883 8.366 6.26 12.333 2.435 4.061 5.249 7.84 8.209 11.524 1.12 1.392 2.221 2.791 3.472 4.066.147.149.292.305.415.475 1.499 2.04 3.316 3.788 5.089 5.572a810.243 810.243 0 0 0 5.808 5.771c1.345 1.324 2.679 2.664 4.202 3.794.42.312.797.683 1.177 1.042 1.373 1.297 2.722 2.621 4.187 3.814.159.131.282.311.403.48.662.93.068 2.042-.749 2.328-.198.068-.4.139-.604.162-.41.044-.831.053-1.446.089M17.021 126.891l.011.014c.207-.215.413-.43.62-.643.154-.123.321-.232.461-.371.043-.045.013-.16.017-.242-.369.049-.354.385-.468.625l-.641.617m49.129-84.37c-.212.21-.422.418-.63.629l-.012-.01.63-.631c.211-.209.422-.421.632-.631.9-.636 1.619-1.41 1.884-2.521l.015.016c-.903.634-1.598 1.42-1.887 2.514-.212.211-.422.422-.632.634m-3.785 3.771l.004.001-.004-.001zm-1.891 1.253l-.628.631.007.008c.209-.21.421-.421.631-.628l-.01-.011zm11.978-13.837a3.1 3.1 0 0 0-.633 1.253l-.011-.012c.308-.37.506-.792.629-1.256a3.06 3.06 0 0 0 .628-1.264 3.22 3.22 0 0 0 .633-1.255c.304-.371.502-.796.634-1.255l-.001-.002-.624 1.265c-.288.379-.481.808-.628 1.258a3.473 3.473 0 0 0-.627 1.268M204.695 224.5l-.016.014c-.074-.301-.149-.6-.227-.9-.421-1.635-1.124-3.104-2.377-4.281-.374-.348-.666-.785-1.008-1.17-.057-.062-.179-.096-.273-.096-.219-.008-.36.127-.411.361-.114.514-.064 1.029-.01 1.543.068.635.301 1.201.713 1.688.672.793 1.423 1.5 2.231 2.15.411.328.878.541 1.378.691M67.401 206.871c.699-.453 1.295-1.027 1.826-1.666.399-.482.797-.987.957-1.584.306-1.131.973-2.045 1.606-2.986.133-.195.082-.406-.097-.531a.473.473 0 0 0-.284-.062c-.629.075-1.177.373-1.731.649-.689.343-1.149.895-1.318 1.635-.341 1.512-.636 3.035-.951 4.555l-.008-.01zm-.622 4.42c1.439-.336 2.789-.906 4.127-1.514 1.433-.648 2.868-1.287 4.302-1.936.19-.088.375-.188.558-.289a2.715 2.715 0 0 0 1.24-1.375c.405-.967.719-1.971.786-3.025.014-.186-.106-.396-.214-.566-.139-.225-.607-.312-.851-.205-.193.086-.398.145-.578.25a350.322 350.322 0 0 0-3.237 1.939 3.837 3.837 0 0 0-1.164 1.047c-1.044 1.453-2.309 2.709-3.533 4.002-.505.535-.967 1.107-1.448 1.66l.012.012zm11.958-14.494c.928-.217 1.767-.649 2.613-1.072 2.251-1.121 4.502-2.246 6.764-3.353a46.912 46.912 0 0 1 2.576-1.168 151.69 151.69 0 0 1 13.584-4.968c3.307-1.031 6.658-1.915 10.057-2.549 3.498-.653 6.999-1.356 10.567-1.572a9.327 9.327 0 0 0 1.245-.176c1.139-.224 2.289-.295 3.444-.3 3.354-.012 6.709-.019 10.065-.017 1.363.002 2.722.091 4.068.343.719.132 1.457.19 2.187.228 1.262.065 2.505.231 3.74.48 1.541.316 3.101.547 4.632.887 2.866.634 5.712 1.356 8.509 2.259 3.803 1.226 7.436 2.857 11.09 4.439.479.206.931.483 1.39.737.644.354 1.26.753 1.919 1.078 2.55 1.251 4.913 2.809 7.257 4.399 2.345 1.591 4.63 3.257 6.687 5.217.457.433.945.83 1.438 1.224a32.43 32.43 0 0 1 5.319 5.33c.847 1.072 1.772 2.07 2.722 3.047.165.172.376.207.573.096.08-.043.169-.146.182-.23.215-1.662.484-3.314.608-4.982.128-1.678.411-3.328.679-4.983.523-3.247 2.052-8.813 3.194-11.821 1.044-2.751 2.322-5.391 3.645-8.014 1.609-3.191 3.494-6.205 5.613-9.086 1.743-2.366 3.708-4.549 5.577-6.809.732-.887 1.581-1.686 2.442-2.447 1.412-1.252 2.834-2.498 4.325-3.648 4.745-3.668 9.731-6.941 15.356-9.133.294-.113.583-.24.866-.379 1.229-.593 2.515-1.05 3.813-1.466 3.096-.993 6.221-1.884 9.426-2.456 1.031-.188 2.08-.287 3.104-.504 1.344-.279 2.705-.323 4.062-.434 1.357-.109 2.707-.302 4.061-.449.208-.024.42-.017.63-.018 2.096-.01 4.195-.085 6.269.35.306.064.625.097.938.101 2 .02 3.959.394 5.927.7.622.098 1.245.189 1.856.326 1.132.254 2.274.381 3.431.414l-.006.006c-.634-.847-1.391-1.569-2.213-2.229-.572-.458-1.171-.896-1.687-1.415-2.514-2.527-5.197-4.889-7.397-7.721-.256-.33-.545-.639-.839-.94-1.608-1.655-3.119-3.395-4.589-5.178-1.204-1.455-2.403-2.911-3.542-4.417-4.062-5.369-7.699-11-10.602-17.089-1.493-3.13-2.715-6.368-3.913-9.617-.184-.491-.323-1-.455-1.505-.892-3.453-1.822-6.897-2.293-10.446-.166-1.251-.334-2.497-.344-3.755-.02-2.729-.035-5.456-.043-8.186a46.842 46.842 0 0 1 .596-7.518c.705-4.37 1.775-8.627 3.433-12.732.863-2.141 1.721-4.285 2.816-6.32.115-.215.038-.425-.165-.542a.379.379 0 0 0-.3-.021c-2.682 1.207-5.445 2.189-8.246 3.085-2.102.671-4.237 1.182-6.401 1.626-1.854.384-3.74.52-5.6.835a21.185 21.185 0 0 1-3.444.298c-1.363.011-2.73.023-4.094.02-1.784-.005-3.568-.011-5.327-.399a7.216 7.216 0 0 0-1.249-.141c-2.108-.098-4.164-.526-6.206-1.005-4.919-1.153-9.696-2.715-14.193-5.061a42.76 42.76 0 0 0-1.402-.708c-3.522-1.691-6.687-3.934-9.771-6.303-.917-.704-1.768-1.497-2.489-2.397-1.378-1.716-2.806-3.391-4.054-5.215-4.39-6.412-8.441-13.033-12.265-19.794-.358-.638-.767-1.252-1.167-1.866-.112-.172-.289-.301-.429-.455-.176-.183-.703-.208-.877-.021-.214.227-.46.439-.609.704a169.819 169.819 0 0 1-8.382 13.314c-1.938 2.784-4.298 5.159-6.87 7.32-2.338 1.96-4.944 3.542-7.645 4.958-1.869.979-3.853 1.653-5.851 2.311-3.209 1.058-6.496 1.673-9.889 1.609a122.564 122.564 0 0 0-3.15-.013c-2.859.02-5.639-.514-8.372-1.29-2.83-.802-5.571-1.864-8.26-3.051a21.374 21.374 0 0 1-1.96-1.001c-3.187-1.836-6.306-3.772-9.196-6.055-2.385-1.885-4.783-3.756-6.929-5.929-1.992-2.014-4.022-3.991-6.033-5.985-.52-.518-1.027-1.051-1.549-1.566a9.707 9.707 0 0 0-.709-.62.619.619 0 0 0-.581-.125.518.518 0 0 0-.394.434c-.246 1.764-.478 3.531-.724 5.298a26.564 26.564 0 0 1-.315 1.861c-1.283 6.016-3.661 11.584-6.914 16.793-1.228 1.962-2.671 3.76-4.124 5.555-1.526 1.881-3.217 3.592-5.121 5.094-.577.457-1.146.92-1.713 1.386-1.299 1.07-2.697 2-4.179 2.794-1.11.594-2.225 1.183-3.37 1.709-3.354 1.546-6.853 2.621-10.545 2.987-.523.054-1.045.119-1.562.204-2.506.421-5.01.412-7.516.007-.519-.083-1.039-.175-1.56-.193-1.583-.058-3.126-.355-4.672-.653-3.402-.652-6.792-1.348-10.082-2.462-.494-.166-1.013-.251-1.526-.352-.071-.014-.198.091-.24.171a.387.387 0 0 0 0 .304c.297.571.813.954 1.254 1.396 2.146 2.158 4.306 4.303 6.444 6.467a23.098 23.098 0 0 1 1.687 1.868c1.566 1.974 3.071 3.994 4.389 6.143.934 1.52 1.916 3.016 2.655 4.642 1.44 3.166 2.551 6.438 3.069 9.89.157 1.036.429 2.057.449 3.111.077 3.356.142 6.701-.456 10.039-.686 3.836-1.595 7.583-3.042 11.212-1.526 3.834-3.629 7.324-5.976 10.686a35.196 35.196 0 0 1-4.499 5.252c-1.06 1.02-2.108 2.047-3.158 3.072-.226.221-.447.443-.669.664-.308.304-.156.914.265 1.027 1.113.301 2.222.617 3.344.881 5.927 1.399 11.789 3.023 17.528 5.07.196.068.398.128.596.203 1.079.406 2.16.811 3.239 1.22 3.444 1.302 6.707 2.993 9.94 4.729 1.572.844 3.081 1.803 4.583 2.762 1.685 1.068 3.261 2.293 4.808 3.547.978.793 1.926 1.625 2.892 2.43 1.13.946 2.172 1.98 3.101 3.121.465.569.888 1.176 1.395 1.707 1.602 1.682 2.894 3.6 4.085 5.575 1.956 3.243 3.549 6.659 4.586 10.324.832 2.944 1.097 5.978 1.474 8.992.027.207.01.42.018.628.058 1.582-.181 3.135-.38 4.697a38.492 38.492 0 0 1-1.9 7.942c-.315.89-.578 1.796-.87 2.695l-.002-.005zm-10.755-15.32c.205-.021.439.018.607-.076 2.667-1.443 5.234-3.049 7.79-4.676.087-.057.166-.127.247-.194.412-.358.67-.808.679-1.356.006-.413-.004-.839-.089-1.242-.478-2.262-1.295-4.407-2.269-6.494-.086-.186-.233-.344-.348-.516-.209-.305-.829-.423-1.139-.212-.172.118-.37.203-.517.347a1815.84 1815.84 0 0 0-6.208 6.205c-.219.221-.41.475-.585.73a2.459 2.459 0 0 0-.417 1.789c.029.205.058.416.122.613.49 1.486.98 2.975 1.49 4.455.062.186.232.342.369.491.064.069.176.093.268.136m149.785 15.791c-.053-.48-.067-.904-.149-1.311-.289-1.436-.599-2.867-.901-4.301-.302-1.434-.612-2.861-.858-4.309-.331-1.957-.772-3.898-1.171-5.847-.019-.103-.055-.2-.085-.302-.066-.223-.198-.377-.403-.41a.501.501 0 0 0-.526.242c-1.106 1.781-1.997 3.672-2.825 5.594-.258.596-.275 1.221-.131 1.849.021.103.044.206.074.304 1.006 3.195 2.011 6.391 3.236 9.51.535 1.361.968 2.768 1.706 4.043.12.207.303.309.529.254.082-.02.177-.127.2-.213.354-1.203.7-2.408 1.023-3.621.131-.504.195-1.023.281-1.482m-5.036 26.668c.055-.861-.148-1.652-.677-2.346-.377-.498-.74-1.006-1.125-1.498-1.476-1.895-2.86-3.846-4.014-5.955-.149-.273-.35-.518-.533-.771-.06-.082-.14-.152-.215-.223-.173-.174-.374-.203-.572-.057a.43.43 0 0 0-.163.256c-.247 1.973-.146 3.945.081 5.912.031.307.115.615.211.912.857 2.678 1.727 5.355 2.857 7.934.211.484.47.938.836 1.314.504.521 1.04 1.016 1.57 1.516.072.07.182.096.265.154.24.172.681-.039.751-.33.227-.92.141-1.867.271-2.791.147-1.031.313-2.061.449-3.094.043-.305.008-.621.008-.933m-148.2-52.221c.102-.029.218-.033.299-.086.341-.237.705-.453.999-.742 1.926-1.91 3.838-3.838 5.75-5.762.22-.225.411-.473.616-.711.305-.359.377-1.06.179-1.483a9.92 9.92 0 0 0-1.768-2.562c-.392-.41-1.196-.591-1.744-.335-.47.219-.961.428-1.37.74-1.832 1.389-3.611 2.838-4.973 4.727-.121.168-.258.326-.39.488-.508.635-.579 1.326-.212 2.044.523 1.022 1.06 2.036 1.61 3.044.093.176.258.336.429.442.164.106.379.131.575.196M215.243 207.6c-.035-.201-.086-.617-.188-1.021-.075-.305-.205-.596-.331-.881-1.745-3.934-3.363-7.916-4.734-11.995-.065-.198-.157-.388-.245-.579a2.426 2.426 0 0 0-.158-.271c-.125-.192-.294-.301-.505-.301a.562.562 0 0 0-.505.301c-.594 1.121-.937 2.332-1.179 3.568a5.345 5.345 0 0 0 .112 2.492c.202.707.409 1.416.694 2.091 1.066 2.511 2.265 4.962 3.648 7.315.476.811 1.056 1.561 1.596 2.332.196.287.596.451.811.352.308-.141.433-.424.528-.721.259-.802.447-1.618.456-2.682m6.34-21.807c-.053-.582-.069-1.105-.155-1.621-.432-2.682-.876-5.359-1.327-8.041-.137-.824-.305-1.643-.466-2.463a.603.603 0 0 0-.36-.465.507.507 0 0 0-.572.111c-.882.906-1.551 1.967-2.13 3.082a2.642 2.642 0 0 0-.269 1.523c.049.414.126.824.207 1.235.759 3.792 1.522 7.579 2.291 11.372.04.197.151.387.253.565.046.08.149.153.237.179.201.062.394-.017.507-.221.668-1.191 1.113-2.477 1.515-3.775.153-.493.189-1.022.269-1.481M69.04 197.432c-.021-.203 0-.098 0 .004-.002.245.409.618.644.572 1.883-.35 3.537-1.219 5.098-2.283.249-.169.427-.455.602-.714.174-.257.327-.534.443-.823.862-2.137 1.555-4.322 1.954-6.594.015-.1-.029-.205-.027-.311.002-.25-.439-.555-.687-.475-.198.064-.416.089-.594.188-2.105 1.166-4.09 2.516-6.04 3.918-.726.52-1.041 1.279-1.096 2.157-.086 1.355-.185 2.706-.297 4.361m-6.171-44.947c-.037-.097-.05-.214-.113-.291-.66-.815-1.437-1.513-2.347-2.035-.376-.218-.808-.214-1.207-.036-.283.128-.558.29-.808.475-1.942 1.43-3.635 3.133-5.252 4.911-.317.347-.269 1.049.068 1.449.607.72 1.249 1.403 2.001 1.976.392.299 1.092.336 1.471.049.248-.192.512-.365.735-.582a816.934 816.934 0 0 0 4.712-4.593c.221-.218.426-.464.586-.728.102-.17.108-.393.154-.595m15.232 28.548c-.059-.356-.133-.869-.231-1.377-.062-.334-.715-.609-1.033-.465-.094.044-.199.066-.29.115-2.592 1.352-4.987 3.027-7.457 4.58-.564.354-.833.955-.734 1.621.121.822.317 1.635.497 2.447.108.494.777.711 1.28.406 1.513-.924 3.027-1.84 4.522-2.787a41.481 41.481 0 0 0 2.322-1.594c.616-.451.964-1.082 1.042-1.849.031-.31.046-.621.082-1.097m-25.333-35.471c-.194.075-.406.12-.578.228a4.724 4.724 0 0 0-.743.572c-1.366 1.311-2.488 2.82-3.564 4.369-.281.406-.25 1.094.039 1.48a5.845 5.845 0 0 0 1.877 1.633c.452.254 1.13.252 1.489-.021.2-.151 4.603-3.907 4.767-4.075.147-.152.281-.311.423-.465.546-.599.482-1.455-.129-1.931a14.75 14.75 0 0 0-2.371-1.526 2.548 2.548 0 0 0-.589-.213c-.2-.043-.413-.035-.621-.051M31.147 77.804c-.057-.314-.065-.639-.173-.922-.538-1.367-1.24-2.65-1.972-3.921-.101-.18-.254-.329-.376-.499-.22-.305-.859-.367-1.138-.109-.076.071-.176.116-.243.193a647.709 647.709 0 0 0-3.05 3.582c-.133.16-.248.338-.355.517-.274.466-.395.979-.294 1.505.22 1.143.686 2.189 1.29 3.178.114.191.594.409.827.361.204-.042.432-.055.602-.158a290.634 290.634 0 0 0 4.007-2.46c.172-.108.34-.259.45-.43.168-.258.28-.548.425-.837m36.741 79.594c-.043-.201-.03-.44-.138-.599-.53-.788-1.201-1.446-1.966-2.011-.298-.219-.906-.244-1.192-.028-.085.063-.184.103-.262.171-1.196 1.023-2.403 2.03-3.575 3.079-.781.696-1.519 1.447-2.26 2.189-.217.22-.387.493-.569.748a.646.646 0 0 0-.109.293c-.013.204-.061.435.009.613.347.901.95 1.613 1.717 2.193.193.147.702.149.902.042.568-.309.984-.781 1.421-1.234 1.679-1.732 3.403-3.422 5.457-4.726.172-.108.304-.288.436-.446.065-.077.086-.188.129-.284m-18.166-13.273c-.103-.178-.16-.415-.311-.529-1.012-.764-2.171-1.253-3.351-1.699-.462-.172-1.158-.035-1.454.326a38.84 38.84 0 0 1-3.867 4.121.745.745 0 0 0-.155.267c-.082.199-.088.427.062.583.211.225.449.45.716.596 1.012.55 1.903 1.31 2.978 1.75.409.17.817.136 1.207-.08.09-.051.188-.098.264-.166 1.514-1.322 2.735-2.889 3.817-4.565.101-.158.066-.4.094-.604m164.176 72.02c.062-.641-.062-1.242-.43-1.781-.117-.174-.23-.346-.363-.508-2.566-3.176-4.662-6.633-6.213-10.413a.987.987 0 0 0-.165-.263.68.68 0 0 0-.233-.186c-.208-.082-.393.002-.471.239a11.58 11.58 0 0 0-.342 1.199 3.796 3.796 0 0 0 .135 2.149c.215.588.403 1.186.657 1.754a54.137 54.137 0 0 0 2.659 5.297c.989 1.713 2.104 3.344 3.458 4.797.062.066.181.098.275.109a.456.456 0 0 0 .504-.283c.294-.675.46-1.382.529-2.11m11.422-43.407l.054-.002c0-1.355.008-2.716-.003-4.071a13.312 13.312 0 0 0-.078-1.248.643.643 0 0 0-.323-.497c-.185-.107-.4-.122-.585.006-.954.66-1.721 1.516-2.421 2.43-.257.338-.409.746-.364 1.173.133 1.241.289 2.484.452 3.727.101.724.268 1.439.34 2.165.157 1.559.497 3.088.807 4.619.046.236.24.343.484.301a.493.493 0 0 0 .264-.156c.883-1.092 1.35-2.346 1.369-3.746.02-1.569.004-3.135.004-4.701m-190.815-80.4c0-.612.005-.82-.002-1.026a8.603 8.603 0 0 0-.027-.623c-.02-.206-.058-.41-.083-.615-.076-.614-.75-1.083-1.354-.993-.934.141-1.802.489-2.677.81-3.013 1.106-3.277 1.525-3.095 4.829.012.203.08.405.119.607.061.336.553.703.926.689.208-.008.416.005.62-.015 1.452-.14 2.863-.48 4.262-.878.645-.187 1.046-.679 1.161-1.336.106-.607.129-1.234.15-1.449m95.317 96.589l-.049.001c.032.73.057 1.459.103 2.189.014.203.099.402.149.602.059.233.441.577.668.606 1.354.17 2.702.114 4.042-.123.436-.076.966-.703.919-1.132a270.775 270.775 0 0 0-.528-4.658c-.07-.568-.69-1.161-1.237-1.279-.934-.195-1.867-.215-2.796-.009-.544.12-.926.478-1.099 1.007a3.35 3.35 0 0 0-.164.918c-.026.625-.008 1.251-.008 1.878m34.372 6.983c0-.215.03-.43-.003-.63-.243-1.438-.473-2.88-.762-4.311-.152-.76-.666-1.282-1.365-1.612-.86-.398-1.751-.656-2.705-.724-.508-.036-1.02.396-1.064.924-.136 1.575.02 3.118.42 4.647.26.998.857 1.646 1.822 1.967.692.23 1.386.463 2.085.676.192.059.409.055.613.083.363.044.842-.334.899-.722.014-.102.04-.202.06-.298m-42.819-4.282c-.011-1.353-.329-2.772-.598-4.199-.107-.573-.785-1.063-1.374-1.06-.85.006-1.644.233-2.402.579-.495.226-.847.638-.928 1.177-.154 1.024-.249 2.059-.364 3.088a33.381 33.381 0 0 0-.135 1.547c-.038.613.498 1.24 1.096 1.309 1.381.158 2.681-.127 3.918-.732.397-.195.587-.572.698-.979.056-.198.053-.413.089-.73m57.456 9.099c-.039-.904-.048-1.744-.12-2.578-.068-.769-.435-1.396-1.09-1.822a22.644 22.644 0 0 0-3.322-1.769.78.78 0 0 0-.306-.042.484.484 0 0 0-.491.332c-.149.402-.139.826-.067 1.236.233 1.343.431 2.689.489 4.053.049 1.268.658 2.179 1.749 2.787.456.254.921.498 1.392.722.185.088.401.103.603.157.248.066.688-.131.804-.373.088-.188.208-.381.228-.576.062-.729.092-1.461.131-2.127M22.186 64.419c-.069-.193-.092-.42-.21-.571-1.093-1.385-2.302-2.655-3.737-3.692-.279-.199-.913-.072-1.136.219-.06.082-.154.143-.205.229-.585.978-1.185 1.947-1.739 2.94-.323.581-.33 1.201.078 1.756.738 1.001 1.582 1.914 2.479 2.773.158.153.692.176.885.037 1.174-.853 2.198-1.879 3.275-2.844a.611.611 0 0 0 .172-.254c.059-.192.094-.394.138-.593m8.958 43.015c-.057-.197-.079-.412-.173-.588-.153-.281-.408-.463-.724-.552a4.893 4.893 0 0 0-2.48-.02c-.527.127-.934.459-1.198.938a5.26 5.26 0 0 0-.389.855 297.548 297.548 0 0 0-1.222 3.889 3.415 3.415 0 0 0-.121.615c-.083.665.101 1.253.62 1.682.319.264.684.472 1.045.679.322.181.922.059 1.157-.212.207-.236.426-.462.601-.722 1.291-1.927 2.116-4.07 2.853-6.253.033-.097.021-.207.031-.311m111.679 81.73c-.01-.102-.028-.725-.09-1.344a3.746 3.746 0 0 0-.2-.906c-.172-.503-.475-.924-.937-1.199a4.385 4.385 0 0 0-2.988-.591c-.454.067-1.005.584-1.056 1.015-.037.309-.093.623-.069.929.111 1.45.387 2.876.767 4.276.112.422.444.705.828.875a5.475 5.475 0 0 0 2.417.498c.594-.02 1.195-.561 1.259-1.17.02-.207.059-.411.064-.619.013-.414.005-.828.005-1.764m5.78 4.279c.238-.02.446-.03.653-.055.439-.053.972-.643.976-1.082.004-.309.019-.625-.018-.933-.144-1.14-.302-2.275-.456-3.409-.014-.105-.035-.207-.054-.31-.123-.663-.463-1.18-1.128-1.366-.698-.197-1.417-.316-2.133-.462-.097-.021-.206.021-.31.021-.34.002-.877.382-.96.699-.08.301-.196.607-.198.91 0 1.25.03 2.502.063 3.754.004.203.076.406.126.607.107.435.386.749.762.945.844.444 1.758.642 2.677.681m22.824 6.172c.012-.205.051-.414.036-.618-.076-1.14-.158-2.277-.246-3.415-.041-.517-.078-1.033-.156-1.547-.079-.529-.334-.995-.761-1.314a8.501 8.501 0 0 0-3.371-1.535c-.099-.021-.206-.006-.308-.017-.251-.026-.633.336-.615.595.087 1.346.3 2.68.575 3.994.628 3.006.621 3.172 4.116 4.303.088.025.203-.012.298-.039.205-.056.347-.199.432-.407M37.559 145.264c.554-.045.95-.194 1.278-.451.571-.45 1.139-.911 1.662-1.412.523-.502 1-1.055 1.478-1.603.132-.149.188-.365.271-.552.111-.242-.04-.698-.258-.842-.972-.652-2.072-.947-3.201-1.146-.195-.036-.42.008-.613.071a4.133 4.133 0 0 0-.853.377c-1.325.82-2.643 1.656-3.958 2.492-.086.053-.143.152-.223.216-.198.161-.173.688.04.838.084.06.146.156.235.203 1.117.556 2.229 1.119 3.36 1.645.27.13.601.13.782.164m70.81 46.845c.054.708.113 1.645.195 2.579.054.625.692 1.058 1.371.933a20.593 20.593 0 0 0 1.53-.324c1.027-.267 1.656-.979 1.743-1.963.134-1.457.174-2.914.044-4.375-.057-.651-.686-1.205-1.277-1.088a58.88 58.88 0 0 0-2.439.545c-.2.046-.394.152-.565.265-.364.237-.634.567-.643 1.011-.016.729.021 1.458.041 2.417m-78.543-88.533c.5-.036.918-.054 1.335-.097.997-.102 1.605-.687 1.862-1.467.313-.955.586-2.462.665-3.382.039-.465-.553-1.032-1.022-.97-1.245.168-2.486.37-3.698.712a3.458 3.458 0 0 0-.848.399 1.55 1.55 0 0 0-.727.984 5.8 5.8 0 0 0-.056 2.495c.083.432.599 1.03 1.016 1.106.513.094 1.032.155 1.473.22m-9.86 30.404c-.653-.019-1.265.097-1.79.469-.592.423-1.162.875-1.732 1.325-.333.263-.603.589-.478 1.049.087.321.363.487.676.58 1.193.354 2.387.716 3.585 1.063a6.2 6.2 0 0 0 .911.195c.853.121 1.656-.006 2.37-.522.762-.552 1.442-1.185 1.99-1.956.229-.322.021-.842-.403-.996-1.472-.533-3.006-.812-4.527-1.149-.198-.044-.409-.04-.602-.058m212.563 30.549c0 .422-.006.84.003 1.259.005.211.035.421.071.626a.577.577 0 0 0 .361.466.57.57 0 0 0 .583-.081c.919-.709 1.671-1.584 2.427-2.456.276-.321.501-.688.594-1.099.271-1.229.614-2.447.689-3.707.024-.414-.037-.836-.09-1.248-.05-.381-.604-.686-.961-.604-.742.172-1.326.608-1.922 1.043-.612.443-1.021 1.031-1.254 1.759-.423 1.32-.51 2.673-.501 4.042M29.416 136.291c-.615-.037-1.1.104-1.458.537-.657.803-1.305 1.612-1.949 2.424-.237.301-.088.933.233 1.107.915.496 1.875.881 2.875 1.17.418.123.821.039 1.208-.131.189-.086.376-.177.554-.285.893-.531 1.784-1.063 2.665-1.613.262-.162.492-.379.735-.57.462-.362.378-1.023-.164-1.256-1.533-.655-3.117-1.146-4.699-1.383m155.572 68.652l.056-.01c-.263-1.219-.519-2.44-.792-3.656a1.724 1.724 0 0 0-.257-.564c-.467-.725-1.105-1.227-1.948-1.457-.326-.088-.922.268-.976.6-.018.103-.054.203-.064.305-.157 1.557-.116 3.116-.034 4.674.041.766.372 1.406.997 1.859.923.672 1.81 1.402 2.887 1.832.083.033.211.012.3-.027.197-.08.332-.256.302-.477-.146-1.028-.312-2.051-.471-3.079M26.22 69.417c-.028-.167-.035-.271-.066-.372-.297-.928-.872-1.632-1.746-2.066-.405-.202-.823-.102-1.171.148-1.094.791-2.026 1.763-2.909 2.777-.069.079-.115.173-.164.264-.206.374-.31.771-.174 1.189a5.878 5.878 0 0 0 1.65 2.579c.178.163.652.255.88.151.189-.084.396-.151.546-.28a15.042 15.042 0 0 0 2.51-2.74c.179-.25.338-.525.447-.811.109-.284.144-.597.197-.839m61.997 129.34c.029.998-.019 1.73.184 2.449.103.361.593.751.928.694.104-.018.213-.007.312-.031a10.045 10.045 0 0 0 2.333-.913c.589-.315.959-.812 1.077-1.464.226-1.248.173-2.502.016-3.754-.011-.102-.068-.197-.093-.298-.11-.452-.781-.866-1.221-.769a6.55 6.55 0 0 0-2.541 1.185c-.428.322-.736.761-.822 1.294-.099.62-.135 1.246-.173 1.607m-8.397 6.055a.624.624 0 0 0 .829.656 27.461 27.461 0 0 0 3.783-1.51 5.24 5.24 0 0 0 .791-.504c.451-.334.638-.809.665-1.355a1.817 1.817 0 0 0-.01-.313c-.092-.937-.184-1.875-.283-2.81-.057-.539-.66-.945-1.128-.799-1.011.318-1.929.807-2.785 1.416-.436.311-.754.734-.886 1.26-.338 1.315-.651 2.637-.976 3.959M27.034 87.131c.277 0 .385.024.481-.004 1.686-.516 3.363-1.065 4.978-1.786.186-.084.363-.208.516-.346.233-.212.416-.49.426-.804a5.717 5.717 0 0 0-.573-2.712c-.044-.091-.121-.168-.181-.252-.236-.326-.778-.475-1.114-.319-1.421.664-2.646 1.638-3.947 2.487a5.833 5.833 0 0 0-.968.78c-.21.213-.397.49-.493.771-.21.621-.113 1.23.255 1.779.188.276.466.397.62.406m200.456 81.183c0 1.551-.007 2.6.003 3.648.003.418.032.838.062 1.255.017.229.129.406.315.49a.44.44 0 0 0 .552-.134c.327-.408.631-.834.938-1.26a5.352 5.352 0 0 0 1.028-3.24c-.013-1.887-.005-3.774-.018-5.662 0-.203-.086-.404-.123-.608-.049-.272-.481-.476-.765-.362-1.177.471-1.887 1.297-1.923 2.602-.039 1.258-.054 2.516-.069 3.271m-125.485 25.592c.077.735.136 1.465.233 2.189.077.578.759 1.09 1.365 1.073.532-.013 1.026-.161 1.512-.378.751-.336 1.113-.926 1.16-1.719.098-1.588-.2-3.123-.671-4.633-.062-.209-.513-.516-.738-.512-.76.008-1.448.235-2.021.734-.319.277-.569.632-.625 1.061-.089.727-.146 1.457-.215 2.185m54.157-2.273c-.059-1.023-.089-1.85-.155-2.674-.067-.801-.532-1.334-1.257-1.623-.382-.149-.79-.238-1.193-.315-.196-.037-.412 0-.615.028-.34.045-.791.507-.818.84-.026.307-.071.621-.034.923.123 1.024.278 2.048.428 3.071.058.409.111.818.194 1.225.088.426.371.742.717.973.343.23.732.371 1.152.438.646.1 1.33-.325 1.397-.92.084-.718.136-1.438.184-1.966m-28.892-2.512c0 .012-.013-.299-.029-.608-.016-.308-.017-.622-.056-.927a4.955 4.955 0 0 0-.19-.904c-.134-.406-.403-.731-.818-.866a2.8 2.8 0 0 0-.902-.147c-.954.017-1.602.604-1.688 1.472a19.147 19.147 0 0 0 .062 4.327 1.629 1.629 0 0 0 1.431 1.406 3.825 3.825 0 0 0 1.531-.109c.46-.133.891-.683.857-1.164-.052-.722-.115-1.439-.198-2.48m-27.715 6.705c-.026-.709-.035-1.334-.078-1.959-.022-.305-.108-.609-.176-.911-.102-.457-.747-.905-1.184-.826-.834.153-1.593.47-2.213 1.064-.23.22-.388.497-.45.804a4.056 4.056 0 0 0-.101.924c.044 1.252.295 2.473.54 3.699.019.094.089.182.139.27.113.194.281.323.504.336a3.71 3.71 0 0 0 2.611-.806 1.04 1.04 0 0 0 .403-.812c.016-.623.005-1.248.005-1.783m91.816 13.559c-.027-.496-.062-1.221-.115-1.943a2.369 2.369 0 0 0-.391-1.17c-.651-.951-1.448-1.753-2.462-2.322-.09-.05-.197-.059-.294-.093-.388-.136-.852.25-.815.685.054.678.726 4.684.882 5.199.091.295.196.59.313.877a3.757 3.757 0 0 0 1.361 1.66c.162.113.376.162.571.215.289.08.657-.162.746-.414.284-.808.158-1.641.204-2.694m2.111 2.664c.027.49.057 1.221.121 1.947.061.641.338 1.203.762 1.682.692.783 1.432 1.518 2.287 2.127.18.131.39.146.589.07a.574.574 0 0 0 .373-.451c.192-1.143.107-2.289-.051-3.426-.072-.525-.285-1.006-.568-1.443-.685-1.061-1.508-1.994-2.519-2.76a.619.619 0 0 0-.292-.094c-.219-.021-.406.064-.502.258-.283.594-.154 1.232-.2 2.09M15.226 58.045c-.065-.196-.1-.41-.199-.59a2.755 2.755 0 0 0-1.108-1.085 1.231 1.231 0 0 0-.286-.12c-.315-.086-.653-.1-.895.128-1.003.949-1.785 2.053-2.204 3.38-.095.299-.015.632.157.906.402.636.943 1.118 1.671 1.364.344.116.957-.055 1.151-.317.696-.932 1.21-1.96 1.614-3.047.072-.19.068-.411.099-.619m4.842 64.77a.605.605 0 0 0 .329.495c.197.11.412.131.607.02.269-.155.575-.297.768-.525a162.504 162.504 0 0 0 3.192-3.876c.19-.235.298-.552.392-.846.141-.432.028-.83-.29-1.152-.145-.149-.315-.273-.48-.397-.083-.062-.185-.096-.279-.142-.382-.183-.907-.036-1.108.323-1.01 1.827-2.018 3.659-3.028 5.494a.912.912 0 0 0-.085.299c-.018.099-.013.205-.018.307m231.806 29.078c.046-.418-.369-.867-.74-.832-.103.012-.209-.004-.31.016a11.845 11.845 0 0 0-3.206 1.092c-.569.288-1.018.711-1.291 1.285-.177.371-.32.76-.438 1.153-.054.187-.019.405-.012.607.008.28.432.558.675.452 1.512-.662 2.963-1.443 4.386-2.277.173-.102.321-.258.459-.41.282-.315.456-.682.477-1.086M14.116 132.697a7.162 7.162 0 0 0-3.696.896 3.762 3.762 0 0 0-1.18.998.847.847 0 0 0-.136.28c-.064.216-.019.421.149.554.508.396 1.132.487 1.74.606.857.171 1.646-.021 2.371-.505.517-.348 1.012-.727 1.413-1.209.132-.158.225-.348.334-.522.134-.211.008-.708-.237-.821-.277-.126-.573-.21-.758-.277m228.507 21.745c-.204.029-.41.041-.606.095-1.084.299-1.802.959-2.038 2.088-.148.707-.32 1.408-.438 2.121-.048.294.021.609.042.918.017.251.486.473.746.366 1.209-.501 2.062-1.354 2.454-2.611.214-.688.337-1.401.494-2.104.02-.097-.024-.203-.021-.303.003-.258-.374-.602-.633-.57M7.593 56.521c-.064.538-.082.642-.087.744a2.637 2.637 0 0 0 0 .308.704.704 0 0 0 .265.535c.197.167.646.09.855-.141a12.849 12.849 0 0 0 2.058-3.083c.188-.395.153-.812-.071-1.189a2.626 2.626 0 0 0-1.121-1.04c-.367-.179-.946.012-1.036.373-.326 1.305-.645 2.61-.863 3.493m252.198 93.034c-.035-.206-.165-.373-.395-.391-1.385-.118-2.647.314-3.872.892-.173.08-.296.281-.425.441a.758.758 0 0 0-.12.282c-.062.219-.007.412.169.537.075.058.189.117.274.106 1.444-.202 2.81-.64 4.082-1.36a.668.668 0 0 0 .206-.226c.046-.083.055-.188.081-.281m5.136-.505c.902-.134 1.312-.188 1.724-.259.093-.02.23-.082.245-.148.038-.176-.116-.264-.387-.264-.725.004-1.462-.067-2.139.286-.067.038-.131.185-.11.256.024.074.153.169.23.166.311-.011.62-.058.437-.037"/><path fill="#FFF" d="M201.668 102.152c.962-.404 1.741-1.063 2.51-1.717 1.021-.872 2.093-1.716 2.965-2.727.995-1.152 1.874-2.428 2.652-3.741.529-.892.795-1.938 1.183-2.913.053-.134.097-.321.2-.376.67-.363 1.338-.747 2.048-1.011.277-.104.664.083 1.061.149-.193 4.258-1.901 8.104-2.465 12.279.519-.08.733-.414.999-.671 1.191-1.146 1.795-2.646 2.499-4.091 1.071-2.202 2.089-4.423 2.608-6.831.261-1.207 1.176-1.662 2.159-2.07.63.131.836.548.761 1.128-.085.63.11 1.142.629 1.618.939-1.868 1.732-3.801 3.611-4.961 1.482-.916 3.038-1.562 4.856-1.727.767 2.235.505 4.273-.902 6.243-1.597 2.233-3.714 3.312-6.419 3.314-.362 0-.653.048-.818.396-.405.859-.868 1.697-.815 2.697.037.694.043 1.388.077 2.081.093 1.865 1.493 3.795 3.977 3.883 2.187.078 4.298-.287 6.355-.942 2.195-.699 4.314-1.582 6.283-2.816.941-.589 2.089-.836 2.896-1.667.246-.252.644-.549.638-.818-.021-.832.541-1.066 1.118-1.265.621-.212.988-.029 1.555.61-.04.089-.058.216-.132.28-1.625 1.411-2.733 3.318-4.496 4.616-.962.708-1.756 1.642-2.632 2.465-.266.25-.52.538-.835.7-1.55.801-3 1.811-4.729 2.24-1.27.316-2.518.75-3.802.974-2.411.419-4.785.338-7.032-.835-1.877-.979-2.906-2.513-3.074-4.597-.064-.793.053-1.602.095-2.403.011-.236.046-.47-.075-.77-.741 1.023-1.42 2.101-2.24 3.057-1.394 1.628-2.662 3.391-4.486 4.6-.456.301-.922.61-1.424.816-.976.402-1.487.066-1.484-.973.007-2.042.141-4.07.874-6.011.243-.646.427-1.315.622-1.921-1.023.994-2.061 2.022-3.123 3.024-.449.425-.952.792-1.427 1.19-.581.489-1.166.973-1.732 1.479-.887.792-1.931 1.142-3.103 1.188-.5.02-.865-.174-1.033-.64-.159-.441-.309-.895-.376-1.358-.104-.718-.135-1.448-.217-2.419-.488.854-.814 1.552-1.253 2.17-1.514 2.148-3.469 3.761-6.045 4.423-.85.219-1.82.148-2.706.015-1.134-.17-1.802-1.045-1.921-2.216-.111-1.084-.21-2.168-.334-3.473-.453.571-.739 1.03-1.117 1.392-1.368 1.308-2.732 2.621-4.482 3.448-1.28.605-2.487 1.371-3.788 1.917-.785.331-1.685.495-2.54.532-1.447.064-2.326-.829-2.388-2.276-.033-.801-.002-1.604-.001-2.497-.545.451-1.027.924-1.581 1.29-.787.52-1.599 1.018-2.448 1.425-1.158.556-1.519.36-1.896-.893a5.816 5.816 0 0 1-.2-1.073c-.034-.315-.006-.636-.005-1.209-.536.596-.951.992-1.29 1.445-1.1 1.473-2.522 2.513-4.183 3.265-1.462.663-2.92 1.324-4.516 1.625-2.575.485-4.405-.522-5.41-2.785-.174-.39-.342-.784-.595-1.363-.539.549-.966.971-1.378 1.411-.673.718-1.321 1.458-2.006 2.165-.478.491-1.069.596-1.719.364-.206-.073-.419-.17-.632-.177-1.844-.065-2.533-1.347-3.028-2.841-.069-.207-.124-.419-.192-.627-.01-.032-.043-.057-.115-.144-.618.387-1.243.788-1.875 1.177a11.937 11.937 0 0 1-5.458 1.749c-1.544.113-2.894-.143-3.971-1.355-.435-.489-.952-.902-1.499-1.41-.51.815-1.242 1.562-1.136 2.729.022.238-.165.54-.339.744-.896 1.054-2.072 1.693-3.328 2.195-.703-.38-.746-1.131-.988-1.754-.074-.189.053-.487.15-.707.396-.896.795-1.79 1.232-2.665.393-.782.799-1.562 1.268-2.299 1.236-1.942 1.331-2.479.549-4.887-.266-.821-.446-1.682-1.151-2.319-.729-.661-1.571-.888-2.433-.579a8.121 8.121 0 0 0-2.271 1.274c-1.445 1.136-2.587 2.575-3.604 4.093-1.09 1.626-2.402 3.03-3.85 4.331-.402.36-.76.787-1.059 1.234-1.011 1.518-2.267 2.648-4.148 2.944-1.472.231-2.893.718-4.426.618-2.253-.147-3.996-1.032-5.027-3.103-.746-1.499-1.015-3.085-1.078-4.763-.061-1.618.136-3.201.297-4.788.396-3.882 2.033-7.19 4.75-9.992 1.016-1.046 2.274-1.699 3.495-2.427.304-.181.603-.374.977-.608-.377-.2-.622-.359-.89-.465-2.022-.806-2.798-2.083-2.537-4.243a4.01 4.01 0 0 1 .258-1.056c.85-2.076 1.906-4.013 3.681-5.481.44-.365.715-.922 1.129-1.325 1.853-1.811 4.055-2.964 6.61-3.427.504-.091 1.002-.228 1.509-.282 1.063-.114 2.149-.431 3.138.334.211.165.533.185.953.319.314-.493.67-.987.961-1.517.648-1.175 1.578-2.099 2.588-2.948.325-.272.743-.433 1.111-.643.613.943-.039 1.488-.59 1.843-1.271.818-1.937 2.048-2.658 3.36.426.18.822.341 1.213.513.877.386 1.418.997 1.398 2.017-.01.62.127 1.253.036 1.856-.133.873-.539 1.611-1.302 2.173-1.005.741-1.993 1.452-3.335 1.58-1.191-1.728-.624-3.607-.528-5.479-.797-.108-1.452.164-2.043.444-3.242 1.541-6.124 3.562-8.282 6.496-.907 1.234-.72 2.412.519 3.178.575.355 1.115.384 1.747.05a66.37 66.37 0 0 1 3.741-1.81c.755-.339 1.565-.344 2.367-.143.553.139.681.274 1.037.96-.461 1.434-1.566 2.148-2.875 2.631-1.51.557-3.029 1.069-4.653 1.191-.347.026-.718.15-1.014.333-2.765 1.7-5.05 3.917-6.513 6.812-1.293 2.562-2.088 5.321-1.782 8.25.19 1.823.821 3.471 2.34 4.666 1.368 1.075 2.851 1.381 4.521.861 1.611-.501 2.995-1.404 4.143-2.586 1.394-1.439 2.699-2.975 3.94-4.549 1.219-1.547 2.275-3.22 3.468-4.789 1.186-1.559 2.765-2.555 4.704-2.924 1.077-.205 2.008.348 2.407 1.349.134.335.355.635.523.96.312.601.699 1.176.637 1.909-.014.175.055.36.102.535.15.563.31 1.122.503 1.82.45-.721.87-1.325 1.219-1.968.801-1.476 1.569-2.967 2.346-4.454.402-.771.928-1.321 1.854-1.522.527-.113.979-.571 1.49-.891.039.187.07.346.105.525.393.031.834-.49 1.247.229-.245.496-.474 1.108-.824 1.641-1.733 2.634-3.06 5.48-4.438 8.3-.367.75-.734 1.501-1.078 2.211 1.24 2.307 3.226 3.013 5.637 2.805 1.24-.108 2.456-.353 3.654-.912-.059-.723-.109-1.443-.18-2.162-.092-.931.07-1.808.425-2.675.327-.8.471-1.687.87-2.443.715-1.35 1.523-2.655 2.359-3.933.725-1.104 1.977-1.596 2.988-2.368.027-.021.07-.04.103-.036 1.147.116 2.3.208 3.438.384.17.026.381.445.394.691.038.727.089 1.478-.05 2.184-.364 1.878-1.072 3.634-2.33 5.108-1.091 1.279-2.23 2.515-3.348 3.771-.097.109-.183.227-.336.42.135.296.264.629.437.936.797 1.417 1.46 1.636 2.978.991.336-.144.668-.298.986-.476 1.006-.562 1.607-1.267 1.625-2.574.025-1.82.628-3.573 1.238-5.289.084-.233.279-.424.42-.637.461-.697.915-1.397 1.384-2.09.163-.243.319-.51.544-.683.808-.624 1.601-1.286 2.478-1.796 1.224-.711 2.508-1.324 3.785-1.936 1.142-.547 2.296-.262 3.04.707.152.199.306.433.351.671.261 1.427.24 2.829-.572 4.104-.198.312-.416.583-.866.688-.724.167-1.195-.221-1.438-.695-.466-.918-.931-1.886-.683-3.039-.653-.08-1.014.304-1.348.746-1.023 1.354-1.657 2.907-2.335 4.447a39.062 39.062 0 0 1-1.98 3.898c-.487.838-.817 1.62-.416 2.574.293.7.45 1.48.852 2.105.624.973 1.424 1.195 2.464.888 2.706-.8 5.07-2.229 7.253-3.981.167-.134.34-.299.427-.488.838-1.822 1.631-3.664 2.493-5.473a128.522 128.522 0 0 1 2.426-4.786c.335-.636 1.476-.994 2.102-.704.387.179.401.517.364.919-.209 2.269-1.077 4.289-2.241 6.214-.828 1.374-1.059 2.925-1.335 4.674.312-.218.494-.299.611-.436 1.536-1.809 3.141-3.568 4.562-5.462.819-1.093 1.343-2.409 1.99-3.629.17-.322.272-.683.463-.99.146-.237.347-.532.586-.605a5.064 5.064 0 0 1 3.07-.01c-.142 1.102-.498 2.021-1.042 2.833-.935 1.39-1.494 2.943-1.915 4.519-.373 1.395-.438 2.871-.631 4.311-.023.179-.005.365.016.546.114 1.125.471 1.435 1.488.991a23.718 23.718 0 0 0 3.543-1.929c1.058-.699 2.003-1.567 2.988-2.372.166-.136.312-.315.42-.501.458-.779.924-1.554 1.332-2.358.792-1.562 1.638-3.104 2.295-4.723.791-1.954 1.398-3.982 2.109-5.97.241-.677.553-1.33.844-2.022-.625-.364-1.163.021-1.71.075-.178.018-.348.107-.522.163-1.581.505-1.581.505-2.363-.915-.52-.944-.008-2.041 1.053-2.184 1.3-.174 2.606-.304 3.912-.443 1.1-.116 1.191-.169 1.453-1.269.229-.952.384-1.923.63-2.872.113-.437.251-.98.571-1.233.99-.786 2.065-1.466 3.125-2.163.165-.106.413-.087.793-.159l-2.298 7.078c1.957.184 3.767-.323 5.627-.242-.157.498-.27.856-.386 1.212-.043.135-.058.324-.152.39-.753.514-1.299 1.244-1.965 1.834-.417.368-1.135.403-1.726.56-.167.045-.362-.008-.546-.013-1.501-.039-1.87.179-2.42 1.52-.191.465-.302.962-.44 1.446-.128.451-.182.933-.374 1.354-.813 1.791-1.561 3.625-2.543 5.322-.694 1.2-.944 2.462-1.028 3.752-.077 1.182.135 2.388.534 3.555.678.063 1.175-.272 1.62-.622 1.576-1.238 3.126-2.512 4.683-3.773 1.773-1.439 3.142-3.212 4.277-5.179.236-.411.461-.828.685-1.246.557-1.042.556-1.042 1.51-1.692 1.071.198 1.071.198 1.676.727-.677.465-.864 1.151-1.006 1.922-.17.927-.558 1.81-.787 2.728a11.357 11.357 0 0 0-.322 2.04c-.103 1.66-.796 3.292-.218 5.04m-58.189-2.656c1.673-1.762 3.092-3.527 3.929-5.917-2.176 1.238-4.074 4.09-3.929 5.917m80.225-8.052c1.886-.408 3.554-2.213 3.586-3.863-1.489 1.037-2.634 2.277-3.586 3.863M119.782 72.876c-.198.745-.376 1.438.218 1.991.377.352.854.525 1.35.18-.305-2.037-.365-2.123-1.568-2.171M88.292 103.973c-.774.96-1.417 1.839-2.628 2.277-1.07.388-1.944 1.283-2.979 1.812-1.747.893-3.543 1.692-5.339 2.489-.393.175-.912.443-1.208-.234-.04-.091-.226-.172-.339-.166-.804.047-1.117-.5-1.259-1.123-.208-.919-.307-1.863-.475-2.792-.166-.914.346-1.694.466-2.552.047-.336.127-.667.191-1l-.244-.138c-.306.278-.701.503-.901.843-.684 1.16-1.432 2.309-1.901 3.556-.46 1.226-1.294 2.041-2.152 2.946-1.012 1.067-2.175.98-3.376 1.011-.511-1.041-.153-1.794.445-2.573 1.402-1.821 2.78-3.667 3.646-5.824.168-.418.207-.889.332-1.462-1.142.245-1.915.79-2.556 1.47-1.025 1.085-1.939 2.275-2.96 3.364-.773.821-1.621 1.573-2.471 2.315-.558.486-1.209.77-1.99.79-.42.01-.829.256-1.25.359-.983.237-1.289.028-1.376-.951-.063-.726-.085-1.456-.135-2.184-.01-.127-.057-.251-.103-.443-.867.904-1.651 1.761-2.479 2.572-.778.765-1.661 1.328-2.84 1.091-.104-.022-.219-.003-.328.001-2.135.088-3.729-1.2-3.982-3.325-.232-1.956.208-3.769.98-5.613.869-2.078 2.467-3.405 4.054-4.769.663-.57 1.578-.898 2.428-1.194 1.283-.445 2.632-.686 3.977-.315 1.187.326 2.4.656 3.494 1.2 1.479.736 1.668 2.606.524 3.979-.227.271-.517.488-.859.804l-.23-.912c-.087.035-.19.042-.208.084-1.453 3.606-1.643 5.626-.591 6.916.912-.509 1.792-1.113 2.475-1.902 1.194-1.377 2.292-2.836 3.417-4.271.612-.78 1.24-1.531 2.143-2.004.967-.508 1.938-.541 2.965-.192.56.189.855.499.879 1.096.012.318.104.634.187 1.092.684-.532 1.264-.987 1.849-1.438.26-.201.521-.401.791-.59 1.071-.751 2.198-.86 3.471-.266-.577 1.563-1.109 3.137-1.739 4.671-.438 1.068-.699 2.149-.675 3.298.027 1.2.587 1.625 1.779 1.404 1.726-.32 3.205-1.188 4.672-2.083.561-.343 1.146-.669 1.633-1.101.924-.809 1.789-.42 2.775-.023m-35.528 1.436c.394-.253.79-.374.958-.639.57-.905 1.445-1.404 2.306-1.949 1.332-.842 2.563-1.788 3.356-3.212.351-.629.805-1.2 1.222-1.792.058-.082.162-.13.252-.198l.749.294c-.189-.36-.438-.676-.741-.743-1.632-.357-3.191-.276-4.48.986-1.099 1.075-2.124 2.213-2.817 3.596-.536 1.069-1.088 2.155-.805 3.657"/><path fill="#FFB547" d="M126.699 155.748c-.598-1.196-.584-2.441-.602-3.68-.016-1.047.107-2.08-.242-3.124-.336-1.007.121-2.013.379-2.99.065-.248.338-.53.582-.628 1.244-.5 2.257-1.528 3.662-1.645.498-.043 1.018-.053 1.506.039.816.154 1.222.689 1.058 1.479-.13.625-.353 1.28-.71 1.799-.617.894-1.371 1.689-2.15 2.627l3.701 1.904c.163-.38.305-.666.413-.965.508-1.406 1.041-2.803 1.494-4.226.267-.837.749-1.463 1.444-1.96.23-.164.455-.34.681-.51.831-.006 1.382.409 1.667 1.162.338.883.794 1.762.902 2.677.066.581.222.851.717.997-.572.959-.334 2.395.463 3.032.545.437.666 1.004.203 1.501-.479.514-1.057.937-1.734 1.52-.318-.814-.58-1.439-.807-2.079-.109-.307-.111-.653-.234-.954-.154-.383-.319-.986-.588-1.053-.59-.144-1.232.05-1.684.555-.383.43-.688.938-1.117 1.311-.406.354-.926.573-1.453.887l-.549-.448c-.314.214-.612.415-.979.663l-4.029-1.773c-.415.197-.402.553-.291.854.451 1.222-.058 2.027-1.062 2.65-.123.078-.226.186-.346.267-.058.037-.133.051-.295.111m1.701-7.152c1.334-.541 2.287-1.287 2.826-2.711-.416-.076-.768-.237-1.068-.174-.522.113-1.02.354-1.52.562-.471.196-.631.611-.575 1.07.051.407.211.802.337 1.253M199.012 136.857c-.752.444-1.465.865-2.304 1.363-.096-.404-.226-.734-.247-1.072-.184-2.845-.347-5.689-.517-8.535-.046-.766-.103-1.529-.131-2.295-.057-1.435.198-1.754 1.569-2.143.271-.076.512-.264.76-.41 1.036-.615 2.038-1.313 3.298-1.395.288-.02.582-.045.867-.014 1.391.154 2.009.775 2.16 2.154.196 1.816-.361 3.373-1.628 4.689-.329.342-.593.746-.957 1.213.718.839 1.87 1.389 3.028 1.889 1.3.561 2.589 1.172 4.023 1.371.282.04.568.305.773.537.09.102.059.474-.05.564-.408.34-.853.645-1.32.898a.97.97 0 0 1-.713.063c-1.715-.613-3.461-1.169-5.11-1.931-1.109-.514-2.078-1.332-3.108-2.018-.177-.119-.337-.264-.602-.471-.334 1.006.037 1.926.013 2.834-.024.905.123 1.813.196 2.709m-.463-8.543c.575.114 1.031.143 1.438.301.729.283 1.252.251 1.768-.314.735-.807 1.054-1.729.674-2.822-.374-1.08-1.221-1.529-2.226-.992-1.657.884-1.985.98-1.747 3.149.027.251.068.503.093.678M86.793 130.357c.268-.583.558-1.156.797-1.75.449-1.116.867-2.244 1.302-3.365.364-.943.849-1.187 1.938-.893.118 1.035.231 2.114.364 3.191.22 1.771.438 3.543.688 5.309.061.426.184.864.383 1.242.294.56.303 1.01-.186 1.458-.362.331-.676.716-1.082 1.149-1.273-2.163-1.072-4.494-1.598-6.729-.801 1.71-1.695 3.312-3.691 4.105l-2.277-4.105c-.271 1.175-.611 2.146-.7 3.139-.153 1.728-1.312 2.575-2.587 3.412-.456-.885-.285-1.68-.073-2.541.525-2.119.923-4.271 1.394-6.406.195-.885.341-1.815 1.344-2.284 1.544.097 1.918.442 2.4 1.917.349 1.064.837 2.084 1.262 3.121.107.011.215.021.322.03M186.848 125.392l.247 4.718c.583-.27 1.078-.541 1.603-.73.541-.197 1.108-.316 1.724-.485l.111-2.791c.039-.942.332-1.725 1.428-2.087.073.057.196.176.341.258.791.451.747.444.677 1.318a25.254 25.254 0 0 0-.059 2.846c.009.282.258.557.433.902-.636 1.832-.007 3.619.704 5.465l-2.348 1.459c-.254-.799-.523-1.504-.694-2.23-.169-.708-.242-1.438-.352-2.16-.108-.709-.2-.79-.915-.744-.924.061-1.772.365-2.635.781.077.719.113 1.406.241 2.079.099.517-.04.842-.498 1.069-.584.291-1.159.596-1.876.966-.13-.604-.307-1.118-.344-1.642-.129-1.858-.207-3.721-.313-5.58-.037-.654-.118-1.307-.147-1.962-.021-.435-.037-.882.036-1.307.114-.663.751-.99 1.396-.776.171.055.351.093.508.175.224.115.429.265.732.458M109.508 129.294c1.17.887 2.311 1.741 3.438 2.61.258.2.513.424.705.684.229.307.298.609-.064.957-.357.345-.6.811-.893 1.223-1.795-1.441-3.508-2.949-5.961-3.773.167 1.156.271 2.085.441 3 .109.591.092 1.041-.511 1.389-.414.239-.733.643-1.13 1.006-.605-.707-.688-1.457-.798-2.15-.176-1.115-.212-2.252-.312-3.381-.068-.798-.172-1.594-.21-2.394a11.32 11.32 0 0 1 .05-1.851c.036-.307.184-.673.406-.871 1.649-1.469 3.547-2.268 5.803-1.979.213.027.424.104.629.176.695.242.975.605.838 1.309-.096.49-.294.988-.563 1.408-.567.882-1.21 1.718-1.868 2.637m-2.797-.547c1.727-.194 2.799-1.13 3.531-2.568-1.079-.644-2.393-.64-3.168-.052-.727.55-.824 1.213-.363 2.62M152.471 130.111c-.004 1.197-.128 2.185.026 3.128.161.991-.429 1.386-1.056 1.795-.522.342-1.031.136-1.144-.493-.163-.932-.284-1.881-.301-2.825-.022-1.202.077-2.408.126-3.612 0-.073.003-.146.012-.219.074-.693.094-1.428.937-1.682.812-.244 1.375.146 1.891.735 1.42 1.63 3.153 2.9 5.032 4.409.04-1.074.115-1.928.092-2.777-.028-.983-.152-1.965-.218-2.947a3.15 3.15 0 0 1 .055-.751c.211-1.192.616-1.392 1.911-.845.083 1.578.204 3.215.245 4.854.042 1.638.003 3.278-.001 5.098l-1.599 1.156c-.15-1.006-.825-1.215-1.411-1.594-1.193-.77-2.301-1.672-3.439-2.524-.339-.253-.666-.52-1.158-.906M166.966 127.059c-.209-.601-.396-1.141-.636-1.824-.289.234-.588.354-.626.528-.469 2.093-1.042 4.187-.497 6.356.297 1.192 1.03 1.729 2.139 1.559.729-.111 1.262-.552 1.649-1.162.153-.238.261-.508.449-.882l-3.277-.007c.045-.445.094-.791.111-1.139.021-.426.216-.678.638-.753.321-.058.636-.148.959-.176.797-.065 1.599-.085 2.396-.157.857-.078 1.288.295 1.249 1.176-.096 2.136-1.255 3.578-3.017 4.65-1.097.668-2.211.837-3.458.475-.899-.262-1.495-.789-1.732-1.65-.231-.836-.411-1.699-.479-2.562-.122-1.533-.076-3.068.465-4.541.486-1.326 1.254-2.476 2.377-3.332 1.154-.885 2.245-.516 2.735.846.561 1.553.344 1.948-1.445 2.595M109.971 146.67c.878.445 1.592.795 2.298 1.164 1.173.615 2.244 1.359 3.099 2.395.949 1.148.953 2.194-.029 3.338-1.286 1.498-2.488 1.732-4.249.849a2.517 2.517 0 0 0-.722-.231c-.822-.135-1.371-.726-1.85-1.28-.301-.349-.255-.999-.377-1.571.148-.088.298-.176.445-.268.69-.436.913-.441 1.521.077.836.714 1.83 1.05 2.88 1.255.19.036.399-.029.73-.06-.772-1.118-1.681-1.862-2.772-2.39-.459-.221-.943-.39-1.413-.593-1.312-.566-1.747-1.884-1.001-3.128.221-.369.51-.725.842-.996a33.838 33.838 0 0 1 2.197-1.631c.645-.443 1.379-.445 2.111-.277.746.173 1.197.626 1.351 1.403.146.733.126 1.376-.575 1.836-.327.217-.631.47-1.084.81-.053-.43-.079-.696-.119-.961-.154-1.035-.91-1.453-1.824-.936-.491.277-.888.717-1.459 1.195M122.246 125.705c-.56 1.602-2.303 1.978-3.43 3.225.766.99 1.543 2.014 2.657 2.734.794.516 1.6 1.016 2.388 1.541.559.372.506.594-.043 1.098-.363.334-.625.779-1.004 1.27l-5.194-3.756c.045.469.036.933.144 1.367.366 1.478-.344 2.348-1.713 3.009-.184-.634-.431-1.236-.527-1.862-.143-.937-.204-1.888-.26-2.834a260.814 260.814 0 0 1-.238-4.924 6.582 6.582 0 0 1 .055-1.199c.135-.939.502-1.143 1.609-.859l.299 3.221c1.151-.304 2.187-.747 3.085-1.494.224-.188.403-.43.634-.604.473-.363.968-.511 1.538.067M127.526 130.359l-.005 2.638c.673-.142 1.262-.271 1.854-.39 1.323-.26 2.644-.537 3.976-.748.236-.037.52.211.859.361-.753 1.096-1.479 1.834-2.722 2.076-1.818.354-3.602.895-5.5 1.381-.352-.551-.361-1.303-.399-2.057-.106-2.111-.236-4.221-.351-6.332a14.206 14.206 0 0 1-.014-1.305c.021-.55.397-.926.856-1.027 1.771-.393 3.489-1.141 5.366-.885.281.038.561.083.958.143-.647 1.016-1.482 1.498-2.519 1.715-.854.179-1.695.406-2.541.613l-.004 1.676c1.268-.197 2.447-.377 3.627-.562.215-.035.432-.15.637-.127.223.027.483.127.621.287.066.077-.074.393-.186.553-.688.977-1.668 1.475-2.822 1.676-.535.092-1.071.199-1.691.314M98.316 124.137c.881.081 1.246.564 1.465 1.315.312 1.077.712 2.114.85 3.252.115.952.471 1.88.773 2.802.318.967.66 1.941 1.834 2.234-.17.861-.698 1.363-1.199 1.873-.363.37-.789.255-1.042-.098-.378-.525-.688-1.106-.964-1.695-.258-.549-.433-1.14-.672-1.789-.586.198-1.096.367-1.604.545-.768.268-1.008 1-1.148 1.632-.285 1.269-1.266 1.761-2.158 2.411-.469-1.042-.146-1.91.176-2.855.867-2.552 1.627-5.143 2.368-7.735.23-.8.538-1.468 1.321-1.892m-.154 6.117c.788-.098.788-.098.34-1.084l-.34 1.084M167.346 150.379l-2.607.188c-.523-1.704.245-1.963 1.387-2.121 1.116-.157 2.233-.308 3.352-.429.3-.033.612.052 1.033.094-.136.362-.205.593-.307.81-.414.885-.733 1.838-1.282 2.631-1.048 1.512-2.365 2.779-4.089 3.529-.391.17-.83.269-1.257.308-1.131.104-1.562-.145-1.802-1.255-.424-1.962-.813-3.938-.319-5.956.53-2.163 1.679-3.562 3.937-3.812.474-.054 1.002.104 1.459.282.392.154.441.605.138.889-.44.412-.926.775-1.363 1.135-.985-.614-1.467-.529-1.968.338-.196.339-.405.749-.39 1.117.06 1.451.196 2.897.33 4.344.02.194.196.373.288.539 1.482-.074 2.814-1.064 3.46-2.631M153.43 146.789l-.005 2.109c1.574-.266 3.005-.967 4.635-.619-.305.943-.915 1.57-1.804 1.895-.922.336-1.871.6-2.866.913l-.116 1.657c1.001-.221 1.874-.428 2.752-.604.5-.099 1.01-.206 1.517-.21.594-.004 1.189.103 1.793.162-.154 1.055-1.057 1.828-2.088 2.016a81.578 81.578 0 0 0-4.066.834c-.489.113-.947.367-1.537.604-.077-.307-.208-.6-.213-.895-.019-1.169.004-2.338.007-3.506.002-1.203.043-2.406-.014-3.606-.06-1.276.646-2.014 1.699-2.401 1.852-.68 3.748-1.217 5.762-1.06.099.008.191.061.337.108-.616 1.112-1.412 1.74-2.741 1.828-1.031.066-2.036.503-3.052.775M180.207 145.256c-.352 1.217-1.156 2.109-2.163 2.75-.934.59-1.291 1.334-1.121 2.365.2 1.22.426 2.438.681 3.646.283 1.354.173 2.413-1.755 3.031-.109-.449-.266-.889-.315-1.341a183.96 183.96 0 0 1-.455-4.688c-.059-.687-.359-1.187-.99-1.452-1.421-.596-2.399-1.768-3.545-2.719-.324-.27-.287-1.132.083-1.584.271-.328.629-.676 1.13-.439.453.211.911.442 1.308.744a21.575 21.575 0 0 1 1.826 1.564c.449.427.927.438 1.396.159.828-.49 1.824-.716 2.333-1.71.295-.578.742-.598 1.587-.326M142.301 124.065c-.764 1.005-1.688 1.465-2.803 1.487-.328 1.181.104 5.669.729 7.593-.648.446-1.322.911-2.117 1.456-1.076-2.836-.789-5.715-1.236-8.589-.854-.058-1.676.3-2.52.7-.039-.158-.098-.262-.084-.354.233-1.489.238-1.481 1.791-1.931.488-.142.953-.381 1.449-.478a10.906 10.906 0 0 1 1.924-.203c.729-.01 1.461.063 2.189.123.195.018.385.11.678.196M151.076 143.734c-.491 1.092-1.189 1.752-2.395 1.812-.533.027-1.057.23-1.697.379-.031.688-.067 1.332-.091 1.975-.015.402-.007.803-.019 1.203-.026 1.056-.205 2.135-.049 3.162.201 1.338-.468 2.02-1.445 2.682-.486-.914-.541-1.842-.51-2.781.053-1.531.113-3.062.165-4.594.013-.355.004-.711.005-1.101-1.323.029-2.359.567-3.413 1.076-.222-1.62-.218-1.82 1.007-2.317 1.105-.449 2.292-.738 3.47-.961 1.501-.283 3.026-.434 4.542-.631.125-.015.26.057.43.096M125.04 144.043c-.55 1.452-1.656 1.849-3.014 1.956-.127 1.642-.177 3.247.301 4.796.435 1.407.727 1.766-1.351 3.199-1.07-2.414-.801-5.01-1.105-7.557-1.136-.136-2.146.347-3.195.533-.232-1.467.118-1.996 1.469-2.334 2.066-.516 4.142-.889 6.283-.687.176.018.35.054.612.094M145.414 135.746c-.324-1.191-.342-2.271-.314-3.357.041-1.639.057-3.275.098-4.912.02-.825.138-1.613 1.029-2.009 1.055.304 1.215.452 1.221 1.437.01 2.3-.028 4.6-.01 6.898.002.458-.167.805-.482 1.037-.455.334-.974.579-1.542.906"/><path fill="#FFF" d="M206.771 83.552c.364 1.702-1.229 3.563-2.739 4.062-.599.198-1.004.052-1.271-.52-.195-.418-.278-.896-.367-1.355-.229-1.185 1.176-3.584 2.408-3.955 1.025-.31 1.879.214 1.917 1.282.006.181.038.36.052.486"/><path fill="#FFB547" d="M175.06 139.853c0-.546-.119-.978.025-1.29.473-1.037.176-1.877-.468-2.709-.396-.514-.321-1.347.043-1.881.26-.382.554-.506 1.011-.408 1.283.273 2.429 2.019 2.056 3.383-.354 1.292-1.124 2.323-2.667 2.905"/></svg>