<svg xmlns="http://www.w3.org/2000/svg" viewBox="0 0 235 165"><path class="bubble" fill="#FFB547" d="M151.758 156.174c-.684-.529-.896-.945-1.171-1.307-.243-.314-.472-.641-.838-.837-.162-.089-.608-.015-.771.15-.056.057-.114.106-.168.162-.106.112-.21.226-.313.341-1.129 1.277-2.395 2.415-3.679 3.532-.292.255-.603.488-.918.708-1.645 1.148-3.347 2.117-5.141 2.811-1.3.504-2.6.893-3.901 1.217a7.761 7.761 0 0 1-2.211.227c-1.485-.061-2.953-.166-4.329-.492-.356-.086-.714-.173-1.078-.242-2.153-.412-3.99-1.305-5.693-2.396a5.197 5.197 0 0 1-.939-.736c-.716-.731-1.398-1.488-2.083-2.247-.19-.21-.36-.44-.5-.69-.344-.6-.759-1.141-1.144-1.704a13.837 13.837 0 0 1-1.042-1.782c-1.065-2.205-1.792-4.578-1.839-7.297a83.31 83.31 0 0 1 .101-5.793c.032-.65.061-1.298-.027-1.912-.054-.387-.27-.646-.645-.742a6.68 6.68 0 0 0-.915-.166c-1.699-.199-3.307-.582-4.883-1.023-1.405-.392-2.694-.973-3.954-1.591-.577-.284-1.126-.605-1.681-.918-.556-.313-1.106-.635-1.57-1.056a2.477 2.477 0 0 0-.405-.316c-1.062-.613-1.875-1.484-2.691-2.354-.428-.454-.847-.915-1.268-1.377-.497-.546-.948-1.128-1.302-1.794-.353-.66-.771-1.271-1.135-1.926-.76-1.365-1.269-2.874-1.722-4.418-.165-.572-.294-1.163-.432-1.752a5.91 5.91 0 0 1-.131-.72c-.219-1.979-.305-4.005-.066-6.12.188-1.646.473-3.313 1.006-4.999.316-1.007.541-2.013.934-3.021.495-1.271.96-2.545 1.583-3.803.231-.461.409-.931.63-1.395.218-.463.438-.928.694-1.381 1.131-2.016 2.24-4.037 3.52-6.002a5.48 5.48 0 0 0 .427-.781c.15-.344.17-.676.029-.941a3.624 3.624 0 0 0-.48-.705c-.6-.682-1.214-1.35-1.828-2.02-.763-.838-1.542-1.66-2.12-2.662-.227-.396-.551-.721-.847-1.064-.445-.518-.906-1.02-1.355-1.53-.452-.509-.883-1.038-1.208-1.653a5.882 5.882 0 0 0-.463-.72c-1.931-2.64-3.23-5.687-4.135-8.991a29.812 29.812 0 0 1-.582-2.462c-.466-2.53-.542-5.19-.318-7.951.097-1.179.185-2.354.448-3.561.144-.669.276-1.336.507-2.011.069-.202.143-.405.189-.604.582-2.447 1.768-4.816 3.045-7.174 1.212-2.24 2.756-4.322 4.491-6.301.556-.635 1.183-1.222 1.798-1.806a34.183 34.183 0 0 1 6.073-4.556c.195-.113.394-.225.59-.342.794-.478 1.005-.831.917-1.536a9.745 9.745 0 0 0-.072-.551c-.391-2.076-.161-4.303.444-6.604.832-3.15 2.323-6.151 4.697-8.924.501-.584 1.01-1.163 1.515-1.748a11.46 11.46 0 0 1 1.864-1.732c.37-.274.748-.538 1.114-.822a23.735 23.735 0 0 1 7.324-3.855c1.026-.33 2.056-.587 3.083-.867a4.844 4.844 0 0 0 1.214-.51c.85-.504 1.7-1 2.559-1.484.923-.524 1.87-.948 2.832-1.264.96-.314 1.915-.677 2.878-.943 1.657-.458 3.277-.691 4.882-.824.733-.06 1.453-.05 2.167-.035 3.323.077 2.627.001 5.644.625a24.112 24.112 0 0 1 8.196 3.332c1.259.806 2.529 1.599 3.631 2.589.086.077.171.154.269.214 1.146.691 2.029 1.656 2.933 2.596 1.178 1.226 2.341 2.468 3.52 3.698.271.288.558.565.871.811.234.184.572.206.927.034.401-.19.801-.414 1.184-.667 1.339-.895 2.72-1.676 4.115-2.422a26.027 26.027 0 0 1 1.812-.882 34.823 34.823 0 0 1 6.562-2.148c.816-.176 1.631-.269 2.44-.374 2.877-.363 3.241-.339 5.908-.137 3.107.236 5.766 1.213 8.169 2.658 1.597.965 2.843 2.277 3.986 3.692.354.44.61.967.898 1.463 1.64 2.822 2.398 6.088 2.471 9.7a18.419 18.419 0 0 1-.315 3.917c-.133.669-.26 1.335-.372 2.002-.238 1.403-.695 2.814-1.203 4.222-.216.602-.522 1.197-.787 1.798a9.993 9.993 0 0 0-.249.6c-.189.507.043.717.527.697a7.97 7.97 0 0 0 .602-.047c.401-.042.803-.081 1.21-.138 1.902-.271 3.722-.231 5.558-.251 1.909-.02 3.719.213 5.514.488.68.103 1.342.25 1.981.433 1.28.368 2.526.793 3.727 1.294 1.428.591 2.715 1.355 3.927 2.226.094.065.174.147.271.207 1.356.804 2.35 1.977 3.364 3.123.112.126.221.26.313.404.967 1.485 1.881 3.012 2.483 4.745.719 2.074 1.144 4.279.97 6.73-.062.847-.063 1.681-.229 2.553-.736 3.89-2.362 7.635-5.052 11.215-.783 1.043-1.612 2.047-2.59 2.944-.684.631-1.359 1.268-2.032 1.907-1.6 1.516-3.39 2.666-5.27 3.635-.4.206-.809.391-1.21.595-.442.222-.58.696-.282.985.208.194.398.408.642.561 1.228.777 2.121 1.885 3.058 2.949.149.168.279.358.39.56.335.608.735 1.159 1.178 1.679.48.566.79 1.26 1.154 1.91.91 1.605 1.584 3.363 2.042 5.234.645 2.639.968 5.408.69 8.389-.035.393-.082.789-.146 1.188-.121.732-.266 1.466-.391 2.198-.51 2.976-1.713 5.899-3.315 8.788-.905 1.631-2.008 3.185-3.218 4.68-.243.299-.515.575-.776.859-.473.51-.955 1.014-1.417 1.529a8.89 8.89 0 0 1-1.195 1.093c-.429.326-.847.675-1.266 1.013-2.883 2.314-5.952 4.021-9.239 5.053-1.238.388-2.462.578-3.691.844-.335.073-.665.051-.996.066-.397.02-.792.023-1.188.047-.47.025-.879.383-.898.798-.065 1.498-.373 3.034-.703 4.573a15.495 15.495 0 0 1-.82 2.615c-1.138 2.771-2.674 5.399-4.809 7.813-.407.46-.802.936-1.205 1.399-.505.586-1.057 1.141-1.669 1.605-1.228.932-2.431 1.906-3.726 2.72-2.011 1.267-4.068 2.325-6.208 3.085-2.064.73-4.108 1.25-6.137 1.467-.606.064-1.214.14-1.818.201a6.125 6.125 0 0 0-1.841.502c-.405.178-.812.354-1.221.527-1.713.73-3.416 1.202-5.109 1.346-.335.029-.671.064-1.008.1-.744.072-1.44.02-2.119-.1-1.664-.293-3.192-.799-4.526-1.635-.438-.277-.863-.566-1.238-.915-.503-.466-1.007-.923-1.215-1.112M101.836 37.086c.268.115.517.267.808.336.707.167 1.432.304 2.156.435.847.153 1.699.292 2.554.428.427.07.856.133 1.292.177.188.018.4-.033.595-.176a.557.557 0 0 0 .151-.163c.082-.136.085-.262-.005-.345-.085-.072-.174-.151-.288-.178-1.775-.405-3.557-.803-5.336-1.2-.119-.024-.251-.021-.378-.025a1.475 1.475 0 0 0-.801.21c-.257.151-.499.339-.75.51l.002-.009zm8.588 52.094c-.616-.507-1.369-.834-2.104-1.184-.376-.176-.836-.191-1.33-.033-.885.283-1.77.586-2.652.885a2.374 2.374 0 0 0-.403.183c-.264.144-.512.32-.719.555a6.38 6.38 0 0 0-.869 1.31c-.116.221.003.587.205.612.062.007.112.042.177.04 1.711-.043 3.46-.332 5.237-.797.411-.111.813-.33 1.188-.601.434-.313.849-.653 1.271-.98l-.001.01zm-5.354 35.06c.908 1.17 2.321 2.138 3.919 2.896.054.025.104.055.154.082 2.001 1.013 4.285 1.487 6.721 1.674.128.01.258.02.39.009.467-.037.933-.036 1.405-.136 1.297-.273 2.598-.568 3.901-1.11 1.697-.705 3.403-1.374 5.074-2.247.396-.207.81-.357 1.219-.508a1.51 1.51 0 0 1 .794-.068c.504.084.745.641.504 1.159-.062.132-.108.269-.186.396-.235.385-.486.762-.721 1.147-.578.964-1.165 1.927-1.725 2.897-.708 1.234-1.236 2.504-1.771 3.773-.791 1.877-1.353 3.75-1.663 5.623a11.758 11.758 0 0 0-.073 3.277c.089.742.27 1.445.598 2.055.407.762.816 1.529 1.333 2.203.832 1.08 1.735 2.104 2.91 2.855.337.217.636.484.944.734a14.686 14.686 0 0 0 4.059 2.324 7.472 7.472 0 0 0 1.582.425c.312.042.63.073.958.062a9.086 9.086 0 0 0 3.256-.704c.956-.396 1.898-.835 2.793-1.444.885-.604 1.768-1.217 2.644-1.843.44-.314.821-.699 1.181-1.11.506-.579 1.011-1.161 1.525-1.735.889-.994 1.572-2.066 2.034-3.221.188-.469.358-.939.549-1.406.082-.199.197-.394.306-.588.194-.356.694-.648 1.097-.658.349-.01.613.108.795.336.143.174.251.38.342.594.316.753.592 1.532.936 2.27.562 1.208 1.164 2.392 2.028 3.383.333.384.603.829.876 1.264.31.486.698.893 1.162 1.233.416.302.84.603 1.2.962.689.686 1.499 1.225 2.378 1.683.412.216.822.435 1.241.646.729.37 1.512.656 2.348.857.475.115.95.232 1.43.337 2.244.479 4.598.644 7.14.252.271-.042.54-.073.81-.106a12.741 12.741 0 0 0 2.048-.441c.686-.208 1.371-.398 2.055-.631 2.354-.804 4.615-1.93 6.742-3.535.306-.232.633-.436.938-.67.426-.33.85-.668 1.259-1.02 1.063-.916 1.955-1.967 2.86-3.023a24.493 24.493 0 0 0 2.498-3.531c1.187-2.021 2.013-4.077 2.415-6.181.298-1.548.418-3.04.271-4.476a12.126 12.126 0 0 1-.055-.942c-.003-.126.018-.26.047-.394a1.664 1.664 0 0 1 1.355-1.303c.201-.039.405-.051.596-.039.577.033 1.144.097 1.723.125 1.491.076 3.049-.165 4.622-.482.135-.028.274-.07.41-.116 1.509-.503 3.011-1.025 4.481-1.821 1.199-.65 2.367-1.339 3.46-2.221.479-.389.978-.752 1.472-1.121a9.744 9.744 0 0 0 1.53-1.412c.505-.58 1.024-1.149 1.527-1.734.351-.408.693-.826 1.018-1.248 2.077-2.713 3.645-5.556 4.525-8.57.039-.135.087-.27.131-.402.539-1.555.812-3.09.978-4.604a22.545 22.545 0 0 0-.562-8.045c-.164-.64-.318-1.288-.556-1.887-.689-1.742-1.449-3.441-2.51-4.934-.197-.279-.365-.582-.544-.875-.669-1.091-3.104-3.733-4.141-4.497-.092-.067-.192-.125-.288-.19-.854-.583-1.575-1.31-2.335-1.99-.553-.49-.083-1.663.777-2.005.203-.081.408-.168.613-.236.479-.155.962-.286 1.438-.455 2.081-.736 4.061-1.776 5.884-3.286.653-.541 1.361-1.023 1.979-1.601.618-.577 1.139-1.259 1.734-1.862.879-.889 1.621-1.865 2.3-2.869 1.508-2.228 2.581-4.533 3.068-6.919.135-.667.251-1.333.381-2.001a13.07 13.07 0 0 0 .127-4.246c-.062-.491-.149-.972-.215-1.462a12.355 12.355 0 0 0-1.367-4.211c-.403-.763-.754-1.565-1.306-2.222a37.11 37.11 0 0 0-2.79-2.984 5.586 5.586 0 0 0-.795-.645c-.624-.408-1.251-.82-1.918-1.175a23.464 23.464 0 0 0-8.041-2.575c-3.324-.44-6.771-.453-10.354-.041-1.01.115-2.025.255-3.033.366a3.32 3.32 0 0 1-.779-.004c-.633-.074-.881-.575-.652-1.242.092-.267.218-.536.346-.798.293-.595.609-1.183.896-1.779.764-1.591 1.404-3.197 1.822-4.812.611-2.36.889-4.666.827-6.902a22.778 22.778 0 0 0-.123-1.689c-.17-1.683-.619-3.226-1.194-4.705-.553-1.428-1.251-2.749-2.274-3.83-.312-.33-.618-.666-.925-1.001-.727-.799-1.593-1.443-2.518-2.037-2.274-1.46-4.979-2.124-7.959-2.3a18.103 18.103 0 0 0-2.353-.004c-1.801.131-3.621.36-5.486.876-.824.227-1.643.513-2.464.788-2.353.788-4.608 1.956-6.815 3.343a18.48 18.48 0 0 0-1.878 1.332c-.296.244-.607.471-.928.684a3.547 3.547 0 0 1-.596.308c-.433.18-.832.184-1.132-.011a4.362 4.362 0 0 1-.774-.666c-.901-.942-1.782-1.905-2.689-2.845-.394-.408-.788-.821-1.254-1.15a12.727 12.727 0 0 1-2.026-1.819c-1.192-1.304-2.705-2.265-4.099-3.346-.629-.49-1.331-.903-2.028-1.311-1.555-.903-3.287-1.544-5.013-2.196a3.43 3.43 0 0 0-.348-.104c-1.708-.449-3.443-.842-5.31-.957a46.11 46.11 0 0 0-2.72-.081c-1.379-.008-2.788.178-4.235.525-1.098.262-2.19.611-3.285.991-1.522.528-2.978 1.293-4.421 2.142-.988.581-1.882 1.328-2.822 1.99a17.283 17.283 0 0 0-3.381 3.147c-.392.476-.803.934-1.195 1.408a22.94 22.94 0 0 0-3.053 4.741c-.635 1.318-1.237 2.653-1.519 4.008-.056.265-.159.537-.243.805a6.623 6.623 0 0 0-.309 1.597c-.026.391-.061.784-.1 1.177-.244 2.403.017 4.601.885 6.549.142.32.259.654.378.986.041.109.067.229.087.35.089.525-.093 1.034-.555 1.529-.32.342-.671.65-1.055.901-1.29.849-2.428 1.901-3.555 2.961-1.818 1.709-3.577 3.787-4.902 5.787-.252.379-.5.758-.745 1.141a31.725 31.725 0 0 0-2.548 4.911 41.161 41.161 0 0 0-1.615 4.626c-.42 1.479-.701 2.95-.803 4.39-.229 3.216-.007 6.273.674 9.167.111.469.218.941.295 1.425.201 1.276.522 2.494.871 3.694.585 2.004 1.259 3.958 2.371 5.638.343.744.838 1.364 1.377 1.95a62.657 62.657 0 0 0 1.766 1.841 6.1 6.1 0 0 0 .933.751c.917.593 1.851 1.167 2.92 1.557.729.265 1.453.538 2.175.814.275.105.549.219.811.347.347.167.467.675.282 1.151a1.764 1.764 0 0 1-.715.855c-.257.164-.524.31-.79.449-.398.209-.801.4-1.201.611a19.556 19.556 0 0 0-5.104 3.896c-.316.337-.622.688-.903 1.05-2.065 2.669-3.389 5.497-4.078 8.429-.375 1.604-.622 3.2-.9 4.797a10.606 10.606 0 0 0-.136 1.57c-.06 2.455.044 4.852.472 7.139.181.964.442 1.874.822 2.729.742 1.679.922 1.965 2.131 3.3.112.123.231.247.515.551m-7.376-62.359c.073-.127.189-.26.21-.379.194-1.122.371-2.245.55-3.365.011-.065-.006-.125-.006-.188.005-.279-.312-.541-.619-.497-.268.037-.536.068-.808.134-1.428.35-2.858.722-4.286 1.024-.747.157-1.496.373-2.247.564-.273.07-.543.181-.801.348a1.042 1.042 0 0 0-.422.513c-.051.131-.099.27-.109.397-.07.912-.064 1.801.038 2.66.014.121.056.233.098.341.114.293.359.442.71.412.799-.07 1.616-.252 2.434-.453 1.429-.354 2.86-.738 4.285-1.028.201-.04.41-.12.61-.213.128-.059.243-.179.363-.27m-7.317 7.431c.143.037.305.125.492.115.258-.012.537-.07.808-.148a101.275 101.275 0 0 0 5.301-1.729c.134-.047.265-.131.397-.199.224-.111.519-.49.524-.689.015-.511.035-1.026.023-1.529-.007-.377-.062-.739-.102-1.107-.023-.208-.312-.379-.55-.344-.066.009-.131-.002-.197.014-2.24.523-4.478 1.01-6.723 1.607-.13.034-.265.126-.396.194-.161.083-.389.381-.396.519-.009.192-.04.395-.012.572.132.844.348 1.647.612 2.424.037.109.131.182.219.3m27.259 64.014c-.031.032-.417.412-.778.809-.271.297-.411.636-.415.97a5.642 5.642 0 0 0 .219 1.645c.014.056.054.1.078.153.055.133.311.238.475.184.2-.068.416-.117.604-.225.594-.335 1.176-.691 1.762-1.041.718-.426 1.438-.847 2.151-1.279.406-.244.712-.588.913-.998.159-.33.29-.666.446-.996.343-.726.7-1.451 1.045-2.178.157-.331.303-.662.449-.992a.329.329 0 0 0-.364-.459c-.415.086-.818.286-1.223.451a6.877 6.877 0 0 0-1.76 1.014c-.302.242-.607.477-.924.691-.827.565-1.584 1.22-2.678 2.251m-15.59-85.442c.097-.096.156-.148.205-.207.354-.41.622-.853.824-1.32.104-.236-.035-.567-.267-.57-1.035-.013-2.065-.036-3.131.069-1.733.168-3.469.365-5.207.56a4.88 4.88 0 0 0-.809.179 1.413 1.413 0 0 0-.725.516 5.87 5.87 0 0 0-.819 1.552c-.121.339.055.684.361.685.128-.001.253.023.385.007 2.678-.334 5.357-.671 8.04-1.014.197-.024.409-.081.609-.161.196-.081.387-.213.534-.296M90.49 53.569c.149.036.309.129.496.116a20.842 20.842 0 0 0 3.422-.5 25.528 25.528 0 0 1 2.431-.439c.669-.093 1.342-.186 2.016-.296.267-.043.541-.121.813-.21.284-.09.527-.291.699-.548.258-.38.41-.775.483-1.181a.493.493 0 0 0-.507-.583c-.198.006-.392-.004-.59.022-2.412.309-4.824.618-7.238.937a4.66 4.66 0 0 0-.812.208 1.481 1.481 0 0 0-.707.546c-.372.502-.597 1.024-.612 1.559-.002.12.062.223.106.369m32.032 103.622c.224.211.387.368.552.52.463.42 1.019.72 1.625.954.315.122.809-.063 1.119-.427.898-1.053 1.635-2.18 2.334-3.324a.923.923 0 0 0 .085-.197c.05-.199.077-.402-.007-.557a1.504 1.504 0 0 0-.299-.405c-.42-.379-.926-.655-1.467-.879-.286-.118-.631-.052-.972.151a14.679 14.679 0 0 0-2.731 2.059c-.166.158-.311.339-.458.513-.193.227-.307.756-.193.948.143.244.303.475.412.644M93.73 76.811c.177.21.305.4.472.55.171.154.417.201.692.167a2.25 2.25 0 0 0 .406-.077c1.159-.353 2.316-.705 3.474-1.072.2-.063.4-.18.596-.289a.553.553 0 0 0 .266-.35c.032-.131.066-.272.052-.389-.103-.859-.339-1.652-.623-2.421-.062-.167-.424-.32-.62-.268-.068.018-.136.024-.203.047-1.566.53-3.13 1.074-4.686 1.725a1.393 1.393 0 0 0-.387.226 1.044 1.044 0 0 0-.257.354c-.084.201-.077.405.012.551.267.436.555.857.806 1.246m19.215-41.488c.233-.202.432-.656.399-.928a4.248 4.248 0 0 0-.546-1.678c-.184-.307-.486-.485-.896-.479-1.052.019-2.133.187-3.224.416-.278.057-.54.219-.774.431a1.392 1.392 0 0 0-.161.165c-.393.502-.886.851-1.435 1.117a4.09 4.09 0 0 0-.394.224c-.147.092-.226.218-.213.353.005.057.036.124.082.143 1.207.492 2.597.64 3.892.97.411.104.856.14 1.29.203.06.008.13 0 .197-.013.137-.025.272-.046.408-.096a3.93 3.93 0 0 0 1.375-.828M89.648 57.627c.145.034.309.128.492.105a12.4 12.4 0 0 0 1.417-.265c2.177-.542 4.353-1.134 6.526-1.621.133-.029.274-.09.404-.16.128-.069.268-.154.369-.26.333-.351.517-.735.498-1.139a.277.277 0 0 0-.196-.266c-.111-.036-.229-.079-.355-.069-1.126.072-2.27.208-3.421.472-1.43.329-2.836.53-4.25.746-.269.041-.542.119-.814.187-.317.08-.649.434-.745.77-.115.405-.163.795-.08 1.152.025.115.09.211.155.348m8.957-17.965c-.194.217-.401.444-.601.674-.201.234-.184.604.023.669.114.038.213.098.333.12 2.321.409 4.758.5 7.238.475.13-.002.266-.035.401-.051.42-.049.982-.479 1.205-.923.12-.235.053-.598-.12-.67-.162-.066-.316-.151-.492-.194-1.828-.452-3.771-.662-5.667-.972-.241-.041-.513-.02-.777.002-.27.02-.546.125-.802.304-.246.172-.483.368-.741.566m.062 68.285a.517.517 0 0 0-.523-.1c-1.084.371-2.167.755-3.252 1.143a2.077 2.077 0 0 0-.392.212c-.267.171-.475.392-.56.677a3.195 3.195 0 0 0-.125.594 57.95 57.95 0 0 0-.125 1.557c-.016.256-.015.51-.015.762 0 .271.376.506.671.424.067-.018.135-.023.202-.047a30.141 30.141 0 0 0 3.226-1.365c.065-.031.129-.078.191-.123.253-.186.447-.414.548-.693.047-.132.099-.268.119-.396.136-.857.173-1.689.121-2.501-.006-.059-.059-.099-.086-.144m-7.11-35.065c.226.295.598.448 1.118.318.409-.102.822-.218 1.231-.365 1.09-.395 2.182-.806 3.272-1.218.202-.077.402-.187.603-.282.383-.184.704-.661.714-1.048.013-.391-.04-.753-.185-1.075-.102-.226-.301-.347-.581-.323-.262.022-.54.07-.81.156-1.641.525-3.282 1.065-4.923 1.604-.134.044-.266.126-.402.19-.328.152-.562.556-.527.874.054.438.208.811.49 1.169m6.97 43.693c.052-.147.192-.364.185-.534-.037-.754-.117-1.494-.185-2.236a.385.385 0 0 0-.063-.164.517.517 0 0 0-.422-.268 1.02 1.02 0 0 0-.398.048 24.735 24.735 0 0 0-3.248 1.37c-.296.15-.583.594-.581.887.006.898.154 1.734.384 2.538.076.264.452.425.757.329.139-.043.275-.069.41-.125.95-.414 1.878-.898 2.775-1.49.124-.08.226-.204.386-.355m25.426 35.821c.125-.138.281-.308.434-.482.211-.238.32-.751.21-.949-.252-.459-.587-.84-1.06-1.085-.215-.111-.48-.095-.762-.005a1.944 1.944 0 0 0-.405.164 410.3 410.3 0 0 0-2.736 1.631c-.062.037-.114.1-.173.146-.187.145-.401.597-.354.758.2.688.495 1.314.966 1.816.039.041.092.066.137.104.197.162.658.156.933-.021.96-.624 1.903-1.275 2.81-2.077m-24.472-30.503c.085-.072.262-.515.228-.709a15.538 15.538 0 0 0-.591-2.257c-.035-.108-.124-.189-.202-.271-.167-.176-.414-.205-.696-.14-.135.03-.276.081-.408.146-.807.394-1.605.809-2.371 1.324-.063.042-.116.102-.178.148-.129.102-.315.439-.306.566.011.125.005.26.041.37.262.786.648 1.492 1.079 2.167.174.275.661.357 1.036.188.201-.09.411-.171.602-.289.581-.361 1.176-.697 1.766-1.243m14.732-102.715c-.099-.055-.185-.156-.299-.156-.777.004-1.558.028-2.338.049-.26.008-.521.016-.788.048-.582.071-1.081.389-1.449.923-.473.689-.794 1.408-.935 2.148-.04.211.151.518.346.54.062.006.118.029.185.027 1.169-.016 2.371-.184 3.583-.417a.985.985 0 0 0 .201-.071c.277-.118.533-.281.684-.56a9.348 9.348 0 0 0 .843-2.172c.03-.122-.018-.24-.033-.359m27.449 135.277c-.062-.109-.359-.186-.509-.133-.817.294-1.625.667-2.414 1.101-.273.149-.479.393-.625.657a3.24 3.24 0 0 0-.267.592c-.279.875-.455 1.737-.49 2.582-.015.307.317.533.643.431a12.383 12.383 0 0 0 3.185-1.571c.062-.042.123-.095.178-.146.292-.275.521-.59.53-.933.03-.837.024-1.664-.143-2.435-.013-.057-.06-.097-.088-.145m-20.414-17.867a.527.527 0 0 0-.384.068 553.01 553.01 0 0 0-3.323 1.891 4.487 4.487 0 0 0-.553.401c-.183.151-.334.341-.369.545-.135.791-.199 1.567-.124 2.309.013.116.085.211.142.308.079.131.342.184.509.119.953-.375 1.853-.93 2.742-1.504.063-.039.122-.091.179-.142.299-.257.54-.552.652-.897a7.61 7.61 0 0 0 .272-.996c.123-.656.37-1.329.37-1.971.001-.051-.068-.082-.113-.131m-4.902-3.645l-.021-.023c.336-.314.676-.625 1.007-.944.107-.104.2-.229.287-.349.095-.131.108-.26.037-.361a.193.193 0 0 0-.148-.082c-.257-.002-.517-.006-.781.027-.937.113-1.855.166-2.762.154a1.642 1.642 0 0 0-.803.203c-.985.537-1.941 1.137-2.839 1.857-.141.113-.123.431.034.485 1.064.373 2.199.604 3.421.651.062.002.132-.01.197-.016.344-.032.685-.141.989-.394.472-.387.925-.803 1.382-1.208m15.504 23.06c-.07-.076-.101-.127-.148-.157-.426-.285-.892-.512-1.471-.555a.99.99 0 0 0-.772.316c-.315.33-.599.691-.862 1.055-.533.73-1.077 1.458-1.481 2.244-.161.316-.087.713.158.816.646.277 1.374.402 2.097.541.117.023.254.008.38.016.21.01.59-.229.717-.453.037-.064.09-.125.117-.189.418-.918.833-1.838 1.244-2.758.055-.129.103-.273.1-.394-.003-.184-.055-.354-.079-.482m-32.835-50.079c.082-.123.201-.246.24-.371.217-.727.418-1.453.621-2.181.067-.239-.164-.497-.405-.464-1.002.139-2.017.407-3.028.662-.527.133-1.061.656-1.257 1.188-.292.796-.486 1.589-.676 2.381-.037.164.151.377.305.355.065-.012.132.005.197-.014 1.22-.334 2.43-.785 3.639-1.289.065-.026.128-.077.189-.121.058-.045.116-.097.175-.146m.323-9.443c.114.033.27.126.455.12.454-.011.92-.059 1.385-.111 2.058-.24 1.888-.195 3.341-2.033.282-.356.547-.723.818-1.084.193-.26.098-.588-.167-.563-1.127.108-2.253.22-3.38.333-.134.016-.269.044-.402.069a1.449 1.449 0 0 0-.907.595 14.32 14.32 0 0 0-1.15 1.9c-.064.127-.085.264-.116.396-.031.138.003.25.123.378m-2.171-15.057c.131.12.463.197.696.158.134-.022.27-.035.403-.083a13.232 13.232 0 0 0 2.189-1.041c.361-.215.622-.729.55-1.079a5.734 5.734 0 0 0-.507-1.49c-.167-.33-.516-.474-.93-.342-.405.13-.812.271-1.218.403-.474.154-.95.301-1.423.457-.203.066-.403.157-.605.24-.354.14-.628.597-.482.825.393.62.797 1.231 1.198 1.844.03.045.086.072.129.108m-1.688-38.275a4.34 4.34 0 0 0-.763.99c-.035.064-.064.131-.098.196-.139.262-.004.568.257.542 1.404-.135 2.808-.268 4.214-.413 1.205-.123 2.418-.281 3.593-.264.382.007.801-.082 1.207-.15.126-.02.27-.103.396-.179a.417.417 0 0 0 .214-.356.243.243 0 0 0-.059-.156c-.12-.127-.293-.184-.488-.186-2.019-.021-3.968-.222-5.894-.487a17.298 17.298 0 0 0-1.324-.132c-.411-.021-.806.177-1.255.595m39.94 116.966c.085-.146.25-.341.287-.522.211-.991.391-1.981.578-2.971.044-.229-.171-.488-.382-.507-.509-.049-1.041.02-1.588.168-.359.098-.65.34-.892.651a1.46 1.46 0 0 0-.125.188 18.22 18.22 0 0 0-1.19 2.765c-.101.301.074.673.337.729.119.029.234.066.358.072a6.935 6.935 0 0 0 1.991-.215c.067-.02.14-.039.201-.074.131-.077.252-.166.425-.284M101.75 98.188c-.09-.064-.16-.181-.272-.189-.896-.073-1.839.074-2.796.293-.434.099-.8.383-1.064.784-.418.634-.727 1.294-.994 1.96-.051.131-.058.265-.086.398-.033.167.102.392.251.417.122.019.241.06.37.048.775-.08 2.385-.48 3.053-.758.21-.088.39-.247.519-.439.461-.694.838-1.41 1.052-2.152.036-.122-.02-.241-.033-.362m4.13 30.4c-.726-.59-1.457-1.037-2.212-1.454-.204-.114-.483-.087-.763.05-.537.264-1.035.611-1.525.979-.355.268-.545.834-.345 1.083.174.219.348.446.574.61.458.334.952.627 1.432.935.372.239.817.195 1.309-.097.387-.231.772-.473 1.145-.734.182-.128.334-.31.496-.471.13-.131.208-.458.136-.564-.096-.137-.199-.271-.247-.337m6.22-102.049c.089-.121.208-.24.252-.363a5.76 5.76 0 0 0 .33-1.774c.005-.231-.233-.445-.479-.41-.066.01-.132.001-.198.018-.954.223-1.887.331-2.789.287-.19-.008-.389.009-.589.023-.131.01-.269.041-.402.058-.328.044-.723.375-.804.689-.085.331-.164.665-.215.992-.027.192-.008.382.021.56.033.186.159.3.347.343.118.027.239.059.368.05 1.255-.087 2.51-.18 3.77-.285.118-.01.259-.122.388-.188m-13.838 99.973c.227.195.507.473.825.703.293.212.694.182 1.118.01.544-.223 1.04-.568 1.523-.946.287-.226.462-.688.327-.91a97.749 97.749 0 0 0-1.061-1.733.755.755 0 0 0-.236-.238.73.73 0 0 0-.721-.061c-.749.301-1.441.763-2.128 1.237-.374.257-.526.761-.312 1.056.195.274.403.538.665.882m19.342 21.529c-.243.162-.468.663-.374 1.016.015.057.014.124.037.175.167.366.329.735.508 1.094.113.226.549.33.829.222.066-.027.135-.041.202-.072a22.19 22.19 0 0 0 2.543-1.426c.538-.345.667-.859.484-1.233a21.825 21.825 0 0 0-.559-1.06c-.154-.277-.646-.372-1.013-.219-.065.027-.138.042-.202.074-.797.394-1.581.829-2.455 1.429m-5.606-117.574c.083-.122.201-.241.242-.365.168-.481.146-.917-.022-1.292-.066-.149-.214-.259-.362-.336a1.406 1.406 0 0 0-.524-.125c-1.133-.109-2.323.001-3.533.2-.361.059-.685.416-.68.737.009.505.071.988.223 1.433.105.297.334.471.676.45 1.185-.079 2.376-.203 3.598-.489a.857.857 0 0 0 .197-.089c.064-.036.123-.082.185-.124m32.643 121.443c-.149.14-.202.193-.26.242-.625.547-.955 1.173-.967 1.862-.011.509.008 1.011.028 1.509.009.121.073.223.118.328.08.191.417.264.656.162.272-.117.521-.283.754-.483.829-.713 1.453-1.563 2.026-2.444.216-.326.231-.66.166-.959a1.39 1.39 0 0 0-.425-.729c-.292-.279-.814-.316-1.26-.051-.319.19-.624.42-.836.563m-38.81-19.605c.084.074.153.171.255.217.431.182.853.375 1.308.513.482.147 1.03.025 1.562-.323.567-.374 1.115-.786 1.668-1.186.059-.043.092-.119.14-.178.11-.123.137-.477.043-.544-.047-.032-.075-.091-.127-.11-.667-.235-1.327-.484-2.011-.691-.354-.107-.765-.026-1.174.219-.387.233-.77.475-1.147.725-.122.08-.228.199-.342.303-.34.308-.429.838-.175 1.055m14.497 10.255c-.104-.049-.193-.124-.309-.14a.778.778 0 0 0-.394.049c-.874.383-1.72.862-2.537 1.412-.347.23-.521.556-.568.896a3.428 3.428 0 0 0 .094 1.48c.077.254.466.404.773.275a11.002 11.002 0 0 0 2.692-1.597c.244-.202.4-.466.418-.74a5.088 5.088 0 0 0-.097-1.481c-.01-.057-.048-.103-.072-.154m-18.644-55.963c.288.266.526.507.79.72.273.223.634.301 1.053.236a5.742 5.742 0 0 0 1.63-.499c.34-.159.549-.602.409-.853-.282-.506-.709-.88-1.113-1.273a1.909 1.909 0 0 0-.417-.3c-.204-.112-.448-.159-.727-.112a6.724 6.724 0 0 0-1.833.586c-.229.11-.455.546-.348.701.192.281.39.557.556.794m11.059-71.169a5.383 5.383 0 0 0-1.224 1.603c-.08.164.028.4.201.435.975.196 2.03.102 3.115-.118.276-.054.54-.24.742-.48.295-.349.552-.719.729-1.121.134-.303-.014-.692-.292-.736-.735-.123-1.515-.113-2.304-.062-.339.024-.672.203-.967.479m38.064 130.856c-.059-.042-.107-.071-.151-.106-.114-.097-.413-.051-.558.085-.109.103-.241.193-.329.308-.553.717-1.102 1.435-1.638 2.159a.962.962 0 0 0-.146.937.99.99 0 0 0 .166.294c.109.13.265.265.468.183.605-.242 1.207-.357 1.812-.55a.601.601 0 0 0 .184-.128.778.778 0 0 0 .149-.17c.333-.512.541-1.044.539-1.559 0-.575-.19-1.06-.496-1.453M102.42 82.121a2.31 2.31 0 0 0-.088-.096c-.347-.346-.813-.402-1.401-.191a6.56 6.56 0 0 0-1.572.802c-.196.138-.332.322-.364.527a.59.59 0 0 0 .039.354c.24.425.64.621 1.238.488a9.067 9.067 0 0 0 1.819-.599c.483-.217.795-.689.452-1.122-.034-.043-.066-.089-.123-.163m16.48-69.834l-.009-.006c.265-.277.528-.551.788-.83.103-.112.189-.236.285-.351.14-.165.172-.463.059-.529a.4.4 0 0 0-.371-.014c-1.075.461-2.109 1.059-3.107 1.745-.18.124-.333.306-.494.465-.14.142-.142.453-.017.512.433.207.939.213 1.483.113.201-.037.413-.131.583-.292.277-.262.536-.541.8-.813m36.89 140.549a14.584 14.584 0 0 0-.483-.355c-.156-.106-.595.08-.729.295-.28.449-.447.906-.509 1.369-.036.273.035.494.189.663.231.252.537.402.929.431.239.018.554-.135.746-.373.514-.628.599-1.174.247-1.609-.068-.088-.149-.165-.39-.421m-2.581-2.764c-.083-.068-.213-.176-.345-.279-.184-.143-.551-.01-.709.24-.331.531-.454 1.049-.371 1.544.069.418.206.805.447 1.118a.704.704 0 0 0 .261.213c.116.055.261.004.376-.118.328-.347.451-.752.621-1.142.219-.49.213-.916-.04-1.259-.067-.089-.137-.177-.24-.317m5.696 6.428c.044-.046.1-.101.15-.156.335-.371.401-.818.158-1.07a1.43 1.43 0 0 0-.921-.451c-.277-.027-.536.092-.758.333a3.987 3.987 0 0 0-.413.536c-.208.326-.189.68.007.885.243.26.584.356.994.314.272-.028.538-.168.783-.391m4.462.814c.148-.03.282-.111.316-.24s-.051-.207-.182-.24c-.521-.125-1.035-.264-1.564-.365-.17-.034-.382.008-.579.056-.124.031-.262.128-.376.214-.242.182-.292.576-.084.649.164.057.329.121.514.128.631.023 1.29-.073 1.955-.202M60.883 70.609c.62-.706 1.246-1.407 1.861-2.114 1.199-1.374 2.654-2.54 4.184-3.645.427-.311.874-.598 1.325-.88 1.361-.849 2.775-1.597 4.352-2.053.366-.105.721-.265 1.077-.409.355-.146.698-.322 1.058-.456 1.414-.526 2.819-.705 4.205-.421.349.072.692.162 1.026.26a4.14 4.14 0 0 1 1.434.722c.705.562 1.368 1.158 1.856 1.88.831 1.231 1.529 2.527 1.92 3.949.437 1.591.869 3.185 1.015 4.854.084.986.207 1.964.329 2.942.193 1.535.137 3.104.043 4.672a41.754 41.754 0 0 1-.864 6.242c-.093.441-.205.887-.354 1.321a44.809 44.809 0 0 1-.876 2.433 16.175 16.175 0 0 1-3.545 5.4c-.411.418-.853.809-1.341 1.166a13.444 13.444 0 0 1-2.787 1.562c-.71.297-1.423.588-2.128.893-1.643.709-3.317 1.164-5.089 1.271-1.364.082-2.674.038-3.964-.168-1.579-.252-3.029-.728-4.441-1.268a8.567 8.567 0 0 1-2.244-1.278c-.303-.238-.589-.496-.883-.742-1.948-1.635-3.326-3.582-3.961-5.939-.095-.354-.211-.701-.312-1.055a8.37 8.37 0 0 1-.335-2.371c.006-1.878.178-3.76.741-5.663.502-1.705 1.251-3.361 2.086-5.003.06-.121.13-.242.205-.358.981-1.528 1.945-3.061 3.251-4.45.397-.424.767-.866 1.149-1.299l.007.005zm8.995-2.949c-.551.649-1.024 1.195-1.48 1.748a12.34 12.34 0 0 0-.773 1.017c-1.227 1.873-2.433 3.754-3.488 5.681-.89 1.625-1.678 3.278-2.234 4.975a11.535 11.535 0 0 0-.469 1.889c-.057.377-.095.756-.161 1.135-.279 1.661-.137 3.264.2 4.822.407 1.886 1.292 3.549 2.874 4.852.2.164.386.337.573.509.615.569 1.368.981 2.23 1.276a25.6 25.6 0 0 0 4.1 1.036c1.656.273 4.199-.204 5.709-1.075.535-.308 1.028-.646 1.444-1.064.833-.828 1.587-1.7 2.254-2.619.205-.283.388-.584.536-.887.925-1.898 1.675-3.82 2.011-5.792.067-.378.16-.758.246-1.136a16.98 16.98 0 0 0 .404-3.586c.012-1.187.044-2.375-.078-3.544a3.384 3.384 0 0 1-.01-.561c.083-1.513-.184-2.967-.369-4.432-.028-.245-.088-.483-.142-.721-.163-.716-.322-1.433-.494-2.146-.409-1.679-1.121-3.225-2.242-4.589-.482-.591-1.105-1.044-1.862-1.374-.931-.404-1.939-.395-3.016-.01a7.299 7.299 0 0 0-1.646.815c-.939.635-1.855 1.298-2.596 2.111-.533.591-1.074 1.179-1.521 1.67M58.217 84.465a.526.526 0 0 0-.384-.123c-.467.029-.88.195-1.234.49-.172.144-.306.318-.336.508-.12.75-.165 1.493-.08 2.222.027.214.308.44.564.446.456.014.888-.097 1.281-.351.195-.124.332-.295.356-.491.097-.811.078-1.609.02-2.4-.008-.11-.121-.201-.187-.301m.387-2.092c.086-.112.197-.219.253-.336.226-.49.377-.984.391-1.489.004-.166-.153-.371-.337-.409-.442-.091-.875-.015-1.293.218a1.063 1.063 0 0 0-.427.467c-.244.489-.359.988-.448 1.49-.059.338.234.599.615.551.38-.048.738-.163 1.069-.361.064-.037.119-.088.177-.131m-1.509 7.238c-.082.149-.171.264-.203.383a.71.71 0 0 0-.002.363c.118.471.353.892.668 1.273.224.271.666.363 1.165.223.293-.084.549-.387.489-.6a43.26 43.26 0 0 0-.466-1.551c-.112-.342-.564-.489-1.066-.345-.211.059-.409.176-.585.254m3.579-13.337c-.432-.239-1.067-.107-1.363.283-.335.443-.668.886-.854 1.377-.113.303.088.595.518.611.292.009.584-.021.866-.143a.994.994 0 0 0 .358-.246c.358-.437.566-.915.684-1.411a.47.47 0 0 0-.209-.471m1.039 19.255c.073-.122.106-.252.04-.355-.425-.664-.89-1.301-1.543-1.811-.206-.16-.502-.174-.811-.059-.207.074-.367.324-.305.479.022.053.02.12.056.166.441.585.954 1.119 1.597 1.551.151.102.368.148.568.189.147.033.289-.042.398-.16m.239-22.831c-.353.426-.639.886-.804 1.386-.056.162.042.39.211.452a.563.563 0 0 0 .428-.01c.138-.06.274-.127.386-.214.118-.087.222-.194.302-.304.327-.453.572-.93.719-1.426.041-.133-.018-.245-.124-.323-.132-.098-.452-.092-.606.009-.062.042-.135.073-.19.12-.107.094-.208.198-.322.31m3.064-2.656c.26-.274.347-.48.209-.48-.248-.001-.402.161-.574.291a1.439 1.439 0 0 0-.167.144c-.05.053-.103.107-.131.164-.026.057-.053.136-.028.175.078.122.217.118.365-.002.116-.091.218-.194.326-.292M28.429 87.039c-.407-.635-.753-1.504-1.029-2.417a21.654 21.654 0 0 1-.623-2.8 7.13 7.13 0 0 1-.084-.904c-.063-1.59.005-3.177.405-4.758.076-.3.138-.603.198-.906.468-2.329 1.349-4.497 2.443-6.592a31.04 31.04 0 0 1 2.879-4.491c.947-1.237 2.102-2.181 3.378-2.903 1.562-.882 3.207-1.254 4.891-.896 1.426.303 2.695.952 3.681 2.095.557.645 1.15 1.233 1.781 1.783.209.183.389.404.587.603.482.487.805 1.082 1.053 1.762.385 1.058.648 2.15.847 3.28.326 1.848.412 3.73.351 5.631-.038 1.222-.144 2.452-.417 3.666-.134.604-.261 1.209-.395 1.813a19.682 19.682 0 0 1-2.439 5.985c-.643 1.061-1.42 1.994-2.276 2.85-.742.742-1.622 1.184-2.564 1.457-.273.078-.552.126-.826.191-.495.119-.989.242-1.484.363-.329.079-.657.178-.989.232-1.463.244-2.87.17-4.227-.419-1.486-.646-2.782-1.551-3.887-2.788-.455-.509-.818-1.092-1.254-1.837M41.638 63.05c-.606-.278-1.253-.403-1.914-.472-.109-.01-.222.007-.333.01-.271.007-.521.312-.514.633.01.386.333.679.662.598.11-.027.224-.038.33-.077.59-.226 1.179-.458 1.768-.688l.001-.004zm-7.046 22.381c.654 1.22 1.592 2.178 2.658 2.995.772.594 1.676.811 2.633.83.218.006.444-.046.664-.097.913-.216 1.682-.763 2.358-1.476a11.048 11.048 0 0 0 1.628-2.207c.545-.973.958-2.008 1.367-3.045.531-1.335.835-2.725 1.015-4.135.165-1.285.237-2.571.271-3.861.064-2.36-.336-4.596-1.039-6.75-.35-1.069-1.07-1.755-1.988-2.208a1.949 1.949 0 0 0-.634-.171c-1.36-.142-2.661.175-3.877.998-.538.363-1.062.756-1.581 1.149-.669.502-1.256 1.103-1.808 1.76-.948 1.131-1.736 2.369-2.308 3.755-.724 1.742-.857 2.349-1.044 4.301-.009.122-.024.244-.036.367-.109 1.236-.067 2.449.213 3.626.057.232.093.471.159.699.348 1.199.699 2.396 1.349 3.47m-.008-18.846c-.062-.083-.125-.179-.199-.261-.224-.255-.657-.231-.887.058-.26.329-.52.663-.76 1.013a4.057 4.057 0 0 0-.51.969c-.083.242-.103.49.004.701.168.326.44.496.799.484a.7.7 0 0 0 .461-.199c.436-.41.812-.88 1.125-1.405a1.21 1.21 0 0 0 .055-1.205c-.023-.052-.055-.098-.088-.155m-5.149 17.657c.125.216.174.32.238.41.208.293.48.452.839.392a2.16 2.16 0 0 0 .48-.14c.408-.166.619-.551.572-1.006-.037-.359-.118-.699-.301-.994-.125-.199-.291-.34-.513-.379-.432-.077-.866-.029-1.301.093-.205.059-.334.313-.312.583.042.425.177.803.298 1.041m1.069-6.795a.723.723 0 0 0 .317-.422c.128-.476.196-.958.173-1.444a.984.984 0 0 0-.265-.627c-.189-.212-.434-.332-.695-.417-.195-.063-.48.084-.568.29-.246.571-.357 1.168-.415 1.777-.033.359.167.723.492.815.206.06.424.09.64.105.105.008.216-.049.321-.077m5.594-13.702c-.209.206-.427.411-.634.625-.152.158-.194.491-.101.685.025.052.043.11.077.155.589.81 1.076.792 1.822.106.043-.039.082-.09.121-.136.209-.245.306-.536.285-.847a3.508 3.508 0 0 0-.133-.699c-.076-.283-.423-.438-.67-.312-.255.132-.506.278-.767.423m-7.269 17a.61.61 0 0 0 .369.315c.373.114.751.082 1.134-.042.196-.062.392-.289.439-.519a1.938 1.938 0 0 0-.084-1.055.598.598 0 0 0-.334-.356 2.48 2.48 0 0 0-1.11-.197c-.206.008-.451.233-.485.445a3.73 3.73 0 0 0-.023 1.08c.015.116.063.224.094.329m2.64-7.493c.046-.038.1-.066.135-.112.376-.49.599-1.045.655-1.663a.607.607 0 0 0-.156-.483 1.661 1.661 0 0 0-.382-.296c-.312-.164-.69-.026-.873.281-.25.418-.457.856-.548 1.339-.034.18-.028.362.062.516.182.312.447.483.791.498.102.004.212-.051.316-.08m1.06 14.425a.668.668 0 0 0 .253-.464c.043-.473-.231-.946-.631-1.1a.472.472 0 0 0-.158-.031c-.323-.01-.667.22-.796.565-.12.319-.001.587.181.81a.98.98 0 0 0 .693.379c.171.016.321-.056.458-.159m2.247 1.831c.016-.053.053-.113.043-.158-.042-.18-.179-.273-.307-.369-.084-.063-.18-.115-.271-.166-.147-.08-.376.003-.414.152a.304.304 0 0 0 .083.311c.203.191.44.301.719.297.048-.001.099-.044.147-.067M6.82 66.488c.178-.127.358-.252.535-.384.708-.531 1.504-.897 2.321-1.22a5.94 5.94 0 0 1 1.759-.394c.994-.076 1.973-.03 2.917.334.203.078.419.124.629.19.474.149.929.342 1.341.614a25.23 25.23 0 0 0 2.266 1.334c.794.414 1.417 1.019 1.922 1.756.87 1.272 1.24 2.685 1.136 4.205a11.667 11.667 0 0 1-1.349 4.708 16.59 16.59 0 0 1-1.624 2.469 6.586 6.586 0 0 1-1.286 1.265c-.487.355-.978.706-1.467 1.058a4.762 4.762 0 0 1-2.605.906c-.934.043-1.855.169-2.777.307a5.62 5.62 0 0 1-1.638.004c-.325-.048-.651-.095-.974-.156-1.103-.209-2.059-.73-2.936-1.41a3.277 3.277 0 0 1-.472-.455c-.717-.843-1.304-1.76-1.621-2.834a11.785 11.785 0 0 1-.427-2.089 9.685 9.685 0 0 1 .085-2.783c.078-.431.148-.865.222-1.296.11-.652.313-1.275.541-1.895.568-1.537 1.538-2.768 2.835-3.752.219-.167.445-.321.667-.482zm12.049 3.444c-.15-.187-.283-.362-.425-.529a3.436 3.436 0 0 0-.876-.738c-1.468-.87-2.997-.974-4.585-.377-.204.078-.403.168-.607.253-.359.149-.676.36-.947.642-.113.117-.219.246-.342.355-.749.679-1.223 1.541-1.624 2.451-.292.662-.416 1.364-.463 2.078-.07 1.046 0 2.085.26 3.105.15.585.338 1.158.639 1.688.136.239.264.483.378.731.287.621.776 1.053 1.323 1.432.089.062.191.109.292.147.698.252 1.396.266 2.09-.007.205-.081.397-.189.599-.274a4.519 4.519 0 0 0 1.48-1.02c.458-.472.942-.913 1.354-1.432 1.01-1.27 1.674-2.698 2.062-4.263.241-.977.229-1.957.027-2.937a2.573 2.573 0 0 0-.23-.612c-.122-.245-.275-.474-.405-.693M6.755 73.776c-.091-.059-.175-.137-.274-.176a2.985 2.985 0 0 0-1.282-.213c-.26.015-.516.217-.607.479a2.166 2.166 0 0 0-.119.806c.013.298.145.528.41.659.444.219.91.38 1.406.425.054.004.11-.004.165-.002.177.003.438-.217.477-.392.1-.435.08-.87-.022-1.3-.025-.102-.101-.191-.154-.286m.523 3.907a1.216 1.216 0 0 0-.627-.498 5.236 5.236 0 0 0-1.589-.29c-.2-.003-.415.208-.42.417-.008.33.052.646.198.942.102.205.278.347.503.367.591.052 1.185.084 1.778.118.208.013.385-.224.363-.453a1.425 1.425 0 0 0-.206-.603m-1.474-7.244c-.083.068-.182.124-.244.206a1.824 1.824 0 0 0-.367.893c-.023.185.14.454.317.522.41.16.834.23 1.273.213a.587.587 0 0 0 .426-.205c.184-.211.282-.463.292-.741a.47.47 0 0 0-.199-.419c-.363-.242-.75-.439-1.185-.515-.097-.015-.208.03-.313.046M8.63 80.722c-.036-.038-.139-.165-.262-.274a.802.802 0 0 0-.275-.17c-.57-.19-1.148-.347-1.755-.225-.117.024-.168.149-.124.267.037.1.093.206.172.271.588.508 1.268.84 2.031.995.104.02.216.004.323.004.15.001.284-.23.211-.364-.027-.048-.039-.103-.069-.149-.057-.09-.124-.177-.252-.355M7.498 68.509c-.133.14-.246.255-.354.373-.086.094-.055.346.049.451.244.244.542.345.88.324a.62.62 0 0 0 .429-.204c.141-.162.27-.335.382-.518a.447.447 0 0 0 .014-.464c-.114-.205-.306-.299-.533-.304a.795.795 0 0 0-.315.06c-.197.086-.384.195-.552.282m3.687-1.512c.088-.075.153-.161.156-.269 0-.042-.049-.116-.085-.12-.442-.066-.816.119-1.173.346-.093.058-.117.167-.103.279.019.136.24.255.378.205.049-.017.105-.019.149-.043.228-.13.451-.265.678-.398"/><path fill="none" d="M4 37h205.137v122.756H4z"/><path fill="#FFF" d="M174.456 82.963c1.044-.038 2.074-.093 3.106-.111 1.769-.031 3.54-.006 5.308-.07 1.704-.062 3.407-.205 5.109-.317.271-.017.482.053.593.322.126.306 0 .51-.324.45-1.178-.209-2.348-.01-3.521.02-1.562.038-3.124.045-4.687.071-1.103.019-2.206.024-3.308.073-.864.04-1.725.166-2.589.2-.633.024-1.269-.043-1.903-.061-.37-.011-.759-.076-1.103.015-.622.165-1.236.073-1.845.033-1.93-.128-3.858-.041-5.786-.047-1.814-.005-3.622.07-5.417.357-.144.023-.302-.038-.545-.145-.33.645-.7 1.273-.98 1.939-.68 1.613-1.652 3.026-2.816 4.316-.688.76-1.412 1.491-2.097 2.256-.404.455-.746.965-1.147 1.425-.527.603-1.282.88-1.938 1.302a85.186 85.186 0 0 0-3.323 2.231c-.206.146-.296.484-.381.753-.069.217-.046.463-.072.694-.045.402-.127.776-.024 1.212.109.465-.07.991-.057 1.488.038 1.383.107 2.766.176 4.148.025.527.066 1.055.12 1.579.125 1.216.263 2.431.392 3.646.215 2.026.442 4.053.89 6.043.279 1.251.632 2.485.936 3.729.233.949.461 1.899.65 2.857.144.715.246 1.441.322 2.167.044.413-.012.836-.001 1.253.014.486.048.971.082 1.455.021.326.08.65.086.974s-.021.643.276.867c.02.015.042.039.042.058-.051.603.479.67.83.881.713.428 1.472.781 2.152 1.251.478.33.852.811 1.286 1.209a.555.555 0 0 0 .353.11c.958-.012 1.915-.043 2.872-.057.923-.014 1.846.004 2.768-.023.564-.016 1.126-.117 1.689-.13.613-.012 1.229.038 1.842.056.146.004.294-.041.438-.024.129.015.324.048.361.131a.628.628 0 0 1 .002.478c-.043.092-.243.158-.369.154-.854-.035-1.707-.129-2.561-.133-.921-.004-1.84.072-2.76.104-.907.029-1.815.048-2.723.066-.785.014-1.571.018-2.356.031-.174.002-.369-.026-.512.044-.846.421-1.762.112-2.646.266-1.043.181-2.146.005-3.224.015-.781.01-1.559.094-2.34.11-1.097.022-2.195-.009-3.294.022-1.607.044-3.214.158-4.82.173-.991.008-1.979-.125-2.971-.177-.972-.05-1.945-.07-2.917-.119-.315-.016-.629-.127-.94-.109-.781.044-1.559.142-2.339.204-.278.022-.591.081-.839-.009-.493-.183-.968-.109-1.453-.044-1.172.158-2.342.128-3.518.055-.634-.04-1.272.022-1.909.04-.159.006-.318.029-.478.036-.497.021-.497.021-.934-.462 2.334-.032 4.593-.065 6.916-.099-.621-.991-.375-1.79.639-2.187.714-.279 1.47-.449 2.202-.682a30.894 30.894 0 0 0 1.67-.564c.35-.131.384-.469.435-.789.136-.854.296-1.703.425-2.558.224-1.503.449-3.007.641-4.515.254-1.984.479-3.972.705-5.959.118-1.037.188-2.08.323-3.115.131-1.007.283-2.014.487-3.007.466-2.269.952-4.532 1.463-6.79.267-1.181.625-2.342.904-3.521.219-.926.378-1.867.577-2.865-.218.137-.4.244-.574.362-.616.418-1.216.858-1.842 1.257-.929.59-1.881 1.142-2.812 1.73-1.413.896-2.949 1.542-4.479 2.201-1.093.47-2.214.878-3.295 1.373-1.184.545-2.223 1.312-3.181 2.198-.315.292-.731.481-1.115.688-.448.24-.845.094-1.222-.201a1.9 1.9 0 0 1-.762-1.482c-.029-.646-.19-1.327.258-1.887.515-.645 1.072-1.23 1.942-1.441.512-.125.986-.408 1.47-.635.258-.12.214-.267.032-.451-.206-.211-.473-.431-.541-.692-.157-.597.461-1.179 1.081-1.058.334.064.662.176.981.293.509.184.972.101 1.437-.15 1.173-.636 2.372-1.226 3.525-1.893a49.051 49.051 0 0 0 3.085-1.957c1.221-.834 2.418-1.7 3.602-2.586.544-.407.98-.976 1.553-1.326.788-.481 1.188-1.219 1.609-1.967.146-.259.221-.584.426-.776.177-.167.492-.189.746-.275.044.146.172.343.12.433-.457.777-.877 1.591-1.445 2.279-.481.584-1.124 1.047-1.732 1.516-1.297.998-2.599 1.994-3.936 2.938-.878.617-1.817 1.15-2.74 1.703-.9.539-1.829 1.033-2.722 1.586-.826.514-1.733.848-2.619 1.224-.226.096-.575-.081-.864-.149-.305-.07-.602-.194-.91-.23-.129-.016-.331.104-.399.221-.054.094-.002.311.079.412.126.157.327.256.48.393.193.173.226.307.079.598-.252.5-.679.57-1.115.722-.508.177-.997.403-1.484.628-.853.391-1.343 1.283-1.227 2.234.045.357.079.729.2 1.064.152.418.41.503.785.266.482-.309.944-.654 1.389-1.016.425-.346.804-.748 1.23-1.09.162-.131.407-.15.606-.242 1.087-.498 2.167-1.012 3.258-1.503 1.49-.672 3.014-1.276 4.472-2.012 1.035-.522 1.979-1.218 2.968-1.829.508-.314 1.037-.594 1.535-.922a41.07 41.07 0 0 0 2.008-1.408c.196-.148.385-.377.456-.607.082-.264.228-.374.437-.293.22.085.439.242.581.426.118.15.003.317-.158.461-.133.119-.183.334-.258.511-.646 1.54-.795 3.202-1.172 4.808-.139.594-.33 1.174-.469 1.767-.443 1.884-.904 3.765-1.295 5.659-.34 1.652-.621 3.316-.878 4.982-.152.994-.198 2.004-.308 3.004a214.645 214.645 0 0 1-.406 3.473c-.256 2.033-.51 4.066-.787 6.097-.154 1.114-.354 2.224-.532 3.335-.04.24.091.54-.208.694-.26.133-.525.263-.802.353-1.149.376-2.303.736-3.456 1.104-.023.007-.047.011-.07.02-.412.164-.849.691-.671.928.195.258.604.475.93.491.591.03 1.188-.096 1.782-.169.291-.035.579-.105.87-.146.106-.015.243-.024.324.027.351.223.728.201 1.121.214 1.005.033 2.006.158 3.009.186 1.29.033 2.581.014 3.872-.001.327-.003.654-.076.963-.116 0-.809-.019-1.584.005-2.357.037-1.187.105-2.373.161-3.561.03-.651.054-1.303.099-1.952.091-1.304.22-2.607.286-3.912.083-1.615.113-3.231.173-4.847.032-.857.085-1.715.117-2.571.015-.409.002-.818.002-1.304l.758.051c-.035.705-.073 1.352-.097 1.996-.029.758-.026 1.518-.069 2.273-.121 2.159-.256 4.316-.385 6.475-.108 1.859-.233 3.721-.313 5.582-.037.883.016 1.769.024 2.654.002.378-.003.758-.013 1.135-.008.257.104.336.356.328 2.243-.061 4.487-.103 6.731-.171.635-.019 1.27-.122 1.904-.159.363-.021.729.022 1.095.023 1.078.003 2.157.006 3.236-.008.174-.002.347-.094.564-.247-.59-.407-1.16-.842-1.772-1.21-.594-.359-1.234-.643-1.844-.975-.278-.15-.537-.34-.802-.516-.253-.166-.245-.426-.119-.689.093-.194.057-.462.042-.693-.06-.836-.183-1.67-.194-2.504-.026-1.656-.216-3.284-.624-4.891-.513-2.023-1.07-4.043-1.484-6.088-.328-1.619-.489-3.274-.688-4.918-.172-1.41-.276-2.828-.44-4.24-.24-2.076-.265-4.16-.321-6.246-.018-.678.1-1.326.178-1.986.04-.351.017-.709.036-1.062.004-.094.025-.229.089-.271a198.554 198.554 0 0 1 3.274-2.193 29.13 29.13 0 0 1 1.631-.975c.534-.303.908-.752 1.289-1.221.669-.824 1.39-1.609 2.112-2.389.933-1.006 1.9-1.988 2.552-3.211.464-.869.854-1.781 1.279-2.672.337-.701.683-1.396 1.012-2.1.06-.128.074-.281.088-.426.024-.287.104-.509.419-.612.12-.04.213-.193.3-.309.696-.916 1.369-1.849 2.085-2.75.463-.582.85-1.193 1.076-1.906.357-1.122-.188-1.619-1.026-1.914-.958-.335-1.425.228-1.959.952-.367.495-.604 1.084-.919 1.62-.189.322-.39.652-.646.917-.125.128-.394.142-.601.158-.184.014-.371-.042-.559-.068l-.069.136c.233.25.443.531.71.743.276.22.363.513.2.846-.221.448-.457.896-.603 1.37-.101.325-.31.484-.561.638-.657.403-1.234.872-1.548 1.615-.068.16-.276.264-.424.391-.921.786-1.84 1.573-2.765 2.356-1.023.866-2.037 1.744-3.085 2.578-.359.286-.806.47-1.226.673-.409.197-1.052-.004-1.3-.396-.141-.223-.295-.352-.585-.338-1.096.048-2.192.062-3.289.111-1.131.051-2.262.118-3.393.196-.534.037-1.019-.094-1.479-.347-.409-.223-.552-.791-.356-1.092-.142-.302-.276-.549-.371-.812-.023-.066.095-.261.126-.256.294.044.359-.161.507-.343.106-.134.394-.121.551-.16-.369-.365-.821-.743-1.188-1.191-.991-1.213-1.723-2.564-1.876-4.155-.113-1.156-.26-2.322-.218-3.478.044-1.268.372-2.494.825-3.707.438-1.174 1.254-1.995 2.062-2.851.251-.267.607-.463.951-.61.486-.209.612-.583.631-1.049.022-.595.057-1.191.077-1.786.056-1.523.112-3.044.157-4.566.027-.94.039-1.88.053-2.821.033-2.156.062-4.311.096-6.467.019-1.24.121-2.484.051-3.72-.129-2.253.065-4.495.106-6.742.03-1.602-.006-3.204-.024-4.804a94.219 94.219 0 0 0-.068-2.765c-.059-1.447-.139-2.894-.202-4.34-.037-.858-.047-1.716-.088-2.574-.04-.837-.028-1.688-.193-2.504-.085-.415-.108-.842-.216-1.254a.798.798 0 0 1-.006-.323c.118-.575.119-.535.693-.489 1.032.08 2.07.131 3.106.152 1.902.039 3.808.039 5.712.074 1.469.028 2.938.075 4.408.133 1.159.045 2.319.118 3.48.183 1.1.06 2.2.177 3.301.18 2.652.009 5.308-.008 7.96-.062 2.76-.054 5.52-.16 8.278-.251.584-.02 1.167-.119 1.748-.098.218.007.447.231.628.403.045.043-.088.26-.118.402-.069.321-.146.643-.182.967-.138 1.28-.31 2.557-.38 3.84a197.217 197.217 0 0 0-.221 6.295c-.052 2.37-.035 4.742-.1 7.111a199.761 199.761 0 0 1-.293 6.92c-.118 1.919-.334 3.833-.493 5.75-.186 2.239-.403 4.479-.521 6.722-.115 2.184-.125 4.373-.173 6.56-.052 2.42-.102 4.842-.141 7.263a168.544 168.544 0 0 0-.03 4.497c.007.632.12 1.262.18 1.893.014.083-.011.169-.026.284m-5.768-26.726l.161-.089c.769-.434 1.374-.293 1.804.409.174.283.133.527-.134.694-.219.138-.475.217-.736.333.03.054.062.132.114.192.414.501.854.983 1.241 1.503.197.265.41.532.36.937-.062.479-.365.651-.726.871-.565.341-1.044.5-1.609-.02-.5-.459-1.082-.831-1.619-1.236.275-.447.732-.535.915-.212.266.466.725.676 1.118.98.33.255.594.167.876-.028.318-.22.384-.429.16-.748-.321-.458-.698-.879-1.033-1.329a6.808 6.808 0 0 1-.544-.85c-.113-.21-.05-.408.187-.509.229-.099.464-.183.707-.277-.133-.289-.32-.383-.607-.237-.202.102-.398.24-.614.28-.189.036-.463.03-.588-.083-.436-.392-.815-.846-1.234-1.26-.702-.694-1.414-1.38-2.131-2.06-.972-.917-1.957-1.821-2.926-2.74-.81-.767-1.604-1.551-2.411-2.32a.44.44 0 0 0-.306-.115.638.638 0 0 1-.619-.292c-.212-.294-.499-.452-.868-.443l-3.646.081c-.203.004-.378-.048-.402-.281-.015-.142.015-.29.029-.522-.096.116-.225.202-.225.286.001.35.048.699.064 1.049.004.111-.005.288-.068.322-.12.067-.318.118-.425.061-.186-.099-.325-.283-.481-.432-.543-.511-1.084-1.022-1.626-1.53-.426-.397-.862-.784-1.285-1.184-.513-.487-1.032-.965-1.515-1.48-.45-.479-.85-1.003-1.274-1.504-.51-.598-1.028-1.188-1.53-1.792-.125-.151-.138-.31.044-.481.207-.195.363-.445.512-.635-.492-.177-1.045-.231-1.374-.531-.384-.354-.82-.509-1.264-.687-.467-.187-.723.01-.77.514-.048.526-.012 1.039.186 1.53.067.166.154.338.277.464.177.184.421.304.588.494 1.106 1.254 2.185 2.533 3.307 3.774.807.893 1.508 1.844 2.078 2.912.315.593.797 1.117 1.274 1.601.437.444.99.771 1.453 1.194.243.221.45.518.576.82.108.26.062.581.115.868.107.584.293 1.141.264 1.767-.016.335-.02.672-.079 1.006a1.61 1.61 0 0 0-.023.219c-.021.905-.053 1.812-.057 2.717-.01 2.375-.051 4.75.008 7.124.043 1.701-.022 3.393-.306 5.062-.295 1.736-.705 3.454-1.092 5.174-.158.709-.38 1.405-.584 2.104-.039.136-.132.256-.193.387-.15.316-.384.622-.421.95-.033.33-.201.479-.433.482-.431.003-.437.318-.52.581-.038.123-.02.262-.026.375.142.03.315.013.402.094.327.303.684.307 1.076.188.244-.074.493-.184.743-.188.717-.015 1.436.022 2.154.023.249.001.513.002.744-.074.34-.112 1.086.118 1.305.5.181-.41.326-.8.519-1.163.169-.318.143-.501-.148-.765-.393-.358-.686-.827-1.099-1.345.552-.12.972-.244 1.4-.297.426-.055.902-.448.879-.783-.031-.472-.043-.945-.066-1.417-.04-.855-.089-1.709-.124-2.563-.041-1.014-.085-2.028-.102-3.042-.01-.576.052-1.151.051-1.727-.003-1.092-.027-2.183-.047-3.275-.003-.197.028-.358.27-.34.237.019.397.137.387.4-.007.133-.058.265-.057.397.016 1.914.014 3.829.066 5.742.041 1.443.154 2.884.237 4.327.004.086.035.172.061.296.196-.238.377-.423.516-.634.617-.931 1.269-1.166 2.346-.904.895.217 1.557.694 1.821 1.583.188.623.011 1.263-.313 1.791-.502.819-1.097 1.582-1.662 2.361-.35.48-.721.944-1.101 1.44.235 0 .412.006.59-.001.402-.015.804-.022 1.202-.059.411-.038.833-.202 1.224-.142 1.424.216 2.848.403 4.29.334.53-.025 1.057-.153 1.655-.246-.384-.789-.797-1.434-1.553-1.763-.457-.199-.939-.334-1.403-.518-.438-.172-.858-.37-1.025-.876-.133-.4-.288-.794-.458-1.179-.209-.476-.486-.925-.657-1.413-.283-.808-.556-1.617-.621-2.49-.057-.756-.252-1.502-.347-2.256-.11-.875-.153-1.756-.271-2.628-.201-1.47-.449-2.934-.659-4.402a34.02 34.02 0 0 1-.281-2.446c-.083-1.213-.062-2.435-.19-3.642-.117-1.127-.354-2.247-.575-3.36-.101-.5-.296-.98-.439-1.472-.047-.161-.073-.329-.127-.575l-.108-.29c.133-.038.271-.119.397-.102s.262.108.356.203c.537.535 1.07 1.077 1.595 1.625.592.619 1.187 1.233 1.755 1.872.77.866 1.494 1.772 2.282 2.621.47.507 1.031.929 1.536 1.406.088.083.174.311.135.354-.092.099-.26.159-.402.17a.51.51 0 0 1-.335-.13c-.355-.317-.721-.627-1.033-.981-.585-.662-1.127-1.362-1.704-2.03a122.87 122.87 0 0 0-2.121-2.38c-.396-.432-.822-.836-1.232-1.253.022.399.119.754.179 1.114.22 1.328.575 2.654.61 3.988.067 2.6.352 5.165.773 7.724.189 1.149.328 2.307.491 3.462.183 1.289.333 2.583.564 3.864.121.665.35 1.316.59 1.951.256.672.593 1.313.875 1.977.199.469.403.909.954 1.067.363.103.718.241 1.073.368 1.126.402 1.832 1.197 2.242 2.355.368-.016.809-.034 1.248-.055.609-.03 1.219-.098 1.825-.078.28.01.635-.023.831.285.045.07.085.195.053.25-.036.063-.159.108-.241.103-.276-.017-.551-.09-.824-.086a97.02 97.02 0 0 0-3.054.093c-.135.006-.28.131-.39.233-.238.225-.474.397-.839.353a21.329 21.329 0 0 0-1.676-.129c-.329-.015-.661.044-.989.023-.857-.052-1.711-.157-2.567-.189-.594-.023-1.192.083-1.784.053-.567-.027-1.205.248-1.644-.299-.284.431-.57.848-.835 1.276-.064.104-.104.266-.068.371.021.062.214.104.324.092.379-.035.753-.132 1.131-.147 1.496-.063 2.993-.117 4.49-.147 1.302-.025 2.604-.018 3.907-.016 1.261.002 2.521.022 3.78.021.372 0 .773-.137 1.11-.037s.46.022.56-.203c-.085-.162-.203-.294-.22-.438a10.308 10.308 0 0 1-.093-1.312c.005-1.324.023-2.647.057-3.971.034-1.373.094-2.742.141-4.114.045-1.338.096-2.677.132-4.015.04-1.435.043-2.871.103-4.305.103-2.449.243-4.896.355-7.343.067-1.473.096-2.947.172-4.419.075-1.446.195-2.891.284-4.336.062-1.005.101-2.011.156-3.016.085-1.518.207-3.036.255-4.555.036-1.199-.015-2.401-.034-3.601-.014-.878-.055-1.756-.061-2.634-.015-1.833-.032-3.669-.011-5.503.013-1.11.095-2.221.149-3.435l-11.232.474c.197.158.271.307.064.521-.105.108-.161.273-.212.423-.063.186-.082.446-.361.329-.229-.095-.393-.278-.24-.582.111-.222.179-.465.275-.725-.189-.013-.337-.028-.481-.03-1.3-.018-2.6-.023-3.9-.051-1.716-.037-3.43-.104-5.145-.135-1.327-.023-2.652.007-3.979-.018-1.431-.027-2.858-.087-4.288-.137-.471-.017-.941-.04-1.41-.069-.777-.048-1.553-.117-2.33-.153-.299-.015-.61.088-.898.038-.35-.062-.349.083-.351.346-.008.889-.032 1.778-.061 2.667-.021.744-.068 1.488-.084 2.231-.02.832-.022 1.665-.021 2.497.002.806.005 1.613.037 2.418.02.472.132.941.134 1.412.006 1.061-.046 2.123-.047 3.183-.001 1.566.062 3.133.023 4.698-.055 2.298-.182 4.595-.258 6.893-.056 1.588-.068 3.177-.121 4.765-.042 1.272-.127 2.544-.173 3.816-.059 1.665-.106 3.33-.146 4.995-.017.765-.006 1.53-.007 2.295l-.001.83c.676-.12 1.251-.218 1.825-.326.155-.029.312-.144.454-.124.484.067.986.114 1.437.288.613.235 1.223.521 1.764.889 1.219.83 2.291 1.818 3.155 3.035 1.085 1.531 1.606 3.2 1.413 5.077-.021.209-.054.417-.081.625l.09.018c.221-.726.442-1.45.658-2.178.015-.051-.031-.117-.029-.175.005-.172-.018-.357.039-.513.127-.351.347-.673.435-1.031.147-.588.164-1.211.337-1.79.57-1.923.725-3.903.784-5.887.043-1.444-.056-2.893-.071-4.34-.009-.649.039-1.3.046-1.951.013-1.335.017-2.67.023-4.004.002-.558.017-1.115.004-1.673a25.389 25.389 0 0 0-.089-1.534c-.024-.3-.041-.616-.146-.891a3.836 3.836 0 0 0-.556-1.012c-.164-.206-.468-.298-.685-.468-.808-.627-1.497-1.353-2.004-2.258-.393-.702-.803-1.409-1.305-2.033-1.073-1.333-2.205-2.62-3.325-3.914-.213-.247-.447-.525-.731-.648-.436-.188-.709-.337-.848-.895-.174-.701-.43-1.354-.326-2.103.042-.3.154-.5.36-.684.107-.096.225-.184.317-.292.323-.381.797-.389 1.152-.02.054.057.131.098.201.136.287.151.601.266.855.459.345.261.65.485 1.138.435.274-.029.601.151.842.323.053.037-.141.436-.233.664-.036.089-.104.166-.164.242-.17.22-.2.424 0 .657.435.505.853 1.025 1.277 1.541.479.584.915 1.212 1.447 1.741 1.023 1.018 2.101 1.98 3.156 2.964.17.158.345.309.516.464-.229-.699-.223-.729.168-.918.026-.212.049-.372.066-.531.009-.06.037-.145.011-.178-.214-.249-.353-.519-.491-.823-.22-.478-.717-.831-1.098-1.235-.891-.945-1.456-2.064-1.479-3.359-.013-.805.153-1.625.33-2.417.365-1.656 1.599-2.68 2.844-3.661.926-.729 2.014-1.15 3.152-1.422.363-.086.757-.175 1.115-.122 1.258.188 2.403.646 3.333 1.555.816.798 1.663 1.588 2.024 2.701.334 1.025.584 2.079.817 3.132.236 1.066-.009 2.073-.508 3.033-.511.979-1.317 1.619-2.284 2.095-.394.195-.777.408-1.231.647-.046.056-.15.191-.265.317s-.26.227-.35.367c-.042.065-.011.267.033.284.383.145.308.385.107.705.495-.141.77.091 1.011.416.085.116.221.194.331.293.626.564 1.266 1.115 1.872 1.699.858.825 1.671 1.697 2.539 2.508 1.345 1.251 2.715 2.467 4.122 3.743m-29.161 13.185l-.01-.091c-.477.293-.933.631-1.436.869-.969.46-1.716 1.172-2.362 1.994-.891 1.137-1.307 2.474-1.525 3.888-.169 1.097-.254 2.191-.057 3.291.175.982.254 1.999.57 2.935.45 1.332 1.328 2.417 2.479 3.244.292.212.652.332.99.476.175.075.367.113.551.173.078.024.148.081.227.086.314.021.633.034.949.039 1.148.016 2.217-.393 3.31-.654.475-.113.933-.3 1.408-.408 1.069-.246 1.916-.783 2.386-1.803.273-.594.56-1.191.729-1.818.383-1.399.766-2.805 1.021-4.231.29-1.623-.138-3.136-1.041-4.507a10.055 10.055 0 0 0-3.838-3.45c-1.086-.562-2.185-.815-3.36-.2-.281.147-.659.116-.991.167m23.085-28.423c-.025-.274-.026-.496-.066-.71a36.196 36.196 0 0 0-.297-1.429c-.259-1.147-.539-2.287-1.363-3.192-.195-.213-.382-.437-.594-.631-.575-.522-1.094-1.082-1.863-1.392-1.011-.407-1.951-.328-2.931.01-1.473.506-2.678 1.406-3.712 2.54a4.53 4.53 0 0 0-1.154 2.407c-.088.566-.211 1.138-.2 1.705.02 1.059.461 1.987 1.104 2.811.237.307.518.584.795.857.288.283.593.55.902.812.036.031.186.007.191-.014.068-.28.257-.11.37-.086.314.064.619.167.93.249 1.147.299 2.287.167 3.426-.059.257-.05.526-.181.713.147.024.042.14.042.213.045.537.03.942-.268 1.382-.519 1.403-.801 2.028-2.049 2.154-3.551m-10.007 42.544c-.166-.053-.307-.114-.453-.141-.465-.082-.94-.236-1.403-.207-.854.053-1.7.223-2.552.33-.372.048-.596.248-.778.562a3.615 3.615 0 0 1-.548.726c-.607.632-1.394.918-2.228 1.108-.247.057-.489.137-.734.206l.018.091c.186-.025.371-.07.558-.075.151-.005.335-.009.452.067.543.353.7.926.417 1.51-.091.189-.078.297.107.381.186.086.214.202.119.387-.038.076-.04.241.008.279.079.059.231.092.319.055.36-.15.746-.281 1.054-.512a47.957 47.957 0 0 0 2.402-1.932c.639-.547 1.226-1.154 1.854-1.713.448-.394.929-.751 1.388-1.122m.206-.24c.711-.74 1.421-1.482 2.128-2.223-.023 0-.088-.004-.15.001-.409.03-.819.107-1.225.083-1.153-.067-2.297-.234-3.451.065-.353.09-.761-.039-1.143-.078-.12-.012-.234-.061-.396-.106l-.511 1.812c.354-.059.665-.114.977-.16.359-.053.721-.137 1.08-.137.718.002 1.438.055 2.156.08.452.015.607.21.535.663m1.487-36.902c-.074.195-.111.3-.152.405-.026.07-.057.139-.087.209.079.029.155.083.232.084.726.006 1.45.01 2.175.002.413-.005.826-.035 1.204-.053.056-.258.099-.461.138-.648h-3.51zm-10.853 41.492v-.082c-.811-.063-1.621-.157-2.434-.18-.844-.022-1.688.025-2.532.038-.348.007-.695.001-1.036.001l-.043.377h-.693l-.007.146c.307.025.617.088.922.067.57-.04 1.139-.159 1.71-.19 1.107-.061 2.219-.084 3.328-.127.264-.009.524-.033.785-.05m10.177-42.529c.264.363.457.582.862.556.794-.049 1.591-.027 2.387-.047.427-.01.854-.035 1.28-.078.084-.009.156-.133.233-.205-.085-.062-.166-.135-.259-.18-.048-.022-.123-.004-.181.009-1.355.313-2.704.149-4.054-.053-.066-.01-.135-.002-.268-.002m-9.506 41.826c-.459-.469-2.774-.585-3.499-.19 1.174.064 2.318.127 3.499.19m-7.285-.242l2.966.179c.005-.029.008-.059.012-.089-.044-.015-.087-.036-.131-.042-.742-.1-1.508-.033-2.214-.391-.219-.109-.474.022-.633.343m2.429-44.682h.062v-1.504h-.062v1.504z"/><path fill="#FFF" d="M155.363 127.295c-.104.427-.198.856-.314 1.279-.038.139-.13.263-.197.394-.172-.089-.428-.135-.497-.274-.186-.367-.289-.774-.426-1.165l-.124.006c0 .371-.002.742.001 1.113.002.403.022.809.006 1.212-.005.093-.113.239-.195.257-.157.032-.363.019-.362-.225.001-.625 0-1.25.03-1.874.036-.744.105-1.488.153-2.232.013-.195-.018-.389.274-.396.262-.006.384.121.437.362.13.596.267 1.192.4 1.788l.099.002c.101-.449.206-.897.301-1.347.056-.266.066-.545.158-.796.044-.12.243-.277.345-.26.134.023.322.189.344.317.119.69.175 1.391.289 2.082.109.664.25 1.323.4 1.979.053.232.089.437-.177.527-.239.082-.511-.145-.55-.419-.107-.771-.22-1.545-.33-2.317l-.065-.013zM157.539 129.367c.416-.035.803-.094 1.188-.086.166.003.362.11.483.231.143.145-.005.357-.242.378-.519.044-1.036.091-1.555.129-.436.031-.594-.172-.569-.594.017-.288-.056-.583-.096-.873-.142-1.035-.287-2.068-.427-3.103-.023-.17.441-.627.609-.628.32-.002.639-.026.958-.021.157.003.333.018.465.092.086.048.178.249.142.313-.054.099-.209.176-.331.193-.27.04-.546.022-.816.055-.255.032-.362.177-.297.451.057.241.068.492.107.792.26-.045.512-.101.767-.126.132-.013.294-.007.398.061.097.062.134.218.197.333-.124.066-.239.168-.371.192-.289.056-.586.07-.932.107.109.705.213 1.386.322 2.104M159.747 124.094c-.038.178-.054.367-.127.53-.045.102-.176.226-.271.229-.151.006-.332-.037-.314-.285.016-.222-.021-.448-.013-.671.01-.232.322-.347.543-.197.085.059.145.156.229.251.065-.254.229-.311.459-.211.262.114.322.346.272.581-.028.129-.173.319-.279.329-.367.033-.396-.285-.499-.556M152.895 126.244c-.108.189-.359.17-.451.03-.166-.25-.242-.563-.332-.856-.012-.037.14-.177.168-.164.129.057.287.127.345.239.117.224.176.479.27.751M151.785 126.546c-.236-.07-.443-.08-.564-.187-.08-.07-.053-.283-.032-.425.005-.029.207-.05.312-.034.146.022.295.065.422.138.074.043.166.197.144.233-.075.115-.198.198-.282.275M155.988 30.778l-.245.302c.187.295.373.592.56.89l.099-.02c0-.483-.006-.967.004-1.45.002-.118.022-.302.093-.337.101-.049.279-.029.381.033.146.09.258.239.372.374.257.303.506.613.758.92l.111-.037a500.39 500.39 0 0 0-.113-1.271c.422-.077.543.025.581.426.055.597.144 1.191.204 1.788a.374.374 0 0 1-.107.271c-.046.044-.189.051-.241.011a2.079 2.079 0 0 1-.388-.379c-.332-.429-.652-.867-.976-1.302l-.148.064c.026.308.061.615.075.924.009.205-.012.411-.019.617l-.615-.198c-.149.096-.389.021-.558-.272-.148-.256-.285-.518-.423-.771-.388-.001-.556.196-.577.556a4.898 4.898 0 0 1-.078.674c-.068.336-.246.393-.492.155-.357-.346-.767-.585-1.257-.678-.066-.013-.138-.002-.261-.002.022.225.049.43.063.636.011.174.05.44-.194.402-.16-.025-.375-.258-.408-.428-.063-.337-.019-.694-.019-1.028-.157.334-.303.69-.488 1.023-.213.381-.471.457-.881.318a.317.317 0 0 0-.159.001c-.408.087-.608-.091-.64-.512-.043-.576-.127-1.15-.176-1.727-.008-.097.056-.226.127-.301.297-.311.662-.531 1.097-.515.253.01.571.071.726.236.096.102-.057.442-.107.673-.014.065-.064.124-.094.178l.648.441c0-.126-.01-.252.002-.377.016-.188-.005-.506.079-.539.366-.144.685-.512 1.155-.31.294.127.426.323.298.615-.125.285-.305.546-.466.829l.934.403c.128-.595.245-1.164.378-1.73.028-.119.105-.315.17-.32.132-.009.276.081.406.148.044.023.059.1.092.148.122.178.191.429.503.332.045-.014.119.062.214.116m-4.455.86l-.091-.059c-.317.202-.668.372-.788.779.182-.123.447.281.574-.1.073-.216.201-.414.305-.62m-.316-1.157c-.576-.047-.911.501-.643.977.217-.331.418-.637.643-.977M144.424 30.934c.156-.298.261-.568.43-.788.068-.09.281-.112.421-.093.092.013.217.14.241.237.175.72.335 1.446.482 2.173.03.15-.01.314-.018.471-.176-.091-.441-.141-.506-.284-.145-.316-.192-.678-.274-1.023-.038-.16-.067-.322-.183-.498-.028.124-.051.249-.084.371-.04.15-.088.298-.133.447-.184-.105-.387-.186-.543-.323-.092-.079-.105-.245-.187-.459-.2.523-.139.961-.078 1.402.017.118-.001.242-.004.362-.124-.012-.274.015-.366-.046-.101-.066-.207-.214-.205-.325.004-.633.027-1.266.073-1.898.015-.186-.026-.459.29-.489.29-.027.443.107.489.395.02.112.089.216.155.368M158.972 30.05c.149-.007.299-.046.431-.014.31.076.61.188.917.282 1.036.318.928 1.467.453 1.962-.124.129-.237.274-.382.375-.162.114-.382.294-.527.257-.304-.078-.63-.208-.651-.641-.026-.556-.096-1.111-.151-1.666-.018-.162-.052-.323-.09-.555m.726.531l-.132.074c.085.441.168.882.258 1.322.054.263.212.23.353.088.292-.291.464-.657.336-1.058-.12-.379-.523-.322-.815-.426M146.154 30.072c.148.143.301.278.438.427.072.078.115.182.179.268.129.176.282.189.404.01.129-.19.237-.397.333-.607.075-.165.146-.255.345-.167.193.086.379.193.258.414-.135.245-.361.438-.514.676-.098.153-.197.351-.184.519.027.351.143.693.193 1.042.019.119-.047.25-.076.375-.127-.036-.334-.037-.369-.115-.115-.25-.215-.525-.231-.796-.026-.415-.194-.731-.476-1.022-.203-.211-.374-.455-.549-.692-.036-.048-.059-.15-.031-.19.037-.053.127-.069.28-.142M162.449 30.74c-.464-.169-.512-.294-.292-.685.041-.071.066-.156.118-.216.078-.09.186-.239.261-.228a.614.614 0 0 1 .369.225c.044.058-.025.227-.079.326-.108.194-.242.375-.377.578M141.861 30.73c.242.224.494.441.719.682.033.036-.031.199-.089.273-.028.037-.175.035-.218-.004a6.356 6.356 0 0 1-.621-.618c-.039-.045.029-.182.047-.276l.162-.057M142.514 30.269c.264.012.617.384.584.581-.012.061-.207.158-.229.139a3.026 3.026 0 0 1-.443-.489c-.029-.042.061-.167.088-.231M157.171 38.197c.546-.201.74-.134 1.072.319.236.32.486.631.75.929.388.438.369 1.006.517 1.52.068.237.107.483.17.722.064.242.019.398-.266.412-.361.018-.597.218-.812.499-.085.113-.354.207-.46.154-.141-.07-.222-.286-.294-.455-.046-.108-.016-.247-.048-.365-.108-.403-.198-.814-.353-1.199-.177-.443-.475-.779-.984-.887-.259-.055-.312-.315-.124-.513.181-.189.397-.342.568-.537.132-.151.219-.343.325-.517a2.17 2.17 0 0 0-.061-.082m1.285 3.663c.488-.221.483-.22.394-.688-.028-.151-.024-.308-.039-.461-.068-.678-.396-1.226-.864-1.697-.059-.058-.219-.104-.266-.069-.222.169-.421.369-.661.588.903.537 1.212 1.409 1.436 2.327"/><path fill="none" d="M88.048 22.2h121.9v122.606h-121.9z"/></svg>
