<svg xmlns="http://www.w3.org/2000/svg" viewBox="0 0 190 160"><path class="bubble" fill="#FFB547" d="M92.444 5.493c1.775-.446 3.48-.874 5.186-1.299.534-.134 1.069-.264 1.623-.29.72-.033 1.417-.188 2.113-.351a53.21 53.21 0 0 1 1.771-.391 3.427 3.427 0 0 1 1.32-.015c.416.083.731.34.9.783.089.23.151.476.195.72.043.242.058.493.07.74.062 1.239.097 2.475.403 3.697.094.377-.023.741-.213 1.042a3.82 3.82 0 0 1-.526.676 88.489 88.489 0 0 1-1.954 1.878c-.618.575-1.252 1.133-1.875 1.701-.334.304-.65.631-.996.914-.914.743-1.761 1.572-2.619 2.389-.45.428-.909.844-1.376 1.247a22.117 22.117 0 0 0-2.054 2.021c-.34.383-.682.764-1.043 1.124-1.406 1.402-2.611 3.012-3.795 4.645a20.575 20.575 0 0 0-1.871 3.148c-.154.32-.317.631-.472.949-1.376 2.8-1.26 2.541-2.138 5.664a24.554 24.554 0 0 0-.723 3.754c-.084.726-.117 1.466-.158 2.204-.027.491.315.797.776.714.216-.04.433-.075.646-.13.851-.215 1.704-.437 2.554-.658.957-.249 1.91-.507 2.909-.57.328-.02.651-.105.972-.179.482-.113.959-.241 1.438-.364 2.555-.654 5.109-1.315 7.666-1.96.585-.148 1.176-.299 1.775-.359.881-.086 1.739-.263 2.592-.479a96.28 96.28 0 0 1 2.243-.542c.428-.097.859-.202 1.298-.23.886-.057 1.741-.252 2.6-.445.48-.111.964-.239 1.456-.279a19.703 19.703 0 0 0 2.449-.352c.214-.043.434-.077.653-.085a13.424 13.424 0 0 0 2.128-.275 7.17 7.17 0 0 1 .817-.115c1.206-.114 2.412-.225 3.62-.329.604-.053 1.211-.081 1.814-.129 2.42-.186 4.85-.269 7.284-.279 1.494-.007 2.99.036 4.485.069 2.385.052 4.769.204 7.153.486a51.61 51.61 0 0 1 4.973.814c2.362.521 4.716 1.137 7.019 2.012 1.82.689 3.616 1.448 5.331 2.461.301.177.613.33.921.494.308.165.625.308.918.499 1.521.998 3.082 1.919 4.479 3.156.178.157.374.292.562.437a46.336 46.336 0 0 1 4.059 3.515 57.562 57.562 0 0 1 3.003 3.142c1.081 1.231 2.141 2.489 3.01 3.919.897 1.477 1.875 2.889 2.829 4.321 1.604 2.412 3.041 4.932 4.062 7.702.064.174.137.347.218.515.354.731.587 1.507.805 2.29.184.661.366 1.322.542 1.986.678 2.546.676 2.546 1.01 5.127.008.062.02.124.027.186.256 2.045.302 4.086.15 6.113-.097 1.283-.231 2.564-.499 3.814a34.897 34.897 0 0 1-1.462 5.012c-.673 1.793-1.469 3.49-2.505 5.039-.16.239-.293.502-.443.752-.755 1.244-1.571 2.434-2.489 3.531a66.66 66.66 0 0 1-1.111 1.301c-.64.727-1.27 1.467-1.936 2.162a61.783 61.783 0 0 1-5.203 4.826c-1.985 1.645-3.958 3.308-6.044 4.803-.181.131-.354.271-.533.404-.713.539-1.422 1.083-2.14 1.615-1.567 1.166-3.198 2.225-4.801 3.332a120.377 120.377 0 0 1-5.164 3.365c-.99.613-1.98 1.229-2.974 1.836-.567.346-1.14.684-1.716 1.015-.673.384-1.354.753-2.026 1.136-.529.3-1.046.629-1.582.913-2.197 1.162-4.393 2.331-6.605 3.46-1.621.83-3.263 1.617-4.904 2.398-1.345.639-2.692 1.273-4.062 1.849-1.115.468-2.192 1.038-3.345 1.413-.156.05-.306.129-.45.207-.488.266-1.012.434-1.524.632-1.333.515-2.635 1.115-3.998 1.548-.104.034-.202.088-.299.141-.588.314-1.217.512-1.848.709-.523.166-1.064.296-1.558.537-.946.463-1.942.766-2.944 1.061-.58.171-1.167.325-1.709.602-.645.328-1.324.539-2.014.733-1.11.313-2.219.632-3.33.944-.742.207-1.473.437-2.179.758a8.977 8.977 0 0 1-1.397.492c-3.715.998-7.433 1.982-11.15 2.971-.53.142-1.067.264-1.62.299-.664.043-1.307.189-1.946.352-1.386.347-2.772.691-4.158 1.036-.534.134-1.07.258-1.624.285-.665.032-1.308.179-1.95.331-1.175.279-2.342.604-3.567.639a.92.92 0 0 0-.164.021c-1.338.318-2.708.457-4.068.65-1.2.17-2.41.25-3.613.393-.927.111-1.871.121-2.803.204-2.917.261-5.854.22-8.793.041-2.605-.157-5.21-.426-7.805-.96-2.316-.477-4.609-1.058-6.875-1.843-2.646-.915-5.206-2.095-7.697-3.495-.305-.172-.618-.32-.923-.486-.307-.166-.614-.33-.914-.513-2.101-1.282-4.085-2.78-6.002-4.394a22.105 22.105 0 0 0-1.835-1.398c-.438-.297-.884-.587-1.292-.932-1.691-1.422-3.317-2.93-4.721-4.715-.565-.72-1.15-1.422-1.698-2.158-.987-1.325-1.928-2.689-2.717-4.17-.232-.438-.479-.865-.722-1.297a33.826 33.826 0 0 1-1.343-2.654c-.765-1.699-1.551-3.391-2.097-5.188a3.435 3.435 0 0 0-.199-.523c-.458-.96-.732-1.986-1.009-3.009-.261-.964-.513-1.931-.766-2.896a15.11 15.11 0 0 1-.43-2.2 11.238 11.238 0 0 0-.21-1.289c-.318-1.405-.461-2.83-.569-4.251a53.186 53.186 0 0 1 .413-11.796c.106-.726.235-1.444.332-2.17.26-1.941.731-3.817 1.095-5.727.045-.239.113-.47.176-.702.445-1.627.878-3.258 1.34-4.878.38-1.331.812-2.636 1.361-3.886.142-.325.251-.667.387-.996.226-.549.442-1.103.696-1.633.458-.958.936-1.9 1.417-2.841.214-.416.457-.813.694-1.216.325-.551.657-1.098.986-1.646.209-.35.407-.708.627-1.049.943-1.46 1.9-2.909 2.892-4.328 1.157-1.654 2.281-3.339 3.521-4.918.637-.811 1.243-1.653 1.87-2.475.209-.271.44-.524.667-.778.303-.339.612-.671.919-1.007.5-.544.988-1.101 1.502-1.627.633-.648 1.283-1.276 1.933-1.905 2.323-2.257 4.918-4.064 7.74-5.502.789-.402 1.614-.706 2.408-1.089a12.938 12.938 0 0 1 2.322-.846c.689-.185 1.379-.371 2.071-.55.851-.22 1.705-.423 2.595-.453.329-.012.653-.089.98-.137.327-.046.652-.113.981-.133 2.866-.175 5.737-.258 8.628.074.888.103 1.775.183 2.662.28.666.071 1.33.156 1.995.228a.609.609 0 0 0 .691-.593c.026-.554.047-1.108.062-1.662a22.13 22.13 0 0 1 .307-3.294c.338-1.918.738-3.815 1.361-5.631.252-.736.489-1.477.745-2.209.53-1.526 1.17-2.989 1.81-4.45.57-1.298 1.191-2.569 2-3.703.1-.14.181-.298.268-.452 1.128-1.991 2.474-3.774 4.089-5.292.329-.307.645-.634.98-.933 1.051-.937 2.12-1.848 3.301-2.581a61.885 61.885 0 0 1 2.571-1.529c1.256-.698 2.543-1.331 3.887-1.827.31-.113.617-.236.912-.388.592-.306 1.217-.513 1.852-.691 1.695-.475 3.389-.946 5.014-1.399m72.306 40.919c-.217-.187-.416-.416-.697-.472-.035-.007-.101.039-.111.077-.011.042.013.119.045.152.224.225.496.229.766.239l-.003.004zm-98.752.703c-.318-.68-.785-1.233-1.284-1.756-.253-.264-.546-.462-.879-.54-.544-.129-1.089-.26-1.643-.244-.134.002-.285.244-.257.391.086.439.33.795.527 1.174.241.462.599.757 1.07.841.824.149 1.647.243 2.468.131l-.002.003zm28.557-34.704c-1.132.321-2.297.649-3.458.98-.584.165-1.144.387-1.695.644-1.05.487-2.097.978-3.157 1.447a22.061 22.061 0 0 0-3.618 2.021c-.641.443-1.274.896-1.909 1.352-1.317.944-2.507 2.058-3.661 3.23-1.354 1.381-2.537 2.927-3.633 4.564-.161.241-.323.481-.463.736-.701 1.286-1.372 2.592-1.955 3.952a19.883 19.883 0 0 0-.774 2.196c-.873 2.968-1.279 6.044-1.09 9.242.087 1.486.239 2.971.66 4.423.104.358.174.729.238 1.094.056.312.027.619-.054.913-.129.458-.584.83-.982.801-.165-.012-.333-.021-.498-.045-3.492-.464-6.985-.762-10.476-.769-1.327-.004-2.652.067-3.977.118-.329.014-.653.085-.981.129-.327.045-.652.119-.982.128-.89.028-1.745.225-2.597.444-.638.166-1.276.332-1.913.505-.953.26-1.91.518-2.788 1.008-.144.081-.3.136-.455.194-1.87.686-3.593 1.682-5.233 2.846a77.95 77.95 0 0 0-2.552 1.895c-1.949 1.521-3.653 3.341-5.285 5.256a49.828 49.828 0 0 0-3.908 5.256c-.942 1.457-1.884 2.92-2.66 4.514-1.159 2.379-2.344 4.745-3.514 7.117-.338.688-.656 1.387-.896 2.13-.072.228-.16.451-.253.668-.752 1.739-1.371 3.55-1.99 5.358-1.007 2.943-1.835 5.966-2.593 9.012-.597 2.402-1.069 4.852-1.354 7.348-.383 3.354-.494 6.743-.232 10.16.128 1.668.353 3.33.764 4.977.377 1.512.761 3.021 1.214 4.513.364 1.198.787 2.36 1.312 3.491 1.266 2.719 2.759 5.264 4.606 7.561 1.071 1.328 2.118 2.682 3.317 3.875.383.381.769.762 1.159 1.134 1.262 1.202 2.604 2.288 3.934 3.389.275.228.564.433.854.637.385.271.78.526 1.166.798 1.644 1.156 3.379 2.096 5.138 2.983 1.033.524 2.068 1.034 3.128 1.477a48.392 48.392 0 0 0 10.924 3.116c3.993.658 7.977.843 11.961.698 1.656-.06 3.31-.142 4.958-.274.33-.025.657-.072.983-.117.328-.044.65-.127.98-.141.832-.031 1.644-.162 2.453-.324a3.93 3.93 0 0 1 .655-.086c.833-.025 1.639-.193 2.443-.382.588-.138 1.179-.266 1.789-.29.554-.023 1.093-.134 1.627-.26.536-.125 1.07-.252 1.605-.379.535-.129 1.072-.242 1.625-.271.665-.034 1.307-.187 1.947-.347 1.598-.402 3.197-.801 4.795-1.207.853-.216 1.704-.421 2.587-.5.491-.043.977-.163 1.454-.287 1.596-.412 3.19-.834 4.78-1.271a10.961 10.961 0 0 0 1.558-.532c.708-.315 1.441-.54 2.184-.745l5.398-1.506c.898-.253 1.796-.508 2.643-.926.393-.195.822-.312 1.241-.442.63-.196 1.269-.363 1.896-.564.471-.149.946-.298 1.392-.511.65-.312 1.321-.549 2.008-.752.737-.219 1.469-.457 2.153-.825.097-.054.198-.104.302-.134 1.433-.403 2.754-1.111 4.155-1.6.414-.145.812-.34 1.217-.514.304-.13.601-.281.909-.392.622-.224 1.234-.468 1.819-.784.097-.053.199-.099.302-.135 1.351-.478 2.627-1.135 3.921-1.753.746-.356 1.511-.663 2.258-1.023.744-.36 1.482-.735 2.226-1.1a168.605 168.605 0 0 0 5.455-2.788 205.722 205.722 0 0 0 7.371-4.163c2.672-1.575 5.285-3.261 7.895-4.955.651-.423 1.277-.894 1.919-1.335.78-.537 1.565-1.062 2.345-1.598.367-.25.743-.493 1.088-.776.825-.675 1.687-1.29 2.547-1.906 2.493-1.787 4.895-3.713 7.265-5.687.257-.215.512-.438.755-.674 1.293-1.263 2.588-2.523 3.871-3.801.399-.399.78-.824 1.139-1.269.789-.981 1.577-1.966 2.332-2.981a29.135 29.135 0 0 0 3.55-6.219 30.152 30.152 0 0 0 1.846-6.396c.458-2.607.43-5.254.237-7.924-.272-1.72-.399-3.461-.918-5.145-.183-.596-.327-1.204-.494-1.806-.085-.299-.162-.604-.279-.892-.654-1.614-1.26-3.252-2.038-4.808a34.053 34.053 0 0 0-2.323-4.004c-.934-1.367-1.883-2.72-2.985-3.941-.892-.99-1.771-1.996-2.733-2.901-.918-.863-1.839-1.723-2.851-2.445a7.848 7.848 0 0 1-.562-.438 22.994 22.994 0 0 0-4.388-2.933c-.873-.454-1.732-.948-2.604-1.409-1.649-.869-3.356-1.523-5.065-2.172-1.874-.708-3.788-1.226-5.71-1.662-1.7-.386-3.409-.745-5.132-.898a8.443 8.443 0 0 1-.499-.053c-3.107-.409-6.21-.478-9.31-.461-1.495.007-2.979.126-4.464.241-1.263.097-2.525.217-3.786.331a9.7 9.7 0 0 0-.819.107c-.543.094-1.084.188-1.639.197-.055 0-.112.002-.165.011-.815.125-1.624.295-2.448.364-.827.068-1.633.223-2.439.396-.482.104-.97.216-1.462.25-.831.057-1.636.223-2.437.414-.909.216-1.816.427-2.76.481-.438.025-.867.143-1.298.236-.589.131-1.176.278-1.763.42-.59.143-1.178.272-1.788.304-.553.025-1.092.141-1.625.268-.643.155-1.28.32-1.926.458-.482.104-.968.209-1.461.25-.717.061-1.419.189-2.112.358-.48.117-.961.239-1.446.336-.429.088-.862.175-1.301.208-.663.049-1.312.159-1.955.308-.642.15-1.288.28-1.954.303a3.414 3.414 0 0 0-.656.072c-1.128.254-2.281.35-3.426.506-1.964.27-3.94.43-5.917.595-.439.038-.878.074-1.32.094-.385.015-.772.025-1.16.008-.756-.038-1.294-.561-1.419-1.362-.22-1.417-.385-2.838-.365-4.263.017-1.296.023-2.596.1-3.883a27.7 27.7 0 0 1 .752-4.874c.243-.998.534-1.978.823-2.958.135-.458.311-.903.482-1.348.211-.554.442-1.101.652-1.657.252-.672.567-1.3.941-1.891.311-.489.597-1 .907-1.488.34-.54.685-1.077 1.048-1.596 1.196-1.701 2.453-3.34 3.893-4.789.319-.319.625-.659.928-.999.87-.98 1.8-1.886 2.78-2.729.341-.292.68-.587 1.008-.898 1.022-.971 2.036-1.95 3.115-2.852.513-.429 1.018-.881 1.44-1.429a.276.276 0 0 0 .046-.166c-.002-.143-.082-.235-.216-.239a8.63 8.63 0 0 0-2.456.275c-1.224.314-2.451.614-3.708.928M37.59 51.644c-.364-.851-.725-1.701-1.196-2.494-.15-.25-.496-.358-.737-.217-.142.083-.289.158-.425.251-.228.156-.457.311-.673.485-.607.483-1.209.976-1.809 1.472-.084.069-.146.171-.215.26a.72.72 0 0 0-.108.685c.352.928.81 1.795 1.423 2.555.199.249.682.335.921.156.576-.431 1.147-.87 1.717-1.308.353-.268.738-.484 1.037-.832.036-.044.078-.085.103-.136a.84.84 0 0 0 .073-.527c-.02-.118-.073-.234-.111-.35m-4.859 4.249c-.021-.078-.029-.14-.055-.196-.325-.739-.676-1.462-1.136-2.117-.068-.097-.162-.175-.247-.26-.123-.127-.494-.175-.635-.085-.047.031-.102.049-.144.083-.9.761-1.737 1.594-2.461 2.563-.066.092-.122.2-.162.311-.084.231-.103.478.021.71a9.258 9.258 0 0 0 1.748 2.329c.152.147.47.146.619.006.083-.077.177-.139.248-.226.508-.618 1.068-1.175 1.621-1.742.155-.162.295-.345.438-.522.155-.196.217-.617.145-.854m72.764-14.972c-.316.084-.636.159-.949.256a1.783 1.783 0 0 0-.447.202.818.818 0 0 0-.382.744c.037.676.109 1.354.175 2.03.01.122.055.242.083.362.082.343.414.687.71.731.11.016.221.042.331.046.896.048 1.743-.144 2.562-.478.287-.115.505-.52.454-.872-.122-.857-.254-1.713-.386-2.571-.008-.06-.042-.115-.058-.174-.072-.269-.401-.545-.643-.528-.219.014-.438.021-.651.064-.268.052-.528.136-.793.206l-.006-.018M18.066 79.758c-.02-.061-.034-.122-.062-.176-.058-.109-.111-.227-.188-.316-.788-.92-1.58-1.835-2.371-2.75-.039-.046-.088-.08-.13-.123-.207-.212-.606-.167-.721.083-.345.747-.62 1.534-.892 2.319-.125.362-.067.732.18 1.046.188.237.398.454.6.679.645.72 1.305 1.422 1.867 2.227.065.094.181.15.282.2.104.051.219.03.304-.05a.754.754 0 0 0 .208-.269c.312-.831.618-1.667.915-2.509.038-.103.008-.24.008-.361m81.616-37.674c-.367.134-.729.263-1.087.401-.199.077-.419.495-.402.732.009.123.007.249.028.369.11.614.271 1.216.479 1.801.061.173.157.339.262.483a.717.717 0 0 0 .422.3c.054.012.107.039.162.042.778.06 1.547.028 2.285-.219.152-.051.298-.137.433-.232.193-.137.282-.371.281-.619a17.474 17.474 0 0 0-.072-1.48 6.061 6.061 0 0 0-.183-.912c-.141-.552-.653-.963-1.156-.902-.488.058-.972.156-1.452.236m10.959-2.179c-.314.11-.685.215-1.031.373-.257.116-.426.367-.482.676a2.988 2.988 0 0 0-.044.728c.045.618.186 1.219.399 1.807.127.345.459.637.767.659.721.053 1.431.012 2.121-.177.156-.042.312-.099.458-.175.261-.129.409-.37.469-.682.01-.059.014-.122.017-.182.025-.937-.169-1.837-.511-2.713-.128-.325-.507-.586-.82-.539-.433.063-.864.143-1.343.225m7.464.646c-.066-.192-.175-.55-.314-.893a.971.971 0 0 0-.789-.632c-.788-.12-1.545-.029-2.258.298-.321.149-.481.461-.52.851-.012.12-.018.247-.002.367.096.679.245 1.345.498 1.983.022.058.054.111.084.164.132.222.312.392.539.423.894.123 1.762.054 2.595-.276.352-.139.558-.581.469-1.033-.022-.122-.037-.248-.066-.365-.06-.243-.128-.483-.236-.887M13.866 91.862c.082-.072.198-.122.238-.22.318-.768.547-1.578.75-2.396.107-.436-.019-.858-.273-1.235a2.632 2.632 0 0 0-.221-.292c-.651-.717-1.318-1.416-2.034-2.053-.223-.199-.607-.105-.698.164-.25.739-.433 1.5-.546 2.289-.076.526.061.979.393 1.381.155.188.302.383.466.561.531.579 1.068 1.152 1.607 1.723.087.091.206.104.318.078m27.825-43.386a8.478 8.478 0 0 0-.836-1.75c-.142-.221-.511-.375-.747-.297-.052.017-.109.016-.158.042-.586.29-1.176.578-1.755.883-.141.077-.26.206-.377.326-.17.173-.198.413-.157.666.02.12.066.238.106.354.274.756.627 1.475 1.024 2.164.222.384.582.543 1.021.328a26.1 26.1 0 0 0 1.586-.86c.381-.218.568-.762.455-1.24-.028-.119-.061-.239-.162-.616M20.037 74.95c-.108-.157-.193-.33-.317-.451-.473-.461-.955-.91-1.439-1.356a22.092 22.092 0 0 0-.938-.827.538.538 0 0 0-.314-.111c-.105-.004-.239.018-.303.092a4.385 4.385 0 0 0-.936 1.864c-.058.242.012.49.113.721a.664.664 0 0 0 .095.159 40.813 40.813 0 0 0 2.399 2.722c.147.153.491.124.606-.04.066-.093.148-.177.201-.277.137-.259.268-.523.394-.788.176-.373.378-.733.453-1.157.028-.172-.008-.363-.014-.551m23.779-29.981c-.375.109-.751.188-1.068.418-.234.169-.368.421-.375.748-.004.119.007.246.03.365.142.738.422 1.417.845 2.024.225.324.53.474.876.43a7.034 7.034 0 0 0 2.025-.596c.267-.122.451-.563.378-.912-.013-.059-.017-.12-.032-.18-.2-.789-.554-1.498-.987-2.164a.73.73 0 0 0-.581-.324c-.391-.026-.752.106-1.111.191M28.718 60.454c-.041-.099-.071-.228-.138-.323a16.003 16.003 0 0 0-1.574-1.982c-.04-.043-.095-.068-.14-.105-.143-.124-.48-.106-.613.033a10.264 10.264 0 0 0-1.45 1.888c-.157.267-.14.762.053 1.046.237.351.486.696.737 1.038.249.341.505.678.763 1.016.204.266.543.321.732.125a11.352 11.352 0 0 0 1.549-2.023.89.89 0 0 0 .081-.713m99.326-21.031c-.06-.178-.154-.473-.256-.768-.125-.36-.466-.652-.774-.645a78.48 78.48 0 0 0-1.816.069c-.107.005-.215.042-.319.077-.337.112-.559.356-.625.747-.028.18-.044.365-.039.549.014.498.114.985.263 1.464.14.443.518.759.896.717.765-.081 1.529-.17 2.293-.26.054-.006.103-.038.155-.051.238-.062.448-.411.446-.681-.006-.376-.108-.735-.224-1.218M23.787 67.804c-.064-.135-.115-.33-.226-.457a17.898 17.898 0 0 0-2.026-2.003c-.156-.13-.484-.097-.601.075-.349.523-.692 1.05-1.032 1.579-.139.217-.112.644.041.871a18.037 18.037 0 0 0 1.915 2.392c.04.042.098.062.145.097.169.128.487.109.613-.037.038-.042.085-.073.117-.118.418-.617.779-1.274 1.03-2.003.034-.106.015-.239.024-.396m27.539-21.999c-.141-.381-.263-.729-.397-1.073-.176-.45-.5-.653-.917-.711-.667-.09-1.309.01-1.942.175-.157.041-.306.114-.456.175-.286.122-.475.545-.4.891.027.121.043.244.081.359.194.589.463 1.143.798 1.65.175.265.444.405.73.378.761-.071 1.496-.267 2.22-.501.337-.11.519-.479.417-.841-.05-.179-.096-.357-.134-.502m68.198-5.26c.125.329.262.74.435 1.13a.937.937 0 0 0 .651.546c.214.051.437.078.652.076.384-.002.754-.096 1.116-.214a.882.882 0 0 0 .613-.928 49.53 49.53 0 0 0-.188-1.83c-.064-.515-.438-.881-.916-.937-.109-.013-.221-.037-.329-.034a7.98 7.98 0 0 0-1.926.312c-.227.064-.421.438-.363.717.077.364.159.723.255 1.162M97.13 44.909c-.126-.361-.262-.769-.412-1.171-.123-.327-.506-.587-.805-.569a4.566 4.566 0 0 0-1.724.44c-.277.134-.485.537-.448.875.076.677.238 1.332.507 1.955.129.299.349.523.64.547a6.713 6.713 0 0 0 1.946-.126c.29-.06.556-.479.502-.812-.058-.364-.13-.726-.206-1.139M12.499 98.245c-.052-.108-.1-.222-.158-.326a.556.556 0 0 0-.113-.14c-.572-.515-1.181-.962-1.852-1.289-.237-.117-.561.07-.637.367a7.353 7.353 0 0 0-.213 2.337c.02.314.139.604.345.832.52.577 1.054 1.136 1.661 1.601.18.136.493.042.544-.174.221-.929.358-1.883.457-2.845.013-.116-.021-.241-.034-.363m117.029-58.628c.059.17.154.465.259.754.123.348.482.649.774.641.603-.02 1.204-.043 1.805-.082.161-.012.315-.082.469-.137.222-.077.435-.451.421-.704-.03-.555-.147-1.099-.284-1.64-.064-.26-.375-.569-.608-.591-.881-.084-1.76-.132-2.619.066-.053.012-.101.041-.151.058-.104.035-.262.292-.271.42-.027.374.089.731.205 1.215M13.39 93.861c-.083-.137-.158-.312-.275-.445-.674-.77-1.358-1.529-2.041-2.287-.212-.237-.562-.115-.633.213-.165.764-.303 1.537-.353 2.332-.02.318.069.619.298.839.558.538 1.126 1.062 1.756 1.491.14.096.309.142.466.196.14.048.351-.077.416-.212.253-.537.359-1.129.415-1.736.01-.118-.029-.242-.049-.391m76.95-49.362c-.303.116-.61.222-.91.347-.293.122-.503.521-.476.852.038.498.173.968.393 1.409.145.289.373.466.654.545.107.03.217.055.325.064.666.044 1.3-.077 1.902-.344.282-.125.481-.521.457-.865-.036-.495-.166-.968-.333-1.431-.179-.497-.605-.799-1.051-.742-.106.015-.217.016-.322.04-.21.05-.418.109-.628.165l-.011-.04M15.56 86.506c.069-.086.213-.191.271-.344.232-.587.194-1.194-.11-1.774-.578-1.101-1.295-2.077-2.209-2.862-.044-.039-.1-.061-.146-.096-.173-.131-.495-.064-.586.113a3.83 3.83 0 0 0-.419 1.547 1.2 1.2 0 0 0 .199.699c.066.104.134.207.216.293.752.773 1.504 1.547 2.265 2.311.126.128.291.188.519.113m36.979-41.322c.08.198.228.603.403.992.133.292.363.491.64.571.266.076.544.141.812.135.543-.015 1.083-.075 1.624-.126.253-.023.443-.399.36-.682-.036-.118-.055-.244-.109-.351-.193-.381-.392-.76-.599-1.13a1.412 1.412 0 0 0-1.113-.741 8.45 8.45 0 0 0-1.798-.033c-.275.025-.506.357-.432.628.017.058.022.119.041.177.033.121.07.237.171.56m85.643-6.162c-.059-.153-.115-.332-.192-.5a.992.992 0 0 0-.652-.559c-.055-.015-.11-.022-.165-.032-.722-.114-1.438-.079-2.151-.048-.309.012-.569.414-.53.78.049.434.141.856.302 1.265.178.447.493.726.904.763.717.064 1.437.061 2.139-.078.244-.05.481-.376.474-.653-.003-.122.002-.247-.015-.368-.029-.182-.074-.364-.114-.57M25.772 64.828c-.039-.117-.056-.251-.119-.349-.498-.777-1.046-1.506-1.686-2.146-.254-.254-.685-.251-.904.006-.037.043-.084.077-.115.125-.19.288-.384.575-.565.871-.156.254-.115.634.074.856.553.646 1.161 1.223 1.779 1.785.086.078.194.134.296.181.163.071.329.08.476-.024.325-.231.561-.55.708-.949.039-.107.039-.236.056-.356m59.573-19.274c-.203.081-.409.156-.608.248a.692.692 0 0 0-.34.367 1.961 1.961 0 0 0-.021 1.433c.09.25.262.443.492.475.72.101 1.438.109 2.136-.066.106-.026.209-.069.305-.121.202-.11.355-.278.392-.534.081-.58-.085-1.107-.446-1.553a.911.911 0 0 0-.434-.279 2.076 2.076 0 0 0-.658-.079c-.274.008-.543.068-.818.109m-1.388-31.628a8.74 8.74 0 0 0 1.42-.816c.191-.133.279-.555.176-.816a6.462 6.462 0 0 0-.602-1.126c-.153-.24-.505-.381-.738-.306-.622.201-1.218.46-1.762.839-.133.095-.252.214-.376.325-.078.07-.144.393-.104.509.183.535.464.995.889 1.339a.843.843 0 0 0 .629.172c.107-.009.21-.051.468-.12M20.84 73.415c.127-.066.248-.09.312-.17.271-.333.351-.736.202-1.186a1.893 1.893 0 0 0-.235-.497c-.6-.847-1.234-1.66-1.935-2.404-.041-.042-.099-.059-.146-.093-.105-.08-.375-.052-.465.042-.323.331-.529.746-.65 1.215a.785.785 0 0 0 .147.695c.036.048.07.102.114.142.738.693 1.475 1.39 2.225 2.07.121.107.303.131.431.186m-9.15 30.542c-.056-.109-.095-.236-.172-.326a10.193 10.193 0 0 0-1.57-1.459c-.179-.138-.477.012-.5.252-.006.061-.028.119-.031.18-.042.738.013 1.479.085 2.219.043.455.259.824.604 1.098.324.258.65.514 1.041.627.121.034.374-.102.406-.23.015-.057.053-.108.059-.166.052-.61.104-1.219.143-1.83.007-.119-.042-.244-.065-.365m46.076-59.865c-.283.033-.473.427-.395.695.142.48.403.889.65 1.308.196.331.494.506.824.611.053.018.106.039.161.044.436.034.874.075 1.311.095.331.014.595-.394.502-.745-.032-.12-.06-.242-.104-.354a4.925 4.925 0 0 0-.631-1.108 1.07 1.07 0 0 0-.564-.386c-.541-.166-1.088-.184-1.634-.19-.054 0-.105.026-.12.03m93.501-3.277c-.073-.188-.131-.366-.211-.531-.11-.225-.269-.418-.483-.512a7.354 7.354 0 0 0-2.424-.616c-.188-.012-.415.243-.409.462.001.062-.009.125-.001.184.052.37.153.726.321 1.057.146.288.368.494.647.566.756.195 1.518.362 2.288.411.208.015.398-.242.358-.491-.027-.184-.058-.363-.086-.53M91.328 8.248c-.213.089-.465.186-.711.297-.279.126-.455.528-.388.9.044.239.099.481.177.711.149.449.524.696.91.64.432-.062.853-.164 1.24-.368.31-.163.489-.441.517-.834.024-.364.017-.728-.087-1.089-.059-.203-.312-.438-.497-.437-.109-.001-.222-.017-.325.002-.268.049-.531.112-.836.178m54.885 31.476c-.054-.142-.092-.258-.141-.372-.186-.433-.487-.698-.903-.776a8.167 8.167 0 0 0-.824-.102c-.106-.009-.215.029-.322.051-.248.051-.472.373-.471.649 0 .442.102.857.309 1.247.12.231.312.371.528.448.488.169.983.194 1.48.169.263-.012.505-.316.473-.614-.013-.122-.021-.246-.042-.366-.023-.121-.062-.241-.087-.334m-4.056-.755c-.11-.388-.343-.639-.687-.755-.429-.146-.864-.16-1.3-.142-.312.012-.576.378-.543.747s.115.727.261 1.065c.181.422.472.702.887.771.271.043.543.065.814.071.311.005.593-.31.641-.675a2.56 2.56 0 0 0-.073-1.082m-66.636-19.55c-.134-.458-.392-.863-.684-1.25-.108-.142-.485-.209-.613-.107a3.703 3.703 0 0 0-1.132 1.449.752.752 0 0 0-.004.535c.162.472.41.881.779 1.197.169.145.455.16.616.049.414-.287.718-.688.968-1.147.117-.214.12-.455.07-.726M65.86 44.293c.044.09.113.263.208.417.224.363.491.689.795.974a.274.274 0 0 0 .152.069c.132.005.199-.082.187-.235-.073-.917-.149-1.833-.223-2.75-.015-.184-.021-.369-.041-.551a2.595 2.595 0 0 0-.33-1.048c-.216-.364-.389-.772-.729-1.027-.109-.081-.223-.047-.272.073a.946.946 0 0 0-.085.341c-.031 1.161.083 2.322.271 3.478.009.06.029.119.067.259m23.053-34.087c-.055-.131-.117-.307-.197-.47-.153-.314-.539-.501-.851-.44-.543.104-1.011.372-1.439.73-.153.127-.229.45-.156.65.146.411.355.775.631 1.099.231.273.613.389.907.281.308-.115.586-.283.839-.499.276-.231.379-.555.334-.947-.013-.122-.04-.243-.068-.404m-10.632 6.542a2.579 2.579 0 0 0-.673-1.229c-.197-.194-.545-.243-.766-.1-.326.208-.619.458-.836.803a.949.949 0 0 0-.084.862c.168.462.401.89.684 1.288.119.168.432.259.602.182.408-.188.714-.507.961-.899.161-.257.18-.554.112-.907m3.158-2.189c-.04-.091-.092-.276-.189-.425a8.305 8.305 0 0 0-.546-.727c-.192-.235-.527-.317-.765-.218a2.013 2.013 0 0 0-.682.461c-.297.311-.391.704-.271 1.163.096.362.246.699.45 1.009.234.353.565.479.87.327.396-.201.764-.442 1.039-.819.139-.191.181-.429.094-.771m17.638-5.705c.196-.081.397-.159.595-.245.292-.129.476-.496.428-.875a2.614 2.614 0 0 0-.126-.531c-.112-.307-.322-.511-.607-.592a2.282 2.282 0 0 0-1.134-.019c-.292.066-.561.397-.604.741-.047.364-.01.725.053 1.088.056.316.331.577.588.544.266-.033.533-.071.807-.111M67.422 34.971c-.157-.459-.308-.721-.524-.941-.12-.12-.374-.09-.425.064-.018.055-.058.101-.069.158-.176.89-.362 1.774-.518 2.669-.064.373.05.742.258 1.058.095.146.245.255.383.362.129.1.375.012.428-.129.041-.112.105-.214.124-.33.125-.78.245-1.559.356-2.34.034-.242.015-.491-.013-.571m-55.977 74.088c-.219-.687-.587-1.039-1.088-1.238-.154-.062-.366.035-.403.193-.026.113-.073.227-.071.345.005.989.235 1.94.595 2.86.114.289.315.516.596.631.138.057.37-.049.396-.19.01-.059.044-.114.045-.171.01-.607.028-1.214.018-1.822-.002-.241-.068-.484-.088-.608M69.089 29.03c-.057-.106-.169-.322-.289-.532-.084-.147-.346-.181-.429-.062-.064.092-.151.172-.194.276a24.643 24.643 0 0 0-.864 2.509 1.949 1.949 0 0 0-.059.538c.001.251.087.478.248.674.155.187.472.217.581.044.092-.146.199-.282.26-.443.266-.717.525-1.438.775-2.163.076-.226.075-.473-.029-.841m33.057-23.184c-.139.059-.245.091-.336.148-.254.157-.373.412-.363.738.013.373.095.736.279 1.059.121.214.295.374.532.422.283.059.547.01.787-.13a.84.84 0 0 0 .397-.527 2.51 2.51 0 0 0 .062-.899c-.053-.529-.452-.91-.918-.873-.162.012-.32.045-.44.062m-6.892 1.41c-.15.083-.3.15-.433.244a.782.782 0 0 0-.29.414c-.154.479-.114.955.115 1.418a.616.616 0 0 0 .396.328c.406.097.761-.012 1.031-.341a.776.776 0 0 0 .145-.316c.091-.48.069-.964-.085-1.446-.041-.131-.246-.31-.395-.313-.162-.009-.323.006-.484.012M70.949 24.938c-.067-.124-.148-.287-.239-.444-.106-.182-.463-.214-.59-.066a2.9 2.9 0 0 0-.666 1.4c-.087.503.059.966.41 1.347.159.172.45.148.583-.033.237-.326.417-.687.545-1.085.113-.351.086-.713-.043-1.119m81.964 16.497c.157.533.411.842.803 1.007.261.107.525.168.799.171.262.007.486-.293.445-.604-.06-.45-.253-.816-.612-1.052-.339-.222-.697-.377-1.087-.405-.206-.015-.415.19-.4.441.009.18.042.36.052.442m3.891.599a.315.315 0 0 0-.16.284c.015.536.3 1.012.694 1.196.47.218.951.37 1.445.465.215.041.414-.228.354-.468-.079-.316-.23-.582-.48-.752-.485-.329-.989-.611-1.535-.768a.417.417 0 0 0-.165-.006c-.053.009-.103.033-.153.049M72.963 22.576c-.127-.416-.354-.773-.72-.999a.414.414 0 0 0-.47.018 1.068 1.068 0 0 0-.441.72.767.767 0 0 0 .017.363c.122.357.299.687.56.943a.517.517 0 0 0 .307.131c.463.026.895-.651.747-1.176m-61.9 92.153c.286 1.07.656 1.901 1.048 2.723.01.021.105.029.111.017a.304.304 0 0 0 .022-.171 24.829 24.829 0 0 1-.442-2.703c-.028-.242-.155-.457-.321-.635-.128-.137-.361-.186-.442-.082a.391.391 0 0 0-.081.321c.042.239.094.476.105.53m150.635-70.152a.557.557 0 0 0-.345-.345c-.161-.063-.337.095-.308.278.043.276.197.44.442.474.162.022.291-.204.211-.407"/><path fill="none" d="M199.077 121.34L23.11 168.154-12.722 33.47l175.968-46.815z"/><path fill="#FFF" d="M162.207 105.507c-.229-.287-.421-.218-.694-.123-.413.142-.872.175-1.314.21-.514.039-1.03.035-1.545.043-.656.01-1.314-.012-1.968.027-.982.061-1.961.167-2.94.242-.639.049-1.278.073-1.919.113-1.37.09-2.741.182-4.113.271-.476.03-.953.054-1.43.087-.963.067-1.925.168-2.89.206-1.285.052-2.574.031-3.858.091-.952.045-1.899.162-2.848.262-.304.033-.616.201-.896.152-.263-.049-.536-.264-.721-.477-.277-.32-.462-.719-.721-1.057-.717-.936-1.446-1.86-2.181-2.783-.32-.402-.695-.763-.978-1.188-.135-.201-.134-.508-.151-.77-.04-.609-.035-1.225-.083-1.834-.04-.518-.146-1.031-.188-1.549-.019-.238.076-.482.07-.723-.019-.626-.063-1.251-.101-1.877-.023-.381-.062-.762-.078-1.143-.054-1.18-.093-2.359-.154-3.539-.058-1.097-.146-2.191-.199-3.288-.015-.288.05-.579.073-.869.099-1.22.188-2.438.295-3.656.062-.708.149-1.412.225-2.118.067-.65.158-1.301.189-1.953.023-.458-.046-.92-.06-1.381-.016-.533-.002-1.067-.023-1.6-.015-.387-.063-.775-.1-1.195l.554-.251-.278-.396c.562 0 1.092.023 1.618-.005.743-.042 1.483-.15 2.228-.177 1.4-.051 2.804-.07 4.206-.092 1.148-.019 2.3.003 3.447-.038 2.361-.086 4.723-.213 7.085-.306 1.883-.073 3.77-.117 5.654-.177.673-.021 1.369.045 2.009-.111.593-.144.891.212 1.137.512.165.199.294.482.484.696.676.762 1.356 1.519 2.034 2.277.025.028.052.064.084.072.654.148.634.696.708 1.191.177 1.184.164 2.372.129 3.567-.02.699.131 1.4.157 2.104.029.812-.009 1.627.013 2.439.017.674.104 1.346.114 2.02.011.751-.071 1.504-.043 2.252.038 1.034.142 2.066.219 3.098.089 1.197.182 2.395.272 3.592.005.061.023.126.008.184-.25 1.053.084 2.098.047 3.149-.02.579.141 1.165.22 1.747.014.098.028.195.035.295.067.918.136 1.837.196 2.756.004.076-.009.185-.059.229-.309.264-.629.514-.977.792m-.682-1.523c-.134-1.734-.28-3.439-.387-5.147a99.56 99.56 0 0 1-.143-3.581c-.067-2.453-.156-4.904-.168-7.355-.01-2.106.095-4.213.109-6.318.009-1.316-.052-2.631-.087-3.946-.006-.27-.061-.48-.377-.201a.325.325 0 0 1-.203.071c-.658.008-1.318-.01-1.977.014-1.497.056-2.994.169-4.491.188-2.213.027-4.427-.027-6.639-.011-1.34.01-2.679.076-4.017.144-.649.034-1.296.132-1.944.201-.856.093-1.712.188-2.568.278-.867.088-1.732.17-2.602.257l-.149 10.31-.046.005.038-.252c-.061 5.659.511 11.282.862 16.909.772-.072 1.506-.18 2.241-.201 2.118-.065 4.24-.072 6.358-.151 1.304-.05 2.603-.21 3.906-.292 1.277-.082 2.557-.133 3.835-.193 1.674-.081 3.348-.163 5.021-.241 1.17-.055 2.345-.046 3.428-.488m-1.712-27.692c-.433-.552-.852-1.037-1.214-1.56-.487-.707-1.084-1.122-1.986-1.01-.522.064-1.053.062-1.578.087l-3.137.145c-2.166.101-4.33.214-6.495.302-1.734.069-3.472.12-5.208.155-1.941.038-3.885.034-5.826.077-.489.012-.975.134-1.562.219 1.2.754 2.101 1.688 2.951 2.73.907-.086 1.871-.174 2.837-.271 1.013-.102 2.022-.215 3.035-.319.919-.093 1.836-.245 2.755-.256 2.939-.039 5.88.001 8.817-.037 2.106-.028 4.21-.135 6.314-.208.094-.004.187-.033.297-.054m-28.158-.816l.116 2.561c.025 0 .054 0 .081-.002v-.815l.081.004c-.054 1.098-.108 2.196-.164 3.293l.098.01.141-1.682c.062.1.068.195.061.291-.077.904-.187 1.807-.23 2.713-.082 1.717-.314 3.422-.246 5.152.055 1.376.138 2.736.37 4.095.158.924.175 1.872.244 2.811.07.956.13 1.914.193 2.871.086 1.265.154 2.53.27 3.792.027.295.166.609.335.856.358.522.76 1.015 1.169 1.499.197.234.448.422.645.602-.098-1.158-.239-2.345-.291-3.536a349.48 349.48 0 0 1-.227-7.169 58.072 58.072 0 0 1 .023-3.59c.054-1.377.179-2.753.259-4.131.055-.946.072-1.895.131-2.84.069-1.119.172-2.234.238-3.353.01-.188-.04-.442-.163-.565-.848-.851-1.723-1.678-2.591-2.509-.079-.075-.221-.206-.26-.183-.215.124-.125-.119-.283-.175"/><path fill="#FFB547" d="M87.369 96.867c-.149-.451-.291-.879-.43-1.308-.018-.052-.04-.112-.03-.163.065-.34.216-.681.197-1.016-.055-1.017-.163-2.031-.27-3.045-.029-.275-.125-.543-.188-.805.079-.006.208.02.262-.031.37-.349.726-.713 1.083-1.074.087-.088.193-.175.235-.283.175-.455.58-.507.963-.534 1.549-.112 3.099-.211 4.65-.294 1.5-.078 3.003-.107 4.501-.201 2.112-.133 4.222-.307 6.332-.463.402-.029.806-.056 1.208-.084.048-1.694.054-3.365-.216-4.984.146-.134.322-.248.433-.408.229-.328.389-.711.643-1.014.163-.196.439-.373.733-.211.503.275 1.021.539 1.482.874.981.713 1.94 1.456 2.89 2.212.512.408.99.861 1.469 1.311 1.363 1.273 2.926 2.273 4.479 3.288.478.312.893.722 1.336 1.086.159.13.319.257.506.405-.349.278-.425.637-.471 1.047-.043.382-.329.742-.349 1.12-.03.635-.447.917-.873 1.237-2.274 1.725-4.53 3.477-6.826 5.174a44.131 44.131 0 0 0-3.496 2.903c-.033.03-.073.056-.127.097-.059-.063-.132-.107-.149-.166-.201-.736-.48-1.443-.502-2.232-.026-.904-.186-1.803-.265-2.705-.052-.601-.065-1.205-.097-1.809-.003-.059-.017-.117-.029-.202-6.362.76-12.709 1.516-19.084 2.278m21.148-13.86l-.164.095c.092.369.231.733.268 1.109.103 1.115.168 2.235.239 3.355a.554.554 0 0 1-.071.255c-.069.146-.154.284-.231.425l.072.078c-.505.117-1.002.285-1.513.34-.644.072-1.299.027-1.945.076-1.321.102-2.642.248-3.963.346a276.71 276.71 0 0 1-4.818.297c-1.538.085-3.078.148-4.618.219-.381.02-.766.014-1.145.054-.29.028-.442.186-.418.519a12 12 0 0 1 .018 1.444c-.029.599-.1 1.193-.153 1.79.291-.071.546-.164.808-.192 1.11-.12 2.226-.2 3.334-.335.925-.113 1.842-.288 2.765-.426.766-.114 1.53-.237 2.301-.316 1.402-.146 2.81-.263 4.214-.39.686-.062 1.371-.133 2.059-.172a25.32 25.32 0 0 1 2.098-.052c.477.014.963-.336 1.431.035.102.082.209.176.329.213.231.071.262.211.238.424-.035.35-.053.704-.055 1.057a48.62 48.62 0 0 0 .016 2.021c.019.493.078.983.125 1.535.121-.081.173-.109.218-.146 1.019-.825 2.039-1.646 3.054-2.475 1.257-1.026 2.516-2.052 3.758-3.095.282-.236.504-.543.739-.804-1.593-1.161-3.188-2.228-4.674-3.433-1.498-1.213-2.883-2.562-4.316-3.851"/><path fill="#FFF" d="M39.59 109.86c-.124-.671-.264-1.296-.35-1.931-.064-.473-.051-.959-.088-1.438-.011-.142-.089-.277-.113-.419-.03-.173-.006-.36-.059-.524-.305-.945.491-1.168 1.021-1.539a5.24 5.24 0 0 1 2.566-.924c.994-.086 1.912.293 2.752.805.628.383 1.223.822 1.837 1.228 1.162.77 2.233.8 3.343-.244.439-.412.858-.834 1.092-1.418.062-.155.342-.214.5-.345.206-.172.36-.156.572.014.265.209.703.192.812.602.053.195.047.403.083.603.198 1.075.387 2.153.608 3.222.083.396-.022.624-.374.828-.276.161-.487.435-.735.65-.909.795-1.978 1.268-3.152 1.498-1.004.197-2.027.324-3.048.207a4.383 4.383 0 0 1-1.467-.439c-1.021-.522-1.999-1.125-3-1.682-.276-.153-.576-.261-.869-.382-.188-.077-.362-.044-.401.175-.09.521-.571.669-.89.969-.166.158-.367.282-.64.484m1.226-2.733c.438-.325.856-.331 1.342-.162 1.167.407 2.165 1.109 3.215 1.725.462.271.955.52 1.465.67.993.295 2.013.17 3.004-.021.555-.107 1.103-.332 1.606-.594.382-.201.701-.531 1.026-.83.11-.1.227-.287.209-.416-.108-.81-.252-1.613-.38-2.391-.739.454-1.412.898-2.112 1.291-.72.404-1.487.734-2.334.5-.89-.248-1.698-.699-2.459-1.22-.485-.331-.967-.671-1.451-1-.659-.448-1.337-.456-2.034-.37-.685.084-1.303.382-1.754.979.754.417.492 1.171.657 1.839M42.941 93.005l-1.679.982c-.281-.343-.545-.771-.909-1.083-.465-.398-.996-.729-1.524-1.043-.554-.33-1.167-.564-1.702-.92-.343-.227-.586-.602-.881-.902-.117-.118-.263-.208-.377-.329-.48-.5-.691-1.134-.791-1.792-.083-.539-.167-1.107-.079-1.634.132-.792.667-1.154 1.464-1.263.724-.1 1.386.059 2.016.389.614.318 1.218.658 1.825.987.897-1.05 1.966-1.858 3.349-2.165.301-.066.646-.088.936-.007.442.126.877.321 1.272.56.641.386.788 1.346.436 2.166-.635 1.49-1.561 2.801-2.439 4.143-.335.514-.619 1.061-.909 1.601-.05.092-.008.231-.008.31m-1.397-1.079c.119-.195.208-.354.307-.506.705-1.09 1.437-2.166 2.11-3.274.393-.647.718-1.339.757-2.126.012-.244-.066-.386-.302-.479-.733-.288-1.263-.11-1.862.448-.578.54-.908 1.291-1.632 1.714-.524.308-.685.408-1.089-.064-.663-.773-1.511-1.213-2.471-1.429-.751-.167-.823-.134-.822.604.002 1.062.55 1.884 1.263 2.611 1.071 1.092 2.577 1.522 3.741 2.501M53.123 82.92c.201-.104.469-.243.741-.38.074-.037.15-.087.229-.099 1.031-.135 2.064-.263 3.096-.396.939-.121 1.877-.253 2.816-.366.091-.012.208.042.287.103.555.428 1.09.881 1.655 1.295.802.588 1.643 1.123 2.427 1.733.382.298.671.716 1.005 1.079-.15.085-.246.105-.274.16-.215.422-.531.611-1.026.634-.519.021-1.028.194-1.545.261-.542.069-1.089.09-1.634.129-1.395.103-2.792.182-4.183.313-1.098.103-2.187.282-3.283.401-.633.07-1.271.104-1.907.126-.451.016-.904-.008-1.357-.019-.231-.007-.396-.062-.36-.369.02-.178-.081-.366-.084-.552a.496.496 0 0 1 .122-.321c.842-.912 1.703-1.807 2.536-2.725.266-.294.474-.644.739-1.007m9.83 2.728c-.042-.045-.055-.066-.073-.082-.994-.773-1.981-1.561-2.991-2.316-.186-.141-.467-.25-.692-.23a43.1 43.1 0 0 0-2.585.316c-.692.101-1.381.225-2.069.357a.856.856 0 0 0-.398.223c-.435.414-.859.838-1.277 1.268-.41.425-.806.863-1.208 1.295l.061.144 11.232-.975M64.514 103.488c.686-.572 1.488-.955 2.344-1.263.734-.265 1.285-.003 1.813.452.645.554.627 1.328.666 2.069.048.915-.458 1.615-.999 2.278-.71.871-1.27 1.834-1.782 2.829a1.122 1.122 0 0 0-.104.274c-.062.286-.149.535-.438.691-.352.193-.678.43-1.073.684l-.183-.695c-.035-.014-.151-.016-.173-.064-.331-.703-.963-1.043-1.62-1.343a61.57 61.57 0 0 0-2.145-.925c-.825-.342-1.363-.957-1.675-1.768-.349-.908-.651-1.828-.504-2.835.092-.622.391-1.085.891-1.462 1.416-1.069 3.135-.619 4.328.48.206.194.416.381.654.598m.786 5.668a.251.251 0 0 0 .052-.061c.737-1.045 1.467-2.096 2.212-3.137.349-.484.473-1.017.438-1.604-.035-.566-.444-1.113-1.202-.936-.519.123-.97.328-1.354.689-.356.334-.698.684-1.062 1.008-.396.353-.58.295-.706-.19-.019-.069-.058-.134-.093-.198-.418-.752-.99-1.279-1.857-1.527-1.218-.35-1.83-.094-1.752 1.154.003.051-.002.1.001.149.081 1.284.529 2.328 1.817 2.847.545.22 1.093.445 1.613.717.636.333 1.247.716 1.893 1.089M44.206 100.497c-.104-.276-.211-.54-.302-.812-.024-.074-.032-.188.007-.248.475-.7.926-1.42 1.453-2.082.471-.593 1.067-1.088 1.536-1.682 1.029-1.303 2.011-2.643 3.017-3.963a.974.974 0 0 1 .27-.218c.154-.095.317-.175.459-.251.082.047.177.147.27.145.408-.013.715.229 1.041.404.115.062.201.268.218.418.132 1.178.473 2.304.9 3.396.47 1.2 1.029 2.364 1.541 3.55.053.121.122.26-.103.353-.168.069-.283.259-.44.366-.317.217-.589.492-1.068.352-.367-.107-.787-.033-1.184-.045-.812-.024-1.629-.011-2.438-.086-1.251-.119-2.486-.105-3.709.211-.27.07-.552.088-.83.123-.215.028-.429.047-.638.069m6.473-7.563c-1.623 2.007-3.2 3.955-4.775 5.904 1.738-.33 3.433-.166 5.13-.026.545.045 1.1.007 1.741.007-1.003-1.89-1.569-3.853-2.096-5.885M71.881 111.635c-.116-.283-.249-.555-.329-.84-.026-.094.056-.271.144-.332.283-.199.312-.459.303-.775-.04-1.44-.05-2.884-.089-4.325-.015-.571-.08-1.142-.126-1.792.348-.382.929-.5 1.482-.637 1.604-.393 3.245-.392 4.883-.381.452.002.924.455.966.896.124 1.309.241 2.617.367 3.925.086.892.181 1.783.282 2.674.025.227.008.383-.182.571-.452.447-.914.726-1.592.693-.728-.035-1.463.068-2.196.1-.715.03-1.432.03-2.146.068-.592.032-1.183.102-1.767.155m6.425-1.631l-.229-2.562c-.097-1.105-.2-2.209-.292-3.312-.016-.197-.042-.318-.296-.305-.511.03-1.025-.01-1.533.035-.813.07-1.621.182-2.429.292-.092.012-.225.115-.243.197-.04.177-.026.366-.019.55.042 1.105.081 2.212.135 3.318.032.65.089 1.301.136 1.973 1.634-.065 3.18-.124 4.77-.186M66.33 97.472c-.193.129-.368.296-.575.37-.321.118-.597.318-1.02.193-.442-.129-.949-.041-1.426-.045-1.039-.007-2.08.027-3.116-.032-.494-.028-.927.08-1.376.227-.224.072-.433.03-.531-.245-.038-.107-.15-.188-.197-.293-.068-.156-.284-.297-.072-.502.023-.022-.009-.113-.024-.17-.227-.809-.159-1.633-.141-2.457.021-.934.004-1.867.004-2.82h-.411c-.017-.332-.035-.645-.054-.987.243-.097.714-.051.416-.577.118-.035.212-.053.296-.092.239-.109.442-.162.676.059.328.309.751.143 1.126.105 1.47-.151 2.938-.262 4.418-.136.446.038.896-.042 1.286.308.323.29.462.586.467 1.03.011 1.186.095 2.372.144 3.558.023.588.031 1.177.053 1.766.01.25.038.505.057.74m-1.511-.72c0-.179.006-.311-.001-.443-.052-1.02-.103-2.04-.164-3.061-.033-.552-.084-1.103-.129-1.653-.021-.265-.196-.347-.43-.347-.91.002-1.819-.02-2.726.014-.682.025-1.361.121-2.045.186 0 .477.003.883-.001 1.287-.009.775-.027 1.547-.033 2.321-.003.45-.009.903.023 1.353.005.091.177.244.272.244 1.106.012 2.211-.012 3.316-.001.625.006 1.249.063 1.918.1M60.365 74.736c-.137.044-.285.068-.409.138-.909.518-1.952.433-2.926.646-1.327.292-2.676.499-3.913 1.103-.189.093-.23.035-.25-.146-.181-1.594-.373-3.188-.549-4.782-.081-.745-.127-1.492-.2-2.238-.042-.445-.125-.887-.152-1.333-.029-.485.094-.621.567-.673.907-.099 1.814-.182 2.721-.281.841-.091 1.683-.198 2.525-.291.196-.021.395-.022.591-.02.585.004.998.462 1.024 1.039.026.598.091 1.197.188 1.79.16.991.362 1.977.54 2.965.124.685.236 1.372.354 2.056a9.201 9.201 0 0 0-.111.027m-6.722-6.333l.564 6.547 4.663-.927-1.098-6.044-4.129.424M67.314 70.144c.365.04.66-.024.703-.455.067-.005.115-.012.164-.014.27-.008.55-.303.809.018.179.223.336.464.517.685.225.274.448.553.702.801 1.268 1.248 2.556 2.476 3.812 3.735.272.272.451.64.666.967.12.184.222.378.369.63-.488.118-.966.32-1.45.334-1.297.04-2.596-.008-3.894-.008-1.387-.001-2.773-.016-4.158.035-.72.028-1.436.177-2.15.29-.236.038-.297-.033-.31-.26-.03-.517.042-.979.417-1.388.462-.504.907-1.03 1.306-1.585.783-1.093 1.531-2.21 2.286-3.321.087-.129.132-.287.211-.464m.98 1.158c-.401.67-.767 1.325-1.176 1.953-.325.498-.631 1.053-1.082 1.413-.36.289-.364.677-.626.94h7.319l-4.435-4.306M69.99 90.515c-.154-.784-.331-1.567-.289-2.413.085-1.666.061-3.34.067-5.011 0-.203-.095-.405-.124-.61-.062-.439-.107-.881-.162-1.344.29.021.435-.127.381-.412 1.268-.51 2.601-.486 3.902-.602.271-.023.722.354.846.648.283.669.306 1.408.247 2.144-.081 1.008-.169 2.017-.181 3.026-.008.791.104 1.58.149 2.37.022.39.021.78.015 1.168-.001.063-.077.143-.138.185-.242.164-.497.311-.738.477-.21.145-.407.286-.655.074-.023-.021-.071-.023-.106-.021-.468.031-.937.071-1.404.097-.279.016-.564-.015-.839.021-.31.038-.612.126-.971.203m3.351-1.55c0-.178.011-.371-.003-.562-.042-.65-.156-1.303-.13-1.951.036-.931.202-1.857.251-2.789.034-.647-.023-1.303-.063-1.953-.019-.299-.256-.416-.518-.391-.594.058-1.185.152-1.776.225-.233.029-.242.15-.178.338.374 1.088.382 2.217.345 3.347-.038 1.14-.101 2.278-.159 3.417-.011.226.036.336.302.326.621-.021 1.244-.007 1.929-.007M44.944 72.062c1.021-.138 1.857.269 2.571.938.453.424.899.878 1.249 1.387.501.729.469 1.547.182 2.368-.421 1.209-1.29 1.959-2.43 2.45-.245.105-.476.242-.718.348-.81.355-1.65.486-2.537.408-.715-.062-1.218-.473-1.532-1.025-.99-1.738-1.053-3.519-.02-5.28.103-.176.264-.32.411-.467.169-.167.46-.247.361-.591-.011-.038.142-.142.233-.189.644-.332 1.341-.356 2.045-.345l.185-.002m-2.216 4.311c.101.481.129 1.025.334 1.493.362.822.513.914 1.325.848 1.401-.115 2.285-.909 2.821-2.147.201-.465.348-.947.124-1.459-.499-1.141-1.354-1.766-2.607-1.822-.194-.009-.413-.063-.581.003-.542.218-.799.756-1.008 1.218-.251.551-.275 1.204-.408 1.866M72.861 100.227c-.696-.081-1.416-.08-2.082-.269-.638-.181-.892-.775-1.008-1.417-.407-2.236.838-3.791 2.458-4.77.624-.377 1.283-.627 1.998-.816 1.614-.426 2.737.258 3.709 1.409.488.581.826 1.255.708 2.021-.124.795-.465 1.514-1.085 2.078a4.704 4.704 0 0 1-1.739.996c-.965.318-1.909.717-2.959.768m-.177-1.188c.535-.074 1.042-.106 1.529-.219 1.381-.316 2.413-1.06 2.857-2.475.172-.546.028-1.056-.42-1.426a15.385 15.385 0 0 1-.311-.262c-.651-.567-2.019-.729-2.769-.297a5.281 5.281 0 0 0-.926.664c-1.024.946-1.578 2.075-1.251 3.506.026.116.145.271.249.302.346.098.706.145 1.042.207"/><path fill="#FFB547" d="M153.96 97.871a110.877 110.877 0 0 0-6.212-4.625c-1.178 1.838-2.915 3.174-4.468 4.855-.25-.396-.473-.689-.628-1.015a.837.837 0 0 1-.03-.585c.459-1.205.949-2.4 1.426-3.599.152-.38.296-.763.408-1.052-1.483-.793-2.898-1.547-4.311-2.309-.073-.039-.125-.137-.167-.217-.031-.064-.021-.146-.046-.216-.068-.19-.188-.373-.213-.567-.033-.25.262-.172.377-.291.14-.143.286-.327.462-.375.311-.086.645-.076.967-.114.982-.122 1.966-.238 2.946-.374.278-.037.556-.111.813-.215.096-.038.18-.201.197-.318.235-1.532.46-3.068.68-4.604.045-.314.027-.643.097-.951.034-.146.185-.336.317-.372a4.213 4.213 0 0 1 1.135-.168c.144.003.332.212.421.372.37.664.752 1.328 1.053 2.023.477 1.104.901 2.229 1.327 3.353.081.214.189.244.38.231.96-.059 1.92-.137 2.88-.15.401-.006.807.123 1.209.202.136.026.267.077.395.132.459.199.508.301.193.691a10.72 10.72 0 0 1-1.101 1.174c-.538.495-1.107.959-1.671 1.424-.312.26-.635.505-.961.747-.187.139-.198.257-.062.456.671.98 1.344 1.96 1.976 2.965.362.575.7 1.176.942 1.807.096.246.176.638-.113.928-.218.221-.395.482-.618.757m-1.89-3.309l.075-.044c-.536-.798-1.094-1.581-1.598-2.398-.194-.317-.275-.71-.385-1.073-.018-.057.073-.172.142-.226.771-.602 1.553-1.191 2.321-1.798.402-.318.785-.663 1.176-.996-.417-.061-.794-.042-1.17-.014-.822.061-1.644.135-2.467.178-.104.006-.271-.116-.315-.218-.451-1.084-.882-2.175-1.321-3.265-.238-.592-.48-1.183-.721-1.773-.13.068-.157.095-.162.125-.129.889-.241 1.776-.387 2.66-.086.52-.24 1.027-.33 1.545-.041.244-.075.455-.335.558-.067.026-.109.116-.177.146-.383.163-.566.627-1.104.588-.517-.037-1.044.098-1.567.16-.594.068-1.187.139-1.78.208l-.017.151c.851.382 1.704.762 2.556 1.145.444.198.902.373 1.328.607.22.121.298.334.152.627a32.17 32.17 0 0 0-.96 2.125c-.229.561-.407 1.143-.608 1.715.112-.002.17-.027.206-.071.604-.726 1.192-1.464 1.812-2.175.423-.486.877-.949 1.342-1.395.225-.215 1.078.042 1.008.27-.118.389.176.444.349.569.97.7 1.956 1.382 2.937 2.069"/><path fill="none" d="M28.485 29H192.25v93.829H28.485z"/></svg>
