<svg xmlns="http://www.w3.org/2000/svg" width="310" height="245" viewBox="0 0 310 245"><path fill="#FFB547" d="M304.411 156.8c-.883-.092-1.974-.145-3.042-.326-1.289-.22-2.585-.33-3.889-.407-.976-.058-1.955-.131-2.917-.288-1.296-.208-2.592-.287-3.898-.293-1.955-.01-3.913-.014-5.87-.014-1.741 0-3.479.043-5.193.41-.423.09-.859.117-1.29.158-4.803.437-9.397 1.66-13.882 3.418-3.054 1.202-5.918 2.734-8.675 4.483a31.442 31.442 0 0 0-2.648 1.899c-2.046 1.617-4.139 3.182-5.945 5.078a58.445 58.445 0 0 0-1.737 1.945c-.356.408-.658.869-1.028 1.263-2.479 2.63-4.368 5.688-6.267 8.729-1.206 1.932-2.363 3.9-3.343 5.971-2.279 4.828-4.196 9.789-5.64 14.93-1.292 4.607-2.31 9.283-3.169 13.989-.489 2.67-.892 5.358-1.319 8.042-.086.536-.103 1.082-.17 1.621-.119.971-.248 1.941-.375 2.907-.03.217-.098.431-.107.646-.113 2.827-.714 5.604-.879 8.426a20.234 20.234 0 0 1-.286 2.262 5.4 5.4 0 0 1-.374 1.245c-.408.931-1.401 1.419-2.436.883-.286-.149-.576-.321-.81-.541-1.508-1.414-3.034-2.802-4.63-4.114-.503-.414-.943-.9-1.41-1.354-1.402-1.368-2.82-2.716-4.196-4.108-1.302-1.32-2.781-2.429-4.173-3.643-1.393-1.213-2.644-2.588-4.153-3.668a13.505 13.505 0 0 1-1.015-.819c-3.779-3.282-7.821-6.226-11.935-9.075-2.414-1.67-4.971-3.112-7.512-4.581-2.548-1.472-5.185-2.738-7.87-3.929a73.795 73.795 0 0 0-15.504-4.93c-2.351-.467-4.734-.672-7.086-1.094-.852-.152-1.734-.141-2.603-.164a271.951 271.951 0 0 0-14.021.008c-1.309.035-2.608.108-3.89.377-.427.089-.86.145-1.294.186-4.557.406-9.024 1.328-13.465 2.4a169.054 169.054 0 0 0-17.792 5.354c-2.858 1.036-5.67 2.206-8.506 3.308-3.548 1.381-7.047 2.877-10.536 4.391-3.091 1.342-6.134 2.789-9.206 4.175a175.656 175.656 0 0 1-4.189 1.81 4.448 4.448 0 0 1-.938.258c-1.253.221-2.16-.844-1.938-1.956.063-.315.158-.638.309-.921.358-.672.748-1.324 1.138-1.976a29.554 29.554 0 0 0 2.732-5.907c.651-1.959 1.288-3.919 1.668-5.962.301-1.609.519-3.218.534-4.853.017-1.52-.008-3.043.032-4.566.097-3.959-.691-7.783-1.779-11.554-.968-3.351-2.233-6.583-3.884-9.665-1.236-2.311-2.67-4.484-4.189-6.604a41.379 41.379 0 0 0-4.892-5.674 57.193 57.193 0 0 1-1.615-1.615c-2.117-2.209-4.523-4.066-7.026-5.803-.806-.561-1.629-1.088-2.438-1.639-1.891-1.283-3.88-2.396-5.911-3.447-4.355-2.256-8.875-4.09-13.527-5.643a110.153 110.153 0 0 0-14.824-3.825 196.043 196.043 0 0 1-3.842-.758 2.907 2.907 0 0 1-1.171-.537c-.759-.575-.888-1.625-.336-2.314.265-.339.583-.647.924-.907 1.13-.85 2.269-1.686 3.421-2.502 1.16-.819 2.211-1.758 3.216-2.756.386-.384.775-.764 1.158-1.146 3.959-3.963 7.135-8.484 9.461-13.573 1.679-3.667 2.899-7.499 3.504-11.506.082-.536.161-1.076.273-1.607.254-1.176.345-2.366.256-3.565a15.356 15.356 0 0 1 .02-2.28c.145-1.85.089-3.692-.289-5.517a11.046 11.046 0 0 1-.2-1.29c-.259-2.952-1.129-5.753-2.131-8.517-.479-1.328-1.047-2.625-1.577-3.934a6.607 6.607 0 0 0-.275-.592c-1.542-2.875-3.107-5.736-5.207-8.259-.346-.42-.696-.835-1.029-1.267a35.178 35.178 0 0 0-6.707-6.623 71.809 71.809 0 0 1-2.304-1.818c-.825-.674-1.116-1.573-1.02-2.616.019-.215.032-.436.076-.647.451-2.235.9-4.476 1.373-6.708.159-.742.338-1.488.717-2.159.489-.865 1.405-1.434 2.437-1.31.321.037.646.091.957.18.73.214 1.454.445 2.181.68 1.238.406 2.473.829 3.716 1.228a172.25 172.25 0 0 0 11.287 3.215c1.383.342 2.771.546 4.19.537 2.066-.012 4.132-.038 6.196-.074a18.254 18.254 0 0 0 3.236-.356c1.068-.209 2.152-.322 3.215-.542 3.532-.733 6.912-1.939 10.16-3.48 1.465-.697 2.868-1.554 4.218-2.464 1.803-1.212 3.55-2.513 5.064-4.096.674-.706 1.378-1.387 2.071-2.08 2.084-2.085 3.825-4.43 5.398-6.926 2.034-3.231 3.657-6.669 5.275-10.113.325-.685.572-1.408.841-2.119.426-1.119.853-2.237 1.251-3.364.36-1.023.722-2.051 1.021-3.095.695-2.399 1.433-4.79 2.025-7.22.102-.419.282-.821.462-1.216.408-.89 1.656-1.297 2.505-.808.375.213.758.445 1.061.744.617.608 1.229 1.235 1.768 1.913.878 1.112 1.836 2.147 2.832 3.151 2.069 2.083 4.138 4.167 6.218 6.239 1.307 1.304 2.658 2.557 4.118 3.705 1.449 1.139 2.794 2.409 4.282 3.512 2.451 1.814 4.943 3.554 7.654 4.96.194.099.384.202.572.311 4.366 2.553 9.078 4.116 14.015 5.143 3.234.672 6.478.671 9.736.509 1.74-.087 3.449-.485 5.119-.961 1.774-.507 3.521-1.123 5.249-1.777 1.628-.618 3.156-1.455 4.64-2.374 2.129-1.318 4.145-2.794 6.11-4.341a17.255 17.255 0 0 0 2.985-2.999c1.929-2.491 3.848-4.99 5.439-7.725 1.967-3.382 4.088-6.673 5.944-10.122.616-1.146 1.273-2.274 2.077-3.308.599-.768 1.916-.854 2.605-.134.298.31.581.648.8 1.016.776 1.309 1.53 2.632 2.28 3.956 1.234 2.175 2.452 4.358 3.692 6.526a135.208 135.208 0 0 0 1.836 3.081c2.096 3.436 4.194 6.867 6.439 10.204a114.605 114.605 0 0 0 3.025 4.25c.847 1.139 1.796 2.181 2.775 3.199 1.439 1.497 3.04 2.779 4.742 3.966 3.226 2.246 6.64 4.141 10.199 5.784.888.409 1.793.783 2.711 1.12 1.224.451 2.473.833 3.698 1.274 2.158.778 4.387 1.261 6.633 1.684 1.279.242 2.568.451 3.858.625.861.117 1.732.176 2.6.206 4.021.132 8.045.123 12.066-.01 1.195-.04 2.386-.138 3.559-.406.634-.147 1.282-.244 1.923-.355 4.857-.834 9.485-2.419 13.928-4.498 3.445-1.612 6.734-3.536 9.68-5.987a19.95 19.95 0 0 1 1.578-1.152 2.95 2.95 0 0 1 1.203-.478c.581-.088 1.083.074 1.456.523.374.451.439.988.227 1.528a2.818 2.818 0 0 1-.485.839c-.576.651-1.194 1.263-1.787 1.898-2.391 2.548-4.471 5.325-6.104 8.421-.256.481-.492.971-.748 1.451-2.75 5.135-4.363 10.642-5.387 16.347-.115.639-.154 1.292-.229 1.941-.087.755-.132 1.519-.273 2.265-.263 1.395-.343 2.804-.352 4.217a614.196 614.196 0 0 0-.006 4.894c.009 1.849.098 3.687.438 5.517.295 1.601.408 3.23.729 4.835.447 2.24 1.024 4.448 1.608 6.654.222.839.514 1.662.812 2.478.456 1.222.961 2.424 1.428 3.644 1.715 4.485 4.021 8.667 6.486 12.777 2.521 4.207 5.437 8.123 8.504 11.939 1.16 1.442 2.299 2.892 3.597 4.212.153.156.303.316.431.492 1.552 2.113 3.434 3.924 5.271 5.773a869.647 869.647 0 0 0 6.016 5.979c1.394 1.373 2.774 2.76 4.354 3.932.436.322.826.707 1.219 1.08 1.423 1.342 2.82 2.715 4.34 3.951.163.136.292.32.416.497.687.964.07 2.116-.776 2.411-.205.072-.414.146-.626.168-.43.046-.867.056-1.502.093M17.562 129.897l.011.014.642-.664c.16-.128.333-.242.477-.385.046-.047.014-.166.018-.251-.382.05-.366.397-.485.647-.22.214-.443.428-.663.639m50.899-87.408c-.22.217-.438.434-.654.652l-.012-.011.652-.653.655-.654c.932-.659 1.676-1.461 1.952-2.61l.016.017c-.937.656-1.656 1.471-1.955 2.604-.219.218-.437.436-.654.655m-3.922 3.907l.004.001-.004-.001zm-1.959 1.299l-.652.653.008.008.653-.651-.009-.01zm12.409-14.336c-.323.38-.53.82-.655 1.299l-.012-.013c.319-.383.525-.82.651-1.302.324-.383.533-.823.652-1.31a3.34 3.34 0 0 0 .656-1.3c.315-.385.521-.825.658-1.301l-.002-.002-.646 1.311a4.399 4.399 0 0 0-.651 1.303 3.62 3.62 0 0 0-.651 1.315m137.005 197.665l-.016.013c-.077-.312-.154-.622-.233-.933-.437-1.693-1.166-3.217-2.464-4.436-.386-.361-.689-.813-1.044-1.212-.059-.065-.185-.099-.283-.101-.227-.008-.373.131-.425.375-.119.531-.068 1.066-.01 1.598.069.657.31 1.245.737 1.75.695.82 1.476 1.553 2.311 2.227.424.342.91.562 1.427.719M69.757 212.758c.725-.47 1.342-1.062 1.892-1.726.413-.5.825-1.021.991-1.641.317-1.171 1.008-2.117 1.664-3.094.138-.202.084-.422-.1-.551a.496.496 0 0 0-.294-.063c-.651.077-1.22.387-1.793.673-.714.355-1.19.928-1.366 1.695-.353 1.564-.659 3.143-.985 4.717l-.009-.01zm-.645 4.581c1.49-.348 2.889-.939 4.275-1.57 1.484-.67 2.97-1.333 4.457-2.006.197-.088.388-.193.577-.297a2.83 2.83 0 0 0 1.286-1.425c.419-1.003.744-2.042.813-3.136.016-.191-.109-.41-.221-.586-.146-.234-.629-.324-.882-.213-.2.09-.412.151-.598.26-1.122.662-2.24 1.333-3.354 2.009a4.015 4.015 0 0 0-1.206 1.085c-1.082 1.505-2.393 2.807-3.66 4.146-.523.553-1.002 1.146-1.5 1.721l.013.012zm12.389-15.018c.961-.225 1.83-.672 2.707-1.111 2.332-1.161 4.664-2.326 7.007-3.473.876-.432 1.77-.833 2.669-1.209a156.92 156.92 0 0 1 14.074-5.148c3.425-1.066 6.896-1.982 10.418-2.64 3.625-.677 7.252-1.405 10.948-1.63a9.503 9.503 0 0 0 1.291-.181c1.179-.232 2.37-.306 3.567-.312 3.474-.012 6.952-.019 10.429-.018 1.411.002 2.819.096 4.214.355.744.138 1.511.197 2.267.236 1.306.067 2.594.24 3.875.498 1.594.326 3.212.566 4.799.918 2.97.658 5.916 1.405 8.815 2.341 3.938 1.269 7.703 2.96 11.488 4.599.496.215.964.501 1.439.764.666.367 1.306.781 1.988 1.117 2.641 1.296 5.091 2.91 7.517 4.559 2.43 1.648 4.797 3.373 6.929 5.404.474.449.979.86 1.489 1.268 2.044 1.633 3.895 3.463 5.511 5.521.876 1.111 1.837 2.145 2.82 3.158.17.177.389.214.594.098.083-.044.176-.15.187-.239.225-1.72.503-3.435.632-5.161.131-1.738.426-3.447.703-5.162.541-3.364 2.125-9.131 3.31-12.248 1.081-2.85 2.404-5.584 3.775-8.301 1.668-3.307 3.619-6.43 5.814-9.414 1.807-2.451 3.842-4.713 5.779-7.055.758-.918 1.637-1.744 2.531-2.535 1.462-1.297 2.934-2.588 4.48-3.779 4.916-3.801 10.082-7.191 15.908-9.462.306-.118.604-.249.897-.392 1.273-.615 2.605-1.088 3.95-1.52 3.207-1.027 6.446-1.951 9.767-2.545 1.069-.193 2.155-.297 3.215-.521 1.392-.29 2.803-.334 4.209-.449 1.405-.113 2.804-.312 4.208-.465.214-.025.435-.018.65-.02 2.172-.01 4.348-.087 6.495.363.316.066.646.101.972.104 2.074.019 4.103.407 6.142.725.644.101 1.289.197 1.923.339 1.173.262 2.354.394 3.554.429l-.006.005c-.656-.877-1.442-1.625-2.292-2.309-.594-.476-1.213-.928-1.747-1.467-2.604-2.618-5.386-5.064-7.666-7.998a12.081 12.081 0 0 0-.867-.975c-1.665-1.716-3.23-3.518-4.754-5.363-1.248-1.508-2.491-3.018-3.67-4.576-4.209-5.563-7.978-11.397-10.983-17.706-1.546-3.244-2.812-6.597-4.054-9.963a16.272 16.272 0 0 1-.473-1.559c-.924-3.578-1.889-7.146-2.375-10.822-.171-1.296-.346-2.586-.354-3.89-.021-2.828-.037-5.653-.046-8.481a48.364 48.364 0 0 1 .617-7.788c.73-4.528 1.839-8.939 3.556-13.191.895-2.218 1.783-4.438 2.918-6.548.12-.223.041-.44-.171-.561a.393.393 0 0 0-.311-.022c-2.778 1.25-5.643 2.268-8.544 3.196-2.177.695-4.391 1.224-6.631 1.685-1.921.398-3.875.539-5.801.864a21.94 21.94 0 0 1-3.569.31c-1.412.012-2.827.024-4.241.021-1.848-.006-3.696-.011-5.518-.414a7.552 7.552 0 0 0-1.295-.146c-2.185-.102-4.313-.545-6.429-1.042-5.097-1.193-10.048-2.812-14.704-5.243a41.24 41.24 0 0 0-1.455-.734c-3.648-1.751-6.926-4.076-10.122-6.53-.951-.729-1.833-1.551-2.579-2.483-1.427-1.779-2.907-3.514-4.201-5.404-4.546-6.643-8.743-13.501-12.705-20.507-.372-.661-.794-1.297-1.209-1.933-.116-.178-.301-.312-.445-.472-.182-.188-.728-.215-.908-.021-.222.235-.477.456-.631.729a175.736 175.736 0 0 1-8.683 13.793c-2.009 2.885-4.452 5.345-7.119 7.584-2.422 2.03-5.121 3.669-7.92 5.137-1.937 1.014-3.991 1.712-6.06 2.394-3.326 1.095-6.73 1.733-10.246 1.667a126.838 126.838 0 0 0-3.264-.013c-2.962.019-5.842-.532-8.673-1.336-2.933-.831-5.772-1.931-8.558-3.162a22.437 22.437 0 0 1-2.032-1.037c-3.3-1.901-6.531-3.908-9.525-6.273-2.472-1.953-4.957-3.892-7.179-6.143-2.064-2.087-4.167-4.135-6.25-6.201-.539-.536-1.065-1.088-1.605-1.623a9.975 9.975 0 0 0-.734-.642.645.645 0 0 0-.602-.129.534.534 0 0 0-.408.449c-.255 1.829-.495 3.658-.749 5.49-.091.644-.189 1.29-.327 1.927-1.329 6.233-3.793 12.002-7.163 17.398-1.272 2.034-2.767 3.896-4.272 5.756-1.581 1.948-3.332 3.722-5.306 5.277-.597.474-1.188.954-1.775 1.437a26.36 26.36 0 0 1-4.33 2.895c-1.149.616-2.305 1.225-3.491 1.771-3.475 1.601-7.1 2.714-10.925 3.094a27.31 27.31 0 0 0-1.618.212 23.8 23.8 0 0 1-7.787.007c-.538-.085-1.076-.181-1.616-.201-1.641-.06-3.239-.368-4.84-.675-3.525-.677-7.037-1.397-10.445-2.551-.512-.173-1.05-.261-1.581-.366-.073-.014-.205.095-.249.178a.403.403 0 0 0 0 .314c.309.592.843.988 1.3 1.446 2.224 2.236 4.461 4.459 6.676 6.7a24.427 24.427 0 0 1 1.748 1.936c1.623 2.044 3.182 4.137 4.547 6.363.968 1.574 1.985 3.125 2.751 4.809 1.491 3.28 2.643 6.669 3.18 10.247.162 1.072.443 2.13.465 3.223.079 3.476.146 6.941-.473 10.4-.71 3.974-1.652 7.856-3.15 11.616-1.581 3.973-3.76 7.589-6.192 11.071a36.562 36.562 0 0 1-4.66 5.441 491.871 491.871 0 0 0-3.272 3.183c-.234.228-.463.46-.693.688-.319.314-.162.947.273 1.064 1.154.311 2.303.64 3.465.912 6.141 1.449 12.213 3.133 18.159 5.252.204.072.414.134.617.211 1.118.422 2.238.841 3.356 1.264 3.568 1.35 6.948 3.102 10.297 4.9 1.63.873 3.193 1.867 4.749 2.861 1.746 1.107 3.378 2.375 4.981 3.675 1.014.821 1.995 1.683 2.997 2.519a23.818 23.818 0 0 1 3.213 3.232c.481.589.919 1.217 1.445 1.768 1.66 1.743 2.998 3.73 4.232 5.776 2.026 3.36 3.677 6.898 4.751 10.696.863 3.051 1.138 6.193 1.527 9.315.028.215.01.435.018.651.06 1.639-.188 3.246-.393 4.865a39.858 39.858 0 0 1-1.97 8.229c-.327.922-.599 1.861-.9 2.793l-.003-.002zM70.358 186.45c.212-.023.456.018.629-.079 2.762-1.495 5.422-3.159 8.07-4.845.091-.059.172-.132.255-.201.428-.371.694-.836.704-1.404.006-.429-.004-.869-.092-1.287-.495-2.344-1.343-4.566-2.352-6.729-.089-.191-.241-.356-.361-.533-.217-.317-.858-.439-1.179-.221-.178.121-.384.211-.536.359-2.148 2.137-4.292 4.28-6.431 6.428a5.407 5.407 0 0 0-.607.758 2.543 2.543 0 0 0-.432 1.852c.03.213.06.432.126.637.507 1.54 1.016 3.082 1.543 4.617.065.19.24.353.382.508.07.07.186.095.281.14m155.179 16.36c-.055-.498-.069-.937-.155-1.357-.299-1.488-.619-2.971-.933-4.457-.313-1.483-.637-2.965-.892-4.463-.342-2.027-.8-4.039-1.211-6.057-.019-.106-.057-.209-.089-.313-.067-.229-.205-.39-.418-.425a.52.52 0 0 0-.545.251c-1.146 1.846-2.069 3.806-2.928 5.796-.266.615-.284 1.264-.136 1.914.024.106.045.213.077.315 1.042 3.311 2.085 6.62 3.354 9.852.556 1.411 1.003 2.868 1.769 4.189.123.215.313.319.547.263.086-.021.183-.131.209-.221a157.68 157.68 0 0 0 1.059-3.752c.137-.522.203-1.059.292-1.535m-5.215 27.628c.056-.894-.155-1.713-.703-2.432-.391-.516-.767-1.041-1.164-1.552-1.529-1.962-2.965-3.984-4.159-6.17-.154-.282-.363-.536-.552-.798-.063-.086-.146-.159-.224-.232-.179-.18-.388-.209-.592-.058a.45.45 0 0 0-.171.265c-.256 2.045-.148 4.087.085 6.125.032.319.12.639.219.945.889 2.775 1.79 5.548 2.96 8.221.219.5.487.971.865 1.36.523.542 1.079 1.054 1.628 1.571.075.072.189.098.273.16.251.178.705-.041.78-.342.232-.955.145-1.934.28-2.893.151-1.068.324-2.134.465-3.204.044-.315.01-.643.01-.966m-153.54-54.102c.106-.028.226-.032.31-.089.353-.245.731-.47 1.034-.769 1.997-1.979 3.977-3.976 5.958-5.97.228-.231.425-.489.637-.736.316-.373.392-1.098.186-1.536a10.304 10.304 0 0 0-1.832-2.655c-.406-.425-1.239-.612-1.807-.348-.487.228-.996.444-1.419.768-1.897 1.439-3.742 2.941-5.153 4.896-.125.174-.267.338-.403.506-.526.659-.6 1.374-.22 2.117a131.448 131.448 0 0 0 1.668 3.154c.097.182.266.348.444.458.172.111.396.139.597.204m156.141 37.179c-.037-.209-.089-.641-.193-1.061-.08-.314-.213-.615-.345-.912-1.807-4.074-3.483-8.201-4.904-12.427-.067-.204-.161-.401-.253-.599-.046-.099-.106-.191-.165-.283-.128-.198-.305-.311-.523-.311a.574.574 0 0 0-.521.311c-.615 1.162-.972 2.416-1.221 3.697a5.488 5.488 0 0 0 .116 2.582c.208.732.423 1.469.718 2.166 1.105 2.602 2.347 5.141 3.779 7.579.494.841 1.095 1.618 1.652 2.417.205.297.618.466.842.363.319-.145.447-.438.547-.746.268-.829.461-1.674.471-2.776m6.568-22.593c-.055-.603-.072-1.146-.16-1.679a1185.07 1185.07 0 0 0-1.375-8.332c-.144-.854-.316-1.701-.482-2.553a.63.63 0 0 0-.373-.48.528.528 0 0 0-.594.116c-.914.938-1.608 2.036-2.206 3.192a2.712 2.712 0 0 0-.279 1.578c.05.43.13.854.215 1.279.787 3.929 1.576 7.854 2.373 11.782.043.204.156.399.264.586a.459.459 0 0 0 .244.186c.209.063.408-.018.526-.229.691-1.234 1.152-2.565 1.568-3.911.159-.511.196-1.06.279-1.535M71.454 202.98c-.021-.21 0-.103 0 .003-.002.254.424.641.667.594 1.952-.363 3.664-1.264 5.282-2.367.257-.174.442-.469.623-.738.18-.266.338-.555.459-.854.893-2.213 1.61-4.479 2.024-6.831.016-.103-.03-.214-.028-.321.002-.26-.455-.576-.712-.493-.206.068-.431.093-.615.195-2.181 1.208-4.237 2.607-6.257 4.058-.752.54-1.079 1.326-1.135 2.236-.09 1.403-.191 2.805-.308 4.518m-6.393-46.565c-.037-.102-.051-.223-.117-.302-.684-.845-1.488-1.567-2.432-2.108-.389-.227-.837-.223-1.25-.039a4.732 4.732 0 0 0-.837.494c-2.012 1.479-3.766 3.243-5.441 5.088-.329.358-.279 1.086.069 1.501.629.745 1.294 1.452 2.074 2.046.405.31 1.131.348 1.523.051.257-.199.531-.379.762-.604a811.84 811.84 0 0 0 4.882-4.758c.229-.226.44-.48.606-.754.108-.176.114-.407.161-.615m15.781 29.576c-.061-.369-.138-.901-.239-1.427-.065-.347-.74-.632-1.071-.481-.096.045-.205.068-.3.117-2.686 1.402-5.167 3.137-7.725 4.747-.584.364-.863.989-.76 1.679.125.853.328 1.693.515 2.535.112.513.805.736 1.325.422 1.567-.957 3.137-1.908 4.686-2.887a44.88 44.88 0 0 0 2.405-1.652c.639-.469.999-1.121 1.08-1.915.031-.323.046-.646.084-1.138m-26.245-36.75c-.201.078-.421.124-.6.236a4.895 4.895 0 0 0-.77.594c-1.415 1.355-2.578 2.921-3.692 4.524-.291.421-.26 1.134.039 1.534a6.068 6.068 0 0 0 1.945 1.691c.468.264 1.171.262 1.543-.021.208-.157 4.769-4.049 4.939-4.223.153-.157.292-.321.438-.481.565-.62.5-1.508-.133-2a15.16 15.16 0 0 0-2.457-1.581 2.515 2.515 0 0 0-.61-.22c-.206-.043-.427-.035-.642-.053m-22.4-70.198c-.059-.326-.068-.663-.18-.956-.557-1.417-1.284-2.746-2.042-4.062-.104-.187-.263-.341-.389-.517-.229-.316-.892-.38-1.181-.113-.079.073-.182.12-.251.2a729.309 729.309 0 0 0-3.16 3.71 4.326 4.326 0 0 0-.369.537c-.284.483-.408 1.014-.304 1.559.228 1.183.71 2.268 1.335 3.293.119.198.615.423.857.374.211-.044.447-.057.623-.165a292.393 292.393 0 0 0 4.152-2.549c.178-.112.353-.269.466-.446.177-.265.292-.565.443-.865m38.064 82.462c-.046-.209-.031-.456-.143-.621-.549-.816-1.244-1.498-2.037-2.082-.31-.227-.938-.254-1.235-.029-.087.065-.19.105-.271.176-1.239 1.061-2.489 2.104-3.705 3.189-.809.724-1.573 1.5-2.341 2.27-.225.229-.401.51-.59.775a.67.67 0 0 0-.113.303c-.014.213-.062.451.009.636.359.934.985 1.672 1.779 2.272.2.152.728.154.936.043.588-.318 1.02-.809 1.472-1.277 1.74-1.795 3.525-3.546 5.653-4.896.179-.112.315-.299.451-.462.068-.082.089-.199.135-.297m-18.82-13.751c-.107-.187-.166-.431-.323-.55-1.048-.79-2.249-1.298-3.471-1.76-.479-.178-1.201-.037-1.506.338a40.435 40.435 0 0 1-4.006 4.27c-.075.068-.121.178-.16.275-.085.207-.091.443.063.605.22.232.465.466.742.616 1.049.569 1.972 1.356 3.085 1.812.423.176.846.141 1.25-.083.093-.053.195-.1.273-.172 1.567-1.368 2.833-2.991 3.954-4.729.105-.16.069-.412.099-.622m170.088 74.612c.063-.664-.064-1.287-.445-1.846-.121-.18-.238-.357-.376-.525-2.659-3.291-4.83-6.871-6.438-10.789a1.044 1.044 0 0 0-.169-.271.68.68 0 0 0-.242-.191c-.217-.086-.407.001-.489.247-.137.409-.26.823-.354 1.243a3.936 3.936 0 0 0 .141 2.227c.221.607.418 1.229.681 1.817.826 1.874 1.73 3.714 2.754 5.485 1.026 1.776 2.18 3.465 3.583 4.971.062.07.188.104.286.114a.472.472 0 0 0 .521-.294 7.12 7.12 0 0 0 .547-2.188m11.834-44.969c.019 0 .036-.003.057-.003 0-1.405.007-2.813-.005-4.218a13.276 13.276 0 0 0-.081-1.293.666.666 0 0 0-.334-.516c-.191-.11-.416-.126-.606.007-.988.685-1.782 1.569-2.507 2.517-.267.35-.425.772-.379 1.215.138 1.287.299 2.574.47 3.861.103.75.276 1.492.352 2.244.162 1.613.514 3.197.836 4.785.047.244.249.355.502.311a.497.497 0 0 0 .271-.161c.916-1.132 1.399-2.431 1.42-3.882.019-1.622.004-3.245.004-4.867M35.675 94.101c0-.634.005-.85-.001-1.063a9.25 9.25 0 0 0-.029-.646c-.02-.213-.06-.425-.085-.637-.08-.636-.778-1.122-1.403-1.028-.968.146-1.867.506-2.773.838-3.122 1.146-3.395 1.58-3.207 5.003.011.209.083.42.123.629.062.348.573.728.959.714.215-.008.431.006.643-.016 1.504-.145 2.966-.497 4.416-.91.669-.192 1.084-.702 1.203-1.383.109-.629.133-1.278.154-1.501m98.751 100.067c-.019 0-.035 0-.051.003.032.755.059 1.51.105 2.266.016.211.102.418.156.625.06.241.456.597.692.627 1.401.176 2.798.119 4.186-.127.452-.079 1.003-.729.951-1.173a270.628 270.628 0 0 0-.545-4.825c-.074-.59-.717-1.203-1.281-1.326-.968-.202-1.936-.222-2.897-.01-.565.127-.96.495-1.139 1.045-.099.305-.16.631-.17.95-.027.647-.007 1.297-.007 1.945m35.61 7.235c0-.223.03-.445-.004-.653-.252-1.489-.489-2.983-.788-4.466-.159-.786-.69-1.328-1.415-1.67-.892-.413-1.814-.68-2.802-.75-.526-.035-1.057.41-1.104.957-.14 1.633.021 3.23.436 4.815.271 1.034.89 1.704 1.888 2.038.717.238 1.437.479 2.161.7.198.06.423.057.635.085.378.047.873-.346.932-.747.012-.106.04-.211.061-.309m-44.361-4.437c-.012-1.4-.342-2.871-.619-4.35-.112-.595-.814-1.102-1.424-1.097-.88.005-1.704.241-2.489.599-.514.234-.877.66-.96 1.22-.16 1.061-.259 2.133-.378 3.199a34.181 34.181 0 0 0-.14 1.603c-.04.636.515 1.285 1.134 1.354 1.433.165 2.777-.131 4.061-.756.41-.203.606-.594.723-1.016.058-.205.054-.427.092-.756m59.524 9.428c-.04-.938-.05-1.808-.125-2.672-.069-.796-.448-1.447-1.129-1.887a23.202 23.202 0 0 0-3.441-1.832.785.785 0 0 0-.317-.045.501.501 0 0 0-.508.344c-.154.418-.143.855-.07 1.281.242 1.392.446 2.787.507 4.199.05 1.312.683 2.257 1.812 2.887.472.263.953.516 1.442.748.19.092.415.106.623.162.258.07.713-.135.833-.387.092-.193.215-.394.236-.597.066-.752.097-1.512.137-2.201M22.913 65.176c-.072-.2-.095-.436-.217-.591-1.133-1.435-2.385-2.75-3.873-3.825-.289-.206-.947-.074-1.176.227-.063.086-.16.149-.214.237-.605 1.014-1.227 2.017-1.8 3.046-.335.602-.343 1.245.081 1.821.765 1.036 1.639 1.982 2.567 2.873.165.158.718.182.918.038 1.217-.883 2.277-1.947 3.394-2.947a.638.638 0 0 0 .178-.263c.061-.2.097-.41.142-.616m9.28 44.565c-.059-.204-.081-.427-.179-.609-.158-.291-.422-.48-.749-.572a5.076 5.076 0 0 0-2.57-.021c-.546.132-.967.477-1.24.973a5.472 5.472 0 0 0-.404.885c-.433 1.339-.85 2.684-1.265 4.029-.064.206-.1.421-.125.637-.086.689.104 1.299.642 1.743.331.273.708.489 1.083.703.334.188.954.062 1.199-.22.215-.245.441-.478.623-.748 1.337-1.997 2.192-4.217 2.956-6.479.031-.1.02-.214.029-.321m115.702 84.672c-.009-.104-.029-.749-.092-1.391a3.925 3.925 0 0 0-.208-.939c-.179-.521-.493-.957-.971-1.242a4.549 4.549 0 0 0-3.095-.613c-.472.07-1.041.605-1.096 1.053-.037.32-.095.645-.071.961.115 1.504.4 2.98.795 4.432.116.437.461.73.857.906.795.354 1.625.543 2.503.516.615-.021 1.239-.582 1.305-1.211.021-.215.062-.428.067-.643.012-.43.006-.858.006-1.829m5.987 4.434c.247-.02.463-.031.678-.057.453-.053 1.006-.664 1.01-1.12.005-.321.021-.647-.019-.966-.147-1.182-.312-2.357-.472-3.533-.013-.107-.037-.215-.056-.32-.128-.686-.479-1.221-1.168-1.415-.724-.204-1.469-.328-2.21-.479-.101-.021-.215.021-.32.021-.353.002-.909.396-.994.725-.085.312-.205.631-.206.943 0 1.295.032 2.592.065 3.889.004.21.08.421.13.629.112.451.4.777.79.98.874.457 1.82.662 2.772.703m23.646 6.394c.013-.213.052-.43.039-.641a379.59 379.59 0 0 0-.256-3.537c-.042-.535-.082-1.071-.162-1.602-.081-.55-.347-1.033-.788-1.363a8.804 8.804 0 0 0-3.492-1.59c-.104-.021-.215-.006-.319-.018-.261-.027-.655.348-.638.616.091 1.394.312 2.776.595 4.138.651 3.115.646 3.287 4.265 4.457.092.027.212-.011.31-.039.212-.058.359-.204.446-.421M38.84 148.933c.574-.047.983-.201 1.323-.468.592-.466 1.18-.943 1.723-1.463.542-.521 1.037-1.093 1.531-1.66.137-.154.194-.378.281-.572.115-.251-.042-.723-.266-.871-1.008-.677-2.147-.981-3.317-1.187-.203-.039-.435.008-.635.073a4.272 4.272 0 0 0-.883.391c-1.374.85-2.738 1.716-4.102 2.581-.089.057-.147.158-.23.225-.205.166-.18.713.042.867.087.062.151.162.244.211 1.157.576 2.309 1.16 3.48 1.704.278.133.621.133.809.169m73.36 48.533c.056.733.117 1.704.202 2.672.055.647.718 1.096 1.42.967.53-.098 1.062-.199 1.586-.337 1.063-.276 1.716-1.015 1.806-2.032.139-1.51.181-3.021.046-4.534-.059-.675-.711-1.249-1.325-1.126-.845.168-1.688.36-2.525.563a1.949 1.949 0 0 0-.586.274c-.378.246-.656.588-.667 1.048-.016.755.021 1.511.043 2.505m-81.372-91.722c.518-.038.952-.057 1.383-.101 1.033-.105 1.663-.711 1.929-1.52.325-.989.608-2.551.689-3.504.039-.481-.572-1.069-1.059-1.004-1.291.175-2.576.383-3.832.738-.308.087-.605.246-.878.414a1.607 1.607 0 0 0-.753 1.019 6.007 6.007 0 0 0-.058 2.584c.086.448.621 1.067 1.053 1.146.531.098 1.069.16 1.526.228m-10.215 31.499c-.676-.02-1.31.101-1.854.484-.614.439-1.203.906-1.794 1.375-.345.271-.624.61-.495 1.086.091.332.375.504.7.6 1.237.368 2.474.743 3.714 1.102.306.092.625.16.944.204.884.126 1.715-.006 2.455-.541.79-.572 1.494-1.228 2.062-2.027.237-.335.022-.872-.418-1.032-1.526-.553-3.115-.842-4.689-1.189-.208-.048-.425-.044-.625-.062m220.219 31.649c0 .438-.008.871.002 1.305.006.219.036.436.073.647.04.233.171.401.375.483a.591.591 0 0 0 .605-.083c.949-.734 1.73-1.644 2.514-2.545.286-.333.519-.714.615-1.138.278-1.274.635-2.536.714-3.842.025-.43-.039-.866-.092-1.293-.053-.395-.627-.71-.997-.625-.769.178-1.375.631-1.991 1.08a3.49 3.49 0 0 0-1.298 1.822c-.439 1.368-.529 2.771-.52 4.189M30.403 139.638c-.638-.039-1.141.105-1.51.557-.681.83-1.352 1.669-2.02 2.51-.246.312-.091.966.241 1.147a14.9 14.9 0 0 0 2.978 1.212c.435.127.852.041 1.253-.135.196-.089.39-.184.573-.296.925-.551 1.849-1.102 2.761-1.671.271-.169.509-.394.762-.592.479-.375.392-1.059-.17-1.301-1.588-.677-3.228-1.187-4.868-1.431m161.176 71.125l.057-.012c-.271-1.263-.536-2.528-.821-3.787a1.744 1.744 0 0 0-.266-.584c-.483-.752-1.145-1.272-2.018-1.51-.339-.091-.955.275-1.011.62-.018.106-.057.211-.067.315-.163 1.613-.12 3.229-.034 4.842.041.795.386 1.457 1.032 1.928.957.695 1.874 1.453 2.99 1.897.088.034.218.011.311-.027.205-.083.345-.267.313-.495-.15-1.064-.322-2.125-.486-3.187M27.091 70.355c-.028-.173-.036-.281-.068-.385-.307-.961-.902-1.692-1.809-2.141-.419-.209-.854-.106-1.214.152-1.133.82-2.1 1.826-3.014 2.878-.071.081-.119.179-.169.273-.214.388-.321.799-.18 1.232a6.09 6.09 0 0 0 1.709 2.672c.185.168.675.264.912.156.196-.087.41-.156.566-.291a15.699 15.699 0 0 0 2.6-2.837 3.75 3.75 0 0 0 .463-.841c.113-.294.149-.619.204-.868m64.23 133.998c.03 1.033-.019 1.793.19 2.537.106.375.614.779.962.719.106-.018.22-.006.322-.031.848-.209 1.65-.537 2.416-.947.611-.326.994-.84 1.116-1.517.235-1.292.181-2.591.018-3.888-.011-.106-.071-.205-.097-.309-.115-.469-.81-.897-1.265-.797a6.816 6.816 0 0 0-2.632 1.227c-.444.336-.764.789-.853 1.342-.1.641-.137 1.29-.177 1.664m-8.699 6.274c-.047.472.391.827.859.679a28.41 28.41 0 0 0 3.92-1.564 5.35 5.35 0 0 0 .819-.521c.467-.346.661-.838.689-1.404a1.962 1.962 0 0 0-.01-.325c-.096-.97-.19-1.942-.294-2.909-.059-.559-.685-.98-1.169-.828-1.047.329-1.998.836-2.885 1.467-.451.32-.782.762-.919 1.305-.349 1.36-.673 2.73-1.01 4.1M27.936 88.706c.287 0 .398.025.499-.003 1.747-.534 3.483-1.104 5.156-1.851.192-.086.376-.215.534-.358.242-.219.431-.508.442-.833a5.923 5.923 0 0 0-.594-2.81c-.046-.094-.125-.174-.188-.262-.243-.338-.806-.492-1.154-.33-1.472.687-2.741 1.696-4.089 2.576-.36.234-.705.503-1.003.809a2.197 2.197 0 0 0-.51.799c-.219.643-.117 1.274.265 1.842.194.287.483.412.642.421m207.675 84.107c0 1.607-.006 2.693.003 3.779.003.433.032.867.064 1.301.017.238.133.421.326.508a.454.454 0 0 0 .572-.139c.337-.424.652-.863.97-1.305a5.521 5.521 0 0 0 1.064-3.357c-.012-1.954-.003-3.91-.018-5.865 0-.211-.088-.42-.127-.631-.05-.281-.499-.492-.793-.377-1.219.489-1.952 1.346-1.991 2.696-.039 1.305-.055 2.607-.07 3.39m-130.004 26.514c.078.763.14 1.518.241 2.268.079.599.785 1.131 1.415 1.113.551-.014 1.062-.168 1.564-.393.777-.348 1.154-.959 1.203-1.779.102-1.646-.208-3.236-.695-4.801-.064-.216-.532-.535-.765-.531-.787.01-1.501.245-2.094.762-.33.287-.589.654-.647 1.1-.092.751-.15 1.506-.222 2.261m56.107-2.355c-.062-1.061-.091-1.916-.161-2.771-.07-.829-.551-1.382-1.302-1.681a6.988 6.988 0 0 0-1.236-.327c-.205-.038-.427 0-.637.029-.352.046-.819.525-.849.869-.027.319-.074.644-.035.957.129 1.061.289 2.122.443 3.183.06.424.115.846.2 1.268.092.442.385.769.744 1.008.355.238.758.385 1.194.453.668.104 1.376-.336 1.447-.953.087-.742.142-1.487.192-2.035m-29.933-2.603l-.03-.63c-.016-.318-.018-.644-.058-.961a5.184 5.184 0 0 0-.197-.937c-.141-.421-.418-.757-.849-.897a2.938 2.938 0 0 0-.934-.152c-.989.018-1.66.625-1.749 1.525a20.002 20.002 0 0 0 .063 4.483 1.69 1.69 0 0 0 1.482 1.457 4.01 4.01 0 0 0 1.586-.114c.477-.138.923-.707.888-1.207-.05-.744-.115-1.488-.202-2.567m-28.714 6.947c-.026-.735-.035-1.382-.081-2.029-.022-.317-.111-.632-.182-.944-.105-.474-.773-.938-1.227-.855-.863.157-1.648.486-2.292 1.102a1.61 1.61 0 0 0-.467.834c-.062.312-.115.637-.104.957.045 1.295.307 2.562.56 3.832.021.098.093.189.145.279.117.201.291.334.522.348 1.008.072 1.914-.218 2.705-.834.259-.199.41-.504.417-.841.017-.646.004-1.295.004-1.849m95.124 14.047c-.028-.515-.064-1.265-.12-2.014a2.464 2.464 0 0 0-.403-1.212c-.676-.986-1.503-1.816-2.551-2.406-.094-.051-.205-.062-.307-.096-.4-.141-.88.259-.844.709.056.701.752 4.853.914 5.385.093.309.203.613.324.911a3.896 3.896 0 0 0 1.411 1.72c.169.115.389.166.591.223.301.083.681-.168.774-.43.294-.836.163-1.7.211-2.79m2.188 2.76c.028.508.057 1.265.126 2.017.062.664.349 1.246.788 1.744.718.809 1.483 1.57 2.369 2.202a.628.628 0 0 0 .611.073.595.595 0 0 0 .386-.467c.199-1.186.111-2.371-.053-3.551-.074-.543-.295-1.041-.59-1.495-.708-1.099-1.561-2.065-2.607-2.858a.631.631 0 0 0-.304-.097c-.226-.022-.422.065-.521.267-.293.615-.156 1.275-.205 2.165M15.702 58.573c-.068-.204-.104-.425-.206-.612a2.865 2.865 0 0 0-1.147-1.124 1.348 1.348 0 0 0-.297-.125c-.327-.089-.677-.104-.927.132-1.039.984-1.849 2.127-2.283 3.502-.099.311-.016.655.162.938.417.659.978 1.157 1.731 1.413.357.12.991-.057 1.193-.329.722-.965 1.255-2.03 1.672-3.157.074-.194.07-.422.102-.638m5.017 67.102a.637.637 0 0 0 .34.516c.204.113.427.135.629.019.279-.16.596-.308.794-.543a167.903 167.903 0 0 0 3.308-4.017c.197-.244.309-.572.406-.876.146-.448.029-.859-.299-1.194-.15-.155-.327-.283-.499-.412-.085-.063-.192-.099-.289-.146-.396-.189-.941-.038-1.148.334a3731.611 3731.611 0 0 0-3.136 5.691.963.963 0 0 0-.089.31c-.017.104-.012.212-.017.318M260.873 155.8c.049-.433-.383-.898-.767-.861-.107.012-.217-.004-.321.016a12.323 12.323 0 0 0-3.322 1.132c-.59.298-1.053.737-1.336 1.332a7.649 7.649 0 0 0-.452 1.194c-.058.192-.021.418-.015.629.009.291.449.578.699.469 1.565-.686 3.069-1.496 4.544-2.359.179-.105.334-.268.476-.426.291-.325.472-.706.494-1.126m-246.32-19.886a7.42 7.42 0 0 0-3.829.929c-.473.257-.89.604-1.223 1.033a.845.845 0 0 0-.141.291c-.067.225-.019.437.155.574.526.41 1.173.504 1.803.627.888.178 1.705-.021 2.455-.523.537-.359 1.049-.752 1.465-1.252.136-.164.233-.359.346-.541.138-.218.008-.734-.246-.851-.287-.132-.594-.218-.785-.287m236.735 22.527c-.21.032-.425.043-.628.099-1.123.309-1.867.994-2.111 2.162-.153.732-.331 1.459-.452 2.197-.051.307.021.633.041.951.019.262.505.49.774.381 1.253-.52 2.137-1.402 2.542-2.705.224-.713.351-1.451.513-2.18.021-.102-.024-.211-.023-.316.003-.265-.386-.621-.656-.589M7.794 56.995c-.067.557-.084.665-.09.771a2.829 2.829 0 0 0 0 .319.727.727 0 0 0 .274.553c.204.173.669.094.887-.145a13.318 13.318 0 0 0 2.131-3.195c.194-.409.158-.84-.074-1.232a2.71 2.71 0 0 0-1.161-1.077c-.38-.186-.98.012-1.073.386-.337 1.352-.667 2.705-.894 3.62m261.28 96.384c-.036-.214-.171-.387-.408-.406-1.434-.122-2.744.327-4.012.925-.179.082-.308.291-.44.457a.82.82 0 0 0-.123.292c-.064.228-.009.427.173.557.08.06.198.122.285.11 1.498-.209 2.911-.663 4.23-1.409a.68.68 0 0 0 .212-.233c.047-.089.056-.196.083-.293m5.322-.525c.935-.139 1.361-.194 1.786-.268.094-.02.24-.086.253-.152.042-.182-.12-.275-.399-.275-.752.004-1.515-.068-2.217.298-.069.038-.135.19-.113.265.024.077.157.174.238.172.321-.012.642-.06.452-.04"/><path fill="#FFF" d="M96.143 96.97c-.957 1.535-2.18 2.42-3.954 2.508-.809.04-1.609.253-2.432.392-.01.574-.038 1.072-.025 1.567.073 3.007.136 6.015.236 9.021.053 1.571.164 3.141.278 4.709.046.629.044 1.115-.6 1.553-.597.404-.993 1.101-1.431 1.613-.183-.003-.256.014-.316-.009-1.44-.555-1.661-1.748-1.69-3.102-.065-2.904-.178-5.808-.288-8.71-.072-1.894-.177-3.788-.272-5.792-2.008.005-3.836.786-5.778.805-.371-.487-.532-1.258-1.445-1.039-.021 1.213-.053 2.42-.064 3.626-.02 2.26-.03 4.519-.042 6.779-.001.359-.073.742.026 1.072.408 1.359-.35 2.229-1.199 3.085-.691.697-1.115.778-2.02.426-.903-.352-1.551-1.024-2.175-1.713-2.285-2.53-4.549-5.075-6.822-7.614-.215-.238-.431-.472-.774-.848-.139 1.063-.3 1.986-.369 2.914-.074 1-.114 2.01-.072 3.012.054 1.284.187 2.566.319 3.845.054.531.003.942-.45 1.334-.56.483-1.013 1.093-1.469 1.599-.521-.221-.984-.374-1.397-.615-.218-.126-.449-.384-.497-.619-.219-1.083-.484-2.172-.534-3.268-.166-3.642.424-7.22 1.055-10.789.03-.178.087-.354.084-.53-.021-1.169.54-1.927 1.557-2.475.847-.455 1.677-.423 2.292.258 1.794 1.988 3.593 3.971 5.383 5.961 1.005 1.12 1.997 2.25 3.119 3.514.076-.385.152-.601.155-.819.035-3.121.069-6.242.08-9.361.001-.72.325-1.229.865-1.634.228-.169.492-.289.739-.432.798-.461 1.348-.354 1.743.498.31.667.444 1.415.644 2.085a3.223 3.223 0 0 1 2.294-1.582c2.51-.427 5.021-.859 7.543-1.188 1.951-.253 3.923-.371 5.889-.504.587-.04 1.214-.032 1.814.467M237.961 106.161c.813.6 1.407 1.12 2.074 1.514 3.528 2.072 6.963 4.286 10.234 6.744.494.371.854.939 1.218 1.456.247.353.114.719-.274.894-.876.392-1.768.747-2.67 1.124-1.357-1.525-3.055-2.583-4.74-3.655-2.689-1.708-5.389-3.401-8.189-5.166-.378 1.407.053 2.792-.038 4.16-.092 1.386.05 2.784.093 4.323l-2.604 1.744c-.862-.987-1.178-2.065-1.173-3.302.011-2.941-.017-5.882-.076-8.822-.052-2.544-.168-5.087-.262-7.629-.006-.138-.068-.274-.136-.529l-1.538.485c-.262-.598-.512-1.164-.782-1.783.25-.458.693-.743 1.269-.938 2.01-.683 4.025-1.289 6.165-1.399 1.698-.087 3.394.017 5.005.514 1.805.556 3.304 1.589 3.879 3.539.092.318.132.759-.017 1.021-.452.804-.862 1.739-1.557 2.279-1.375 1.073-2.922 1.93-4.416 2.847-.357.218-.786.316-1.465.579m-2.74-7.935c-.008 1.989.037 3.885.239 5.843 1.957-.278 3.693-.799 5.175-1.934.46-.354.783-.908 1.111-1.407.277-.423.135-.828-.251-1.134-.224-.178-.448-.364-.699-.495-1.741-.914-3.608-.983-5.575-.873M189.51 118.194c-3.011-2.841-5.089-6.217-7.37-9.717-.267 2.112-.297 3.984-.238 5.861.036 1.146.094 2.293.143 3.438.001.072.017.144.013.215-.022.387-1.824 2.183-2.207 2.179a.708.708 0 0 1-.391-.141c-.14-.104-.23-.354-.364-.375-.937-.14-.927-.873-.97-1.535a121.672 121.672 0 0 1-.169-3.867c-.107-3.379.313-6.727.626-10.081.054-.565.062-1.154-.031-1.711-.129-.791.233-1.319.787-1.752.389-.303.83-.548 1.271-.774.623-.32 2.081.411 2.118 1.121.032.624.316 1.085.611 1.571 1.507 2.48 3.008 4.965 4.532 7.437.347.562.775 1.075 1.167 1.609.084-.023.168-.049.251-.072.176-.932.342-1.866.527-2.797.223-1.132.475-2.259.681-3.395.081-.446.191-.948.07-1.362-.425-1.454-.084-2.928-.208-4.39-.08-.938 1.32-2.014 2.35-1.944.751.051 1.564 1.14 1.504 2.065-.153 2.396-.33 4.791-.49 7.187a49.567 49.567 0 0 0-.11 2.148c-.04 1.81-.607 3.522-.924 5.279-.221 1.231-.891 2.014-1.821 2.7-.457.338-.884.716-1.358 1.103M154.473 109.311c.933.648 1.839 1.126 2.552 1.806 1.214 1.157 2.325 2.424 3.434 3.687.296.337.453.814.604 1.251.087.254.148.638.02.823-.478.686-1.037 1.314-1.527 1.916-1.169-.303-1.742-1.027-2.288-1.917-1.201-1.953-2.801-3.529-4.93-4.501-.572-.261-1.129-.563-1.836-.918a26.43 26.43 0 0 0 .895 6.962c-.452.541-.869 1.074-1.319 1.578-.469.525-.604.407-1.267.126-1.063-.449-1.273-1.325-1.491-2.279-.677-2.951-.899-5.957-1.101-8.961-.073-1.108.149-2.266-.103-3.32-.241-1.009.184-1.854.185-2.752-.004-1.461 1.027-1.927 1.945-2.574.057-.039.153-.092.194-.07.903.478 1.475-.297 2.143-.604 2.041-.94 4.089-1.76 6.412-1.417 1.225.181 2.252.688 3.027 1.667.617.779.751 1.652.288 2.517-.469.877-.988 1.746-1.607 2.52-.96 1.201-2.008 2.33-3.049 3.463-.331.359-.752.638-1.181.997m-4.43-1.222c.57-.146.947-.219 1.305-.339.739-.249 1.537-.41 2.186-.81 1.361-.84 2.301-2.124 3.121-3.474.197-.321.283-.737.318-1.12.075-.785-.217-1.11-1.004-1.22-1.807-.251-3.476.198-5.059 1.031-.611.323-.962.835-.946 1.561.031 1.423.052 2.844.079 4.371M210.947 113.035c.438.607 1.011 1.085.93 1.957-.055.596-.285 1.001-.758 1.333-1.473 1.036-2.986 2.018-4.767 2.409-2.271.496-4.558.91-6.846 1.322-.833.15-1.461-.21-2.078-.831-1.158-1.161-1.602-2.526-1.521-4.097.148-2.938.348-5.872.495-8.809.097-1.934.146-3.87.21-5.806.036-1.156 1.259-2.284 2.381-2.025.815.187 1.543.013 2.304-.123 2.539-.452 5.068-.957 7.62-1.32.74-.104 1.538.199 2.465.338-1.479 1.091-2.787 2.068-4.511 2.397-1.828.347-3.618.884-5.422 1.344-.31.08-.609.196-1.015.33l-.353 6.236c.209.023.344.071.466.048 2.498-.472 4.995-.951 7.491-1.43.912-.175 1.821-.309 2.603-.918.3-.235.784-.233 1.209-.346.159.268.248.461.377.625.347.439.18.782-.158 1.129-.864.894-1.893 1.594-3.07 1.914-1.963.533-3.973.898-5.961 1.344-.873.196-1.741.419-2.61.629-.395.096-.625.327-.646.747-.064 1.287-.187 2.572-.185 3.859.004 1.064.324 1.389 1.394 1.275 1.633-.171 3.252-.49 4.876-.762.387-.064.761-.207 1.145-.289 1.025-.218 1.865-.656 2.357-1.663.298-.604.952-.678 1.578-.817M100.206 108.145c.047 1.494.047 2.989.153 4.478.068.957.312 1.901.434 2.856.031.258.002.617-.154.79-.644.709-1.349 1.364-1.982 1.992-.511-.333-.974-.584-1.373-.915a1.24 1.24 0 0 1-.403-.718c-.193-1.236-.404-2.475-.483-3.722-.225-3.512-.04-7.02.218-10.525.071-.959 1.442-2.431 2.329-2.356.526.045 1.023.42 1.661.705.636-.311 1.38-.741 2.173-1.044 2-.77 4.074-1.132 6.207-.694.939.192 1.896.452 2.443 1.389.19.325.221.598.097.997-.36 1.15-1.145 1.993-1.942 2.8-1.227 1.244-2.473 2.491-4.137 3.189 2.018 3.054 5.006 5.347 6.468 8.744l-2.325 2.367a5.586 5.586 0 0 1-1.916-1.828c-1.93-2.938-3.991-5.779-6.728-8.052-.185-.152-.299-.39-.447-.588l-.293.135zm7.724-6.154c-.96-.386-1.796-.307-2.584-.144-1.146.238-2.316.51-3.383.979-1.311.578-1.793 1.72-1.461 2.966.292-.155.557-.336.852-.442.293-.107.638-.247.916-.182.852.198 1.653.011 2.432-.245 1.455-.48 2.489-1.462 3.228-2.932M118.372 107.167c3.396-.85 6.808-1.753 10.085-3.097.709.881.603.814.077 1.655-.952 1.524-2.444 2.16-4.006 2.7-1.959.677-3.944 1.284-5.919 1.912-.422.134-.681.371-.688.838-.019 1.035-.1 2.072-.053 3.104.047 1.064.318 1.298 1.355 1.118 1.161-.202 2.298-.54 3.445-.822.765-.188 1.528-.379 2.292-.571.688-.175 1.337-.307 1.66-1.131.229-.584 1.093-.803 1.576-.606.508.206 1.167 1.23 1.06 1.741-.045.221-.229.426-.387.608-1.137 1.313-2.603 2.116-4.221 2.66-1.456.489-2.919.966-4.394 1.398-.72.21-1.468.335-2.211.446-2.084.31-3.793-1.789-3.788-3.379.007-1.72.024-3.445.157-5.16.256-3.255.556-6.502-.016-9.757-.124-.705.119-1.337.818-1.701.189-.099.41-.174.553-.323.587-.613 1.26-.417 1.734-.001.524.459 1.036.436 1.598.331 1.726-.324 3.442-.689 5.169-1.012.95-.18 1.907-.336 2.868-.448.747-.085 1.508-.098 2.228.476-.763.556-1.489 1.107-2.237 1.624-.805.556-1.697.865-2.668 1.06-1.119.225-2.196.646-3.297.959-.725.205-1.458.374-2.191.548-.329.079-.649.165-.657.579-.025 1.355-.041 2.711-.057 4.065.003.029.038.06.115.186M136.73 110.203l-.808-.666c.045.704.082 1.186.103 1.668.097 2.325.193 4.649.278 6.973.008.206.015.483-.102.608-.68.714-1.396 1.392-2.129 2.11-.365-.246-.608-.464-.895-.589-.613-.268-.812-.779-.861-1.371-.129-1.57-.273-3.14-.341-4.712-.172-3.904-.302-7.81-.45-11.714-.018-.463-.04-.881-.51-1.214-.486-.346-.166-.824.142-1.102.847-.765 1.666-1.61 2.641-2.175 2.814-1.638 5.929-2.102 9.127-1.813.999.09 2.005.535 2.921.989 1.059.528 1.304 1.514.885 2.651-.815 2.205-2.28 3.979-3.922 5.575-1.225 1.188-2.67 2.149-4.021 3.205-.674.526-1.354 1.04-2.058 1.577m-1.312-10.078c.102 2.453.198 4.856.301 7.392 1.679-1.206 3.228-2.275 4.722-3.415.736-.561 1.437-1.2 2.035-1.903.451-.53.746-1.205 1.049-1.843.199-.417.014-.781-.418-.958a3.218 3.218 0 0 0-.814-.214c-2.026-.249-3.999.116-5.958.568-.305.072-.587.236-.917.373M175.52 99.5c-.815.812-1.697 1.447-2.711 1.785-1.349.452-2.747.759-4.129 1.105-.556.14-1.125.225-1.69.327-.362.065-.59.262-.616.636-.102 1.39-.197 2.781-.283 4.172-.01.132.064.271.136.543 3.264-.812 6.6-1.243 9.517-2.827 1.017.704 1.142 1.207.092 2.153a10.048 10.048 0 0 1-3.707 2.12c-1.463.471-2.956.857-4.437 1.283-.544.157-1.086.319-1.625.477-.019 1.072-.11 2.072-.035 3.062.077 1.015.647 1.549 1.697 1.602 1.881.096 3.73-.167 5.463-.931.373-.166.686-.604.886-.988.335-.64.666-.892 1.371-.956.722-.063.896.517 1.173.935.337.508.209 1.102-.173 1.488-1.34 1.353-2.72 2.659-4.706 3.04-.981.189-1.933.544-2.918.694-.91.14-1.872.254-2.77.117-1.567-.24-2.553-1.355-3.251-2.705-.638-1.229-.55-2.583-.515-3.903.082-3.083.203-6.165.333-9.246.032-.737-.001-1.393-.886-1.595.229-.79.651-1.25 1.304-1.563a6.782 6.782 0 0 1 3.066-.697c1.891.006 3.782-.294 5.675-.466.785-.071 1.568-.159 2.354-.213.501-.034 1.019-.059 1.385.551M51.338 101.419l-.075 4.062c.443-.135.833-.265 1.227-.373 1.419-.386 2.837-.773 4.26-1.141.614-.16 1.142-.04 1.452.658-.703.843-1.464 1.646-2.496 2.109-1.176.527-2.379.994-3.569 1.491-.33.137-.687.237-.973.439-.202.143-.414.422-.428.652a274.147 274.147 0 0 0-.312 6.014c-.012.275.069.556.112.859.229.023.409.079.574.051 1.91-.317 3.83-.586 5.716-1.006.658-.146 1.23-.678 1.902-1.068.162.196.354.394.508.616.609.886.502 1.276-.266 2.002-.937.887-1.968 1.466-3.253 1.741-1.426.305-2.768.894-4.278.946-1.083.037-2.153.449-3.195.685-.387-.213-.733-.476-1.124-.602-.514-.167-.61-.491-.64-.972-.167-2.692-.209-5.378.13-8.063.071-.549-.09-1.127-.044-1.683.051-.596.283-1.175.328-1.771.1-1.323.132-2.652.191-3.979a7.047 7.047 0 0 1 .943-3.213c.354-.606 1.174-1.082 1.885-1.311 1.563-.505 3.185-.849 4.796-1.192.73-.156 1.493-.182 2.245-.214.595-.025.597.011 1.154.7-.951 1.114-1.992 2.089-3.473 2.509-1.093.313-2.171.693-3.297 1.054M217.54 99.565c-.138 1.254-.24 2.287-.365 3.315-.309 2.555-.073 5.08.423 7.584.187.944.418 1.895.774 2.784.303.751.755 1.463 1.251 2.107.652.842 1.495.874 2.178.073.573-.674 1.171-1.406 1.471-2.218.679-1.843 1.182-3.75 1.754-5.633.143-.47.374-.94.393-1.418.056-1.414.126-2.834-.529-4.178-.465-.952-.306-1.587.354-1.954 1.061-.59 2.137-.467 2.695.355.147.218.198.535.206.809.033.894-.009 1.79.045 2.681.047.773.241 1.541.263 2.315.025.851.014 1.722-.136 2.556-.431 2.438-.937 4.863-2.515 6.889a6.062 6.062 0 0 1-.635.724c-1.269 1.187-2.8 1.981-4.316 2.78-.964.507-1.938.29-2.832-.312-1.795-1.208-2.995-2.874-3.667-4.901-1.027-3.098-1.393-6.287-1.191-9.545.063-1.034.12-2.072.096-3.107-.036-1.446.994-2.447 2.455-2.234.592.087 1.163.331 1.828.528"/><path fill="#FFB547" d="M161.266 143.372c2.085-1.768 4.479-2.72 7.261-2.588 1.359.064 1.802.742 1.272 2.006-.257.617-.664 1.176-1.027 1.746-.189.295-.435.555-.725.921.387.099.684.163.972.252 1.468.448 2.133 2.032 1.354 3.353-.692 1.17-1.656 2.047-2.998 2.47-.629.198-1.318.278-1.802.853-.234.279-.614.217-.825-.117-.187-.292-.359-.613-.449-.945-.496-1.852-.515-3.756-.563-5.654-.02-.809-.012-1.616-.02-2.701-.495.41-.794.637-1.067.889-.744.681-1.017.602-1.383-.485m4.546 7.617c.793-.371 1.401-.589 1.939-.924a3.386 3.386 0 0 0 1.438-1.816c.292-.873-.153-1.551-1.064-1.502-.656.035-1.336.233-1.937.508-.688.313-1.113.877-.872 1.729.168.609.305 1.226.496 2.005m-.635-4.84c1.056-.351 2.078-1.293 2.989-2.742.271-.431.688-.849.413-1.493-1.203-.232-2.324.01-3.332.464l-.07 3.771zM101.004 149.083c.07 1.195.132 2.293.203 3.391.019.25.104.497.096.744-.005.154-.093.396-.204.438-.17.065-.488.072-.576-.036-.239-.287-.517-.634-.556-.984-.163-1.381-.247-2.771-.346-4.16-.023-.352.01-.707.018-1.088-.229-.07-.406-.096-.557-.174-.536-.279-.639-.523-.323-1.01.365-.57.729-1.18 1.229-1.616.774-.68 1.657-1.239 2.511-1.825.23-.158.515-.256.789-.332 1.569-.438 2.63.535 2.304 2.144-.256 1.259-.869 2.337-1.801 3.228-.128.123-.254.247-.376.374-.024.024-.029.065-.076.182.361.229.775.43 1.112.722.67.579 1.315 1.192 1.93 1.832.126.131.154.592.081.631-.216.119-.56.212-.756.117-.343-.168-.622-.473-.909-.738-1.072-.996-2.134-1.537-3.793-1.84m3.113-5.555c-.092-.018-.202-.072-.295-.051-1.08.254-1.911.933-2.731 1.623-.077.062-.155.178-.153.268.005.871.028 1.742.046 2.616 2.195-.131 3.803-2.506 3.133-4.456M214.729 148.636c-.036-.598-.069-1.196-.106-1.795-.118-2.007-.166-4.012.371-5.977.058-.213.214-.496.387-.555.185-.059.492.06.654.203.116.104.137.387.104.572-.258 1.525-.377 3.056-.224 4.6.162 1.633.302 3.268.495 4.896.04.321.289.618.441.927-.842.473-1.125.403-1.581-.28-.25-.373-.567-.704-.885-1.025-1.132-1.144-2.277-2.275-3.417-3.409-.169-.168-.349-.324-.705-.656-.068.819-.13 1.441-.166 2.063-.019.319.012.645.019.966.009.44-.124.816-.623.824-.476.006-.701-.335-.713-.78a29.53 29.53 0 0 1 .002-2.146c.053-1.181.166-2.357.205-3.538.013-.467.118-.78.622-.8.479-.021.733.266.831.789.07.373.112.803.324 1.093 1.101 1.497 2.409 2.808 3.7 4.132.091-.034.177-.07.265-.104M126.062 147.394c-.118 1.615-.529 3.23.054 4.851.156.44.059.802-.368.989-.471.208-.808-.094-.912-.486-.192-.72-.403-1.473-.378-2.203.065-1.787.245-3.572.422-5.355.023-.221.271-.519.484-.6.365-.137.717.051.882.42.895 2.012 2.627 3.361 3.958 5.031.017.021.066.018.223.052.88-2.747.175-5.583.423-8.468l1.163-.109c.021.374.046.614.051.854.021 1.432.12 2.869.032 4.295a38.086 38.086 0 0 1-.584 4.562c-.19 1.025-.872 1.153-1.595.34-1.021-1.151-1.989-2.349-2.985-3.524-.202-.239-.42-.468-.632-.701l-.238.052zM179.206 149.841c-.516.746-1.288.65-1.995.509-.724-.144-1.416-.438-2.204-.694.051.41.163.766.113 1.098-.036.236-.247.526-.46.629-.152.074-.539-.053-.638-.208a3.87 3.87 0 0 1-.479-1.159c-.225-.928-.399-1.866-.624-2.936 1.021-.721.552-1.988.733-3.035l-1.286-.908c1.646-1.676 3.49-2.217 5.58-1.818 1.39.266 1.781 1.495.918 2.724-.769 1.097-1.788 1.944-2.921 2.656-.211.132-.439.239-.647.38-.631.429-.658.735.003 1.087 1.184.63 2.262 1.555 3.73 1.479.043-.003.09.094.177.196m-4.309-3.895c.086.04.174.078.262.118 1.282-.87 2.399-1.872 2.812-3.493-.875-.475-1.649-.265-2.392-.021-.205.066-.427.395-.456.625-.114.918-.156 1.847-.226 2.771M188.069 145.026c.064.556.106 1.043.176 1.525.159 1.1.331 2.196.493 3.295.021.141.067.311.013.423-.097.202-.236.478-.407.521-.18.044-.481-.098-.613-.256a1.598 1.598 0 0 1-.33-.779 629.505 629.505 0 0 1-.928-7.249c-.025-.202.058-.419.088-.614 1.008-.228.988-.195 1.301.551.199.479.488.966.862 1.313 1.154 1.073 2.367 2.083 3.561 3.112.073.062.183.082.371.162.008-.428.033-.801.018-1.17-.061-1.33-.085-2.651.275-3.955.118-.423.225-.769.768-.654.497.104.627.414.51.877-.403 1.593-.202 3.215-.189 4.823.006.48.289.958.516 1.649l-.357 1.213c-.44.279-.66-.023-.967-.312-1.561-1.477-3.15-2.918-4.735-4.365-.069-.059-.195-.053-.426-.11M223.856 142.298l-.534-.416c-.627-.484-1.246-.473-1.638.207-1.365 2.371-1.789 4.901-.963 7.553.268.854.909 1.281 1.939.805.962-.445 1.707-1.049 2.241-1.922.34-.555.559-1.161.274-1.924-.351.102-.69.187-1.019.3-.165.058-.305.196-.471.251-.457.148-.801-.025-.935-.447-.136-.434.047-.705.583-.816.384-.08.788-.086 1.16-.203.368-.118.705-.334 1.072-.513 1.111.326 1.594 1.165 1.19 2.196-.47 1.211-1.146 2.294-2.073 3.222-.602.604-1.33.974-2.123 1.21-1.215.361-2.455-.281-2.994-1.642a7.188 7.188 0 0 1-.494-2.296c-.084-1.842.173-3.656.915-5.363.212-.484.511-.955.861-1.35 1.138-1.279 2.261-.711 3.225.236.282.271.197.582-.216.912M141.13 146.73c.023.358-.01.739.083 1.086.252.965.559 1.916.844 2.872.062.205.217.431.174.607-.062.244-.229.527-.436.648-.146.086-.523.006-.639-.132-.218-.263-.366-.606-.464-.94-.259-.892-.458-1.801-.715-2.693-.226-.776-.294-.779-1.057-.576-.743.196-1.497.351-2.479.578-.071.382-.182 1-.294 1.617-.142.778.002 1.668-.812 2.188-.903-.441-.922-.475-.815-1.26.39-2.834 1.424-5.461 2.594-8.041.166-.367.431-.709.712-1.005.376-.396 1.169-.147 1.385.423.454 1.205.873 2.424 1.338 3.622.142.367.396.69.581 1.006m-2.722-3.125c-.089-.007-.179-.013-.268-.021-.417 1.039-.83 2.078-1.309 3.279l2.631-.328-1.054-2.93M83.642 145.107c-.477.374-.823.719-1.239.927-.12.061-.436-.268-.769-.486.479-.526.835-1.02 1.287-1.4 1.468-1.233 3.192-1.926 5.097-1.985 1.88-.059 2.493 1.073 1.614 2.737-.854 1.617-2.133 2.871-3.524 3.992-.671.541-.957 1.11-.838 1.932.137.952.254 1.906.389 2.857.052.367.113.746-.316.918-.434.174-.741-.146-.843-.462-.213-.675-.324-1.382-.448-2.083a28.74 28.74 0 0 1-.327-2.206c-.026-.263.138-.54.145-.812.027-1.281.115-2.57-.228-3.929m1.6 3.382c1.485-1.25 2.661-2.467 3.416-4.023.347-.713-.08-1.35-.893-1.268-.834.084-1.653.389-2.449.677-.168.06-.307.47-.297.713.04 1.206.132 2.411.223 3.901M89.511 146.108l.729-.854c.955.289 1.709-.306 2.48-.685 1.517-.746 3.052-.674 4.649-.35-2.156.154-4.009 1.061-5.836 2.132.119.825.229 1.597.362 2.511.877-.425 1.685-.787 2.46-1.205.777-.418 1.521-.892 2.325-1.369.28.479.184.898-.232 1.203-.573.424-1.179.81-1.79 1.178-.766.463-1.55.896-2.332 1.33-.353.195-.504.461-.479.873.05.738.057 1.48.086 2.388 1.335-.397 2.53-.731 3.71-1.117.251-.081.425-.366.656-.524.209-.144.446-.242.737-.395.004 1.19-.418 1.781-1.532 2.137-1.396.446-2.811.833-4.208 1.244-.57-.338-.757-.768-.745-1.432.029-1.681-.051-3.363-.096-5.045-.017-.615-.083-1.202-.707-1.559-.123-.07-.158-.298-.237-.461M196.708 142.885c-.684-.161-1.655.517-1.854-.842.302-.095.62-.228.952-.29 1.06-.202 2.062-.352 3.174.082 1.03.398 2.11.66 3.055 1.264 1.515.967 1.746 2.377.682 3.828-.906 1.232-2.071 2.18-3.335 2.997-.416.269-.999.351-1.509.364-.218.006-.561-.344-.649-.6-.195-.566-.342-1.172-.372-1.769-.071-1.394-.06-2.792-.087-4.188-.006-.279-.036-.556-.057-.846m1.561 6.228c.54-.358.984-.577 1.331-.901.751-.705 1.519-1.41 2.151-2.217.62-.789.502-1.522-.219-2.072-.957-.73-2.056-1.09-3.392-1.1-.194 2.073.02 4.078.129 6.29M136.922 131.444c.199.922.4 1.751.548 2.588.056.326.088.721-.046.998-.275.578-.954.586-1.281.037-.161-.266-.221-.6-.288-.909-.185-.837-.348-1.678-.528-2.56-1.004-.164-1.946.053-2.893.146-.244.024-.523.147-.723.066-.223-.089-.468-.327-.538-.552-.103-.328.165-.487.479-.576 1.118-.314 2.231-.649 3.412-.997.264-1.171-.119-2.355-.229-3.673.289-.074.585-.221.872-.207.506.025.75.426.766.945.028.883.107 1.763.172 2.766l2.45-.209c.296.248.54.427.752.637.159.156.277.356.413.537-.218.151-.418.391-.657.441-.663.143-1.345.2-2.017.307-.17.028-.333.107-.664.215M121.613 146.653c.005 1.666-.48 3.188-1.453 4.526a5.282 5.282 0 0 1-1.369 1.323c-1.431.918-2.971.264-3.446-1.386-.275-.958-.248-1.911-.012-2.866.377-1.525 1.019-2.907 2.293-3.901a3.817 3.817 0 0 1 1.014-.576c1.506-.55 2.846.317 2.986 1.917.028.319-.006.643-.013.963m-5.243 2.761c.045.403.072.759.122 1.112.078.551.239 1.059.846 1.248.612.189 1.055-.134 1.388-.576 1.264-1.676 2.046-3.498 1.684-5.672-.09-.537-.354-.866-.86-.945-.472-.072-.918-.016-1.178.51-.249.504-.467 1.075-.858 1.451-.854.819-.957 1.867-1.144 2.872M181.607 142.423c.38.007.592.008.804.016.877.035.869.039 1.092.842.239.861.454 1.734.759 2.574.141.39.465.713.769 1.158-.23.197-.403.557-.165 1.062.318.675.558 1.388.825 2.085.052.133.13.273.123.408-.011.199-.033.512-.148.566-.191.09-.518.096-.688-.015-.219-.142-.388-.415-.495-.666-.38-.884-.726-1.786-1.117-2.763-.536.025-1.104.043-1.667.087-.352.028-.485.265-.463.599.022.32.083.642.073.963-.019.64-.365 1.036-.873.996-.572-.047-.697-.516-.648-.941.122-1.064.24-2.141.518-3.168.341-1.272.846-2.498 1.301-3.803m1.546 4.164c-.217-.78-.411-1.484-.608-2.189l-.28-.003c-.209.68-.418 1.358-.664 2.165l1.552.027zM146.273 151.77c1.85-.31 3.564-.452 5.123-1.254.326-.167.62-.106.798.269.164.346.126.644-.198.842a2.222 2.222 0 0 1-.697.256c-1.713.368-3.424.744-5.143 1.075-.907.175-1.269-.161-1.222-1.087.045-.93.126-1.859.212-2.786.185-1.993.477-3.985-.118-5.968-.135-.451.13-.685.562-.696.242-.007.483.071.74.113.773 3.056.03 6.074-.057 9.236M110.837 144.947c-.895.294-1.611.774-2.299 1.61.38.189.67.357.977.48.929.371 1.867.721 2.798 1.088.198.079.395.176.572.295 1.07.721 1.255 1.576.543 2.654-1.176 1.783-2.584 2.166-4.435 1.631-.422-.121-.808-.312-.838-.85-.025-.508.12-.846.733-.798.103.235.141.587.326.698.249.148.608.146.923.152.998.016 1.694-.481 2.147-1.345.365-.696.277-1.14-.419-1.526-.556-.309-1.178-.508-1.779-.73-.536-.197-1.09-.352-1.631-.539-.717-.251-1.215-.722-1.431-1.511.993-1.013 2.198-1.708 3.448-2.315.631-.307 1.228-.09 1.75.434.326.325.285.631.044.95-.242.321-.564.288-.86.108-.206-.121-.372-.313-.569-.486M207.011 150.704c-.619.636-1.011.657-1.42.021-.189-.295-.355-.645-.396-.984-.104-.92-.224-1.854-.173-2.772.069-1.284.266-2.563.454-3.837.103-.691.309-.828.794-.725.547.117.694.386.608 1.033a231.721 231.721 0 0 0-.514 4.152c-.046.426-.025.86-.005 1.289.054 1.073.061 1.073.652 1.823"/></svg>