<svg xmlns="http://www.w3.org/2000/svg" viewBox="0 0 180 130"><path class="bubble" fill="#FFB547" d="M105.926 22.067l7.241-.6c.713-.059 1.426-.1 2.141-.019.55.062 1.1.023 1.647-.013.822-.054 1.646-.104 2.47.009.056.007.11.014.165.012 1.208-.031 2.417.052 3.624.075 1.212.023 2.418.105 3.623.188 2.25.154 4.501.34 6.741.644 3.003.407 6.004.839 8.983 1.457 2.601.539 5.176 1.191 7.74 1.904 1.868.518 3.724 1.101 5.537 1.829.104.042.204.09.312.124 2.339.747 4.512 1.933 6.706 3.062.799.411 1.547.924 2.31 1.409a30.52 30.52 0 0 1 4.459 3.419c.42.39.847.773 1.27 1.158 1.448 1.313 2.68 2.837 3.83 4.455.986 1.384 1.756 2.891 2.501 4.424.67 1.379 1.174 2.827 1.606 4.306.097.34.171.688.247 1.036.064.288.099.587.181.87.445 1.553.516 3.154.632 4.753.021.294.002.592-.009.889-.01.295-.04.59-.043.887-.026 3.11-.576 6.115-1.446 9.056-.1.338-.206.674-.298 1.014a10.714 10.714 0 0 1-.584 1.651 17.301 17.301 0 0 0-1.138 3.5c-.335 1.556-.757 3.085-1.323 4.561-.63 1.635-1.299 3.251-2.163 4.761-.401.7-.789 1.411-1.191 2.112-.201.35-.407.7-.636 1.028a49.703 49.703 0 0 0-1.328 2.016 19.015 19.015 0 0 1-1.983 2.58c-.306.336-.634.65-.917 1.006-.712.897-1.483 1.723-2.271 2.544-.471.49-.953.968-1.45 1.427-.704.652-1.398 1.312-2.106 1.963-1.454 1.337-3.02 2.523-4.524 3.793-.258.217-.54.4-.811.6-.63.467-1.259.936-1.89 1.398-.407.298-.813.597-1.23.877-1.901 1.274-3.797 2.562-5.714 3.811-1.729 1.127-3.532 2.117-5.328 3.121a138.111 138.111 0 0 1-5.444 2.883c-1.781.896-3.581 1.76-5.426 2.51-.409.166-.81.355-1.219.525-.763.322-1.528.643-2.295.955-.665.274-1.329.545-1.999.809-.513.203-1.025.406-1.546.591a179.96 179.96 0 0 1-6.9 2.304c-.58.178-1.157.362-1.738.533-1.478.435-2.98.779-4.465 1.186-1.276.348-2.584.53-3.85.918-.264.08-.535.125-.809.164-.815.115-1.623.264-2.424.48-.528.145-1.079.201-1.623.271-1.145.148-2.294.244-3.411.57-.419.121-.865.148-1.304.191-1.968.192-3.938.375-5.905.559-.547.051-1.096.104-1.646.047-.773-.08-1.538-.033-2.307.022-.985.072-1.972.151-2.962.015a1.521 1.521 0 0 0-.33-.01c-1.266.111-2.526-.088-3.791-.102-.657-.008-1.317-.08-1.974-.145-1.371-.139-2.74-.25-4.107-.439-2.347-.324-4.702-.583-7.053-.871-1.427-.018-2.853-.242-4.283-.113-.437.041-.88.021-1.319-.016a11.854 11.854 0 0 0-1.976.02c-1.586.127-3.175.26-4.765.379-.546.04-1.097.086-1.644.053-.883-.056-1.758 0-2.633.076-2.026.174-4.052.343-6.076.514a14.79 14.79 0 0 1-2.306.037c-.547-.039-1.099-.004-1.646.026-.933.051-1.864.14-2.8.005-.107-.016-.219-.021-.33-.016-1.044.045-2.086-.033-3.128-.081a35.946 35.946 0 0 1-3.451-.335c-1.966-.286-3.928-.604-5.849-1.164a49.8 49.8 0 0 1-1.748-.551c-.475-.156-.943-.332-1.417-.494a12.64 12.64 0 0 1-1.845-.795c-.397-.209-.801-.402-1.198-.613-2.142-1.139-4.152-2.496-5.974-4.173-.464-.426-.923-.858-1.328-1.354-.145-.179-.3-.35-.457-.518-2.036-2.189-3.479-4.779-4.506-7.646-.279-.777-.518-1.57-.651-2.396-.066-.409-.168-.812-.267-1.215a10.775 10.775 0 0 1-.289-3c.017-.414.034-.83.039-1.244.016-1.545.142-3.075.465-4.58.075-.345.149-.69.214-1.038.324-1.81.922-3.521 1.57-5.214.125-.327.268-.646.42-.959a364.471 364.471 0 0 1 1.688-3.438c.209-.413.43-.822.681-1.207.635-.965 1.156-2 1.616-3.07.716-1.666 1.64-3.195 2.533-4.744.895-1.556 1.926-3.003 3.008-4.406 1.325-1.721 2.661-3.433 3.993-5.148.105-.135.205-.277.323-.396 1.027-1.057 1.94-2.233 2.968-3.29.631-.649 1.26-1.304 1.883-1.963 1.755-1.854 3.592-3.612 5.445-5.35a137.412 137.412 0 0 1 3.13-2.844 136.754 136.754 0 0 1 4.933-4.092c.306-.245.618-.481.868-.8a.798.798 0 0 0 .054-.829c-.089-.15-.167-.311-.276-.444-1.611-1.973-3.097-4.057-4.669-6.062-2.646-3.375-5.208-6.824-7.849-10.202-1.999-2.559-3.931-5.173-5.937-7.722-2.331-2.958-4.569-5.999-6.897-8.958-2.005-2.551-3.952-5.154-5.934-7.725-.421-.555-.866-1.087-1.29-1.639a33.304 33.304 0 0 1-.927-1.263 1.734 1.734 0 0 1-.257-.652c-.094-.474.209-.973.653-1.056.221-.042.44-.034.647.066.2.098.402.2.583.335.316.24.625.494.921.763.98.889 2.056 1.619 3.168 2.289 2.943 1.777 5.903 3.526 8.836 5.324 2.5 1.532 5.031 3.005 7.53 4.542 1.682 1.034 3.387 2.023 5.063 3.066 2.059 1.282 4.16 2.487 6.221 3.767 1.631 1.012 3.288 1.967 4.918 2.98 2.107 1.312 4.257 2.545 6.364 3.854a312.31 312.31 0 0 0 4.778 2.886 61.75 61.75 0 0 1 2.998 1.915c.33.222.671.418 1.037.557.967.37 1.941.394 2.922.126.107-.027.212-.064.316-.102 1.762-.64 3.528-1.269 5.237-2.073a123.323 123.323 0 0 1 4.69-2.118 80.492 80.492 0 0 1 6.992-2.56 109.598 109.598 0 0 1 4.911-1.454c1.063-.283 2.134-.53 3.201-.794.374-.093.746-.192 1.12-.281.375-.09.749-.189 1.126-.252.65-.11 1.295-.241 1.935-.412.529-.141 1.076-.218 1.619-.296.763-.11 1.524-.2 2.267-.429.582-.18 1.186-.231 1.785-.296 2.405-.257 4.809-.509 7.198-.761M24.58 14.468l-.353-.321-.011.014.356.317.008-.01zm.225 51.503l-.295.385c-.158.038-.197.09-.112.108.027.007.072-.072.107-.112l.293-.387c.1-.129.198-.259.296-.389.25-.096.506-.188.644-.46.018-.038.014-.116-.01-.147-.024-.031-.099-.05-.13-.032-.25.138-.363.401-.495.647l-.298.387m46.889-33.044l-.318.08c-.538.137-1.034.379-1.512.665a1.114 1.114 0 0 0-.52.654 7.476 7.476 0 0 0-.296 2.093c.001.057.028.114.035.172.017.138.252.303.375.28.383-.073.723-.266 1.066-.444a1.41 1.41 0 0 0 .73-.903c.239-.848.426-1.708.432-2.604l.008.007zM14.098 8.663l-.002.004c.1.28.221.547.395.783l.937 1.257c2.324 3.121 4.757 6.143 7.103 9.244a562.716 562.716 0 0 0 5.524 7.164c.499.638.982 1.293 1.475 1.939 2.986 3.924 6.047 7.783 9.004 11.733.105.138.209.279.32.413 1.335 1.596 2.555 3.301 3.827 4.956.213.276.415.561.613.847.301.436.517.921.672 1.432.224.747.304 1.512.162 2.284a5.223 5.223 0 0 1-.872 2.08 6.904 6.904 0 0 1-1.016 1.146c-.544.494-1.107.958-1.721 1.35-1.132.721-2.185 1.562-3.241 2.399-.616.487-1.203 1.018-1.815 1.511-2.764 2.217-5.379 4.625-7.964 7.071a92.028 92.028 0 0 0-3.594 3.611c-.817.864-1.646 1.719-2.443 2.607-.835.93-1.687 1.844-2.466 2.83-.106.133-.223.26-.346.377-.615.588-1.137 1.27-1.662 1.947-.595.771-1.186 1.542-1.773 2.316s-1.175 1.551-1.652 2.414c-.168.303-.374.581-.575.86a21.584 21.584 0 0 0-1.113 1.745c-.673 1.146-1.266 2.343-1.845 3.545-.885 1.838-1.549 3.773-2.101 5.757-.283 1.022-.472 2.064-.621 3.118-.135.939-.194 1.885-.273 2.827a7.815 7.815 0 0 0-.005 1.243c.07.947.167 1.893.261 2.836.024.236.062.473.117.703.344 1.44.739 2.857 1.304 4.229.685 1.656 1.625 3.121 2.681 4.506.491.644 1.007 1.272 1.591 1.826 1.291 1.227 2.614 2.402 4.111 3.33.96.594 1.919 1.19 2.934 1.669a33.554 33.554 0 0 0 5.483 2.013c3.115.846 6.282 1.242 9.477 1.404 1.209.062 2.416.154 3.625.066.218-.015.441.002.659.027.716.085 1.428.051 2.14-.006 1.152-.09 2.302-.182 3.452-.266.438-.032.882-.092 1.317-.052 1.216.11 2.417-.026 3.62-.13l7.063-.605c.6-.051 1.206-.113 1.809-.049.773.083 1.539.021 2.306-.02.604-.033 1.211-.084 1.812-.045.77.049 1.538.072 2.308.045.218-.008.44.004.659.021 1.921.151 3.84.334 5.752.61 2.129.309 4.26.588 6.401.757 1.371.108 2.74.282 4.116.254.22-.005.44.01.658.038.661.085 1.319.061 1.978.035.549-.022 1.101-.051 1.647-.01.718.055 1.428.039 2.141-.014 3.618-.271 7.226-.614 10.832-1.023.71-.081 1.411-.199 2.105-.385.53-.143 1.079-.207 1.62-.298.543-.092 1.1-.121 1.626-.271 1.432-.409 2.918-.545 4.338-1.004.764-.107 1.484-.413 2.241-.562 1.026-.2 2.028-.507 3.028-.81 3.374-1.025 6.736-2.088 10.039-3.354 2.733-1.046 5.448-2.142 8.104-3.399 1.253-.594 2.507-1.18 3.758-1.773 1.602-.762 3.172-1.598 4.732-2.445 1.952-1.062 3.88-2.178 5.737-3.422.463-.311.948-.584 1.428-.867a23.1 23.1 0 0 0 2.226-1.492c.446-.339.891-.682 1.354-.992 1.863-1.238 3.607-2.659 5.341-4.092a70.76 70.76 0 0 0 5.246-4.793c1.434-1.453 2.839-2.932 4.072-4.591a164.25 164.25 0 0 1 1.976-2.595 25.404 25.404 0 0 0 2.172-3.313c.472-.862.969-1.712 1.401-2.598a36.955 36.955 0 0 0 2.796-7.735c.557-2.357.9-4.748.818-7.203-.016-.473.017-.948.031-1.42a12.924 12.924 0 0 0-.281-3.184c-.162-.752-.34-1.502-.468-2.264a6.793 6.793 0 0 0-.162-.691c-.688-2.402-1.633-4.68-2.874-6.82-.591-1.016-1.278-1.948-1.981-2.871-.953-1.249-1.968-2.428-3.137-3.448-.773-.676-1.541-1.363-2.314-2.042-.43-.377-.885-.712-1.352-1.037-1.072-.744-2.188-1.4-3.304-2.06-2.337-1.38-4.786-2.477-7.291-3.418-2.452-.923-4.95-1.674-7.473-2.331-1.18-.308-2.374-.533-3.559-.818a65.8 65.8 0 0 0-4.225-.852c-1.96-.335-3.915-.692-5.886-.929-1.095-.131-2.19-.257-3.283-.394-2.244-.278-4.495-.428-6.747-.548-1.262-.067-2.525-.208-3.789-.117-.219.016-.441-.014-.66-.041-.604-.073-1.208-.056-1.812-.019a16.48 16.48 0 0 1-2.143-.007c-.547-.038-1.1-.008-1.647.028-1.261.084-2.52.188-3.78.289a15.15 15.15 0 0 1-1.977.043c-1.267-.063-3.513.149-4.747.449-.644.156-1.293.254-1.949.327-1.257.137-2.512.275-3.768.422-.436.051-.881.087-1.301.205-.96.264-1.941.384-2.912.569-1.294.246-2.581.543-3.869.826-1.073.237-2.123.583-3.196.82-1.722.38-3.392.954-5.083 1.444-1.481.429-2.934.959-4.397 1.457-.468.16-.933.343-1.39.537-1.528.65-3.062 1.275-4.558 2.005-1.496.729-3.028 1.366-4.56 2.002-1.074.446-2.176.797-3.288 1.12a4.076 4.076 0 0 1-1.795.108c-1.169-.185-2.235-.629-3.179-1.421-.436-.366-.872-.737-1.335-1.062-.607-.423-1.174-.896-1.744-1.373-.478-.403-.953-.821-1.461-1.178-.653-.457-1.263-.969-1.874-1.485-.391-.331-.773-.686-1.194-.967-.802-.538-1.53-1.18-2.272-1.804-.482-.403-.955-.82-1.463-1.178-.651-.458-1.262-.969-1.874-1.485-.393-.332-.772-.685-1.193-.968-.802-.54-1.53-1.18-2.272-1.806-.48-.403-.955-.82-1.463-1.177-.65-.458-1.262-.971-1.873-1.484-.437-.367-.866-.749-1.333-1.068-.701-.484-1.347-1.043-2.004-1.593-.523-.44-1.04-.896-1.592-1.289a29.893 29.893 0 0 1-1.873-1.485c-.437-.367-.867-.747-1.333-1.068-.653-.453-1.264-.967-1.874-1.481-.437-.367-.865-.751-1.331-1.071-.702-.482-1.352-1.039-2.004-1.592-.48-.405-.945-.836-1.455-1.19-.794-.551-1.534-1.175-2.272-1.806-.26-.222-.511-.462-.794-.647-.948-.625-1.8-1.39-2.676-2.118-.217-.179-.451-.339-.679-.509m102.505 14.756c-.159.027-.269.045-.377.066-.356.065-.698.437-.761.826-.018.116-.044.232-.05.349-.033.827-.069 1.652-.09 2.479-.006.173.036.351.067.525.047.251.351.549.577.568.768.066 1.533.038 2.297-.035.161-.015.42-.283.454-.461.01-.057.036-.11.043-.168.142-1.053.218-2.113.282-3.174.022-.366-.231-.736-.534-.798-.647-.134-1.3-.224-1.908-.177m15.11 3.059c.005-.227.022-.699.022-1.172.002-.176-.029-.353-.053-.528-.021-.177-.267-.464-.422-.513a5.057 5.057 0 0 0-1.46-.225c-.308-.005-.685.269-.747.582-.228 1.152-.444 2.306-.664 3.46-.012.056-.001.116.001.175a.835.835 0 0 0 .3.608.774.774 0 0 0 .288.168c.695.188 1.406.254 2.118.275.311.011.653-.318.682-.639.016-.177.041-.353.032-.528-.019-.472-.053-.945-.097-1.663m-5.596 2.284c.484-.037.847-.323.975-.795.274-1.019.474-2.057.639-3.104.009-.058-.003-.117.002-.177.023-.353-.229-.746-.536-.797a30.7 30.7 0 0 0-1.468-.213 1.603 1.603 0 0 0-.487.039.78.78 0 0 0-.623.505c-.083.215-.164.443-.185.673-.069.822-.114 1.646-.165 2.471-.007.118.012.237.017.355.022.412.302.76.695.9.373.134.75.172 1.136.143m-13.954-.439c.552-.05.931-.068 1.296-.196.278-.1.583-.453.601-.762.048-.877.092-1.754.123-2.632a1.554 1.554 0 0 0-.091-.516c-.076-.23-.231-.406-.453-.474a4.408 4.408 0 0 0-1.776-.176.78.78 0 0 0-.446.191.876.876 0 0 0-.312.591 277.132 277.132 0 0 0-.224 3.156c-.009.115.02.232.024.35.013.175.276.442.456.447.324.01.649.018.802.021M58.03 35.919c-.038-.396-.046-.514-.061-.631-.063-.5-.292-.889-.692-1.156a6.374 6.374 0 0 0-.576-.347c-.095-.05-.209-.066-.315-.091-.196-.046-.472.118-.536.311-.036.109-.096.215-.111.329a673.25 673.25 0 0 0-.521 3.85c-.016.116-.02.236-.012.353.017.242.092.469.25.642.396.428.856.744 1.399.908.139.042.36-.026.444-.158.089-.145.193-.288.245-.45.252-.783.354-1.604.444-2.423.052-.467.036-.941.042-1.137m63.341-12.362c-.077.001-.132.001-.185.003-.056.001-.11.001-.164.007-.374.045-.625.221-.68.629a37.217 37.217 0 0 0-.296 3.322c-.012.265.19.602.412.711.628.308 1.27.317 1.912.113.275-.087.448-.314.554-.595.041-.107.079-.221.092-.334.104-.93.21-1.861.236-2.8.003-.175-.008-.351-.015-.527-.01-.203-.235-.444-.424-.483-.488-.101-.977-.025-1.442-.046m28.389 8.564c.026.273.044.507.07.74a.77.77 0 0 0 .348.573c.38.25.793.396 1.24.403.252.004.569-.236.621-.475.013-.056.038-.11.047-.167.201-1.272.274-2.564.402-3.848.004-.057-.005-.117-.004-.175.006-.274-.185-.608-.405-.722-.497-.257-1.013-.439-1.565-.477-.252-.018-.573.233-.588.492-.035.585-.061 1.171-.087 1.756l-.079 1.9m-10.69-4.646c-.002-.268.004-.918-.015-1.569a.687.687 0 0 0-.337-.577 1.989 1.989 0 0 0-1.435-.255c-.256.046-.522.316-.559.574-.016.116-.045.231-.058.348a31.27 31.27 0 0 0-.125 3.544.734.734 0 0 0 .597.738c.323.074.648.138.976.179.157.019.325-.02.486-.045.245-.041.504-.345.525-.606.014-.176.041-.352.034-.528-.013-.474-.045-.947-.089-1.803m31.923 12.539c-.049.022-.109.032-.144.069-.115.123-.236.243-.323.386-.637 1.021-1.149 2.118-1.692 3.195a.36.36 0 0 0-.037.169c.002.115-.015.253.037.342.273.46.691.97 1.197 1.453.292.28.638.171.848-.145.031-.047.069-.09.094-.141.505-1.034 1.01-2.068 1.504-3.109.132-.279.081-.58-.083-.836-.312-.488-.64-.964-1.087-1.323a.352.352 0 0 0-.314-.06M97.164 25.179c-.345.079-.664.146-.979.225-.2.051-.479.423-.494.644-.013.175-.029.35-.031.525-.002.645-.004 1.289 0 1.934 0 .116.021.232.03.349.019.236.32.548.558.57.656.063 1.304.01 1.921-.228.271-.104.444-.344.482-.651.087-.695.169-1.393.147-2.098-.004-.231-.054-.464-.1-.693-.048-.239-.361-.54-.584-.553-.325-.019-.65-.017-.95-.024m-6.834 1.382c-.237.052-.507.096-.77.171a.992.992 0 0 0-.696.677 14.819 14.819 0 0 0-.599 2.738c-.007.057.009.118.008.175-.003.192.223.47.407.497.053.007.106.035.16.036a6.235 6.235 0 0 0 1.781-.239c.153-.043.301-.134.434-.232a.853.853 0 0 0 .365-.561c.118-.752.197-1.512.196-2.279 0-.059-.01-.118-.014-.177-.024-.421-.37-.791-.748-.802-.165-.003-.327-.002-.524-.004m52.951 3.083c-.001.552-.015.962-.002 1.374a.694.694 0 0 0 .339.575c.338.213.712.297 1.1.315.169.006.481-.193.532-.349.034-.112.082-.219.1-.334.198-1.275.338-2.559.352-3.857.001-.058-.012-.116-.02-.175a.725.725 0 0 0-.365-.558c-.394-.222-.828-.299-1.266-.338-.242-.021-.564.244-.594.496-.115.991-.204 1.985-.176 2.851m-60.754-1.001c-.399.114-.722.182-1.027.298a5.802 5.802 0 0 0-.885.434.879.879 0 0 0-.402.53c-.226.848-.33 1.719-.362 2.601-.009.273.306.541.572.474.633-.157 1.268-.318 1.901-.479a.834.834 0 0 0 .153-.059c.257-.129.456-.333.531-.625.238-.908.288-1.847.317-2.787.003-.057-.026-.113-.033-.171-.014-.138-.237-.309-.371-.284-.159.029-.32.055-.394.068m85.076 14.187c.104-.09.265-.173.347-.312a32.825 32.825 0 0 0 1.575-2.895c.073-.157.135-.324.178-.494.079-.299.048-.59-.141-.841a4.095 4.095 0 0 0-1.267-1.132c-.173-.096-.472.02-.559.234-.414 1.026-.829 2.053-1.238 3.083-.085.217-.15.442-.22.667-.136.44-.033.812.297 1.118.211.196.41.406.671.518.098.042.213.033.357.054m-6.582-5.113c.04.25.14.455.312.618.291.277.61.506.967.672.049.023.105.027.158.044.128.041.378-.041.443-.157.083-.15.192-.296.228-.459.272-1.26.528-2.524.785-3.788.024-.114.021-.235.017-.353a.886.886 0 0 0-.15-.497 1.623 1.623 0 0 0-.943-.671c-.166-.046-.495.094-.577.251-.079.154-.17.303-.222.468-.281.891-.555 1.782-.822 2.677a8.66 8.66 0 0 0-.198.853c-.022.111-.001.234.002.342m-56.57-9.014c.248-.056.514-.107.774-.178.285-.076.576-.444.591-.76.047-.875.086-1.751.121-2.628.004-.113-.03-.23-.048-.346-.043-.271-.303-.554-.538-.598a2.485 2.485 0 0 0-1.436.146.677.677 0 0 0-.346.349 2.098 2.098 0 0 0-.166.49c-.097.484-.245 2.303-.242 2.791.003.324.322.695.618.712.22.012.436.014.672.022m4.093-4.925c-.224.042-.438.077-.652.124-.374.084-.709.457-.728.842-.045.877-.081 1.755-.113 2.635-.004.115.034.232.055.347.049.259.32.539.557.587.439.09.871.059 1.29-.086a.848.848 0 0 0 .554-.594 6.62 6.62 0 0 0 .192-1.031c.062-.582.095-1.169.137-1.755.007-.116-.009-.234-.011-.352-.007-.323-.332-.685-.636-.7-.218-.011-.436-.012-.645-.017m50.897 7.694a.403.403 0 0 0-.263.198c-.055.1-.125.198-.155.308-.349 1.241-.712 2.478-.935 3.756a2.084 2.084 0 0 0-.028.353.785.785 0 0 0 .269.623c.257.23.558.381.874.493.188.066.486-.041.582-.215.057-.1.131-.194.164-.303.366-1.235.727-2.471 1.084-3.709a1.32 1.32 0 0 0 .039-.352c.004-.247-.068-.47-.265-.617a3.201 3.201 0 0 0-1.043-.528c-.101-.028-.214-.006-.323-.007m-26.39-4.826c.076.813.114 1.344.182 1.872.031.23.109.457.189.676.084.23.262.388.464.486.254.12.527.15.805.135.217-.013.442-.2.484-.401a10.19 10.19 0 0 0 .181-1.754c.017-.649.038-1.297.054-1.946.002-.118-.017-.236-.023-.353-.015-.251-.268-.602-.481-.674a3.675 3.675 0 0 0-1.459-.165c-.174.014-.421.269-.435.465-.013.175-.044.352-.034.528.022.473.059.944.073 1.131m-81.754 8.875c.086-.069.21-.115.253-.207a21.662 21.662 0 0 0 1.155-3.281c.072-.27-.052-.626-.253-.796a4.822 4.822 0 0 0-1.292-.768c-.233-.098-.63.031-.719.251-.371.914-.685 1.85-.877 2.832a1.512 1.512 0 0 0-.019.35c.005.18.049.353.159.494.354.463.78.833 1.278 1.099.088.047.21.019.315.026m8.086 5.335c.246-.055.519-.096.777-.178.274-.086.461-.298.574-.58.043-.107.089-.215.115-.329.218-.97.433-1.941.646-2.913.064-.296-.097-.615-.34-.733a4.805 4.805 0 0 0-1.096-.366c-.314-.071-.667.179-.741.528-.025.115-.062.226-.076.341-.141 1.226-.332 2.442-.674 3.623-.015.053.004.117.001.176-.008.122.179.359.304.375.161.022.324.037.51.056m113.441 8.189a.465.465 0 0 0 .395-.269c.444-.868.88-1.739 1.312-2.613.075-.153.121-.325.16-.494a1.429 1.429 0 0 0-.064-.862 5.165 5.165 0 0 0-.69-1.199c-.176-.225-.537-.195-.69.072-.085.149-.178.293-.255.447-.332.667-.662 1.337-.991 2.006-.565 1.152-.516 1.334.219 2.371.1.14.201.283.323.4.072.072.186.096.281.141M84.368 30.79c.01.297.017.472.021.648.005.193.29.423.477.4.438-.053.845-.221 1.255-.375a.965.965 0 0 0 .569-.592c.345-.929.567-1.898.725-2.886.011-.057-.002-.118.005-.176.018-.224-.233-.48-.425-.427-.58.16-1.161.312-1.735.489-.277.085-.453.314-.56.596-.04.109-.069.224-.085.34-.09.699-.175 1.398-.247 1.983m64.279-2.437c-.037-.541-.261-1.075-1.02-1.141-.203-.018-.466.12-.537.309-.061.162-.137.324-.154.495a280.554 280.554 0 0 0-.33 3.668.907.907 0 0 0 .044.346.752.752 0 0 0 .163.297c.354.319.76.455 1.211.333.224-.061.374-.246.447-.467.075-.216.132-.452.132-.681-.001-.937.007-1.874.074-2.809.011-.115-.018-.233-.03-.35m4.687 5.454c.02.115.027.234.063.345.074.236.221.416.446.473a.575.575 0 0 0 .592-.199c.11-.127.21-.272.275-.428.341-.797.624-1.62.836-2.468.086-.339.14-.687.193-1.033.062-.387-.188-.837-.545-.994-.255-.111-.516-.208-.793-.191a.616.616 0 0 0-.533.34c-.054.099-.114.204-.137.314-.225 1.209-.307 2.439-.406 3.665-.003.058.007.117.009.176m-13.011-4.16l.088.562c.084.535.585.917 1.103.84.119-.018.338-.214.362-.326.036-.172.084-.343.107-.518.146-1.113.13-2.244.209-3.364.008-.115-.026-.235-.047-.351a.853.853 0 0 0-.359-.577c-.343-.226-.717-.292-1.106-.172a.35.35 0 0 0-.236.229c-.036.11-.085.224-.084.336a38.615 38.615 0 0 1-.055 2.309c-.022.354.011.712.018 1.032m-93.8 1.877c.046.125.077.31.169.449.293.444.687.767 1.132 1.019.171.096.502-.004.567-.191.233-.658.467-1.317.688-1.981.091-.275.162-.562.22-.848a.857.857 0 0 0-.255-.802c-.33-.327-.72-.544-1.138-.708-.049-.02-.107-.02-.161-.033-.135-.037-.362.067-.428.199-.418.835-.595 1.758-.792 2.674-.014.055-.002.117-.002.222m54.201-2.522c.166-.016.221-.017.273-.027.472-.097.811-.443.86-.927.077-.76.146-1.521.193-2.286a2.033 2.033 0 0 0-.1-.695.687.687 0 0 0-.458-.471 1.294 1.294 0 0 0-.648-.012c-.348.073-.586.288-.712.644a2.55 2.55 0 0 0-.151.861c-.003.59.004 1.18.016 1.769.002.235.01.471.043.703a.46.46 0 0 0 .312.375c.154.054.32.059.372.066m64.692 6.022c-.095.102-.238.205-.308.351a2.687 2.687 0 0 0-.207.666 251.175 251.175 0 0 0-.572 3.117c-.032.173-.065.348-.067.524-.006.308.096.577.33.774.169.141.504.106.59-.06.026-.05.076-.089.094-.142.264-.835.599-1.639.924-2.445.196-.483.393-.97.493-1.492a.885.885 0 0 0-.229-.809c-.199-.213-.419-.389-.691-.467-.101-.03-.214-.012-.357-.017m-92.318.272c.544-.085 1.061-.25 1.537-.555a1.31 1.31 0 0 0 .588-.812 8.37 8.37 0 0 0 .246-1.745c.005-.116-.029-.232-.044-.349-.029-.195-.317-.409-.496-.383a3.017 3.017 0 0 0-1.224.472 1.291 1.291 0 0 0-.52.66c-.255.717-.386 1.47-.48 2.231-.03.238.189.502.393.481m-30.273-9.161a1.426 1.426 0 0 0-.584-1.106c-.271-.198-.564-.36-.852-.534-.047-.028-.103-.039-.153-.061-.26-.115-.567.027-.686.292-.24.538-.35 1.11-.379 1.7a.82.82 0 0 0 .15.491c.418.561.924 1.007 1.563 1.253.183.071.463-.059.562-.249.27-.521.415-1.078.379-1.786m.685 3.105c.04.109.057.235.119.328.262.397.618.674 1.013.898.236.134.609.041.732-.187.056-.102.123-.197.166-.303a8.665 8.665 0 0 0 .515-1.675c.122-.607-.031-.985-.577-1.329-.19-.12-.385-.23-.584-.335-.097-.051-.208-.078-.309-.118-.129-.05-.39.052-.432.175-.261.773-.455 1.569-.639 2.368-.014.056-.004.118-.004.178m131.119 22.635c.097-.05.208-.081.287-.152.417-.382.708-.883 1.062-1.326.52-.649.594-1.356.256-2.132-.091-.213-.19-.426-.29-.637-.09-.19-.449-.238-.572-.082-.034.045-.089.073-.117.122-.464.793-.87 1.622-1.232 2.475-.239.56-.127 1.133.304 1.622.077.088.186.115.302.11M67.282 34.722c-.188.077-.498.182-.79.331a1.294 1.294 0 0 0-.637.757c-.239.716-.37 1.46-.452 2.216-.007.055.021.113.024.171.01.143.23.301.37.274.542-.104 1.025-.354 1.475-.685a.965.965 0 0 0 .36-.565c.154-.68.272-1.369.286-2.075.008-.429-.211-.537-.636-.424m9.33-1.066c.034.142.246.293.375.288.331-.014.632-.144.926-.284.314-.148.521-.408.596-.771.157-.741.255-1.49.253-2.254 0-.058-.002-.117-.006-.175-.013-.238-.211-.455-.44-.391a6.663 6.663 0 0 0-.769.267c-.318.134-.527.388-.632.743-.23.782-.298 1.596-.347 2.411-.004.053.029.111.044.166M54.25 32.423c-.145-.024-.356.073-.419.204-.099.208-.214.41-.282.63-.278.892-.543 1.788-.807 2.685a.965.965 0 0 0-.057.345c.016.172.039.36.113.507.166.32.423.541.752.657.12.043.376-.061.428-.18.048-.106.114-.205.137-.316.083-.402.165-.805.219-1.213.119-.873.225-1.75.323-2.627a.782.782 0 0 0-.138-.5.423.423 0 0 0-.269-.192m40.152-4.527h-.006c.001-.467.007-.935.003-1.403-.002-.254-.292-.521-.564-.534-.349-.018-.679.208-.76.521-.03.112-.072.221-.093.335-.164.861-.202 1.738-.227 2.615-.006.266.258.568.516.594.218.021.433.008.641-.079a.734.734 0 0 0 .476-.646c.03-.465.011-.935.014-1.403M37.47 22.294c-.083.069-.186.124-.244.212-.187.296-.214.653-.281.995-.086.436.032.808.339 1.111.322.319.653.622 1.061.811.237.108.582.013.718-.222.057-.1.125-.198.151-.307.072-.28.132-.564.179-.85.061-.378-.069-.692-.338-.938a4.224 4.224 0 0 0-1.268-.791c-.094-.037-.211-.015-.317-.021m26.917 14.375c-.007-.196-.011-.254-.01-.312.002-.133-.157-.358-.284-.394-.486-.14-1.051.157-1.193.646a17.706 17.706 0 0 0-.612 2.903c-.019.162.171.355.322.318.159-.037.32-.069.469-.128.55-.221.896-.646 1.015-1.263.121-.63.211-1.267.293-1.77m91.331-1.467c.017.054.031.111.058.162.147.288.607.426.855.244.086-.063.186-.15.215-.249.159-.555.302-1.116.444-1.677.17-.674.341-1.348.498-2.026.038-.166.033-.346.029-.521a.685.685 0 0 0-.199-.464c-.162-.174-.476-.133-.554.074-.082.214-.183.424-.229.648-.211 1.03-.554 2.008-.925 2.977-.062.161-.128.322-.171.489-.027.108-.017.228-.021.343m19.562 18.537c.008.089.01.148.021.205.071.347.183.676.352.983.114.207.417.24.552.056a8.695 8.695 0 0 0 1.126-2.108c.126-.337.089-.688-.062-1.022-.084-.181-.427-.274-.569-.153-.042.035-.097.056-.135.095a8.357 8.357 0 0 0-1.119 1.484c-.088.143-.118.323-.166.46M35.466 22.841c.092-.058.21-.092.266-.175.093-.137.168-.297.209-.46.139-.536.005-.933-.383-1.227-.312-.236-.638-.444-1.002-.574-.051-.019-.104-.02-.157-.034-.129-.034-.36.085-.418.204-.101.209-.139.435-.164.666a.98.98 0 0 0 .253.797c.308.338.659.61 1.079.76.1.035.212.03.317.043m142.362 33.324a2.568 2.568 0 0 0-.051-.242c-.03-.121-.103-.208-.205-.238a.235.235 0 0 0-.281.112c-.23.39-.46.783-.666 1.187a1.273 1.273 0 0 0-.122.499c-.018.359.08.689.288.982.092.129.346.17.426.052.124-.186.255-.369.364-.566.229-.408.318-.858.289-1.337-.008-.115-.021-.232-.042-.449m-142.314-.819a.342.342 0 0 0 .138.297.637.637 0 0 0 .626.094c.468-.178.872-.48 1.232-.84a.777.777 0 0 0 .168-.297.5.5 0 0 0-.091-.487c-.107-.132-.333-.201-.452-.148-.049.021-.108.025-.152.056-.502.346-1.02.674-1.42 1.164-.031.039-.033.107-.049.161m-4.512-35.971c.049.095.099.274.208.386.316.324.677.584 1.104.706a.252.252 0 0 0 .288-.113c.23-.361.199-.839-.058-1.117a2.114 2.114 0 0 0-.811-.561c-.38-.14-.782.2-.731.699m7.727 33.548c.062.094.111.206.192.276a.63.63 0 0 0 .613.122c.265-.079.489-.236.699-.424.21-.191.212-.559-.001-.771-.168-.168-.371-.26-.594-.223-.396.066-.697.293-.885.679a.457.457 0 0 0-.024.341m-8.463 7.455c.024.047.039.108.075.14.086.072.199.097.299.044.538-.279.976-.694 1.365-1.172a.43.43 0 0 0 .063-.156c.033-.118.009-.228-.077-.308-.038-.035-.093-.072-.138-.07-.105.007-.223.007-.308.062-.506.331-.93.763-1.261 1.296-.025.041-.013.109-.018.164m3.802-3.709c-.289.134-.675.321-.855.784-.036.091-.011.227.02.33.047.147.276.221.41.164.358-.147.639-.396.869-.721.089-.125.081-.373-.026-.468-.084-.075-.183-.11-.418-.089m-4.404-38.446a.345.345 0 0 0 .205-.262.522.522 0 0 0-.136-.469 2.487 2.487 0 0 0-.968-.587c-.11-.04-.214-.019-.29.063a.265.265 0 0 0-.038.311c.259.457.622.781 1.093.955.044.016.101-.008.134-.011m12.362 31.75c-.053 0-.111-.019-.159-.001-.311.115-.565.312-.681.656a.471.471 0 0 0 .102.472c.116.136.303.189.438.13.369-.163.581-.731.423-1.151-.019-.045-.081-.07-.123-.106M28.841 61.859a.289.289 0 0 0-.305.041c-.473.392-.922.813-1.303 1.312-.08.106-.06.235.04.294.096.055.209.024.302-.052.48-.385.917-.818 1.317-1.297.086-.103.05-.219-.051-.298m148.746-1.212c-.048.019-.11.025-.145.06a.964.964 0 0 0-.269.605c-.032.405-.006.806.077 1.203.011.052.059.136.085.136.117-.005.181-.092.213-.218.13-.501.145-1.021.199-1.534a.278.278 0 0 0-.038-.159c-.025-.041-.08-.063-.122-.093M26.621 15.999c.046-.017.108-.019.137-.054.028-.035.046-.119.027-.152a1.463 1.463 0 0 0-.212-.259c-.093-.092-.211-.11-.283-.021-.075.09-.04.211.065.296.082.071.177.128.266.19"/><path fill="none" d="M1 2h178.405v122.654H1z"/><path fill="#FFB547" d="M102.305 65.748a12.71 12.71 0 0 1-.167-.15 3.397 3.397 0 0 0-.485-.404 2.415 2.415 0 0 0-.348-.194 14.522 14.522 0 0 1-2.039-1.12c-.176-.115-.354-.228-.528-.346-.117-.079-.136-.196-.112-.325.009-.048.07-.106.114-.109.044-.001.089-.003.133-.001.123.002.241-.016.363-.035.273-.045.547-.094.824-.103.055-.002.111-.009.166-.014l1.094-.09c.287-.025.575-.026.863-.066.152-.021.309-.014.464-.021l.395-.017c.025-.035.052-.06.062-.089.339-.94.778-1.837 1.202-2.74.25-.533.508-1.061.787-1.578.073-.137.158-.267.234-.402.061-.106.115-.215.176-.321.048-.082.113-.137.217-.115.045.009.093.027.131.016.153-.043.284.008.412.08.028.017.06.03.09.044.066.033.094.09.097.161.003.078.007.155.004.233-.014.367.018.732.036 1.097.014.266.06.529.08.794.034.431.109.857.126 1.29.008.221.04.441.047.663.003.133.016.265.018.398 0 .103.024.197.057.293.012.036.061.074.101.074.032 0 .065 0 .099-.002.299-.021.597-.05.896-.065.355-.018.71-.026 1.065-.035.199-.005.398.003.599-.002.432-.009.864-.026 1.298-.035.164-.004.331-.039.492.026.028.011.066.002.096-.005a.501.501 0 0 0 .124-.049c.121-.069.235-.052.344.024.08.058.156.123.232.187.034.028.031.096-.003.117-.075.047-.15.094-.227.138-.086.05-.176.095-.26.149a1.163 1.163 0 0 1-.271.124c-.084.025-.172.049-.249.091-.303.164-.609.32-.882.533a7.536 7.536 0 0 1-.689.463c-.273.169-.549.337-.823.504-.256.156-.523.29-.796.413-.132.06-.256.132-.381.204-.05.03-.069.088-.057.146.012.053.024.108.049.158.121.249.214.51.296.775.037.125.096.247.156.365.145.275.273.558.347.861a.617.617 0 0 0 .03.095c.106.235.149.487.197.737.011.055.008.113.025.164.11.313.166.644.291.953.028.07.026.132-.038.176-.068.048-.072.104-.038.172a.966.966 0 0 1 .041.087c-.049.108-.161.11-.247.157a.66.66 0 0 1-.41.074c-.238-.155-.469-.309-.702-.455a5.968 5.968 0 0 1-.644-.475c-.254-.214-.503-.436-.78-.62-.057-.036-.109-.076-.168-.107a6.071 6.071 0 0 1-.981-.623c-.024-.021-.06-.026-.097-.044-.053.039-.111.072-.158.117-.191.186-.41.34-.627.494-.307.219-.608.443-.899.685a7.854 7.854 0 0 1-1.139.809c-.375.214-.743.44-1.116.661a.626.626 0 0 1-.278.1.132.132 0 0 1-.135-.074.329.329 0 0 1-.029-.225.867.867 0 0 1 .087-.214c.111-.205.223-.409.324-.619.237-.49.423-1.001.596-1.517.194-.578.383-1.157.576-1.734.049-.148.106-.292.17-.434.041-.102.06-.209.08-.328"/><path fill="#FFB547" d="M106.767 65.256c.13-.08.25-.158.374-.23a2.54 2.54 0 0 1 .239-.12c.518-.228 1.01-.505 1.489-.809l.422-.266c.075-.048.152-.092.221-.148.24-.198.497-.373.76-.538.02-.012.033-.03.052-.042.022-.016.029-.037.013-.058-.012-.015-.033-.034-.05-.035-.222-.003-.443-.009-.665-.007-.333.005-.666.021-.999.024-.498.005-.995.051-1.492.099-.231.021-.464.042-.687-.056-.081.015-.118-.043-.156-.098-.131-.188-.175-.408-.202-.627-.037-.309-.055-.619-.079-.928-.004-.056-.001-.111-.008-.167-.034-.363-.072-.727-.107-1.09-.016-.155-.018-.31-.039-.464a5.12 5.12 0 0 1-.053-.83c0-.088-.002-.178-.007-.266a.145.145 0 0 0-.021-.059.042.042 0 0 0-.028-.016c-.01-.002-.023 0-.028.006-.029.033-.062.065-.08.103-.081.169-.158.342-.236.512l-.262.575c-.104.233-.197.471-.311.699a20.442 20.442 0 0 0-.885 2.08 1.123 1.123 0 0 0-.085.387.29.29 0 0 1-.184.256.634.634 0 0 1-.288.073c-.188-.009-.377-.014-.564-.021-.178-.007-.355-.024-.532-.023-.232.004-.466.021-.698.033-.531.032-1.062.062-1.595.097-.11.007-.219.029-.328.047-.018.002-.042.021-.047.037-.004.018.004.048.018.059.078.063.158.122.236.182.265.204.54.389.841.537.219.107.436.217.654.327.428.216.83.47 1.187.791.124.111.231.24.389.31.038.017.054.069.048.116-.003.022-.005.045-.011.066-.025.085-.048.17-.078.254-.097.271-.182.546-.265.822-.108.361-.248.712-.359 1.072-.125.403-.261.801-.417 1.193-.062.154-.109.312-.164.471a.074.074 0 0 0-.001.033.05.05 0 0 0 .018.027c.006.006.018.013.025.01.136-.029.231-.125.337-.205.479-.359.954-.725 1.434-1.083.303-.227.593-.467.851-.744.106-.114.231-.206.351-.306a.173.173 0 0 1 .187-.025c.135.054.269.106.402.161a.282.282 0 0 1 .152.124c.076.14.191.237.316.333.15.115.304.224.464.323.235.146.469.292.687.467.19.153.375.312.561.471.103.086.204.174.323.232.015.008.04-.003.058-.01.008-.004.016-.019.016-.027a.177.177 0 0 0-.006-.066c-.135-.446-.258-.895-.438-1.326a6.536 6.536 0 0 1-.346-1.109c-.101-.457-.261-.893-.411-1.346a4.89 4.89 0 0 1 .087-.264M92.452 110.1c-.012.029-.018.063-.036.089a.561.561 0 0 0-.124.233c-.028.141-.141.223-.217.33-.017.025-.052.039-.082.053-.194.086-.365.213-.537.333-.227.159-.446.33-.667.497-.105.078-.12.127-.08.258.057.182.11.362.205.527.301.525.462 1.104.617 1.682a.216.216 0 0 1 .007.13c-.062.168-.087.343-.125.517-.012.053-.068.089-.126.087-.069-.001-.135-.017-.182-.067-.257-.268-.573-.453-.879-.656a7.209 7.209 0 0 1-.864-.674c-.066-.061-.134-.117-.201-.175-.031-.026-.097-.026-.124 0-.065.062-.135.117-.19.186a5.474 5.474 0 0 1-.951.88c-.115.087-.227.178-.339.27a4.21 4.21 0 0 0-.717.738c-.041.053-.083.104-.123.158-.063.084-.146.087-.239.064-.039-.009-.084-.058-.085-.091a.815.815 0 0 1 .082-.388c.051-.098.103-.197.142-.3.071-.187.121-.38.162-.575.103-.512.155-1.03.236-1.546.017-.108.021-.221.026-.332a.132.132 0 0 0-.052-.116 2.651 2.651 0 0 0-.196-.129c-.19-.11-.386-.216-.577-.328a3.304 3.304 0 0 1-1.093-1.053.225.225 0 0 1-.017-.223c.037-.08.081-.158.126-.234.03-.049.073-.082.136-.075.044.005.089.015.133.017.133.002.266.012.398-.016.03-.007.073-.004.094.014.094.082.205.074.314.066.177-.016.354-.033.531-.045.265-.021.53-.045.777-.02.077-.031.094-.088.117-.136.103-.222.202-.444.3-.668.045-.101.082-.206.128-.308a3.53 3.53 0 0 0 .239-.691c.085-.355.2-.703.343-1.041.039-.092.086-.18.136-.266.056-.094.146-.13.253-.132.051-.001.089.019.106.06.009.021.021.041.026.061.076.359.173.713.304 1.055.17.446.314.899.455 1.354.04.127.091.251.144.373.026.06.065.116.104.169.042.055.1.087.171.088.311.006.621.014.933.016.099.002.198-.012.297-.023.199-.021.396-.045.595-.068.046-.006.06.001.186.071"/><path fill="#FFB547" d="M89.852 110.614c-.149-.345-.306-.675-.389-1.034-.016-.065-.04-.127-.064-.189-.144-.371-.288-.742-.434-1.113-.007-.018-.027-.031-.041-.047a.249.249 0 0 0-.1.133c-.093.236-.199.468-.259.718-.088.368-.234.716-.357 1.071a1.1 1.1 0 0 1-.213.373c-.021.025-.053.043-.088.026-.089-.048-.171.013-.259.011-.063.043-.068.141-.161.168a2.036 2.036 0 0 0-.587.019 3.292 3.292 0 0 1-.465.031 6.572 6.572 0 0 0-.396.024c-.016.002-.03.027-.04.045-.003.007.002.021.009.03.028.034.054.068.086.099.173.159.37.281.576.395.136.074.273.145.412.215.149.076.281.172.403.297-.028.255-.058.508-.092.759-.037.264-.069.526-.105.79-.035.251-.088.499-.118.765.042-.013.077-.015.1-.031.167-.128.333-.257.499-.388.297-.232.595-.463.855-.737.092-.099.183-.194.233-.321.02-.051.051-.098.08-.145.044-.068.101-.119.187-.121.023 0 .047 0 .066-.006a.244.244 0 0 1 .246.061c.132.119.266.234.398.352.15.132.297.268.451.394.086.069.182.125.275.185.024.016.044.007.053-.018.004-.01.011-.021.009-.031-.011-.041-.02-.086-.037-.125-.058-.119-.123-.236-.181-.355-.142-.303-.218-.629-.307-.947-.074-.277.033-.504.252-.672.192-.148.398-.281.598-.424.035-.023.066-.055.098-.087.005-.005-.001-.021-.004-.03-.003-.008-.008-.021-.016-.023-.153-.036-.309-.018-.464-.01a1.84 1.84 0 0 1-.709-.107"/><path fill="#FFF" d="M53.354 87.736c.066.004.133.01.199.011.308.002.554.142.769.347.136.13.255.277.348.441a.914.914 0 0 1 .121.443c.003.262-.034.508-.237.7a3.11 3.11 0 0 1-.73.718 1.829 1.829 0 0 1-.721.325c-.043.009-.089.009-.129.024-.193.074-.367.027-.544-.057a.756.756 0 0 1-.282-.225 1.667 1.667 0 0 1-.266-.531 3.052 3.052 0 0 1-.141-.883c-.003-.22.023-.443.191-.617.11-.217.315-.337.498-.479a.453.453 0 0 1 .216-.08.66.66 0 0 0 .191-.047c.164-.074.337-.099.517-.09M58.994 62.576c.58-.011.947.165 1.248.494.135.149.244.316.34.492a.678.678 0 0 1 .01.64c-.076.161-.182.3-.311.427-.208.203-.442.37-.675.538a1.298 1.298 0 0 1-.622.219.829.829 0 0 1-.422-.072 1.354 1.354 0 0 1-.702-.678 1.761 1.761 0 0 1-.161-.906.765.765 0 0 1 .042-.194c.028-.083.063-.167.1-.247.135-.296.343-.511.663-.612.258-.083.325-.101.49-.101M58.864 75.874c.17-.013.352.03.536.073a.882.882 0 0 1 .43.24c.219.221.415.459.549.746a.747.747 0 0 1 .051.484.195.195 0 0 1-.021.063c-.177.362-.388.697-.753.903-.066.038-.13.084-.199.12-.098.052-.195.107-.298.146a.726.726 0 0 1-.752-.12 7.023 7.023 0 0 1-.401-.35 1.817 1.817 0 0 1-.435-.663c-.096-.244-.096-.498-.055-.754a.28.28 0 0 1 .055-.119c.081-.105.166-.207.251-.311a.48.48 0 0 1 .213-.153.947.947 0 0 0 .362-.229.285.285 0 0 1 .212-.077c.079.002.157.001.255.001M63.803 98.854a.83.83 0 0 1 .451.1c.077.043.155.089.159.195.002.061.053.094.088.135.205.25.361.529.478.832a.999.999 0 0 1 .073.455c-.01.121-.025.242-.037.363a.676.676 0 0 1-.247.457 3.214 3.214 0 0 1-.503.381c-.259.146-.526.17-.794.031-.352-.182-.42-.2-.635-.643a3.29 3.29 0 0 1-.311-1.25c-.008-.132.017-.266.028-.398a.703.703 0 0 1 .102-.278.463.463 0 0 1 .33-.254c.186-.034.37-.077.555-.108.085-.017.175-.014.263-.018M66.646 52.162a.705.705 0 0 1-.122.448c-.035.057-.064.118-.099.174a1.013 1.013 0 0 1-.236.277c-.149.115-.303.225-.456.334-.044.032-.095.058-.14.088-.241.167-.497.168-.762.077a.434.434 0 0 1-.088-.046 1.563 1.563 0 0 1-.55-2.047c.065-.127.155-.244.249-.353a.648.648 0 0 1 .412-.199c.298-.041.597-.037.894.019a.596.596 0 0 1 .319.167c.14.142.277.287.4.444a.822.822 0 0 1 .178.523v.094M78.138 98.441c-.004-.34.07-.658.256-.947.023-.037.045-.076.072-.11.171-.22.388-.321.669-.258.163.036.321.078.469.159.134.074.279.132.422.189a.447.447 0 0 1 .18.139c.234.273.316.603.346.948a.417.417 0 0 1-.017.165c-.084.238-.148.485-.296.699-.122.176-.26.328-.451.43l-.263.143c-.253.131-.494.092-.717-.068a1.327 1.327 0 0 1-.428-.5 3.141 3.141 0 0 1-.226-.691c-.02-.096-.011-.199-.016-.298M90.067 69.023c0-.291.055-.572.154-.848.089-.242.263-.408.48-.53a.644.644 0 0 1 .253-.069c.273-.027.534.042.775.152.194.087.351.235.46.422.096.164.171.338.215.521.029.131.064.258.11.383.092.256.029.484-.142.682-.165.186-.385.299-.604.406a.541.541 0 0 1-.229.036c-.144 0-.286.007-.431.017-.358.025-.646-.123-.861-.408a.926.926 0 0 1-.167-.465c-.008-.098-.008-.199-.013-.299M69.904 66.359c.066.007.135.004.197.02.108.03.217.043.328.043a.548.548 0 0 1 .253.07c.165.092.324.193.443.344.188.241.238.518.201.814a.874.874 0 0 1-.131.372c-.125.198-.285.364-.479.497s-.404.229-.625.303a.728.728 0 0 1-.52-.01c-.092-.035-.183-.08-.274-.119-.464-.195-.64-.79-.564-1.135.1-.453.352-.807.731-1.067a.731.731 0 0 1 .44-.132M77.622 54.268a.816.816 0 0 1-.269.642 1.926 1.926 0 0 1-.521.351c-.236.103-.486.149-.744.051a1.036 1.036 0 0 1-.491-.378 1.582 1.582 0 0 1-.302-.898 3.587 3.587 0 0 1 .021-.497c.043-.303.175-.569.383-.793a.583.583 0 0 1 .509-.189c.202.02.389.087.568.174.048.024.095.06.13.101.248.284.468.587.589.952.017.053.04.103.062.154a.693.693 0 0 1 .065.33M100.411 48.445a4.02 4.02 0 0 1 .105-.708.902.902 0 0 1 .276-.445.807.807 0 0 1 .418-.189.397.397 0 0 1 .164.012c.139.037.276.081.413.125.192.062.355.176.519.292a.455.455 0 0 1 .157.21c.095.247.196.492.245.756.085.449-.104.853-.511 1.047-.16.076-.325.141-.487.211a.615.615 0 0 1-.602-.048c-.348-.216-.574-.514-.647-.921-.021-.12-.034-.242-.05-.342M87.725 46.808c-.03.318-.058.583-.079.848a.287.287 0 0 1-.181.256 5.918 5.918 0 0 1-.403.15.272.272 0 0 1-.13.003c-.11-.015-.218-.036-.328-.054a.721.721 0 0 1-.355-.167 2.058 2.058 0 0 1-.526-.717 1.479 1.479 0 0 1-.076-.944c.039-.172.087-.343.135-.514a.753.753 0 0 1 .238-.39.349.349 0 0 1 .275-.093c.121.015.242.027.363.046.225.038.411.159.591.289a.487.487 0 0 1 .131.147c.145.25.281.502.308.797.01.133.046.262.037.343M88.81 103.736h-.18a.504.504 0 0 1-.334-.127c-.307-.254-.412-.594-.396-.977a1.4 1.4 0 0 1 .153-.572c.061-.119.109-.243.171-.36a.848.848 0 0 1 .295-.352.482.482 0 0 1 .217-.081c.066-.003.133-.006.198-.017a1.1 1.1 0 0 1 .553.069c.371.139.596.408.729.768.034.094.055.191.073.291.061.311-.025.59-.182.856a.543.543 0 0 1-.185.187c-.236.15-.495.244-.765.314a.7.7 0 0 1-.347.001M78.338 64.991c-.007-.289.051-.533.213-.746.123-.161.273-.29.453-.38a.82.82 0 0 1 .391-.066c.202.007.39.075.584.122.07.018.136.073.194.125.166.149.278.343.416.517.091.226.194.446.182.701-.017.338-.179.585-.448.773-.055.038-.118.062-.173.1-.21.144-.452.173-.696.192a.795.795 0 0 1-.612-.211 1.424 1.424 0 0 1-.485-.921c-.009-.078-.014-.154-.019-.206M70.085 88.729a.987.987 0 0 1 .084-.466c.037-.08.083-.156.12-.236.077-.17.2-.289.37-.361.051-.021.101-.049.154-.059.098-.021.195-.035.295-.047.1-.013.198-.018.287.047.09.064.207.065.299.137.237.182.493.337.688.569.202.241.302.51.254.828a.614.614 0 0 1-.148.327 2.536 2.536 0 0 1-.546.482c-.044.029-.099.047-.15.066-.126.047-.258.057-.39.068a.702.702 0 0 1-.499-.146 5.404 5.404 0 0 1-.362-.29c-.231-.207-.358-.476-.437-.77-.019-.06-.017-.129-.019-.149M90.215 58.271c-.127-.044-.241-.121-.381-.113a.984.984 0 0 1-.688-.574 1.118 1.118 0 0 1-.115-.479c0-.144.003-.288.013-.431.006-.099.029-.198.035-.296.008-.146.053-.284.095-.42a.65.65 0 0 1 .117-.197.314.314 0 0 1 .261-.125c.089.002.178.002.264.019.152.03.301.075.452.107.179.038.323.143.47.242a.587.587 0 0 1 .156.169c.075.123.143.25.201.38.059.131.104.268.155.401a.523.523 0 0 1-.058.506c-.087.129-.173.256-.249.392a.62.62 0 0 1-.291.262 2.073 2.073 0 0 1-.437.157"/><path fill="#FFB547" d="M100.745 108.129c.165-.018.295-.001.41.081.025.019.05.044.071.067.026.025.037.063.018.09-.095.131-.126.282-.167.432a.192.192 0 0 1-.291.104c-.036-.025-.063-.061-.1-.088a.256.256 0 0 0-.331.027.95.95 0 0 0-.131.191c-.041.07-.013.19.06.236.073.049.151.092.231.127.223.102.446.199.671.295.245.104.424.277.554.506.027.049.052.1.062.152.045.232.043.465-.039.689l-.198.529a.916.916 0 0 1-.299.393.613.613 0 0 1-.471.119 3.11 3.11 0 0 1-.358-.073 5.559 5.559 0 0 1-.382-.11.397.397 0 0 1-.265-.234c-.029-.071-.076-.134-.121-.197a.226.226 0 0 1-.04-.156 1.02 1.02 0 0 1 .09-.319.335.335 0 0 1 .285-.199.287.287 0 0 1 .268.098c.058.068.106.14.14.224.051.125.148.189.276.215.12.023.237.057.357.072.154.021.259-.094.273-.229.028-.274-.088-.496-.287-.676a1.127 1.127 0 0 0-.309-.194 36.541 36.541 0 0 1-.64-.283 2.072 2.072 0 0 1-.233-.123.332.332 0 0 1-.153-.247 1.21 1.21 0 0 1 .05-.59c.07-.188.152-.37.269-.533a.97.97 0 0 1 .257-.258c.153-.101.316-.162.473-.138"/><path fill="#FFF" d="M70.906 76.279c.027-.25.073-.484.202-.68a.899.899 0 0 1 .755-.422 1.48 1.48 0 0 1 .618.109c.255.105.453.277.585.52.063.115.115.239.163.363.085.233.042.459-.072.673a1.058 1.058 0 0 1-.299.353c-.15.113-.293.234-.477.3a.78.78 0 0 1-.458.021 2.76 2.76 0 0 1-.314-.106c-.361-.143-.569-.411-.648-.785-.024-.119-.039-.24-.055-.346M113.748 94.018c-.055 0-.111-.002-.166 0a.465.465 0 0 1-.398-.203c-.171-.228-.272-.475-.232-.771.038-.281.128-.535.309-.758.09-.111.171-.23.257-.346.042-.055.094-.092.168-.088a.411.411 0 0 0 .099-.01c.266-.073.526-.045.786.03.116.035.23.069.328.151.05.041.117.061.175.094a.653.653 0 0 1 .34.467c.013.064.021.13.025.196a.71.71 0 0 1-.24.594 2.695 2.695 0 0 1-.399.296c-.131.082-.267.156-.403.23a1.024 1.024 0 0 1-.154.06c-.163.05-.327.064-.495.058M98.91 101.197c.046.003.091.003.135.01a.265.265 0 0 1 .229.206c.047.206.109.406.176.606.05.148.115.288.188.426.054.102.131.1.197-.006.082-.133.146-.273.192-.422.101-.329.209-.655.267-.996.006-.037.053-.08.091-.086a.488.488 0 0 1 .292.033c.073.035.132.08.151.164.013.055.031.107.038.162.025.244.091.479.147.715.07.303.138.605.206.908.022.098.051.193.067.291a.127.127 0 0 1-.026.092.951.951 0 0 1-.301.199c-.015.008-.044-.004-.061-.014a.287.287 0 0 1-.133-.184c-.035-.129-.059-.26-.091-.389-.031-.13-.063-.258-.099-.387a.222.222 0 0 0-.048-.086c-.009-.012-.048-.016-.056-.008a.819.819 0 0 0-.093.136 1.083 1.083 0 0 1-.548.513c-.05.022-.1.047-.147.075-.066.04-.129.026-.188-.011-.064-.042-.124-.092-.188-.136-.022-.017-.074.001-.081.028-.045.182-.101.362-.134.548-.039.218-.182.319-.373.378-.051.016-.108.015-.163.015-.019 0-.049-.019-.053-.033-.032-.104-.081-.202-.038-.32.056-.156.092-.319.13-.481a3.24 3.24 0 0 0 .07-.693 6.314 6.314 0 0 0-.02-.631c-.013-.18.007-.354.039-.529.009-.041.051-.082.091-.084l.135-.009M82.447 82.223a.506.506 0 0 1-.316-.086c-.306-.188-.51-.451-.571-.812-.008-.055-.012-.111-.025-.164-.092-.36.017-.677.208-.975a.707.707 0 0 1 .48-.326c.031-.005.064-.015.096-.023.311-.087.587-.001.847.171.276.181.411.456.503.755a.62.62 0 0 1 .013.264c-.051.302-.163.578-.386.793a1.669 1.669 0 0 1-.652.381c-.062.018-.13.015-.197.022M113.839 101.869c.014-.189.029-.355.039-.521.006-.082-.02-.11-.122-.111-.074 0-.132-.019-.167-.082a.255.255 0 0 1 .135-.356c.259-.097.523-.079.787-.035.177.028.343.089.492.192.072.051.147.098.222.146.123.08.219.186.299.309a.493.493 0 0 1 .043.475.695.695 0 0 1-.286.354c-.085.053-.17.103-.253.156-.022.015-.019.041 0 .058.023.021.047.047.076.062.199.094.395.207.604.273.272.086.454.264.604.49.033.051.019.1-.032.143a.402.402 0 0 1-.269.113c-.042 0-.101-.009-.122-.036-.14-.174-.339-.241-.531-.323a7.76 7.76 0 0 1-.424-.195 1.72 1.72 0 0 0-.406-.137c-.022-.004-.07.035-.069.061.008.198.015.397.02.598a.97.97 0 0 1-.001.132.168.168 0 0 1-.111.151c-.104.04-.206.085-.32.088-.072.002-.13-.031-.143-.105a1.37 1.37 0 0 1-.024-.23c.001-.365-.025-.73-.059-1.095a2.772 2.772 0 0 1 .018-.575m.588-.027c.01.053.016.107.03.16.006.017.032.039.049.039a.663.663 0 0 0 .488-.242c.054-.066.05-.183 0-.249a.726.726 0 0 0-.381-.255c-.039-.011-.093.016-.107.055-.012.031-.026.062-.031.094-.019.132-.033.265-.048.398M94.648 78.702c-.006.036-.014.112-.026.188a.605.605 0 0 1-.166.32c-.113.119-.228.24-.344.358a.601.601 0 0 1-.132.103 9.402 9.402 0 0 1-.408.218c-.327.165-.665.021-.856-.231a.87.87 0 0 1-.175-.492c-.012-.305.02-.598.163-.871.036-.07.06-.145.09-.216a.705.705 0 0 1 .268-.329c.02-.012.039-.023.057-.037.182-.156.396-.186.622-.168.045.004.089.014.133.016a.563.563 0 0 1 .354.164c.032.03.061.064.093.096.217.224.317.379.327.881M134.454 52.76c.012.189.003.342-.043.493a.466.466 0 0 1-.152.25c-.293.231-.613.393-.999.384-.334-.007-.596-.141-.77-.433a1.32 1.32 0 0 1-.168-1.019c.062-.261.19-.495.423-.654a.413.413 0 0 1 .212-.086c.165-.012.328-.01.49.047.239.083.484.147.714.263.117.06.189.145.23.266.059.17.069.345.063.489"/><path fill="#FFB547" d="M97.598 108.596c.033.035.036.08.033.123-.012.211-.015.422-.042.629-.08.588.005 1.148.235 1.69a.667.667 0 0 0 .421.397c.051.017.108.021.163.025a.2.2 0 0 0 .149-.061.62.62 0 0 0 .184-.311c.023-.084.039-.172.041-.262a4.19 4.19 0 0 0-.101-1.154 8.779 8.779 0 0 1-.095-.456.817.817 0 0 1 .129-.603.302.302 0 0 1 .28-.144c.036 0 .07.02.076.052.068.357.156.715.191 1.078.041.418.031.841-.086 1.253-.036.128-.065.258-.099.386a2.535 2.535 0 0 1-.264.609.592.592 0 0 1-.548.314 1.317 1.317 0 0 1-.264-.024.759.759 0 0 1-.562-.423 3.236 3.236 0 0 1-.322-1.18 4.332 4.332 0 0 1 .002-.764c.018-.221.033-.442.007-.664-.021-.177.053-.324.16-.457a.147.147 0 0 1 .082-.051c.078-.005.154-.033.23-.002"/><path fill="#FFF" d="M110.812 47.8a1.542 1.542 0 0 1 .264-.931c.068-.1.126-.208.192-.311a.489.489 0 0 1 .379-.236c.055-.006.11-.016.164-.017.317-.015.458.039.684.261.195.193.311.434.366.695a.792.792 0 0 1-.153.688c-.146.184-.292.36-.508.467-.05.024-.093.06-.139.091a1.145 1.145 0 0 1-.757.192.257.257 0 0 1-.176-.081c-.193-.21-.32-.449-.316-.742V47.8M124.188 83.324c.03.207-.02.399-.075.592a.836.836 0 0 1-.406.504 2.422 2.422 0 0 1-.742.279c-.289.058-.497-.061-.66-.28a1.076 1.076 0 0 1-.184-.493c-.053-.4.021-.771.247-1.108a.932.932 0 0 1 .314-.288c.267-.154.532-.119.795.004.13.061.259.125.362.23a.835.835 0 0 0 .216.152c.101.053.138.138.134.247-.004.056-.001.11-.001.161M104.85 100.672h.299a.6.6 0 0 1 .312.104c.052.034.063.095.019.138-.03.031-.062.061-.096.091a.29.29 0 0 1-.212.081 2.128 2.128 0 0 0-.528.047c-.118.025-.236.055-.354.084-.036.01-.083.07-.072.1.079.233.086.479.125.719.004.033.01.066.024.096.013.029.039.057.076.053.11-.008.222-.013.33-.027.165-.021.328-.049.493-.072.065-.01.132-.016.198-.021a.164.164 0 0 1 .122.041c.041.038.082.075.122.114.03.031.032.092.006.12a.604.604 0 0 1-.366.208c-.23.031-.458.074-.689.113a1.234 1.234 0 0 0-.128.029c-.034.008-.081.066-.079.099.018.209.035.419.057.629.01.103.063.134.158.099.188-.069.373-.143.562-.21.114-.04.231-.074.349-.108.066-.019.126-.004.188.036.275.185.258.216.01.382a.768.768 0 0 1-.208.1 8.71 8.71 0 0 0-.75.271c-.133.053-.273.091-.41.134a.328.328 0 0 1-.426-.258c-.02-.12-.042-.24-.048-.361a9.294 9.294 0 0 0-.146-1.187 19.33 19.33 0 0 1-.11-.722c-.023-.166-.01-.33.034-.494a.344.344 0 0 1 .153-.209 1.45 1.45 0 0 1 .688-.219c.098-.008.198-.001.299-.001v.001zM127.019 70.963c-.171-.01-.313-.012-.454-.062a.524.524 0 0 1-.224-.137.81.81 0 0 1-.213-.477 2.011 2.011 0 0 1 .001-.233.558.558 0 0 1 .029-.163c.077-.198.18-.385.349-.52.182-.146.374-.275.562-.413a.507.507 0 0 1 .38-.087c.245.034.476.11.682.247a.413.413 0 0 1 .135.144.872.872 0 0 1 .095.611 1.716 1.716 0 0 1-.159.436.881.881 0 0 1-.345.353c-.144.082-.296.151-.445.226a.677.677 0 0 1-.393.075M124.21 49.301c0 .044-.002.088 0 .133.009.24-.098.429-.278.576-.12.098-.248.186-.381.266-.123.075-.255.135-.382.202a.629.629 0 0 1-.485.03.484.484 0 0 1-.143-.081.774.774 0 0 1-.255-.343 1.432 1.432 0 0 1-.098-.351c-.053-.396.02-.771.212-1.123.026-.048.06-.094.091-.14.099-.143.24-.206.404-.162.194.052.39.069.588.088a.97.97 0 0 1 .343.12c.1.053.188.118.24.222a.65.65 0 0 0 .053.083.486.486 0 0 1 .092.312c-.002.057 0 .113-.001.168zM102.05 101.059c.405.018.728.091 1.021.266.134.078.274.145.38.266.095.107.125.23.097.371a.723.723 0 0 1-.026.096.912.912 0 0 1-.171.283 1.561 1.561 0 0 1-.53.394c-.132.06-.264.117-.395.177-.069.032-.096.08-.084.161.025.165.051.329.084.491.012.053.04.104.065.152.03.06.078.113.094.176.042.172.039.305-.154.383-.103.041-.206.084-.31.123-.015.005-.046-.01-.058-.023a.407.407 0 0 1-.075-.107 1.958 1.958 0 0 1-.15-.475c-.037-.208-.068-.416-.103-.624-.005-.033-.005-.067-.018-.099-.094-.242-.091-.5-.117-.752-.016-.156-.03-.311-.047-.464-.01-.089-.02-.095-.125-.118-.106-.022-.161-.079-.167-.172a.274.274 0 0 1 .051-.189.628.628 0 0 1 .316-.232c.159-.055.322-.094.422-.084m.145.879h-.01c.018.153.035.307.055.459.004.037.067.07.104.06.241-.073.43-.222.583-.417.019-.025.028-.059.04-.09a.184.184 0 0 0-.068-.203c-.178-.125-.38-.171-.59-.198-.057-.007-.111.035-.112.091-.004.098-.002.198-.002.298M104.45 75.895a.515.515 0 0 1-.386-.144c-.131-.129-.2-.29-.251-.462-.087-.301-.008-.57.168-.816.077-.107.167-.207.26-.303.115-.119.246-.223.353-.352.069-.084.166-.109.271-.087.107.023.215.055.322.084.021.005.052.014.058.028.053.133.192.137.29.201a.348.348 0 0 1 .102.084c.127.168.262.33.33.535a.649.649 0 0 1 .036.228.339.339 0 0 1-.055.188c-.156.234-.338.438-.608.548-.091.038-.172.102-.265.138-.209.08-.43.098-.625.13M90.676 92.143c.06 0 .093.004.126-.001.161-.018.301.036.439.114.122.068.212.16.261.287.104.262.145.533.12.812a.422.422 0 0 1-.151.287c-.278.239-.568.456-.938.534a.393.393 0 0 1-.26-.019c-.06-.027-.121-.053-.179-.086a1.476 1.476 0 0 1-.414-.377.82.82 0 0 1-.171-.459 1.292 1.292 0 0 1 .117-.613.678.678 0 0 1 .517-.42c.184-.036.369-.08.533-.059M101.471 86.004c.068 0 .113-.002.157 0 .362.004.267-.012.607.126.284.116.416.344.443.644a.586.586 0 0 1-.219.526 2.928 2.928 0 0 1-.457.327 5.06 5.06 0 0 1-.567.269.508.508 0 0 1-.622-.17c-.129-.165-.249-.345-.303-.548-.091-.343-.06-.68.122-.993a.341.341 0 0 1 .237-.167c.151-.027.304-.061.46-.03.056.01.111.012.142.016M114.921 56.75c.002-.026.003-.115.012-.203a.896.896 0 0 1 .389-.667.305.305 0 0 1 .119-.054 8.2 8.2 0 0 1 .494-.056c.121-.009.241.014.361.037a.475.475 0 0 1 .361.26c.02.039.044.076.071.112.201.268.191.553.076.849a.94.94 0 0 1-.267.375c-.109.094-.214.191-.325.283a.704.704 0 0 1-.141.087c-.118.058-.241.113-.361.167a.268.268 0 0 1-.195.004.527.527 0 0 1-.248-.158c-.207-.243-.345-.514-.347-.842l.001-.194M129.912 92.072c.044.006.112.008.175.027.158.049.314.104.47.161a.69.69 0 0 1 .395.383c.068.151.115.312.133.478a.686.686 0 0 1-.076.385 1.1 1.1 0 0 1-.228.284.311.311 0 0 1-.111.071 4.646 4.646 0 0 1-.702.192.369.369 0 0 1-.258-.032c-.09-.045-.18-.088-.268-.135a.788.788 0 0 1-.326-.321 1.462 1.462 0 0 1-.179-.565c-.029-.236.069-.434.216-.607.192-.227.45-.307.759-.321M117.185 103.381c.01 0-.014.001-.034-.006-.138-.041-.274-.084-.412-.127-.021-.007-.039-.02-.061-.028-.158-.073-.203-.177-.152-.352.021-.069.088-.114.15-.097.064.016.128.037.191.053.163.041.326.053.494.047.24-.009.455-.084.658-.204.051-.029.045-.103-.007-.136-.028-.016-.056-.034-.086-.049-.129-.064-.258-.131-.388-.191-.271-.127-.544-.248-.813-.378a1.903 1.903 0 0 1-.311-.19c-.078-.061-.144-.139-.209-.213-.053-.059-.067-.133-.075-.214-.028-.278.078-.491.289-.669a1.51 1.51 0 0 1 .754-.322.518.518 0 0 1 .229.029c.274.098.521.246.707.477a.45.45 0 0 1 .099.277c0 .033-.038.096-.07.104-.063.016-.128.033-.193.037-.069.006-.131-.016-.166-.084-.01-.02-.023-.038-.033-.058-.073-.163-.213-.251-.367-.319a.274.274 0 0 0-.256.018 1.177 1.177 0 0 0-.275.236c-.139.155-.114.346.057.457.074.047.154.086.234.124.28.134.562.265.841.399.079.037.156.081.235.121.162.082.29.203.404.34a.293.293 0 0 1-.002.395.959.959 0 0 1-.345.255 3.49 3.49 0 0 1-.923.267c-.044.005-.088.001-.164.001M95.971 102.42c-.009-.273.06-.509.146-.736a.788.788 0 0 1 .307-.383c.093-.061.196-.073.28-.01.156.117.328.165.519.191.233.033.44.145.621.297a.754.754 0 0 1 .205.258c.18.393.204.787.002 1.182-.088.17-.208.312-.369.419a1.546 1.546 0 0 1-.572.252.636.636 0 0 1-.586-.155 1.67 1.67 0 0 1-.467-.752c-.06-.19-.106-.386-.086-.563m.657.031c-.024.297.081.574.215.843a.167.167 0 0 0 .195.083.8.8 0 0 0 .571-.8.713.713 0 0 0-.294-.599.535.535 0 0 0-.27-.117.318.318 0 0 0-.191.039.403.403 0 0 0-.227.373c-.001.055.001.111.001.178M115.653 78.428c-.099 0-.199.001-.299-.001a.27.27 0 0 1-.178-.077c-.017-.015-.035-.027-.05-.044-.238-.296-.327-.621-.209-.992.1-.319.291-.565.581-.733.203-.117.425-.131.646-.094.149.026.298.081.435.156.1.054.184.125.237.225.143.264.19.544.104.834-.062.211-.213.36-.397.471-.114.068-.23.131-.351.188a.648.648 0 0 1-.188.056c-.109.012-.221.011-.331.016v-.005zM133.9 73.818c-.013-.4.124-.703.383-.955.078-.076.16-.151.244-.224a.65.65 0 0 1 .589-.146c.205.046.403.119.565.261.219.191.309.426.228.713a1.744 1.744 0 0 1-.252.538.891.891 0 0 1-.229.237c-.155.104-.323.188-.49.273a1.011 1.011 0 0 1-.485.092.44.44 0 0 1-.341-.179c-.149-.19-.23-.401-.212-.61M135.985 86.325l-.011.266a.799.799 0 0 1-.072.289.422.422 0 0 1-.189.226c-.168.083-.32.198-.513.229-.196.031-.393.073-.588.115a.39.39 0 0 1-.339-.096.298.298 0 0 1-.047-.047c-.155-.197-.26-.418-.252-.671.016-.454.215-.807.611-1.042a.55.55 0 0 1 .255-.066c.155-.008.311-.003.465 0 .032 0 .068.006.097.021.158.08.313.164.469.25a.195.195 0 0 1 .104.162c.009.121.015.242.021.363l-.011.001zM127.735 101.366a.802.802 0 0 1-.095.386c-.111.19-.22.382-.352.561a.847.847 0 0 1-.487.324c-.256.062-.504.033-.707-.17a1.308 1.308 0 0 1-.226-.283.655.655 0 0 1-.086-.317c0-.022.002-.044-.001-.066-.039-.356.118-.643.328-.908a.477.477 0 0 1 .121-.112c.376-.238.766-.261 1.162-.055a.539.539 0 0 1 .285.352c.026.094.04.192.058.288M112.147 103.61c-.023 0-.045-.002-.066 0-.216.013-.367-.101-.459-.274a1.614 1.614 0 0 1-.189-.994c.029-.213.094-.41.178-.604.099-.23.271-.404.45-.566.138-.125.322-.146.501-.139.109.004.221.033.325.064.353.109.576.359.722.689a.917.917 0 0 1 .048.523c-.094.565-.534 1.026-.93 1.176-.19.072-.374.138-.58.125m1.01-1.542c.019-.107-.028-.238-.127-.352-.044-.051-.089-.1-.131-.15a.502.502 0 0 0-.256-.145.185.185 0 0 0-.156.029.307.307 0 0 0-.145.246.28.28 0 0 1-.123.223c-.136.095-.193.234-.218.393-.008.055-.018.109-.021.164-.011.167.011.33.068.486.026.07.072.1.151.104a.555.555 0 0 0 .349-.077c.056-.035.115-.064.169-.102.278-.184.419-.444.44-.819M124.13 61.705c.017-.232.064-.478.196-.704.113-.198.275-.343.472-.452a.444.444 0 0 1 .156-.049.87.87 0 0 1 .517.074c.039.021.08.037.12.054.271.121.4.34.428.623a.951.951 0 0 1-.14.635c-.03.046-.059.094-.084.143a.74.74 0 0 1-.355.333c-.117.059-.241.108-.362.163a.584.584 0 0 1-.292.045.373.373 0 0 1-.262-.123c-.059-.065-.113-.139-.183-.191-.157-.118-.209-.277-.211-.462v-.089M115.794 67.443c0-.1-.005-.199.001-.299a.524.524 0 0 1 .181-.344c.159-.154.355-.217.569-.234.164-.012.331-.012.489.055a.626.626 0 0 0 .128.037c.221.037.378.178.517.336.197.223.174.621-.009.828a.863.863 0 0 1-.229.189c-.097.055-.195.107-.283.173a.866.866 0 0 1-.33.146c-.086.02-.175.027-.26.053-.219.065-.391-.015-.533-.174a.92.92 0 0 1-.243-.601c-.002-.055 0-.11 0-.165h.002zM94.485 102.754c.008.236.053.439.142.634.021.048.074.078.135.076.203-.007.395-.055.566-.167.046-.031.088-.07.138-.09a.167.167 0 0 1 .128 0c.067.033.131.078.191.127.074.057.075.125.016.199a.75.75 0 0 1-.281.228 2 2 0 0 1-.695.208c-.378.027-.673-.096-.862-.438a1.537 1.537 0 0 1-.199-.83c.019-.422.118-.832.332-1.204a2.2 2.2 0 0 1 .211-.298.8.8 0 0 1 .26-.203.503.503 0 0 1 .417-.031c.127.044.245.1.353.182.077.059.11.206.062.302a.155.155 0 0 1-.04.052.567.567 0 0 1-.273.111c-.059.008-.105-.02-.155-.043-.021-.013-.066.002-.09.02a.202.202 0 0 0-.062.076c-.199.343-.274.722-.294 1.089M110.655 100.643c.161.01.316.027.471.027.143 0 .256.062.368.135.032.021.041.088.021.119-.06.087-.139.148-.244.156-.132.01-.266.006-.398.01-.1.003-.199.006-.298.017a.171.171 0 0 0-.15.155c-.027.242-.035.486.008.728.073.403.148.807.226 1.208.021.108.055.215.081.322.012.051-.02.113-.071.137-.08.036-.159.074-.251.082-.097.009-.174-.029-.215-.118a1.63 1.63 0 0 1-.121-.413l-.181-.98a3.118 3.118 0 0 1-.045-.562c-.001-.533.061-.51-.471-.404-.055.012-.109.016-.166.021-.055.005-.137-.055-.15-.111a.273.273 0 0 1 .012-.193.237.237 0 0 1 .085-.098.746.746 0 0 1 .185-.074 3.522 3.522 0 0 1 1.113-.162l.191-.002M106.701 103.697c-.023-.039-.065-.083-.073-.132a2.405 2.405 0 0 1-.033-.396 6.677 6.677 0 0 0-.07-.96 6.459 6.459 0 0 1-.043-.761c0-.064.011-.133-.035-.189-.113-.018-.22.018-.327.041a.92.92 0 0 1-.296.027c-.076-.01-.149-.074-.156-.148a1.282 1.282 0 0 1 0-.164.197.197 0 0 1 .124-.145c.011-.003.021-.006.032-.007.29-.015.563-.112.845-.17.249-.05.498-.099.754-.101a.608.608 0 0 1 .398.137c.021.018.028.064.011.088a.429.429 0 0 1-.299.189c-.109.014-.218.039-.326.061-.07.016-.107.061-.123.137-.068.354-.025.703.022 1.055.051.384.083.77.074 1.158a.195.195 0 0 1-.117.184c-.111.051-.22.106-.362.096M108.737 101.092c0 .234.004.443 0 .654-.007.277.024.55.077.822.056.283.072.568.063.857 0 .043-.007.087-.009.123-.022.023-.033.045-.051.053-.09.039-.181.08-.274.112a.176.176 0 0 1-.099-.003c-.043-.012-.081-.039-.093-.086a.708.708 0 0 1-.021-.129 9.95 9.95 0 0 0-.107-1.021c-.038-.216-.049-.439-.066-.658-.022-.256.021-.507.057-.758.003-.021.013-.042.019-.062.044-.13.188-.176.295-.092.07.054.132.117.209.188M94.637 111.174c-.077.022-.161.061-.247.068-.233.019-.457.078-.683.133a.685.685 0 0 1-.422-.035.134.134 0 0 1-.07-.104.49.49 0 0 1 .186-.407.34.34 0 0 1 .148-.068c.161-.033.325-.062.489-.084.208-.029.417-.049.626-.07.055-.005.11.006.165.008.025.001.054.054.045.076-.015.029-.028.061-.042.09-.06.117-.117.235-.195.393M94.534 109.475c-.038.15-.114.248-.154.36a.414.414 0 0 1-.048.087c-.037.055-.084.105-.15.121-.173.037-.346.075-.519.102a.546.546 0 0 1-.353-.062.185.185 0 0 1-.083-.227.81.81 0 0 1 .184-.271.238.238 0 0 1 .177-.08c.2-.001.395-.045.592-.062.044-.004.089-.009.132-.005.065.005.13.02.222.037M92.59 102.549c.036.008.104.016.163.042.069.032.131.079.195.12.021.014.017.076-.007.088-.106.058-.209.129-.321.167-.251.087-.507.158-.762.233a.378.378 0 0 1-.13.011c-.057-.005-.108-.032-.129-.089a.637.637 0 0 1-.035-.16.217.217 0 0 1 .156-.229c.251-.084.512-.141.773-.18.023-.002.045-.001.097-.003M92.815 102.098c-.299.125-.434.161-.676.174-.2.01-.4.016-.6.023-.029.002-.087-.049-.096-.081-.005-.021-.014-.042-.016-.064-.017-.187.053-.276.237-.282.232-.008.466-.005.699-.002.042 0 .087.014.127.03.093.038.185.077.272.122.027.013.036.052.053.08M137.973 100.826c.01.004.023.005.028.012.014.023.004.034-.024.025a.046.046 0 0 1-.018-.021c-.002-.003.01-.011.014-.016M75.057 85.653c-.01.003-.02.013-.029.011-.033-.008-.035-.021-.008-.037.008-.004.022 0 .03.004.005.002.005.014.007.022M75.216 85.242l.027-.006-.004.02zM117.758 48.917l.031.025-.023.021c-.007-.008-.017-.015-.02-.024-.002-.003.007-.013.012-.022M104.113 65.304c.007.007.021.019.02.022-.015.029-.03.027-.04-.003-.001-.003.013-.012.02-.019"/><path fill="none" d="M46.492 36h96.919v83.848H46.492z"/></svg>
