<svg xmlns="http://www.w3.org/2000/svg" viewBox="0 0 170 120"><path class="bubble" fill="#FFB547" d="M92.545 107.479c-1.383.584-2.698 1.143-4.014 1.697-.658.278-1.322.54-2.025.69-.215.047-.432.1-.632.186-1.167.496-2.397.795-3.609 1.148-.738.215-1.48.416-2.229.592-1.336.318-2.661.682-4.019.904-.542.088-1.076.223-1.617.322-1.406.256-2.813.496-4.237.625-.438.039-.873.113-1.309.162-.71.08-1.419.184-2.131.221-1.7.092-3.399.215-5.103.24-.439.007-.879-.008-1.318-.014-.44-.006-.879-.027-1.319-.014-1.541.041-3.078-.057-4.609-.188a79.725 79.725 0 0 1-4.749-.537c-2.61-.383-5.213-.824-7.769-1.484-1.116-.289-2.244-.541-3.329-.942a2.538 2.538 0 0 0-.314-.099c-1.188-.255-2.312-.705-3.438-1.143-1.537-.598-3.066-1.212-4.598-1.822a14.86 14.86 0 0 1-1.788-.842c-.527-.295-1.073-.555-1.612-.828-1.324-.672-2.595-1.438-3.861-2.207-.47-.286-.902-.628-1.369-.919-2.014-1.257-3.792-2.814-5.579-4.36a27.521 27.521 0 0 1-1.897-1.83c-1.329-1.391-2.61-2.824-3.758-4.371a41.228 41.228 0 0 1-2.271-3.437c-.113-.188-.202-.392-.328-.571-.642-.902-1.089-1.906-1.533-2.912-.178-.401-.355-.804-.529-1.207-.499-1.161-1.021-2.314-1.273-3.564-.563-1.672-.882-3.399-1.165-5.137-.331-2.015-.421-4.042-.335-6.078.047-1.099.082-2.191-.028-3.291-.077-.765-.071-1.537-.082-2.306-.011-.714.016-1.431.129-2.138.174-1.084.363-2.167.572-3.245a9.37 9.37 0 0 1 .364-1.266c.462-1.353 1-2.676 1.564-3.989.349-.812.8-1.568 1.251-2.32.819-1.366 1.606-2.752 2.485-4.082 1.182-1.789 2.367-3.573 3.661-5.282.763-1.008 1.495-2.037 2.251-3.05.329-.44.679-.863 1.021-1.292.995-1.246 2.058-2.436 2.986-3.732.096-.135.204-.26.318-.38 1.289-1.354 2.444-2.825 3.674-4.23.434-.496.882-.979 1.326-1.466.222-.245.453-.479.674-.724a94.207 94.207 0 0 1 6.855-6.89c.041-.037.083-.071.124-.109 2.124-2 4.418-3.792 6.768-5.514 1.063-.779 2.132-1.558 3.252-2.249 1.074-.663 2.108-1.397 3.262-1.925.249-.114.49-.253.714-.409.681-.474 1.425-.828 2.18-1.16a717.542 717.542 0 0 1 3.927-1.716c.353-.152.703-.326 1.072-.425 1.273-.343 2.5-.833 3.777-1.165a49.52 49.52 0 0 1 11.399-1.593 30.409 30.409 0 0 1 1.812.007c1.099.043 2.195.104 3.292.166 2.751.159 5.459.607 8.143 1.207.645.144 1.282.312 1.925.457a15.19 15.19 0 0 1 1.746.484c.208.073.416.148.63.193 1.025.219 2.002.589 2.976.968 1.945.758 3.886 1.528 5.827 2.299.612.243 1.206.526 1.792.835.97.514 1.966.978 2.937 1.494 2.623 1.393 5.179 2.894 7.595 4.627.713.514 1.447.999 2.147 1.53 2.056 1.564 4.052 3.204 5.941 4.965 1.366 1.274 2.702 2.583 3.91 4.011 1.387 1.635 2.717 3.312 3.867 5.127.471.744.929 1.49 1.31 2.285.165.346.364.678.566 1.004a14.89 14.89 0 0 1 1.65 3.76c.136.475.281.95.461 1.408.283.719.497 1.455.659 2.208.195.913.418 1.82.599 2.736.381 1.945.521 3.919.626 5.896.09 1.706.012 3.408-.134 5.105-.133 1.531-.312 3.061-.681 4.559-.078.32-.139.645-.205.969-.377 1.832-.86 3.634-1.539 5.379a115.82 115.82 0 0 0-.764 2.002c-.076.207-.119.422-.172.635-.041.166.098.49.245.58.141.088.276.185.427.248.454.193.914.376 1.375.557 4.601 1.811 9.203 3.619 13.807 5.43.715.281 1.422.582 2.11.93.587.295 1.205.532 1.817.774 6.543 2.581 13.089 5.159 19.632 7.737.459.182.922.359 1.378.551.201.085.394.193.583.303.381.219.558.727.407 1.15-.036.104-.066.211-.115.309a15.252 15.252 0 0 1-1.17 1.984c-.236.336-.597.487-1.008.451a35.063 35.063 0 0 1-1.802-.199 34.443 34.443 0 0 0-2.625-.24c-1.314-.084-2.634-.137-3.943-.312-.488-.065-.985-.076-1.479-.105-2.03-.118-4.061-.23-6.089-.353-.658-.04-1.313-.111-1.972-.164-.656-.052-1.314-.11-1.972-.146-6.912-.381-13.826-.754-20.738-1.134-1.262-.068-2.527-.096-3.781-.268-.107-.014-.219-.008-.328-.008-.283.002-.544.069-.766.254a4.23 4.23 0 0 0-.247.218l-3.187 3.106a77.585 77.585 0 0 1-5.024 4.514c-.595.488-1.182.986-1.787 1.461-1.773 1.39-3.629 2.664-5.516 3.896-.967.631-1.99 1.168-2.937 1.83-.179.125-.381.22-.577.315-.742.362-1.465.753-2.16 1.2-.414.266-.869.471-1.318.676-1.343.622-2.699 1.225-3.986 1.806M113.76 87.35c-.82.475-1.407 1.205-2.054 1.869-.038.039-.064.09-.091.137-.108.195-.188.404-.147.627.115.645.258 1.285.461 1.91a.684.684 0 0 0 .074.145c.03.045.069.084.104.126.075.09.365.148.456.093a6.674 6.674 0 0 0 1.796-1.656c.207-.271.253-.604.204-.938a2.952 2.952 0 0 0-.158-.635c-.21-.564-.436-1.121-.655-1.682l.01.004zm45.098-1.329l.003-.005c-.681-.367-1.408-.621-2.123-.902-10.429-4.11-20.858-8.215-31.287-12.324a81.22 81.22 0 0 1-1.528-.617c-.151-.062-.29-.154-.431-.239-.311-.188-.499-.653-.403-1.007.056-.213.112-.426.191-.629.175-.462.368-.918.549-1.377.542-1.383 1.065-2.766 1.449-4.204.638-2.393 1.218-4.792 1.481-7.259.156-1.475.242-2.957.242-4.441-.001-1.815-.156-3.621-.369-5.424-.033-.272-.062-.546-.119-.814-.313-1.449-.493-2.928-.991-4.334a.935.935 0 0 1-.039-.16c-.135-.706-.382-1.375-.662-2.033-.562-1.313-1.146-2.617-1.692-3.937-.593-1.432-1.486-2.689-2.265-4.013-.917-1.235-1.831-2.472-2.824-3.648a44.827 44.827 0 0 0-4.725-4.822c-2.023-1.774-4.064-3.532-6.274-5.081-1.169-.819-2.318-1.669-3.536-2.418-.608-.374-1.235-.718-1.836-1.103-1.205-.772-2.48-1.417-3.749-2.071-.731-.376-1.433-.815-2.203-1.119a16.112 16.112 0 0 1-1.637-.778 12.446 12.446 0 0 0-1.198-.548 238.168 238.168 0 0 0-3.681-1.45c-.46-.177-.937-.313-1.409-.46-.261-.082-.535-.129-.79-.228-1.027-.398-2.093-.668-3.153-.954-2.017-.543-4.047-1.028-6.112-1.354-1.79-.283-3.597-.441-5.4-.62-.6-.06-1.207-.049-1.812-.059-.383-.008-.77.013-1.154.008a41.477 41.477 0 0 0-9.649.99c-.806.179-1.587.445-2.389.626-.755.171-1.481.414-2.195.7a10.64 10.64 0 0 1-1.562.521c-.592.136-1.154.357-1.708.599-.604.263-1.209.526-1.812.792-.554.243-1.092.517-1.6.849a6.514 6.514 0 0 1-.855.494c-1.205.546-2.337 1.214-3.462 1.904-1.405.863-2.792 1.752-4.118 2.73-2.389 1.761-4.732 3.581-6.894 5.621-.52.49-1.058.96-1.583 1.445-.404.372-.813.74-1.199 1.129-2.091 2.105-4.175 4.216-6.074 6.501-.141.168-.28.338-.434.496-1.383 1.418-2.6 2.98-3.871 4.496-.246.293-.477.603-.713.906-.438.563-.854 1.145-1.317 1.688-1.106 1.297-2.1 2.683-3.119 4.046-1.446 1.936-2.792 3.946-4.15 5.945-.278.408-.527.837-.784 1.258-.2.329-.385.667-.591.991-.796 1.254-1.517 2.551-2.221 3.855a19.092 19.092 0 0 0-1.534 3.816 24.52 24.52 0 0 0-.769 3.709c-.063.49-.127.983-.13 1.477-.019 2.929.273 5.813 1.249 8.598.073.208.135.42.188.633.35 1.397.918 2.699 1.689 3.918.205.323.39.662.569 1.002.795 1.514 1.755 2.916 2.831 4.241.241.298.503.581.74.884 1.457 1.873 3.189 3.482 4.883 5.127 1.844 1.564 3.67 3.143 5.635 4.561 1.919 1.386 3.919 2.637 5.961 3.826.806.471 1.617.936 2.479 1.301.251.107.484.258.73.381.393.199.779.407 1.183.583.604.264 1.188.57 1.785.849a51.014 51.014 0 0 0 5.979 2.346c.732.236 1.47.449 2.195.708.31.11.623.216.939.308 2.378.686 4.793 1.207 7.215 1.701 1.186.242 2.386.392 3.583.554 1.579.215 3.16.398 4.755.462 1.042.041 2.085.092 3.127.156 1.318.085 2.637.053 3.954.005 1.043-.036 2.085-.104 3.126-.171a30.058 30.058 0 0 0 1.642-.148c.818-.094 1.638-.183 2.452-.312 1.626-.261 3.252-.521 4.869-.851 1.669-.343 3.317-.771 4.958-1.224.952-.26 1.885-.596 2.842-.845.317-.084.62-.222.927-.345.511-.202 1.017-.416 1.527-.617.359-.14.714-.299 1.085-.389 1.295-.307 2.481-.888 3.687-1.422.3-.133.604-.275.874-.455.78-.525 1.633-.908 2.479-1.3.899-.413 1.793-.835 2.604-1.413.224-.158.477-.272.717-.407 1.148-.646 2.255-1.362 3.355-2.089 1.468-.971 2.834-2.078 4.229-3.146 1.441-1.104 2.779-2.328 4.088-3.583a46.807 46.807 0 0 0 1.947-2.013c.821-.887 1.62-1.795 2.432-2.691.072-.082.155-.154.236-.229a1.26 1.26 0 0 1 .899-.346c.384.007.77.021 1.15.063 2.402.259 4.802.559 7.203.837 3.001.346 5.998.716 9.002 1.053 2.183.244 4.363.518 6.545.783 1.035.127 2.069.279 3.105.4 2.018.233 4.04.443 6.059.682 2.4.283 4.799.585 7.197.881.44.051.876.067 1.315-.007m-124.01 21.758c.079-.073.194-.131.229-.223.201-.507.375-1.025.572-1.535.453-1.176.711-2.41 1.095-3.605.06-.186-.074-.478-.243-.567-.096-.052-.185-.118-.285-.159-.861-.352-1.722-.699-2.586-1.043-.099-.041-.212-.045-.319-.068-.118-.022-.384.073-.441.172-.11.187-.235.369-.322.566-.372.852-.729 1.709-1.185 2.521-.238.43-.404.896-.585 1.354-.06.147-.078.317-.094.479a.537.537 0 0 0 .164.447c.155.148.327.289.512.4.944.566 1.98.925 3.011 1.289.05.016.108.025.161.021.105-.01.21-.032.316-.049m12.569-2.239c-.097-.078-.207-.228-.349-.272a61.88 61.88 0 0 0-2.205-.646c-.37-.102-.747-.173-1.122-.252-.329-.07-.634.134-.747.488-.017.051-.041.102-.052.154-.203.856-.522 1.672-.835 2.49a69.28 69.28 0 0 0-.57 1.541c-.055.152-.076.318-.109.478-.037.171.137.472.306.536.102.041.2.092.304.121 1.053.305 2.122.545 3.197.754.159.031.326.033.489.031.239-.004.411-.134.533-.329.057-.092.113-.189.142-.294a865.51 865.51 0 0 0 1.108-4.123.868.868 0 0 0 .019-.325c-.014-.107-.062-.206-.109-.352M23.308 95.385c-.094.09-.239.184-.319.316-.767 1.269-1.312 2.639-1.826 4.022a1.381 1.381 0 0 0-.069.317.8.8 0 0 0 .153.617c.066.086.134.176.216.245.878.745 1.844 1.357 2.854 1.904.167.091.488-.003.585-.168.027-.047.074-.084.094-.134.633-1.568 1.27-3.137 1.89-4.712.082-.208.006-.437-.149-.604a1.768 1.768 0 0 0-.375-.316c-.744-.457-1.493-.908-2.245-1.354a1.64 1.64 0 0 0-.454-.176c-.099-.02-.211.023-.355.043m63.942 8.758c-.062-.142-.087-.192-.106-.242-.065-.166-.367-.326-.548-.282-.589.138-1.186.243-1.76.423-.785.246-1.565.508-2.37.691a2.276 2.276 0 0 0-.603.256.842.842 0 0 0-.4.502c-.044.158-.089.32-.095.481-.03.933.006 1.865.08 2.795.008.106.062.21.096.313.039.117.284.269.391.261.444-.034.846-.235 1.275-.323.484-.1.961-.227 1.423-.407.868-.344 1.738-.677 2.639-.929.365-.102.623-.528.56-.908-.071-.432-.17-.86-.246-1.292a8.537 8.537 0 0 0-.336-1.339m-45.366-.135c-.104-.083-.214-.221-.357-.275-.916-.359-1.837-.701-2.759-1.044-.101-.038-.213-.039-.321-.058-.114-.021-.372.091-.43.197-.104.189-.218.378-.302.577-.571 1.364-.875 2.815-1.344 4.216a.897.897 0 0 0-.026.324c.008.166.061.324.197.432.127.1.261.208.409.266.663.252 1.329.504 2.002.727.694.229 1.142.011 1.422-.705.518-1.323 1.013-2.656 1.513-3.984a.93.93 0 0 0 .06-.32c.001-.107-.036-.213-.064-.353m37.528 6.076c.462-.139.761-.487.804-.852.006-.055.023-.107.024-.162.038-.986 0-1.969-.082-2.949-.005-.055-.026-.106-.036-.16-.045-.255-.329-.475-.6-.461-.109.004-.221-.004-.328.015-1.074.204-2.148.409-3.222.619-.16.031-.316.087-.467.149-.317.135-.573.354-.64.699-.217 1.129-.371 2.266-.351 3.42 0 .055.021.107.028.162.018.178.277.396.468.391.163-.006.328-.002.491-.023 1.36-.176 2.678-.547 3.911-.848M31.653 99.975c-.055-.092-.1-.193-.169-.271a.922.922 0 0 0-.256-.201c-.777-.399-1.558-.791-2.338-1.183-.048-.024-.103-.034-.154-.054-.287-.118-.685.045-.833.342-.023.049-.058.094-.078.145-.558 1.424-1.116 2.846-1.667 4.273a1.067 1.067 0 0 0-.06.319.759.759 0 0 0 .217.596c.113.117.239.233.38.309.677.353 1.359.694 2.044 1.032.225.111.581-.018.719-.238.086-.14.173-.278.256-.42.782-1.322 1.293-2.769 1.908-4.166.043-.098.046-.213.057-.32.006-.054-.017-.109-.026-.163m-13.932-8.983c-.093-.143-.161-.301-.275-.411-.705-.688-1.464-1.313-2.233-1.927-.042-.033-.097-.051-.142-.082-.158-.106-.473-.053-.598.104-.034.042-.079.076-.11.12a22.657 22.657 0 0 0-1.754 2.96c-.189.38-.108.753.151 1.074.479.594.958 1.194 1.471 1.762.438.484.922.93 1.391 1.389.195.19.571.101.69-.154.023-.05.058-.095.077-.146.291-.765.607-1.523.863-2.302.205-.621.345-1.266.493-1.902.036-.153-.013-.323-.024-.485m31.368 14.822c-.085.068-.183.123-.25.204a.786.786 0 0 0-.157.286 474.185 474.185 0 0 0-1.079 3.975 1.467 1.467 0 0 0-.043.489c.02.227.146.413.337.536.091.061.196.107.3.135.962.246 1.944.346 2.933.398.19.01.458-.169.525-.344.021-.05.056-.096.072-.148a55.37 55.37 0 0 0 .991-3.827c.048-.213.057-.435.079-.651.018-.189-.156-.476-.323-.535-.154-.057-.306-.127-.466-.158-.646-.125-1.296-.241-1.946-.354a5.107 5.107 0 0 0-.653-.068c-.105-.004-.213.039-.32.062m13.234 6.508c.093-.103.212-.213.302-.343a.776.776 0 0 0 .116-.304c.248-1.34.492-2.682.734-4.025.034-.188-.179-.435-.385-.457-.978-.107-1.96-.126-2.942-.14-.107-.001-.217.022-.323.044a.891.891 0 0 0-.533.354c-.167.221-.266.477-.345.739-.188.628-.364 1.257-.557 1.884-.112.365-.257.721-.363 1.086-.06.207-.079.428-.106.643-.03.25.218.567.458.602.054.008.108.029.161.029 1.091.022 2.182.04 3.273-.004.16-.006.319-.067.51-.108M19.004 92.275c-.084.094-.235.194-.291.332-.329.811-.66 1.617-.94 2.445-.211.615-.358 1.258-.513 1.892a.808.808 0 0 0 .207.761 11.052 11.052 0 0 0 1.744 1.479c.086.061.201.081.303.112.133.041.375-.037.45-.137.032-.045.077-.078.105-.125.804-1.311 1.369-2.729 1.883-4.168.018-.051.021-.105.031-.159.051-.29-.042-.538-.232-.753a2.535 2.535 0 0 0-.236-.227 18.298 18.298 0 0 0-2-1.418c-.087-.055-.206-.068-.312-.084-.051-.004-.106.027-.199.05m38.998 14.961c-.07-.164-.194-.285-.355-.306-.865-.117-1.731-.239-2.599-.315-.64-.057-.878.188-1.075.78-.07.205-.114.421-.167.632l-.766 3.016c-.014.053-.025.105-.037.16-.121.561.107.877.606.958.756.122 1.519.17 2.284.136.357-.016.615-.224.752-.548.148-.351.302-.706.391-1.073.218-.906.534-1.777.845-2.651.073-.203.108-.421.15-.634.007-.051-.02-.107-.029-.155m15.418-.359a.375.375 0 0 0-.253-.195c-.105-.023-.214-.06-.32-.055a20.49 20.49 0 0 0-2.603.26c-.235.039-.52.311-.571.535-.012.053-.038.104-.045.157l-.476 3.569c-.007.054.006.109.003.163-.011.271.248.544.506.532.928-.045 1.85-.139 2.757-.352a2.05 2.05 0 0 0 .309-.106.746.746 0 0 0 .427-.466c.018-.051.038-.104.045-.156.099-.812.206-1.625.288-2.439.038-.379.033-.762.032-1.143 0-.101-.064-.203-.099-.304m-5.144.562c-.101-.21-.244-.303-.406-.322a9.068 9.068 0 0 0-2.446.072c-.352.056-.568.299-.687.63-.019.052-.038.104-.048.156-.216 1.014-.433 2.028-.641 3.044-.044.213-.051.433-.068.65-.026.319.264.625.607.643.163.008.328.035.49.023.598-.047 1.196-.103 1.794-.16a1.48 1.48 0 0 0 .319-.07.926.926 0 0 0 .497-.403c.083-.139.161-.29.203-.445.318-1.164.488-2.349.45-3.559-.004-.105-.051-.21-.064-.259m22.088-5.21l.008.02c-.361.129-.722.256-1.081.387a14.91 14.91 0 0 0-.461.168c-.213.083-.418.408-.42.656 0 .056-.012.111-.005.164.11.814.29 1.611.519 2.399.03.103.099.194.152.29.123.217.467.371.703.319.053-.011.11-.008.161-.024a18.877 18.877 0 0 0 2.857-1.229c.049-.024.091-.062.134-.095.282-.21.439-.491.421-.841-.045-.822-.205-1.626-.391-2.426-.013-.051-.05-.097-.067-.146-.058-.154-.365-.359-.525-.336-.162.021-.33.031-.48.088-.512.191-1.016.403-1.525.606m16.151-7.217c-.002-.008-.06-.275-.124-.541-.025-.107-.068-.209-.101-.314-.056-.186-.368-.283-.551-.162-.915.604-1.826 1.208-2.738 1.814a.67.67 0 0 0-.126.105c-.188.205-.328.439-.345.724-.011.163-.007.33.012.492a49.7 49.7 0 0 0 .207 1.63c.023.158.096.312.155.463.071.183.396.313.558.23 1.075-.553 2.027-1.29 2.978-2.028.084-.065.148-.159.21-.25.13-.183.213-.391.173-.616-.076-.43-.171-.858-.308-1.547m-11.019 9.172c.442-.186 1.975-1.115 2.377-1.444a.673.673 0 0 0 .238-.588c-.075-.872-.25-1.731-.445-2.583-.046-.195-.34-.365-.514-.293-.303.127-.604.254-.9.39a49.39 49.39 0 0 0-1.337.63 2.225 2.225 0 0 0-.411.27c-.226.177-.374.422-.366.703.021.88.202 1.736.405 2.588.013.052.053.098.075.146.068.152.385.298.561.259.105-.024.217-.035.317-.078M9.827 88.641c.035.078.049.133.079.178.35.551.693 1.105 1.056 1.646.087.129.232.225.365.314a.293.293 0 0 0 .312-.001c.092-.053.195-.11.254-.192.602-.842 1.091-1.753 1.588-2.658.198-.363.167-.757-.104-1.071a20.382 20.382 0 0 0-1.698-1.755c-.152-.139-.458-.07-.552.124-.071.147-.148.29-.212.44-.297.701-.595 1.401-.971 2.066a1.359 1.359 0 0 0-.125.3.944.944 0 0 0 .008.609m-2.35-4.299c.205.425.435.922.682 1.409.123.244.288.462.497.646.166.146.467.159.591.006.034-.043.08-.076.111-.119.482-.677.794-1.433 1.012-2.229a.797.797 0 0 0-.107-.631 4.909 4.909 0 0 0-.279-.404c-.465-.609-.935-1.215-1.402-1.82-.167-.217-.329-.437-.497-.651-.111-.142-.483-.167-.601-.039-.112.12-.225.239-.322.37-.453.625-.54 1.302-.265 2.021.178.458.368.913.58 1.441M108.35 95.881c.097-.049.205-.081.288-.146.597-.477 1.193-.957 1.781-1.447.165-.14.315-.305.444-.479.168-.227.249-.502.171-.775-.192-.684-.412-1.359-.623-2.037-.06-.195-.383-.322-.538-.22-.682.456-1.302.994-1.909 1.54-.341.306-.495.711-.48 1.178.022.715.179 1.406.356 2.094.011.051.055.092.08.141.064.127.309.215.43.151m-8.35 1.74c-.24.159-.521.328-.783.523-.282.209-.404.512-.375.858.074.87.242 1.724.531 2.552.047.131.277.21.425.15a6.972 6.972 0 0 0 1.435-.774c.331-.235.522-.577.505-.979a10.096 10.096 0 0 0-.439-2.57c-.051-.162-.406-.289-.562-.197-.236.137-.469.278-.737.437m17.596-12.101c-.194-.354-.36-.697-.566-1.018-.167-.258-.45-.279-.71-.067a1.809 1.809 0 0 0-.243.22c-.252.287-.498.579-.744.873-.34.407-.432.867-.297 1.381.097.369.158.748.258 1.119.056.208.148.408.234.609.108.254.49.352.694.194.519-.405.965-.887 1.427-1.351.076-.076.135-.172.19-.265.114-.194.176-.411.113-.628-.103-.364-.239-.722-.356-1.067m5.543-.973c-.172-.473-.388-.698-.722-.8-.312-.095-.626-.151-.955-.114-.184.02-.386.291-.343.475.161.688.43 1.332.799 1.934.028.045.066.084.1.129.234.305.778.451 1.182.319.182-.06.324-.32.277-.524-.123-.525-.25-1.048-.338-1.419m16.338 1.358c-.106-.066-.233-.185-.381-.226-.476-.137-.971-.146-1.463-.143-.417.002-.714.27-.754.705a3.083 3.083 0 0 0-.001.49c.017.277.247.541.486.591.54.112 1.084.134 1.632.1a.607.607 0 0 0 .306-.108.403.403 0 0 0 .116-.113c.235-.403.239-.825.059-1.296m-21.04-1.091c.2.377.374.714.56 1.045.053.092.129.18.214.244.177.133.375.217.605.148a.565.565 0 0 0 .411-.453.93.93 0 0 0 .031-.322c-.094-.656-.311-1.273-.739-1.782-.297-.349-.708-.483-1.174-.408-.212.034-.362.29-.287.5.127.357.261.712.379 1.028m8.929.688c.144.284.252.533.393.764.282.462.696.656 1.239.572.2-.029.397-.264.376-.457-.055-.484-.122-.969-.304-1.424a.787.787 0 0 0-.451-.441 2.53 2.53 0 0 0-1.11-.193c-.188.01-.417.277-.367.451.076.257.158.513.224.728m8.171.179a.852.852 0 0 0-.463-.459 2.741 2.741 0 0 0-1.133-.144c-.273.021-.531.264-.545.521-.023.389.009.771.14 1.136.076.218.257.349.481.405.322.082.65.096.979.035a.649.649 0 0 0 .497-.385c.164-.367.173-.741.044-1.109m-9.406-.312c-.151-.289-.284-.586-.452-.86a.92.92 0 0 0-.799-.463c-.199-.005-.431.211-.429.398.004.601.137 1.172.413 1.708.221.428.74.638 1.242.498.197-.055.333-.31.27-.517-.079-.256-.164-.51-.245-.764m5.999.156c-.048-.139-.064-.189-.084-.242a.768.768 0 0 0-.455-.441 1.745 1.745 0 0 0-.801-.119c-.215.016-.38.222-.382.455-.004.449.109.867.314 1.26.193.369.504.561.926.574.358.012.655-.271.612-.604-.04-.324-.094-.648-.13-.883m12.212.934a.765.765 0 0 0-.369.527c-.073.358.131.688.459.742.377.064.752.122 1.137.092.187-.015.398-.199.444-.42.022-.107.036-.215.037-.323a.63.63 0 0 0-.442-.616 2.335 2.335 0 0 0-1.129-.059c-.053.009-.101.041-.137.057m-1.738-.045c-.074-.078-.136-.176-.223-.231-.287-.178-.609-.223-.939-.194a.64.64 0 0 0-.521.343.88.88 0 0 0-.068.146c-.206.568.031 1.01.597 1.086.213.027.433.024.648.01a.538.538 0 0 0 .412-.228c.2-.289.212-.608.094-.932M6.362 79.807c.076-.088.198-.197.283-.329.256-.393.31-.802.038-1.21-.178-.269-.371-.527-.562-.787-.03-.041-.087-.06-.127-.094-.099-.085-.368-.008-.42.126-.039.099-.097.204-.089.303.04.593.163 1.171.342 1.736.03.095.113.18.191.249.081.072.191.068.344.006m145.543 7.64c-.075-.074-.139-.18-.229-.219-.356-.152-.737-.192-1.124-.182-.054.002-.106.02-.161.029-.227.035-.441.33-.447.617-.007.207.178.418.389.459.378.078.758.109 1.141.038.053-.011.103-.036.154-.052.239-.072.39-.449.277-.69m1.571.096c-.12.061-.212.257-.194.416.016.146.165.322.293.354.479.119.962.153 1.451.086.129-.017.3-.173.337-.317.048-.201-.102-.455-.294-.511a3.274 3.274 0 0 0-1.445-.099c-.055.008-.099.048-.148.071m-4.895-.43a.699.699 0 0 0-.568-.346.582.582 0 0 0-.627.403.72.72 0 0 0-.015.478.516.516 0 0 0 .19.249.778.778 0 0 0 .773.022c.286-.142.393-.558.247-.806m8.588.748c-.293.122-.366.371-.282.486.062.084.134.176.225.217.351.152.718.184 1.09.072a.34.34 0 0 0 .218-.216c.051-.126-.055-.329-.189-.389a1.935 1.935 0 0 0-1.089-.157c-.051.009-.096.042.027-.013m2.907.491c-.022.049-.059.096-.065.146-.016.119.034.223.145.27.358.156.734.165 1.115.116a.386.386 0 0 0 .149-.056.287.287 0 0 0 .105-.111c.047-.104.028-.218-.068-.282-.386-.251-.812-.263-1.245-.169-.05.009-.091.056-.136.086m3.276.308c-.022.049-.062.098-.062.146-.004.115.06.206.166.26.253.127.52.139.792.086a.31.31 0 0 0 .14-.078c.093-.086.117-.209.023-.291a.96.96 0 0 0-1.059-.123M5.186 75.338l-.112-.086c-.016.043-.048.09-.042.129.021.141.092.178.176.095.019-.019-.014-.091-.022-.138"/><path fill="none" d="M3 2h146.678v122.312H3z"/><path fill="#FFB547" d="M25.29 53.35c-.445-.052-.74-.307-1.005-.638-.266-.332-.306-.514-.096-.897a1.244 1.244 0 0 1 1.064-.672c.524-.033 1.053-.007 1.521-.007.23-.17.438-.342.664-.483.74-.463 1.345-1.071 1.902-1.735.676-.807 1.352-1.614 2.033-2.417.832-.978 1.628-1.98 2.263-3.104.175-.31.409-.587.582-.832-.197-.613-.46-1.206-.572-1.825-.178-.986-.062-1.983.157-2.958.12-.537.291-1.062.458-1.585.123-.382.482-.662.814-.665.062-.001.164.004.181.04.102.207.284.142.443.148.97.038 1.802.319 2.446 1.119.661.821 1.165 1.706 1.229 2.762.039.619-.07 1.246-.421 1.807-.492.781-.472.646.172 1.128.916.688 1.848 1.377 2.854 1.916 1.001.536 2.101.891 3.16 1.318.657.265 1.324.508 1.981.777.182.075.271.033.4-.107.233-.256.505-.475.76-.709.229-.211.477-.07.702-.012.218.057.288.275.27.478-.022.247-.089.491-.144.773.212.264.571.249.945.332-.027-.346-.047-.671-.08-.996-.181-1.788-.364-3.574-.546-5.362-.161-1.589-.345-3.175-.472-4.767a94.36 94.36 0 0 1-.262-4.512c-.052-1.562-.041-3.126-.058-4.689-.001-.09.006-.186-.019-.27-.09-.304-.014-.508.381-.565l-.242-.687c.272-.303.602-.23.976-.16.486.09.991.071 1.488.099.292.017.583.046.876.047.177 0 .355-.054.533-.065 1.151-.073 2.303-.157 3.456-.204 1.309-.052 2.621-.049 3.929-.109 1.417-.064 2.833-.188 4.25-.261a109.7 109.7 0 0 1 3.628-.125c1.971-.039 3.943-.055 5.916-.083 1.171-.015 2.343-.04 3.515-.046.747-.004 1.495.028 2.242.032 1.796.01 3.592-.007 5.387.026 1.04.019 2.075-.096 3.115-.081 1.063.016 2.128.023 3.19-.005 1.034-.027 2.066-.108 3.099-.159.884-.042 1.768-.07 2.65-.111.365-.017.536.301.807.447.028.014.04.096.028.137-.299.929-.085 1.87-.081 2.808.002.759-.038 1.522.004 2.278.05.92.177 1.834.254 2.752.117 1.408.226 2.816.33 4.227.071.952.137 1.904.193 2.855.03.54.034 1.079.056 1.619.033.861.096 1.722.1 2.584.004.777-.066 1.554-.076 2.332-.012.774.02 1.55.023 2.325.006 1.173-.007 2.346.016 3.518.008.396.107.79.145 1.188.021.23.14.511-.241.608-.153.04-.288.156-.434.234-.164.089-.327.232-.48-.025-.017-.03-.109-.032-.164-.024-.46.077-.919.184-1.382.233a74.251 74.251 0 0 1-3.262.295c-1.472.091-2.946.135-4.418.207-1.554.076-3.106.171-4.659.24a153.03 153.03 0 0 1-3.52.114c-1.205.026-2.411.038-3.617.042-.439.002-.878-.051-1.318-.053-.585-.003-1.172.029-1.757.03-2.105.006-4.209.001-6.314.008-.715.002-1.431.02-2.146.043-1.317.044-2.634.099-3.951.149-1.055.041-2.112.07-3.166.128-.606.034-1.216.194-1.815.155-.969-.064-1.908.147-2.859.218-.783.059-1.554.268-2.331.404-.056.009-.159-.007-.174-.042-.097-.224-.239-.453-.252-.687-.082-1.452-.131-2.907-.196-4.361-.011-.25-.039-.497-.06-.756-.504.243-1.005.072-1.496.09a3.243 3.243 0 0 1-.663-.067c-.05-.007-.103-.093-.125-.153-.097-.266-.318-.328-.497-.179-.411-.25-.791-.52-1.204-.72-.474-.23-.979-.396-1.47-.593-.837-.337-1.673-.679-2.511-1.015-.592-.238-1.191-.459-1.777-.709-.309-.133-.599-.312-.944-.497.086.366.185.699.241 1.039.069.414.093.834.154 1.25.132.902.267 1.801.42 2.699.038.222.077.471.358.562.041.014.059.133.066.205.08.989.162 1.979.232 2.969.088 1.239.162 2.479.255 3.717.085 1.14.192 2.28.28 3.421.039.507.04 1.018.082 1.524.113 1.392-.135 2.767-.188 4.149-.035.864-.04 1.73-.055 2.596-.002.09.001.183.017.271.103.576.135.543.712.608.839.094 1.669.271 2.5.425.145.025.277.11.436.178-.047.135-.1.279-.166.469.938-.064 1.856-.13 2.774-.189.591-.038 1.182-.057 1.773-.104.26-.021.461.006.62.25.061.095.043.092-.005.168-.24.392-.557.592-1.036.609-1.095.043-2.187.129-3.28.199-.782.05-1.567.076-2.346.16-1.158.123-2.312.294-3.468.434a9.639 9.639 0 0 1-.961.055c-1.468.023-2.936.025-4.403.066-1.011.027-2.023.102-3.034.157-.742.041-1.482.075-2.221.135-.529.042-1.056.125-1.584.181a1.86 1.86 0 0 1-.421-.018c-.243-.033-.415-.133-.464-.414-.028-.163-.144-.314-.209-.445.197-.42.542-.176.86-.185.63-.019 1.259-.102 1.886-.167.297-.031.593-.08.892-.123-.147-.51.007-1.025.483-1.258.581-.283 1.206-.48 1.816-.705.262-.096.545-.143.793-.264.098-.047.173-.237.177-.362.016-.694.015-1.39.003-2.083-.012-.692-.063-1.383-.058-2.074.008-.909.056-1.817.083-2.727.014-.457-.003-.918.036-1.374.103-1.243.243-2.482.337-3.726.048-.63.026-1.266.038-1.899.009-.543.048-1.086.026-1.627-.014-.353.083-.749-.184-.992.054-.287.128-.531.141-.78.052-.991.095-1.984.12-2.977.018-.708.003-1.416.003-2.124-.001.001-.053.009-.08.04-.523.585-1.225.949-1.807 1.46-.223.196-.391.454-.6.667-.245.249-.506.48-.762.716-.441.407-.869.83-1.329 1.215-.726.61-1.474 1.195-2.212 1.791-.455.369-.898.751-1.365 1.104-.626.473-.864.487-1.402-.044-.044-.042-.079-.091-.121-.134-.383-.396-.316-.818.126-1.151.277-.209.5-.492.747-.742-.014-.026-.025-.057-.037-.087m71.372-28.095c-.306.022-.579.054-.854.061-.541.012-1.083-.004-1.624.021-.83.036-1.656.114-2.484.145-.771.031-1.545.024-2.316.032-.571.005-1.145.002-1.716.01-.649.01-1.299.027-1.947.044-1.193.031-2.385.089-3.576.09-.977 0-1.952-.096-2.929-.097-2.07-.003-4.141.023-6.212.044-1.33.015-2.661.03-3.991.064-1.569.04-3.141.085-4.709.157-.899.041-1.793.152-2.691.207-.849.052-1.699.072-2.549.103-1.464.055-2.927.101-4.391.162-1.104.047-2.208.121-3.312.166-.515.022-1.032.005-1.508.005.017.254.041.511.049.767.046 1.334.082 2.668.134 4.001.046 1.125.098 2.25.171 3.373.086 1.317.189 2.633.309 3.947.107 1.178.249 2.352.375 3.528l.301 2.812c.079.739.171 1.476.234 2.216.065.75.055 1.509.16 2.251.209 1.496.262 3 .286 4.506.006.435.038.871.054 1.261 1.197-.097 2.365-.207 3.535-.284 1.44-.096 2.883-.177 4.325-.244 2.019-.093 4.038-.184 6.058-.246 1.508-.047 3.019-.068 4.529-.062 2.13.008 4.26.069 6.389.076 1.355.004 2.71-.046 4.065-.076 1.195-.028 2.39-.048 3.585-.098 1.283-.053 2.565-.147 3.849-.208 1.498-.071 2.997-.089 4.491-.196 1.583-.113 3.161-.302 4.683-.451v-2.576c0-1.539-.002-3.077.003-4.615.006-1.197.039-2.394.026-3.59a113.94 113.94 0 0 0-.101-3.921c-.052-1.194-.138-2.386-.224-3.579-.073-.992-.175-1.98-.252-2.972-.082-1.03-.186-2.059-.218-3.091-.035-1.232-.007-2.467-.007-3.743M39.846 55.72c-.306.113-.571.217-.839.312-1.201.42-2.403.833-3.603 1.26-.077.029-.171.14-.178.219a369.535 369.535 0 0 0-.312 4.204c-.071 1.061-.168 2.125-.176 3.188a85.615 85.615 0 0 0 .091 4.208c.04.997-.043 1.96-.519 2.858-.091.171-.185.339-.278.51l-.042-.111c-.191-.011-.387-.055-.571-.023-.229.039-.45.135-.673.213-.187.068-.371.149-.522.212l4.889-.265c-.005-.078.001-.198-.022-.314-.278-1.418-.332-2.854-.3-4.295.015-.688.067-1.376.106-2.064.065-1.145.135-2.29.198-3.436.061-1.082.117-2.166.171-3.25.004-.08-.027-.163-.033-.198.036-.06.067-.126.111-.182.183-.235.429-.143.622-.058.104.047.197.245.201.376.019.746.03 1.494.004 2.241-.064 1.857-.176 3.716-.219 5.574-.028 1.17-.103 2.348.168 3.508.088.379.021.793.12 1.166.09.333.236.627-.112.953l.533.049c.841.072 1.684.137 2.523.222.727.075 1.45.166 2.178.024.107-.022.211-.065.317-.099l-.001-.12c-.35-.043-.698-.1-1.05-.128-.595-.047-1.192-.069-1.787-.12-.323-.027-.519-.221-.542-.549-.048-.688-.112-1.381-.098-2.069.021-.981.135-1.96.156-2.94a75.348 75.348 0 0 0-.013-3.713c-.025-.852-.136-1.698-.192-2.548-.056-.841-.083-1.683-.136-2.523-.047-.771-.113-1.539-.17-2.292m-13.489-3.339c-.021.046-.056.091-.057.136-.004.1.039.208.012.298-.134.47-.283.936-.427 1.404.045-.028.097-.058.144-.093.444-.34.885-.684 1.328-1.023.144-.109.302-.195.437-.312a144.71 144.71 0 0 0 1.908-1.677c.714-.641 1.417-1.293 2.127-1.938.325-.295.629-.622.986-.87.637-.441 1.245-.885 1.536-1.651.073-.192.242-.418.419-.48.194-.067.448.039.632.064-.038.479-.083.902-.103 1.327-.047 1.023-.1 2.047-.115 3.07-.014.885.023 1.769.035 2.654.004.288-.005.576.001.863.013.516.036 1.032.047 1.548.003.172-.015.346-.025.557.404-.146.753-.273 1.102-.397 1.081-.383 2.161-.77 3.246-1.143.187-.065.217-.157.194-.333-.077-.6-.048-1.19-.317-1.792-.283-.631-.337-1.375-.432-2.078-.115-.844-.153-1.7-.249-2.546-.073-.636-.194-1.265-.277-1.899-.026-.199-.056-.435.022-.605.208-.449.589-.529 1.001-.248.712.487 1.452.922 2.259 1.234.363.139.74.248 1.098.398.573.24 1.135.505 1.704.757.631.278 1.269.543 1.895.833.335.154.648.357.98.518.253.123.545.175.776.328.478.315.98.314 1.5.197.073-.017.172-.116.18-.186.062-.556-.143-.829-.685-.937-.02-.003-.044.006-.06-.004-.278-.148-.593-.256-.819-.461-.18-.164-.25-.448-.396-.731-.146.248-.254.458-.39.649-.044.063-.177.123-.242.101a32.893 32.893 0 0 1-1.691-.621c-1.02-.417-2.018-.886-3.048-1.271-1.782-.665-3.22-1.819-4.585-3.102-.486.376-.938.814-1.607.854-.675.039-1.171-.302-1.592-.729-.22.354-.414.702-.644 1.026-.771 1.084-1.529 2.176-2.337 3.231-.655.855-1.365 1.669-2.069 2.487a24.363 24.363 0 0 1-1.461 1.569c-.297.287-.667.499-1.022.758l-.354-.448-.137.68-1.17-.206-.012.075c.258.054.517.112.754.165m8.597-15.583c-.307.885-.361 1.742-.386 2.599-.021.745.13 1.456.581 2.07.194.266.376.564.634.75.33.238.691.44 1.157.18 1.039-.581 1.513-1.542 1.297-2.719-.096-.522-.323-1.026-.535-1.519-.38-.884-1.079-1.334-2.041-1.352-.171-.002-.344.086-.516.131 0 .033-.002.065-.003.098l-.188-.238"/><path fill="#FFF" d="M74.785 72.404c1.679 1.289 2.268 3.062 2.557 4.988.921-1.929 1.52-4.053 2.851-5.756-.218-.539-.513-1.055-.632-1.609-.177-.814-.122-1.656.068-2.474.178-.767.372-1.529.581-2.288.193-.699.909-1.208 1.692-1.242 1.082-.049 1.433.305 1.861 1.281.467 1.068.534 2.209.381 3.365-.124.941-.339 1.852-.803 2.688-.13.232-.299.445-.46.684.748.625 1.111 1.514 1.486 2.381s.677 1.767 1.015 2.662c.509-2.088 1.277-4.081 2.847-5.624-.173-.472-.419-.933-.505-1.422a15.988 15.988 0 0 1-.234-2.382c-.017-.719.068-1.445.414-2.098.149-.286.319-.656.578-.775.652-.298 1.385-.47 2.079-.177.531.226.907.681 1.145 1.226.268.607.456 1.23.519 1.896.124 1.326-.08 2.582-.733 3.744-.132.234-.369.408-.568.62.41.494.778 1.019.936 1.666.15.623.325 1.241.498 1.887.904-1.637 1.828-3.267 3.138-4.63-.679-.732-.8-1.645-.801-2.583-.001-.925.09-1.845.41-2.717.265-.722.649-1.376 1.279-1.852.055-.043.114-.097.178-.109.317-.058.553-.206.73-.494.131-.212.614-.202.975.008.528.307.856.79 1.072 1.347.476 1.23.727 2.504.54 3.819-.142 1.009-.446 1.97-1.152 2.729 1.836 1.588 2.392 3.736 2.713 5.975 1.103-.078 2.199-.17 3.298-.227.862-.045 1.729-.021 2.589-.084.298-.023.561.01.831.105.184.066.257.111.075.299-.194.203-.323.466-.492.695a.236.236 0 0 1-.165.088c-.578.006-1.158.014-1.738.004a27.812 27.812 0 0 0-3.921.243c-.703.09-1.416.101-2.125.144-1.287.08-2.575.163-3.863.23-1.091.059-2.183.089-3.272.145-.483.025-.492.051-.588.532a2.616 2.616 0 0 1-.179.554c-.177-.332-.81-.332-.593-.949-.491.035-.954.076-1.418.098-.703.029-1.405.047-2.107.067-.529.017-1.061.038-1.592.046-.256.004-.235.197-.276.355-.038.146-.071.298-.12.508l-.836-.764c-2.354-.062-4.753.521-7.153.223-.076.266-.132.45-.194.67-.212-.162-.392-.316-.588-.445a.59.59 0 0 0-.322-.104c-1.211.05-2.423.101-3.634.171-1.248.068-2.497.16-3.745.238-.97.062-1.942.104-2.911.178-.418.031-.832.137-1.25.18-.538.057-1.081.071-1.62.124-.798.077-1.593.177-2.39.261-.328.036-.658.049-.987.088-.395.046-.789.111-1.183.158-.072.008-.216-.035-.215-.051.014-.298-.236-.3-.414-.381-.041-.018-.085-.027-.132-.041.378-.566.95-.621 1.535-.671a89.632 89.632 0 0 0 2.633-.276c.068-.007.176-.102.182-.164.09-1.073.42-2.094.714-3.119a12.874 12.874 0 0 1 1.78-3.809c.103-.147.228-.277.34-.414-.487-.785-.693-1.606-.645-2.549.043-.838.151-1.64.398-2.436.062-.195.068-.415.062-.623-.014-.511.287-.863.673-1.063.799-.411 1.622-.38 2.399.117.08.052.155.128.208.208.513.775.851 1.601.804 2.559-.047.971-.084 1.941-.399 2.869-.144.42-.364.814-.556 1.236 1.59 1.016 2.078 2.653 2.224 4.514.125-.441.223-.85.354-1.246.13-.398.268-.798.443-1.179.279-.608.58-1.208.896-1.796.085-.157.26-.264.396-.397-.84-.446-1.064-1.269-1.14-2.157-.089-1.066.053-2.113.326-3.145.158-.594.316-1.189.514-1.771.085-.249.271-.465.421-.687.043-.062.121-.131.189-.139.623-.07 1.204-.401 1.857-.277.536.102.816.479 1.033.924.715 1.459.661 2.99.396 4.533a8.873 8.873 0 0 1-.329 1.242c-.214.658-.555 1.236-1.133 1.624m25.638 4.887c-.021-.352-.01-.654-.057-.945a9.02 9.02 0 0 0-1.318-3.49c-.319-.499-.735-.873-1.359-.849-.25.011-.438.177-.684-.126-.159-.197-.552-.206-.775-.279-.018.107-.038.311-.054.311-.469-.018-.67.354-.908.639-1.128 1.357-1.919 2.92-2.72 4.476-.101.194-.155.409-.244.65l8.119-.387m-36.922 2.148c2.147-.198 4.262-.393 6.376-.586-.372-.129-.249-.428-.231-.676.022-.309.089-.614.101-.924a5.383 5.383 0 0 0-.774-3.014c-.247-.411-.516-.811-1.038-.939-.12-.029-.207-.173-.322-.245a1.212 1.212 0 0 0-.346-.161c-.308-.077-.621-.129-.929-.203-.108-.027-.206-.098-.326-.154.044.154.08.279.126.446-.387-.126-.541.114-.651.324-.404.767-.851 1.522-1.147 2.331-.365 1.002-.603 2.049-.875 3.082-.037.143.053.318.085.478l.093-.013-.142.254m21.032-1.316c-.012-.185-.003-.316-.03-.443-.332-1.559-.894-3.025-1.736-4.381-.309-.496-.65-.596-1.216-.389-.034-.283-.232-.334-.472-.322-.05.003-.115.023-.147-.001-.31-.22-.479.065-.576.228a24.719 24.719 0 0 0-1.57 3.26c-.305.748-.598 1.5-.896 2.246 2.255.284 4.437-.208 6.643-.198m1.402-.168c.647 0 1.246.016 1.845-.004 1.114-.037 2.229-.094 3.345-.146.058-.002.146-.043.166-.088.085-.191.205-.392.208-.59.022-1.332-.194-2.621-.796-3.824-.201-.404-.459-.51-.893-.406-.056-.254-.056-.252-.353-.396a.334.334 0 0 1-.108-.094c-.09-.105-.176-.216-.223-.273-.104.09-.149.143-.208.175-.172.099-.383.155-.517.29a5.917 5.917 0 0 0-.766.916c-.582.904-.996 1.889-1.289 2.923-.146.515-.282 1.034-.411 1.517m-14.938.818c1.852-.116 3.635-.229 5.412-.338 0-.527.087-1.064-.018-1.562a7.805 7.805 0 0 0-1.34-3.025c-.307-.42-.773-.651-1.347-.516-.06.016-.161-.064-.22-.125-.128-.128-.24-.271-.376-.43l.079-.192-.107-.041c-.039.106-.132.226-.106.313.074.271-.017.439-.242.575-.047.028-.075.095-.1.149-.213.438-.448.868-.627 1.319-.232.593-.456 1.193-.615 1.81-.168.655-.257 1.333-.393 2.063m26.509-14.136c.028.02.058.037.086.057-.113.03-.278.121-.33.077-.23-.193-.438-.083-.597.052-.216.184-.439.4-.561.649-.675 1.381-.702 2.806-.262 4.268.267.892 1.248 1.202 2.062.678.586-.377.9-.935 1.027-1.619.229-1.235.098-2.443-.268-3.627-.104-.333-.319-.642-.532-.923-.063-.085-.339-.109-.438-.043-.108.073-.128.281-.187.431m-24.366.842c-.091.161-.169.254-.2.36-.195.679-.41 1.355-.555 2.046-.094.448-.11.919-.105 1.379.004.418-.154.866.185 1.254.151.176.215.426.348.623.236.352.792.496 1.181.33.776-.332 1.188-.973 1.375-1.746.234-.979.338-1.973.115-2.977-.062-.283-.021-.598-.113-.869-.338-.99-.855-.979-1.54-.67-.249.113-.429.388-.626.576-.011-.041-.03-.135-.065-.306m7.751.326c-.088.24-.177.442-.237.652-.289 1.006-.537 2.021-.318 3.078.122.592.376 1.125.805 1.554.107.106.3.181.453.177.61-.015.988-.4 1.245-.902.543-1.057.613-2.19.474-3.348-.038-.322-.129-.639-.185-.959-.148-.83-.51-1.092-1.142-1.016-.375.045-.418.109-.305.473l-.24-.213-.069.965-.481-.461m7.699.191c-.064.242-.123.394-.145.551-.139 1.039-.146 2.08.126 3.095.124.464.365.901.602 1.325.139.247.404.32.71.279.604-.085.973-.457 1.213-.967.406-.865.315-1.791.176-2.684-.093-.599-.361-1.176-.597-1.743-.133-.317-.671-.481-1.026-.383-.271.075-.425.345-.438.737-.004.122-.04.244-.047.286-.169-.144-.353-.304-.574-.496m-20.103 2.458c.023-.47-.119-1.085-.393-1.66-.11-.233-.285-.506-.5-.603-.598-.265-1.292-.041-1.539.615a11.94 11.94 0 0 0-.445 1.553c-.238 1.018-.188 2.007.377 2.928.212.346.533.518.936.462.621-.085.95-.524 1.187-1.032.304-.657.358-1.371.377-2.263M70.667 44.106c-.307.241-.594.469-.884.693-.365.284-.592.242-.854-.146-.471-.697-.425-1.421-.176-2.186a2.307 2.307 0 0 1 1.016-1.303c-.475-.415-.382-.956-.374-1.46a36.621 36.621 0 0 0-.233-4.753c-.062-.536-.119-1.072-.173-1.608a.21.21 0 0 1 .052-.155c.417-.389.81-.805 1.362-1.017.951-.363 1.975.352 1.988 1.361.005.451.043.9-.162 1.313-.143.29-.302.584-.511.826-.301.344-.657.64-.982.963-.064.064-.138.16-.137.24.018 1.114.048 2.229.078 3.342.002.079.026.156-.022.189l-.368.362c-.049.047-.13.084-.144.139-.062.285.222.263.356.333.191.101.426.139.646.161.211.022.265.137.292.313.06.427.119.854.199 1.277.032.173.114.335.192.554l.854-.609-.173-1.629.477-.369c.33.105.658.225.992-.104.239-.234.539-.43.846-.565.386-.168.884 0 1.343.377-.112.241-.253.422-.555.481-.325.062-.696.113-.943.305-.26.2-.479.54-.559.857-.083.328.01.705.047 1.059.022.217.085.431.125.631-.326.301-.647.595-1.019.935l-.47-1.183c-.241.411-.627.564-1.037.699-.501.166-.805.1-1.089-.323m-.166-8.495c.57-.242.85-1.246.805-1.89-.027-.372-.448-.622-.786-.535-.071.019-.164.151-.161.227.036.725.09 1.448.142 2.198m-.286 6.569l-.149-.042-.233 1.046.137.031.245-1.035M79.439 50.44l.747-.545.196.148c-.049-.547-.113-1.062-.137-1.579a79.87 79.87 0 0 1-.073-2.978c-.001-.103.188-.202.275-.312.091-.115.143-.153.326-.103.638.179.617.155.632.78.017.708.089 1.416.141 2.182.146-.113.261-.184.354-.278.545-.551 1.835-.091 2.063.612.194.599.08 1.13-.324 1.602-.462.542-.963 1.046-1.623 1.344-.267.121-.556.247-.838.255-.135.004-.322-.237-.406-.406-.088-.174-.349-.297-.222-.567.018-.037-.078-.125-.095-.149-.491.43-.82 1.11-1.598 1.047-.33-.027-.513.037-.728.272-.289.316-.628.627-1.114.516a.876.876 0 0 1-.482-.295c-.506-.683-.629-1.44-.325-2.244.149-.393.286-.801.509-1.15.193-.302.476-.565.77-.776.121-.089.381-.028.562.02.363.097.78.174.927.573.113.307.138.651.161.983.026.36.068.707.302 1.048m2.331-.171c.295-.147.534-.242.749-.376.339-.214.481-.639.307-.996a.677.677 0 0 0-.414-.31c-.097-.021-.315.127-.345.236-.123.451-.193.917-.297 1.446m-3.922-1.472a4.542 4.542 0 0 1-.119.005c-.09.25-.19.497-.269.749-.136.442-.244.893-.068 1.35.026.072.111.171.167.17.064 0 .15-.089.187-.16.152-.295.235-.594.169-.946-.05-.257.021-.534.017-.804-.002-.12-.054-.242-.084-.364M63.087 33.411c.105-.1.227-.222.355-.336.041-.037.109-.077.154-.067.248.052.491.125.741.176.063.013.168-.006.202-.051.223-.295.494-.394.853-.275.233.077.475.125.726.189.232-.179.483-.387.752-.572.434-.299 1.331.025 1.422.539.165.932.259 1.879.435 2.809.13.686-.306 1.042-.72 1.473-.185-.421-.423-.779-.45-1.26-.044-.778-.18-1.55-.292-2.322-.016-.101-.123-.188-.187-.281-.078.063-.176.114-.229.195-.32.487-.51 1.017-.491 1.614.007.208 0 .425-.059.623-.039.129-.176.233-.277.341-.176.192-.357.379-.566.597-.187-.442-.421-.764-.333-1.24.074-.399-.038-.833-.101-1.254-.341.68-.345 1.395-.24 2.027l-.839.916c-.264-.194-.449-.422-.48-.753-.047-.508-.074-1.018-.136-1.524-.065-.527-.16-1.046-.24-1.564M59.378 51.542c-.46-.264-.578-.713-.701-1.155-.07-.247-.113-.503-.167-.755h-.078c-.057.54-.114 1.079-.175 1.634-.235.261-.5.551-.796.876-.206-.22-.47-.426-.526-.778-.1-.63-.191-1.263-.326-1.897-.258.266-.32.595-.342.929-.018.271.018.544.004.814a.769.769 0 0 1-.118.366 5.714 5.714 0 0 1-.471.617c-.132.153-.245.148-.412-.021-.437-.446-.32-1.034-.448-1.556-.103-.417-.141-.851-.234-1.271-.033-.146-.167-.267-.218-.414-.042-.122-.078-.281-.036-.392.059-.155.21-.271.289-.42.104-.195.255-.122.415-.142.614-.079.807.241.784.855.323-.322.598-.573 1.017-.461.337.089.787-.081.935.458.16-.141.313-.238.419-.375.268-.341.603-.252.952-.204.404.054.539.325.606.667.106.539.218 1.078.31 1.621.022.125.074.257-.12.38-.221.139-.368.398-.563.624M64.319 51.941c-.745-.992-.661-2.126-.789-3.21-.021-.18.443-.5.617-.442.036.013.078.031.111.022.295-.066.448.093.558.362.34-.221.527-.649 1.099-.452.478.165.713.407.816.884.29-.224.541-.453.822-.629.484-.303 1.21.057 1.294.618.075.495.129.994.231 1.482.084.403-.098.661-.373.894-.117.099-.24.19-.4.318-.695-.563-.482-1.432-.654-2.273-.168.443-.313.807-.441 1.175-.056.157-.106.287-.26.399-.214.154-.373.383-.56.576-.059.06-.129.108-.184.151-.121-.191-.25-.345-.325-.522-.085-.206-.132-.429-.18-.648-.068-.322-.121-.647-.181-.972l-.091-.005c-.053.355-.092.715-.164 1.066a1.053 1.053 0 0 1-.2.396 6.25 6.25 0 0 1-.436.513c-.095.107-.207.2-.31.297M58.791 36.682c.048-.266-.008-.461-.24-.605-.402-.248-.793-.509-1.188-.766a.113.113 0 0 1-.046-.04c-.24-.436-.526-.861-.502-1.382.018-.39.13-.769.431-1.051.181-.169.365-.339.564-.487.31-.233.634-.41 1.042-.198.271.141.658.051.826.405.093.197.243.371-.074.551-.261.148-.464.397-.71.618l-.521-.656c-.4.363-.329 1.155.091 1.466.454.338.898.692 1.321 1.068.423.375.381.989-.041 1.361-.2.174-.377.375-.552.574-.353.403-.796.293-1.166.121-.668-.311-1.271-.737-1.627-1.429.074-.115.145-.246.237-.36.145-.181.286-.383.569-.189.073.05.206.006.287.05.095.049.19.134.239.227.194.37.528.562.88.732.047.02.114-.006.18-.01M90.118 49.084c-.236.285-.418.581-.671.793-.44.371-.914.706-1.396 1.025-.617.409-1.253.228-1.593-.542-.399-.906-.239-1.725.075-2.559.231-.607.722-1.004 1.262-1.346.418-.265 1.207.224 1.203.729-.007.689-.216 1.229-.807 1.606-.168.108-.312.253-.472.373-.238.179-.296.485-.096.701.059.062.24.09.313.046.338-.207.701-.377.895-.779.081-.17.322-.321.514-.361.154-.031.347.117.521.188.06.024.114.057.252.126M75.878 34.505c.392.039.691-.081.962-.346.092-.089.303-.102.449-.082.207.028.406.12.664.203-.074.104-.124.227-.216.296-.53.4-1.029.868-1.696 1.024-.302.07-.63.042-.943.023-.08-.004-.172-.132-.224-.221-.543-.917-.518-1.866-.117-2.82.138-.328.265-.693.505-.937.281-.289.666-.488 1.032-.678.101-.053.289.083.441.106.535.079.537.512.564.89.025.355-.194.609-.481.809-.244.17-.466.375-.717.533-.397.249-.375.594-.273.972.019.068.029.137.05.228M69.521 49.966c-.03-.821.263-1.377.856-1.774.141-.094.328-.27.43-.233.37.132.757.285 1.051.532.373.312.497.79.635 1.262.205.703-.111 1.13-.616 1.518-.229.175-.432.384-.649.574-.245.214-.54.26-.842.196-.109-.022-.227-.127-.292-.227-.39-.591-.63-1.23-.573-1.848m1.33-.938c-.167.659-.052 1.502.226 1.746.447-.495.326-1.492-.226-1.746M68.445 43.739c.109.33.033.526-.238.692-.461.283-.891.62-1.352.905-.231.145-.664.007-.833-.214-.948-1.24-.707-3.006.5-3.852.492-.344 1.048-.344 1.504.06a.469.469 0 0 1 .131.253c.064.399.021.777-.3 1.065-.315.284-.631.569-.96.836-.293.237-.069.447.021.652.092.208.252.084.383.026.283-.126.562-.263.849-.383.086-.034.191-.026.295-.04"/><path fill="#FFF" d="M74.294 35c-.34-.062-.387.215-.532.378-.148.164-.316.309-.483.47-.626-1.216-.643-2.493-.743-3.753-.069-.888-.145-1.774-.217-2.643.248-.233.529-.32.84-.232.123.036.297.118.328.216.289.909.266 1.864.377 2.8.092.784.194 1.565.302 2.348.015.124.074.245.128.416M61.419 41.849c-.038.32-.132.648-.098.961.049.436.141.886.315 1.286.172.393.354.409.766.239.138-.057.259-.151.396-.21.166-.071.338-.129.479.062.139.189.045.326-.1.436-.401.303-.792.625-1.22.885-.305.186-.596-.002-.851-.194-1.13-.854-1.206-2.384-.831-3.396.214-.581 1-.926 1.598-.749.265.078.524.129.722.36.237.276.169.647-.174.791-.041.017-.063.073-.1.105-.231.201-.511.11-.597-.184-.042-.141-.106-.274-.162-.411l-.143.019M62.05 51.311c.302-.218.541-.393.801-.58.106.077.262.14.323.252.054.1.059.312-.009.378a9.977 9.977 0 0 1-1.105.95c-.125.089-.378.082-.538.023-.251-.092-.517-.171-.673-.45-.343-.615-.639-1.22-.486-1.964.133-.643.459-1.148.922-1.598.323-.312.643-.107.947-.026.428.116.648.706.391 1.082a4.19 4.19 0 0 1-.757.801c-.157.134-.228.251-.155.428.093.225.21.438.339.704M85.855 50.447c-.139.156-.252.289-.372.417-.113.123-.218.267-.356.349-.049.029-.229-.066-.28-.147-.351-.56-.397-1.2-.44-1.837-.081-1.212-.164-2.423-.236-3.635-.004-.067.059-.155.114-.207.094-.085.208-.149.33-.233.062.026.142.065.226.092.153.049.4.048.443.142.091.202.082.45.101.681.01.127-.028.259-.019.387.052.567.1 1.134.172 1.699.097.781.215 1.56.317 2.292M74.471 50.966l-.784 1.084c-.531-.687-.591-1.396-.667-2.101-.052-.486-.132-.97-.2-1.468.487-.472.745-.491 1.232-.14.382-.172.708-.396 1.064-.456.265-.044.573.1.846.205.166.065.092.338-.135.52-.112.089-.225.181-.347.257a.656.656 0 0 1-.246.089c-.491.07-.604.134-.657.636-.051.492-.011.994-.011 1.493l-.095-.119M63.804 40.046c.12 0 .241.01.359-.002.275-.027.44.125.467.395.117 1.174.239 2.348.371 3.52.023.201-.015.328-.184.458-.174.134-.3.329-.446.498-.143.164-.23.113-.341-.052-.287-.425-.386-.911-.435-1.397a44.314 44.314 0 0 1-.192-2.913c-.006-.191.204-.391.314-.585.029.024.058.051.087.078M61.733 37.66c-.581-.771-.555-1.59-.682-2.37-.11-.676-.235-1.35-.354-2.026l-.083.007c.12-.129.239-.26.361-.388.025-.026.063-.068.088-.062.292.054.62.055.861.198.152.091.217.391.253.608.153.948.278 1.9.419 2.85.021.14.016.222-.138.308-.151.083-.257.256-.372.397-.123.152-.232.315-.353.478M79.198 35.951c-.391 0-.69-.227-.777-.528a8.052 8.052 0 0 0-.163-.513c-.133-.367-.018-.676.276-.92.31-.259.603-.365 1.008-.201.266.107.41.244.472.515a.69.69 0 0 0 .196.321c.171.165.172.472-.017.623-.262.206-.518.422-.785.623-.074.056-.179.07-.21.08M90.081 49.994c.031-.379.229-.662.495-.904.045-.04.104-.067.142-.112.164-.2.396-.274.612-.193.354.131.701.321.646.795-.014.122-.066.268-.153.346-.302.272-.62.529-.945.774-.267.201-.489.125-.603-.177-.057-.15-.122-.297-.18-.446-.012-.026-.01-.058-.014-.083M75.33 43.85c.069-.106.125-.228.213-.319.158-.165.331-.313.503-.463a.257.257 0 0 1 .134-.058c.4-.028.911.433.919.833.001.065-.014.156-.058.193-.349.293-.701.583-1.067.854-.052.039-.245-.001-.268-.052-.137-.308-.244-.628-.376-.988"/><path fill="none" d="M15.063 15.646h102.804v80.189H15.063z"/></svg>
