<?xml version="1.0" standalone="no"?>
<!DOCTYPE svg PUBLIC "-//W3C//DTD SVG 20010904//EN"
 "http://www.w3.org/TR/2001/REC-SVG-20010904/DTD/svg10.dtd">
<svg version="1.0" xmlns="http://www.w3.org/2000/svg"
 width="174.000000pt" height="174.000000pt" viewBox="0 0 174.000000 174.000000"
 preserveAspectRatio="xMidYMid meet">
<metadata>
Created by potrace 1.11, written by Peter Selinger 2001-2013
</metadata>
<g transform="translate(0.000000,174.000000) scale(0.100000,-0.100000)"
fill="#000000" stroke="none">
<path d="M695 1519 c-129 -32 -233 -88 -307 -165 -109 -114 -156 -191 -189
-309 -19 -70 -17 -282 4 -359 19 -71 96 -201 151 -257 45 -44 231 -160 286
-177 121 -38 289 -36 390 5 8 3 23 8 33 9 23 5 95 43 177 95 132 84 220 204
235 324 4 28 13 78 21 113 15 63 17 200 5 221 -4 6 -17 8 -30 4 -20 -5 -22
-10 -16 -37 17 -68 15 -203 -4 -269 -44 -158 -208 -326 -375 -382 -141 -48
-340 -63 -447 -35 -59 16 -172 104 -240 188 -41 49 -95 179 -125 297 -11 45
-10 214 1 270 7 33 11 63 8 68 -2 4 0 7 4 7 5 0 15 17 23 38 7 20 11 37 10 37
-12 0 114 133 151 160 32 23 158 84 219 105 128 45 319 33 435 -26 47 -24 50
-24 63 -7 7 10 15 17 17 16 3 -2 11 -3 18 -3 33 1 -117 63 -184 76 -77 15
-263 11 -334 -7z"/>
<path d="M1308 1388 c5 -30 4 -31 -17 -16 -19 14 -61 14 -61 1 0 -3 17 -25 37
-50 30 -36 34 -46 22 -54 -8 -5 -17 -9 -20 -9 -4 0 -24 -7 -44 -16 -51 -21
-31 -33 47 -29 32 2 58 1 58 -1 0 -3 -13 -25 -30 -49 -34 -50 -37 -70 -13 -80
13 -4 29 6 58 39 22 25 43 46 46 46 3 0 14 -18 24 -40 23 -51 50 -51 50 0 -1
19 -4 46 -9 59 -7 19 -5 23 7 18 9 -3 33 -9 54 -12 l38 -6 -26 23 c-14 13 -35
28 -45 34 -16 10 -7 14 59 29 42 9 79 21 82 25 9 15 -26 33 -70 34 -39 1 -42
2 -30 16 11 13 12 19 3 28 -19 19 -34 14 -71 -18 -19 -16 -37 -30 -40 -30 -3
0 -17 20 -31 45 -22 36 -32 45 -55 45 -25 0 -27 -3 -23 -32z"/>
<path d="M775 1000 c-41 -4 -46 -7 -27 -13 21 -8 22 -13 22 -121 0 -107 -1
-113 -22 -124 -20 -9 -14 -11 35 -11 36 -1 56 3 52 9 -3 6 -13 10 -21 10 -10
0 -14 13 -14 50 0 48 1 50 28 50 23 0 32 -9 57 -58 25 -48 35 -57 60 -60 l30
-3 -21 18 c-12 10 -32 38 -44 62 -19 38 -20 46 -8 55 26 19 40 56 33 87 -11
47 -53 60 -160 49z m121 -31 c12 -13 15 -28 10 -53 -7 -36 -25 -48 -78 -51
-28 -1 -28 -1 -28 60 l0 62 40 0 c26 0 45 -6 56 -18z"/>
<path d="M470 965 c0 -19 5 -35 10 -35 6 0 10 6 10 14 0 21 27 45 47 41 10 -2
21 -4 26 -4 4 -1 7 -52 7 -114 l0 -113 -27 -11 c-24 -9 -19 -11 42 -11 61 0
66 2 42 11 l-28 11 3 116 c3 123 0 116 53 111 9 0 18 -14 21 -31 8 -39 24 -28
24 16 l0 34 -115 0 -115 0 0 -35z"/>
<path d="M1017 988 c25 -12 31 -52 25 -169 -3 -57 -7 -68 -25 -77 -17 -9 2
-11 82 -9 l105 2 3 35 c3 33 2 34 -11 16 -9 -10 -17 -23 -18 -27 -3 -10 -76
-19 -95 -11 -8 2 -13 24 -13 58 l0 54 45 0 c25 0 45 5 45 10 0 6 -20 10 -45
10 l-45 0 0 50 c0 28 3 51 8 51 11 2 45 2 70 1 15 -2 22 -8 22 -22 0 -25 16
-26 22 -2 10 38 0 42 -100 41 -76 0 -92 -3 -75 -11z"/>
</g>
</svg>
