<?xml version="1.0" standalone="no"?>
<!DOCTYPE svg PUBLIC "-//W3C//DTD SVG 1.1//EN" "http://www.w3.org/Graphics/SVG/1.1/DTD/svg11.dtd" >
<svg xmlns="http://www.w3.org/2000/svg" xmlns:xlink="http://www.w3.org/1999/xlink" version="1.1">
<metadata></metadata>
<defs>
<font id="suomihandscript" horiz-adv-x="696" >
<font-face units-per-em="2048" ascent="1331" descent="-717" />
<missing-glyph horiz-adv-x="450" />
<glyph unicode="fi" horiz-adv-x="716" d="M-102 418q0 41 75.5 74.5t198.5 68.5q14 4 18 23q25 106 52.5 200.5t61.5 170t74 131t89 85.5q29 16 56.5 14.5t49.5 2.5q16 2 33 13t31 11q33 0 55.5 -15t22.5 -36q0 -25 -43 -51.5t-109 -32.5q-10 -2 -24.5 -5t-22.5 -9q-33 -29 -61.5 -61.5t-55 -82t-52 -123 t-54.5 -186.5q-6 -16 12 -14q12 2 60.5 10t104.5 16.5t103.5 15.5t55.5 7q35 0 54 -16.5t19 -50.5q0 -29 -10 -54.5t-18 -64.5q-10 -45 -19.5 -104.5t-16.5 -115t-12 -97.5t-5 -52v-22.5t1 -15.5t1 -16v-26q0 -14 2 -23.5t2 -21.5q0 -20 -21.5 -47t-50.5 -27 q-12 0 -18.5 13.5t-14.5 13.5q-18 0 -22 24.5t-4 61.5q0 4 -4.5 9t-4.5 12q0 31 13.5 97t29 140t28.5 138.5t13 88.5q0 41 -8 55.5t-24 14.5q-6 0 -30 -3t-59.5 -9t-77.5 -17.5t-85 -27.5q-20 -8 -27 -29q-16 -70 -31.5 -152.5t-29 -184t-21.5 -224.5t-8 -272q0 -45 7 -81 t16.5 -66t17.5 -53.5t8 -43.5q0 -8 -9 -12.5t-15 -4.5q-20 0 -41 23t-36.5 56.5t-24.5 70.5t-9 68q0 96 6 207.5t17.5 224t24.5 218t28 189.5q4 27 -17 17q-49 -20 -81.5 -35t-43.5 -25q-29 -31 -41 -37t-26 -6q-29 0 -41 21.5t-12 46.5zM616 809q0 31 24 52.5t65 21.5 q12 0 37.5 -13.5t25.5 -58.5q0 -37 -27.5 -52.5t-52.5 -15.5t-48.5 17.5t-23.5 48.5z" />
<glyph unicode="fl" horiz-adv-x="747" d="M2 563q0 33 37 51q29 14 72 32t92 46q20 10 31.5 21.5t15.5 31.5q31 135 96.5 245t141 186.5t148.5 117.5t116 41q33 0 45 -8t26 -18q31 -20 31 -45q0 -6 -6 -13.5t-19 -7.5q-10 0 -48 -14.5t-83 -33.5t-85 -39.5t-54 -33.5q-51 -45 -94 -108.5t-72 -179.5q-8 -29 17 -21 q47 16 118.5 69.5t151.5 125.5q14 12 24.5 26.5t24.5 25.5t33.5 19t52.5 8q25 0 34 -12t9 -57q0 -16 -10 -48t-24.5 -70t-29 -79t-20.5 -73q-6 -29 -17.5 -41.5t-15.5 -30.5q-27 -102 -53 -212t-48 -206t-36 -167t-14 -95q0 -16 14 -12q35 10 57.5 32.5t36.5 22.5 q27 0 27 -25q0 -10 -17.5 -38.5t-42 -60.5t-51 -56.5t-47.5 -24.5q-14 0 -27.5 6t-23.5 21.5t-16 43t-6 72.5q0 31 9 80t24.5 111.5t35 135.5t37.5 147q2 10 2 36.5t2 36.5q12 47 37 124t49.5 151.5t43 130t18.5 59.5q0 8 -11 6q-31 -10 -115.5 -88t-260.5 -233 q-16 -16 -33 -51t-23 -58q-12 -45 -22.5 -73.5t-20.5 -75.5q-2 -8 -17.5 -37t-21.5 -57q-23 -109 -38 -216.5t-23 -205t-11 -182.5t-3 -150q0 -59 -14 -90t-34 -31q-16 0 -27 19.5t-11 58.5q0 131 10 267t28.5 268.5t41 255t47.5 225.5q4 16 -2.5 15t-18.5 -11 q-27 -18 -58.5 -33.5t-54.5 -15.5q-25 0 -41 18t-16 49z" />
<glyph horiz-adv-x="0" />
<glyph horiz-adv-x="682" />
<glyph horiz-adv-x="671" d="M-49 485q0 16 17.5 29.5t39.5 22.5q35 10 70 16q29 6 31 33q6 55 12 110.5t9 103.5t5 83t2 49q0 16 -7 29.5t-7 44.5t20.5 42t51.5 11q109 0 193.5 -36t143 -93.5t88 -126t29.5 -131.5q0 -84 -31.5 -156t-66.5 -143q-14 -29 -33.5 -51.5t-38.5 -47.5q-14 -18 -16 -29.5 t-17 -27.5q-23 -29 -56.5 -62.5t-59.5 -56.5q-12 -10 -23.5 -24.5t-23.5 -24.5q-66 -49 -111 -83t-92 -34q-18 0 -39 12.5t-21 32.5q0 35 13.5 49.5t17.5 32.5q2 23 8.5 62t11.5 86t10 98t9 101q2 16 -3 20t-19 4t-31 -5t-39 -5q-20 0 -33.5 16.5t-13.5 48.5zM127 47 q0 -22 29 -10q33 14 75.5 53t86.5 91t87.5 114.5t77 127t54 124t20.5 106.5q0 74 -27.5 131.5t-70.5 96.5t-98.5 58t-110.5 19q-14 0 -24.5 -6t-12.5 -22q-2 -10 -6 -44t-9 -80t-11.5 -101.5t-10.5 -110.5q-2 -16 7.5 -19.5t25.5 -3.5q14 0 34.5 1t42 3.5t41 3.5t33.5 1 q37 0 74 -9.5t37 -25.5t-14 -19q-8 -2 -13.5 -8t-21.5 -6q-31 0 -87 -4t-93 -12q-10 -2 -23.5 -8.5t-23.5 -8.5q-27 -2 -33 -41q-8 -53 -14.5 -118.5t-11.5 -123t-7 -99.5t-2 -50z" />
<glyph horiz-adv-x="495" d="M-35 879q0 10 11.5 25.5t27.5 15.5t34.5 -14.5t22.5 -22.5q2 -4 19.5 -21.5t28.5 -23.5q16 -12 26 -2q6 6 19.5 22t17.5 21q10 14 28.5 29.5t35.5 15.5q10 0 18 -12.5t8 -28.5t-9 -30.5t-26 -18.5q-4 -2 -18 -10.5t-29 -20.5q-8 -6 -12 -13.5t4 -15.5q12 -14 33.5 -30.5 t45 -33t44 -30.5t33.5 -21q18 -10 40.5 -26.5t42 -35.5t34 -44t14.5 -53q0 -47 -10.5 -89t-12.5 -49q-25 -72 -64.5 -141t-83.5 -123.5t-89 -88.5t-78 -34q-53 0 -75.5 32t-22.5 77q0 74 21.5 142.5t49 129t55 108.5t41.5 79q8 16 22.5 37.5t14.5 31.5t-5 19.5t-13 19.5 q-4 4 -14.5 15.5t-24.5 23.5t-27.5 24.5t-21.5 18.5q-12 10 -25 -2q-12 -10 -30.5 -29.5t-22.5 -29.5q-12 -20 -23 -21q-8 0 -10 11.5t4 23.5q4 6 23.5 29.5t32.5 42.5q10 16 2 30q-10 14 -33 32t-27 20q-14 4 -30.5 12t-16.5 27zM104 104q0 -29 14.5 -37t24.5 -8 q14 0 53.5 39t80 100.5t72.5 136.5t32 146q0 49 -17.5 65.5t-27.5 18.5t-17.5 7.5t-15.5 5.5t-12 -7.5t-8 -11.5q-6 -8 -35 -54t-60.5 -111.5t-57.5 -142.5t-26 -147z" />
<glyph horiz-adv-x="610" d="M-92 100q0 8 2 15.5t12 19.5q25 37 53.5 72t57.5 67q37 49 47 109q18 123 40.5 235.5t44 203.5t39 155.5t27.5 95.5q4 16 15.5 31.5t40.5 15.5q61 0 61 -61q0 -18 -2 -26.5t-4 -12.5t-6 -9t-6 -16q-8 -25 -26.5 -70.5t-40 -111t-44 -148.5t-39.5 -182q-4 -25 2 -23.5 t21 15.5q10 10 14 23.5t8 21.5q4 10 11.5 17.5t11.5 17.5q2 4 5 18.5t6 31t6 30.5t5 18q6 14 13.5 37t18.5 44.5t24.5 37.5t29.5 16q12 0 36 -16t24 -49q0 -16 -10.5 -35.5t-22.5 -42.5q-10 -18 -28.5 -50t-43 -70t-54.5 -78.5t-62 -77.5q-16 -20 -28.5 -43t-16.5 -52 q-8 -57 -12.5 -132.5t-4.5 -153.5q0 -27 23 -27q18 0 46.5 -3t49.5 1q23 4 39 9t33.5 12.5t37 15.5t46.5 20q16 6 30.5 17.5t30.5 17.5q20 6 30.5 16.5t43.5 10.5q4 0 14 -3t20.5 -10.5t17.5 -19.5t7 -29q0 -20 -9 -39.5t-32 -25.5q-12 -4 -29.5 -9t-29.5 -10 q-8 -2 -22.5 1.5t-30.5 -5.5q-25 -12 -49.5 -19t-51 -12.5t-58.5 -9.5t-75 -10q-27 -4 -52.5 -16.5t-49.5 -12.5q-33 0 -50.5 19.5t-17.5 44.5q0 18 2 26.5t2 26.5q0 53 4 108.5t4 104.5q0 23 -5 24t-21 -18q-29 -37 -41 -63q-16 -35 -33.5 -41t-32.5 -6q-8 0 -12 9t-4 17z " />
<glyph horiz-adv-x="262" d="M-76 98q0 8 2 15.5t13 19.5q25 37 55.5 83t58.5 79q37 49 47 108q18 123 41 236t44.5 204t39 155.5t27.5 95.5q4 16 15.5 31.5t39.5 15.5q33 0 33 -16.5v-47.5q0 -18 1 -24t3 -8.5t3 -5.5t1 -15q0 -20 -14.5 -52t-36 -89.5t-48 -148.5t-48.5 -230q-4 -25 2 -24t20 16 q10 10 14.5 23t8.5 22q2 6 12 20t21.5 29.5t21.5 30t12 18.5q4 10 6.5 22.5t6.5 20.5q10 29 15 42t26 13q20 0 37.5 -3t17.5 -25q0 -25 -16.5 -59t-45 -76t-65.5 -89t-80 -96q-16 -20 -28.5 -42.5t-16.5 -51.5q-8 -57 -12 -133t-4 -154q0 -16 4 -23.5t10 -15.5t10 -20t4 -37 q0 -16 -12 -40t-37 -24q-33 0 -50 19.5t-17 44.5q0 18 2 36.5t2 37.5q0 53 4 108.5t4 104.5q0 23 -5 23.5t-22 -17.5q-14 -18 -26.5 -46t-18.5 -40q-16 -35 -33.5 -41t-31.5 -6q-8 0 -12.5 9t-4.5 17z" />
<glyph horiz-adv-x="614" d="M-152 -102q0 12 10.5 18t18.5 6q12 0 25.5 -6t32 -14t42 -14.5t54.5 -6.5q84 0 161.5 18.5t137 53.5t95.5 84t36 110q0 53 -31 81t-68 46q-109 55 -181 96.5t-117.5 84.5t-63.5 96t-18 135q0 41 19 62.5t30 39.5q14 25 37.5 57t58.5 64.5t83 63.5t114 55q53 18 105 28.5 t106 10.5q25 0 48 -6t43.5 -16.5t33 -27t12.5 -36.5q0 -23 -16.5 -33t-39.5 -10q-12 0 -38.5 4t-49.5 4q-66 0 -142.5 -16.5t-143 -48t-110.5 -81.5t-44 -118q0 -55 13.5 -93t50 -72t102 -69.5t168.5 -87.5q57 -29 104 -79t47 -125q0 -86 -49 -151.5t-125.5 -112t-171 -70 t-182.5 -23.5q-78 0 -116 13.5t-52 25.5q-20 18 -20 31q0 6 -4.5 10t-4.5 19zM266 1384q0 47 39 48q23 0 38 -13.5t15 -38.5q0 -8 1 -15t3 -26q0 -10 1.5 -14t1.5 -10v-19.5v-42.5q0 -10 10 -17t14 -7q14 0 28.5 15.5t24.5 35.5q10 23 35 62.5t41 89.5q4 10 14.5 12t14.5 6 q4 8 10 17.5t14 9.5t9 -19q0 -23 -30 -84t-63 -133q-2 -4 -7 -22.5t-7 -22.5q-20 -37 -55 -52.5t-58 -15.5q-20 0 -33.5 28t-22.5 64.5t-14 71.5t-9 51q-4 14 -9.5 22.5t-5.5 18.5z" />
<glyph horiz-adv-x="512" d="M37 -41q0 29 35 29q16 0 27.5 -6.5t54.5 -6.5q33 0 71.5 10.5t73.5 31t58.5 50t23.5 70.5q0 18 -13.5 33.5t-35.5 26.5q-49 20 -100.5 38.5t-92.5 43t-66.5 60.5t-25.5 93q0 45 36 92t86 85t103.5 62.5t89.5 24.5q12 0 24.5 -1t23.5 -3q16 -4 25 -14t20 -19 q10 -10 20 -13t10 -21q0 -10 -17 -22.5t-40 -12.5q-12 0 -28.5 1t-24.5 1q-29 0 -68 -11.5t-74.5 -33t-60.5 -51t-25 -64.5t18.5 -57.5t51.5 -42t80 -39t106 -47.5q39 -18 58.5 -43t19.5 -70q0 -35 -18.5 -67.5t-40.5 -55.5q-10 -10 -26.5 -13t-26.5 -13q-66 -53 -123.5 -78 t-104.5 -25q-59 0 -88 35q-6 6 -6 21q0 6 -5 10t-5 12zM260 1122q0 47 39 47q23 0 38 -13t15 -38q0 -8 1 -15t3 -26q2 -20 12.5 -61t10.5 -98q0 -10 10 -17.5t14 -7.5q14 0 28.5 15.5t25.5 35.5q10 23 34.5 63t40.5 89q4 10 14.5 12t14.5 6q4 8 10.5 17.5t14.5 9.5t8 -19 q0 -23 -29.5 -84t-62.5 -133q-2 -4 -7.5 -22.5t-7.5 -22.5q-20 -37 -55 -52t-57 -15q-20 0 -36.5 38.5t-29 90t-21.5 97.5t-14 62q-4 14 -9 22.5t-5 18.5z" />
<glyph horiz-adv-x="737" d="M-41 926q0 29 23.5 45t46.5 16q8 0 13 -4t11 -4q12 0 22.5 -11.5t17.5 -24.5t13.5 -26.5t10.5 -17.5q4 -6 32.5 -50t69.5 -105.5t89 -127t91 -110.5q10 -10 23 -10q16 0 24 10q18 20 56.5 63t77 91.5t72.5 89.5t44 57q12 18 29.5 47t36 56.5t35 47t26.5 19.5q4 0 8.5 -5 t8.5 -5q47 0 47 -49q0 -25 -13.5 -48.5t-31 -43t-36 -36t-28.5 -28.5q-14 -16 -50 -58t-78 -91.5t-80 -95.5t-56 -68q-10 -10 -11 -22.5t-3 -23.5q-4 -25 -34 -44t-52 -42q-25 -29 -60 -78t-69.5 -104t-66.5 -109.5t-50 -91.5q-23 -47 -40 -96t-17 -63q0 -43 -19.5 -63.5 t-44.5 -20.5q-39 0 -54.5 19.5t-15.5 51.5q0 18 20.5 61.5t53.5 100t74 122t84 130t83 122.5t68 99q8 14 9 25q0 4 -5.5 11t-9.5 11q-8 4 -30.5 30t-53 62.5t-63.5 76.5t-61.5 75t-47.5 58l-18 24q-41 47 -81 86t-40 70zM483 1057q0 4 5.5 11t13.5 17q4 4 21.5 15.5 t23.5 17.5q41 39 59.5 63.5t44.5 57.5q14 16 31.5 29.5t46.5 13.5q31 0 42 -21.5t11 -43.5q0 -18 -7 -29.5t-17 -19t-22.5 -12.5t-22.5 -13q-12 -12 -40 -31.5t-58.5 -40t-57.5 -35t-39 -14.5q-25 0 -30 9t-5 26z" />
<glyph horiz-adv-x="655" d="M-207 -627q0 12 12.5 23.5t47.5 15.5q8 2 17 4t19 2q37 2 96.5 32t127 90.5t133 151.5t114.5 218q18 43 25.5 95t24.5 97q16 49 33.5 108.5t31.5 114t23.5 94.5t9.5 50q0 12 -1 24.5t-11 12.5q-6 0 -16.5 -8.5t-18.5 -12.5q-25 -16 -42.5 -30.5t-27.5 -34.5 q-4 -6 -20.5 -25.5t-42 -50.5t-55 -71t-58.5 -89q-12 -18 -27.5 -42.5t-37 -45t-48 -35t-61.5 -14.5q-29 0 -41 28.5t-12 63.5q0 14 24.5 68.5t55 121t55 127t24.5 87.5q0 4 -3 17t-6 28.5l-6 31t-3 23.5q0 31 17.5 57.5t52.5 26.5t56 -15.5t21 -64.5q0 -55 -23.5 -126.5 t-53 -141.5t-58 -127t-37.5 -84q-4 -12 -2 -22.5t9.5 -13.5t18.5 2t28 28q10 14 21 42.5t32.5 74t57.5 106.5t96 141q20 27 37.5 41.5t33 23.5t28.5 16t23 20q10 12 33 20t31 8q23 0 40 -22.5t17 -63.5q0 -14 -3 -44.5t-9 -72.5t-17.5 -90.5t-25.5 -97.5q-92 -285 -179 -467 t-168 -286.5t-156 -144.5t-138 -40q-12 0 -30.5 3t-35.5 7q-12 2 -11 13.5t-21 11.5q-20 0 -21 12zM485 836q0 4 5.5 11t13.5 17q4 4 18.5 6t18.5 13q8 20 12 35.5t8 29t11.5 26.5t19.5 30q14 16 31.5 29.5t46.5 13.5q31 0 42 -21.5t11 -44.5q0 -39 -29.5 -67.5t-56.5 -32.5 q-12 -2 -30.5 -15.5t-36 -28t-32 -25.5t-18.5 -11q-25 0 -30 9t-5 26z" />
<glyph horiz-adv-x="573" d="M41 -182q0 49 13.5 141t27.5 219q2 10 -1 19.5t-7 15.5q-8 14 -8 33q0 16 16 28q14 10 14 31q4 37 13.5 103.5t20.5 147.5t22.5 166t19.5 155.5t14.5 120t6.5 57.5q0 25 -1.5 41t-1.5 27.5t-1 19.5t-1 20q0 35 22.5 40t61.5 5t39 -49q0 -31 -10 -79t-21.5 -97t-21.5 -91 t-10 -61q0 -16 5 -20t7 -4q14 0 27 12q47 41 100 62.5t119 21.5q39 0 70.5 -28.5t31.5 -100.5t-33.5 -155.5t-113.5 -161.5q-18 -18 -44 -33.5t-48 -30.5q-16 -12 -41 -41.5t-50.5 -61.5t-50 -57.5t-43.5 -31.5q-23 -6 -26 -31q-16 -131 -11 -229.5t5 -139.5q0 -12 3 -38.5 t3 -43.5q0 -16 -13.5 -32.5t-40.5 -16.5q-35 0 -49 43t-14 105zM178 324q-4 -29 21 -19q6 2 19 14.5t28.5 27.5t30 28.5t20.5 17.5q31 18 50.5 43t45.5 53q55 61 97 123t42 140q0 31 -18 46t-43 15t-56.5 -5t-62 -20.5t-57.5 -41t-43 -66.5q-18 -47 -37.5 -133t-36.5 -223z " />
<glyph horiz-adv-x="675" d="M0 -639q0 20 7 60t16.5 115t17.5 190.5t8 291.5q0 477 -2 727t-10 304q-2 12 -16.5 19t-14.5 24q0 18 15.5 37.5t38 35t47 25.5t45.5 10q14 0 38 -12q4 -2 8.5 -6t8.5 -8q8 -4 15 -6.5t14 -6.5q18 -14 31.5 -27.5t11.5 -23.5t-19 -14q-4 0 -8 -3t-8 -3q-8 -2 -14.5 2 t-16.5 2q-4 -2 -6 -5.5t-6 -7.5t-11.5 -5t-11.5 -5q-10 -6 -23.5 -23.5t-13.5 -39.5q0 -459 -1 -750t1 -393q0 -31 9 -31q6 0 12 27q6 29 17 72.5t20 76.5q6 20 16 55t22.5 71t24.5 63.5t19 38.5q16 20 27 61t18 66q37 147 97 209.5t148 62.5q14 0 32 -10.5t33 -27.5 t25.5 -42t10.5 -53q0 -92 -34 -182.5t-83 -160t-107.5 -112.5t-107.5 -43q-25 0 -39 6q-8 4 -11 6t-7 2q-10 0 -13 -8q-25 -98 -50 -182t-42 -172q-16 -78 -24.5 -145.5t-17.5 -116.5t-23 -78t-41 -29q-41 0 -56.5 18.5t-15.5 53.5zM309 143.5q0 -10.5 10 -16.5 q6 -4 13.5 -15.5t21.5 -11.5q35 0 75 34t74 87t56.5 116.5t22.5 125.5q0 27 -9.5 48t-25.5 21q-18 0 -44 -17t-55.5 -59t-63.5 -114t-71 -180q-4 -8 -4 -18.5z" />
<glyph horiz-adv-x="700" d="M-55 -20q0 43 35 83q20 23 41.5 45.5t44.5 49.5q16 16 46.5 36.5t47.5 36.5q10 12 38.5 47t61.5 76t60.5 77t37.5 48q4 4 20.5 15.5t36 22.5t36 21.5t20.5 14.5q33 41 46 57.5t20.5 28.5t16.5 29.5t38 60.5q18 31 44 62.5t40 60.5q4 12 4 18q0 12 -21 13 q-147 0 -256.5 -27t-162.5 -53q-12 -6 -27.5 -18.5t-40.5 -12.5q-31 0 -51.5 15.5t-20.5 27.5q0 41 21.5 49t42.5 17q33 12 75 27.5t98 28.5t129 22.5t167 9.5q53 0 86 -2t50 -8.5t23.5 -16.5t6.5 -27q0 -29 -35 -79t-78 -115q-23 -33 -56.5 -70t-70.5 -73.5t-73.5 -72.5 t-63.5 -67q-16 -16 -54 -62t-79 -96.5t-79 -95.5t-54 -61q-10 -10 -31 -31.5t-31 -32.5q-12 -12 -12 -20q0 -12 35 -6q43 6 107.5 16t135 20.5t140 17.5t125.5 7q33 0 56.5 -8t59.5 -8q18 0 19 -17q0 -23 -34 -38t-142 -23q-182 -14 -288 -27.5t-164 -22.5t-83.5 -15.5 t-48.5 -6.5t-39 11.5t-16 40.5zM373 1329q0 23 10 36t33 13t36 -14t13 -39q0 -8 1 -15t3 -26q0 -10 3 -14t5 -12.5t4 -21.5t2 -42q0 -10 10.5 -17.5t14.5 -7.5q14 0 28.5 15.5t24.5 36.5q10 23 35 62.5t41 88.5q4 10 14.5 12t14.5 7q4 8 10 17t14 9t8 -18q0 -23 -29.5 -84.5 t-62.5 -132.5q-2 -4 -7 -22.5t-7 -22.5q-20 -37 -55 -52.5t-58 -15.5q-20 0 -35.5 28.5t-26.5 65.5t-18.5 73t-11.5 52q-4 14 -9 22.5t-5 18.5z" />
<glyph horiz-adv-x="751" d="M8 -16q0 41 72 63q33 10 45 17.5t29 29.5q37 47 95 105.5t118.5 116t111.5 105.5t74 75q10 10 10 20q0 12 -24 8q-55 -4 -117 -28.5t-117 -52t-95 -52t-48 -29.5q-12 -6 -19.5 -15t-31.5 -9q-23 0 -38.5 11t-15.5 24q0 20 31 48t80 56.5t111.5 55t125 48t119 35 t94.5 13.5q29 0 49.5 -19.5t20.5 -52.5q0 -27 -24.5 -62.5t-65.5 -78.5q-10 -10 -27.5 -19.5t-27.5 -19.5q-25 -25 -59.5 -57.5t-68.5 -68.5t-63.5 -68.5t-44.5 -57.5q-4 -8 -8 -12t-4 -9q0 -10 35 -6q43 6 84 9.5t83 5.5t87 2h100q41 0 53.5 -6.5t22.5 -6.5q18 0 18 -16 q0 -6 -3 -13t-9 -12q-6 -4 -14.5 -1t-14.5 -3q-10 -10 -34.5 -16t-96.5 -10q-55 -4 -120.5 -11.5t-126 -16.5t-106.5 -17.5t-60 -12.5q-12 -4 -17.5 -13t-9.5 -19q-6 -20 -25.5 -44t-50.5 -24q-23 0 -38 14.5t-15 32.5q-1 19 -17 31q-12 10 -12 33zM319 961q0 23 10.5 36 t32.5 13q23 0 36.5 -14.5t13.5 -39.5q0 -8 1 -15t3 -26q0 -10 3 -14t5 -12t4 -21.5t2 -42.5q0 -10 10.5 -17t14.5 -7q14 0 28.5 15t24.5 36q6 12 11 18.5t10.5 14.5t11.5 21.5t14 37.5q4 10 14.5 12t14.5 7q10 16 28 16q8 0 9 -18q0 -23 -17.5 -49.5t-50.5 -98.5 q-2 -4 -7 -22.5t-7 -22.5q-20 -37 -55 -52.5t-58 -15.5q-20 0 -35.5 29t-27 65.5t-18.5 72.5t-11 53q-4 14 -9.5 22t-5.5 19z" />
<glyph horiz-adv-x="1116" d="M-96 -100q0 14 5 28.5t23 40.5q248 362 436.5 665.5t309.5 559.5q6 12 21.5 33.5t15.5 34.5q0 16 19.5 26t35.5 10q14 0 27.5 -8t17.5 -12q20 -16 14 -37q-4 -10 -1 -15t3 -20q0 -18 -19 -37.5t-32 -35.5q-66 -92 -154.5 -227.5t-187 -294t-197 -330.5t-184.5 -338 q-4 -6 -12 -13.5t-8 -33.5q0 -16 -17.5 -35t-46.5 -19q-35 0 -52 17.5t-17 40.5zM66 569q0 16 10 57.5t23.5 99.5t23.5 133t10 159q0 16 -1 40.5t-1 37.5q0 29 16 49q6 6 20.5 12t31.5 6q23 0 22.5 -3t3.5 -19q4 -10 11.5 -17.5t7.5 -21.5q0 -18 -4 -40t-4 -40t-10.5 -65.5 t-24 -106.5t-23.5 -122.5t-10 -113.5q0 -4 -1 -7t3 -7q2 -2 -4 -17.5t-6 -19.5q0 -67 -43 -67q-33 0 -42 21.5t-9 51.5zM526 514q0 18 10.5 26.5t20.5 16.5t24.5 21.5t28.5 21.5q53 29 120 54.5t132 25.5q45 0 77 -16.5t50.5 -41t26.5 -53t8 -55.5q0 -43 -17.5 -75.5 t-54.5 -74.5t-93 -103.5t-134 -164.5q-10 -14 -10 -22q0 -20 28 -21q29 0 82.5 16.5t107.5 36t98 36t52 16.5q16 0 37 -5.5t21 -17.5q0 -8 -5.5 -23.5t-5.5 -21.5q0 -4 -1 -11t-5 -9q-43 -18 -109.5 -41t-137 -44.5t-133 -36t-97.5 -14.5q-29 0 -48 9.5t-19 56.5 q0 45 20.5 79t46.5 68q10 12 27.5 24.5t38 26t42 30t40.5 38.5q12 16 18 38t23 46q37 53 66.5 85t29.5 61q0 70 -86 69q-41 0 -77 -5t-79 -36q-31 -23 -50 -37t-40 -14q-29 0 -51.5 9.5t-22.5 31.5z" />
<glyph horiz-adv-x="1116" d="M-96 -100q0 14 5 28.5t23 40.5q123 180 233.5 328.5t206 280t174.5 254t138 249.5q6 12 21.5 34t15.5 34q0 16 19.5 26.5t35.5 10.5q14 0 28.5 -9.5t18.5 -13.5q20 -16 15 -37q-4 -10 -1 -15t3 -19q0 -18 -19.5 -38t-32.5 -36q-66 -92 -156.5 -210t-190 -255t-199 -290.5 t-185.5 -319.5q-4 -6 -12 -13.5t-8 -33.5q0 -16 -17.5 -35t-46.5 -19q-35 0 -52 17.5t-17 40.5zM123 668q0 16 10 57t23.5 99.5t23.5 133t10 158.5q0 16 -1 41t-1 37q0 29 17 49q6 6 23.5 12.5t33.5 6.5q39 0 47 -29q4 -10 11.5 -17.5t7.5 -21.5q0 -18 -18.5 -47t-18.5 -47 t-6 -63.5t-13.5 -101.5t-13.5 -117.5t-6 -110.5q0 -4 -1 -7.5t3 -7.5q2 -2 3 -17.5t1 -19.5q0 -35 -20 -51t-43 -16q-33 0 -52.5 24.5t-19.5 55.5zM510 -4q0 33 6 85t16.5 112.5t23.5 122t30 110.5q4 16 24.5 39.5t42.5 23.5q33 0 49.5 -18t16.5 -63q0 -41 -21.5 -63.5 t-27.5 -45.5q-25 -74 -39.5 -126t-14.5 -101q0 -27 23 -27q10 0 26.5 -6t30.5 -4q31 6 76 24.5t82 40.5q12 6 21.5 16.5t21.5 18.5q23 14 29 48t10 55q16 63 16 103v87q0 35 21.5 54.5t44.5 19.5q68 0 67 -90q0 -10 -10 -52.5t-24.5 -101.5t-32 -128t-31.5 -134.5 t-24.5 -119.5t-10.5 -85q0 -20 9.5 -50t9.5 -42q0 -23 -14.5 -34t-30.5 -11q-12 0 -29 4q-10 2 -28.5 26.5t-20.5 34.5q-4 10 -10.5 21.5t-6.5 28.5q0 8 9.5 32.5t20.5 58.5t20.5 72.5t9.5 75.5q0 23 -3 29t-24 -4q-6 -4 -20.5 -2t-22.5 -2q-33 -16 -62.5 -32.5t-58 -31 t-59.5 -24t-63 -9.5q-33 0 -50.5 19.5t-17.5 44.5z" />
<glyph horiz-adv-x="364" d="M123 668q0 16 10 57t23.5 99.5t23.5 133t10 158.5q0 16 -1 41t-1 37q0 29 17 49q6 6 23.5 12.5t33.5 6.5q39 0 47 -29q4 -10 11.5 -17.5t7.5 -21.5q0 -10 -7.5 -30.5t-16.5 -44t-16 -45t-7 -30.5q0 -18 -4.5 -54t-9.5 -82t-9 -97t-4 -100q0 -4 -1 -7.5t3 -7.5 q2 -2 2 -19.5v-21.5q0 -35 -20 -51t-43 -16q-33 0 -52.5 24.5t-19.5 55.5z" />
<glyph horiz-adv-x="1361" d="M2 535q0 8 5 22t9 18t25.5 8.5t30.5 4.5q8 0 22 -19q4 -4 8 -12t9 -14q6 -6 15 -9.5t19 -7.5q16 -4 29.5 -6t40.5 -2q31 0 84 16.5t105.5 45t90 65.5t37.5 80q0 33 -12 52.5t-29.5 30.5t-36 15t-28.5 4q-53 0 -106.5 -3t-86.5 -13q-45 -10 -64 -21.5t-30 -11.5 q-25 0 -42 13.5t-17 50.5q0 16 17.5 33.5t54.5 17.5h27.5t19.5 4q4 2 16 7t25.5 11.5t24.5 11.5t16 9q14 14 29.5 31.5t27.5 33.5q4 4 6 10.5t6 10.5q12 16 23.5 29.5t11.5 29.5q0 27 -18.5 49.5t-49.5 22.5q-25 0 -51 -9t-52 -21.5t-46.5 -27t-28.5 -24.5q-31 -35 -73 -35 q-16 0 -29.5 23.5t-13.5 38.5q0 12 31.5 35.5t75.5 48t92 43t81 18.5q29 0 56.5 -11t50 -30.5t37 -45.5t14.5 -54q0 -35 -11.5 -61.5t-27.5 -47t-34.5 -36t-33.5 -27.5q-8 -8 -8 -15q0 -12 19 -8q12 2 40.5 3t40.5 1q29 0 59 -12t53.5 -35.5t38.5 -58.5t15 -80 q0 -55 -44 -107.5t-106.5 -93.5t-130 -65.5t-114.5 -24.5q-82 0 -132 12.5t-65 42.5q-4 10 -11 25.5t-7 20.5zM209 -31q0 14 5 28.5t24 41.5q123 180 219 307t173 233.5t141.5 208t123.5 228.5q6 12 21.5 33.5t15.5 33.5q0 16 19.5 26.5t35.5 10.5q14 0 28.5 -9t18.5 -13 q20 -16 15 -37q-4 -10 -1 -15.5t3 -19.5q0 -18 -19.5 -37.5t-32.5 -36.5q-66 -92 -141.5 -188t-157.5 -209t-166.5 -245t-171.5 -298q-4 -6 -12 -13t-8 -34q0 -16 -17 -34.5t-46 -18.5q-35 0 -52.5 17.5t-17.5 39.5zM762 143q0 23 15.5 68t38 104.5t51 127t54 133t47 125 t29.5 100.5q4 16 7.5 32.5t25.5 16.5q16 0 34.5 -2t34 -10.5t26 -21.5t10.5 -36q0 -20 -13.5 -41.5t-29 -43t-30.5 -39t-18 -27.5q-12 -37 -40.5 -96.5t-57 -122t-51.5 -115.5t-23 -78q0 -27 23 -27q10 0 26.5 -6t30.5 -4q31 6 66 22.5t72 39.5q12 6 21 16t22 18 q23 14 40 39t21 45q16 63 16 103.5v87.5q0 68 45 67q33 0 56.5 -23.5t23.5 -53.5q0 -10 -11 -55.5t-26.5 -111t-35 -144t-35 -157.5t-26.5 -152t-11 -126q0 -20 9 -33.5t9 -25.5q0 -23 -23.5 -35t-39.5 -12q-12 0 -29 4q-25 4 -31 24q-4 10 -10 21.5t-6 28.5q0 8 12.5 55 t25.5 106.5t25.5 120t12.5 96.5q0 23 -3 29t-24 -4q-6 -4 -20.5 -2t-22.5 -2q-66 -31 -123 -58.5t-123 -27.5q-33 0 -50 19.5t-17 43.5z" />
<glyph d="M96 565q0 8 1 23.5t5 19.5t22.5 9.5t27.5 5.5q8 0 22 -19q4 -4 8 -12t8 -14q6 -6 15.5 -9.5t19.5 -7.5q16 -4 35 -8t45 -4q43 0 85 17.5t75 45t53.5 62.5t20.5 69q0 41 -18.5 58.5t-41.5 17.5q-53 0 -100 -7t-80 -17q-45 -10 -64.5 -21.5t-29.5 -11.5q-25 0 -42.5 13 t-17.5 50q0 16 17.5 34t54.5 18h27.5t19.5 4q14 6 37 24q10 8 16.5 10.5t16.5 12.5q6 6 14 18l14 21q6 6 14.5 12t14.5 14q4 4 6 10.5t6 10.5q12 16 12.5 27.5t0.5 27.5q0 27 -21.5 38t-52.5 11q-47 0 -73.5 -12t-45.5 -33q-16 -16 -28.5 -31.5t-32.5 -15.5q-8 0 -17.5 7 t-9.5 18q0 16 -3 32.5t-3 26.5q0 12 23.5 29.5t58.5 34t74 28.5t71 12q57 0 104.5 -27.5t47.5 -86.5q0 -43 -29.5 -80t-70.5 -98q-8 -12 -9 -15q0 -12 19 -8q12 2 40.5 3t41.5 1q29 0 57.5 -12t50 -32.5t34.5 -48.5t13 -58q0 -41 -37.5 -91.5t-92 -94.5t-116 -73.5 t-108.5 -29.5q-82 0 -130 21.5t-62 52.5q-4 10 -8.5 17t-4.5 11z" />
<glyph horiz-adv-x="675" d="M72 516q0 23 12 40t29.5 33.5t37 32t31.5 31.5q10 12 40 32t65 41.5t68.5 46t52.5 46.5q12 14 26.5 40t26.5 52.5t21.5 49t9.5 32.5q0 35 -23 60.5t-66 25.5q-66 0 -98.5 -17.5t-75.5 -47.5q-31 -23 -50 -37t-40 -14q-51 0 -51 47q0 18 10.5 26t20.5 17q10 8 24.5 21 t28.5 22q27 14 50.5 29.5t52 27.5t66.5 20.5t93 8.5q45 0 78 -17.5t52.5 -44t28.5 -57.5t9 -57q0 -43 -36 -88.5t-92 -95.5t-125.5 -107.5t-135.5 -126.5q-10 -14 -10 -23q0 -20 28 -20q55 0 111.5 8t105 18.5t82 18.5t41.5 8q16 0 27.5 -6t11.5 -19q0 -8 -8 -22t-8 -21 q0 -4 -11.5 -18t-15.5 -16q-43 -18 -102 -27.5t-119.5 -13.5t-116 -4h-90.5q-29 0 -48 9t-19 56z" />
<glyph horiz-adv-x="376" d="M92 -289q0 37 6 72q18 119 40 254t22 293q0 33 10 38t27 5q16 0 23 -12.5t7 -28.5q0 -86 -10 -226.5t-10 -324.5q0 -14 1 -37t1 -33q0 -16 -5 -44.5t-11 -39.5q-4 -8 -10.5 -12t-22.5 -4q-10 0 -27 4q-10 2 -15 26.5t-9 34.5q-4 8 -10.5 15.5t-6.5 19.5zM180 645 q0 33 2 85t4 104.5t4.5 95.5t2.5 61q0 2 1 21.5t1 42v42t-2 21.5t-2.5 15.5t-0.5 17.5q0 33 16.5 56.5t39.5 23.5q29 0 46 -21.5t17 -50.5q0 -8 -9 -61.5t-19.5 -129t-19.5 -163.5t-9 -164q0 -35 -9.5 -45t-29.5 -10q-23 0 -28 19.5t-5 39.5z" />
<glyph d="M35 504q0 16 17.5 29.5t39.5 21.5q41 12 102.5 20.5t126 14.5t121 8t86.5 2q37 0 74 -9t37 -26q0 -16 -14 -18q-8 -2 -13.5 -8.5t-21.5 -6.5q-82 0 -146.5 -3t-117.5 -15q-10 -2 -23.5 -7t-23.5 -9t-20.5 -4t-20.5 -5q-10 -4 -20.5 -10t-18.5 -10q-29 -12 -51.5 -21.5 t-65.5 -9.5q-20 0 -33.5 16.5t-13.5 49.5z" />
<glyph d="M76 659q0 20 14 43t25 23q16 0 23 2t28 -14q14 -12 36.5 -27.5t45 -32t44 -34t36.5 -31.5q18 -18 39 2q8 8 8 21.5t4 21.5q12 29 19.5 47t27.5 39q14 14 34.5 26.5t43.5 12.5q16 0 35.5 -21.5t19.5 -50.5q0 -12 -15.5 -33.5t-37 -44t-43 -43t-33.5 -33.5q-10 -10 -4 -17 t16 -17l138 -138q53 -53 53 -86q0 -18 -23 -18q-8 0 -16 2t-19 12q-41 41 -92 94.5t-84 86.5q-12 12 -25.5 7t-23.5 -18q-10 -10 -27.5 -26.5t-36 -35t-34.5 -33.5t-23 -21q-27 -27 -53.5 -45.5t-40.5 -18.5q-6 0 -12 11.5t-6 21.5q0 2 6 13t15 23.5t17.5 24t14.5 17.5 q10 10 28.5 26.5t38 32.5t36 31.5t22.5 21.5q16 16 9 22.5t-17 16.5q-8 8 -32 22.5t-34 18.5q-4 2 -14 9.5t-22.5 15.5t-22.5 14t-15 8q-29 12 -50 18.5t-21 30.5z" />
<glyph unicode=" "  horiz-adv-x="450" />
<glyph unicode="&#x09;" horiz-adv-x="450" />
<glyph unicode="&#xa0;" horiz-adv-x="450" />
<glyph unicode="!" horiz-adv-x="364" d="M92 -4q0 29 23.5 58.5t64.5 29.5q31 0 48.5 -22.5t17.5 -34.5q0 -25 -11.5 -33t-11.5 -39q0 -14 -21 -23.5t-46 -9.5t-44.5 21.5t-19.5 52.5zM131 356q0 10 5 53.5t13.5 102.5t17.5 128t17.5 131.5t13.5 111.5t5 69q0 16 -1 41t-1 37q0 29 16 49q6 6 13.5 12.5t23.5 6.5 q12 0 29 -4q25 -4 30 -25q4 -10 11.5 -17.5t7.5 -21.5q0 -18 -4 -39.5t-4 -40.5q0 -35 -11.5 -103.5t-26 -147t-25.5 -154.5t-11 -125q0 -4 1 -14.5t1 -14.5q0 -6 2 -19.5t2 -17.5q0 -25 -21.5 -48t-41.5 -23q-33 0 -47.5 21.5t-14.5 51.5z" />
<glyph unicode="&#x22;" horiz-adv-x="573" d="M133 811q0 6 2 26.5t5 47t5 56.5t2 56q0 23 23 41.5t51 18.5q31 0 47.5 -21.5t16.5 -48.5q0 -37 -15.5 -73.5t-35 -66.5t-40 -49.5t-30.5 -19.5q-31 0 -31 33zM305 786q0 6 4 31t9.5 54.5t12.5 60.5t13 51t21.5 38.5t37.5 18.5q31 0 52.5 -17t21.5 -40q0 -27 -14 -65.5 t-34.5 -75.5t-44.5 -62.5t-44 -25.5q-35 0 -35 32z" />
<glyph unicode="#" horiz-adv-x="991" d="M47 -59q0 113 4 234.5t15.5 238t28 220t40.5 177.5q6 20 18.5 33.5t39.5 13.5q18 0 28 -10t17.5 -25.5t10.5 -31t7 -27.5q16 -53 35.5 -125t40.5 -135q27 -80 53.5 -156t36.5 -123q2 -18 12 -18q12 0 12 16q0 106 18.5 213t40 198t43 160.5t27.5 104.5q4 20 13.5 30.5 t13.5 14.5q16 16 22.5 28.5t16.5 12.5q20 0 36.5 -14.5t16.5 -48.5q0 -16 -8 -32l-16 -32q-14 -29 -41 -99.5t-54.5 -184t-48 -270.5t-20.5 -357q0 -4 2 -10.5t2 -14.5q0 -16 -8.5 -33.5t-28.5 -17.5t-40.5 6t-24.5 35q-4 18 -5.5 36.5t-3.5 41.5q-2 16 -1 35.5t-3 35.5 q-4 14 -8 20.5t-8 20.5q-27 147 -57.5 271.5t-67.5 224.5q-4 12 -14.5 39t-14.5 39q-4 10 -7 13t-7 3t-7 -3t-7 -15q-10 -43 -19.5 -82t-15.5 -99.5t-10.5 -156.5t-4.5 -254q0 -70 -6 -101.5t-18 -39.5q-8 -4 -18.5 -23.5t-20.5 -19.5q-16 0 -26.5 10t-10.5 33zM569 135 q0 29 19.5 43.5t44.5 14.5q37 0 76 -10.5t90 -30.5q2 0 13 -6.5t23.5 -13.5t23.5 -13t13 -6q33 -10 62 -16.5t29 -12.5q0 -29 -31 -29q-6 0 -43 5.5t-84 11.5t-96.5 11t-79.5 5q-20 0 -40 10.5t-20 36.5zM616 393q0 70 21.5 146.5t51.5 140t60.5 105.5t51.5 42 q37 0 55 -19.5t18 -41.5q0 -23 -7 -29t-13 -10q-16 -14 -16 -22q0 -10 12 -11q100 -8 100 -151q0 -27 -18.5 -70t-46.5 -90q-8 -12 -13.5 -18.5t-15.5 -14.5q-16 -12 -23.5 -24.5t-17.5 -22.5q-8 -8 -15 -17.5t-16 -13.5q-36 -26 -69 -26q-41 0 -70 34.5t-29 112.5zM694 395 q0 -78 29 -78q12 0 24.5 4.5t22.5 18.5q4 8 13.5 11t17.5 11q10 10 14 24.5t12 29.5q10 20 17.5 43.5t7.5 44.5q0 55 -14.5 73.5t-24.5 18.5t-17.5 -8t-21.5 -8q-8 0 -16 2t-15 2q-10 0 -18 -17q-8 -14 -19.5 -60t-11.5 -112z" />
<glyph unicode="$" horiz-adv-x="548" d="M47 86q0 10 7 20.5t20 10.5q14 0 22 -5.5t43 -5.5h19.5t19.5 5q23 10 25 26q6 41 9 89t7 93q2 14 -1 27.5t-13 20.5q-61 33 -107.5 73.5t-46.5 96.5q0 45 48 93t120 85q16 8 22.5 20.5t8.5 28.5q4 53 5 93t1 56q0 10 -2 13q-2 2 -2 12v12q0 51 41 51q23 0 37 -17t14 -40 q0 -10 -10 -56t-17 -108q-2 -12 3.5 -20t21.5 -4q25 6 49 6h19.5t19.5 -4q12 -4 19.5 -12.5t17.5 -14.5t16 -13t6 -22q0 -18 -16 -22t-33 -4q-10 0 -23.5 1t-21.5 1q-16 0 -34.5 -2t-34.5 -4q-27 -2 -31 -37t-6 -88.5t-4 -96.5q0 -31 26 -38q29 -10 56.5 -22.5t56.5 -27.5 q68 -33 68 -104q0 -31 -16.5 -59.5t-44.5 -53t-61.5 -45t-70.5 -35.5q-33 -12 -33 -43v-86v-57q0 -25 -10 -35q-4 -4 -8.5 -9t-18.5 -5t-20 2q-14 2 -23 18q-4 8 -8 13.5t-4 15.5v29.5t4 29.5q4 16 6 32t2 32q0 29 -20 29q-10 0 -18.5 -1t-14.5 -1q-51 0 -72 28l-4 8t-2 9 q0 4 -4 8t-4 10zM131 537q0 -23 25.5 -42.5t52.5 -35.5q20 -12 24 18q4 29 3.5 71t1.5 64q2 16 -4.5 18.5t-20.5 -1.5q-29 -10 -55.5 -40t-26.5 -52zM268 160q0 -27 33 -13q41 16 70.5 42t29.5 59q0 16 -11 28.5t-28 20.5q-10 4 -27.5 12t-33.5 13q-23 4 -27 -19 q-4 -27 -4 -65.5t-2 -77.5z" />
<glyph unicode="%" horiz-adv-x="706" d="M14 528q0 33 6.5 81t19.5 93.5t35.5 77t55.5 31.5q12 0 31.5 15.5t64.5 15.5q37 0 64.5 -19.5t42.5 -48.5q4 -10 12 -14t19 2q53 35 88.5 66.5t58.5 66.5t36 49t48 14q39 0 52.5 -23.5t13.5 -49.5q0 -16 -12.5 -45t-22.5 -43q-39 -55 -72 -101.5t-62.5 -90.5t-59.5 -91 t-63.5 -106.5t-73.5 -134t-91 -173.5q-4 -6 -11.5 -13t-7.5 -30q0 -14 -15 -31.5t-42 -17.5q-33 0 -48 15.5t-15 37.5q0 12 5 24.5t21 37.5q98 143 173 243.5t130 192.5q2 4 7.5 15.5t9.5 23.5t9 23.5t7 15.5q39 63 66.5 103t45 64.5t25.5 37t8 24.5q0 14 -12 0 q-41 -49 -95 -83.5t-97 -63.5q-10 -8 -15.5 -12.5t-7.5 -14.5q-4 -45 -21.5 -88t-41.5 -84q-14 -23 -29 -33q-18 -14 -25.5 -26t-17.5 -23q-8 -6 -14.5 -15t-14.5 -13q-18 -12 -35.5 -20.5t-33.5 -8.5q-41 0 -70 36t-29 111zM92 532q0 -79 27 -79q33 0 49 22q6 8 13 12.5 t16 12.5q10 10 15 23.5t13 29.5q10 20 16.5 44t6.5 42q0 20 -23 20q-14 0 -38.5 10.5t-36.5 39.5q-4 6 -10.5 3t-6.5 -7q-4 -25 -22.5 -67t-18.5 -106zM205 737q0 -6 8 -15t16 -9q16 0 17 10q0 10 -8.5 18.5t-18.5 8.5q-14 0 -14 -13zM367 152q0 45 22.5 108.5t55 121.5 t69.5 98t66 40q31 0 45 -14t14 -29q0 -16 -8 -30.5t-25 -18.5q-8 -4 -8 -6q0 -6 8 -8q29 -4 48.5 -33t19.5 -78q0 -35 -24.5 -78t-61.5 -82t-78 -64.5t-74 -25.5q-31 0 -50 24.5t-19 74.5zM434 166q0 -23 7.5 -35t11.5 -12q12 0 34.5 15.5t43 39t36 53t15.5 58.5t-7.5 38 t-13.5 9q-4 0 -6 -3t-12 -3q-4 0 -9.5 3t-9.5 3q-14 0 -20 -10q-6 -8 -17.5 -24.5t-22.5 -38t-20.5 -45.5t-9.5 -48z" />
<glyph unicode="&#x26;" horiz-adv-x="796" d="M35 0q0 20 8 44t20.5 47.5t26.5 44t27 36.5q47 66 115.5 140.5t127.5 138.5q14 16 18.5 35.5t0.5 37.5q-10 43 -13.5 82t-3.5 74q0 86 38 143.5t132 57.5q27 0 46.5 -12.5t32 -30t17.5 -36t5 -32.5q0 -33 -12.5 -65.5t-33 -63.5t-44 -60.5t-47.5 -56.5 q-16 -16 -17.5 -37.5t2.5 -44.5q6 -35 22.5 -89t28.5 -89q8 -20 33 -6q12 8 41 33.5t61.5 53.5t62.5 49.5t44 21.5q10 0 15.5 -4t11.5 -4q12 0 21 -15.5t9 -32.5q0 -35 -45 -51q-35 -12 -58 -27.5t-39.5 -29.5t-28 -24.5t-19.5 -16.5q-10 -6 -20.5 -12t-22.5 -17 q-10 -6 -14 -16t4 -25q61 -119 145 -145q25 -8 52.5 -17.5t27.5 -35.5q0 -16 -16.5 -31.5t-59.5 -15.5q-18 0 -27.5 6t-21.5 10q-45 16 -85 63.5t-81 118.5q-14 27 -39 10q-41 -29 -89 -57.5t-99 -52t-102.5 -38.5t-98.5 -15q-25 0 -42 8t-17 51zM145 59q0 -12 6.5 -15 t20.5 -3q23 0 58.5 14.5t75.5 36t80 46t73 44.5q16 10 8 35q-10 29 -24.5 68t-22.5 67q-12 37 -41 2q-6 -6 -18.5 -13t-25.5 -13t-25.5 -12.5t-18.5 -12.5q-8 -10 -14.5 -16t-11.5 -11.5t-12 -13.5t-17 -22q-6 -8 -18.5 -37t-16.5 -37q-6 -10 -15.5 -37t-13.5 -37 q-4 -4 -15.5 -16.5t-11.5 -16.5zM453 654.5q0 -21.5 4 -38.5q6 -35 24 -6q23 35 40.5 71t17.5 71q0 45 -23 45q-20 0 -41.5 -34t-21.5 -71v-37.5z" />
<glyph unicode="'" horiz-adv-x="348" d="M109 717q0 6 3 33.5t7 63.5t7 74t3 64q0 23 23.5 49.5t52.5 26.5q31 0 47 -21.5t16 -48.5q0 -37 -16 -84t-37.5 -89t-43.5 -71.5t-32 -29.5q-31 0 -30 33z" />
<glyph unicode="(" horiz-adv-x="552" d="M0 -70q0 139 33 291t86 297.5t120.5 276.5t139.5 230t141.5 157.5t124.5 58.5q14 0 21.5 -11t15.5 -11q41 -4 41 -41q0 -23 -41 -40.5t-88 -33.5q-29 -10 -76 -54t-100 -121t-107.5 -181.5t-97.5 -232.5t-70.5 -278.5t-27.5 -318.5q0 -55 12 -83t53 -46q43 -20 43 -61 q0 -6 -8 -16.5t-22 -14.5q-10 -4 -19 -10t-29 -6t-32.5 7t-26.5 17q-8 6 -17.5 9t-17.5 14q-27 33 -39 85t-12 117z" />
<glyph unicode=")" horiz-adv-x="552" d="M-215 -244q0 23 22.5 32t71.5 26q43 14 97.5 68.5t109.5 140.5q20 29 38.5 48t39.5 54q8 12 20.5 32.5t26.5 42t26.5 42t20.5 37.5q6 14 20.5 47.5t18.5 48.5q20 51 23.5 79.5t13.5 61.5q57 119 78.5 240t21.5 219q0 57 -3 94t-10 60.5t-19.5 35t-32.5 21.5 q-43 20 -43 61q0 10 15 28.5t62 18.5q37 0 65 -28.5t45 -73.5t26.5 -101.5t9.5 -111.5q0 -131 -50 -298t-134 -341q-41 -84 -85 -157.5t-92 -141.5q-35 -49 -69.5 -100.5t-67.5 -90.5q-55 -66 -103 -111.5t-85 -45.5q-41 0 -59.5 18.5t-18.5 44.5z" />
<glyph unicode="*" horiz-adv-x="552" d="M18 621q0 10 20.5 21t31.5 15q78 23 130 50.5t52 48.5q0 8 -12.5 21.5t-28.5 23.5t-36.5 28.5t-38 39t-30 40t-12.5 35.5q0 41 66 41q8 0 20.5 -12t24.5 -28.5t21.5 -32t13.5 -21.5q8 -14 20 -18.5t16 -4.5q12 0 13 15q0 16 1 44.5t1 57.5t8 50.5t27 21.5q16 0 22 -4 t17 -4q25 0 35 -21.5t10 -38.5q0 -10 -10.5 -27.5t-18.5 -33.5q-8 -18 -14.5 -41t-6.5 -29q0 -45 17 -45q6 0 30.5 20.5t55.5 44t57.5 44t36.5 20.5q16 0 35.5 -14.5t19.5 -42.5q0 -10 -11 -25.5t-21 -28.5q-4 -4 -13.5 -7t-13.5 -5q-10 -6 -34.5 -18.5t-49.5 -24.5 t-44 -23.5t-19 -13.5q0 -8 15 -26.5t34.5 -40t35 -41t15.5 -25.5q0 -10 -3 -23.5t-20 -13.5q-14 0 -23 8.5t-20 18.5q-16 14 -34.5 35.5t-26.5 21.5q-16 0 -17 -20q0 -12 3.5 -35t8.5 -47.5t8 -46t3 -29.5q0 -22 -14 -22q-8 0 -13.5 10t-15.5 10q-2 0 -6 8t-7 18.5 t-6.5 19.5t-3.5 13q-12 78 -25 111t-24 33q-4 0 -32.5 -14.5t-62.5 -31t-65.5 -30.5t-41.5 -14q-29 0 -39.5 11t-10.5 24z" />
<glyph unicode="+" d="M23 494q0 16 16 32.5t41 18.5q37 4 85 13t89 9q27 0 27 29q0 10 -8.5 20.5t-12.5 18.5q-12 29 -29.5 63.5t-17.5 63.5q0 20 10 38.5t43 18.5q29 0 48.5 -25.5t30.5 -60.5t16.5 -71.5t5.5 -61.5q0 -14 10 -15t22 -1q14 0 39 2t49.5 4t47 4t34.5 2q37 0 59.5 -9t22.5 -26 q0 -16 -14 -18q-8 -2 -13.5 -8.5t-21.5 -6.5q-57 0 -105 -4t-96 -4q-16 0 -21 -12t-5 -29q0 -29 1 -75t1 -66q0 -37 -11.5 -55.5t-27.5 -18.5t-19 15q-4 18 -7 44.5t-4 53t-2 51.5t-1 43q0 20 -10 20.5t-23 0.5q-10 0 -20 -2.5t-21 -6.5q-23 -8 -48 -17t-47.5 -17.5 t-40 -14.5t-25.5 -6q-20 0 -33.5 16.5t-13.5 49.5z" />
<glyph unicode="," horiz-adv-x="389" d="M-37 -210q-2 5 4 15q2 4 5 12.5t10 14.5q23 20 47 35.5t34 44.5q4 6 2 12t3 15q2 8 11 29.5t11 31.5q2 37 3 61.5t20 65.5q10 20 20 31.5t35 11.5q23 0 45.5 -20.5t22.5 -61.5q0 -57 -24 -93t-40 -46q-4 -4 -8 -11.5t-8 -11.5t-7.5 -7t-5.5 -9q-6 -10 -28.5 -29.5 t-48 -41t-47 -38t-25.5 -20.5q-14 -10 -25 0q-4 4 -6 9z" />
<glyph unicode="-" horiz-adv-x="593" d="M98 379q0 20 42 38.5t100.5 32t120 20.5t102.5 7q6 0 12 -1t14 -1q4 0 6.5 -2t6.5 -2q6 0 12 -1t10 -1q8 0 13.5 -4t11.5 -4q10 0 17 -6t7 -13q0 -20 -14 -20q-10 0 -18 -8q-4 -4 -17 -4q-16 0 -55 -5.5t-68 -13.5q-4 -2 -8 0t-8 0l-8 -4l-8 -4q-14 -4 -25.5 -7t-15.5 -7 q-41 -27 -84 -43.5t-70 -16.5q-25 0 -43 25q-2 4 -4 6t-2 6t-9.5 7t-13.5 7t-4 19z" />
<glyph unicode="." horiz-adv-x="307" d="M47 98q0 31 26.5 67t67.5 36q25 0 42.5 -10.5t28.5 -22.5t17.5 -25.5t6.5 -19.5q0 -4 -2.5 -11.5t-12.5 -7.5q-4 0 -11 -1t-7 -7q0 -4 -3 -10t-7 -8q-14 -4 -15 -21q-2 -14 -22 -23t-45 -9t-44.5 21.5t-19.5 51.5z" />
<glyph unicode="/" horiz-adv-x="538" d="M-129 -68q0 14 5 28.5t24 41.5q123 180 209 308t152.5 234.5t120.5 209t114 229.5q6 12 21 33.5t15 34.5q0 16 19.5 26t36.5 10q14 0 28.5 -9t18.5 -13q20 -16 14 -37q-4 -10 -1 -15t3 -20q0 -18 -19.5 -37.5t-31.5 -35.5q-66 -92 -132.5 -189.5t-136 -210t-145 -246 t-161.5 -299.5q-4 -6 -12.5 -13t-8.5 -34q0 -16 -17 -34.5t-46 -18.5q-35 0 -52.5 17.5t-17.5 39.5z" />
<glyph unicode="0" horiz-adv-x="634" d="M14 264q0 23 10.5 48.5t14.5 47.5q16 131 55 247t87 201t98.5 134t91.5 49q31 0 44 -21.5t-16 -62.5q-10 -12 -1.5 -19t24.5 -18q31 -18 63.5 -42.5t58 -58.5t43 -79t17.5 -104q0 -53 -22.5 -115.5t-59.5 -126t-83 -121t-92 -102.5t-89 -71.5t-72 -26.5q-76 0 -124 58 t-48 183zM100 268q0 -74 27 -115.5t68 -41.5q25 0 77 50t105 122.5t93 154.5t40 148q0 59 -20.5 102t-50 70.5t-60.5 41t-51 13.5q-16 0 -25.5 -5t-32.5 -36q-18 -29 -37.5 -47t-37 -39.5t-33 -50.5t-27.5 -74q-4 -8 -7 -33.5t-3 -42.5q0 -10 -4 -36.5t-8 -58.5t-8.5 -65.5 t-4.5 -56.5z" />
<glyph unicode="1" horiz-adv-x="364" d="M57 90q0 10 7.5 60.5t17.5 120t21.5 151.5t21.5 157.5t17.5 136t7.5 87.5q0 16 -14.5 23.5t-26.5 9.5q-23 4 -32 20t-7 29q2 23 19 49.5t39 50t42 39.5t29 16q23 0 33 -10t12 -26q2 -12 13 -22.5t11 -33.5q0 -18 -6 -50t-6 -50q0 -23 -7 -76t-18.5 -121.5t-24.5 -146.5 t-24.5 -150.5t-18.5 -132t-7 -92.5q0 -10 4 -14q2 -2 7 -23.5t5 -25.5q0 -68 -43 -68q-33 0 -52.5 30.5t-19.5 61.5z" />
<glyph unicode="2" horiz-adv-x="675" d="M-6 53q0 23 11 48.5t26.5 50t33 47t29.5 39.5q33 43 49.5 56t28.5 19t28.5 18.5t51.5 57.5q6 8 30.5 43t53.5 77t54.5 79t35.5 49q33 41 49.5 69.5t23.5 49t7 36v29.5q0 16 -10.5 37t-25.5 39t-36.5 30.5t-42.5 12.5q-66 0 -126 -41t-101 -86q-27 -29 -44.5 -33t-37.5 -4 q-29 0 -42 13.5t-13 35.5q0 18 18 30.5t29 21.5q10 8 37.5 7t42.5 7q12 6 23 29.5t36 49t70 45t125 19.5q45 0 84.5 -20.5t67.5 -50t44.5 -62.5t16.5 -59q0 -61 -51.5 -145.5t-127 -178.5t-162.5 -194.5t-159 -194.5q-10 -14 -10 -23q0 -20 28 -20q37 2 108.5 10t143.5 17.5 t128 17.5t65 8q16 0 27.5 -6t11.5 -18q0 -10 -8.5 -18.5t-18.5 -14.5t-18.5 -12.5t-8.5 -8.5t-7 -7t-15 -9t-16.5 -8t-10.5 -4q-53 -10 -121.5 -18.5t-134 -14.5t-121 -9t-82.5 -3q-29 0 -48 9t-19 56z" />
<glyph unicode="3" horiz-adv-x="655" d="M-59 55q0 10 10 21l8 8t12 4q12 0 24.5 -9t25 -20.5t22.5 -22.5t18 -13q16 -4 39 -16.5t50 -12.5q66 0 137 33.5t130.5 89t98.5 124t39 140.5q0 55 -37 102t-108 47q-53 0 -103.5 -12t-83.5 -22q-45 -10 -74.5 -21.5t-39.5 -11.5q-25 0 -42.5 13t-17.5 50q0 16 17.5 34 t54.5 18h27.5t19.5 4q8 4 27.5 9t29.5 15q10 8 16.5 10t16.5 13q2 2 15.5 16t27.5 29.5t26.5 30t16.5 18.5q6 6 27.5 14t27.5 17q4 4 6.5 10t6.5 10q27 39 27.5 63.5t0.5 65.5q0 27 -17 53.5t-48 26.5q-47 0 -101.5 -24.5t-83.5 -57.5q-16 -16 -46.5 -34.5t-57.5 -18.5 q-16 0 -25.5 9t-13.5 20.5t-4 22.5v18q0 25 36 51t88 47.5t111.5 36t104.5 14.5q29 0 56.5 -12.5t50 -31.5t36 -46t13.5 -55q0 -33 -10.5 -60.5t-32.5 -62.5q-6 -10 -23.5 -23.5t-23.5 -23.5l-33 -50q-16 -23 -43 -42t-41 -37q-8 -12 -8 -15q0 -12 18 -8q12 2 44 5t44 3 q51 0 91 -18.5t67.5 -49t41 -69.5t13.5 -80q0 -80 -47 -167t-118.5 -157.5t-158.5 -116.5t-169 -46q-41 0 -74 13t-58.5 32.5t-42 40t-22.5 37.5q-4 10 -8 17t-4 11z" />
<glyph unicode="4" horiz-adv-x="634" d="M10 360q0 55 7.5 131t19.5 156t27.5 155t31.5 124q4 16 17.5 36.5t36.5 20.5q66 0 65 -72q0 -20 -8 -38.5t-19.5 -34t-21.5 -29.5t-12 -25q-25 -74 -40.5 -161.5t-15.5 -192.5q0 -23 16.5 -34t45.5 -7q14 2 36.5 2t45 2t46 7.5t42.5 15.5q12 6 23.5 20.5t23.5 22.5 q23 14 40 38.5t21 45.5q8 33 13.5 73.5t7.5 81.5t3 78t1 62q0 68 45 67q33 0 47 -24.5t14 -55.5q0 -14 -15 -90t-38 -180q-4 -23 0 -28t10 -13q8 -10 6 -35.5t-18 -40.5q-18 -14 -25.5 -37.5t-11.5 -35.5q-20 -104 -35.5 -192.5t-15.5 -125.5q0 -20 8 -47t8 -39 q0 -23 -14.5 -34t-30.5 -11q-12 0 -28 4q-25 4 -31 25q-4 10 -4 41.5v46.5q0 20 7 57t16.5 80t20.5 88t21 82q8 41 -26 25q-6 -4 -26.5 2t-29.5 2q-66 -31 -120 -51.5t-119 -20.5q-33 0 -50.5 19.5t-17.5 43.5z" />
<glyph unicode="5" horiz-adv-x="737" d="M12 -270q0 23 17.5 30t40.5 7q37 0 88 16t105 44t107.5 64.5t96.5 77.5t68.5 85t25.5 85q0 113 -106.5 181.5t-333.5 76.5q-31 0 -40 17.5t-9 31.5q0 68 10 121.5t22.5 93t22.5 64.5t10 35q0 16 -12 16q-16 0 -28.5 9.5t-12.5 41.5q0 37 72 70q51 25 109.5 45.5 t117.5 35.5t116.5 23.5t106.5 8.5q39 0 58.5 -21.5t19.5 -38.5q0 -23 -13.5 -37t-43.5 -16q-14 -2 -28.5 3t-29.5 5q-20 0 -47.5 -3t-57.5 -9t-58.5 -13.5t-51.5 -13.5q-10 -4 -28.5 -12t-39 -20.5t-37 -27.5t-22.5 -34q-4 -14 -14 -48t-20.5 -75t-18.5 -81t-8 -64 q0 -20 4 -24.5t27 -6.5q10 0 19 -9t20 -9q119 -2 201.5 -32t133 -74t73 -97t22.5 -102q0 -53 -31 -110.5t-80 -112t-110.5 -102.5t-124 -84t-120 -57.5t-96.5 -21.5q-47 0 -69.5 13.5t-22.5 54.5z" />
<glyph unicode="6" horiz-adv-x="593" d="M12 227q0 141 92.5 381t272.5 545q23 35 38 57.5t40 22.5q45 0 59 -28.5t14 -51.5q0 -29 -24.5 -63.5t-56 -69.5t-64.5 -67.5t-47 -57.5q-47 -72 -83 -148.5t-58 -140.5q-4 -10 -6.5 -26.5t-2.5 -26.5q0 -23 8.5 -26t18.5 8q25 20 55.5 45.5t66.5 48t75 38t79 15.5 q29 0 50.5 -14.5t37 -36t22.5 -47t7 -49.5q0 -72 -37 -169.5t-94 -186.5t-126 -151.5t-130 -62.5q-63 0 -103 27.5t-63.5 67.5t-32 86.5t-8.5 80.5zM106 233q0 -29 6.5 -59.5t19.5 -57t34.5 -43t52.5 -16.5q51 0 105.5 52.5t98.5 126t71.5 155.5t27.5 144q0 29 -13 47 t-30 18q-23 0 -52.5 -11t-60 -32.5t-60.5 -51.5t-54 -67q-23 -33 -44.5 -41t-37.5 -8q-14 0 -19.5 -1t-13.5 -23q-10 -25 -20.5 -67t-10.5 -65z" />
<glyph unicode="7" horiz-adv-x="671" d="M6 938q0 25 13.5 34t41.5 9q16 0 26.5 -4t33.5 -4q10 0 42 6t72.5 14t88 14.5t90.5 6.5q74 0 110.5 -22.5t36.5 -61.5q0 -12 -4 -49t-31 -78q-4 -6 -9 -11.5t-9 -11.5q-10 -23 -18.5 -40t-16.5 -35.5t-16 -41t-17 -55.5q-6 -23 19 -16q51 14 82.5 22.5t58.5 8.5 q14 0 33.5 -2.5t37 -7.5t29 -11t11.5 -14q0 -16 -9.5 -24.5t-39.5 -8.5q-41 0 -62.5 -1t-39 -4t-39 -8t-62.5 -16q-12 -4 -32.5 -19t-25.5 -32q-20 -78 -45.5 -160t-25.5 -172q0 -16 5 -39.5t11 -45t11 -39t5 -23.5q0 -12 1.5 -22.5t-3.5 -14.5q-4 -8 -15 -9t-19 -1 q-14 0 -29.5 17.5t-28 47t-19.5 66.5t-7 74q0 33 9 71.5t22.5 79.5t26.5 81t22 75q6 23 -19 14q-27 -10 -55.5 -26.5t-44.5 -28.5q-18 -12 -53 -31.5t-54 -19.5q-12 0 -31.5 10t-19.5 29q0 4 1 18t11 23q12 10 34 13t38 11q33 14 79 33.5t105 44.5q12 4 24.5 14t16.5 27 q43 135 63.5 202.5t20.5 94.5q0 18 -13 30.5t-44 12.5q-35 0 -71 -8.5t-70.5 -19.5t-70.5 -19t-73 -8q-55 0 -72.5 18t-17.5 43z" />
<glyph unicode="8" horiz-adv-x="552" d="M0 178q0 51 4 91t13.5 73t22.5 61.5t34 59.5q4 6 9 18.5t9 18.5q16 23 34.5 48t51.5 44q23 14 0 33q-23 18 -37 51t-14 76t21.5 99t56.5 107.5t79 86t91 34.5q33 0 50 -16t17 -33q0 -6 11 -8q35 -10 71.5 -46t36.5 -102q0 -31 -18.5 -63.5t-46 -64t-60.5 -57t-61 -40.5 q-20 -10 2 -28q12 -10 28.5 -32t32 -49.5t26.5 -58t11 -57.5q0 -66 -37 -143.5t-89 -145t-111.5 -113t-102.5 -45.5q-23 0 -46 15.5t-43.5 43t-33 63.5t-12.5 79zM84 168q0 -47 18.5 -74.5t32.5 -27.5q27 0 70 31.5t83 82.5t68.5 112.5t28.5 123.5q0 25 -10 48t-23.5 39.5 t-27 27t-21.5 10.5q-23 0 -41 -6.5t-37.5 -22.5t-41 -46t-48.5 -75q-4 -10 -18.5 -19.5t-18.5 -19.5q-10 -29 -12 -70.5t-2 -113.5zM215 750q0 -12 7 -27.5t17.5 -29t22 -21.5t21.5 -8q14 0 43.5 17t59.5 45t52.5 61.5t22.5 64.5q0 25 -8.5 43t-18.5 29.5t-20.5 17.5 t-14.5 6t-7 -3t-13 -3q-4 0 -10.5 3t-10.5 3q-31 0 -57.5 -20.5t-45.5 -50t-29.5 -64.5t-10.5 -63z" />
<glyph unicode="9" horiz-adv-x="675" d="M31 578q0 31 21.5 77.5t56 100t81 105.5t95.5 95t99 70t93 27q35 0 66.5 -20.5t31.5 -49.5q0 -16 -3 -23.5t-3 -11.5q0 -16 19 -16q23 0 39 -15.5t16 -44.5q0 -59 -8 -141t-21.5 -172t-34 -183t-45 -177t-54 -154t-60.5 -111q-18 -25 -33.5 -48t-50.5 -23q-18 0 -32.5 14 t-14.5 47q0 23 21.5 42.5t51 46t60.5 64.5t49 97q14 45 22.5 84t13.5 84t10 105.5t11 150.5q2 18 -1 28.5t-3 28.5q2 23 7.5 60t5.5 90q0 18 -9 18q-2 0 -3 -1t-11 -15q-6 -10 -22.5 -34.5t-38 -56.5t-48 -70t-53.5 -73q-4 -6 -8 -20t-10 -21q-43 -59 -97.5 -82.5 t-107.5 -23.5q-59 0 -78.5 43t-19.5 109zM129 598q0 -35 8 -55.5t33 -20.5t71 33t96 85t97 117.5t74 131.5q6 12 6 18q0 10 -12 15q-23 6 -36 21t-40 15q-31 0 -82 -45t-98 -105t-82 -120.5t-35 -89.5z" />
<glyph unicode=":" horiz-adv-x="348" d="M55 162q0 25 21.5 44t52.5 19t66.5 -26.5t35.5 -67.5q0 -16 -10 -30.5t-22.5 -27t-25.5 -19.5t-19 -7q-33 0 -49.5 16.5t-16.5 26.5q0 14 -5 16.5l-11 5.5t-11.5 12t-5.5 38zM131 420q0 25 11.5 33t11.5 39q0 14 21 23t46 9t44.5 -28.5t19.5 -59.5q0 -29 -23.5 -51.5 t-64.5 -22.5q-31 0 -48.5 23t-17.5 35z" />
<glyph unicode=";" horiz-adv-x="368" d="M-61 -229q0 4 2 9t12 9q12 4 35.5 26.5t47 56.5t42 75t18.5 82q0 10 1 24.5t6.5 26.5t17.5 21.5t35 9.5q14 0 29.5 -9.5t27.5 -21.5t19.5 -26.5t7.5 -24.5q0 -43 -30 -93.5t-72 -92.5t-88 -69.5t-79 -27.5q-12 0 -22 8t-10 17zM152 449q0 12 8 26t22.5 27.5t29.5 21.5 t32 8q31 0 52 -29.5t21 -70.5q0 -16 -10 -28.5t-22.5 -22.5t-25.5 -15.5t-19 -5.5q-10 0 -25.5 8.5t-29 21.5t-23.5 28.5t-10 30.5z" />
<glyph unicode="&#x3c;" horiz-adv-x="731" d="M4 475q0 23 36 48.5t90 51t118.5 48t122 42t99.5 31t52 15.5q14 4 31.5 14t38.5 10q35 0 63.5 -12t28.5 -47q0 -37 -29.5 -58.5t-70.5 -21.5q-12 0 -25.5 -3t-42.5 -3q-10 0 -53 -14.5t-95.5 -34t-97.5 -37t-57 -23.5q-16 -8 -28.5 -20t-12.5 -23q0 -8 19.5 -25.5 t46.5 -33.5q86 -49 134 -72.5t87 -44.5q8 -4 28.5 -16.5t43 -26.5t42 -25.5t23.5 -13.5q4 -4 10 -12t6 -21q0 -10 -17.5 -15t-31.5 -5q-23 0 -45 12.5t-63 38t-110 64.5t-181 92q-4 4 -20.5 6t-22.5 6q-61 35 -89 63.5t-28 65.5z" />
<glyph unicode="=" d="M45 506q0 16 22.5 34.5t75.5 28.5q115 23 203 31t150 8q37 0 73.5 -9t36.5 -26q0 -18 -26 -18q-82 0 -158 -20.5t-129 -32.5q-35 -6 -56.5 -16.5t-41 -20.5t-43 -17.5t-60.5 -7.5q-20 0 -33.5 16.5t-13.5 49.5zM59 299q0 16 11.5 34.5t33.5 26.5q29 8 86.5 18.5t120 17.5 t120.5 12.5t89 5.5q37 0 55.5 -11.5t18.5 -27.5q0 -12 -23.5 -16.5t-42.5 -4.5q-23 0 -52.5 -5t-57 -11t-50 -11t-30.5 -8q-10 -2 -23.5 -7t-23.5 -9t-20.5 -4t-20.5 -4t-20.5 -10t-18.5 -11q-29 -12 -47 -20t-47 -8q-20 0 -39 10t-19 43z" />
<glyph unicode="&#x3e;" horiz-adv-x="731" d="M43 158q0 25 16 32q20 10 57.5 22.5t53.5 20.5q39 18 112.5 56.5t143.5 77.5q14 8 30.5 25.5t31 34.5t23.5 31.5t9 18.5q0 10 -12 22.5t-29 20.5q-63 33 -112.5 40t-69.5 11q-72 16 -95.5 34t-23.5 54q0 35 29 49.5t63 14.5q20 0 38 -10.5t32 -14.5t68.5 -26.5t114 -54 t106.5 -68.5t47 -72q0 -37 -40 -64.5t-101 -62.5q-59 -33 -118 -62.5t-111 -55t-96 -45t-75 -31.5q-18 -8 -37.5 -11.5t-23.5 -3.5q-31 0 -31 17z" />
<glyph unicode="?" horiz-adv-x="423" d="M53 838q0 35 29 52t63 17q51 0 108.5 -20.5t106 -55t79 -82t30.5 -102.5q0 -20 -10 -40.5t-26.5 -39t-35 -34t-37.5 -21.5q-70 -29 -97 -71t-30 -91q0 -25 6.5 -38t6.5 -40q0 -6 -5 -19t-14.5 -28.5t-23 -27t-31.5 -11.5t-29.5 9.5t-16.5 22.5t-6 28.5t-1 25.5q0 20 9 39 t9 41q2 74 48 133.5t108 94.5q20 10 49 32.5t29 38.5q0 35 -21.5 62.5t-52.5 47t-66.5 30t-64.5 10.5q-39 0 -48 -5t-26 -5q-14 0 -26.5 18t-12.5 29zM72 76q0 31 22.5 44t34.5 13q8 0 13 -3t12.5 -7t18.5 -8t30 -6q14 -2 28.5 -20.5t14.5 -41.5q0 -25 -21.5 -43t-52.5 -18 q-14 0 -31.5 7t-33 19.5t-25.5 28.5t-10 35z" />
<glyph unicode="@" horiz-adv-x="864" d="M-31 -33q0 92 29 193.5t80 198t118.5 183.5t145.5 151.5t162 103.5t168 39q14 0 29.5 -8.5t31.5 -18.5q14 -8 29.5 -31.5t28.5 -40.5q10 -12 25 -23.5t30.5 -25.5t27 -31.5t11.5 -44.5q0 -31 -19.5 -84t-31.5 -122q-6 -41 -12.5 -67t-13.5 -47.5t-17.5 -44t-26.5 -54.5 q-4 -8 -8 -28t-7.5 -41.5t-7.5 -39.5t-8 -25q-16 -27 -38.5 -50t-46 -39.5t-45 -27t-36.5 -10.5q-37 0 -45 47.5t-8 104.5q0 25 3 44t9 44t16.5 60.5t26.5 91.5q6 16 -2 16q-4 0 -14 -5t-14 -11q-14 -31 -41 -85.5t-62 -107.5t-76 -92t-86 -39q-31 0 -50 14.5t-31.5 38 t-16.5 51t-4 54.5q0 29 28.5 91t77 126.5t110 114t126.5 49.5q29 0 39 -25t10 -49q0 -12 7.5 -15.5t23.5 -3.5q49 0 68.5 -13t19.5 -36q0 -33 -11.5 -71.5t-23.5 -78.5t-20.5 -79t-1.5 -72q2 -12 10 -12q6 0 25.5 10t27.5 31q14 37 32.5 81t35 96t29 112.5t12.5 132.5 q0 53 -15.5 90t-38 59.5t-49 31.5t-49.5 9q-43 0 -103.5 -27.5t-125 -78.5t-128 -122t-114.5 -158t-82 -186t-31 -208q0 -66 12.5 -108t30 -65.5t37 -32.5t33.5 -9q45 0 91 18.5t85 41t69 41t42 18.5q10 0 18 -3t8 -16q0 -16 -12 -30.5t-29.5 -25.5t-36 -20.5t-32.5 -13.5 q-18 -8 -41 -24.5t-50.5 -34t-62.5 -29.5t-78 -12q-23 0 -52.5 13t-57 48t-47 96.5t-19.5 157.5zM283 219q0 -29 11.5 -51.5t27.5 -22.5q14 0 35.5 16.5t45 41t46 54.5t38.5 56q14 23 18.5 43.5t18.5 34.5q4 4 4 6q0 8 -6 15q-20 23 -37 22q-41 0 -76.5 -23.5t-64.5 -57.5 t-45 -70.5t-16 -63.5z" />
<glyph unicode="A" horiz-adv-x="716" d="M18 59q0 31 29 130.5t68 234.5q8 29 -25 29q-35 -2 -49 20.5t-14 44.5q0 16 29.5 33.5t80.5 38.5q23 10 30 18t13 27q39 121 75 215t77 184q12 27 24.5 58.5t25.5 57.5t27.5 43t30.5 17q37 0 55.5 -11t27.5 -30.5t11.5 -45t8.5 -56.5q4 -25 11 -68t14 -95t15.5 -110.5 t14.5 -111.5q2 -12 5 -22.5t20 -10.5q33 0 58.5 -8t25.5 -25q0 -12 -4.5 -14t-11.5 -1l-14 2t-13 -5q-4 -4 -9.5 -9t-27.5 -5q-18 0 -15 -23q4 -29 3 -59.5t3 -61.5q10 -78 21.5 -153.5t22.5 -139.5q4 -23 11 -42t11 -37q4 -31 6 -54.5t2 -42.5q0 -53 -35 -53 q-47 0 -57 25.5t-20 76.5q-4 14 0 34t0 44q-4 23 0 54.5t-2 60.5q-8 45 -17.5 75.5t-16.5 55.5t-13.5 45.5t-8.5 42.5q-4 35 -7 53.5t-7 53.5q-4 31 -33 28q-53 -6 -111.5 -16t-87.5 -21q-16 -4 -25 -11t-13 -23q-18 -66 -36 -126.5t-30 -111.5t-20.5 -90t-8.5 -64 q0 -18 6.5 -27t6.5 -20q0 -20 -8.5 -27t-12.5 -28q-2 -20 -26 -20q-6 0 -12.5 -3.5t-14.5 -3.5q-41 0 -52.5 21.5t-11.5 62.5zM285 662q-9 -37 20 -31q33 4 80 7t86 7q31 2 27 39q-6 47 -12.5 98.5t-11.5 96.5t-9 79.5t-6 49.5q-4 16 -9.5 41.5t-15.5 25.5t-17 -18.5 t-14 -30.5q-8 -16 -21 -55t-29.5 -90.5t-34 -108.5t-33.5 -110z" />
<glyph unicode="B" horiz-adv-x="737" d="M12 -12q0 16 13.5 56t29 97.5t28.5 128t13 148.5q0 14 -12 21t-18 12q-14 10 -16.5 17t-2.5 17q0 18 19.5 44t39.5 46q10 10 12.5 17.5t6.5 23.5q8 51 16.5 108.5t14.5 112t10 101.5t4 82q0 8 -2 22.5t-2 22.5q0 29 25.5 60.5t67.5 57t94.5 42t107.5 16.5q27 0 56.5 -11 t54 -33.5t41 -55.5t16.5 -76q0 -45 -19.5 -91t-50.5 -92t-66.5 -89t-68.5 -80q-8 -8 -8 -15q0 -8 18 -8q45 0 96.5 -12t94.5 -36t71.5 -58.5t28.5 -79.5q0 -74 -39 -164q-16 -39 -42 -71.5t-54 -69.5q-47 -66 -109.5 -126.5t-132.5 -105.5q-33 -20 -60.5 -37.5t-55 -30 t-59.5 -19.5t-71 -7t-39 33q0 14 -5 15t-13 3q-33 8 -33 64zM141 6q1 -14 13 -14q39 0 55 8l20 10q59 16 101.5 44t89.5 69q35 31 70.5 73t65.5 91t49.5 101t19.5 99q0 27 -14.5 48.5t-37 37t-51 22.5t-57.5 7q-74 0 -138.5 -27.5t-101.5 -50.5q-23 -12 -32 -29.5t-13 -43.5 q-23 -129 -31 -244t-8 -201zM219 666q-4 -31 8 -31q8 0 21 6q31 14 79 64.5t94 112t80 122.5t34 98q0 47 -21.5 79t-56.5 32q-53 0 -79 -11.5t-48 -27.5q-6 -4 -13.5 -15.5t-7.5 -21.5q0 -23 -7 -42t-17 -42q-16 -35 -36 -112.5t-30 -210.5z" />
<glyph unicode="C" horiz-adv-x="622" d="M-20 174q0 109 34.5 227.5t92 234.5t129 220.5t147.5 184t147.5 126.5t126.5 47q41 0 62.5 -22.5t21.5 -48.5q0 -23 -18 -39.5t-68 -26.5q-78 -16 -178 -101t-198 -241q-33 -51 -67 -99t-62.5 -100.5t-49 -110.5t-26.5 -132q0 -12 3 -29.5t7 -36t7 -36t3 -29.5 q0 -47 21.5 -88t56.5 -41q23 0 72 25.5t102 57t99.5 57.5t62.5 26q10 0 27.5 -12.5t17.5 -32.5q0 -12 -11.5 -22.5t-25.5 -16.5t-28.5 -9.5t-20.5 -5.5q-29 -8 -71 -36.5t-86 -59.5t-85.5 -55.5t-72.5 -24.5q-33 0 -64 18.5t-55.5 51.5t-38.5 79t-14 101z" />
<glyph unicode="D" horiz-adv-x="671" d="M12 -66q0 35 17.5 53.5t21.5 37.5q4 37 11.5 102.5t14.5 145t14 168.5t13.5 177.5t9.5 169t3 144.5q0 16 -7.5 29.5t-7.5 44.5t31 42t62 11q109 0 193.5 -40t143 -99.5t88 -132t29.5 -136.5q0 -72 -12 -119t-37 -86q-16 -29 -34.5 -51t-37.5 -47q-14 -18 -25 -40.5 t-26 -39.5q-20 -29 -43.5 -64.5t-49.5 -72.5t-51.5 -67.5t-49.5 -49.5q-33 -25 -59.5 -48t-50 -40.5t-46 -29t-47.5 -11.5q-35 0 -51.5 14.5t-16.5 34.5zM127 12q0 -22 29 -10q49 23 118.5 94.5t132 164.5t106.5 193.5t44 178.5q0 74 -27.5 134t-70.5 103t-98.5 65.5 t-110.5 22.5q-14 0 -24.5 -6t-12.5 -22q-2 -18 -9 -90t-17.5 -170.5t-20.5 -209t-18.5 -205.5t-14.5 -162.5t-6 -80.5z" />
<glyph unicode="E" horiz-adv-x="712" d="M18 393q0 20 37 43q10 8 17.5 13.5t9.5 19.5q10 106 23.5 202.5t29.5 174.5q4 18 -3 21t-23 -5t-33 -8q-29 0 -40 12.5t-11 30.5q0 43 35.5 68.5t101.5 58.5q23 12 28 33q2 8 6.5 21.5t12.5 26.5t19.5 23.5t29.5 10.5q10 0 28.5 -6.5t20.5 -26.5q2 -18 5 -23.5t18 -1.5 q174 39 360 39q59 0 60 -30q0 -23 -12.5 -31t-43.5 -10q-104 -6 -210.5 -24.5t-198.5 -51.5q-16 -6 -24.5 -14.5t-12.5 -26.5q-16 -66 -33.5 -168t-34.5 -242q-6 -43 31 -30q68 23 157 46t218 54q23 4 35 -4t12 -23q0 -20 -15.5 -26.5t-31.5 -10.5q-78 -20 -169 -61 t-208 -74q-20 -4 -26.5 -17.5t-8.5 -31.5q-2 -14 -10 -38.5t-8 -41.5q0 -10 1 -20.5t1 -20.5t-2 -20t-2 -21q0 -10 3 -14t5 -14q2 -6 2 -22.5v-34t-1 -34t-1 -22.5q0 -16 9 -26.5t34 -10.5q27 0 83 18.5t116.5 41t109.5 41t61 18.5q41 0 41 -33q0 -20 -11 -28.5t-32 -20.5 q-35 -23 -97 -48.5t-126.5 -48t-117 -36.5t-66.5 -14q-68 0 -88.5 39.5t-20.5 115.5q0 41 3 99.5t3 97.5v22.5t-1 28.5t-4 26.5t-9 16.5q-12 10 -21.5 20.5t-9.5 32.5z" />
<glyph unicode="F" horiz-adv-x="774" d="M33 324q0 12 10 28q2 4 4 4t6 4q2 2 2 6.5t4 6.5q14 12 52.5 39.5t91.5 58.5q23 14 26 49q18 150 34 245t20 112q2 8 -7.5 10t-17.5 0q-16 -4 -43 -18.5t-27 -43.5q0 -16 10.5 -30.5t11.5 -16.5q2 -14 -21 -24.5t-39 -8.5q-27 4 -42.5 32t-15.5 46q0 47 54.5 91t138.5 78 t184 54.5t195 20.5q88 0 114.5 -18.5t26.5 -51.5q0 -12 -10.5 -27.5t-34.5 -15.5q-16 0 -23.5 3.5t-18.5 8.5t-28.5 8t-50.5 3q-66 0 -135.5 -15.5t-112.5 -25.5q-23 -6 -30 -12t-7 -15q0 -8 15.5 -10t15.5 -20q0 -25 -10 -54.5t-22.5 -66.5t-23 -84t-10.5 -105 q0 -35 31 -24q25 8 67 17t88 17.5t90 14.5t69 6q43 0 43 -27q0 -14 -9.5 -28.5t-38.5 -14.5q-23 0 -53.5 -5t-64 -12t-64.5 -15.5t-51 -14.5q-33 -10 -58.5 -20t-35.5 -19q-33 -18 -35 -51q-6 -53 -11 -97t-8.5 -84t-4.5 -81t-1 -90q0 -37 9.5 -53.5t9.5 -34.5 q0 -33 -17.5 -40t-29.5 -7q-33 0 -48.5 20.5t-15.5 50.5q0 55 7.5 148.5t19.5 202.5q4 37 -27 20q-29 -18 -51.5 -38.5t-38.5 -20.5q-23 0 -40 6t-17 29z" />
<glyph unicode="G" horiz-adv-x="737" d="M-16 145q0 111 26 193q2 8 -8 13t-10 36q0 12 9 23.5t20.5 21.5t21.5 19.5t12 15.5q66 147 165 280.5t200 249.5q41 47 74.5 63.5t62.5 16.5q35 0 51.5 -21.5t16.5 -43.5q0 -18 -21.5 -39t-52.5 -37q-10 -6 -27.5 -15.5t-36 -20.5t-35 -21.5t-24.5 -18.5 q-43 -43 -76 -76.5t-63.5 -73.5t-62 -93.5t-70.5 -135.5q-16 -31 18 -22q27 8 95.5 18t146.5 19.5t148.5 16.5t105.5 7q20 0 44.5 -22.5t24.5 -42.5q0 -23 -9 -41.5t-19 -36.5q-43 -78 -106.5 -158t-138.5 -145.5t-156 -107.5t-158 -42q-70 0 -119 62.5t-49 158.5zM63 150 q0 -57 35 -93.5t76 -36.5q100 0 161.5 27t104.5 84q10 12 17.5 16.5t11.5 12.5q2 4 3 11t5 19q2 6 7 11.5t10 15.5q4 12 5 18.5t9 16.5q10 14 45 48t59 95q4 10 1 21.5t-19 9.5q-41 -4 -106.5 -9t-134 -12.5t-131 -16.5t-95.5 -21q-12 -4 -23.5 -17.5t-15.5 -27.5 q-4 -12 -9 -35t-8 -47.5t-5.5 -48t-2.5 -41.5z" />
<glyph unicode="H" horiz-adv-x="774" d="M-72 401q0 14 9 29q2 4 4 4t6 4l6 13q12 12 36.5 33.5t76.5 52.5q12 10 21 24t11 31q6 74 17.5 148.5t21.5 136t18.5 102.5t10.5 49q6 37 9 63.5t9 42t18.5 22.5t39.5 7q16 0 36.5 -23.5t20.5 -47.5q0 -18 -10 -33t-15 -33q-6 -18 -16 -58t-20.5 -93.5t-20.5 -114 t-16 -119.5q-2 -18 6 -23.5t26 -1.5q27 6 66 14.5t81 16.5t81 15.5t63 11.5q23 4 30 12t11 25q14 106 26.5 162.5t24.5 93.5q4 16 9.5 31.5t33.5 15.5q33 0 47.5 -19.5t14.5 -50.5q0 -8 -5 -19.5t-13.5 -35t-18.5 -63.5t-22 -105q-4 -16 -1 -25.5t23 -9.5q25 2 60.5 5 t54.5 3q12 0 22 -7t10 -17q0 -27 -26 -27q-23 -2 -65 -6t-66 -8q-31 -6 -33 -43q-12 -106 -20.5 -259t-8.5 -350q0 -25 3 -40t26 -15q10 0 10 -12q0 -23 -32.5 -35t-63.5 -12q-10 0 -18.5 4t-13.5 17.5t-8 39t-3 66.5q0 160 10 314.5t27 279.5q2 27 -27 20 q-43 -10 -91 -23.5t-92 -26.5t-77 -25.5t-43 -20.5q-14 -10 -22.5 -21.5t-10.5 -29.5q-4 -53 -8 -125t-6 -149t-3 -154.5t-1 -145.5q0 -23 -5 -33t-10.5 -17t-10.5 -14t-5 -22q0 -10 -5 -21.5t-17 -11.5q-33 0 -46.5 32t-13.5 63q0 49 2 117.5t6.5 142.5t9.5 144.5t9 123.5 q2 18 -5 22.5t-18 -6.5q-25 -23 -41 -36t-32 -13q-23 0 -40.5 15.5t-17.5 31.5z" />
<glyph unicode="I" horiz-adv-x="364" d="M63 -16q0 205 16.5 385t36 316t37 218t17.5 92q0 2 -1 15.5t-1 30t-1 29.5l-1 13q0 23 8 43.5t53 20.5q33 0 49.5 -31t16.5 -78q0 -37 -21.5 -100.5t-48 -181t-48 -304t-21.5 -470.5q0 -16 -6.5 -44t-6.5 -57q0 -18 -1 -36.5t-17 -18.5t-27.5 16.5t-18.5 41t-10.5 51 t-3.5 49.5z" />
<glyph unicode="J" horiz-adv-x="354" d="M-342 -526q0 4 6 16t33 12q12 0 32.5 -11t55.5 -11q96 0 153.5 100.5t95.5 281.5t68.5 433t73.5 557q27 195 59.5 280t75.5 85t56.5 -20.5t13.5 -43.5q0 -6 -4 -17.5t-10.5 -23.5t-12.5 -23.5t-8 -17.5q-6 -10 -16.5 -40t-19.5 -63.5t-17 -64.5t-10 -45 q-45 -274 -78 -490t-60.5 -381t-55.5 -280t-65.5 -187.5t-90 -105t-128.5 -32.5q-45 0 -73.5 10t-45 25.5t-22.5 30.5t-6 26z" />
<glyph unicode="K" horiz-adv-x="737" d="M25 -47q0 4 3 40t8 90t11 121.5t12 139.5q4 23 -8 39t-12 39q0 16 16.5 32.5t18.5 30.5q6 63 12 134t10 131.5t7 103.5t3 53q0 8 -2 15.5t-2 15.5v74.5t39 21.5q27 0 47.5 -22.5t20.5 -69.5q0 -8 -3 -42t-8 -81t-11.5 -100t-12.5 -98q-2 -16 4 -20.5t17 5.5q10 10 50 48 t87 82t88 83t53 51q14 14 22.5 20.5t16.5 10.5t16.5 10.5t24.5 20.5q14 12 21.5 22.5t14.5 21.5t16 22.5t26 25.5q35 29 60.5 42t35.5 13q25 0 39 -9t14 -36q0 -29 -17.5 -45t-62.5 -47q-68 -47 -145 -108q-10 -8 -29.5 -25.5t-41 -36t-42 -36t-28.5 -25.5 q-20 -16 -41 -26.5t-39 -27.5q-20 -16 -27.5 -26t-10.5 -19.5t-7 -19.5t-19 -25q-16 -16 -29.5 -30.5t-23.5 -26.5q-23 -27 -22 -37q0 -10 4 -19.5t24 -13.5q39 -8 104.5 -35.5t133 -59.5t125 -60.5t76.5 -40.5q25 -16 42 -27.5t17 -32.5q0 -33 -14.5 -42t-42.5 -9 q-29 0 -58 17q-35 18 -85 48.5t-107.5 62.5t-119 60.5t-118.5 47.5q-35 12 -37 -21q-6 -53 -11 -111.5t-9 -113.5t-6 -104.5t-2 -81.5q0 -12 3 -18.5t3 -22.5q0 -27 -8 -43.5t-37 -16.5q-35 0 -41 27.5t-6 89.5z" />
<glyph unicode="L" horiz-adv-x="671" d="M35 -61q0 18 7 33.5t7 33.5q0 178 15.5 346t37 306.5t43 237.5t35.5 142q4 16 15.5 31.5t40.5 15.5q61 0 61 -61q0 -18 -2 -26.5t-4 -12.5t-6 -9t-6 -15q-12 -37 -36 -110t-48.5 -186.5t-43 -271t-18.5 -364.5q0 -27 23 -27q18 0 32.5 -5t34.5 -1q45 8 110.5 21.5 t119.5 35.5q16 6 30.5 17.5t30.5 17.5q20 6 30.5 16.5t43.5 10.5q4 0 14 -3t20.5 -10.5t17.5 -19.5t7 -29q0 -20 -9 -39.5t-32 -25.5q-12 -4 -29.5 -9.5t-29.5 -9.5q-8 -2 -22.5 1t-30.5 -5q-25 -12 -49.5 -16t-52 -5t-60.5 -3t-76 -11q-51 -10 -89 -29.5t-63 -19.5 q-33 0 -51 16.5t-18 41.5z" />
<glyph unicode="M" horiz-adv-x="917" d="M57 -29q0 10 3 76t8.5 158t10.5 197.5t10 198.5t8 159.5t3 81.5q0 16 -1 28.5t-1 40.5q0 27 8.5 46.5t34.5 19.5q6 0 11.5 8t10.5 17.5t13 17.5t21 8q35 0 50 -27.5t25 -87.5q12 -78 27.5 -157.5t33 -153.5t33 -138.5t27.5 -111.5q4 -16 10.5 -33.5t16.5 -17.5t14 8t8 21 q4 10 13.5 28.5t20.5 38t20.5 38t13.5 28.5q4 8 14.5 25.5t14.5 25.5q12 29 15 48.5t5 36.5t7 36.5t22 50.5q6 12 17 34.5t24.5 48.5t26 48.5t18.5 32.5q29 41 51.5 61.5t50.5 20.5q33 0 54.5 -30t21.5 -71q0 -12 -3 -40.5t-7 -83t-7.5 -139.5t-3.5 -210q0 -25 7 -69v-31 q0 -4 -2 -20.5t-4.5 -36t-4.5 -35.5t-2 -19q0 -4 2 -22.5t5.5 -38.5t6.5 -37.5t3 -19.5q0 -12 5 -22.5t5 -22.5q0 -23 -11.5 -45.5t-41.5 -22.5q-18 0 -30.5 9t-21 39t-12.5 83t-4 141q0 51 3 132t7 167t8.5 165t8.5 126q2 20 -5.5 24.5t-15.5 -11.5t-19 -40t-23.5 -48.5 t-21.5 -46t-16 -33.5q-6 -12 -16 -25.5t-16 -28.5q-4 -12 -13.5 -34.5t-13.5 -38.5q-6 -20 -9 -35t-14 -43q-10 -29 -21 -62.5t-28 -74.5q-51 -143 -118 -144q-25 0 -40.5 16.5t-27.5 44t-21.5 66.5t-21.5 82q-6 20 -17.5 67.5t-25.5 107t-27.5 124t-25.5 121.5 q-4 16 -10.5 15t-8.5 -17q-4 -53 -7 -122t-7 -143.5t-7 -148.5t-6.5 -134t-4 -103t-0.5 -56q0 -16 4.5 -33.5t11 -35t11.5 -29.5t5 -18q0 -16 -6 -25l-6 -9t-6 -7t-4 -9.5t-8 -9.5q-12 -10 -39 -10q-33 0 -44.5 35t-11.5 65z" />
<glyph unicode="N" horiz-adv-x="733" d="M35 2q0 33 7 104.5t17.5 162.5t23.5 190.5t26.5 189.5t24.5 161t18 103q10 53 65 54q18 0 29.5 -14.5t17.5 -34t11.5 -39t11.5 -29.5q16 -23 25.5 -41t23.5 -53q14 -41 32.5 -91.5t35 -104.5t29.5 -109.5t22 -104.5q4 -18 5 -35.5t5 -36.5q2 -20 14 -20q10 0 15 18 q18 121 43.5 240t54.5 221.5t61.5 180t65.5 118.5q4 4 7 4t7 4q14 14 27.5 28.5t38.5 14.5q16 0 31.5 -17t15.5 -36q0 -18 -8.5 -36.5t-20.5 -32.5q-55 -61 -101 -137t-79 -190t-51.5 -273.5t-18.5 -387.5q0 -4 2 -11t2 -15q0 -18 -18 -43t-39 -25q-33 0 -43 12.5t-14 42.5 q-4 27 -7.5 45.5t-8.5 35t-9 36t-8 45.5q-6 35 -8 51.5t-8 49.5q-23 129 -54.5 243.5t-70.5 225.5q-6 16 -16.5 43.5t-16.5 42.5q-8 18 -17 18q-10 0 -14 -20q-12 -49 -26.5 -121t-26.5 -173.5t-20.5 -236.5t-8.5 -311v-41t-5 -42.5t-14.5 -33.5t-27.5 -14q-45 0 -50 52 t-5 173z" />
<glyph unicode="O" horiz-adv-x="716" d="M6 238q0 137 51.5 273t128.5 277q4 8 4 15q0 6 -11 25.5t-11 27.5q0 20 9 34.5t32 33.5q6 6 25.5 12t39 13t37 14.5t21.5 11.5q39 53 84 95t73 42q43 0 58.5 -21.5t15.5 -46.5q0 -8 -18.5 -21t-40 -27.5t-38.5 -27t-17 -20.5q0 -16 14 -22q33 -14 75 -51t78.5 -88.5 t61 -114t24.5 -125.5q0 -47 -25.5 -112.5t-68.5 -134.5t-97 -135.5t-113.5 -118.5t-117 -85t-106.5 -33t-83 27t-52 74q-8 23 -8 30q-4 12 1 20.5t1 22.5q-2 6 -4 13.5t-4 13.5q0 8 -3.5 22.5t-6.5 31t-6 30.5t-3 25zM92 242q0 -33 2 -72t12.5 -73t31 -57.5t57.5 -23.5 q27 0 67.5 26t85.5 67t89 95t80 111.5t58.5 112.5t22.5 102q0 59 -23.5 119t-57.5 107t-71.5 76.5t-68.5 29.5q-8 0 -19.5 -5t-25.5 -26q-35 -49 -77 -116.5t-78 -145t-60.5 -161.5t-24.5 -166z" />
<glyph unicode="P" horiz-adv-x="573" d="M30 44q5 42 12 95.5t16.5 113.5t15.5 124q2 10 -1 19.5t-7 15.5q-8 14 -9 32q0 16 17 29q14 10 14 31q16 111 20.5 196.5t4.5 112.5q0 51 -4.5 79t-4.5 50q0 35 12.5 55.5t51.5 20.5q20 0 32.5 -19.5t20.5 -19.5q14 0 27 12q96 86 198 86q78 0 125 -53t47 -125 t-48 -154.5t-128 -160.5q-10 -10 -35.5 -27.5t-55 -36t-56.5 -36t-37 -23.5q-16 -12 -24.5 -23.5t-14.5 -21.5t-15 -17.5t-28 -13.5q-22 -6 -26 -31q-16 -131 -17.5 -230t-1.5 -140q0 -12 9.5 -40t9.5 -44t-13.5 -33t-40.5 -17q-71 0 -71 124q0 28 5 70zM170 522 q-5 -28 20 -18q6 2 18.5 8t27 14.5t26.5 15.5t19 11q47 29 90 64.5t74.5 78.5t51 92.5t19.5 102.5q0 31 -22.5 59.5t-47.5 28.5q-51 0 -113.5 -28.5t-96.5 -110.5q-10 -23 -18.5 -49.5t-16.5 -63.5t-15.5 -87t-15.5 -118z" />
<glyph unicode="Q" d="M23 248q0 84 23.5 181t62 194.5t88 188.5t101.5 159.5t101.5 110.5t89.5 42q43 0 56.5 -14t13.5 -37q0 -16 -12 -38.5t-25 -35.5q-23 -23 4 -28q20 -4 49 -49t54.5 -105.5t43 -125t17.5 -109.5q0 -23 -2 -45.5t-12 -49.5q-12 -33 -30.5 -43t-35.5 -34q-12 -16 -16 -28.5 t-7 -25t-7.5 -26t-16.5 -31.5q-18 -31 -19 -53.5t-24 -52.5q-8 -10 -16 -19.5t-17 -19.5q-4 -6 -9 -14.5t-5 -14.5q0 -10 8 -21q25 -29 48.5 -62.5t42 -64t29.5 -58.5t11 -44q0 -51 -15 -64.5t-38 -13.5q-29 0 -47 23.5t-18 34.5q0 41 -35 89t-62 91q-6 10 -14 10t-16 -6 q-37 -31 -81 -50.5t-79 -19.5q-31 0 -63.5 20.5t-59.5 57.5t-44 88t-17 113zM109 252q0 -37 11 -71t28.5 -59.5t37 -40.5t35.5 -15q18 0 47 12t45 28q12 16 13 21q0 10 -13 23q-41 47 -63 65q-8 8 -23.5 14.5t-30 13.5t-25.5 19t-11 35q0 10 8 15t19.5 6t23.5 0t20 -1 q16 0 29.5 -6t36.5 -22q6 -4 17.5 -14.5t24.5 -22.5t26.5 -25.5l21.5 -21.5t14 -8q8 0 19 12q18 23 41.5 45t40.5 45q18 25 27.5 44t15.5 38.5t11 40t13 49.5q8 25 16.5 49.5t8.5 46.5q0 45 -12.5 92.5t-29.5 88t-36.5 72.5t-36.5 50q-12 14 -22.5 29.5t-5.5 32.5 q2 8 -2.5 15t-14.5 -1q-53 -37 -110.5 -115.5t-104.5 -177t-78.5 -204t-31.5 -197.5z" />
<glyph unicode="R" horiz-adv-x="593" d="M45 -78q0 68 12.5 164t26.5 201.5t26.5 213t12.5 199.5q0 49 -4 97.5t-10.5 88.5t-10.5 70.5t-4 47.5q0 25 14.5 39t34.5 14q8 0 17.5 -7.5t15.5 -16.5t11.5 -17t7.5 -10q16 -12 30 2q37 43 95.5 71.5t111.5 28.5q33 0 62.5 -15.5t50 -42t33 -60.5t12.5 -72 q0 -55 -36 -115t-84 -112t-99.5 -93t-81.5 -63q-18 -12 -2 -31q39 -53 85 -123t96 -137.5t101.5 -125t100.5 -89.5q39 -27 55 -43.5t16 -42.5q0 -25 -16 -36t-35 -11q-33 0 -56.5 19t-47.5 40q-35 29 -67 76t-75 92q-27 27 -35 52.5t-26 51.5q-8 10 -19.5 21.5t-17.5 19.5 q-6 4 -13 6t-11 9q-6 8 -22.5 28.5t-33 44t-31 44t-20.5 26.5q-10 12 -16 10t-9 -16q-6 -45 -13 -110.5t-11 -134.5t-7 -132t-3 -102q0 -2 2 -13.5t4 -25t4 -25.5t2 -18q0 -23 -23.5 -31t-46.5 -8q-27 0 -40 33.5t-13 68.5zM215 608q-2 -16 4.5 -18t16.5 4q45 35 90 69.5 t79.5 72.5t56 79t21.5 88q0 31 -21.5 64.5t-49.5 33.5q-29 0 -62 -9t-60.5 -27.5t-45 -47t-17.5 -65.5q0 -78 -3 -131t-9 -113z" />
<glyph unicode="S" horiz-adv-x="634" d="M-98 -92q0 12 10 18t18 6q12 0 25.5 -6t32 -14t42 -14.5t54.5 -6.5q84 0 158.5 20.5t132 57.5t90.5 87t33 112q0 53 -31 80.5t-68 46.5q-109 55 -186.5 99t-127.5 90t-73.5 102.5t-23.5 138.5q0 20 7 32.5t16 21.5t18.5 17.5t13.5 18.5q12 35 37.5 78t63.5 86t89.5 80 t116.5 61q53 18 90 28.5t90 10.5q25 0 49.5 -4t44 -13t33 -23.5t13.5 -35.5q0 -23 -23.5 -44t-58.5 -19q-12 0 -39 4t-49 4q-66 0 -137.5 -22.5t-131 -63.5t-98.5 -97.5t-39 -123.5q0 -55 18.5 -96t61.5 -78t112.5 -76t172.5 -90q57 -29 104 -79t47 -126q0 -86 -47 -153.5 t-120.5 -114.5t-165 -72.5t-179.5 -25.5q-39 0 -62.5 5t-37.5 13t-21.5 16.5t-13.5 14.5q-16 16 -38.5 23t-22.5 26z" />
<glyph unicode="T" d="M-23 967q0 27 54.5 66.5t149.5 76.5t225.5 63.5t281.5 26.5q63 0 108.5 -7t75.5 -7q10 0 17.5 -6t7.5 -13q0 -10 -10 -21t-19 -11q-2 0 -19.5 -1t-39 -3.5t-39.5 -4.5t-20 -4q-4 -4 -17 -4h-72.5t-52 -1t-44 -4t-50.5 -9q-23 -6 -22 -35q0 -31 -17.5 -48t-32.5 -46 q-27 -80 -47 -161t-41 -185q-12 -66 -19 -130.5t-11.5 -135t-5.5 -151.5t-1 -179q0 -6 2.5 -20.5t5.5 -31t5 -30.5t2 -23q0 -53 -53 -53q-20 0 -34 16.5t-23 41t-13 54t-4 56.5q0 90 9 188.5t23.5 197.5t32 197.5t33.5 186.5q12 72 24.5 128t12.5 71q0 6 -4 20.5t-21 14.5 q-39 0 -77.5 -19.5t-75.5 -44.5t-68 -44t-53 -19q-16 0 -30.5 1t-16.5 11q-2 4 -5 8t-7 8t-5 19z" />
<glyph unicode="U" horiz-adv-x="737" d="M20 197q0 106 13.5 230t30 231.5t29.5 181t13 80.5v79q0 14 4.5 19.5t10.5 7.5t13 3t13 7q8 4 13.5 19.5t17.5 15.5q61 0 62 -125q0 -37 -18.5 -87t-40 -135t-39 -216t-17.5 -330q0 -23 2 -52.5t12.5 -57t30.5 -46t57 -18.5q41 0 112 43t138.5 131t117.5 223.5t50 317.5 q0 72 -3 115t-8 68.5t-13.5 42t-16.5 32.5q-16 35 -26.5 57.5t-10.5 44.5q0 10 18.5 29.5t30.5 19.5q29 0 47.5 -7t28.5 -18t16.5 -25.5t10.5 -28.5q10 -37 18 -125t8 -217q0 -113 -28.5 -216.5t-74.5 -192.5t-105.5 -163t-121 -126t-119.5 -80.5t-103 -28.5q-25 0 -48.5 12 t-40 30.5t-26.5 40t-10 42.5q-4 12 -2 20t-3 23q-2 6 -4 13t-4 13q0 8 -6 21.5t-12 29t-11.5 28.5t-5.5 24z" />
<glyph unicode="V" horiz-adv-x="712" d="M14 952q0 33 15.5 58.5t38.5 25.5q20 0 33.5 -15t23.5 -40t16 -55.5t11 -59.5q14 -96 30.5 -221t29.5 -245.5t25.5 -218t18.5 -136.5q4 -16 13.5 -34.5t19.5 -18.5t14 8t8 20q20 55 59.5 166t90.5 246t109.5 280.5t117.5 274.5q8 16 13.5 36.5t13.5 37.5q23 45 36 61.5 t42 16.5q16 0 27 -12.5t11 -41.5q0 -18 -9 -29.5t-20 -23.5t-22.5 -28.5t-15.5 -47.5q0 -6 -6 -17t-12.5 -22.5t-12.5 -21.5t-8 -16q-41 -90 -83 -193.5t-83 -215.5t-81 -225.5t-79 -224.5q-10 -29 -24.5 -59.5t-29.5 -55t-32.5 -40t-33.5 -15.5q-25 0 -44.5 18.5t-33 48.5 t-23.5 66.5t-16 73.5q-8 43 -22.5 145.5t-31 223.5t-34 237.5t-31.5 188.5q-4 20 -16.5 38.5t-12.5 61.5z" />
<glyph unicode="W" horiz-adv-x="1040" d="M41 991q0 33 10 49q2 4 3 4t3 3q8 4 9 8q0 2 4 6q14 10 43 10q14 0 22 -14.5t11.5 -32.5t3.5 -36.5v-29.5q0 -475 8 -726.5t18 -288.5q4 -18 8 -19q12 0 27 35q2 8 10 34.5t16.5 58.5t16.5 61.5t12 42.5q14 45 31.5 102t36 117.5t39 121t41.5 113.5q12 29 21 69t21.5 76 t30 61.5t45.5 25.5q66 0 82 -176q6 -78 19.5 -174.5t28 -186.5t26.5 -161.5t17 -96.5q2 -23 14 -22q10 0 22 16q12 18 40 63.5t42 85.5q6 18 15.5 47t15.5 54q14 74 25.5 126t19.5 99t11 102.5t3 135.5q0 55 -7 98t-15 73.5t-15.5 51t-7.5 31.5q2 16 4 28.5t5 22.5 q4 27 9 39t15 20q12 6 14.5 20.5t18.5 14.5q51 0 63.5 -78t12.5 -252q0 -190 -29 -355t-74 -286t-100 -189.5t-111 -68.5q-37 0 -59.5 41t-32.5 113q-16 145 -32.5 265t-26.5 192q-6 47 -15.5 65t-19.5 18q-18 0 -30.5 -28.5t-24.5 -63.5q-16 -55 -36 -118.5t-40.5 -130 t-38.5 -131t-35 -121.5q-6 -25 -19.5 -63t-31.5 -72.5t-42.5 -59.5t-51.5 -25q-31 0 -52.5 60.5t-37 200t-22.5 366.5t-7 559z" />
<glyph unicode="X" horiz-adv-x="788" d="M-63 10q0 8 8 25.5t19 36t24.5 38t23.5 31.5q59 76 117.5 163t120.5 185q16 29 0 52q-33 49 -56.5 85t-41 60.5t-32 41.5t-26.5 34q-4 4 -14 10t-14 10q-12 8 -24.5 23.5t-24 31t-17.5 29t-6 21.5q0 25 12 48t47 23q23 0 42.5 -20t31.5 -33q35 -35 78 -115.5t110 -183.5 q16 -23 31 -2q33 53 74 124t76 126q25 37 51 80t54 78t51.5 58.5t41.5 23.5q37 0 50.5 -15.5t13.5 -40.5q0 -16 -20.5 -35.5t-55.5 -62.5q-27 -35 -64.5 -86t-77.5 -107.5t-80 -112.5t-71 -102q-14 -20 2 -45q23 -35 44.5 -54t43.5 -52q2 -4 10.5 -20.5t16.5 -35t16 -36 t10 -19.5q18 -29 27.5 -37t26.5 -26q16 -23 34.5 -38t34.5 -38q61 -82 103 -127q31 -35 46 -63.5t15 -44.5q0 -25 -18.5 -34t-36.5 -9q-33 0 -48.5 20.5t-37.5 44.5q-2 2 -11.5 28.5t-33.5 61.5q-18 25 -30.5 46.5l-25 43t-26.5 43t-33 47.5q-6 6 -23.5 25.5t-37 40t-37 40 t-23.5 25.5q-23 29 -34 48.5t-31 48.5q-16 20 -33 -2q-35 -53 -89 -138.5t-116 -183.5q-12 -20 -24.5 -48t-25.5 -52.5t-27.5 -41t-32.5 -16.5q-23 0 -35 23t-12 53z" />
<glyph unicode="Y" d="M4 834q0 29 8 53t31 24q20 0 34.5 -10t26 -23.5t18.5 -28.5t17 -24q4 -6 23.5 -30.5t49.5 -61.5t68.5 -82t81.5 -90q10 -10 23 -10q16 0 25 10q18 20 44.5 56t52 75t48.5 74t33 51q12 18 25.5 41t26.5 43.5t25.5 34.5t22.5 14q25 0 44.5 -16t19.5 -43q0 -25 -9.5 -46.5 t-22.5 -39t-28.5 -31.5t-25.5 -26q-14 -16 -37 -44t-47.5 -60t-49 -63.5t-43.5 -54.5q-10 -10 -19 -41.5t-11 -42.5q-2 -12 -9.5 -17t-18.5 -9t-23.5 -8.5t-22.5 -16.5q-51 -55 -100 -134t-88 -155q-23 -47 -31 -88t-8 -55q0 -43 -19.5 -63.5t-44.5 -20.5q-39 0 -54 19.5 t-15 52.5q0 27 30.5 86t75.5 132t97.5 149.5t95.5 138.5q8 14 8 24q0 4 -5 11.5t-10 11.5q-31 20 -60.5 51t-59 64.5t-57 66.5t-52.5 57q-8 2 -22.5 12.5t-27.5 22.5t-23.5 27.5t-10.5 32.5z" />
<glyph unicode="Z" horiz-adv-x="675" d="M-84 18q0 20 16.5 37t32.5 37q20 23 39 51.5t41 55.5q16 16 47 36.5t47 36.5q10 12 36 42t53.5 64t52 63.5t34.5 41.5q8 10 26.5 22.5t27.5 20.5q33 41 48 64.5t25.5 43t21.5 44t40 67.5q18 31 43.5 63t40.5 60q4 12 4 19q0 12 -21 12q-147 0 -242.5 -22.5t-148.5 -49.5 q-6 -4 -19.5 -12t-28.5 -18.5t-30.5 -17.5t-27.5 -7q-31 0 -54.5 11.5t-23.5 23.5q0 41 29.5 61.5t50.5 28.5q33 12 78 28.5t104 32t136 25.5t171 10q86 0 116 -14t30 -47q0 -14 -9.5 -39t-23.5 -55.5t-34.5 -64.5t-41.5 -66q-14 -23 -29.5 -36.5t-33 -25.5t-36 -26.5 t-38.5 -38.5q-43 -53 -86 -120t-94 -124q-33 -35 -75 -87t-75 -85q-6 -4 -15 -16.5t-20.5 -24.5t-20.5 -24.5t-16 -16.5q-12 -12 -12 -21q0 -12 35 -6q43 6 107.5 14.5t134 16.5t138.5 13t124 5q33 0 56.5 -8t60.5 -8q18 0 18 -16q0 -23 -34 -38.5t-142 -23.5 q-182 -14 -287.5 -24.5t-164 -16.5t-84 -8t-48.5 -2q-49 0 -49 59z" />
<glyph unicode="[" horiz-adv-x="409" d="M37 -217q0 8 5 59.5t14.5 131t20.5 179t22.5 204t23.5 206t22.5 184t17.5 140t11 74.5q4 18 -3 21t-24 -5q-6 -4 -20 -9t-25 -5q-29 0 -41 14t-12 33q0 43 42 71.5t108 61.5q20 12 24 37q6 35 22.5 58.5t51.5 23.5q10 0 25.5 -13.5t13.5 -29.5q-4 -25 2 -26t20 1 q8 0 29 4t44.5 8t47 7.5t35.5 3.5q16 0 29.5 -7.5t13.5 -23.5q0 -23 -12.5 -32t-42.5 -9q-31 0 -49.5 -6t-34 -14.5t-36 -19.5t-54.5 -20q-29 -8 -37 -41q-8 -29 -21.5 -98t-30 -166.5t-33 -216.5t-29.5 -244.5t-22.5 -253.5t-9.5 -245q0 -16 9.5 -26.5t33.5 -10.5q6 0 29 7 t51.5 15.5t54 15.5t37.5 7q41 0 41 -33q0 -20 -11 -28.5t-32 -20.5q-10 -6 -42.5 -19.5t-70.5 -27.5t-72 -24.5t-44 -10.5q-35 0 -54.5 4t-27.5 17.5t-9 37t-1 60.5z" />
<glyph unicode="\" horiz-adv-x="538" d="M-160 1198q0 23 17.5 40t52.5 17q14 0 26.5 -10t21.5 -23.5t16.5 -27.5t11.5 -20q35 -66 74.5 -150t73.5 -160t57.5 -129t25.5 -55q57 -111 96 -185.5t67 -129t50.5 -93.5t47 -75.5t54 -79.5t74.5 -105q12 -16 17.5 -35.5t5.5 -37.5t6 -29.5t6 -42.5q0 -6 -10.5 -22.5 t-24.5 -16.5q-16 0 -41.5 18.5t-25.5 34.5q0 12 -15.5 34t-21.5 34q-59 127 -134 285.5t-155 315.5t-160 295t-153 226q-10 12 -20.5 30.5t-20 38t-14.5 36t-5 22.5z" />
<glyph unicode="]" horiz-adv-x="409" d="M-180 -332q0 23 12 45.5t43 20.5q23 -2 50.5 3t52 13t45 15.5t30.5 11.5q16 6 24.5 14t12.5 27q4 16 13.5 73.5t20.5 140.5t24.5 184t26.5 206.5t26.5 207t23.5 183.5q2 12 2 31.5t1 41t1 41t2 31.5q6 51 9.5 78t4.5 39t0 14.5t-2 3.5t-2 6t-1 23q0 23 -6.5 29t-30.5 6 q-6 0 -24.5 -3t-42 -7t-45 -7t-34.5 -3q-18 0 -32.5 9t-14.5 25q0 20 13.5 34t35.5 14q10 0 44 10t74 21.5t75 21.5t45 10q35 0 46 -18.5t11 -55.5q0 -12 -3 -47t-7 -80t-9 -95t-9 -91q-2 -16 -12.5 -51t-14.5 -53q-16 -94 -29.5 -201t-22.5 -212.5t-15.5 -205.5t-10.5 -181 t-7 -139.5t-5 -80.5q-6 -68 -20.5 -95.5t-71.5 -27.5q-29 0 -66 -3t-72.5 -8.5t-65.5 -8.5t-44 -3q-29 0 -39 13.5t-10 29.5z" />
<glyph unicode="^" horiz-adv-x="731" d="M59 219q0 10 7.5 30.5t15.5 44t16 43t11 25.5q2 10 17 46t36.5 84.5t49.5 101.5t56.5 97t56 74t50.5 30q18 0 40.5 -14.5t42 -33t33 -38t13.5 -31.5q0 -4 3 -27.5t7 -51.5t8 -51.5t6 -25.5q23 -59 37.5 -106t26.5 -89t25.5 -84t35.5 -89q8 -16 9 -23q0 -4 -2.5 -9 t-2.5 -9q0 -31 -16 -31q-12 0 -20.5 6t-12.5 10q-4 10 -14 12.5t-19 18.5q-10 18 -24 69.5t-31.5 114t-39 126t-46.5 106.5q-12 20 -26.5 38.5t-27.5 24.5t-28.5 -1t-29.5 -38q-6 -12 -18.5 -41.5t-26 -61.5t-22.5 -60.5t-9 -36.5q0 -14 -5 -36t-10.5 -43.5t-10.5 -39 t-5 -23.5q0 -41 -26.5 -63.5t-63.5 -22.5q-35 0 -50.5 21.5t-15.5 56.5z" />
<glyph unicode="_" horiz-adv-x="614" d="M-76 -338q0 16 29 33.5t49 17.5q31 0 48.5 -1t26.5 -3t17 -3t21 -1q12 0 57 -1t96 -2t93 -2t51 -1q8 0 32.5 2t55 5t61.5 5t53 2q20 0 49 -11t29 -44q0 -8 -9 -18.5t-21.5 -19.5t-26.5 -16t-25 -7q-10 0 -30.5 1t-42 3t-42 3t-30.5 1q-20 0 -92 -2t-148 -2 q-37 0 -65.5 -1t-54 -1t-51 -1t-56.5 -1q-20 0 -47 16t-27 49z" />
<glyph unicode="`" horiz-adv-x="491" d="M68 1104q0 23 18 49.5t49 26.5q29 0 48.5 -17.5t31.5 -36.5q16 -25 41 -55.5t48.5 -59t39.5 -50t16 -29.5q0 -21 -20 -21t-45 11.5t-49.5 27t-48 30.5t-41.5 26q-49 27 -68.5 45t-19.5 53z" />
<glyph unicode="a" horiz-adv-x="778" d="M-31 -74q0 61 44 155.5t107.5 197t135.5 198.5t129 162q43 49 101.5 76.5t103.5 27.5q18 0 37.5 -15t23.5 -48q2 -23 25 -31q12 -4 33.5 -19.5t21.5 -39.5q0 -29 -16.5 -44.5t-20.5 -35.5q-2 -18 -6 -57t-8 -85t-7 -90.5t-3 -74.5q0 -80 5 -128t12 -74t14.5 -35t11.5 -11 q14 -10 30.5 -24.5t16.5 -28.5q0 -29 -20.5 -51.5t-43.5 -22.5q-31 0 -53 8t-36.5 38t-21.5 89.5t-7 163.5q0 27 3 61.5t8 69.5t8 67.5t3 55.5q0 10 1 15t1 20q0 14 -10 14q-6 0 -11.5 -8t-9.5 -12q-129 -141 -213 -247t-141 -176.5t-99 -106.5t-85 -36q-33 0 -48.5 22.5 t-15.5 59.5zM125 35q0 -17 6 -17q8 0 19 9q23 20 44 46.5t64 78t115.5 134.5t197.5 216q4 6 5.5 15t1.5 18q0 18 -6.5 27t-14.5 22q-6 10 -7 17t-18 7q-18 0 -40.5 -9t-40.5 -30q-61 -68 -120 -152.5t-105 -162.5t-73.5 -138.5t-27.5 -80.5z" />
<glyph unicode="b" horiz-adv-x="614" d="M-25 111q0 20 6.5 38.5t14.5 36t16 38t13 48.5q35 223 81 400.5t76 302.5q4 18 15.5 39.5t26 38t29.5 28t28 11.5q45 0 60 -26t15 -48q0 -10 -9 -30.5t-19 -24.5q-8 -4 -18.5 -13.5t-10.5 -15.5t-7 -21.5t-11 -21.5q-6 -10 -12.5 -21.5t-10.5 -23.5q-6 -16 -24.5 -65.5 t-39 -110t-39 -121t-22.5 -96.5q-4 -23 5 -28t20 11q2 6 14 21.5t26.5 32t26 31t13.5 16.5q18 23 42.5 50l49 54t45 49.5t33.5 34.5q27 27 55.5 45t60.5 18q29 0 49.5 -15t35 -38.5t20.5 -51.5t6 -52q0 -55 -21.5 -125t-58.5 -143.5t-86 -143t-104.5 -125t-115 -89.5 t-116.5 -34q-27 0 -37 8.5t-30 43.5q-6 10 -14.5 17t-14.5 7q-29 -4 -45.5 20.5t-16.5 43.5zM115 150q0 -29 12 -50.5t53 -21.5q35 0 76 27.5t81 72.5t77 101.5t65.5 116t45 114.5t16.5 96q0 29 -9.5 52.5t-25.5 23.5q-23 0 -59.5 -26.5t-78.5 -68.5t-85 -93.5t-78 -98.5 t-56.5 -84t-21.5 -53q0 -43 -6 -71.5t-6 -36.5z" />
<glyph unicode="c" horiz-adv-x="491" d="M-16 131q0 51 19.5 118.5t52 136.5t79.5 135.5t100.5 118.5t114 84t121.5 32q20 0 39.5 -9.5t34 -23.5t22.5 -30.5t8 -28.5q0 -23 -11 -36.5t-34 -13.5q-16 0 -27 9.5t-36 9.5q-49 0 -115.5 -41t-126 -110.5t-101.5 -161t-42 -191.5q0 -14 9 -37.5t24 -23.5q41 0 68.5 13 t43.5 30q2 2 11.5 11t18.5 20.5t17.5 19.5t12.5 12q10 12 28.5 9t18.5 -25q0 -12 -10 -19q-10 -10 -34 -35.5t-30 -42.5q-4 -8 -12 -23t-12 -22q-10 -23 -52.5 -37t-93.5 -14q-43 0 -74.5 42t-31.5 124z" />
<glyph unicode="d" horiz-adv-x="778" d="M-14 74q0 43 28.5 109.5t74.5 142t104.5 152.5t117 138.5t110.5 100.5t89 39q31 0 46 -15.5t24 -33.5q4 -16 13 -14.5t13 9.5q23 35 35 80t18 74q4 16 18.5 39t14.5 29q0 23 20.5 36t37.5 13q20 0 40.5 -17.5t20.5 -46.5q0 -25 -27.5 -70.5t-50.5 -95.5q-23 -45 -37 -88 t-34 -102q-6 -23 -13.5 -66t-13.5 -91t-9 -93t-3 -72q0 -14 7 -19t13 -5q10 0 22.5 4t20.5 4q16 0 20.5 -4t4.5 -16q0 -53 -35 -84t-76 -31q-29 0 -47 29.5t-18 115.5q0 10 7 25.5t7 32.5q0 72 4 111.5t4 56.5q0 12 2 19t6 17q8 23 2 27q-10 4 -24 -20q-6 -8 -17.5 -20.5 t-24 -25t-22.5 -23.5t-12 -17q-4 -6 -5 -13.5t-5 -13.5q-18 -35 -52 -73t-92 -109q-16 -18 -20 -31.5t-17 -30.5q-59 -74 -115.5 -118t-97.5 -44q-18 0 -28 12.5t-21 20.5q-23 16 -25.5 34.5t-2.5 31.5zM98 113q-2 -12 6.5 -16.5t20.5 5.5q90 70 182 170.5t193 264.5 q16 23 27.5 38t11.5 25q0 23 -15.5 37t-25.5 14q-23 0 -59 -27.5t-78 -73.5t-86 -103.5t-80.5 -118t-63.5 -116.5t-33 -99z" />
<glyph unicode="e" horiz-adv-x="503" d="M20 356q0 35 16.5 43.5t53.5 30.5q12 8 18.5 16.5t12.5 20.5q31 61 78 122.5t100 110t106.5 78t98.5 29.5q29 0 54.5 -27.5t25.5 -56.5q0 -43 -19.5 -74t-63.5 -66.5t-114 -81.5t-170 -116q-16 -14 -27.5 -28.5t-21.5 -43.5q-6 -18 -12 -43.5t-12.5 -52.5t-9.5 -53.5 t-3 -46.5q0 -33 15.5 -55.5t43.5 -22.5q47 0 75 17.5t50 49.5q6 8 17 9q23 0 22 -25q0 -25 -21.5 -49.5t-52 -42.5t-65 -29.5t-59.5 -11.5q-43 0 -84 40t-41 112q0 39 7 90t17 90q4 12 2 16t-12 8t-17.5 19.5t-7.5 23.5zM274 535q4 -4 10.5 -7.5t18.5 2.5q29 12 58.5 33 t54 42.5t40 40t15.5 28.5q0 8 -5 15t-15 7q-23 0 -66 -29.5t-100 -103.5q-16 -20 -11 -28z" />
<glyph unicode="f" horiz-adv-x="512" d="M-137 371q0 37 26.5 66.5t69.5 55t99.5 46t117.5 39.5q14 4 19 22q68 297 153.5 436.5t159.5 139.5q18 0 38.5 -12.5t38 -31t28 -41t10.5 -42.5q0 -12 -17 -13q-8 0 -21.5 10.5t-25.5 10.5q-72 0 -142.5 -104.5t-129.5 -331.5q-6 -27 18 -21q25 6 55.5 10t60.5 7.5 t54.5 4.5t36.5 1q33 0 72 6t55 6q20 0 22.5 -6t2.5 -13q0 -8 -2.5 -14t-14.5 -6q-2 0 -16.5 -2t-31.5 -3t-32.5 -3t-17.5 -2q-35 -4 -63.5 -11.5t-58.5 -16.5t-64.5 -19.5t-79.5 -22.5q-23 -6 -27 -22q-23 -102 -38 -188.5t-23.5 -172.5t-11.5 -180t-3 -215q0 -66 -6 -112 t-8 -70q0 -16 -12.5 -57.5t-32.5 -82.5q-7 -14 -21 -14q-8 0 -14 8t-6 17q0 14 -4 20t-4 12q0 10 -2 15.5t-2 23.5q0 12 12 38t12 79q0 96 6 207.5t16.5 225.5t23 219.5t26.5 189.5q4 23 -17 12q-86 -39 -132 -69.5t-46 -71.5q0 -4 5.5 -6.5t5.5 -6.5q0 -20 -25 -20 q-35 0 -63.5 20.5t-28.5 55.5z" />
<glyph unicode="g" horiz-adv-x="798" d="M20 117q0 33 32 96t78 132t95 133.5t84 99.5q66 66 111 96.5t96 30.5q27 0 51.5 -26t24.5 -58q0 -8 7 -7.5t13 9.5q6 8 22.5 20t39.5 12q14 0 27.5 -11t13.5 -28q0 -20 -3 -34.5t-7.5 -28.5t-7.5 -29.5t-3 -36.5q0 -334 -46 -551t-113.5 -342.5t-141.5 -175t-129 -49.5 q-31 0 -62.5 8.5t-57 23.5t-42 38.5t-16.5 52.5q0 35 14.5 51.5t49.5 16.5q14 0 26 -3t17 -3q14 0 14 -9q0 -6 2 -16t2 -16t13.5 -4t21.5 2q6 0 16 -19q4 -4 12.5 -11t16.5 -7q47 0 101 47t101.5 162.5t79 308t31.5 483.5q0 23 -8 23t-20.5 -12.5t-24.5 -29t-24.5 -33.5 t-22.5 -26q-10 -10 -22.5 -19t-20.5 -20q-23 -31 -58.5 -84t-64.5 -96q-51 -78 -121 -120t-115 -42q-33 0 -57.5 28t-24.5 73zM152 186q-1 -30 22 -30q12 0 39 19.5t59.5 50t67.5 67.5t66.5 71.5t55 62.5t34.5 40q23 29 37 41t14 31q0 10 -17 10q-20 0 -33.5 15.5 t-29.5 15.5q-12 0 -33.5 -4.5t-42.5 -26.5q-41 -45 -84 -102.5t-77.5 -111.5t-56 -95t-21.5 -54z" />
<glyph unicode="h" horiz-adv-x="512" d="M-8 -12q0 23 13 61.5t29.5 106t34 172t25.5 258.5q0 14 -3 28.5t-3 28.5q2 25 4 70t4 93t4 92t2 69q0 10 12.5 32.5t47.5 22.5q25 0 41 -25.5t16 -44.5q0 -12 2 -17t5 -7t6.5 -4t3.5 -11q0 -14 -6.5 -17t-6.5 -11q0 -4 -11 -19.5t-11 -21.5q-2 -10 -4 -27.5t-4 -28.5 q-10 -92 -30 -213.5t-42 -244.5q-4 -16 2 -19.5t16 15.5q4 8 19.5 36.5t32 62.5t31 63.5t18.5 35.5q35 70 68.5 91.5t60.5 21.5q23 0 37 -25.5t14 -64.5q0 -115 15.5 -208t31.5 -157q4 -16 15.5 -12t21.5 14q8 10 17 19.5t20 9.5q10 0 15 -1t5 -19q0 -10 -2 -21.5t-6 -11.5 t-13.5 -19.5t-9.5 -23.5q-4 -23 -18 -48.5t-61 -25.5q-10 0 -29 19.5t-33 66.5q-10 31 -17 78t-12.5 95t-8.5 93t-3 74q0 23 -7 33t-15 10q-10 0 -18.5 -8t-12.5 -15q-6 -10 -18.5 -22t-28 -39t-34.5 -69t-42 -109q-2 -6 -12 -27.5t-21.5 -46t-20.5 -45t-9 -25.5 q-4 -18 -9.5 -54t-13.5 -83q-4 -18 -24.5 -24t-36.5 -6q-12 0 -22.5 14t-10.5 35z" />
<glyph unicode="i" horiz-adv-x="307" d="M82 102q0 25 10 81.5t23.5 117.5t24 116.5t10.5 80.5q0 12 -7.5 32.5t-7.5 32.5q0 39 20.5 53.5t43.5 14.5q27 0 41 -29t14 -70q0 -43 -13.5 -100t-29.5 -113.5t-29.5 -105.5t-13.5 -76q0 -25 6 -37t6 -20q0 -6 -2 -9t-2 -10q0 -4 3 -6t3 -8q0 -20 -10 -34.5t-33 -14.5 q-31 0 -44 28.5t-13 75.5zM158 842q0 31 28.5 63.5t69.5 32.5q23 0 41 -20q6 -8 11 -15.5t11 -11.5t13.5 -11.5t7.5 -11.5t-4 -10t-14 -6q-27 0 -29 -16q-4 -29 -27.5 -47.5t-48.5 -18.5t-42 20.5t-17 51.5z" />
<glyph unicode="j" horiz-adv-x="225" d="M-485 -565q0 10 8 10q4 0 16 -6t21 -6q10 0 19 6t9 10t15.5 10t34.5 6q117 0 189.5 37t127.5 129q35 57 60.5 142.5t41 190t22.5 224t7 246.5q0 10 -5 35t-3 35q2 14 -6.5 13t-10.5 13q-2 8 -5 12.5t-6 7.5t-6 7t-3 14q0 33 19.5 58.5t50.5 25.5q35 0 57 -30.5t22 -110.5 q0 -332 -45 -556t-125 -359q-45 -74 -95 -121t-101 -75t-100.5 -38t-90.5 -10q-59 0 -88.5 29.5t-29.5 50.5zM61 918q0 20 31 48.5t72 28.5q14 0 29.5 -9t26.5 -22.5t18.5 -25.5t7.5 -18q0 -4 -6.5 -11.5t-16.5 -7.5t-13 -4t-7 -23q-2 -4 -19.5 -15t-21.5 -11 q-14 0 -16.5 -11.5t-16.5 -11.5q-25 0 -46.5 31t-21.5 62z" />
<glyph unicode="k" horiz-adv-x="819" d="M96 264q0 16 29 47t63 72q14 16 15.5 19.5t1.5 23.5q0 127 -2 225.5t-2 169.5q0 20 -3 46t-7.5 48.5t-8.5 41t-4 26.5q-1 14 -1 26q-1 43 11 63q14 26 15 42q0 49 5 60.5t34 11.5q8 0 11 -19.5t13 -23.5q2 0 5 -10.5t6.5 -21.5t5.5 -22.5t4 -15.5q4 -6 7 -18.5t4 -27.5 t1 -28.5v-21.5v-17.5t-2 -25.5q0 -6 -3 -13.5t-3 -15.5q0 -10 -2 -23.5t-2 -29.5v-51t-1 -93.5t-1 -105.5v-86q0 -20 8 -20q12 0 22 10q33 31 70 66.5t76 71.5t74.5 70t66.5 60q20 16 34.5 42t41.5 26q33 0 49 -21.5t16 -44.5q0 -33 -20.5 -52t-68.5 -53t-126.5 -94.5 t-197.5 -173.5q-10 -10 -19.5 -20t-9.5 -18q0 -10 6 -18.5t23 -8.5q18 0 79.5 5t134 12t139.5 13t91 5q29 0 47.5 -5.5t18.5 -41.5q0 -29 -26 -36t-60 -9q-63 -4 -137 -8.5t-139.5 -9.5t-113 -10t-55.5 -9q-12 -4 -18 -10.5t-6 -22.5q0 -80 -1 -170t-1 -182q0 -23 8 -65 t8 -66q0 -18 -13.5 -31.5t-29.5 -13.5q-6 0 -12 6t-8 10q-4 12 -17.5 26.5t-13.5 36.5q0 39 6 70t6 51q0 43 -1 90t-2 90t-2 78t-1 54q0 20 -9 25t-20 5q-41 0 -63.5 6.5t-22.5 32.5z" />
<glyph unicode="l" horiz-adv-x="348" d="M10 78q0 63 11.5 156.5t28 194.5t35.5 202.5t36.5 184.5t29 136.5t13.5 59.5q16 68 31.5 92t52.5 24q27 0 35 -13t9 -23q0 -14 -3.5 -37t-9 -47.5t-10.5 -47t-9 -36.5q-8 -29 -18.5 -75t-21.5 -99.5t-22.5 -111.5t-23.5 -114q-4 -20 -16.5 -37.5t-16.5 -33.5 q-8 -35 -13 -57.5t-8 -51.5t-4 -75t-1 -128q0 -29 10 -50t25 -21h18t16.5 4t19.5 14t29 33q10 10 18.5 15t18.5 20q8 12 22.5 27.5t22.5 15.5q18 0 19 -19q0 -10 -11.5 -35.5t-39.5 -56.5q-39 -41 -66 -68.5t-48.5 -46t-41.5 -26.5t-47 -8q-31 0 -50.5 39.5t-19.5 99.5z" />
<glyph unicode="m" horiz-adv-x="1003" d="M12 43q0 20 11.5 58t17.5 65q27 127 41 195.5t20.5 103.5t7.5 46t1 26q0 8 2 38.5t2 38.5q0 18 3 37t12 35t24.5 26.5t40.5 10.5t43 -18.5t18 -49.5q0 -12 -4 -30.5t-14 -38.5q-16 -35 -32 -81t-28 -96.5t-21.5 -98.5t-13.5 -85q-4 -29 0 -37t25 13q25 25 72 71.5 t92 100.5q10 14 15 32.5t18 32.5q59 68 106 114t88 46q25 0 34 -24.5t9 -41.5q0 -27 -7 -68.5t-15.5 -83.5t-15.5 -75t-7 -43q0 -4 6 -11t19 9q16 16 50 70.5t75 107.5q27 35 58.5 68t84.5 33q43 0 43 -54q0 -25 1 -72.5t2 -98t2 -93.5t1 -57q0 -23 10.5 -35t20.5 -12 q18 0 35.5 16.5t33 35.5t27.5 35.5t18 16.5q4 0 7.5 1t7.5 -3q8 -10 5 -26.5t-7 -30.5q-8 -18 -27.5 -47t-47.5 -55.5t-61.5 -45t-66.5 -18.5q-57 0 -57 80v32.5t-1 53t-1 57.5v49t3 48t3 38q0 12 -7.5 26.5t-11.5 14.5q-23 0 -58.5 -54t-84.5 -122q-25 -33 -51.5 -67.5 t-46.5 -63.5q-16 -23 -32.5 -29t-29.5 -6q-20 0 -30.5 17.5t-10.5 46.5q0 23 8.5 67.5t19.5 96t20.5 98.5t11.5 72q0 12 -9 12q-6 0 -10 -4q-16 -16 -48 -50t-66 -81q-14 -18 -44 -44t-40 -42q-20 -29 -42 -65t-36 -58q-10 -20 -25.5 -47t-35 -50.5t-41 -40t-44.5 -16.5 q-25 0 -35 21.5t-10 56.5z" />
<glyph unicode="n" horiz-adv-x="712" d="M16 23q0 39 7.5 105.5t17.5 138t21.5 139t19.5 110.5q4 18 8 37.5t13.5 35t24.5 26t42 10.5q29 0 37 -25t8 -47q0 -8 3 -12t3 -15q0 -16 -14 -34.5t-21 -42.5q-4 -16 -14 -53.5t-21.5 -80.5t-20.5 -85t-9 -72q0 -20 8 -24.5t21 16.5q27 43 52 83.5t52 80.5t57.5 79 t69.5 78q6 6 15.5 26.5t25.5 37.5q27 29 58.5 48t66.5 19q18 0 30.5 -22.5t16.5 -42.5q2 -20 4 -63.5t2 -95.5v-105.5v-92.5q0 -55 4 -84.5t23 -29.5q23 0 47 14t35 18q8 6 17 18.5t13 12.5h8.5t4.5 -4q0 -10 2 -20.5t2 -18.5q0 -10 -15.5 -22.5t-25.5 -18.5 q-29 -16 -48.5 -36.5t-38 -39t-36.5 -32t-43 -13.5q-33 0 -39 43t-10 103q-2 18 -4 70.5t-4.5 109.5t-5.5 105t-5 59q-4 18 -8 18q-12 0 -20 -8q-16 -16 -37 -32.5t-39 -39.5q-8 -8 -20.5 -18t-18.5 -21q-47 -66 -89 -133t-85 -119q-29 -31 -56.5 -58.5t-54.5 -27.5 q-14 0 -25.5 12.5t-11.5 35.5z" />
<glyph unicode="o" horiz-adv-x="489" d="M8 133q0 68 20.5 158t53.5 180t76 174t86 139q23 29 35 44.5t40 15.5q16 0 33 10t27 10q16 0 31.5 -22.5t15.5 -34.5q0 -20 -20.5 -44t-47.5 -40q-12 -8 -12 -14q0 -8 12 -11q43 -10 84 -64t41 -167q0 -37 -20.5 -90t-53 -111.5t-73.5 -116t-82 -103.5t-78.5 -74.5 t-62.5 -28.5q-45 0 -75 52t-30 138zM90 131q0 -47 11.5 -68.5t25.5 -21.5q20 0 62 45t82 108.5t71 131t31 112.5q0 66 -12.5 106t-34.5 40q-10 0 -15.5 -2t-21.5 -2q-10 0 -15.5 4t-13.5 4t-12 -6.5t-8 -12.5q-4 -8 -12.5 -21t-17.5 -26.5t-16.5 -27t-9.5 -19.5t-9 -17.5 t-14 -23.5t-14.5 -22.5t-9.5 -16.5q-20 -53 -29.5 -91t-13.5 -67.5t-4 -54v-51.5z" />
<glyph unicode="p" horiz-adv-x="694" d="M25 522q0 39 27.5 73t86.5 34q16 0 39 -4t31 -15q4 -4 14 -20.5t19 -20.5q29 -12 44 -19t15 -18q0 -14 -14.5 -14t-26.5 -8q-2 -2 -12 -5t-21.5 -8t-21.5 -8.5t-12 -5.5q-10 -6 -23.5 -23.5t-13.5 -39.5q0 -57 2 -112.5t4 -116t4 -127.5q1 -34 1 -71t-1 -77q0 -29 9 -35 t15 23q2 14 10.5 34.5t16.5 43t13.5 45t5.5 39.5q-2 31 2 49t11 28.5t15 17.5t15 17q8 10 14 28.5t11 39t8 40t7 31.5q18 74 46 136.5t63 108.5t76 73t84 27q14 0 31.5 -10.5t33 -28t25.5 -42t10 -53.5q0 -92 -31.5 -186t-81 -170t-105.5 -124t-105 -48q-16 0 -31 12.5 t-29 12.5q-10 0 -12 -9q-12 -49 -23.5 -89t-22.5 -76.5t-20.5 -74.5t-17.5 -81q-16 -78 -24.5 -149.5t-16.5 -126t-21.5 -87t-40.5 -32.5q-41 0 -56 36.5t-15 71.5q0 20 6 54t12 99.5t12.5 175t6.5 286.5q0 68 -1 133t-4.5 120.5t-6.5 99.5t-7 70q-2 12 -15 36t-13 40z M336 166q-6 -12 12 -25q6 -4 10.5 -20.5t18.5 -16.5q35 0 73.5 37t71.5 94.5t54.5 124t21.5 127.5q0 27 -9 48.5t-26 21.5q-18 0 -42.5 -20.5t-53.5 -66.5t-61.5 -121t-69.5 -183z" />
<glyph unicode="q" horiz-adv-x="593" d="M20 231q0 33 12.5 87.5t35 116t52.5 124t64.5 113.5t72.5 82.5t75 31.5t77 -24.5t56 -65.5q4 -12 12 -12q6 0 15 8q31 35 65 35q23 0 37 -21.5t14 -50.5q0 -23 -25.5 -76t-56 -156.5t-58.5 -264t-30 -396.5q0 -10 2 -34.5t3 -52t3.5 -52t2.5 -31.5q0 -31 -13.5 -44 t-56.5 -13q-18 0 -27.5 14.5t-14.5 35t-6 42t-1 35.5q0 25 2 43.5t5 33.5t6 31.5t5 41.5q6 125 20.5 228t31 188t36 157t35.5 137q6 20 -2 21q-2 0 -6 -3t-14 -16q-4 -4 -16.5 -24.5t-27 -46t-26.5 -49t-17 -29.5q-12 -18 -28.5 -46t-34.5 -65q-8 -14 -18.5 -45t-20.5 -47 q-33 -49 -66.5 -81t-66.5 -32q-29 0 -49.5 14.5t-32.5 39t-18.5 55.5t-6.5 63zM115 250q0 -27 9 -46.5t32 -19.5q6 0 19 15.5t28.5 35t30 40t22.5 32.5q16 23 27.5 56.5t27.5 62.5q25 39 52.5 95.5t54.5 82.5q4 4 4 10q0 4 -5 9.5t-11 7.5q-20 4 -30.5 12t-18 17.5 t-14.5 16.5t-19 7q-27 0 -63 -53t-68.5 -125t-55 -144.5t-22.5 -111.5z" />
<glyph unicode="r" horiz-adv-x="532" d="M10 76q0 6 6.5 40t14.5 82t18 102t18.5 101.5t14.5 78t6 32.5q0 20 -13.5 30.5t-13.5 39.5q0 10 13.5 16t13.5 20q0 27 7 36.5t44 9.5q18 0 30.5 -10.5t20 -25t10.5 -31.5t3 -30q0 -4 -5 -27.5t-13.5 -58.5t-17.5 -75.5t-17.5 -75.5t-13.5 -60.5t-5 -31.5q0 -20 6 -17.5 t15 17.5q63 119 127.5 201.5t150.5 156.5q25 23 59.5 39t63.5 16q16 0 32.5 -15t31 -38t22.5 -48.5t8 -45.5q0 -18 -11 -30.5t-38 -12.5q-12 0 -26.5 9t-28 20.5t-26.5 20.5t-25 9q-39 0 -127.5 -97t-221.5 -319q-20 -35 -31.5 -54t-18.5 -29.5t-16.5 -13.5t-25.5 -3 q-41 0 -41 72z" />
<glyph unicode="s" horiz-adv-x="532" d="M25 485q0 45 36.5 87t89 75t107.5 52.5t92 19.5q12 0 25.5 -3t23.5 -5q16 -4 22.5 -18.5t16.5 -22.5q10 -10 23.5 -12t13.5 -21q0 -10 -7 -16.5t-30 -6.5h-84q-29 0 -67.5 -8t-74.5 -24.5t-60.5 -42t-24.5 -60.5t23.5 -63.5t62.5 -54t91 -51t112 -54.5q39 -18 65.5 -52 t26.5 -79q0 -35 -16.5 -60.5t-38.5 -48.5q-4 -4 -16.5 -10t-26 -12t-25.5 -12.5t-18 -10.5q-66 -53 -106 -70.5t-87 -17.5q-43 0 -63.5 18.5t-32.5 35.5q-6 6 -6 20q0 6 -9.5 10t-9.5 13q0 12 5 15t22 3q16 0 34.5 -9t61.5 -9q33 0 73 9t74.5 28.5t58.5 48t24 69.5 q0 18 -16.5 36.5t-39.5 29.5q-49 20 -106.5 45.5t-106.5 59.5t-80.5 78t-31.5 101z" />
<glyph unicode="t" horiz-adv-x="614" d="M18 479q0 16 25 41t53 43q18 12 34.5 20.5t35 16.5t42 19.5t56.5 29.5q12 8 15.5 14.5t7.5 18.5q25 123 36 205t11 90t1 39t1 39q0 23 13 44t52 21q12 0 32 -9t37 -22.5t29.5 -31t12.5 -35.5q0 -16 -11.5 -20.5t-24.5 -8.5t-24.5 -15t-11.5 -42q0 -18 -7 -44t-16 -55.5 t-18.5 -59t-15.5 -54.5q-4 -16 -1 -24.5t26 -0.5q12 4 40.5 14.5t61.5 19.5t61.5 16.5t40.5 7.5q41 0 53.5 -11.5t12.5 -44.5q0 -16 -15.5 -34.5t-25.5 -57.5q-4 -16 -22.5 -21t-28.5 -5q-18 0 -18.5 4t-0.5 14t6.5 20.5t6.5 26.5q0 20 -7.5 21.5t-23.5 -0.5 q-10 -2 -31.5 -10.5t-32.5 -12.5q-8 -4 -19 -11t-22 -11q-4 -4 -22.5 -8.5t-24.5 -8.5t-10 -11t-10 -11q-10 -6 -23.5 -17.5t-17.5 -25.5q-6 -29 -14.5 -67t-15.5 -81t-12 -86t-5 -80q0 -33 -7.5 -63.5t-7.5 -54.5v-13q0 -29 6 -61q8 -39 9 -68q0 -12 3 -18t3 -23 q0 -27 -11 -46t-40 -19q-35 0 -47.5 22.5t-12.5 83.5q0 12 7.5 47t7.5 58q0 37 6 92t15 116.5t19.5 123t18.5 110.5q6 33 -22 18q-18 -10 -38 -20t-40 -25q-23 -16 -47.5 -35.5t-34.5 -19.5q-18 0 -38 6t-20 41z" />
<glyph unicode="u" horiz-adv-x="778" d="M10 27q0 37 17.5 117.5t41 168.5t44 166t26.5 113q2 16 11.5 39.5t21.5 46t28.5 39t37.5 16.5q18 0 25 -9t9 -22q4 -18 11.5 -34.5t7.5 -36.5q0 -10 -4 -19.5t-19 -23.5q-10 -10 -29.5 -36t-29.5 -54q-18 -53 -34.5 -108.5t-30 -102.5t-20.5 -84t-7 -53q0 -10 1 -21.5 t9 -11.5t37 26q6 6 16 16.5t22.5 22t25 22.5t18.5 19q68 72 125 155t100 148q59 88 90 88q37 0 43 -63q2 -20 3 -55t2 -75t1 -80v-71q0 -51 4 -76.5t23 -25.5q12 0 21.5 2t23.5 12.5t36.5 30.5t59.5 59q4 4 17 13q37 29 48 47t23 18q4 0 8.5 -2t4.5 -10q0 -4 -7.5 -17.5 t-17.5 -31t-21.5 -33.5t-21.5 -25q-31 -29 -58.5 -63.5t-57 -66t-62.5 -53t-72 -21.5q-16 0 -30.5 23.5t-14.5 66.5q0 98 2 175q1 26 1 46q0 40 -3 59q-2 14 -8 19.5t-19 -17.5q-10 -16 -28.5 -34.5t-28.5 -34.5q-16 -23 -35.5 -32t-36.5 -32q-27 -37 -66.5 -86t-64.5 -80 q-16 -18 -20 -35.5t-19 -31.5q-41 -39 -73.5 -58.5t-65.5 -19.5q-20 0 -30.5 25.5t-10.5 46.5z" />
<glyph unicode="v" horiz-adv-x="573" d="M31 592q0 35 14 57.5t49 22.5q37 0 48.5 -23.5t11.5 -44.5q0 -10 -1 -25.5t-3.5 -31t-3.5 -27.5t-1 -18q0 -133 1 -214t10 -124q6 -33 20 -33q18 0 53 43q47 61 98.5 141t97.5 155t80 133.5t46 76.5q10 14 28.5 28.5t22.5 24.5q4 6 11.5 19.5t19.5 13.5q16 0 16 -31 q0 -4 2 -9t2 -9t-6 -22.5t-12 -26.5q-37 -47 -82 -115t-91 -142.5t-89 -149.5t-78 -134q-35 -61 -81 -100t-83 -39q-35 0 -54.5 57t-28.5 140t-11 174.5t-2 158.5q0 6 -2 29.5t-2 44.5z" />
<glyph unicode="w" horiz-adv-x="897" d="M41 549q0 16 10 23.5t15 17.5q4 14 13 31.5t32 17.5t25 -22.5t3 -38.5q0 -121 2 -188.5t3 -107.5t3.5 -61.5t2.5 -48.5q0 -18 8 -18t28.5 29.5t43 68.5t43 76t28.5 51q18 33 41 68.5t49.5 65.5t53 49.5t51.5 19.5t37 -17.5t12 -38.5q0 -41 11 -85t19 -109 q2 -14 2.5 -31.5t0.5 -30.5q0 -23 7 -36t9 -19q4 -12 3 -33.5t1 -36.5q2 -23 14 -22q10 0 23 16q4 6 10 19.5t13.5 29t12.5 29.5t9 21q8 16 16.5 46.5t15.5 67.5t12 74t9 66q8 45 12.5 75.5t10.5 57.5q10 37 18 53t41 16q8 0 15.5 -14t13.5 -21q6 -4 12 -18t6 -23 q0 -14 -9 -31.5t-9 -33.5q0 -47 -20.5 -124t-47.5 -169q-12 -43 -36.5 -91t-55.5 -88t-63.5 -66.5t-63.5 -26.5q-10 0 -19.5 16t-17.5 44t-14 62.5t-8 71.5q-10 121 -27.5 186.5t-46.5 65.5q-10 0 -28.5 -23.5t-40 -57.5t-43 -71.5t-36.5 -66.5q-4 -6 -8 -27.5t-18 -46.5 q-35 -61 -69 -107t-68 -46q-18 0 -29.5 15t-17 39t-6.5 51.5t-1 51.5q0 117 -3 190t-6 116t-6 64.5t-3 33.5z" />
<glyph unicode="x" horiz-adv-x="675" d="M25 68q0 18 12 36.5t16 36.5q14 47 23.5 93.5t48.5 91.5q6 6 17.5 18t24.5 25.5t25.5 25t18.5 17.5q14 14 14 26q0 4 -6 12.5t-10 12.5q-27 31 -42 41t-28 20q-4 4 -5 7.5t-5 3.5h-10q-8 2 -23.5 11t-30 20.5t-25.5 24.5t-11 23q0 29 14 38.5t37 9.5q20 0 40.5 -10.5 t43.5 -26.5q6 -4 21.5 -18.5t34 -32t35.5 -35t28 -27.5q10 -10 30.5 -11t32.5 9q94 55 144.5 91t76 56.5t37.5 27.5t33 7q35 0 56.5 -16.5t21.5 -34.5q0 -29 -16.5 -45t-57.5 -27q-16 -4 -31.5 -7t-41 -13t-65.5 -30.5t-106 -59.5q-18 -10 -18 -25q0 -10 10 -24 q31 -37 57.5 -82t47 -90t33 -83t12.5 -59q0 -35 -7.5 -53t-33.5 -18q-35 0 -42 17t-10 30q-4 18 -8 43.5t-4 38.5q0 2 -9 18t-19.5 34.5t-19.5 34t-11 19.5q-10 18 -18.5 33.5t-41.5 58.5q-14 18 -24 19q-14 0 -29 -15q-6 -6 -16 -13t-22.5 -16.5t-24 -16.5t-15.5 -13 q-33 -41 -52 -84t-19 -72t4 -48t4 -34q0 -10 8 -27.5t12 -21.5t19.5 -8t21.5 -4q37 0 47.5 -15.5t10.5 -37.5q0 -23 -18.5 -42.5t-57.5 -19.5q-66 0 -102.5 51.5t-36.5 133.5z" />
<glyph unicode="y" horiz-adv-x="655" d="M-125 -625q0 12 6 14.5t41 6.5q8 2 20.5 7t22.5 5q27 2 69 18.5t79 63.5q10 14 29.5 30.5t40 33t38 31t23.5 26.5q12 25 13 48.5t15 51.5l52 103q10 23 21 39t23.5 31.5t22.5 32.5t21 42q59 141 89.5 265t45.5 241q2 12 1 21.5t-7 11.5q-10 2 -25 -6q-41 -25 -61.5 -51.5 t-53.5 -73.5q-6 -10 -34.5 -33t-44.5 -45q-4 -6 -11.5 -22.5t-15.5 -34t-15.5 -33t-11.5 -21.5q-41 -45 -68.5 -81t-51 -61.5t-45 -39.5t-46.5 -14q-23 0 -36 23.5t-13 57.5q0 12 19.5 62.5t44 118t44 141.5t19.5 133q0 16 -4 38t-12 26q-4 2 -11.5 5t-9.5 7q-4 8 -9 10 t-9 4t-8 5t-6 14q-2 10 -6.5 12t-4.5 12q0 39 33 59.5t68 20.5t61.5 -36t26.5 -136q0 -18 -11.5 -69.5t-27 -112t-31.5 -114.5t-27 -75q-14 -27 -2 -34q4 -2 10.5 6t14.5 18q39 59 100.5 139t125 153t119.5 124t85 51q51 0 51 -67q0 -14 -5 -49t-14 -80.5t-22.5 -97.5 t-27.5 -101q-92 -285 -175 -468t-159 -289.5t-146 -147.5t-133 -41q-12 0 -18 9t-23 13q-12 2 -10 13.5t-20 11.5q-10 0 -16.5 9t-6.5 15z" />
<glyph unicode="z" horiz-adv-x="714" d="M14 55q0 18 22.5 39t57.5 31q33 10 41 14t25 27q37 47 90 100t106.5 104.5t99.5 94.5t68 70q10 10 11 20q0 12 -25 8q-55 -4 -108.5 -19.5t-97.5 -31.5t-74.5 -31.5t-39.5 -19.5q-12 -6 -27.5 -24.5t-39.5 -18.5q-23 0 -34 17.5t-11 29.5q0 31 56 62.5t135 57t164 42 t145 16.5q29 0 49 -19.5t20 -52.5q0 -27 -22.5 -55.5t-63.5 -71.5q-4 -6 -16.5 -14t-25.5 -16t-25.5 -16.5t-18.5 -14.5q-49 -49 -99 -102.5t-79 -102.5q-4 -8 -8 -12t-4 -8q0 -10 34 -6q88 12 169 16t130 4q41 0 53.5 -6t22.5 -6q18 0 19 -17q0 -6 -3 -13t-10 -11 q-4 -2 -15 -2t-24.5 -1t-25.5 -3t-14 -4q-10 -10 -28 -14.5t-52 -6.5q-55 -2 -109.5 -7t-101.5 -11.5t-82 -13.5t-49 -11q-27 -10 -35 -33q-6 -20 -20.5 -36.5t-45.5 -16.5q-23 0 -38 10.5t-15 28.5q0 10 -5 11t-13 7q-12 10 -13 39z" />
<glyph unicode="{" horiz-adv-x="409" d="M-4 526.5v22.5q0 18 15.5 45t51.5 27q23 0 34.5 -9.5t29.5 -9.5q27 0 50.5 18.5t46 63.5t42 120t37.5 185q10 68 34.5 116t53.5 80t58.5 46t52.5 14q43 0 59.5 -16.5t16.5 -38.5q0 -12 -13.5 -23.5t-29.5 -13.5q-31 -4 -52.5 -20.5t-37 -39t-23.5 -49t-12 -49.5 q-35 -201 -81 -306t-108 -152q-16 -12 -17 -20.5t9 -27.5q16 -29 24.5 -74.5t8.5 -86.5q0 -47 -14.5 -103.5t-31 -115t-30.5 -112.5t-14 -95q0 -55 22.5 -75t63.5 -38q20 -10 37.5 -19.5t17.5 -29.5q0 -14 -29 -25q-10 -4 -14.5 -15t-24.5 -11q-31 0 -55 8t-43 31 q-27 33 -58.5 76.5t-31.5 109.5q0 57 15.5 112.5t35 111t34.5 111.5t15 116q0 45 -13 77.5t-54 32.5q-31 0 -47.5 8.5t-23.5 19.5t-7 23.5z" />
<glyph unicode="|" horiz-adv-x="364" d="M80 -279q0 16 5 53.5t9 53.5q14 94 26.5 220t22 262t17.5 272.5t13 252t7 197.5t2 113q0 10 -2 12l-1 11q-1 10 -2 21t-1 20.5v11.5q0 33 13.5 47t35.5 14q29 0 47.5 -27.5t18.5 -64.5q0 -14 -16.5 -119.5t-36 -288t-36 -437.5t-16.5 -570q0 -14 1 -37t1 -33 q0 -23 -7 -51.5t-34 -28.5q-16 0 -24 12.5t-14 28.5q-4 8 -16.5 25.5t-12.5 29.5z" />
<glyph unicode="}" horiz-adv-x="491" d="M-162 -266q0 12 14.5 31.5t30.5 21.5q31 2 54.5 19.5t41 40t27.5 49t14 49.5q20 129 42 219t46.5 151.5t52 98.5t58.5 59q20 16 6 39q-18 29 -26.5 64.5t-8.5 76.5q0 33 12.5 75t28 88t28.5 93t13 88q0 55 -33.5 85t-74.5 48q-20 10 -40 23.5t-20 34.5q0 27 23 44t55 17 q20 0 32.5 -5t20 -13t14.5 -20.5t17 -24.5q12 -16 31.5 -34.5t37 -41.5t30 -49.5t12.5 -59.5q0 -57 -13.5 -102t-29 -87t-27.5 -85t-12 -96q0 -55 15.5 -75.5t56.5 -20.5q31 0 51 -7.5t30.5 -18.5t14.5 -23.5t4 -22.5q0 -18 -13.5 -39t-41.5 -21q-23 0 -51.5 2.5t-47.5 2.5 q-27 0 -55.5 -31t-54 -89.5t-48 -140t-36.5 -182.5q-10 -68 -35 -118t-55.5 -82.5t-62.5 -49t-52 -16.5q-29 0 -52.5 6t-23.5 29z" />
<glyph unicode="~" horiz-adv-x="839" d="M43 463q0 33 14.5 67.5t41 63.5t61.5 46t78 17q45 0 105 -27.5t122 -105.5q27 -35 61.5 -62.5t77.5 -27.5q20 0 42 4t40.5 16.5t29.5 37t11 65.5q0 27 17.5 47.5t33.5 20.5q31 0 37 -18.5t6 -53.5q0 -55 -22.5 -96t-56 -68t-72.5 -39t-74 -12q-61 0 -109.5 37t-93.5 98 q-35 47 -80 69.5t-80 22.5q-86 0 -86 -92q0 -43 17.5 -69.5t17.5 -43.5q0 -16 -9 -28.5t-21 -12.5t-19.5 8.5t-12.5 17.5t-8 17.5t-6 8.5q-14 0 -20 6q-16 12 -29.5 34.5t-13.5 51.5z" />
<glyph horiz-adv-x="716" d="M-6 -27q0 4 3 18.5t7 33t8 35t6 26.5q12 55 36 119.5t52 156.5q4 14 3.5 20.5t-17.5 6.5q-29 0 -46 9.5t-17 25.5q0 10 10 17.5t10 15.5q0 20 28.5 34.5t53.5 18.5q23 4 28 12t11 25q41 111 79 202t79 171q16 33 31.5 65.5t31 58t30.5 41t32 15.5q49 0 76.5 -59.5 t37.5 -166.5q2 -23 6.5 -56.5t9.5 -76.5t11 -90t12 -96q2 -10 8.5 -17.5t22.5 -11.5q41 -6 78 -21.5t37 -25.5t-7.5 -17t-11.5 -7q-16 0 -21 -3t-18 -3q-14 0 -21 2t-30 2q-18 0 -14 -21q14 -117 33.5 -213t35.5 -182q4 -29 3 -67t-1 -54q1 -47 -36 -47q-14 0 -26.5 16.5 t-22 40t-14.5 48t-7 40.5q-4 39 -10 80t-14.5 89t-18.5 105.5t-21 131.5q-2 12 -9 19t-25 7q-16 0 -51 -2t-73 -5t-72 -7t-48 -8q-16 -4 -25.5 -10t-13.5 -21q-41 -121 -66.5 -215t-25.5 -137q0 -49 -12.5 -63.5t-12.5 -22.5t-7 -14.5t-7 -12.5q0 -18 -6 -29.5t-41 -11.5 q-25 0 -33 26t-8 60zM266 553q-12 -31 21 -27q12 2 39.5 3t57.5 2t57.5 1h43.5q35 0 29 35q-6 43 -14 101.5t-15.5 115t-12.5 100.5t-7 56q-8 35 -17.5 31t-25.5 -31q-10 -16 -28.5 -60t-41 -100.5t-46 -117t-40.5 -109.5zM367 1262q0 6 6 17t14 23.5t15.5 22.5t7.5 16 q6 35 28.5 66t50 54.5t56 36.5t45.5 13q31 0 40 -10t9 -22q0 -14 -10.5 -27.5t-24.5 -19.5q-8 -4 -6 -10.5t8 -8.5q31 -10 46.5 -29.5t15.5 -60.5q0 -16 -18.5 -33.5t-22.5 -32.5q-18 -59 -63.5 -91.5t-84.5 -32.5q-29 0 -50 12t-34.5 31.5t-20.5 42t-7 43.5zM449 1249 q0 -18 7 -31.5t13 -13.5q12 0 28.5 6.5t32 18.5t26.5 31.5t11 44.5q0 23 -7 29.5t-15 6.5q-4 0 -12.5 -5t-14.5 -5q-10 0 -23.5 -4t-15.5 -6q-10 -14 -20 -24.5t-10 -47.5z" />
<glyph horiz-adv-x="471" d="M-72 -113q0 27 8.5 33t30.5 17q14 6 37 30.5t41 46.5q10 12 11 20.5t-9 24.5q-23 35 -22 107q0 119 43 221t157 209q20 20 28.5 33.5l17 27t21.5 29.5t44 41q29 23 63.5 37t69.5 14q14 0 26.5 -12t26.5 -14q20 -4 35.5 -18.5t15.5 -31.5q0 -47 -49 -47h-59 q-49 0 -108.5 -38.5t-111.5 -106.5t-87 -157t-35 -189q0 -14 10 -37t25 -23q35 0 63.5 9.5t52 23t40 26.5t24.5 21q6 6 15 16.5t16 16.5q10 12 28.5 9t18.5 -25q0 -12 -14.5 -37t-41 -51.5t-67.5 -49t-92 -34.5q-18 -4 -46 -13.5t-46 -21.5q-51 -33 -56 -62q-4 -18 13 -14 q27 4 59.5 -2t62 -21.5t49 -39t19.5 -54.5q0 -39 -21.5 -72.5t-60.5 -58t-90.5 -39t-112.5 -14.5q-37 0 -37 45q0 14 26 26.5t54 10.5q66 -4 108 26.5t42 71.5q0 8 -11.5 19.5t-26.5 19.5t-34.5 14.5t-34.5 6.5q-27 0 -39 -8.5t-24 -8.5t-39 10.5t-27 36.5z" />
<glyph horiz-adv-x="491" d="M0 344q0 35 30.5 48.5t65.5 35.5q10 8 22.5 28.5t18.5 32.5q20 43 57 88.5t80 83t90.5 61t92.5 23.5q29 0 60.5 -15t31.5 -62q0 -63 -90 -139t-242 -152q-16 -14 -27.5 -28.5t-21.5 -43.5q-12 -37 -23.5 -81t-11.5 -85q0 -33 17.5 -66.5t56.5 -33.5q55 0 81.5 20.5 t55.5 61.5q6 8 16 8q23 0 23 -25q0 -14 -6 -16q-29 -23 -53.5 -47.5l-42.5 -42.5q-16 -18 -44 -33.5t-81 -15.5q-20 0 -42 11t-39.5 30.5t-28.5 48.5t-11 65q0 39 12 92.5t23 92.5q4 12 -7.5 18t-21.5 6q-23 0 -32 11.5t-9 19.5zM262 500q4 -4 27 6q25 12 48 27.5t41.5 31 t31 29.5t12.5 24q0 16 -19 17q-23 0 -53.5 -23.5t-77.5 -83.5q-16 -20 -10 -28zM508 879q0 4 5 11t13 17q4 4 18.5 6t18.5 13q8 20 15.5 32.5t15.5 21.5t18.5 19.5t22.5 26.5q14 16 31.5 29.5t46.5 13.5q31 0 42 -21.5t11 -43.5q0 -18 -11.5 -33t-28.5 -24t-35.5 -15 t-31.5 -8q-12 -2 -30.5 -15.5t-36 -28t-31.5 -25.5t-18 -11q-25 0 -30 9t-5 26z" />
<glyph horiz-adv-x="450" d="M37 98q0 84 27.5 165t62.5 153q12 27 47 76t79 98t94 86t95 37q33 0 53.5 -14.5t20.5 -43.5q0 -78 -74.5 -154.5t-236.5 -174.5q-41 -27 -59.5 -84.5t-18.5 -102.5q0 -55 20.5 -80.5t49.5 -25.5q20 0 47.5 11t52.5 26.5t43 31t22 21.5q6 8 17 8q14 0 14 -22q0 -4 -7 -29 t-36 -41q-4 -2 -20.5 -8t-36 -12.5t-35.5 -12.5t-18 -8q-12 -12 -41 -29.5t-45 -17.5q-20 0 -41 12t-38.5 32.5t-27.5 47.5t-10 55zM221 410q4 -4 18.5 -2t32 9t36 16t30.5 20q14 10 12 25.5t10 25.5q18 14 35 45t17 39q0 14 -11 14q-10 0 -31.5 -15.5t-46 -39t-50 -52 t-44.5 -55.5q-16 -18 -8 -30zM229 1069q0 23 22.5 36t53.5 13q29 0 39 -16.5t23 -34.5q16 -25 40.5 -50.5t47 -48t39 -40t16.5 -25.5q0 -16 -25 -16t-37 10t-49 31q-25 12 -54.5 29.5t-55 36t-43 38t-17.5 37.5z" />
<glyph horiz-adv-x="491" d="M23 324q0 35 30.5 48t65.5 36q10 8 22.5 28.5t18.5 32.5q20 43 57 88t80 83t90 61.5t92 23.5q29 0 53.5 -15.5t24.5 -62.5q0 -63 -83 -139t-234 -152q-16 -14 -27.5 -28.5t-22.5 -42.5q-12 -37 -23 -81t-11 -85q0 -33 17 -67t56 -34q55 0 82 20.5t56 61.5q6 8 16 9 q23 0 23 -25q0 -14 -7 -16q-29 -23 -53 -47.5t-43 -43.5q-16 -18 -44 -33.5t-81 -15.5q-20 0 -41.5 11.5t-39 31t-29 48t-11.5 65.5q0 39 12.5 92t22.5 92q4 12 -7 18.5t-22 6.5q-23 0 -31.5 11t-8.5 20zM285 479q3 -4 26 6q25 12 48.5 27.5t42 31t30.5 30t12 24.5 q0 16 -18 16q-23 0 -53.5 -23.5t-77.5 -82.5q-16 -20 -10 -29zM299 870q0 10 11.5 19.5t15.5 23.5t28.5 51t55 74t63.5 66t53 29q23 0 29 -24t27 -60q2 -4 4 -12.5t4 -12.5q29 -94 45 -154.5t16 -83.5q0 -18 -8 -18t-15 12.5t-12 20.5q-16 37 -27 59.5t-19.5 38.5 t-15.5 30.5t-13 37.5q-12 39 -37 39q-4 0 -9.5 -9.5t-15.5 -15.5q-45 -33 -54 -60.5t-22 -43.5q-14 -20 -25 -39t-34 -19t-34 14.5t-11 36.5z" />
<glyph horiz-adv-x="677" d="M-29 12q0 25 7.5 71t19.5 101.5t26.5 115.5t28 115.5t23.5 99.5t14 67q6 33 20.5 60.5t55.5 27.5q23 0 49.5 -20.5t26.5 -41.5q0 -23 -27 -49q-10 -10 -26.5 -22.5t-26.5 -40.5q-18 -53 -35.5 -117t-32 -123t-23 -104.5t-8.5 -61.5q0 -25 13 -24q6 0 16 4t27 18 q31 31 80 88t101 121.5t99 126t74 102.5q31 47 49.5 61.5t34.5 14.5q37 0 43 -63q2 -10 4 -24.5t4 -35.5q0 -10 -3 -20t-3 -21q2 -33 4 -68.5t4 -69.5t3 -64.5t1 -51.5q0 -27 7.5 -42t7.5 -31t2 -23.5t4 -12.5t4 -9.5t2 -14.5q0 -33 -19.5 -52t-48.5 -19q-16 0 -33.5 9 t-17.5 52q0 49 -1 103.5t-3 102.5t-4 85t-4 51q-6 25 -10 25q-12 0 -21 -15q-10 -16 -22.5 -26.5t-22.5 -26.5q-8 -12 -15 -15t-13.5 -5.5t-13.5 -5.5t-15 -13q-12 -18 -35 -44t-46.5 -53.5t-45 -52t-33.5 -38.5q-16 -18 -27.5 -40t-25.5 -36q-41 -39 -82 -63.5t-74 -24.5 q-20 0 -28.5 21.5t-8.5 41.5zM158 936q0 23 19.5 49.5t49.5 26.5q29 0 47.5 -12.5t30.5 -30.5q16 -25 39 -54.5t43.5 -57.5t34.5 -48.5t14 -28.5q0 -16 -7 -20t-23 -4q-20 0 -35 11t-27 26.5t-25.5 31t-31.5 25.5q-25 12 -48.5 21.5t-41 17.5t-28.5 18.5t-11 28.5z" />
<glyph horiz-adv-x="655" d="M-8 -55q0 37 18.5 121t42 175t45 172t27.5 115q2 16 8 36t15.5 37t23.5 29.5t35 12.5q18 0 31.5 -5t15.5 -17q4 -18 13 -28.5t9 -31.5q0 -10 -6 -25.5t-20 -29.5q-10 -10 -26.5 -22.5t-26.5 -41.5q-18 -53 -36 -112.5t-32 -111.5t-22.5 -93t-8.5 -57q0 -25 13 -25 q6 0 16 4t27 19q10 10 23 11t28 17q33 35 68.5 82t67.5 95t60.5 94.5t51.5 78.5q31 47 49 61.5t35 14.5q37 0 43 -63q2 -20 4 -53t4 -71t3 -76t1 -69q0 -25 4 -41t9 -30.5t9 -27.5t4 -34q0 -33 -18 -64.5t-47 -31.5q-16 0 -34.5 21.5t-18.5 64.5q0 98 -3 162.5t-8 93.5 q-6 25 -10 25q-12 0 -20 -15q-10 -16 -22.5 -31.5t-22.5 -31.5q-16 -23 -27.5 -37t-28.5 -37q-27 -37 -61.5 -67.5t-58.5 -61.5q-16 -18 -27.5 -39.5t-26.5 -36.5q-41 -39 -81.5 -63.5t-73.5 -24.5q-20 0 -28.5 21.5t-8.5 42.5zM297 903q0 10 5 18.5t9 22.5t25.5 49t49.5 69 t56.5 60.5t49.5 26.5q39 0 75 -70q2 -4 4 -12t4 -12q29 -94 45.5 -154.5t16.5 -83.5q0 -18 -8 -18t-14.5 9t-10.5 17q-4 4 -10 6.5t-10 12.5q-16 49 -30.5 79.5t-27.5 73.5q-12 39 -37 39q-4 0 -9 -9t-15 -15q-29 -20 -49.5 -31.5t-22.5 -32.5q-2 -18 -3 -25.5t-1 -15.5 q0 -25 -15.5 -38t-37.5 -13q-39 0 -39 47z" />
<glyph unicode="&#xa0;" d="M63 276q0 16 16.5 33t41.5 19q37 4 76 15t79 11q27 0 27 29q0 4 -1 26.5t-2 49t-2 48t-1 25.5q0 29 -9 53.5t-9 53.5q0 20 10 38.5t43 18.5q16 0 37.5 -16t21.5 -43q0 -12 1 -47t3 -75t3 -76t1 -52q0 -14 10.5 -15t22.5 -1q6 0 21.5 3t33 6t31.5 6t21 3q37 0 73.5 -9 t36.5 -26q0 -16 -14 -18q-8 -2 -13.5 -8t-21.5 -6q-14 0 -38.5 -3.5t-51.5 -8.5t-50.5 -8t-33.5 -3q-16 0 -21.5 -12.5t-5.5 -28.5q0 -135 -7 -236.5t-14 -170t-14.5 -106.5t-7.5 -48q0 -37 -11.5 -55.5t-27.5 -18.5t-18 15q-2 8 -7 35.5t-5 43.5q0 14 5 59.5t11 116t11 164 t5 201.5q0 20 -10 20.5t-22 0.5q-6 0 -19.5 -3.5t-29 -6.5t-29.5 -6t-19 -5q-29 -10 -41 -24.5t-38 -14.5q-20 0 -34 12.5t-14 44.5z" />
<glyph unicode="&#xa1;" horiz-adv-x="552" d="M172 635q0 51 29.5 117.5t71.5 126t87.5 100.5t73.5 41q31 0 45.5 -14.5t14.5 -28.5q0 -16 -18.5 -43t-35.5 -33q-8 -4 -8 -6q0 -4 8 -6q29 -6 48.5 -35t19.5 -78q0 -55 -25.5 -101t-64.5 -80t-85 -52.5t-85 -18.5t-57.5 31t-18.5 80zM248 659q0 -23 4 -39t18 -16t39 9.5 t46.5 27.5t38 47t16.5 68q0 25 -7.5 34t-13.5 9q-8 0 -23.5 -4t-25.5 -4t-15.5 2t-7.5 -2q-6 -8 -17 -21.5t-22.5 -31t-20.5 -37t-9 -42.5z" />
<glyph unicode="&#xa2;" horiz-adv-x="507" d="M45 555q0 49 49 104.5t129 96.5q16 10 28.5 22.5t14.5 30.5q2 29 3 62.5t3 64.5t3 54.5t1 33.5t-2 12t-2 13.5v15.5q0 55 45 55q27 0 42.5 -19.5t15.5 -43.5q0 -6 -4 -29.5t-9.5 -57.5t-11.5 -72t-10 -73q-4 -33 29 -26q14 4 38.5 3t36.5 -1q14 0 21.5 -2t12.5 -5 t10.5 -9.5t17.5 -12.5q10 -6 18 -14t8 -25q0 -39 -34 -39q-10 0 -34 -5t-32 -5q-16 0 -37.5 -2t-40.5 -4q-31 -2 -35 -41q-2 -18 -4 -47t-3 -59.5t-1 -58.5v-46q0 -25 23 -33q27 -10 47 -10q39 0 65.5 7t42.5 7q14 0 16.5 -7t2.5 -17q0 -4 -7 -9.5t-15.5 -10.5t-15.5 -10 t-7 -7q0 -4 -2 -9l-4 -10q-10 -14 -23.5 -17t-40.5 -3q-8 0 -29.5 4t-31.5 4q-23 0 -23 -31q0 -8 -2 -35.5t-3 -60.5t-3 -64.5t-2 -50.5q0 -16 6 -39.5t6 -39.5q0 -23 -16.5 -43.5t-36.5 -20.5q-14 0 -17 10.5t-8 16.5q-6 8 -16 15t-10 22q0 16 3 53t7 83t8 93t6 84 q2 16 -1 31.5t-15 21.5q-68 35 -119 89.5t-51 115.5zM154 553q0 -23 18 -53.5t47 -46.5q14 -8 19.5 -2t7.5 22q2 14 3 36.5t3 46.5t3 43t1 32q2 31 -27 18q-31 -12 -53 -40.5t-22 -55.5z" />
<glyph unicode="&#xa3;" horiz-adv-x="811" d="M-8 135q0 29 13 63.5t40 64.5t66 51.5t90 23.5q8 0 26.5 -2t32.5 -2q18 0 29 14q27 35 38 66.5t11 85.5q0 6 -9.5 16t-17.5 10q-10 0 -30.5 -3t-43 -6t-44 -6t-29.5 -3q-20 0 -34.5 11t-14.5 44q0 16 14 22.5t37 14.5q12 4 37.5 4t42.5 4q16 4 24.5 15.5t-0.5 23.5 q-18 29 -39.5 63.5t-21.5 71.5q0 61 25.5 116.5t71.5 95.5t109.5 63.5t137.5 23.5q25 0 48.5 -3t43 -11t31.5 -22.5t12 -34.5q0 -23 -19.5 -37.5t-41.5 -14.5q-6 0 -18.5 5.5t-27 11.5t-29.5 11t-26 5q-66 0 -109.5 -19.5t-70.5 -49t-38 -65.5t-11 -69q0 -35 24.5 -76.5 t51.5 -64.5q12 -10 22.5 -15t26.5 -3q23 2 58.5 5t71.5 6t66.5 5t45.5 2q37 0 52 -5t15 -21t-14 -19q-8 -2 -13.5 -8t-21.5 -6q-72 0 -127 -8.5t-102 -16.5q-35 -6 -35 -33q2 -84 -17.5 -130t-27.5 -60q-10 -20 -8 -28.5t12 -18.5q25 -18 49.5 -49t44.5 -78t55 -72.5 t70 -25.5q20 0 38.5 10t33 34.5t23.5 66.5t9 108q0 27 17.5 42t34.5 15q25 0 34 -22.5t9 -38.5q0 -82 -19.5 -141.5t-49.5 -99.5t-65.5 -59.5t-70.5 -19.5q-33 0 -65.5 17.5t-61.5 45t-52.5 60.5t-39.5 66q-12 23 -32 32t-28 -16q-27 -82 -82 -132t-114 -50t-91 31.5 t-32 117.5zM72 119q0 -29 11 -42.5t21 -13.5q25 0 49.5 15.5t43 37t30 45t11.5 40.5q0 29 -17.5 36t-30.5 7q-25 0 -47 -12.5t-37.5 -32t-24.5 -41t-9 -39.5z" />
<glyph unicode="&#xa4;" horiz-adv-x="663" d="M23 330q0 16 21.5 36.5t59.5 28.5q16 4 17 17q0 12 -27 12q-31 0 -49 13.5t-18 25.5q0 18 18 28.5t18 14.5q0 16 19.5 24.5t67.5 18.5q20 6 32 29q78 137 174.5 220t214.5 83q20 0 41 -10.5t38.5 -25t27.5 -31.5t10 -30q0 -47 -43 -47q-16 0 -33.5 16.5t-42.5 16.5 q-55 0 -113.5 -34t-133.5 -130q-8 -10 -5.5 -18t21.5 -8q8 0 26.5 2t40 4l43 4t33.5 2h39t43.5 -2t34.5 -7t14 -14q0 -20 -14 -20q-10 0 -18 -8q-4 -4 -24.5 -7.5t-25.5 -3.5q-78 0 -144.5 -14t-119.5 -33q-12 -6 -25.5 -14t-13.5 -23q0 -12 4.5 -18t20.5 -6q8 0 30.5 3 t50 6t57.5 6t54 3q6 0 12.5 -1t14.5 -1q4 0 28.5 3t28.5 3q35 0 48.5 -10t13.5 -20q0 -12 -4 -14.5t-19 -12.5q-4 -4 -16 -4q-35 0 -80 -6t-91 -14.5t-88 -17.5t-67 -15q-18 -4 -24 -17.5t-6 -29.5q0 -66 25.5 -104t60.5 -38q18 0 43.5 7.5t49 16.5t42 18.5t22.5 13.5 q10 12 28.5 9t18.5 -26q0 -16 -9 -24.5t-22.5 -15.5t-25.5 -14t-18 -20q-10 -23 -51.5 -43t-94.5 -20q-29 0 -57.5 14.5t-52 42t-41 70.5t-19.5 98q0 27 -24 27q-39 0 -43 10t-4 25z" />
<glyph unicode="&#xa5;" horiz-adv-x="534" d="M53 426q0 25 7.5 51.5t20.5 50t33.5 39t47.5 15.5q12 0 24.5 -5.5t22.5 -9.5q17 -6 35 8q25 20 44 34t46 14t59.5 -28t32.5 -69q0 -16 -3 -32.5t-5 -32.5q-2 -10 3 -19.5t11 -17.5q16 -18 27.5 -38.5t11.5 -33.5q0 -23 -3 -26.5t-15 -3.5t-13.5 6t-9.5 18q-4 8 -10 16 q-4 6 -9 12.5t-10 8.5q-4 2 -12 4t-12 -6q-23 -61 -73 -98t-103 -37q-10 0 -22.5 4t-16.5 16q-4 10 -1 14.5t-9 8.5q-12 2 -30 14t-33 30.5t-25.5 42t-10.5 50.5zM117 426q0 -49 32.5 -80t71.5 -31q6 0 8 3.5t-2 7.5q-47 12 -47 88q0 41 15 69q12 27 -13 27q-35 0 -50 -28.5 t-15 -55.5zM262 420q0 -14 8.5 -22.5t12.5 -8.5t17 2t17 8q14 31 -26 56q-4 4 -11.5 -0.5t-11.5 -8.5q-6 -10 -6 -26zM307 532q-4 -6 4 -14t17 -12q16 -10 25 -9t14 5q8 8 -5.5 25.5t-17.5 17.5q-10 0 -18.5 1t-18.5 -14z" />
<glyph unicode="&#xa6;" horiz-adv-x="610" d="M51 762q0 72 48 119t130 90q18 10 22.5 23.5t4.5 45.5q0 25 10 32t27 7q16 0 26.5 2t17.5 1t11 -9t6 -29q2 -10 19.5 -14t38.5 -2q27 4 51 10t49 6q70 0 70 -51q0 -18 -2 -26.5t-2 -26.5q0 -90 -4.5 -153.5t-8.5 -141.5q-4 -35 27 -41q23 -6 22 -22q0 -8 -6 -20.5 t-20 -22.5q-10 -8 -21.5 -11.5t-13.5 -19.5q-10 -88 -21.5 -174t-22.5 -160t-23.5 -129t-20.5 -82q-4 -14 -16.5 -40.5t-40.5 -26.5q-16 0 -24.5 10t-12.5 25.5t-5 33t-1 33.5q0 18 1 26.5t4 12.5t6 9t7 15q16 49 38.5 159t45.5 290q2 25 -25 33q-14 4 -37.5 11t-46.5 11 q-16 2 -19 -5t-5 -19q-6 -63 -13.5 -102.5t-14.5 -65t-15 -46t-17 -48.5q0 -2 -6 -26t-12 -51.5t-11 -51.5l-5 -23v-12.5t4 -12.5l-3 -36q-3 -35 -7.5 -77t-8.5 -78t-4 -38q0 -35 -9.5 -48t-29.5 -13q-33 0 -49 19t-16 50q0 45 15 96.5t35.5 127t42 185t36.5 273.5 q4 37 -23 49q-70 27 -121 67t-51 83zM119 776q0 -35 29.5 -60.5t70.5 -41.5q31 -12 37 20q6 47 8 87t2 96q0 29 -24 18q-47 -23 -85 -44.5t-38 -74.5zM344 666q0 -14 5 -23.5t22 -13.5q18 -4 41 -7.5t37 -3.5t23 4.5t9 20.5q6 68 9.5 125t3.5 150q0 27 -23 26 q-10 0 -25.5 -2l-31 -4t-27.5 -4t-16 -4q-12 -4 -14.5 -17.5t-4.5 -27.5q-4 -57 -6 -107.5t-2 -111.5z" />
<glyph unicode="&#xa7;" horiz-adv-x="819" d="M-6 442q0 14 22.5 37t51 43.5t57.5 35.5t41 20q14 4 18 22q25 104 66 186t88 137.5t95 84t85 28.5q70 0 114 -41t44 -129q0 -66 -20.5 -99.5t-30.5 -59.5q-18 -53 -51 -97.5t-67 -81t-58.5 -69.5t-24.5 -64q0 -35 20.5 -60.5t55.5 -49t84 -46t108 -51.5q39 -18 79 -52 t40 -95q0 -70 -36 -108.5t-85 -58t-103.5 -25t-90.5 -5.5q-14 0 -36 8.5t-47.5 19.5t-54 21.5t-55.5 14.5q-23 4 -32 14t-9 15q0 6 -5 10t-5 12q0 29 35 29q8 0 26.5 -8.5t46 -17.5t64.5 -16t84 -7q33 0 68.5 2t65.5 11t49.5 30.5t19.5 62.5q0 16 -10.5 31.5t-24.5 28 t-29.5 21.5t-25.5 13q-49 20 -101.5 41t-94.5 47.5t-68.5 64.5t-26.5 95q0 53 41 104.5t89 107.5t89 118.5t41 138.5q0 29 -10.5 44t-25.5 21.5t-30.5 6.5h-25.5q-61 0 -104.5 -49.5t-73 -118t-47 -145t-29.5 -132.5q-16 -76 -26.5 -160.5t-19 -164.5t-11.5 -147.5 t-3 -106.5q0 -123 -15 -239t-54 -195q-4 -8 -17.5 -17.5t-19.5 -9.5q-14 0 -22.5 9t-13.5 20.5t-6 22.5t-1 16q0 29 9 50t21.5 49t21.5 66.5t9 104.5q0 96 4 181t11.5 167t17.5 161t25 163q4 27 -17 16q-16 -8 -27.5 -11t-11.5 -30q0 -14 -15 -25.5t-46 -11.5q-29 0 -36 8.5 t-7 42.5z" />
<glyph unicode="&#xa8;" horiz-adv-x="901" d="M55 213q0 61 17.5 136t48.5 154t73 158.5t91 151.5q6 10 -2 10q-31 0 -41.5 14.5t-10.5 20.5q0 18 11.5 36.5t52.5 29.5q16 4 40.5 8t31.5 12q18 25 40.5 50.5t46 47t45 35t33.5 13.5q39 0 52.5 -19.5t13.5 -42.5q0 -14 -26.5 -44t-43.5 -54q-8 -12 4 -15 q37 -8 90.5 -32.5t102.5 -63.5t84 -92t35 -119q0 -160 -69.5 -293t-166 -230t-197 -151.5t-161.5 -54.5q-23 0 -48.5 13.5t-49 35t-42 50t-26.5 57.5q-6 25 -4 42t-4 40q-8 23 -14.5 45t-6.5 51zM131 121q0 -29 10.5 -34t10.5 -11q10 -41 31 -74t44 -37q18 -4 25 19 q6 31 18.5 90t23.5 128.5t19.5 142.5t8.5 134q0 70 -10.5 101.5t-10.5 54.5q0 18 14.5 39.5t28.5 21.5t28.5 -2t18.5 -20q4 -16 19 2q27 31 61.5 42t71.5 11q49 0 80.5 -29.5t31.5 -85.5q0 -47 -18.5 -83.5t-48 -68.5t-67.5 -60.5t-77 -57.5q-10 -6 0 -20q6 -10 15.5 -25.5 t15.5 -26.5q8 -10 16.5 -25.5t18.5 -25.5q8 -10 22.5 -25.5t32.5 -25.5q20 -12 35 6q66 84 108 185.5t42 230.5q0 63 -37 110.5t-88.5 78t-102.5 45t-78 14.5q-6 0 -19 -7.5t-24 -17.5q-47 -51 -95 -116.5t-87 -142.5t-62.5 -163t-23.5 -176q0 -16 -1 -49t-1 -47zM332 6 q-7 -28 28 -18q29 10 71 32.5t71 51.5q6 4 10 15t-2 22q-12 18 -28.5 41.5t-35.5 37.5q-4 4 -8 6.5t-8 6.5q-10 10 -20.5 30.5t-16.5 30.5q-14 23 -18 -6q-4 -27 -10.5 -60.5t-12.5 -68.5t-11 -67.5t-9 -53.5zM399 426q1 -16 13 -10q27 14 54.5 33.5t50 43t36.5 49t14 50.5 q0 47 -47 47q-37 0 -74.5 -27.5t-37.5 -76.5q0 -23 -2.5 -46.5t-6.5 -62.5z" />
<glyph unicode="&#xa9;" horiz-adv-x="811" d="M16 150q0 61 20.5 136.5t54.5 159.5t79 171.5t94 170.5q4 10 0 11q-10 4 -16 13t-6 15q0 20 13 33.5t30.5 23t35 17.5t27.5 21q35 47 71 84.5t62 37.5q41 0 54.5 -19t13.5 -42q0 -16 -20.5 -38.5t-20.5 -37.5q0 -16 14 -20q39 -12 83 -46t82 -83t62.5 -110.5t24.5 -127.5 q0 -106 -29.5 -199.5t-76.5 -171t-107.5 -140t-122 -105.5t-118 -65.5t-97.5 -22.5q-23 0 -48 11t-49 30.5t-43.5 45t-27.5 54.5q-4 14 -6 26.5t-4 16.5q-4 10 -3 20.5t-3 22.5q-2 6 -4 13t-2 12q-2 14 -9.5 39.5t-7.5 42.5zM94 154q0 -35 8.5 -79t24.5 -83t44 -64.5 t65 -25.5q49 0 124.5 36.5t146.5 112.5t122 188.5t51 264.5q0 68 -27.5 126t-67.5 99t-83 64.5t-76 23.5q-8 0 -21.5 -6t-23.5 -18q-49 -72 -99.5 -147t-92.5 -154.5t-68.5 -163.5t-26.5 -174zM162 205q0 57 31.5 132t82 142.5t115 113.5t129.5 46q18 0 36.5 -10.5t32 -23.5 t23 -28.5t9.5 -27.5q0 -43 -39 -43q-16 0 -28.5 16.5t-35.5 16.5q-35 0 -81 -31t-87 -80t-70.5 -111.5t-29.5 -126.5q0 -63 61 -63q12 0 29.5 9t36 21.5t34 27t23.5 24.5q10 10 23.5 9t13.5 -19q0 -6 -8 -15.5t-12 -13.5q-10 -10 -13.5 -16.5t-7.5 -22.5q-4 -8 -13 -25.5 t-14 -23.5q-10 -20 -49.5 -33.5t-70.5 -13.5q-23 0 -45.5 8t-39 27.5t-26.5 52.5t-10 82z" />
<glyph unicode="&#xaa;" horiz-adv-x="1183" d="M-16 805q0 29 9 48t48 42t113.5 56.5t207.5 90.5q27 12 66 26.5t75 27t62.5 20.5t30.5 8q53 0 76.5 -26.5t36.5 -110.5q4 -27 13 -74t19.5 -96t20.5 -92t14 -59t9.5 -30.5t15.5 -14.5q8 0 11 7t7 17q10 27 32.5 80t49.5 112.5t53.5 118t44.5 95.5q20 39 41 49t45 10 q63 0 64 -76q0 -10 -3 -52t-7 -94t-7.5 -104.5t-3.5 -83.5q0 -10 1 -25.5t4 -35.5v-29q0 -6 4 -23.5t4 -21.5q0 -10 -1 -14t-1 -8q0 -10 5 -17.5t5 -17.5q0 -20 -10.5 -41t-38.5 -21q-16 0 -28.5 10.5t-22 39t-14.5 79t-5 130.5q0 16 2 49.5t3 68.5t3 66t2 43q0 16 -5 20 t-13 -10q-12 -23 -31.5 -73t-39 -105t-36 -101.5t-20.5 -60.5q-23 -68 -50.5 -98.5t-56.5 -30.5t-51 56.5t-38.5 129t-26.5 140t-17 92.5q-4 16 -12 14t-8 -18q0 -20 -3 -72.5t-6 -111t-5.5 -109.5t-2.5 -68q0 -14 7.5 -26.5t7.5 -22.5q0 -33 -27 -53q-8 -6 -16 -7t-19 -1 q-29 0 -39 16.5t-10 44.5q0 10 2 45t5 84t7.5 103.5t7.5 103.5t5 86t2 49v42t-10 26q-16 0 -41 -7.5t-49.5 -16.5t-46 -18t-29.5 -16q-12 -8 -14.5 -13t-2.5 -7q0 -4 5.5 -5t10.5 -4t10 -10.5t5 -23.5q0 -4 -9 -39t-9 -76q0 -23 -3 -59.5t-6.5 -75.5t-6.5 -72.5t-3 -52.5 q0 -18 1 -29.5t1 -15.5q0 -29 -7 -32t-15 -17q-4 -10 -17.5 -26.5t-17.5 -16.5q-23 0 -32 13.5t-11 31.5t0 37.5t2 30.5q0 4 3 34.5t3 57.5q0 10 1 54t1 94t1 91t1 47q0 14 -8 20.5t-31 -3.5q-37 -16 -64.5 -40t-51 -47.5t-42 -39.5t-32.5 -16q-16 0 -34.5 13t-18.5 44z" />
<glyph unicode="&#xab;" horiz-adv-x="491" d="M360 948q0 8 18.5 26.5l43 43l51.5 51.5t43 51q12 18 31.5 30.5t48.5 12.5q31 0 42 -21.5t11 -43.5q0 -31 -37 -64t-83 -59.5t-87 -44t-47 -17.5q-25 0 -30 9.5t-5 25.5z" />
<glyph unicode="&#xac;" horiz-adv-x="716" d="M395 1022q0 18 16.5 44t61.5 26q31 0 55.5 -15.5t24.5 -56.5q0 -53 -25.5 -77.5t-48.5 -24.5q-33 0 -33 7v23q0 14 -8 20.5t-17 12.5t-17.5 15.5t-8.5 25.5zM723 1004q0 25 23.5 42t54.5 17t52 -21.5t21 -62.5q0 -25 -12 -44.5t-29.5 -32.5t-33 -20.5t-21.5 -7.5 q-4 0 -11 2.5t-7 12.5q0 8 5 24.5t-15 30.5q-10 8 -18.5 21.5t-8.5 38.5z" />
<glyph unicode="&#xad;" horiz-adv-x="1103" d="M11 -124q1 7 5 13q10 16 27.5 23.5t17.5 32.5q0 39 21 67q43 59 70.5 99.5t50 76t45 74.5t53.5 96q23 45 17.5 61.5t-21.5 35.5q-27 33 -53.5 59.5t-55.5 50.5q-6 6 -20 19.5t-29.5 28t-27 28.5t-13.5 23q-4 12 -3 17t-3 13q-8 16 6 35q4 4 14.5 15.5t22.5 13.5 q16 4 33.5 -1t21.5 -20q2 -16 12.5 -21t24 -5t27.5 1t27 -3q4 -2 15 -6.5t11 -6.5q27 -20 51.5 -29.5t57.5 -13.5q27 -4 34 7.5t13 25.5q16 35 37.5 82t44 97t47 99.5t47.5 90.5q4 6 10 18t14.5 24.5t19.5 21.5t24 9q27 0 43 -6t36 -16q16 -8 21.5 -24.5t5.5 -36t-2 -39 t-2 -35.5q-6 -111 -6 -204t4 -189q0 -33 4 -42.5t37 -19.5q76 -23 134 -42t81 -25q16 -8 29.5 -20t5.5 -30q-8 -16 -29.5 -11t-52.5 15q-29 12 -72 21.5t-94 21.5q-16 4 -26.5 -4t-6.5 -24q4 -18 5 -38t3 -40q0 -8 5.5 -14.5t21.5 -1.5l70 28q14 6 34.5 7t20.5 -9 q0 -8 -6 -16t-33 -23q-16 -6 -35.5 -19t-40.5 -28q-25 -16 -22 -63q4 -57 11 -122t17 -136q0 -12 6.5 -22.5t10.5 -22.5q4 -20 -8.5 -39t-42.5 -25q-27 -6 -44.5 7.5t-21.5 27.5q0 2 -2 2q-4 6 -13.5 17.5t-11.5 17.5q-12 33 -28.5 53.5t-33.5 37.5t-34.5 32.5t-36.5 40.5 l-18 24t-13.5 8t-18.5 -6t-32 -18q-55 -33 -108 -63.5t-99.5 -58.5t-82 -49.5t-56.5 -35.5q-14 -10 -28.5 -18.5t-28.5 -14.5q-10 -4 -18.5 -1t-16.5 1q-10 0 -31.5 -5t-25.5 1t-8.5 11t-6.5 10q-6 14 -5 21zM203 -3q8 -7 12 -3q55 25 131 59.5t154 81.5q37 20 18 51 q-25 41 -56.5 79t-64.5 75q-10 12 -24.5 15t-28.5 -25q-37 -78 -74 -153t-65 -144q-10 -29 -2 -36zM321.5 580.5q-6.5 -5.5 4.5 -17.5l30 -39q8 -10 16.5 -12t12.5 8l12 23q8 25 -18 30l-37 9q-14 4 -20.5 -1.5zM416 448q4 -14 18 -30q43 -47 79 -97.5t75 -97.5 q14 -18 24.5 -20t26.5 8q23 12 45.5 24.5t42.5 22.5q16 8 22.5 15.5t6.5 33.5q-2 29 -2 56.5t-2 56.5q-2 14 -14.5 37.5t-37.5 29.5l-204 56q-37 10 -54 -23l-16 -33q-14 -25 -10 -39zM513 641.5q1 -10.5 28 -29.5l151 -47q37 -2 43 7.5t4 19.5q-8 78 -18 151.5t-14 143.5 q-2 29 -13.5 32t-21.5 -14q-35 -53 -74 -113.5t-80 -129.5q-6 -10 -5 -20.5zM671 146.5q-1 -13.5 3 -19.5q14 -16 30.5 -34.5t30.5 -35.5q6 -6 15.5 -8t9.5 17v96q0 33 -8.5 36t-22.5 -8l-47 -26q-10 -4 -11 -17.5z" />
<glyph unicode="&#xae;" horiz-adv-x="1003" d="M-68 240q0 25 29 37t94 32q20 6 32.5 23.5t16.5 34.5q16 55 55.5 141t81.5 173t77.5 158.5t46.5 98.5q16 41 38.5 72.5t69.5 31.5q12 0 42 4.5t63.5 9.5t63.5 10t40 7q45 10 79 15.5t63.5 8.5t57 4t58.5 1q59 0 59 -31q0 -23 -24.5 -37t-54.5 -16q-37 -2 -70 -5 t-64.5 -8.5t-67.5 -14.5t-81 -25q-16 -6 -22.5 -15.5t-14.5 -25.5q-16 -33 -30.5 -89.5t-27 -117t-19.5 -113.5t-7 -78q0 -20 5 -28.5t26 -1.5q33 10 90 25.5t113.5 29.5t100.5 24.5t52 10.5q47 0 47 -27q0 -20 -14 -26.5t-33 -10.5q-23 -6 -31 -3t-30 -3q-37 -12 -78 -27.5 t-80 -33t-75 -32.5t-64 -26q-33 -12 -35 -49q-2 -14 -9 -44t-7 -46q0 -10 1 -20.5t1 -20.5t-2 -20.5t-2 -20.5t3 -14t5 -15q4 -14 3 -32.5t-1 -32.5q0 -16 9 -26.5t34 -10.5q16 0 42.5 8t58.5 20.5t68 30t68 35.5q14 8 36 22.5t42.5 29t37.5 25.5t28 11q41 0 41 -32 q0 -10 -9.5 -23.5t-23.5 -26t-28.5 -23.5t-24.5 -18q-35 -23 -94.5 -51t-119 -55t-108.5 -44t-63 -17q-53 0 -76 38.5t-23 114.5q0 25 4.5 51.5t4.5 53.5q2 29 3 66.5t1 53.5q0 23 -4.5 26t-28.5 -3q-37 -10 -83 -38t-93 -42q-14 -4 -24.5 -6t-14.5 -16q-8 -33 -21.5 -80 t-26 -94.5t-21.5 -85t-9 -52.5q0 -16 6 -23t6 -18q0 -18 -8 -25.5t-10 -25.5q-4 -18 -25 -18q-6 0 -11 -2t-13 -2q-45 0 -55.5 23.5t-10.5 57.5q0 14 10.5 53.5t23.5 85.5t26.5 90t19.5 68q2 6 -4 15.5t-14 9.5q-10 0 -23.5 -9t-32.5 -9q-37 0 -37 45zM215 420 q-11 -35 14 -33q8 0 27.5 6t42.5 13.5t43 15.5t33 12q16 8 28.5 21.5t14.5 27.5q6 74 22.5 148t32.5 137t29.5 108.5t13.5 61.5q0 18 -12 18t-17 -18q-4 -14 -23.5 -33.5t-29.5 -19.5q-4 0 -13 -6.5t-13 -16.5q-25 -47 -53.5 -106.5t-55.5 -120t-49.5 -116.5t-34.5 -99z" />
<glyph unicode="&#xaf;" horiz-adv-x="675" d="M-129 -293q0 14 10 44t29 56q29 43 59.5 87.5t57.5 85.5q20 31 8 67q-6 23 -10.5 49.5t-4.5 59.5q0 82 15.5 171t42 176t62.5 168t75 146q10 16 19.5 40t19.5 36q33 45 65.5 75.5t59.5 30.5q43 0 59.5 -20.5t16.5 -42.5q0 -16 -4.5 -46t12.5 -40q10 -6 21.5 -13.5 t21.5 -15.5q25 -18 41 8q14 25 37.5 63t45 78t37 78.5t15.5 63.5q0 8 8 17.5t20.5 17.5t25 13t20.5 5q37 0 51 -25.5t14 -52.5q0 -10 -8 -24t-18.5 -29.5t-21.5 -30t-17 -22.5q-41 -57 -76 -105.5t-64 -95.5q-10 -16 -12 -29.5t8 -31.5q20 -33 33.5 -75t13.5 -95 q0 -23 -4 -41.5t-10 -40t-15 -51t-22 -76.5q-18 -72 -69.5 -147.5t-114 -137t-125.5 -101.5t-106 -40q-25 0 -52 10q-14 4 -24.5 2t-18.5 -18q-14 -29 -30.5 -61.5t-32.5 -65.5q-4 -6 -17.5 -28.5t-13.5 -49.5q0 -16 -17 -34.5t-46 -18.5q-35 0 -52.5 17.5t-17.5 39.5z M113 162q0 -25 11 -32t23 11q92 139 171 269.5t151 275.5q16 31 -10 53q-23 20 -50.5 32.5t-43.5 12.5t-25.5 -6t-32.5 -35q-100 -135 -149 -272t-45 -309zM179.5 26.5q9.5 -16.5 27.5 -16.5q29 0 69.5 22.5t83.5 63.5t85 97.5t71 123.5q10 23 16.5 57t12.5 56q12 51 12 98 q0 23 -3 43.5t-9 36.5q-16 39 -35 13q-49 -76 -92 -144.5t-83 -135.5t-78 -135.5t-77 -144.5q-10 -18 -0.5 -34.5z" />
<glyph unicode="&#xb0;" horiz-adv-x="903" d="M29 215q0 61 24.5 128t64.5 138.5t90 148.5t99 161q2 4 3 10t-15 4q-41 -4 -80 -20.5t-61 -16.5q-23 0 -46.5 15.5t-23.5 37.5q0 23 11 40.5t32 23.5q10 2 44 7t73 8t71.5 6t40.5 3q31 0 47 23q78 94 125 144t84 50q41 0 51.5 -19.5t10.5 -41.5q0 -18 -19.5 -38.5 t-42 -42t-42 -41t-19.5 -34.5q0 -16 14 -20q39 -12 91.5 -53t100.5 -99.5t81.5 -127t33.5 -134.5q0 -106 -33.5 -193t-88 -156t-121 -119t-134 -84t-129 -50t-102.5 -16q-23 0 -48.5 2t-49 10t-42 22.5t-24.5 36.5q-4 14 -4 34t-2 24q-4 10 -14 36.5t-14 38.5q0 2 -4.5 11.5 t-7.5 19.5t-6 18.5t-3 10.5q-2 14 -9 46t-7 48zM104 172q0 -35 12.5 -76t36 -74.5t55 -56t68.5 -22.5q33 0 83.5 10t106.5 33.5t111.5 62.5t100.5 96.5t72.5 135t27.5 178.5q0 68 -35.5 133t-86 115.5t-102.5 81t-85 30.5q-8 0 -21.5 -6t-23.5 -18q-49 -72 -104.5 -143.5 t-103.5 -148.5t-80 -159t-32 -172zM201 268q0 35 20.5 62.5t42.5 27.5q35 0 38 -13t3 -23t-4 -25.5t-4 -32.5q0 -29 15.5 -47t36 -28.5t43 -14.5t34.5 -4q27 0 58.5 7t35.5 34q4 18 12.5 27.5t14.5 17.5t11 18.5t15 10.5t10.5 -14.5t0.5 -37.5q0 -18 -1 -38.5t-18 -38.5 q-27 -29 -65.5 -49.5t-81.5 -20.5q-41 0 -80 9t-69.5 30.5t-49 56.5t-18.5 86zM272 508q0 18 16.5 44t61.5 26q31 0 55.5 -15.5t24.5 -56.5q0 -53 -25.5 -78t-48.5 -25q-33 0 -32.5 7.5t0.5 23.5q0 14 -8.5 20.5t-17.5 12.5t-17.5 15.5t-8.5 25.5zM487 522q0 25 24 42.5 t54 17.5q31 0 59.5 -19.5t28.5 -60.5q0 -25 -15 -45.5t-33.5 -34.5t-37 -21.5t-24.5 -7.5q-4 0 -11.5 2t-7.5 13q0 8 5.5 24.5t-15.5 30.5q-10 8 -18.5 21.5t-8.5 37.5z" />
<glyph unicode="&#xb1;" d="M25 496q0 35 57 51q37 4 80 10t76 10q27 2 26 29q0 35 -18.5 65.5t-18.5 65.5q0 20 10.5 38.5t43.5 18.5q16 0 34.5 -11t26.5 -34q6 -23 13 -65.5t7 -75.5q0 -14 10.5 -15t22.5 -1q14 0 39 2t49.5 4t47 4t34.5 2q37 0 74 -9.5t37 -25.5t-14 -18q-8 -2 -13.5 -8.5 t-21.5 -6.5q-57 0 -119 -10t-109 -10q-16 0 -21 -12.5t-5 -28.5q0 -29 1 -64.5t1 -56.5q0 -37 -11.5 -55.5t-27.5 -18.5t-19 15q-2 8 -10 21t-8 30q0 29 -3 61.5t-7 69.5q-2 10 -11.5 15t-21.5 5q-29 0 -49.5 -9t-38.5 -19t-41 -19.5t-55 -9.5q-20 0 -33.5 16.5t-13.5 49.5z M35 121q0 16 17.5 29.5t39.5 21.5q41 12 102.5 20.5t126 14.5t121 8t86.5 2q18 0 41 -2t41.5 -6t31.5 -10t13 -15q0 -16 -14 -18q-8 -2 -13 -8t-22 -6q-115 0 -196.5 -14.5t-169.5 -43.5q-10 -4 -39 -6t-37 -6q-14 -6 -20.5 -11t-12.5 -8.5t-17.5 -5.5t-31.5 -2t-33.5 16.5 t-13.5 49.5z" />
<glyph unicode="&#xb2;" horiz-adv-x="716" d="M12 279q0 68 23.5 139t60.5 145t83 149.5t93 153.5q10 18 9.5 21.5t-17.5 9.5q-37 12 -70.5 17.5t-58 11.5t-40 15t-15.5 30q0 39 17.5 48t52.5 9q16 0 39.5 -5t47 -11t44 -12.5t32.5 -10.5q39 -14 52 0q39 53 77.5 88t67.5 35q43 0 51 -14.5t8 -38.5q0 -8 -15 -23.5 t-34.5 -33t-35 -32t-15.5 -22.5q0 -16 14 -22q33 -14 78 -51t85 -88.5t68.5 -114t28.5 -125.5q0 -109 -58 -219.5t-143 -199.5t-179 -144.5t-168 -55.5q-49 0 -91.5 26t-42.5 60q0 14 -10 39t-10 29q0 14 -1 36.5t-1 37.5q0 33 -4 50t-9.5 27.5t-9.5 19.5t-4 26zM92 242 q0 -33 5 -72t19.5 -73t38 -57.5t60.5 -23.5q41 0 112.5 30t140.5 92.5t120 159.5t51 232q0 59 -26.5 119t-63.5 107t-79 76.5t-73 29.5q-8 0 -19 -5t-26 -26q-35 -49 -80 -116.5t-85 -145t-67.5 -161.5t-27.5 -166zM102 266q0 33 21 43t41 10q29 0 51.5 -3t50.5 -15 q8 -4 18.5 -10t20.5 -10t20.5 -4.5t20.5 -4.5t23.5 -9t23.5 -7q20 -2 34.5 -3t47.5 -1q16 0 21.5 -6t13.5 -8q14 -2 14 -19q0 -16 -36.5 -25.5t-73.5 -9.5q-6 0 -37 3t-71 7.5t-80 10.5t-66 10q-25 4 -41.5 19.5t-16.5 31.5zM205 522q0 16 27.5 31.5t50.5 15.5q10 0 24.5 -1 t26.5 -6t21.5 -17.5t9.5 -34.5q0 -31 -30 -47.5t-52 -16.5q-57 0 -67.5 20.5t-10.5 55.5zM422 485q0 10 8 25.5t21.5 29t29 23.5t29.5 10q12 0 26.5 -8t28 -22.5t21.5 -30.5t8 -31q0 -31 -29.5 -52t-70.5 -21q-16 0 -28.5 10t-23 22.5t-15.5 25.5t-5 19z" />
<glyph unicode="&#xb3;" horiz-adv-x="811" d="M8 313q0 68 29 134.5t72 133t94 137t98 148.5q10 18 6 23.5t-14 7.5q-14 2 -31.5 6t-34 10.5t-28 15.5t-11.5 21q0 39 17.5 48.5t52.5 9.5q16 0 38.5 -5.5t45.5 -13.5q39 -14 51 0q23 23 44.5 50.5t49.5 27.5q43 0 51.5 -14.5t8.5 -38.5q0 -8 -8.5 -16.5t-17.5 -16.5 t-16 -16.5t-7 -16.5q0 -16 14 -22q33 -14 80 -57.5t91 -101.5t74.5 -127t30.5 -132q0 -72 -28.5 -143.5t-74.5 -136t-106.5 -120t-123 -95.5t-123 -62.5t-109.5 -22.5q-25 0 -51.5 12.5t-48 31t-35.5 40t-14 39.5q0 27 -10.5 65t-22.5 75.5t-22.5 70.5t-10.5 51zM88 276 q0 -33 10.5 -76.5t31 -84.5t49 -70t65.5 -29q27 0 70.5 13.5t94 40t100.5 67.5t91 98.5t66.5 130t25.5 162.5q0 59 -29.5 119t-72.5 108t-88 77.5t-76 29.5q-8 0 -19.5 -5t-25.5 -26q-35 -49 -85 -111.5t-96 -134t-79 -149.5t-33 -160zM131 240q0 10 8 22t13 27 q4 14 27.5 48t53 67.5t60.5 59t51 25.5q23 0 35 -18t33 -55q2 -4 4 -12.5t4 -12.5q29 -94 43 -146t14 -75q0 -18 -8 -18q-10 0 -20 18q-4 4 -9.5 6t-9.5 12q-16 49 -37.5 84t-27.5 70q-4 20 -10.5 25.5t-20.5 5.5q-4 0 -24.5 -9.5t-20.5 -19.5q0 -12 -20.5 -20.5 t-26.5 -26.5q-6 -20 -10.5 -31.5t-4.5 -19.5q0 -25 -13 -36t-36 -11q-47 0 -47 41zM256 598q0 37 31.5 69.5t66.5 32.5q23 0 37.5 -11t14.5 -50q0 -23 -8.5 -35t-17.5 -19t-17.5 -12.5t-8.5 -11.5q0 -12 15.5 -15t25.5 -3q37 0 65.5 21.5t35.5 62.5q6 39 34 39 q14 0 34 -10.5t35 -27t26.5 -36t11.5 -37.5q0 -53 -20.5 -62.5t-47.5 -9.5q-8 0 -21 5.5t-25.5 12.5t-20.5 15t-8 16q0 10 -3.5 12.5t-7.5 2.5q-27 0 -69.5 -17.5t-100.5 -17.5q-41 0 -49 25.5t-8 60.5z" />
<glyph unicode="&#xb4;" horiz-adv-x="737" d="M20 322q0 16 16.5 32.5t41.5 18.5q41 4 99.5 10t98.5 14q23 4 34.5 16.5t11.5 28.5q0 10 -8.5 18.5t-8.5 14.5q0 4 -5 11.5t-9 11.5q-18 20 -46 48.5t-57.5 58.5t-57.5 58.5t-46 53.5q-10 14 -34.5 40.5t-24.5 57.5q0 29 23.5 45.5t45.5 16.5q8 0 13.5 -4.5t11.5 -4.5 q12 0 19 -8t10.5 -18.5t5.5 -20.5t6 -14q4 -6 16 -27.5t33.5 -55.5t52.5 -77t74 -88q10 -10 22 -10q16 0 25 10q18 20 53 66.5t70 97.5t65.5 95t40.5 61q23 35 42.5 59.5t37.5 24.5q4 0 8.5 -5.5t8.5 -5.5q47 0 47 -49q0 -25 -6.5 -38t-15.5 -21t-21.5 -15.5t-22.5 -19.5 q-14 -16 -44 -52t-63.5 -79t-66.5 -84t-51 -64q-4 -6 -14.5 -15t-19.5 -18.5t-16 -18.5t-7 -15q0 -25 7 -31t36 -2q43 6 71 6q18 0 49 -2t59.5 -6t50 -10t21.5 -15q0 -16 -14 -18q-8 -2 -24.5 -7t-32.5 -5q-20 0 -47 -2t-53.5 -5.5t-51 -6.5t-41.5 -5q-35 -6 -45 -15 t-10 -46t5 -55.5t28 -18.5h24.5t37 1t39 1h30.5q37 0 78 -10t41 -27q0 -16 -15 -18q-4 0 -16 -4t-27.5 -7t-30 -6.5t-22.5 -3.5q-45 0 -89 4.5t-60 0.5q-10 0 -13.5 -11.5t-3.5 -21.5q0 -82 11.5 -125t11.5 -68q0 -43 -19.5 -63.5t-44.5 -20.5q-27 0 -40 20.5t-13 53.5 q0 18 1 68.5t5 97.5q0 14 -7 21.5t-15 2.5q-23 -10 -64 -18t-65 -8q-20 0 -39 10t-19 43q0 16 24.5 34.5t47.5 27.5q6 2 20.5 5t30.5 5t31.5 3t23.5 1q23 0 32 22.5t9 46.5q0 29 -3 36t-19 3q-10 -4 -20.5 -4t-20.5 -4t-20.5 -10t-18.5 -10q-29 -12 -63.5 -21.5t-77.5 -9.5 q-20 0 -34 16.5t-14 49.5z" />
<glyph unicode="&#xb5;" horiz-adv-x="716" d="M16 -49q0 25 6.5 77t14.5 117.5t19.5 137t21.5 136t18 115t13 72.5q2 16 12 42t24.5 49.5t32 41t37.5 17.5q18 0 31.5 -5.5t15.5 -17.5q2 -14 5 -20t5 -10.5t4.5 -9.5t2.5 -13t-13.5 -28.5t-31 -45t-34 -48t-20.5 -38.5q-37 -106 -43 -186t-6 -113q0 -23 10.5 -42t38.5 5 q31 31 77 87.5t94 120t92 123.5t71 101q31 47 49.5 61.5t34.5 14.5q18 0 28.5 -18.5t15.5 -45t6 -55t3 -47.5q0 -10 -3 -20t-3 -21q2 -33 3 -56t3 -43.5t3 -39t1 -39.5q0 -18 4.5 -44.5t10.5 -53.5t10 -50.5t4 -37.5q0 -33 -19.5 -52.5t-48.5 -19.5q-16 0 -33.5 9.5 t-17.5 52.5q0 49 -1 102t-3 101t-5 84t-5 51q-6 25 -10 24q-12 0 -21 -14q-10 -16 -27.5 -32.5t-27.5 -33.5q-16 -23 -41 -34t-41 -33q-27 -37 -38 -80t-36 -74q-16 -18 -49 -34.5t-47 -31.5q-31 -29 -51.5 -42t-32.5 -25t-17.5 -30.5t-5.5 -55.5q0 -16 8.5 -47t18.5 -66 t18.5 -70.5t8.5 -60.5q0 -29 -23.5 -46t-56.5 -17q-23 0 -43.5 69.5t-20.5 235.5z" />
<glyph unicode="&#xb6;" horiz-adv-x="516" d="M-72 1018q0 45 56 49q25 2 58.5 -19.5t70.5 -52t75.5 -64.5t73.5 -59q6 -4 10 -7t9.5 -5t14.5 -2h28q35 0 50 -19.5t11 -29.5q-10 -25 10 -35q16 -8 38 -24.5t41.5 -44t32.5 -67.5t13 -95q0 -37 -22.5 -95.5t-59.5 -123t-82 -129t-90 -116.5t-84.5 -85t-64.5 -33 q-45 0 -77 43t-32 129q0 49 22.5 128t54.5 163t67.5 165t60.5 136q8 16 7 24.5t-15 22.5q-49 55 -99.5 93t-89.5 65.5t-63.5 48t-24.5 39.5zM90 131q0 -47 13.5 -59.5t27.5 -12.5t41 26t59.5 68t65.5 94t60.5 103t45 97.5t17.5 76.5q0 66 -26.5 109t-65.5 63q-8 4 -17.5 -2 t-13.5 -16q-14 -31 -48 -100.5t-70 -152.5t-62.5 -164t-26.5 -130z" />
<glyph unicode="&#xb8;" horiz-adv-x="2416" d="M27 420q0 33 15 67.5t47 63.5t79 46t108 17q178 0 314.5 -38.5t228.5 -75.5q43 -16 51 18q6 29 23.5 57.5t48.5 51t74 37t102 14.5q94 0 225.5 -44t275.5 -97.5t290.5 -96.5t269.5 -43q20 0 42 4.5t40 16.5t29.5 36.5t11.5 65.5q0 10 7 18.5t11 14.5q6 14 12.5 24.5 t16.5 10.5t20.5 -7.5t12.5 -21.5q2 -10 8 -17t6 -26q0 -55 -22.5 -96t-56 -67.5t-72.5 -39t-74 -12.5q-66 0 -159 18.5t-188 44t-181.5 53t-139.5 46.5q-23 8 -22.5 3t6.5 -20q16 -39 3 -71.5t-47 -57t-82 -38t-99 -13.5q-113 0 -225.5 40t-232.5 88t-251 88t-281 40 q-141 0 -141 -92q0 -43 17.5 -69.5t17.5 -43.5q0 -10 -5.5 -17t-15.5 -7q-25 0 -32 17.5t-23 17.5q-14 0 -20 6q-16 12 -29.5 34.5t-13.5 51.5zM981 514q0 -6 2 -16.5t10 -14.5t14.5 -18t6.5 -25q0 -14 20 -20q51 -18 119 -38t117 -20q55 0 85.5 14.5t46 33t24 34t18.5 17.5 q16 4 14 12t-24 16q-31 10 -74 26.5t-89 32t-88 27t-69 11.5q-80 0 -105.5 -21.5t-27.5 -50.5z" />
<glyph unicode="&#xb9;" horiz-adv-x="1986" d="M25 401q0 33 15 68t47 63.5t79 46t108 17.5q106 0 201.5 -29.5t188.5 -66.5q43 -16 51 18q14 57 76.5 96t160.5 39q115 0 219.5 -33.5t200.5 -73.5t188.5 -74t184.5 -34h46t48.5 9.5t37.5 31t15 62.5q0 10 7.5 30.5t11.5 26.5q6 14 7 22.5t11 8.5q23 0 27 -33 q2 -10 4 -15.5t2 -23.5q0 -55 -22.5 -96t-56.5 -67.5t-72.5 -39t-73.5 -12.5q-45 0 -97.5 12.5t-109.5 30.5t-114.5 41t-110.5 41q-23 8 -33 3t-2 -21q18 -39 -1.5 -70t-56 -51.5t-81 -31.5t-72.5 -11q-86 0 -186.5 33.5t-204 75.5t-206 76t-192.5 34q-141 0 -141 -92 q0 -43 17.5 -70t17.5 -43q0 -10 -5.5 -17.5t-15.5 -7.5q-25 0 -32 17.5t-23 17.5q-14 0 -20 6q-16 12 -29.5 35t-13.5 51zM834 502q0 -6 5 -14.5t13 -12.5t19.5 -19.5t11.5 -25.5q0 -14 20 -20q51 -18 83 -23.5t81 -5.5q45 0 65.5 11t33 25.5t24.5 29t43 22.5q16 4 11 12 t-27 17q-31 10 -67 21t-72 20.5t-69.5 15.5t-60.5 6q-59 0 -85.5 -15.5t-28.5 -43.5z" />
<glyph unicode="&#xba;" horiz-adv-x="368" d="M-14 -610.5q2 16.5 14 53.5q31 90 53.5 215t42 266.5t38 289.5t43 287.5t57 260.5t79.5 207q39 82 88.5 128t114.5 46q35 0 70 -15.5t35 -46.5q0 -6 -9.5 -25.5t-21.5 -19.5q-20 0 -48 -9t-57 -36q-39 -35 -69.5 -71.5t-55.5 -98.5q-51 -127 -74.5 -280.5t-43 -318.5 t-46 -334t-83.5 -324q-2 -6 -11.5 -21.5t-19.5 -35t-21.5 -40t-17.5 -36.5q-12 -33 -19.5 -45.5t-23.5 -12.5t-14 16.5z" />
<glyph unicode="&#xbb;" horiz-adv-x="655" d="M14 281q0 8 9.5 16t23.5 15t28.5 13.5t26.5 10.5q41 12 98.5 20.5t116 12.5t110.5 6t83 2q18 0 39.5 -1t39 -4t30 -8.5t12.5 -13.5q0 -10 -11.5 -17t-27.5 -7q-57 0 -96 -1t-73 -5.5t-67.5 -12.5t-76.5 -22q-4 -2 -17.5 -6.5t-28 -9.5t-26.5 -9t-17 -6 q-29 -12 -57.5 -25.5t-71.5 -13.5q-20 0 -33.5 16.5t-13.5 49.5zM121 604q0 23 14.5 67t41 97t61 107.5t74.5 99.5t84 73.5t87 28.5q31 0 44.5 -21.5t13.5 -51.5q0 -10 8 -11q37 0 47 -22.5t10 -65.5q0 -8 -1 -33.5t-1 -56.5t-1 -61.5t-1 -46.5q0 -33 3 -56.5t7 -42t7.5 -35 t3.5 -34.5q0 -14 -11.5 -33t-33.5 -19q-25 0 -49.5 18.5t-24.5 43.5q0 57 5 126.5t5 131.5q0 23 -9 18.5t-16 -14.5q-16 -25 -35.5 -49.5t-35.5 -54.5q-10 -18 -25.5 -53.5t-40 -70t-60.5 -61t-87 -26.5q-37 0 -60.5 29.5t-23.5 78.5zM227 664q0 -8 6.5 -29t22.5 -21 q10 0 28.5 15.5t38 38t39 49t31.5 49.5q20 37 40 72.5t40 64.5q8 12 0 19q-12 8 -15 22t-18 14q-35 0 -71.5 -36.5t-68.5 -86t-52.5 -98.5t-20.5 -73z" />
<glyph unicode="&#xbc;" horiz-adv-x="555" d="M23 346q0 16 20 33.5t45 17.5q117 0 201 8.5t145 8.5q37 0 63.5 -4t26.5 -21q0 -18 -14 -18h-82q-10 0 -23.5 -6.5t-23.5 -10.5t-20.5 -4t-20.5 -4q-16 -6 -53 -13t-77 -13.5t-74 -11.5t-46 -5q-20 0 -43.5 10.5t-23.5 32.5zM176 578q0 72 28.5 155.5t68.5 155.5t84 120 t73 48q31 0 45 -14.5t14 -28.5q0 -16 -14 -41t-31 -31q-8 -4 -8 -6q0 -4 8 -6q29 -6 48.5 -35t19.5 -78q0 -55 -28.5 -113.5t-70.5 -106.5t-88 -79t-79 -31t-51.5 20.5t-18.5 70.5zM252 602q0 -23 5 -29t11 -6q12 0 36 21.5t48.5 54.5t43 74t18.5 80q0 25 -7.5 34t-13.5 9 q-4 0 -9 -5.5t-13 -5.5h-19.5t-15.5 -10q-6 -8 -19.5 -34.5t-28 -59.5t-25.5 -66.5t-11 -56.5z" />
<glyph unicode="&#xbd;" horiz-adv-x="1484" d="M25 610q0 16 16 27.5t40.5 19t51.5 10.5t49 3q205 0 387.5 -15.5t320.5 -34t221 -35t93 -16.5l6 3q7 3 12 6.5t5 7.5t-10 6q-14 2 -35 11t-40.5 18.5t-35.5 17.5t-23 8q-14 2 -38.5 8.5t-49 12.5t-45 12t-26.5 6q-41 4 -60.5 32.5t-15.5 65.5q4 35 26.5 46.5t57.5 11.5 q14 0 34.5 -9.5t41 -20.5t38 -22.5t23.5 -13.5q10 -4 44 -22.5t80 -45t95 -59.5t91 -65.5t68 -63.5t23 -53q-2 -18 -15 -36.5t-31.5 -33t-37 -22.5t-30.5 -6q-4 0 -30 -4.5t-56.5 -9.5t-57 -9t-28.5 -4q-61 0 -127 -16.5t-101 -26.5q-23 -6 -24 -6h-51q-12 0 -21.5 4 t-9.5 14q2 12 9 20.5t11 10.5q23 6 38.5 18.5t31.5 18.5q14 4 83 10t159 35q20 6 31.5 16.5t-7.5 10.5q-25 0 -57.5 9t-83.5 23.5t-125 31.5t-179.5 31.5t-247.5 24t-333 9.5q-16 0 -43.5 6t-56.5 6q-18 0 -36.5 1t-18.5 17z" />
<glyph unicode="&#xbe;" horiz-adv-x="856" d="M-10 10q0 29 22.5 93.5t62.5 146.5t95 170t117.5 160.5t132 120t139.5 47.5q18 0 34.5 -18.5t24.5 -41.5q4 -10 8.5 -20.5t16.5 -10.5q29 0 43 17q35 39 76 63.5t82 24.5q23 0 46 -20.5t23 -49.5q0 -78 -73.5 -156.5t-241.5 -185.5q-41 -27 -57.5 -65.5t-16.5 -83.5 q0 -55 18.5 -80t47.5 -25q35 0 58.5 12.5t40 28t28.5 28.5t26 13q23 0 23 -24q0 -29 -23.5 -54.5t-56.5 -45t-64.5 -31t-46.5 -11.5q-66 0 -107.5 41t-41.5 99q0 18 3 46.5t7 45.5q4 12 -2 17t-22 -11q-94 -111 -153.5 -171.5t-97.5 -90t-63.5 -35.5t-52.5 -6q-55 0 -55 63z M123 123q-2 -10 6.5 -22.5t26.5 1.5q10 8 43.5 40t79 77t94.5 98.5t91 101.5t68.5 87t26.5 57t-16.5 22.5t-24.5 16.5q-6 10 -7 17.5t-17 7.5q-10 0 -31 -11.5t-45.5 -32t-51 -46t-47.5 -52.5q-109 -145 -150.5 -241.5t-45.5 -120.5zM600 444q6 -6 27 7q8 6 37.5 26.5 t61.5 48t56.5 57t24.5 52.5q0 16 -19 16q-10 0 -32.5 -18.5t-48 -45t-52 -57t-45.5 -57.5q-16 -21 -10 -29z" />
<glyph unicode="&#xbf;" horiz-adv-x="489" d="M-172 -260q8 23 13 38t12.5 28.5t16.5 27.5t24 35q23 31 46 60.5t48 76.5q10 18 12 37.5t2 44.5q0 68 21.5 165t55.5 198.5t77 192.5t86 147q6 8 16 14t23 6q12 0 16 7t29 7q12 0 27.5 -6t15.5 -26t-16.5 -43t-16.5 -39q0 -6 4 -12.5t4 -10.5q0 -8 12 -10q2 0 15 -4 q8 -2 19 4t18 18q23 39 49 90.5t49 92.5q10 20 21.5 32.5t39.5 12.5q39 0 44 -18.5t5 -33.5q0 -14 -15 -32.5t-38.5 -46t-53.5 -67.5t-60 -95q-8 -14 -6 -24.5t6 -24.5l17 -51t11 -70t-20.5 -93.5t-53 -119t-73.5 -125t-82 -112.5t-79 -81.5t-63 -31.5q-12 0 -25 9t-24 17 q-20 16 -39 -10q-10 -14 -18 -34.5t-18 -39.5q-2 -6 -10.5 -22.5t-16.5 -37t-15.5 -36.5t-7.5 -23q0 -16 -16 -25t-33 -9q-12 0 -25.5 8t-17.5 12q-18 18 -12 33zM92 35q0 -10 9.5 -19.5t17.5 -9.5q14 0 37.5 22.5t51.5 60.5t54.5 84t49 93t36.5 90t14 74q0 20 -2 31 q-2 10 -6 14t-12 -6q-72 -104 -130 -201.5t-106 -185.5q-8 -14 -11 -23.5t-3 -23.5zM100 219q-4 -18 1.5 -23.5t21.5 17.5q20 29 36.5 54.5t32 51t32 55t36.5 66.5q6 12 18.5 29.5t23.5 35t20.5 34t9.5 28.5q0 6 -6 6q-10 0 -18.5 -9t-24.5 -9q-10 0 -15.5 6t-13.5 6t-12 -6 t-9 -12q-47 -76 -84.5 -164t-48.5 -166z" />
<glyph unicode="&#xc0;" horiz-adv-x="423" d="M-6 -94q0 41 21.5 75.5t56.5 51.5q51 25 82.5 40t48 30.5t21.5 34t5 48.5q0 59 -4 81t-4 32q0 6 3 16.5t11.5 20.5t20.5 17t31 7q39 0 55 -26.5t16 -48.5q0 -20 -16 -49t-16 -52q0 -51 -12.5 -83.5t-36 -56.5t-58.5 -41t-80 -38q-20 -10 -33.5 -28.5t-13.5 -34.5 q0 -35 16.5 -62.5t41 -47t55.5 -30t59 -10.5q39 0 48.5 5t25.5 5q25 0 24 -22q0 -8 -14 -20.5t-14 -16.5t-2 -9t-4 -9q-10 -14 -18.5 -20.5t-35.5 -6.5q-53 0 -103 18.5t-89 51t-63.5 77.5t-24.5 101zM223 535q0 25 25.5 52t56.5 27q29 0 56.5 -25.5t27.5 -64.5 q0 -31 -24.5 -57.5t-36.5 -26.5q-6 0 -12.5 2t-6.5 13q0 18 -45 24q-14 2 -27.5 17.5t-13.5 38.5z" />
<glyph unicode="&#xc1;" horiz-adv-x="364" d="M61 -283q0 35 12.5 113t26 167t25.5 174t12 134q0 4 -1 14.5t-1 14.5q0 6 -2 19.5t-2 17.5q0 25 16.5 51.5t36.5 26.5q33 0 50.5 -31t17.5 -72q0 -10 -5 -55t-13.5 -106.5t-18.5 -133t-18.5 -137.5t-13.5 -116t-5 -70q0 -16 1 -41t1 -37q0 -27 -5 -49.5t-34 -22.5 q-8 0 -19 4t-18 6q-16 4 -17 30t-1 42q0 18 -12.5 28.5t-12.5 28.5zM133 631q0 12 3 16t7 6t7.5 7.5t3.5 21.5q0 14 21.5 24.5t45.5 10.5q25 0 46.5 -30t21.5 -60q0 -29 -24.5 -46.5t-65.5 -17.5q-31 0 -48.5 27.5t-17.5 40.5z" />
<glyph unicode="&#xc2;" d="M51 555q0 16 16.5 33.5t41.5 17.5q80 0 154.5 5t138 12.5t108.5 12.5t65 5q14 0 35 -12.5t21 -53.5q0 -14 -2 -43.5t-4 -62.5t-4.5 -61.5t-2.5 -38.5q0 -37 -9 -47.5t-25 -10.5t-19 19q-2 8 -12 39.5t-10 48.5q0 29 10 63.5t10 55.5q0 20 -10 20h-23q-10 0 -20 -2t-21 -6 q-4 -2 -33.5 -5t-64.5 -8.5t-64.5 -8.5t-33.5 -5q-14 -6 -38 -12t-51.5 -10t-56 -7.5t-49.5 -3.5q-20 0 -33.5 16.5t-13.5 49.5z" />
<glyph unicode="&#xc3;" horiz-adv-x="1394" d="M29 483q0 10 21.5 33t54 50.5t72.5 56t76 53t63.5 41t37.5 20.5q14 4 31.5 14.5t38.5 10.5q27 0 50.5 -19.5t23.5 -54.5q0 -25 -31 -48.5t-72 -23.5q-12 0 -25.5 -3t-41.5 -3q-18 0 -46 -20.5t-51 -42.5q-8 -8 -3 -11.5t10 -0.5q8 4 23 10t28 6q16 0 53 -6t53 -8 q125 -10 246 -22.5t225.5 -23t185.5 -17.5t126 -7q14 0 29.5 5t35.5 5q23 0 30 10.5t23 10.5q33 0 48.5 -18.5t15.5 -41.5q0 -29 -27.5 -47t-64.5 -18q-14 0 -89 10t-195 22.5t-279.5 22.5t-346.5 10q-6 0 -21 -2t-31.5 -3t-31 -3t-20.5 -2q-10 0 -15.5 -8t11.5 -19 q27 -16 48 -24t60 -29q16 -8 36 -30.5t28 -28.5q29 -23 62.5 -44.5t33.5 -45.5q0 -16 -20 -17q-10 0 -21.5 13.5t-42.5 23.5q-27 10 -49.5 18.5t-32.5 12.5q-57 27 -98 53.5t-71.5 49t-53.5 38t-43 19.5q-33 6 -45 28.5t-12 44.5z" />
<glyph unicode="&#xc4;" horiz-adv-x="655" d="M-49 115q0 16 14.5 27.5t32.5 21.5q33 16 75 35.5t101 44.5q10 4 14.5 13t16.5 13q20 10 36.5 26.5t20.5 39.5q25 182 74 322.5t108.5 235.5t120 143t103.5 48q33 0 51 -10t33 -20q31 -20 30 -45q0 -6 -6 -13.5t-18 -7.5q-10 0 -31.5 -5t-47.5 -14t-50.5 -21.5 t-38.5 -24.5q-25 -23 -59.5 -65t-66.5 -108.5t-58.5 -159.5t-34.5 -216q-2 -18 6 -20.5t20 1.5q45 18 97.5 38t93.5 46q6 2 17 7.5t25.5 10.5t27 8t20.5 3q39 0 39 -35q0 -2 -9.5 -10t-22.5 -18.5t-27.5 -19.5t-24.5 -13q-16 -6 -28.5 -12.5t-35.5 -16.5t-45 -18.5 t-32 -12.5q-8 -4 -16.5 -12t-18.5 -12q-10 -6 -16.5 -7t-12.5 -2t-13 -3.5t-20 -8.5q-20 -10 -34.5 -25.5t-16.5 -37.5q-8 -111 -28.5 -239t-45 -242.5t-48 -201.5t-38.5 -114q-29 -53 -48.5 -68.5t-39.5 -15.5q-8 0 -7 9.5t7 24.5t13.5 33.5t11.5 37.5q14 59 36.5 158.5 t44 207t37 207.5t17.5 162q0 31 -27 18q-14 -6 -42.5 -26.5t-60.5 -42t-62.5 -38t-49.5 -16.5q-25 0 -44 12.5t-19 43.5z" />
<glyph unicode="&#xc5;" horiz-adv-x="929" d="M53 508q0 33 14.5 67.5t41 63.5t61.5 46t78 17q45 0 114.5 -26.5t131.5 -104.5q12 -16 32.5 -35.5t44 -35t47 -25.5t46.5 -10q20 0 46.5 6t51 21.5t42 42t17.5 67.5q0 27 17.5 47.5t33.5 20.5q31 0 37 -18.5t6 -53.5q0 -55 -25.5 -96t-62 -67.5t-78.5 -40t-77 -13.5 q-61 0 -133 39t-117 100q-16 23 -40 40.5t-48.5 28.5t-48 16t-41.5 5q-86 0 -86 -92q0 -10 -1 -23.5t-7.5 -25.5t-18.5 -20.5t-37 -8.5q-27 0 -34 19.5t-7 48.5zM72 268q0 33 14 68t41 63.5t61.5 46t77.5 17.5q45 0 105.5 -27.5t122.5 -105.5q27 -35 61.5 -62.5t77.5 -27.5 q20 0 42.5 3t44 14t42 33.5t35.5 59.5q10 25 26.5 31t32.5 6q31 0 35 -14.5t4 -36.5q0 -37 -25.5 -71t-62.5 -60.5t-80 -43t-78 -16.5q-61 0 -121.5 36t-105.5 98q-35 47 -80 69.5t-80 22.5q-86 0 -86 -92q0 -43 17.5 -70t17.5 -43t-9.5 -28.5t-21.5 -12.5t-19 8t-12.5 17.5 t-8.5 17.5t-5 8q-14 0 -20 6q-16 12 -29.5 35t-13.5 51z" />
<glyph unicode="&#xc6;" horiz-adv-x="827" d="M10 45q0 18 9.5 29.5t20.5 24t22.5 28.5t15.5 47q0 6 6 17.5t12 22.5t12.5 21.5t8.5 16.5q82 178 152.5 371.5t148.5 412.5q10 29 24.5 59.5t29.5 55.5t32.5 40t34.5 15q25 0 44 -18.5t32.5 -48t23.5 -66.5t16 -74q8 -43 22.5 -145t31 -223t34 -238t31.5 -188 q4 -20 16.5 -39t12.5 -62q0 -33 -12.5 -58.5t-40.5 -25.5q-29 0 -60 14.5t-69 12.5q-12 0 -45 -1t-75 -2t-87 -2t-85 -2t-69 -3t-35 -4q-20 -6 -31.5 -8t-31.5 -2q-10 0 -20.5 5t-10.5 17q0 8 -7 6t-11 -16t-19.5 -28.5t-44.5 -14.5q-16 0 -27.5 12t-11.5 41zM153 124 q3 -7 13 -1t22.5 9t38.5 5q8 0 39 1t73 2t90 1t89 1t70.5 1h36.5q10 0 18 -1t13.5 2t8.5 13t1 33q0 14 -7.5 75t-17.5 142.5t-22.5 177t-23.5 181.5t-20.5 152.5t-13.5 93.5q-4 16 -13 34.5t-20 18.5q-10 0 -14 -8t-8 -21q-14 -37 -45 -116.5t-70 -177t-81 -202 t-75.5 -191.5t-57 -144.5t-23.5 -61.5q-4 -12 -1 -19z" />
<glyph unicode="&#xc7;" horiz-adv-x="874" d="M12 305q0 10 21.5 32.5t54.5 50.5t73 56.5t75.5 53t63.5 41t38 20.5q14 4 31.5 14.5t38.5 10.5q27 0 50 -19.5t23 -54.5q0 -25 -30.5 -48.5t-71.5 -23.5q-12 0 -25.5 -3t-42.5 -3q-10 0 -25.5 -9t-32.5 -23.5t-35.5 -31t-33.5 -30.5q-12 -12 -14 -28.5t-2 -26.5 q0 -8 19.5 -25.5t45.5 -34.5q27 -16 69 -35.5t81 -40.5q16 -8 18 -18t13 -14q4 -4 10 -12.5t6 -20.5q0 -16 -31 -16q-4 0 -9 -2.5t-9 -2.5q-6 0 -23 9q-57 27 -103 57.5t-83 57t-63.5 46t-47.5 23.5q-33 6 -41 10t-8 41zM444 309q0 35 40 73t90.5 69.5t97.5 55t61 28.5 q14 4 31.5 14t38.5 10q27 0 51.5 -20.5t24.5 -55.5q0 -25 -32 -47t-73 -22q-12 0 -25.5 -3t-41.5 -3q-18 0 -44 -20.5t-55 -49.5q-12 -12 -14 -28.5t-2 -26.5q0 -8 19.5 -25.5t45.5 -34.5q27 -16 57.5 -35.5t69.5 -40.5q16 -8 18.5 -18t12.5 -14q4 -4 10 -12.5t6 -20.5 q0 -16 -30 -16q-4 0 -9.5 -2.5t-9.5 -2.5q-6 0 -22 9q-47 20 -66.5 39.5t-32 37t-32 34t-66.5 34.5q-6 2 -22.5 5t-20.5 7q-16 16 -29.5 24.5t-23.5 14.5t-16.5 15.5t-6.5 27.5z" />
<glyph unicode="&#xc8;" horiz-adv-x="956" d="M45 512q0 35 25.5 54.5t52.5 19.5q20 0 39.5 -8.5t30.5 -16.5q66 -47 128 -74.5t110 -49t77 -43t29 -56.5q0 -37 -17.5 -60.5t-79.5 -58.5q-18 -12 -56 -37.5t-81 -50.5t-82.5 -43t-64.5 -18q-2 0 -10.5 2t-17.5 3t-16.5 3t-9.5 2q-16 0 -27.5 1t-11.5 11q0 12 6.5 20.5 t10.5 12.5q10 4 33.5 13t40.5 18q39 20 91 50t79 46t43 30.5t16 22.5q0 10 -9 24.5t-22 26.5q-29 29 -57.5 43.5t-75.5 34.5q-27 10 -41 8t-26 -2q-41 0 -74 23.5t-33 48.5zM426 535q0 35 17.5 60.5t43.5 25.5q20 0 51 -18.5t46 -22.5q14 -4 68.5 -29t113.5 -59.5 t106.5 -74.5t47.5 -75q0 -37 -17.5 -60.5t-79.5 -58.5q-2 -2 -12 -4t-21.5 -5t-22.5 -5t-13 -4q-14 -8 -28.5 -19.5t-34 -26t-50.5 -32.5t-78 -39q-16 -8 -22 -8q-4 0 -9.5 2t-9.5 2q-31 0 -30 16q0 12 6 20.5t10 12.5q10 4 32.5 21.5t39.5 25.5q39 20 67.5 36.5t54.5 33.5 q27 16 48.5 36.5t21.5 28.5q0 10 -2 26.5t-14 29.5q-14 14 -36 28.5t-43.5 26.5t-40 19.5t-26.5 7.5q-29 0 -42 3t-25 3q-20 0 -41 7t-38.5 18.5t-27.5 24.5t-10 26z" />
<glyph unicode="&#xc9;" horiz-adv-x="921" d="M55 150q0 12 9.5 26t24.5 26.5t31.5 20.5t33.5 8q31 0 58.5 -28.5t27.5 -69.5q0 -16 -13.5 -36.5t-31 -39t-34 -31t-22.5 -12.5q-4 0 -11 2t-7 13q0 6 -1 16t-4 21.5t-10.5 20.5t-19.5 11q-31 4 -31 52zM379 158q0 31 32.5 61.5t73.5 30.5q14 0 29.5 -10.5t28 -22.5 t19.5 -25.5t7 -19.5q0 -4 -2 -11t-12 -7q-4 0 -11 -1t-7 -8q0 -4 -3.5 -10t-7.5 -8t-4 -8v-13q-2 -14 -22 -23t-45 -9t-50.5 26.5t-25.5 57.5zM674 129q0 29 31.5 49.5t91.5 20.5q31 0 48 -22.5t17 -35.5q0 -12 -4 -16t-9 -6t-9 -8.5t-4 -20.5q0 -6 -9.5 -17.5t-22.5 -21.5 t-28.5 -17t-27.5 -7q-43 0 -58.5 35.5t-15.5 66.5z" />
<glyph unicode="&#xca;" horiz-adv-x="450" />
<glyph unicode="&#xcb;" horiz-adv-x="716" d="M14 414q0 49 133 90q37 10 46 43q16 55 36.5 114.5t42 118t42 110.5t38.5 93q8 20 17.5 43t21.5 42t28.5 32.5t39.5 13.5q37 0 54 -25.5t17 -66.5q0 -82 16.5 -187.5t33.5 -236.5q2 -10 5 -19.5t17 -9.5t35.5 -1t41 -4t33 -7t13.5 -12t-3 -11.5t-17 -3.5q-4 0 -18.5 -7 t-18.5 -11t-23.5 -5t-36.5 -5q-12 -2 -12 -21q4 -88 17.5 -184t25.5 -174q4 -18 8 -41t15 -39q8 -14 16 -31.5t8 -34.5q0 -25 -16.5 -40t-32.5 -15q-33 0 -53.5 16.5t-30.5 63.5q-4 12 -1 33.5t-1 44.5q-4 20 -5 33.5t-5 40.5t0 70.5t0 72.5q-2 14 -12.5 39.5t-12.5 42.5 q-4 33 -1 45t1 45q-4 29 -31 27q-23 -4 -52.5 -10.5t-58 -13.5t-53 -14t-36.5 -12q-12 -4 -21.5 -10t-13.5 -20q-35 -121 -54.5 -204t-19.5 -112v-45q0 -18 -14.5 -19t-16.5 -20q-2 -10 -3 -21t-11 -11q-6 0 -15.5 -14.5t-17.5 -14.5q-23 0 -33 8t-14 21.5t-3 30t1 34.5 q0 29 26.5 115t55.5 196q2 12 -12 13q-10 0 -21.5 -5.5t-29.5 -5.5q-20 0 -37 13.5t-17 38.5zM156 1374q0 23 18.5 49.5t48.5 26.5q29 0 48.5 -17.5t31.5 -35.5q16 -25 41 -55.5t48.5 -59.5t40 -50.5t16.5 -29.5q-1 -20 -21 -20t-45 11t-49.5 26.5t-48 31t-41.5 25.5 q-49 27 -68.5 45t-19.5 53zM297 584q-11 -35 14 -33q14 2 37 3t46.5 3t47 3t41.5 3q16 2 16.5 9.5t-1.5 23.5q-6 43 -13.5 95t-14.5 99.5t-13 85t-8 50.5q-4 16 -5.5 26.5t-9.5 10.5q-10 0 -14 -7.5t-10 -17.5q-8 -16 -21.5 -55t-29 -89.5t-32 -105.5t-30.5 -104z" />
<glyph unicode="&#xcc;" horiz-adv-x="716" d="M-6 -27q0 4 3 18.5t7 33t8 35t6 26.5q12 55 36 119.5t52 156.5q4 14 3.5 20.5t-17.5 6.5q-29 0 -46 9.5t-17 25.5q0 10 10 17.5t10 15.5q0 20 28.5 34.5t53.5 18.5q23 4 28 12t11 25q41 111 79 202t79 171q16 33 31.5 65.5t31 58t30.5 41t32 15.5q49 0 76.5 -59.5 t37.5 -166.5q2 -23 6.5 -56.5t9.5 -76.5t11 -90t12 -96q2 -10 8.5 -17.5t22.5 -11.5q41 -6 78 -21.5t37 -25.5t-7.5 -17t-11.5 -7q-16 0 -21 -3t-18 -3q-14 0 -21 2t-30 2q-18 0 -14 -21q14 -117 33.5 -213t35.5 -182q4 -29 3 -67t-1 -54q1 -47 -36 -47q-14 0 -26.5 16.5 t-22 40t-14.5 48t-7 40.5q-4 39 -10 80t-14.5 89t-18.5 105.5t-21 131.5q-2 12 -9 19t-25 7q-16 0 -51 -2t-73 -5t-72 -7t-48 -8q-16 -4 -25.5 -10t-13.5 -21q-41 -121 -66.5 -215t-25.5 -137q0 -49 -12.5 -63.5t-12.5 -22.5t-7 -14.5t-7 -12.5q0 -18 -6 -29.5t-41 -11.5 q-25 0 -33 26t-8 60zM254 1237q0 27 9 55.5t29.5 53t52.5 40t77 15.5q29 0 59.5 -17.5t58 -38t52 -38t43.5 -17.5q27 0 47 16.5t20 45.5q0 16 11.5 26.5t11.5 20.5t11.5 18t21.5 8t17 -14t7 -49q0 -25 -11 -53.5t-30.5 -51t-46 -38t-57.5 -15.5q-41 0 -69.5 16.5t-53.5 37 t-48.5 37t-49.5 16.5q-39 0 -53.5 -21.5t-14.5 -46.5q0 -29 5 -41t5 -24q0 -16 -12 -24.5t-24 -8.5q-4 0 -8.5 3t-8.5 3q-14 0 -20 6q-12 10 -21.5 32.5t-9.5 47.5zM266 553q-12 -31 21 -27q12 2 39.5 3t57.5 2t57.5 1h43.5q35 0 29 35q-6 43 -14 101.5t-15.5 115 t-12.5 100.5t-7 56q-8 35 -17.5 31t-25.5 -31q-10 -16 -28.5 -60t-41 -100.5t-46 -117t-40.5 -109.5z" />
<glyph unicode="&#xcd;" horiz-adv-x="634" d="M14 129q0 23 6.5 48.5t10.5 47.5q18 150 63 285t98.5 236.5t103.5 162t75 60.5q43 0 59 -20.5t16 -43.5v-30.5t17 -24.5q31 -18 63.5 -40t58 -52.5t43 -73.5t17.5 -102t-24.5 -133t-64.5 -152t-91 -151.5t-101.5 -131t-97.5 -92.5t-80 -35q-76 0 -124 58.5t-48 183.5z M100 133q0 -74 27 -116t68 -42q16 0 48.5 32t72.5 83t81 115.5t76 130t56.5 126t21.5 103.5q0 59 -20.5 102.5t-50 71t-60.5 41t-51 13.5q-16 0 -25.5 -5.5t-32.5 -35.5q-18 -29 -45.5 -78t-55.5 -107.5t-51.5 -118t-35.5 -104.5q-4 -8 -3 -20.5t-1 -20.5q-8 -41 -13.5 -82 t-5.5 -88zM283 1180q0 27 9 55.5t29.5 53t52.5 39.5t77 15q39 0 69.5 -32.5t55 -71.5t44 -71.5t37.5 -32.5q27 0 47.5 16t20.5 45q0 16 11.5 26.5t11.5 20.5t11 18.5t21 8.5t17.5 -14.5t7.5 -49.5q0 -25 -14.5 -51.5t-36 -48t-48 -34.5t-51.5 -13q-39 0 -69.5 29.5t-55 66.5 t-45 67.5t-41.5 30.5q-39 2 -53 -20.5t-14 -46.5q0 -29 5 -41t5 -25q0 -16 -12.5 -24.5t-24.5 -8.5q-4 0 -8 3.5t-8 3.5q-14 0 -21 6q-12 10 -21 32.5t-9 47.5z" />
<glyph unicode="&#xce;" horiz-adv-x="1081" d="M-10 283q0 84 31.5 155.5t66.5 143.5q6 14 23.5 36.5t37 45t37 44t27.5 33.5q14 18 17 29.5t16 28.5q10 14 32.5 38.5t53 50t68.5 48t81 33.5q16 4 22.5 21.5t6.5 37.5q0 12 2 27.5t10 29t21.5 22.5t38.5 9q18 0 34.5 -23.5t16.5 -80.5q0 -14 14.5 -13.5t28.5 5.5 q90 20 178 37.5t184 17.5q59 0 60 -31q0 -23 -12.5 -31t-43.5 -10q-104 -6 -206.5 -26.5t-194.5 -53.5q-16 -6 -24.5 -14t-12.5 -27q-8 -33 -16 -78t-15.5 -91t-11.5 -87t-4 -65q0 -20 5 -28.5t26 -2.5q68 20 146.5 40.5t205.5 51.5q23 4 43.5 2t20.5 -16q0 -20 -24 -31.5 t-40 -17.5q-102 -41 -197.5 -72t-173.5 -61q-33 -12 -34 -50q-2 -14 -9.5 -43.5t-7.5 -46.5v-18t-1 -29.5t-1 -29v-17.5q0 -20 3 -29.5t7 -29.5q4 -14 0 -36t-4 -36q0 -29 19 -29q20 0 61 16.5t91 42t104.5 54.5t100.5 54.5t79 42t41 16.5q41 0 41 -33q0 -20 -11.5 -28.5 t-31.5 -20.5q-35 -23 -107.5 -67t-159.5 -87t-176 -75.5t-157 -32.5q-109 0 -190 35.5t-133 92t-77.5 124t-25.5 133.5zM82 301q0 -74 27.5 -131t70.5 -96t98.5 -58.5t110.5 -19.5q14 0 24.5 6t12.5 23q2 12 8 50t12.5 87t11.5 102t5 96q0 14 -14.5 22.5t-14.5 39.5 q0 16 19.5 35.5t21.5 36.5q6 74 13.5 141t11.5 120.5t7 88.5t3 43q0 23 -29 10q-49 -23 -117.5 -92.5t-131 -157.5t-106.5 -182t-44 -164z" />
<glyph unicode="&#xcf;" horiz-adv-x="671" d="M-39 -14q0 104 40 208.5t94.5 187.5t110.5 135t91 52q33 0 65.5 -25.5t32.5 -84.5q0 -18 11.5 -17.5t21.5 15.5q53 74 112.5 120t123.5 46q29 0 53 -25t24 -53q0 -43 -21.5 -80t-61.5 -72t-98 -69.5t-130 -71.5q-16 -14 -33.5 -36.5t-27.5 -51.5q-12 -37 -16.5 -91.5 t-4.5 -95.5q0 -33 13.5 -52t41.5 -19q18 0 45 12t53.5 29.5t47 35t26.5 27.5q6 8 17 8q23 0 22 -24q0 -12 -12 -24.5t-28.5 -26t-35 -27.5t-30.5 -29q-23 -29 -46.5 -49t-68.5 -20q-70 0 -106.5 58t-36.5 159q0 16 -5 20t-12 -6q-23 -33 -48 -62.5t-52 -52t-50.5 -36 t-39.5 -13.5q-29 0 -55.5 28t-26.5 73zM43 6q0 -37 16 -37q14 0 57.5 46t88.5 107.5t79.5 121t34.5 86.5q0 10 -1 15t-11 7q-6 2 -11 14.5t-7 43.5q0 10 -6.5 16t-10.5 6q-23 0 -48 -27.5t-51 -69.5t-49.5 -92t-40.5 -97.5t-28.5 -85t-11.5 -54.5zM475 375q4 -4 27 6 q47 27 87 60.5t40 54.5q0 16 -19 16q-23 0 -50.5 -24.5t-74.5 -84.5q-16 -20 -10 -28z" />
<glyph unicode="&#xd0;" horiz-adv-x="731" d="M59 344q0 16 17.5 29.5t40.5 21.5q41 12 111.5 18.5t144 8.5t139.5 2h96q37 0 74 -9t37 -26q0 -16 -14 -18q-8 -2 -41 -8.5t-50 -6.5q-94 0 -138 -3t-75 -11q-6 -2 -17 -3t-24.5 -3t-24.5 -3t-16 -3q-4 -2 -18 -5t-30.5 -6.5t-30 -5.5t-17.5 -4q-29 -12 -51.5 -21 t-65.5 -9q-20 0 -33.5 16t-13.5 49z" />
<glyph unicode="&#xd1;" horiz-adv-x="991" d="M53 348q0 14 14.5 33.5t43.5 28.5q39 10 97 13t132 11q59 6 130 12.5t143.5 10.5t139 6t117.5 2q20 0 48 -3t45 -5q16 -2 28.5 -8.5t12.5 -14.5q0 -16 -8.5 -24.5t-41.5 -8.5q-66 0 -139.5 -4t-140.5 -10q-137 -14 -266 -35.5t-209 -36.5q-12 -4 -24.5 -8t-22.5 -8 q-16 -4 -26 -8t-20 -4q-25 0 -39 20.5t-14 40.5z" />
<glyph unicode="&#xd2;" horiz-adv-x="552" d="M150 879q0 20 12 43.5t33 48.5q12 16 29.5 15t33.5 13q14 14 32.5 41t31.5 41q29 33 50 45.5t29 12.5q20 0 25.5 -9.5t5.5 -25.5q0 -6 -14.5 -24.5t-36 -48.5t-47 -70.5t-47.5 -92.5q-8 -20 -28.5 -43.5t-43.5 -23.5q-31 0 -48 25.5t-17 52.5zM369 782q0 23 30.5 72 t68.5 98t72.5 86t45.5 37q37 0 37 -26q0 -4 -20.5 -34t-35.5 -59q-12 -25 -14 -44t-14 -46q-27 -55 -37 -84q-6 -20 -26.5 -39.5t-43.5 -19.5q-31 0 -47 18.5t-16 40.5z" />
<glyph unicode="&#xd3;" horiz-adv-x="534" d="M98 756q0 6 20.5 43t47.5 82t50.5 88t29.5 63t23.5 41t39.5 21q31 0 50.5 -19.5t19.5 -42.5q0 -37 -37 -88t-83 -99t-88 -82t-50 -34q-16 0 -19.5 5t-3.5 22zM258 698q0 6 25.5 35t58.5 68t65.5 83t49.5 81q8 20 31.5 36.5t46.5 16.5q31 0 45 -18.5t14 -45.5 q0 -25 -20.5 -55.5t-52.5 -62t-69.5 -62.5t-71.5 -55.5t-59.5 -38.5t-31.5 -14q-31 0 -31 32z" />
<glyph unicode="&#xd4;" horiz-adv-x="350" d="M143 860q0 33 29 72t68 74q23 23 45 33t43 26q23 16 39 32.5t22 16.5q16 0 21.5 -3t5.5 -19q0 -8 -27 -32t-53 -61q-10 -14 -12 -28.5t-13 -30.5q-10 -18 -19 -37.5t-20 -42.5q-8 -20 -22 -38.5t-37 -18.5q-31 0 -50.5 17.5t-19.5 39.5z" />
<glyph unicode="&#xd5;" horiz-adv-x="309" d="M147 791q0 6 10.5 24.5t26 48t30.5 67.5t26 85q4 20 20 38.5t39 18.5q31 0 52.5 -17.5t21.5 -39.5q0 -37 -27 -81t-59.5 -84t-64.5 -66.5t-40 -26.5q-35 0 -35 33z" />
<glyph unicode="&#xd6;" d="M31 453q0 16 15 34.5t54 28.5q41 10 110 15.5t140.5 8.5t134 3h93.5q37 0 67.5 -5.5t30.5 -13.5q0 -12 -14 -14q-4 0 -47.5 -6t-98.5 -14.5t-106.5 -15.5t-71.5 -9q-4 0 -20.5 -5t-35 -10.5t-34 -9.5t-19.5 -6q-29 -12 -62.5 -23.5t-76.5 -11.5q-20 0 -39.5 10.5 t-19.5 43.5zM276 766q0 25 21.5 44t52.5 19t62.5 -25.5t31.5 -66.5q0 -27 -12 -46t-27.5 -31.5t-30 -18.5t-20.5 -6q-12 0 -18 14q-8 16 -13.5 24.5t-25.5 22.5q-10 8 -15.5 26.5t-5.5 43.5zM291 311q0 8 11 18.5t26.5 19.5t32 14.5t28.5 5.5q31 0 57.5 -17.5t26.5 -58.5 q0 -53 -25.5 -78t-48.5 -25q-33 0 -54 14.5t-21 31.5q0 14 -5.5 21t-11.5 13t-11 15.5t-5 25.5z" />
<glyph unicode="&#xd7;" horiz-adv-x="1128" d="M49 475q0 12 6 33.5t14.5 44t15.5 43t9 31.5q2 18 7 28.5t10.5 16.5t11.5 13t14 24q14 29 16.5 58.5t22.5 49.5q35 35 70 45t82 10q20 0 42.5 -12t41 -29.5t33 -35t20.5 -29.5q16 -27 49 -53.5t47 -44.5q10 -12 10.5 -10t12.5 14q8 8 36.5 48t71.5 83t97.5 77.5 t115.5 34.5q33 0 63.5 -18t55.5 -51t39 -79t14 -101q0 -119 -30.5 -213.5t-79.5 -169.5q-20 -31 -44 -45.5t-49 -38.5q-29 -29 -55 -67t-55 -60q-53 -41 -105.5 -73t-96.5 -57.5t-76.5 -46t-45.5 -36.5q-10 -12 -23.5 -16.5t-25.5 -1.5t-22.5 11.5t-12.5 16.5 q-37 111 -89 185.5t-100 137t-83 127t-35 156.5zM133 471q0 -78 36 -136.5t81 -117.5t88 -125.5t57 -159.5q6 -35 21 -12q27 47 94.5 85t143 80t146 95t105.5 133q31 72 47.5 142.5t16.5 169.5q0 72 -24.5 123t-59.5 51q-53 0 -94 -31t-73 -67.5t-53.5 -68.5t-33.5 -34 t-21.5 -6t-23.5 4q-12 6 -14.5 2t-2.5 -14q0 -14 -12 -22.5t-31 -8.5q-25 0 -43 19.5t-28 48.5q-10 27 -18.5 52t-23 45.5t-39 32t-67.5 11.5q-82 0 -128 -81t-46 -210z" />
<glyph unicode="&#xd8;" horiz-adv-x="655" d="M-264 -618q0 12 16.5 32.5t50.5 22.5q47 2 84 -17.5t68 -19.5q35 0 55.5 2t33.5 8t24.5 19.5t29.5 35.5q12 16 54.5 51t74.5 89q20 33 30.5 64.5t19 61t15.5 58.5t23 59q20 45 41 92.5t39 96.5q59 139 105.5 251.5t60.5 227.5q2 12 1 21.5t-7 11.5q-10 2 -25 -6 q-33 -20 -67.5 -52t-68.5 -69t-64.5 -77t-55.5 -77q-10 -12 -17 -34.5t-17 -32.5q-41 -45 -68 -74t-49.5 -46.5t-43 -24.5t-44.5 -7q-23 0 -30 12.5t-7 47.5q0 27 20.5 80t44 120.5t44 145t20.5 153.5q0 29 -7 48.5t-11 35.5q-4 18 -14.5 34.5t-24.5 18.5q-25 4 -34 26 t-9 44q0 39 32.5 59.5t67.5 20.5t68.5 -54.5t33.5 -191.5q0 -18 -11 -74.5t-26.5 -123t-31 -126t-25.5 -79.5q-14 -27 -2 -35q10 -6 29 12q70 68 134 152t122.5 155.5t109 120.5t88.5 49q23 0 36.5 -19t13.5 -52q0 -14 -4.5 -47t-11.5 -76t-19.5 -92t-26.5 -99 q-92 -285 -176 -477t-162 -309t-149.5 -166t-134.5 -49q-78 0 -127.5 13.5t-65.5 17.5q-12 2 -11 13t-22 11q-20 0 -20 13zM258 1128q0 18 27.5 36t50.5 18q31 0 58.5 -15.5t27.5 -56.5q0 -27 -10.5 -43t-23.5 -25.5t-28.5 -12.5t-27.5 -3q-16 0 -28.5 5t-12.5 22 q0 14 -5 21t-11.5 13.5t-11.5 15.5t-5 25zM551 1049q0 31 31.5 62.5t72.5 31.5q14 0 27.5 -11.5t23 -25.5t14.5 -28.5t5 -20.5q0 -4 -2 -11.5t-12 -7.5q-8 0 -17.5 -5t-23.5 -25q-8 -10 -19.5 -21.5t-36.5 -11.5t-44 21.5t-19 52.5z" />
<glyph unicode="&#xd9;" horiz-adv-x="755" d="M-27 999q0 29 23.5 45.5t46.5 16.5q8 0 13 -4t12 -4q12 0 22 -11.5t17.5 -24.5t13.5 -26.5t10 -17.5q4 -6 33 -50t69.5 -105.5t89 -127t91.5 -110.5q10 -10 22 -11q16 0 25 11q18 20 56 63t77 91t72.5 89t44.5 58q12 18 29.5 46.5t36 56.5t34.5 47.5t27 19.5q4 0 8 -5.5 t8 -5.5q47 0 47 -49q0 -25 -13.5 -48t-30.5 -42.5t-35.5 -36t-28.5 -28.5q-14 -16 -50 -58.5t-78 -91.5t-80 -95l-57 -69q-10 -10 -11 -22.5t-3 -22.5q-4 -25 -33.5 -44t-52.5 -42q-25 -29 -59.5 -78t-69.5 -104t-66.5 -109.5t-50.5 -91.5q-23 -47 -40 -96t-17 -64 q0 -43 -19.5 -63.5t-44.5 -20.5q-39 0 -54 19.5t-15 52.5q0 18 20.5 61.5t53 99.5t73.5 121.5t84 130t83 123t69 99.5q8 14 8 25q0 4 -5 11t-9 11q-8 4 -31 29.5t-53.5 62.5t-63.5 77t-61.5 75t-47.5 58l-18 24q-41 47 -81 86t-40 69zM256 1262q0 8 8 21t20.5 23.5t27 18.5 t26.5 8q31 0 57.5 -17.5t26.5 -58.5q0 -53 -22.5 -71.5t-45.5 -18.5q-61 0 -61 37q-6 10 -12.5 14.5t-11.5 8.5t-9 11t-4 24zM592 1243q0 14 8 30.5t22.5 31t33 23.5t38.5 9q31 0 48.5 -27.5t17.5 -39.5t-6 -18.5t-12.5 -12.5t-12.5 -14t-6 -23q0 -14 -21.5 -23.5 t-46.5 -9.5t-44 21.5t-19 52.5z" />
<glyph unicode="&#xda;" horiz-adv-x="382" d="M-324 -197q0 14 5.5 28.5t23.5 41.5q123 180 245 363.5t231.5 357.5t199.5 331.5t149 284.5q6 12 21.5 34t15.5 34q0 16 19.5 26.5t36.5 10.5q14 0 28.5 -9.5t18.5 -13.5q20 -16 14 -37q-4 -10 -1 -15t3 -19q0 -10 -9 -27.5t-22.5 -37t-26 -37t-18.5 -25.5 q-66 -92 -164 -236.5t-206.5 -314.5t-216 -350.5t-193.5 -346.5q-4 -6 -12 -13t-8 -34q0 -16 -17.5 -34.5t-46.5 -18.5q-35 0 -52.5 17.5t-17.5 39.5z" />
<glyph unicode="&#xdb;" horiz-adv-x="663" d="M23 330q0 16 21.5 36.5t59.5 28.5q16 4 17 17q0 12 -27 12q-31 0 -49 13.5t-18 25.5q0 18 18 28.5t18 14.5q0 16 19.5 24.5t67.5 18.5q20 6 32 29q78 137 174.5 220t214.5 83q20 0 41 -10.5t38.5 -25t27.5 -31.5t10 -30q0 -47 -43 -47q-16 0 -33.5 16.5t-42.5 16.5 q-55 0 -113.5 -34t-133.5 -130q-8 -10 -5.5 -18t21.5 -8q8 0 26.5 2t40 4l43 4t33.5 2h39t43.5 -2t34.5 -7t14 -14q0 -20 -14 -20q-10 0 -18 -8q-4 -4 -24.5 -7.5t-25.5 -3.5q-78 0 -144.5 -14t-119.5 -33q-12 -6 -25.5 -14t-13.5 -23q0 -12 4.5 -18t20.5 -6q8 0 30.5 3 t50 6t57.5 6t54 3q6 0 12.5 -1t14.5 -1q4 0 28.5 3t28.5 3q35 0 48.5 -10t13.5 -20q0 -12 -4 -14.5t-19 -12.5q-4 -4 -16 -4q-35 0 -80 -6t-91 -14.5t-88 -17.5t-67 -15q-18 -4 -24 -17.5t-6 -29.5q0 -66 25.5 -104t60.5 -38q18 0 43.5 7.5t49 16.5t42 18.5t22.5 13.5 q10 12 28.5 9t18.5 -26q0 -16 -9 -24.5t-22.5 -15.5t-25.5 -14t-18 -20q-10 -23 -51.5 -43t-94.5 -20q-29 0 -57.5 14.5t-52 42t-41 70.5t-19.5 98q0 27 -24 27q-39 0 -43 10t-4 25z" />
<glyph unicode="&#xdc;" horiz-adv-x="546" d="M31 328q0 35 47 74.5t106.5 74.5t113.5 59.5t69 28.5q14 4 31.5 14.5t37.5 10.5q27 0 50.5 -18.5t23.5 -53.5q0 -25 -32 -45t-72 -20q-12 0 -25.5 -3.5t-42.5 -3.5q-10 0 -27.5 -9t-39 -22.5t-42 -28.5t-34.5 -30q-12 -12 -14.5 -28.5t-2.5 -26.5q0 -8 19.5 -25.5 t46.5 -33.5t74 -39t85 -43q16 -8 18.5 -18.5t12.5 -14.5q4 -4 10.5 -12.5t6.5 -20.5q0 -10 -24 -10h-40q-4 0 -9 -2t-9 -2q-6 0 -23 8q-47 20 -75.5 37.5t-46 31t-29 22.5t-25.5 18q-6 4 -21.5 6t-21.5 6q-61 35 -78.5 58.5t-17.5 60.5z" />
<glyph unicode="&#xdd;" horiz-adv-x="649" d="M37 563q0 72 57 72q10 0 36 -6t53.5 -14.5t51 -16.5t29.5 -12q66 -47 123 -78t100 -57.5t68 -52t25 -60.5q0 -37 -21.5 -58.5t-56.5 -37.5q-2 0 -11.5 -5.5t-19.5 -11.5t-19.5 -11t-11.5 -7q-29 -16 -104.5 -63.5t-171.5 -90.5q-17 -8 -23 -8q-4 0 -9 2t-9 2 q-31 0 -31 17q0 12 6 20t11 12q29 14 62.5 35t69 42.5t68.5 42t58 34.5q27 16 53 35.5t26 27.5q0 10 -9 24.5t-21 27.5q-29 29 -82 69.5t-139 61.5q-29 6 -42.5 6h-25.5q-41 0 -65.5 17.5t-24.5 41.5z" />
<glyph unicode="&#xe0;" horiz-adv-x="688" d="M55 27q0 16 17.5 29.5t40.5 21.5q14 4 36.5 9t46 9t42 6t24.5 2q16 0 25.5 12.5t9.5 28.5q0 39 8 92.5t8 100.5q0 20 -10 20h-22q-10 0 -20.5 -2t-20.5 -6t-38 -11t-36 -7q-23 0 -31 6t-29 6q-20 0 -24 10.5t-4 24.5q0 16 16.5 32.5t40.5 18.5q37 4 63.5 10t67.5 6 q27 0 27 29q0 4 -1 17.5t-3 29t-3 27.5t-1 16q0 14 -5.5 22.5t-11.5 15.5t-11 15.5t-5 22.5q0 20 16.5 37.5t48.5 17.5q16 0 34 -24.5t18 -50.5q0 -25 10 -67t10 -75q0 -14 10.5 -15t22.5 -1q6 0 28.5 2t47 4t46 4t27.5 2q39 0 39 -31q0 -16 -14 -18q-4 0 -16.5 -3t-26.5 -5 t-28.5 -4t-22.5 -2q-29 0 -44.5 -12.5t-37.5 -12.5q-16 0 -21.5 -12.5t-5.5 -28.5q0 -25 -3 -52.5l-6 -55t-5 -51t-2 -37.5q0 -33 31 -33q37 0 77.5 3t63.5 3q37 0 73.5 -9.5t36.5 -25.5t-14 -18q-8 -2 -13 -8.5t-22 -6.5q-59 0 -107 -4t-91 -4t-43 -43q0 -18 -4.5 -50 t-10.5 -63.5t-10 -57.5t-4 -32q0 -37 -11.5 -55t-27.5 -18t-18 14q0 2 1 13.5t1 25.5t1 27.5t1 19.5q0 14 -4 25.5t-4 19.5q0 16 5 51t5 64q0 16 -7.5 20t-23.5 4q-10 0 -20.5 -8t-18.5 -12q-29 -12 -51.5 -21.5t-65.5 -9.5q-20 0 -33.5 16.5t-13.5 49.5z" />
<glyph unicode="&#xe1;" horiz-adv-x="348" d="M76 348q0 18 10 38t24.5 37t29 27.5t22.5 10.5q6 0 14 -2t8 -15q0 -14 17.5 -35.5t48.5 -25.5q16 -2 27.5 -22.5t11.5 -49.5t-26.5 -52t-63.5 -23q-18 0 -40 8t-40.5 23.5t-30.5 36t-12 44.5z" />
<glyph unicode="&#xe2;" horiz-adv-x="368" d="M0 -145q0 6 14.5 33.5t31.5 61.5t34.5 67.5t23.5 54.5q6 20 21.5 38.5t38.5 18.5q31 0 52.5 -17.5t21.5 -39.5q0 -37 -30 -78t-68 -76t-72.5 -58.5t-42.5 -23.5q-16 0 -20.5 1t-4.5 18z" />
<glyph unicode="&#xe3;" horiz-adv-x="552" d="M-4 -29q0 6 12 34t27.5 62.5t31 68.5t21.5 54t21.5 39t37.5 19q31 0 52.5 -17.5t21.5 -40.5t-28.5 -63.5t-63.5 -80.5t-69 -68.5t-42 -28.5q-16 0 -19 3t-3 19zM186 -84q0 6 12.5 23.5t30 43t38 56.5t36.5 65q10 20 30.5 40t43.5 20q31 0 47 -21.5t16 -48.5 q0 -37 -31.5 -74.5t-72.5 -68.5t-78 -50.5t-47 -19.5q-20 0 -22.5 9.5t-2.5 25.5z" />
<glyph unicode="&#xe4;" horiz-adv-x="1064" d="M-4 410q0 78 23.5 161.5t88 152.5t180 114t300.5 45q35 0 59.5 -27t24.5 -55q0 -18 -14.5 -50t-24.5 -49q-45 -61 -71.5 -100t-47 -70.5t-39 -64.5t-43 -81t-60.5 -118.5t-93 -181.5q-4 -6 -22.5 -37t-18.5 -57q0 -16 -17.5 -34.5t-46.5 -18.5q-35 0 -52.5 17t-17.5 40 q0 14 10.5 40.5t28.5 53.5q55 80 91 129t63 85t45 62.5t39 59.5q2 4 20.5 33.5t39 64.5t38 64.5t21.5 34.5q20 35 35.5 58.5t24.5 41.5t13.5 33.5t4.5 38.5q0 16 -15.5 25t-60.5 9q-135 0 -195.5 -23.5t-60.5 -45.5q0 -8 12 -10q18 -2 34.5 -14.5t31 -32t22.5 -44t8 -49.5 q0 -59 -18.5 -107t-50.5 -100q-20 -35 -48 -58t-55 -44q-20 -14 -46.5 -38.5t-45.5 -24.5q-94 0 -94 172zM74 418q-1 -88 30 -88q20 0 47 17.5t50.5 41t40 48t16.5 38.5q0 25 -3 41t-3 39q0 61 -14.5 76.5t-26.5 15.5q-16 0 -22.5 3t-9.5 7.5t-6 7.5t-13 3q-8 0 -25.5 -17.5 t-28.5 -42.5q-8 -16 -20 -67.5t-12 -122.5zM358 80q0 39 12.5 90t34 96t50 76t63.5 31q27 0 32 -10.5t21 -10.5q31 0 51.5 -12t35 -31.5t20.5 -43t6 -48.5t23 -16q6 2 9 4t7 6q16 10 22 29q12 37 32 75.5t46.5 70.5t58 53.5t66.5 21.5q29 0 33 -18.5t4 -26.5t2 -11.5 t19 -3.5q16 0 40.5 -26.5t24.5 -71.5q0 -74 -26.5 -134t-65.5 -103t-85 -68t-85 -25q-35 0 -60.5 22.5t-25.5 76.5q0 10 2 27.5t2 25.5q0 23 -16 18l-17.5 -7l-17.5 -7t-15.5 -9t-9.5 -11q-47 -78 -100 -124t-125 -46q-25 0 -46.5 33.5t-21.5 107.5zM442 98q0 -37 15.5 -56 t25.5 -19q29 0 48.5 28.5t35.5 50.5q4 8 5 14.5t-5 8.5q-18 6 -44.5 18.5t-47.5 28.5q-12 12 -20 -14q-4 -16 -8.5 -29.5t-4.5 -30.5zM537 256q0 -12 11.5 -29.5t31.5 -23.5q18 -6 18 14q0 31 -16.5 42t-24.5 11q-4 0 -12 -3t-8 -11zM799 96q-1 -53 32 -53q23 0 49.5 20.5 t50 56.5t39 82t15.5 99q0 29 -8 34t-16 5q-4 0 -12.5 -3t-14.5 -15t-17.5 -30t-24.5 -34t-27.5 -30.5t-24.5 -20.5q-35 -18 -38 -37.5t-3 -73.5z" />
<glyph unicode="&#xe5;" horiz-adv-x="716" d="M18 -49q0 14 8.5 55t21.5 98.5t30.5 124t36.5 133.5q8 29 -25 29q-35 -2 -49 20.5t-14 45.5q0 16 29.5 33.5t80.5 37.5q23 10 30 18.5t13 26.5q39 121 75 215.5t77 184.5q12 27 24.5 58.5t25.5 57t27.5 43t30.5 17.5q37 0 55.5 -11.5t27.5 -31t11.5 -45t8.5 -55.5 q4 -25 11 -68t14 -95t15.5 -110.5t14.5 -111.5q2 -12 5 -22.5t20 -10.5q33 0 58.5 -8.5t25.5 -24.5q0 -12 -4.5 -14t-11.5 -1l-14 2t-13 -5l-9.5 -9.5t-27.5 -5.5q-18 0 -15 -22q4 -29 3 -59.5t3 -61.5q6 -39 10.5 -68.5t8.5 -55.5t8 -51.5t10 -56.5q4 -23 11.5 -42 t11.5 -37q4 -31 6 -54.5t2 -42.5q0 -53 -35 -53q-47 0 -57 25.5t-21 76.5q-4 14 0.5 34t-0.5 44q-4 23 0.5 54.5t-2.5 60.5q-8 45 -16 66.5t-14 35t-11.5 23.5t-7.5 33q-4 35 -7 53t-7 53q-4 31 -33 29q-53 -6 -111.5 -16.5t-87.5 -20.5q-16 -4 -25 -11t-13 -24 q-18 -66 -36 -133.5t-30 -127.5t-20.5 -106.5t-8.5 -70.5q0 -18 6.5 -27.5t6.5 -19.5q0 -20 -8.5 -27.5t-12.5 -27.5q-2 -20 -26 -21q-6 0 -12.5 -3t-14.5 -3q-41 0 -52.5 21.5t-11.5 62.5zM285 600q-9 -37 20 -31q33 4 80 7.5t86 7.5q31 2 27 39q-6 47 -12.5 98t-11.5 96 t-9 80t-6 49q-4 16 -9.5 42t-15.5 26t-17 -18.5t-14 -30.5q-8 -16 -21 -55.5t-29.5 -90.5t-34 -108.5t-33.5 -110.5zM295 1221q0 10 8 22t12 27q4 14 28 55t53.5 84t60 77t51.5 34q23 0 35 -18.5t32 -55.5q2 -4 4.5 -12.5t4.5 -12.5q29 -94 43 -146t14 -75q0 -18 -8 -18 q-10 0 -21 18q-4 4 -9 6t-9 13q-16 49 -37.5 83.5t-28.5 69.5q-4 20 -10 25.5t-20 5.5q-4 0 -11.5 -7t-13.5 -18q-23 -39 -42 -60.5t-25 -39.5q-6 -20 -10.5 -31.5t-4.5 -19.5q0 -25 -13 -36t-36 -11q-47 0 -47 41z" />
<glyph unicode="&#xe6;" horiz-adv-x="712" d="M16 319q0 10 9.5 29t37.5 33q12 6 15.5 15.5t5.5 23.5q2 33 13.5 92t22.5 127t20.5 131.5t11.5 101.5q4 98 19 135t69 37q10 0 30.5 -11t16.5 -34q-6 -23 26 -16q90 20 197.5 34.5t204.5 14.5q59 0 59 -31q0 -23 -12 -30.5t-43 -9.5q-104 -6 -223 -26t-211 -52 q-27 -10 -37 -41q-8 -23 -19.5 -69t-21.5 -101.5t-17.5 -109.5t-7.5 -89q0 -20 5.5 -28.5t25.5 -2.5q68 23 176.5 60t237.5 67q23 4 35 -4t12 -22q0 -20 -15.5 -25.5t-31.5 -11.5q-51 -20 -107.5 -42t-113 -43.5t-106.5 -42t-89 -34.5q-33 -12 -35 -49q-4 -35 -9 -59.5 t-5 -57.5q0 -20 -3 -56t1 -56l10 -35t6 -35q0 -16 5 -20.5t30 -4.5q27 0 84 18.5t117.5 42t109.5 42t62 18.5q41 0 41 -33q0 -20 -11.5 -28t-31.5 -21q-35 -23 -100.5 -49.5t-133 -50t-123 -39.5t-69.5 -16q-53 0 -75 27.5t-22 103.5q0 47 2 110.5t2 108.5q0 16 -4 38.5 t-16 30.5q-12 10 -19.5 16.5t-7.5 28.5zM211 1204q0 10 12.5 29.5t22.5 30.5q45 53 71.5 94t45 68.5t34 42t35.5 14.5q39 0 76 -70q2 -4 5 -18.5t5 -18.5q29 -80 41 -117.5t12 -60.5q0 -18 -8 -18t-14 9t-10 17q-4 4 -10.5 6t-10.5 13q-8 25 -15 39t-13.5 24t-12.5 19.5 t-10 23.5q-12 39 -37 39q-4 0 -10 -7t-14 -17q-37 -47 -54.5 -77t-34.5 -65q-10 -23 -24 -38t-37 -15t-34 15.5t-11 37.5z" />
<glyph unicode="&#xe7;" horiz-adv-x="716" d="M4 311q0 49 133 90q37 10 45 43q16 55 37 114.5t42.5 118t42 111t38.5 93.5q8 20 17.5 42.5t21.5 42t28.5 33t39.5 13.5q37 0 54 -25.5t17 -66.5q0 -82 16.5 -187.5t32.5 -236.5q2 -10 5.5 -19.5t17.5 -9.5t35.5 -1t41 -4t33 -7t13.5 -13q0 -8 -3 -11t-18 -3q-4 0 -18 -7 t-19 -11q-4 -4 -23.5 -5.5t-35.5 -5.5q-12 -2 -12 -20q4 -88 17 -184.5t26 -174.5q4 -18 8 -40.5t14 -38.5q8 -14 16.5 -32t8.5 -34q0 -25 -16.5 -40t-32.5 -15q-33 0 -53.5 16.5t-30.5 63.5q-4 12 -1 33.5t-1 43.5q-4 20 -5 34t-6 40q-4 27 0.5 71t-0.5 73q-2 14 -12 39.5 t-12 41.5q-4 33 -1 45.5t1 45.5q-4 29 -31 26q-23 -4 -52.5 -10t-58 -13.5t-53 -14.5t-37.5 -11q-12 -4 -21 -10t-13 -21q-35 -121 -54.5 -203.5t-19.5 -111.5v-45q0 -18 -14.5 -19.5t-16.5 -19.5q-2 -10 -3 -21.5t-11 -11.5q-6 0 -15.5 -14t-17.5 -14q-23 0 -33 8t-14 21.5 t-3 29.5t1 35q0 29 26.5 114.5t55.5 196.5q2 12 -12 12q-10 0 -21.5 -5t-30.5 -5q-20 0 -36.5 13.5t-16.5 37.5zM287 481q-11 -34 14 -32q14 2 36.5 3t46.5 3t47.5 3t41.5 3q16 2 16 9t-2 24q-6 43 -13 95t-14 99t-13.5 85t-8.5 50q-4 16 -5 26.5t-9 10.5q-10 0 -14 -7 t-11 -17q-8 -16 -21 -55.5t-28.5 -89.5t-32 -105.5t-30.5 -104.5zM471 1106q0 4 7 22.5t20 24.5q23 10 30 20.5t11 20.5q10 23 17 47.5t24 46.5q12 16 25 28.5t42 12.5q31 0 48.5 -20.5t17.5 -42.5q0 -39 -22.5 -52.5t-45.5 -25.5q-18 -10 -42.5 -28.5t-46 -35t-38 -29 t-20.5 -12.5q-14 0 -20.5 3.5t-6.5 19.5z" />
<glyph unicode="&#xe8;" horiz-adv-x="712" d="M10 272q0 10 9.5 28.5t37.5 33.5q12 6 15.5 15t5.5 24q2 33 14 100.5t24.5 143t23 146.5t12.5 109q4 98 19 135t69 37q10 0 30.5 -11t16.5 -34q-6 -23 26 -16q90 20 197.5 34.5t204.5 14.5q59 0 59 -31q0 -23 -12 -30.5t-43 -9.5q-104 -6 -223 -26t-211 -52 q-27 -10 -37 -41q-8 -23 -20.5 -77t-23.5 -117.5t-19.5 -125t-8.5 -96.5q0 -20 5 -28.5t26 -2.5q33 10 90 29.5t124.5 42t140.5 44t136 38.5q23 4 35 -4t12 -23q0 -20 -15 -25t-32 -12q-51 -20 -119.5 -45.5t-139 -52.5t-133 -51.5t-101.5 -38.5q-18 -8 -28.5 -34.5 t-12.5 -45.5q-6 -102 3 -149.5t9 -71.5q0 -16 5 -20.5t30 -4.5q27 0 83 19.5t116.5 44t109.5 44t62 19.5q41 0 41 -32q0 -20 -11.5 -28.5t-31.5 -21.5q-35 -23 -100.5 -50t-133 -52t-122 -42t-68.5 -17q-53 0 -75 27.5t-22 103.5q0 47 -1 87t-1 85q0 16 -4 38.5t-16 30.5 q-12 10 -19.5 16.5t-7.5 28.5zM195 1229q0 18 16 43.5t61 25.5q31 0 55.5 -15t24.5 -56q0 -53 -25 -78t-48 -25q-33 0 -33 7.5v23.5q0 14 -8.5 20.5t-17.5 12.5t-17 15t-8 26zM469 1243q0 25 23.5 42.5t54.5 17.5t52.5 -21.5t21.5 -62.5q0 -25 -12.5 -44.5t-30 -33 t-33 -20.5t-21.5 -7q-4 0 -11 2t-7 12q0 8 5 24.5t-15 31.5q-10 8 -18.5 21.5t-8.5 37.5z" />
<glyph unicode="&#xe9;" horiz-adv-x="712" d="M16 319q0 10 9.5 29t37.5 33q12 6 15.5 15.5t5.5 23.5q2 33 11 81t18.5 100t16.5 103.5t9 90.5q4 98 19.5 135t68.5 37q10 0 31 -11.5t16 -33.5q-6 -23 27 -17q90 20 197.5 34.5t203.5 14.5q59 0 60 -30q0 -23 -12.5 -31t-42.5 -10q-104 -6 -223 -25.5t-212 -52.5 q-27 -10 -36 -41q-8 -23 -17.5 -57.5t-17.5 -74.5t-13.5 -82t-5.5 -77q0 -20 5.5 -28.5t25.5 -2.5q68 23 176.5 47.5t237.5 55.5q23 4 35 -4.5t12 -22.5q0 -20 -15.5 -25.5t-31.5 -11.5q-51 -20 -107.5 -38.5t-113 -35t-106.5 -33t-89 -30.5q-33 -12 -35 -49 q-4 -35 -9 -59.5t-5 -57.5q0 -20 -3 -56t1 -56l10 -35t6 -35q0 -16 5 -20.5t30 -4.5q16 0 53 10.5t82 24.5t93 32.5t89 33t71 24.5t38 10q41 0 41 -32q0 -20 -11.5 -28.5t-31.5 -20.5q-35 -23 -108.5 -52.5t-151.5 -55.5t-141.5 -44t-77.5 -18q-53 0 -75 27.5t-22 103.5 q0 47 2 110.5t2 108.5q0 16 -4 38.5t-16 30.5q-12 10 -19.5 16.5t-7.5 28.5zM293 1225q0 23 16.5 44t46.5 21q41 0 62.5 -13t34.5 -32q16 -25 34.5 -51.5t36 -50t30.5 -41t17 -23.5q12 -18 4.5 -26t-30.5 2q-18 8 -30.5 13t-24 9t-22.5 10.5t-28 18.5q-31 25 -58.5 35 t-47 17t-30.5 20.5t-11 46.5z" />
<glyph unicode="&#xea;" horiz-adv-x="364" d="M69 -78.5q1 21.5 1 43.5q0 178 12 333t29.5 277.5t36 210.5t32.5 134q4 10 -1 28.5t-5 26.5t7 26.5t12 24.5q6 6 8 12t7 12.5t14 9.5t32 3q33 0 48 -21.5t15 -52.5q0 -27 -24.5 -84t-54 -170.5t-54 -300t-24.5 -471.5q0 -8 2 -12t5 -9t6 -13.5t3 -22.5q0 -18 -14.5 -41 t-30.5 -23q-29 0 -42 11.5t-17 29t-3 39zM352 1171q0 4 7.5 22.5t19.5 25.5q23 10 30 20t11 21q10 23 27.5 26.5t33.5 26.5q12 16 25.5 28.5t42.5 12.5q31 0 48 -20.5t17 -43.5q0 -39 -22.5 -52t-44.5 -26q-18 -10 -46 -21t-53.5 -20.5t-45 -15.5t-23.5 -6q-14 0 -20.5 3 t-6.5 19z" />
<glyph unicode="&#xeb;" horiz-adv-x="364" d="M8 1061q0 10 8.5 22.5t12.5 26.5t27.5 55t53 84t60.5 77t51 34q23 0 35 -18.5t33 -55.5q2 -4 4 -12t4 -12q29 -94 43 -146.5t14 -75.5q0 -18 -8 -18q-10 0 -20 18q-4 4 -9.5 6.5t-9.5 12.5q-16 49 -37.5 84t-27.5 69q-4 20 -10.5 25.5t-20.5 5.5q-4 0 -11 -7t-14 -17 q-23 -39 -42 -60.5t-25 -40.5q-6 -20 -10.5 -31.5t-4.5 -19.5q0 -25 -13 -36t-36 -11q-47 0 -47 41zM86 860q0 8 7 26.5t11 24.5q6 6 8.5 12.5t7.5 12.5t14 9t32 3q33 0 48 -21.5t15 -52.5q0 -27 -5 -81t-12 -164.5t-12 -292.5t-5 -467q0 -8 2 -12t5 -9.5t6 -13.5t3 -22 q0 -18 -14.5 -41t-30.5 -23q-29 0 -42 11.5t-17.5 28.5t-3.5 38.5t1 44.5q0 360 -5 601t-7 333q0 10 -3 28.5t-3 26.5z" />
<glyph unicode="&#xec;" horiz-adv-x="364" d="M-23 1149q0 18 16.5 44t61.5 26q31 0 55.5 -15.5t24.5 -56.5q0 -53 -25.5 -78t-48.5 -25q-33 0 -32.5 7.5t0.5 23.5q0 14 -8.5 20.5t-17.5 12.5t-17.5 15.5t-8.5 25.5zM115 879q0 8 7 26.5t11 24.5q6 6 8 12t7.5 12.5t14.5 9.5t32 3q33 0 47 -33t14 -64q0 -18 -3 -36.5 t-7 -51t-10.5 -87t-10.5 -144.5t-7 -223t-3 -324q0 -8 2 -12t5 -9.5t6 -13.5t3 -22q0 -18 -14.5 -41t-30.5 -23q-29 0 -42 11.5t-17 29t-3 39t1 43.5q0 360 3 561t-7 256q-2 10 -4 28.5t-2 27.5zM231 1135q0 31 21.5 52t62.5 21q25 0 44.5 -12t33 -29.5t20.5 -33t7 -21.5 q0 -4 -2 -11t-12 -7q-8 0 -24.5 5t-31.5 -16q-8 -10 -21.5 -18t-37.5 -8q-25 0 -42.5 23.5t-17.5 54.5z" />
<glyph unicode="&#xed;" horiz-adv-x="364" d="M-29 1348q0 23 18.5 49t49.5 26q29 0 48 -17t32 -36q16 -25 40.5 -55.5t48 -59t40 -50t16.5 -29.5q0 -21 -20 -21t-45 11.5t-49.5 26.5t-48 30.5t-42.5 25.5q-49 27 -68.5 45.5t-19.5 53.5zM47 -119q0 27 20.5 90.5t44 185.5t44 314.5t20.5 476.5q0 14 -8 21.5t-8 36.5 q0 18 14.5 40.5t30.5 22.5q29 0 42 -11t17 -28.5t3 -40t-1 -43.5q0 -178 -7 -340t-19.5 -292t-26.5 -224t-29 -139q-4 -10 1 -28.5t5 -26.5t-7 -27t-11 -25q-6 -6 -8 -12t-7 -12t-15.5 -9.5t-30.5 -3.5q-33 0 -48.5 21.5t-15.5 52.5z" />
<glyph unicode="&#xee;" horiz-adv-x="710" d="M4 139q0 84 18.5 182.5t49 196.5t70.5 188.5t81 161t82 112.5t74 42q43 0 59.5 -20.5t16.5 -43.5v-30.5t16 -24.5q31 -18 69 -54t71.5 -84t56 -104.5t22.5 -115.5q0 -53 -27.5 -123t-71.5 -141.5t-99.5 -140t-112.5 -123t-110.5 -87t-92.5 -32.5q-31 0 -61.5 14t-55 44 t-40 76t-15.5 107zM96 145q0 -74 30.5 -112.5t63.5 -38.5q39 0 103.5 51t128 130t110 173t46.5 180q0 59 -26 113.5t-60.5 95.5t-70.5 64.5t-56 23.5q-16 0 -25.5 -6t-32.5 -35q-8 -12 -24.5 -41.5t-34 -64.5t-33.5 -69t-25 -52q-4 -10 -14 -20.5t-14 -20.5q-23 -49 -36 -93 t-19.5 -88t-8.5 -90t-2 -100zM475 1114q0 4 7 22.5t20 24.5q23 10 30 20.5t11 20.5q10 23 17 47.5t24 46.5q12 16 25.5 28.5t41.5 12.5q31 0 48.5 -20.5t17.5 -42.5q0 -39 -22.5 -52.5t-45.5 -25.5q-18 -10 -42.5 -28.5t-46 -35t-38 -28.5t-20.5 -12q-14 0 -20.5 3t-6.5 19z " />
<glyph unicode="&#xef;" horiz-adv-x="716" d="M6 238q0 68 19.5 145.5t51.5 157.5t70.5 158.5t77.5 148.5q2 4 -1 8t-13 4q-20 0 -27.5 7t-11.5 14q-4 10 -16.5 14t-12.5 23q0 14 23.5 23t52.5 14.5t54.5 8.5t29.5 3q10 2 16.5 2t14.5 10q39 53 83 93t72 40q43 0 58.5 -21.5t15.5 -46.5q0 -8 -18.5 -21t-40 -27.5 t-38.5 -27t-17 -20.5q0 -16 14 -22q33 -14 75 -51t78.5 -88.5t61 -114t24.5 -125.5q0 -47 -25.5 -112.5t-68.5 -134.5t-97 -135.5t-113.5 -118.5t-117 -85t-106.5 -33t-83 27t-52 74q-8 23 -8 30q-4 12 1 20.5t1 22.5q-2 6 -4 13.5t-4 13.5q0 8 -3.5 22.5t-6.5 31t-6 30.5 t-3 25zM92 242q0 -33 2 -72t12.5 -73t31 -57.5t57.5 -23.5q27 0 67.5 26t85.5 67t89 95t80 111.5t58.5 112.5t22.5 102q0 59 -23.5 119t-57.5 107t-71.5 76.5t-68.5 29.5q-8 0 -19.5 -5t-25.5 -26q-35 -49 -77 -116.5t-78 -145t-60.5 -161.5t-24.5 -166zM305 1217 q0 10 8.5 22t12.5 27q4 14 28.5 47t55 66.5t62.5 58t52 24.5q23 0 35 -18.5t33 -54.5q2 -4 4 -12.5t4 -12.5q29 -94 53.5 -158.5t24.5 -87.5q0 -18 -8 -18q-10 0 -21 18q-4 4 -9 6t-9 13q-8 25 -21.5 49t-27 46.5t-24.5 44t-13 38.5q-4 20 -10.5 25.5t-20.5 5.5 q-4 0 -19.5 -7.5t-23.5 -15.5q-16 -16 -28.5 -25.5t-21.5 -18.5t-14.5 -21.5t-5.5 -34.5q0 -25 -13 -36t-36 -11q-47 0 -47 41z" />
<glyph unicode="&#xf0;" horiz-adv-x="1128" d="M139 492q0 74 28 156.5t73 152t103 115t118 45.5q20 0 41.5 -12.5t40 -30t33 -36t22.5 -28.5q16 -23 28.5 -18.5t18.5 26.5q2 6 21.5 39t47 78t62.5 96t66.5 97.5t58.5 81t41 44.5q41 33 82 44.5t72 11.5q35 0 56.5 -23.5t21.5 -58.5q0 -16 -11.5 -27.5t-27 -17.5 t-32 -10.5t-28.5 -6.5q-33 -6 -63.5 -24.5t-57 -40t-46 -43t-29.5 -33.5t-25.5 -38.5t-30 -55.5t-27 -53.5t-14.5 -30.5q-6 -14 2.5 -11t20.5 15q8 8 34.5 26.5t60.5 37t71 32t67 13.5q33 0 64 -18.5t55.5 -51.5t38.5 -79t14 -101q0 -115 -33.5 -210t-87 -171t-119 -134.5 t-128 -100.5t-114.5 -69.5t-79 -41.5q-43 -23 -67.5 -68t-24.5 -80q0 -53 50 -88t147 -35q27 0 42 9.5t28.5 20.5t27.5 20.5t39 9.5q29 0 31 -19.5t2 -34.5q0 -12 -7.5 -25t-17.5 -25.5t-21.5 -23t-19.5 -12.5q-16 -6 -50 -28.5t-87 -22.5q-18 0 -46 24.5t-65 41.5 q-18 8 -43.5 24.5t-48 38t-39 47t-18.5 52.5q-4 53 15.5 94t43.5 65q12 12 7 20.5t-13 8.5q-57 4 -122.5 51t-122 115.5t-93.5 145.5t-37 139zM225 496q0 -33 24.5 -83.5t66.5 -102.5t97.5 -99t116.5 -74q29 -12 35 -30.5t4 -28.5q-2 -14 2.5 -14t20.5 16q66 66 133.5 92.5 t127.5 51t109.5 66.5t77.5 136q6 25 19.5 45.5t26 44t21.5 52t9 67.5q0 23 -11 37t-11 37q0 37 -5.5 69.5t-15.5 59t-23.5 42t-31.5 15.5q-23 0 -50.5 -13.5t-55 -29.5t-50 -30.5t-35.5 -16.5q-12 -2 -22 -2t-27 16q-12 12 -16 6t-8 -16q-10 -25 -18.5 -53.5t-18.5 -54 t-23.5 -43t-34.5 -17.5q-25 0 -43 19.5t-28 48.5q-6 18 -37 55t-74 67q-16 10 -48 13.5t-54 -23.5q-31 -37 -58.5 -61.5t-47 -56t-32 -80t-12.5 -127.5z" />
<glyph unicode="&#xf1;" horiz-adv-x="759" d="M4 139q0 84 21.5 187.5t56.5 209t80 206t91 178t89 125t76 47.5q43 0 59.5 -20.5t16.5 -43.5v-30.5t16 -24.5q31 -18 68.5 -54t71.5 -84.5t56.5 -104.5t22.5 -116q0 -55 -29.5 -128.5t-79 -153.5t-109.5 -158t-121.5 -139.5t-118 -99t-95.5 -37.5q-31 0 -61.5 14t-55 44 t-40 76t-15.5 107zM96 145q0 -74 30.5 -112.5t63.5 -38.5q25 0 67 28.5t89 76.5t95 110.5t87 130.5t63.5 134.5t24.5 123.5q0 59 -25.5 113.5t-60 95.5t-70.5 64.5t-57 23.5q-16 0 -25 -6t-32 -35q-8 -12 -24.5 -42t-34 -64.5t-33.5 -68.5t-25 -52q-4 -10 -14 -20.5 t-14 -20.5q-45 -98 -75 -215t-30 -226zM139 1366q0 23 18.5 49.5t49.5 26.5q29 0 48 -17.5t32 -35.5q16 -25 40.5 -55.5t48 -59.5t40 -50.5t16.5 -29.5q0 -20 -20 -20t-45 11t-49.5 26.5t-48 30.5t-42.5 26q-49 27 -68.5 45t-19.5 53z" />
<glyph unicode="&#xf2;" horiz-adv-x="761" d="M20 156q0 106 4.5 181t11.5 127t16 84t20 54q29 63 33 93t4 40q0 29 -2.5 67t-2.5 64q0 33 27 50.5t39 17.5q33 0 53.5 -22.5t20.5 -88.5q0 -37 -18.5 -74.5t-41 -107.5t-41 -187.5t-18.5 -316.5q0 -66 36 -105.5t109 -39.5q41 0 106.5 18.5t127 76.5t106.5 168t45 292 q0 43 -9 83t-23.5 73.5t-28.5 60.5t-23 43q-16 35 -26 57.5t-10 44.5q0 10 18 29.5t31 19.5q29 0 46 -7t27.5 -18t16.5 -25.5t12 -28.5q23 -41 46.5 -128t23.5 -216q0 -168 -56.5 -290t-136.5 -202t-169.5 -118t-157.5 -38q-88 0 -152 71t-64 198zM385 1042q0 4 7 22.5 t20 25.5q23 10 30 20t11 20q10 23 17 47.5t24 47.5q12 16 25 28.5t42 12.5q31 0 48.5 -20.5t17.5 -43.5q0 -39 -22.5 -52t-45.5 -26q-18 -10 -42.5 -28.5t-46 -35t-38 -28.5t-20.5 -12q-14 0 -20.5 3t-6.5 19z" />
<glyph unicode="&#xf3;" horiz-adv-x="761" d="M20 197q0 106 4.5 181t11.5 127t16 84t20 54q29 63 33 93t4 40q0 29 -2.5 67t-2.5 64q0 33 27 50.5t39 17.5q33 0 53.5 -22.5t20.5 -88.5q0 -37 -18.5 -74.5t-41 -107.5t-41 -187.5t-18.5 -316.5q0 -66 36 -105.5t109 -39.5q41 0 106.5 27.5t127 97t106.5 189.5t45 302 q0 43 -11 87t-25.5 82t-31 67.5t-24.5 46.5q-16 35 -26.5 57.5t-10.5 44.5q0 10 18.5 29.5t30.5 19.5q29 0 46.5 -7t27.5 -18t16.5 -25.5t12.5 -28.5q23 -41 50.5 -139.5t27.5 -227.5q0 -168 -56.5 -300t-136.5 -222t-169.5 -138.5t-157.5 -48.5q-88 0 -152 71t-64 198z M176 1149q0 10 8.5 22.5t12.5 26.5t27.5 55t53 84t60.5 77t51 34q23 0 35 -18.5t33 -55.5q2 -4 4 -12t4 -12q29 -94 43 -146.5t14 -75.5q0 -18 -8 -18q-10 0 -20 18q-4 4 -9.5 6.5t-9.5 12.5q-16 49 -37.5 84t-27.5 69q-4 20 -10.5 25.5t-20.5 5.5q-4 0 -11.5 -7t-13.5 -17 q-23 -39 -42 -60.5t-25 -40.5q-6 -20 -10.5 -31.5t-4.5 -19.5q0 -25 -13 -36t-36 -11q-47 0 -47 41z" />
<glyph unicode="&#xf4;" horiz-adv-x="761" d="M20 197q0 106 4.5 181t11.5 127t16 84t20 54q14 31 21 62.5t9 57t1 43t-1 23.5q0 29 -2 67t-2 65q0 33 27 50t39 17q33 0 53.5 -22.5t20.5 -87.5q0 -37 -17.5 -83.5t-39 -126t-39 -205.5t-17.5 -325q0 -66 36 -105.5t109 -39.5q41 0 106.5 27.5t127 97t106.5 189.5 t45 302q0 88 -20.5 145.5t-38.5 92.5q-16 35 -26.5 57.5t-10.5 44.5q0 10 18.5 29.5t30.5 19.5q29 0 46.5 -7t27.5 -18.5t16.5 -25.5t12.5 -29q23 -41 34 -116.5t11 -204.5q0 -168 -56.5 -300t-136.5 -222t-169.5 -138.5t-157.5 -48.5q-88 0 -152 71t-64 198zM137 1282 q0 23 18.5 49.5t49.5 26.5q29 0 48 -17.5t32 -35.5q16 -25 40.5 -55.5t48 -59.5t40 -50.5t16.5 -29.5q0 -20 -20 -20t-45 11t-49.5 26.5t-48 31t-42.5 25.5q-49 27 -68.5 45t-19.5 53z" />
<glyph unicode="&#xf5;" horiz-adv-x="307" d="M84 70q0 4 5 31.5t12.5 67.5t15.5 87t15 89t12.5 73t5.5 39q0 12 -6.5 27.5t-6.5 27.5q0 39 20.5 53.5t43.5 14.5q53 0 53 -82q0 -16 -12.5 -73.5t-27.5 -122t-27.5 -119t-12.5 -64.5q0 -25 6 -37t6 -21q0 -6 -2 -9t-2 -9q0 -4 3 -6t3 -8q0 -20 -11 -43t-34 -23 q-31 0 -45 30t-14 77z" />
<glyph unicode="&#xf6;" horiz-adv-x="655" d="M360 797q0 10 8.5 22t12.5 27q4 14 27.5 55t53.5 84t60.5 77t50.5 34q23 0 35.5 -18.5t32.5 -55.5q2 -4 4 -12.5t4 -12.5q29 -94 43.5 -146t14.5 -75q-1 -18 -9 -18q-10 0 -20 18q-4 4 -9 6t-10 13q-16 49 -37.5 83.5t-27.5 69.5q-4 20 -10 25.5t-21 5.5q-4 0 -11 -7 t-13 -18q-23 -39 -42.5 -60.5t-25.5 -39.5q-6 -20 -10 -31.5t-4 -19.5q0 -25 -13.5 -36t-35.5 -11q-47 0 -48 41z" />
<glyph unicode="&#xf7;" horiz-adv-x="778" d="M322 854q0 86 42 143.5t128 57.5q35 0 79.5 -28t61.5 -103q4 -27 16.5 -46.5t38.5 -19.5q27 0 59.5 26.5t36.5 86.5q2 16 11.5 22t9.5 17q0 10 11 18t22 8q10 0 18 -10t8 -45q0 -37 -18.5 -73t-45 -63.5t-58 -45t-56.5 -17.5q-49 0 -86 35t-49 88q-6 35 -22.5 47.5 t-39.5 12.5q-43 0 -58 -27t-15 -78q0 -29 5 -41t5 -24q0 -29 -25 -29q-4 0 -9 5t-9 7q-8 2 -16.5 9.5t-10.5 11.5q-10 20 -22 25t-12 30z" />
<glyph unicode="&#xf8;" horiz-adv-x="489" d="M152 1028q0 16 23.5 30.5t45.5 20.5q31 8 77 15.5t94 10.5t93 5t76 2q37 0 74 -9t37 -26q0 -16 -15 -18q-8 -2 -13 -8.5t-21 -6.5h-48.5t-44 -3t-48 -9t-60.5 -18q-10 -4 -25.5 -7t-25.5 -8q-10 -4 -33 -7t-31 -7q-14 -6 -22.5 -10t-17.5 -7t-22.5 -4t-33.5 -1t-39.5 16 t-19.5 49z" />
<glyph unicode="&#xf9;" horiz-adv-x="489" d="M324 1098q0 39 7.5 51t30.5 12q35 0 46.5 -15.5t19.5 -53.5q8 -47 55 -48q12 0 29.5 2.5t32 11.5t25 25.5t10.5 44.5q0 16 11 26.5t11 21.5q0 10 11.5 18t21.5 8t17 -14t7 -49q0 -51 -18 -87t-45 -58.5t-58.5 -33t-56.5 -10.5q-35 0 -64.5 13.5t-50 35t-31.5 48t-11 51.5 z" />
<glyph unicode="&#xfa;" horiz-adv-x="307" d="M172 954q0 25 26.5 45.5t57.5 20.5t56.5 -26.5t25.5 -67.5q0 -27 -21 -45q-16 -12 -28.5 -23.5t-22.5 -11.5t-25.5 6t-15.5 16t-6 20.5t-16 12.5q-8 2 -19.5 15.5t-11.5 37.5z" />
<glyph unicode="&#xfb;" horiz-adv-x="655" d="M461 893q0 72 21.5 136.5t54 113.5t69.5 77.5t66 28.5q31 0 48 -12t17 -27q0 -16 -7 -28.5t-30 -28.5q-12 -8 5 -14q29 -6 51 -31t22 -74q0 -55 -23.5 -99t-59.5 -76t-76.5 -48t-73.5 -16t-58.5 24.5t-25.5 73.5zM537 918q0 -23 12 -33.5t18 -10.5q12 0 31.5 6.5t38 20.5 t32 40t13.5 65q0 25 -11.5 34t-17.5 9q-4 0 -6 -3.5t-10 -3.5q-4 0 -8 3.5t-8 3.5q-10 0 -24.5 -12.5t-28 -32t-22.5 -43t-9 -43.5z" />
<glyph unicode="&#xfc;" horiz-adv-x="471" d="M-162 -354q0 14 29 20t57 6q90 0 135 21.5t45 75.5q0 18 -31.5 37.5t-62.5 19.5q-27 0 -39 -6t-24 -6t-35 7t-23 34q0 49 48 69q10 4 30.5 20.5t40 35t34.5 37t17 26.5q2 12 9.5 23.5t17.5 11.5q16 0 37.5 -17.5t21.5 -33.5q0 -10 -14 -17q-29 -16 -62.5 -47t-48.5 -47 q-18 -23 5 -18q29 4 59.5 -2.5t56 -20.5t42 -37.5t16.5 -56.5q0 -43 -25 -80q-2 -4 -9 -9t-16.5 -11.5t-17.5 -12.5t-10 -8q-37 -37 -80 -59.5t-131 -22.5q-14 0 -22.5 5t-13.5 13.5t-11 16.5t-17 12q-4 2 -6 9.5t-2 11.5z" />
<glyph unicode="&#xfd;" horiz-adv-x="489" d="M252 1034q0 8 10 23.5t25.5 37t32 48t26.5 57.5q8 20 26.5 35.5t47.5 15.5q31 0 49 -22.5t18 -44.5q0 -23 -28.5 -51.5t-63.5 -56t-67.5 -46t-38.5 -18.5q-25 0 -31 3t-6 19zM418 977q0 10 41 55q18 20 29.5 34.5t19.5 28t17.5 26t23.5 30.5q14 16 21.5 32.5t35.5 16.5 q31 0 53.5 -18.5t22.5 -40.5q0 -39 -24.5 -56.5t-47.5 -29.5q-16 -8 -42.5 -25.5t-53.5 -34t-48.5 -30t-25.5 -13.5q-14 0 -18 4.5t-4 20.5z" />
<glyph unicode="&#xfe;" horiz-adv-x="778" d="M283 -479q0 55 31.5 134t83 149.5t116 120.5t129.5 50q35 0 55.5 -23.5t20.5 -45.5q0 -18 -9.5 -30.5t-31.5 -12.5q-10 0 -15.5 3t-21.5 3q-35 0 -80 -27.5t-87 -74t-70.5 -104.5t-28.5 -120q0 -35 12 -49t35 -14q6 0 18.5 6t25.5 15.5t24.5 19.5t17.5 16 q16 16 36.5 26.5t26.5 10.5q14 0 23.5 -5t9.5 -24q0 -16 -15.5 -21t-25.5 -22q-10 -16 -24.5 -30.5t-18.5 -32.5q-8 -16 -37.5 -36.5t-68.5 -20.5q-47 0 -89 30.5t-42 108.5z" />
<glyph unicode="&#xff;" horiz-adv-x="489" d="M258 1049q0 23 7 34t30 11t39 -12.5t16 -37.5q0 -8 1 -15t3 -25q0 -10 1 -15.5t3 -13.5t6.5 -23.5t10.5 -42.5q4 -18 12 -25t12 -7q16 0 33 19t30 48t25.5 58.5t18.5 52.5q4 10 14 12t15 6q4 8 10 17.5t14 9.5t8 -19q0 -10 -10 -34.5t-25.5 -58.5t-31 -69.5t-25.5 -66.5 q-20 -37 -43.5 -50.5t-46.5 -13.5q-20 0 -38.5 23t-33 55.5t-24.5 71.5t-17 70q-4 14 -9 22t-5 19z" />
<glyph unicode="&#x152;" horiz-adv-x="731" d="M18 37q0 37 30 105.5t77 148.5t105.5 162t115.5 147q43 49 90 80t92 31q18 0 47 -15.5t31 -48.5q0 -10 6 -19.5t19 -11.5q51 -6 51 -55q0 -29 -16.5 -46t-16.5 -38q0 -43 -7 -123t-7 -166q0 -10 3 -28.5t6 -40t6 -44t5 -40.5q0 -8 6.5 -23.5t13.5 -32t13 -31t6 -20.5 q0 -53 -51 -53q-31 0 -50.5 34t-30.5 81t-14 96t-3 82q0 53 5 93t5 87q0 10 1 15.5t1 19.5t-10 14q-4 0 -11.5 -7t-14.5 -15t-14 -16.5t-9 -10.5q-86 -94 -141.5 -162.5t-90.5 -115.5t-55.5 -78t-36.5 -47.5t-33.5 -22.5t-46.5 -6q-16 0 -29.5 12.5t-23.5 29.5t-16.5 38.5 t-6.5 40.5zM168 125q0 -21 8 -21q12 0 29 13q14 14 21 20t15.5 15.5t23 27t45 52t81.5 92t135 145.5q4 6 9.5 13t5.5 16q0 18 -11.5 22t-19.5 17q-6 10 -6 24t-17 14q-18 0 -35.5 -7t-35.5 -27q-61 -68 -107.5 -133.5t-77 -122t-47 -98.5t-16.5 -62zM457 858 q0 72 21.5 136.5t54 113.5t69.5 77.5t66 28.5q31 0 48 -12t17 -26q0 -16 -7 -28.5t-30 -29.5q-12 -8 4 -14q29 -6 51.5 -30.5t22.5 -74.5q0 -55 -23.5 -99t-59.5 -75.5t-76.5 -48t-73.5 -16.5t-58.5 24.5t-25.5 73.5zM532 883q0 -23 12.5 -33t18.5 -10q12 0 31.5 6t38 20.5 t32 40t13.5 64.5q0 25 -11.5 34t-17.5 9q-4 0 -6 -3t-10 -3q-4 0 -8 3t-9 3q-10 0 -24 -12.5t-27.5 -32t-23 -43t-9.5 -43.5z" />
<glyph unicode="&#x153;" horiz-adv-x="655" d="M-29 -14q0 37 18.5 120.5t42 175t45 172.5t27.5 115q2 16 8.5 36t15.5 37t23.5 29.5t34.5 12.5q33 0 51.5 -26.5t18.5 -55.5q0 -10 -6 -25.5t-21 -29.5q-10 -10 -26.5 -22.5t-26.5 -41.5q-18 -53 -35.5 -112.5t-32 -111.5t-22.5 -93t-8 -57q0 -25 12 -25q6 0 16.5 4 t26.5 18q10 10 23.5 11.5t27.5 17.5q33 35 70 87t70.5 107.5t63.5 106.5t52 84q31 47 49.5 61.5t34.5 14.5q37 0 43 -64q2 -20 3 -58t1 -82v-88v-75q0 -51 17.5 -102t17.5 -92q0 -33 -18.5 -64.5t-46.5 -31.5q-16 0 -35 21.5t-19 64.5q0 49 -1 105t-2 106.5t-3 88t-4 52.5 q-6 25 -10 24q-12 0 -21 -14q-10 -16 -26.5 -49t-26.5 -49q-16 -23 -27.5 -37t-27.5 -37q-27 -37 -61.5 -67.5t-59.5 -61.5q-16 -18 -27.5 -39.5t-25.5 -36.5q-41 -39 -82 -63.5t-74 -24.5q-20 0 -28.5 21.5t-8.5 42.5zM371 836q0 4 5 11t13 17q18 18 27.5 34.5t17.5 33 t17.5 35t25.5 37.5q14 16 46 37.5t61 21.5q31 0 42 -21.5t11 -44.5q0 -39 -23.5 -54t-50.5 -19q-12 -2 -36.5 -21.5t-50 -42t-46 -41t-24.5 -18.5q-25 0 -30 9t-5 26z" />
<glyph unicode="&#x178;" horiz-adv-x="708" d="M-6 51q0 25 7 75t19.5 111.5t25.5 129t26.5 128t23.5 108.5t15 71q6 33 19 60.5t54 27.5q25 2 51.5 -20.5t26.5 -41.5q0 -23 -26 -49q-10 -10 -26.5 -22.5t-27.5 -40.5q-18 -53 -35.5 -125t-31 -141.5t-21.5 -123t-8 -69.5q0 -25 12 -25q6 0 16.5 4.5t26.5 18.5 q31 31 77 93.5t95 133t93.5 137t70.5 107.5q31 47 49.5 61.5t34.5 14.5q37 0 43 -64q0 -4 2 -31.5t3 -60.5t3 -62.5t2 -39.5t-3 -20.5t-3 -20.5q2 -27 8.5 -56.5t13.5 -59.5t12 -57.5t5 -47.5q0 -16 2 -23.5t4 -12.5t4 -9.5t2 -14.5q0 -33 -19 -52t-48 -19q-8 0 -19.5 11 t-21.5 28.5t-17.5 39t-7.5 43.5q0 49 -1 98.5t-3 91.5t-4 73.5t-4 46.5q-6 25 -10 24q-12 0 -21 -14q-25 -35 -62.5 -88t-78.5 -109.5t-82 -107.5t-74 -84q-41 -39 -81.5 -63.5t-73.5 -24.5q-20 0 -28.5 21.5t-8.5 41.5zM209 930q0 31 29.5 52.5t70.5 21.5q14 0 24.5 -9.5 t15.5 -20.5t7 -23.5t2 -18.5q0 -25 -8 -40t-21.5 -23.5t-28.5 -10.5t-28 -2q-25 0 -44 21.5t-19 52.5zM498 928q0 18 21.5 34.5t43.5 16.5q31 0 57.5 -17.5t26.5 -58.5q0 -53 -25.5 -77.5t-48.5 -24.5q-33 0 -38 17.5t-5 33.5q0 14 -5 21.5t-11 13.5t-11 15t-5 26z" />
<glyph unicode="&#x2c6;" horiz-adv-x="751" d="M18 37q0 37 36 110.5t90.5 160.5t118 175t120.5 154q43 49 90 80t92 31q18 0 47 -15.5t31 -48.5q0 -10 6 -19.5t19 -11.5q51 -6 51 -55q0 -29 -16.5 -46t-16.5 -38q0 -43 -7 -123t-7 -166q0 -59 2 -94t5 -59.5t9 -47t12 -57.5q2 -8 8.5 -23.5t13.5 -31.5t12 -30.5 t5 -20.5q0 -53 -51 -54q-63 0 -84.5 94.5t-21.5 303.5q0 53 5 93t5 87q0 10 1 15.5t1 19.5t-10 14q-4 0 -11.5 -7t-14.5 -15.5t-14 -16.5t-9 -10q-86 -94 -145.5 -162.5t-100.5 -118t-68.5 -81t-50.5 -49t-44 -24.5t-50 -7q-33 0 -45.5 28.5t-12.5 65.5zM168 125 q0 -16 6 -16q8 0 19 8q14 12 24 22.5t23.5 23.5t35 35.5t57.5 61.5t91 98.5t139 147.5q4 6 9.5 13t5.5 16q0 18 -11.5 22t-19.5 16q-6 10 -6 24.5t-17 14.5q-18 0 -35.5 -7t-35.5 -27q-61 -68 -112.5 -139.5t-90.5 -135t-60.5 -111t-21.5 -67.5zM311 1024q0 23 18.5 49.5 t49.5 26.5q29 0 48 -17.5t32 -35.5q16 -25 40.5 -55.5t48 -59.5t40 -50.5t16.5 -29.5q0 -21 -20 -21t-45 11.5t-49.5 27t-48 30.5t-42.5 26q-49 27 -68.5 45t-19.5 53z" />
<glyph unicode="&#x2dc;" horiz-adv-x="444" d="M20 92q0 14 5.5 60.5t16.5 105.5t26.5 119.5t37.5 103.5q23 45 47.5 86t49 72t47 49.5t43.5 18.5q23 0 41 -9.5t18 -33.5q0 -23 17 -29q29 -10 46 -47t17 -96q0 -31 -17.5 -81.5t-46 -109.5t-64.5 -120.5t-71.5 -111t-67 -81t-54.5 -31.5q-45 0 -68 41t-23 94zM102 96 q0 -41 23 -41q20 0 56 47.5t70 114t58.5 139t24.5 125.5q0 29 -15.5 51.5t-42.5 22.5q-18 0 -23 -16.5t-26 -18.5q-14 -2 -28.5 -29.5t-28.5 -70.5t-26.5 -93.5t-21.5 -97.5t-14.5 -82.5t-5.5 -50.5zM141 924q0 23 14.5 48t45.5 25q29 0 49 -11t29 -32q8 -20 19 -43.5 t20.5 -45t16.5 -38t7 -24.5q0 -16 2.5 -32.5t-22.5 -16.5q-6 0 -36 17t-61.5 44t-57.5 56.5t-26 52.5z" />
<glyph unicode="&#x2000;" horiz-adv-x="760" />
<glyph unicode="&#x2001;" horiz-adv-x="1520" />
<glyph unicode="&#x2002;" horiz-adv-x="760" />
<glyph unicode="&#x2003;" horiz-adv-x="1520" />
<glyph unicode="&#x2004;" horiz-adv-x="506" />
<glyph unicode="&#x2005;" horiz-adv-x="380" />
<glyph unicode="&#x2006;" horiz-adv-x="253" />
<glyph unicode="&#x2007;" horiz-adv-x="253" />
<glyph unicode="&#x2008;" horiz-adv-x="190" />
<glyph unicode="&#x2009;" horiz-adv-x="304" />
<glyph unicode="&#x200a;" horiz-adv-x="84" />
<glyph unicode="&#x2010;" horiz-adv-x="593" d="M98 379q0 20 42 38.5t100.5 32t120 20.5t102.5 7q6 0 12 -1t14 -1q4 0 6.5 -2t6.5 -2q6 0 12 -1t10 -1q8 0 13.5 -4t11.5 -4q10 0 17 -6t7 -13q0 -20 -14 -20q-10 0 -18 -8q-4 -4 -17 -4q-16 0 -55 -5.5t-68 -13.5q-4 -2 -8 0t-8 0l-8 -4l-8 -4q-14 -4 -25.5 -7t-15.5 -7 q-41 -27 -84 -43.5t-70 -16.5q-25 0 -43 25q-2 4 -4 6t-2 6t-9.5 7t-13.5 7t-4 19z" />
<glyph unicode="&#x2011;" horiz-adv-x="593" d="M98 379q0 20 42 38.5t100.5 32t120 20.5t102.5 7q6 0 12 -1t14 -1q4 0 6.5 -2t6.5 -2q6 0 12 -1t10 -1q8 0 13.5 -4t11.5 -4q10 0 17 -6t7 -13q0 -20 -14 -20q-10 0 -18 -8q-4 -4 -17 -4q-16 0 -55 -5.5t-68 -13.5q-4 -2 -8 0t-8 0l-8 -4l-8 -4q-14 -4 -25.5 -7t-15.5 -7 q-41 -27 -84 -43.5t-70 -16.5q-25 0 -43 25q-2 4 -4 6t-2 6t-9.5 7t-13.5 7t-4 19z" />
<glyph unicode="&#x2012;" horiz-adv-x="593" d="M98 379q0 20 42 38.5t100.5 32t120 20.5t102.5 7q6 0 12 -1t14 -1q4 0 6.5 -2t6.5 -2q6 0 12 -1t10 -1q8 0 13.5 -4t11.5 -4q10 0 17 -6t7 -13q0 -20 -14 -20q-10 0 -18 -8q-4 -4 -17 -4q-16 0 -55 -5.5t-68 -13.5q-4 -2 -8 0t-8 0l-8 -4l-8 -4q-14 -4 -25.5 -7t-15.5 -7 q-41 -27 -84 -43.5t-70 -16.5q-25 0 -43 25q-2 4 -4 6t-2 6t-9.5 7t-13.5 7t-4 19z" />
<glyph unicode="&#x2013;" horiz-adv-x="712" d="M25 -33q0 39 7 104.5t16 136.5t20.5 137.5t19.5 109.5q4 16 2 24t-2 19q0 29 15.5 49t39.5 20q29 0 58.5 -17.5t29.5 -39.5q0 -8 3.5 -12t3.5 -15q0 -16 -16.5 -32.5t-22.5 -40.5q-4 -16 -14.5 -56.5t-21.5 -86.5t-20.5 -91t-9.5 -76q0 -23 2 -22q6 0 17 16q8 12 20 27.5 t23 30.5q47 72 103 148.5t122 141.5q6 6 13 15.5t13 13.5q25 18 52.5 42t62.5 24q18 0 26.5 -15.5t12.5 -36.5q2 -20 4 -65t2 -99.5v-109.5v-94q0 -29 6 -56.5t6 -54.5q0 -23 7.5 -46t7.5 -38q0 -16 -10.5 -33.5t-57.5 -17.5q-16 0 -26.5 9t-10.5 26q0 27 -9 47t-13 53 q-2 18 -4 70.5t-4 110t-5.5 105.5t-5.5 58q-4 18 -8 19q-12 0 -20 -9q-16 -16 -64.5 -56t-113.5 -138q-6 -10 -19.5 -19.5t-19.5 -19.5q-16 -23 -21.5 -36t-9.5 -25.5t-12.5 -27.5t-28.5 -40q-29 -31 -55.5 -54.5t-53.5 -23.5q-14 0 -25 12.5t-11 34.5zM221 762 q0 27 9.5 55.5t30 53t52 40t76.5 15.5q29 0 59.5 -17.5t58.5 -38t52.5 -38t42.5 -17.5q27 0 47.5 16.5t20.5 45.5q0 16 11 26t11 21q0 10 11.5 18t21.5 8t17.5 -14t7.5 -49q0 -25 -14.5 -51.5t-36 -48t-48 -35t-51.5 -13.5q-41 0 -68.5 15.5t-52 33t-47 33t-49.5 15.5 q-39 0 -53.5 -21.5t-14.5 -46.5q0 -29 5.5 -41t5.5 -25q0 -16 -12.5 -24t-24.5 -8q-4 0 -8.5 3t-8.5 3q-14 0 -20 6q-12 10 -21.5 32.5t-9.5 47.5z" />
<glyph unicode="&#x2014;" horiz-adv-x="393" d="M25 129q0 104 21.5 195.5t54 158t71.5 104.5t74 38q14 0 25.5 -3.5t15.5 -13.5q2 -6 3 -11t9 -9q29 -12 49.5 -50t20.5 -87q0 -23 -5.5 -48.5t-15.5 -54.5q-4 -6 -12 -11t-12 -11q-18 -45 -45 -98.5t-56.5 -99.5t-60.5 -77t-58 -31q-29 0 -54 32t-25 77zM106 150 q0 -16 5.5 -31t15.5 -15q14 0 37.5 36t45 85t38 98.5t16.5 75.5q0 49 -6 64.5t-16 17.5t-17.5 7.5t-15.5 5.5t-12 -7.5t-9 -11.5q-6 -8 -19 -46t-27.5 -89t-25 -103.5t-10.5 -86.5zM291 748q0 8 16.5 25.5t39 40t47 48t40.5 49.5q12 18 30.5 30.5t47.5 12.5q31 0 42 -21.5 t11 -43.5q0 -18 -36.5 -46t-82 -54.5t-85.5 -46t-46 -19.5q-12 0 -18 4t-6 21z" />
<glyph unicode="&#x2018;" horiz-adv-x="450" d="M29 98q0 84 27.5 165t62.5 153q12 27 50 79t86 105t100.5 93t97.5 40q33 0 53 -14t20 -43q0 -78 -84 -165t-245 -185q-41 -27 -59.5 -84.5t-18.5 -102.5q0 -55 20.5 -80.5t48.5 -25.5q20 0 48 11t52.5 26.5t43 31t22.5 21.5q6 8 17 8q14 0 14 -22q0 -4 -7 -18.5 t-36 -31.5q-4 -2 -20.5 -11t-36 -19.5t-36 -19.5t-18.5 -11q-12 -12 -41 -29.5t-45 -17.5q-20 0 -40.5 12t-38 32.5t-27.5 47.5t-10 55zM213 410q4 -4 18.5 -2t32 9t35.5 16t31 20q14 10 12 25.5t10 25.5q8 6 20.5 22.5t24 32.5t18.5 30.5t7 18.5q0 14 -10 15 q-10 0 -35 -18.5t-52.5 -46.5t-56 -59.5t-47.5 -58.5q-16 -18 -8 -30zM399 963q0 37 23.5 64.5t58.5 27.5q84 0 84 -74q0 -23 -11 -35t-23.5 -20t-23.5 -13.5t-11 -11.5q0 -12 5 -21.5t15 -9.5q37 0 64.5 21.5t27.5 62.5q0 35 22.5 42.5t45.5 7.5q31 0 52.5 -27t21.5 -64 q0 -53 -32 -79.5t-71 -26.5q-16 0 -24.5 18.5t-8.5 34.5q0 10 -3 12t-7 2q-12 0 -20.5 -6t-17.5 -12t-24.5 -12t-43.5 -6q-41 0 -70 29.5t-29 95.5z" />
<glyph unicode="&#x2019;" horiz-adv-x="307" d="M63 111q0 4 6.5 31.5t16.5 67.5t20.5 87t20.5 89t16.5 72.5t6.5 39.5q0 12 -6.5 27.5t-6.5 27.5q0 39 20.5 53.5t43.5 14.5q53 0 53 -82q0 -10 -7 -41t-18.5 -71t-25 -84t-24.5 -82t-18 -66.5t-7 -34.5q0 -25 6 -37t6 -21q0 -6 -2 -9t-2 -9q0 -4 3 -6t3 -8q0 -20 -11 -43 t-34 -23q-31 0 -45.5 29.5t-14.5 77.5zM240 811q0 4 5 11t13 18q4 4 18.5 6t18.5 12q8 20 12 35.5t8 29t11.5 27t19.5 29.5q14 16 31.5 29.5t46.5 13.5q31 0 42 -21.5t11 -44.5q0 -39 -29.5 -67.5t-56.5 -32.5q-12 -2 -30.5 -15.5t-36 -27.5t-32 -25.5t-18.5 -11.5 q-25 0 -29.5 9.5t-4.5 25.5z" />
<glyph unicode="&#x201a;" d="M-96 -514q0 6 12 12t29.5 9.5t36 4.5t32.5 1q43 -2 86 5t77 21.5t54.5 31.5t20.5 34q0 20 -12.5 32.5t-33 18.5t-44 8t-45.5 2q-27 0 -52.5 -12t-37.5 -12t-32 8t-20 35t14.5 39t37.5 22q12 4 37.5 25.5t60.5 52.5q10 14 6 21.5t-18 13.5q-47 16 -76 64t-29 126 q0 115 35 234.5t91 230.5t127 209t141.5 172t135 116t109.5 42q41 0 57.5 -9.5t16.5 -35.5q0 -47 -90 -76q-25 -8 -63 -24.5t-82 -49.5t-94 -84t-99 -129q-78 -121 -132.5 -273.5t-54.5 -322.5q0 -47 30 -84t65 -37q57 0 126.5 39t132 86t109.5 86t64 39q25 0 24 -22 q0 -6 -11 -14.5t-15 -12.5q-10 -10 -37 -27.5t-33 -33.5q-2 -4 -24.5 -24.5t-49 -44.5t-49 -43t-24.5 -22q-16 -18 -56.5 -39.5t-85.5 -46t-88 -52t-65 -54.5q-14 -16 6 -14q31 4 65.5 0t64.5 -19.5t50.5 -40t20.5 -59.5t-30 -66.5t-79 -56.5t-112.5 -40t-133.5 -15 q-29 0 -34 12t-25 22q-4 2 -6 9.5t-2 11.5z" />
<glyph unicode="&#x201c;" horiz-adv-x="307" d="M31 971q0 23 11 44t42 21q29 0 47.5 -12t30.5 -31q16 -25 40.5 -50t47 -48t39 -40t16.5 -26q0 -16 -5 -25t-30 -9q-20 0 -30.5 6t-18.5 15t-18 19.5t-29 20.5q-25 12 -50.5 25.5t-46 27t-33.5 28.5t-13 34zM84 70q0 4 5 31.5t12.5 67.5t15.5 87t15 89t12.5 73t5.5 39 q0 12 -6.5 27.5t-6.5 27.5q0 39 20.5 53.5t43.5 14.5q53 0 53 -82q0 -16 -12.5 -73.5t-27.5 -122t-27.5 -119t-12.5 -64.5q0 -25 6 -37t6 -21q0 -6 -2 -9t-2 -9q0 -4 3 -6t3 -8q0 -20 -11 -43t-34 -23q-31 0 -45 30t-14 77z" />
<glyph unicode="&#x201d;" horiz-adv-x="307" d="M51 780q0 10 5 18.5t10 22.5q4 14 25.5 49t49 69t56 60.5t49.5 26.5q39 0 76 -70q2 -4 4 -12t4 -12q29 -94 45 -154.5t16 -83.5q0 -18 -8 -18t-14.5 9t-10.5 17q-4 4 -10 6.5t-10 12.5q-16 49 -30.5 79.5t-26.5 73.5q-12 39 -37 39q-4 0 -9.5 -9t-15.5 -15 q-29 -20 -49 -31.5t-23 -32.5q-2 -18 -3 -25t-1 -16q0 -25 -15 -38t-38 -13q-39 0 -39 47zM117 123q0 16 5 69.5t12 113t12.5 109.5t5.5 60q0 25 -6.5 37t-6.5 20q0 6 2 9.5t2 9.5q0 4 -3 6t-3 8q0 20 11 43t34 23q31 0 48.5 -14.5t17.5 -61.5q0 -6 -6 -63.5t-14.5 -127 t-14.5 -131t-6 -73.5t6 -27.5t6 -28.5q0 -39 -20.5 -53t-42.5 -14q-27 0 -33 22.5t-6 63.5z" />
<glyph unicode="&#x201e;" horiz-adv-x="724" d="M51 -57q0 113 13.5 248t35 267t47 248.5t50.5 190.5q6 20 18 33.5t39 13.5q18 0 28.5 -10t17.5 -25.5t10 -31t7 -27.5q8 -27 17.5 -61.5t18.5 -73.5t19.5 -77t20.5 -69q12 -41 27.5 -104.5t29 -129t24.5 -120.5t15 -78q4 -16 12.5 -18t12.5 16q6 43 19.5 109.5t30 142.5 t33.5 155t32.5 147.5t27 120.5t15.5 75q4 20 13 30.5t13 14.5q16 16 22.5 28.5t16.5 12.5q20 0 37 -14.5t17 -49.5q0 -16 -9.5 -31.5t-15.5 -31.5q-20 -53 -55 -166t-68 -252t-57.5 -285.5t-24.5 -265.5q0 -4 2 -10t2 -15q0 -16 -8.5 -33.5t-28.5 -17.5t-40.5 6.5 t-24.5 34.5q-4 18 -5 37t-3 41q-4 31 -9.5 57.5t-11.5 55.5q-12 74 -25.5 163t-27.5 177t-30.5 165.5t-35.5 127.5q-2 6 -6 19t-8 28.5t-8 30t-6 20.5q-4 10 -7.5 13t-7.5 3t-7 -3t-7 -15q-10 -43 -27.5 -99.5t-33 -137.5t-26.5 -194.5t-11 -271.5q0 -70 -6.5 -101.5 t-18.5 -39.5q-8 -4 -18.5 -23.5t-20.5 -19.5q-16 0 -30.5 23.5t-14.5 46.5zM336 1073q0 27 9 55.5t29.5 53t52.5 40t77 15.5q29 0 59.5 -17.5t58 -38t52 -38t43.5 -17.5q27 0 47 16.5t20 45.5q0 16 11.5 26.5t11.5 20.5t11 18.5t22 8.5q10 0 17 -14.5t7 -49.5 q0 -25 -14 -51.5t-35.5 -48t-48.5 -34.5t-51 -13q-41 0 -69 15t-52.5 32.5t-47 33t-48.5 15.5q-39 0 -53.5 -21.5t-14.5 -46.5q0 -29 5 -41t5 -24q0 -16 -12.5 -24.5t-24.5 -8.5q-4 0 -8 3t-8 3q-14 0 -20 6q-12 10 -21.5 33t-9.5 47z" />
<glyph unicode="&#x2022;" horiz-adv-x="307" d="M37 41q0 4 7 33.5t19.5 72.5t24.5 93.5t24.5 95.5t19.5 76.5t7 40.5q0 12 -5 42.5t-5 43.5q0 39 27.5 53t50.5 14q16 0 26.5 -24.5t10.5 -65.5q0 -10 -9.5 -51t-23.5 -96.5t-29.5 -118t-30 -116.5t-23.5 -93t-9 -45q0 -20 -4.5 -41t-18.5 -21q-31 0 -45 30t-14 77z M78 819q0 37 23.5 64.5t58.5 27.5q84 0 84 -73q0 -23 -11.5 -35t-23.5 -20.5t-23.5 -13.5t-11.5 -11q0 -12 5 -21.5t16 -9.5q37 0 64.5 21.5t27.5 62.5q0 35 22.5 42t44.5 7q31 0 52.5 -26.5t21.5 -63.5q0 -53 -31.5 -79.5t-70.5 -26.5q-16 0 -24.5 18t-8.5 35q0 10 -3 12 t-7 2q-12 0 -20.5 -6t-17.5 -12t-24.5 -12.5t-44.5 -6.5q-41 0 -69.5 30t-28.5 95z" />
<glyph unicode="&#x2026;" horiz-adv-x="710" d="M4 139q0 84 18.5 182.5t49 196.5t70.5 188.5t81 161t82 112.5t74 42q43 0 59.5 -20.5t16.5 -43.5v-30.5t16 -24.5q31 -18 69 -54t71.5 -84t56 -104.5t22.5 -115.5q0 -53 -27.5 -123t-71.5 -141.5t-99.5 -140t-112.5 -123t-110.5 -87t-92.5 -32.5q-31 0 -61.5 14t-55 44 t-40 76t-15.5 107zM96 145q0 -74 30.5 -112.5t63.5 -38.5q39 0 103.5 51t128 130t110 173t46.5 180q0 59 -26 113.5t-60.5 95.5t-70.5 64.5t-56 23.5q-16 0 -25.5 -6t-32.5 -35q-8 -12 -24.5 -41.5t-34 -64.5t-33.5 -69t-25 -52q-4 -10 -14 -20.5t-14 -20.5q-23 -49 -36 -93 t-19.5 -88t-8.5 -90t-2 -100zM139 1182q0 25 21.5 53.5t54.5 28.5q12 0 24.5 -8.5t21.5 -18.5t15.5 -20.5t6.5 -14.5t-6.5 -5t-13.5 -4t-13 -13.5t-6 -30.5q0 -10 -17 -18.5t-37 -8.5t-35.5 17.5t-15.5 42.5zM461 1186q0 29 23.5 58.5t64.5 29.5q31 0 48 -22.5t17 -34.5 q0 -25 -11 -33t-11 -39q0 -14 -21.5 -23.5t-46.5 -9.5t-44 21.5t-19 52.5z" />
<glyph unicode="&#x202f;" horiz-adv-x="304" />
<glyph unicode="&#x2039;" horiz-adv-x="667" d="M33 -4q0 31 22.5 91t60.5 133t85 149.5t96 139t96 102.5t84 40q31 0 49.5 -23.5t18.5 -62.5q0 -10 8 -10q16 0 32.5 -13.5t16.5 -43.5q0 -55 -4 -140.5t-4 -236.5q0 -23 5 -39t12 -32.5t12.5 -36t5.5 -48.5q0 -14 -12.5 -24.5t-34.5 -10.5q-23 0 -33 12.5t-12 14.5 q-8 16 -9.5 38.5t-3.5 29.5q-4 16 -11 33.5t-7 72.5q0 90 5 155.5t5 94.5t-18 10q-6 -6 -16.5 -18.5t-19.5 -24.5t-16.5 -22.5t-9.5 -12.5q-16 -25 -23 -53.5t-24 -58.5q-66 -133 -141.5 -217t-143.5 -84q-31 0 -51 21.5t-20 74.5zM135 49q0 -8 5.5 -19.5t21.5 -11.5 q10 0 26.5 7.5t38 31t50 65.5t65.5 111q47 88 77 142.5t50 83.5q8 14 0 16q-16 8 -19.5 16.5t-5.5 18.5t-2 13t-12 3q-14 0 -42 -28.5t-60.5 -74.5t-67.5 -101.5t-62.5 -107.5t-45 -97t-17.5 -68zM301 817q0 86 42 143.5t128 57.5q35 0 80 -27.5t61 -103.5q4 -27 16.5 -46.5 t39.5 -19.5t59.5 26.5t36.5 86.5q2 16 11 22.5t9 16.5t11.5 18t21.5 8t18.5 -10t8.5 -45q0 -37 -18.5 -72.5t-45 -63.5t-58.5 -45.5t-56 -17.5q-49 0 -86 35t-50 88q-6 35 -22 47.5t-39 12.5q-43 0 -58.5 -27t-15.5 -78q0 -29 5.5 -41t5.5 -24q0 -29 -25 -29q-4 0 -9 5 t-10 7q-8 2 -16 9.5t-10 11.5q-10 20 -22.5 25.5t-12.5 29.5z" />
<glyph unicode="&#x203a;" horiz-adv-x="489" d="M4 100q0 68 20.5 157t53.5 180t76 174t86 139q12 16 20 30.5t17.5 25.5t22.5 18t36 7q29 0 51.5 -15t22.5 -44q0 -18 -10.5 -31.5t-21.5 -26t-21.5 -22.5t-10.5 -18t12 -10q43 -10 81 -75t38 -155q0 -37 -20.5 -90t-53 -109.5t-73.5 -112.5t-82 -101.5t-79 -73t-63 -27.5 q-45 0 -73.5 47t-28.5 133zM86 104q0 -47 10.5 -66.5t24.5 -19.5q20 0 61 45.5t82 109t71 131t30 112.5q0 55 -10.5 94t-32.5 39q-10 0 -15.5 -4t-21.5 -4q-10 0 -15.5 6t-13.5 6t-12 -6l-8 -12q-10 -16 -20.5 -33t-14.5 -31q-2 -6 -11.5 -14t-21.5 -20.5t-23.5 -29 t-17.5 -36.5q-27 -90 -34 -151.5t-7 -115.5zM197 971q0 86 42 143t128 57q35 0 80 -27.5t61 -103.5q4 -27 16.5 -46t38.5 -19q27 0 59.5 26.5t36.5 85.5q2 16 11.5 22.5t9.5 16.5t11 18.5t22 8.5q10 0 18 -10t8 -45q0 -37 -18.5 -73t-45 -63.5t-58 -45t-56.5 -17.5 q-49 0 -86 35t-49 88q-6 35 -22.5 47t-38.5 12q-43 0 -58.5 -26.5t-15.5 -77.5q0 -29 5 -41t5 -25q0 -28 -25 -28q-4 0 -9 5t-9 7q-8 2 -16.5 9t-10.5 11q-10 20 -22 25.5t-12 30.5z" />
<glyph unicode="&#x205f;" horiz-adv-x="380" />
<glyph unicode="&#x20ac;" horiz-adv-x="716" d="M14 414q0 49 133 90q37 10 46 43q16 55 36.5 114.5t42 118t42 110.5t38.5 93q8 20 17.5 43t21.5 42t28.5 32.5t39.5 13.5q37 0 54 -25.5t17 -66.5q0 -82 16.5 -187.5t33.5 -236.5q2 -10 5 -19.5t17 -9.5t35.5 -1t41 -4t33 -7t13.5 -12t-3 -11.5t-17 -3.5q-4 0 -18.5 -7 t-18.5 -11t-23.5 -5t-36.5 -5q-12 -2 -12 -21q4 -88 17.5 -184t25.5 -174q4 -18 8 -41t15 -39q8 -14 16 -31.5t8 -34.5q0 -25 -16.5 -40t-32.5 -15q-33 0 -53.5 16.5t-30.5 63.5q-4 12 -1 33.5t-1 44.5q-4 20 -5 33.5t-5 40.5t0 70.5t0 72.5q-2 14 -12.5 39.5t-12.5 42.5 q-4 33 -1 45t1 45q-4 29 -31 27q-23 -4 -52.5 -10.5t-58 -13.5t-53 -14t-36.5 -12q-12 -4 -21.5 -10t-13.5 -20q-35 -121 -54.5 -204t-19.5 -112v-45q0 -18 -14.5 -19t-16.5 -20q-2 -10 -3 -21t-11 -11q-6 0 -15.5 -14.5t-17.5 -14.5q-23 0 -33 8t-14 21.5t-3 30t1 34.5 q0 29 26.5 115t55.5 196q2 12 -12 13q-10 0 -21.5 -5.5t-29.5 -5.5q-20 0 -37 13.5t-17 38.5zM207 1212q0 18 24.5 43t47.5 25q31 0 58.5 -20.5t27.5 -61.5q0 -53 -22.5 -77.5t-45.5 -24.5q-33 0 -39 20.5t-6 36.5q0 14 -7 18.5t-15.5 8.5t-15.5 10t-7 22zM297 584 q-11 -35 14 -33q14 2 37 3t46.5 3t47 3t41.5 3q16 2 16.5 9.5t-1.5 23.5q-6 43 -13.5 95t-14.5 99.5t-13 85t-8 50.5q-4 16 -5.5 26.5t-9.5 10.5q-10 0 -14 -7.5t-10 -17.5q-8 -16 -21.5 -55t-29 -89.5t-32 -105.5t-30.5 -104zM549 1235q0 25 23.5 42t54.5 17t52 -23.5 t21 -64.5q0 -16 -12 -34.5t-28.5 -36t-32 -28.5t-21.5 -11q-4 0 -11 2t-7 12q0 8 1 24.5t-20 30.5q-10 8 -15 26.5t-5 43.5z" />
<glyph unicode="&#x2122;" horiz-adv-x="399" d="M23 55q0 104 22.5 208t56 184.5t72.5 131t74 50.5q14 0 25.5 -3t15.5 -14q2 -6 3 -11t9 -9q29 -12 55.5 -40t26.5 -77q0 -23 -9 -36t-20 -42q-2 -4 -5 -17t-6 -28.5t-5 -30t-4 -16.5q-18 -45 -47 -106.5t-60.5 -117.5t-64.5 -95t-60 -39q-29 0 -54 31.5t-25 76.5zM104 76 q0 -16 5.5 -30.5t15.5 -14.5q14 0 39.5 51t51.5 118.5t44.5 132t18.5 91.5q0 49 -6.5 64.5t-16.5 17.5t-17.5 7t-15.5 5t-12 -7t-8 -11q-6 -8 -22.5 -61.5t-33 -123t-30 -137t-13.5 -102.5zM160 762q0 10 5 18t9 23q4 14 24.5 50t46 70.5t54.5 62.5t49 28q39 0 76 -70 q2 -4 4 -12t4 -12q29 -94 45.5 -154.5t16.5 -83.5q-1 -18 -9 -18t-14 9t-10 17q-4 4 -10.5 6t-10.5 13q-16 49 -30.5 79.5t-26.5 73.5q-12 39 -37 39q-16 0 -32.5 -16.5t-30 -36t-20.5 -33.5t-7 -8q-2 -18 -3 -25.5t-1 -15.5q0 -25 -15.5 -38t-37.5 -13q-39 0 -39 47z" />
<glyph unicode="&#x25fc;" d="M0 0v696h696v-696h-696z" />
</font>
</defs>
</svg>
