<svg xmlns="http://www.w3.org/2000/svg" viewBox="0 0 235 220"><path class="bubble" fill="#FFB547" d="M128.392 159.165c-1.891.846-3.688 1.654-5.488 2.457-.899.401-1.809.783-2.774 1.011a4.87 4.87 0 0 0-.866.273c-1.595.718-3.284 1.167-4.946 1.688a62.409 62.409 0 0 1-3.058.883c-1.833.475-3.652 1.017-5.517 1.361-.746.138-1.479.339-2.222.49-1.932.395-3.866.767-5.828.984-.603.067-1.2.183-1.801.261-.976.131-1.952.295-2.933.367-2.343.175-4.683.394-7.032.478-.607.021-1.213.015-1.819.019-.607.005-1.214-.012-1.82.018-2.125.102-4.247.01-6.364-.124a109.295 109.295 0 0 1-6.566-.606c-3.612-.452-7.216-.987-10.761-1.825-1.547-.365-3.111-.681-4.619-1.203a3.206 3.206 0 0 0-.437-.127c-1.646-.319-3.209-.906-4.775-1.479-2.137-.78-4.265-1.585-6.394-2.381a20.018 20.018 0 0 1-2.49-1.112c-.736-.391-1.497-.733-2.249-1.096-1.846-.889-3.621-1.908-5.39-2.934-.656-.381-1.263-.84-1.915-1.228-2.815-1.677-5.312-3.773-7.821-5.855a37.75 37.75 0 0 1-2.669-2.471c-1.874-1.88-3.682-3.822-5.31-5.925-1.164-1.497-2.224-3.066-3.232-4.673-.162-.256-.29-.535-.469-.778-.911-1.227-1.557-2.599-2.199-3.975-.256-.548-.513-1.099-.765-1.649-.722-1.587-1.475-3.164-1.859-4.882-.825-2.29-1.315-4.663-1.755-7.051-.513-2.771-.697-5.565-.637-8.377.033-1.516.049-3.025-.133-4.539-.128-1.054-.143-2.119-.181-3.179-.035-.984-.019-1.974.117-2.952.209-1.501.438-3 .697-4.494.103-.596.28-1.181.466-1.757.599-1.88 1.304-3.72 2.044-5.547.458-1.13 1.06-2.185 1.659-3.236 1.091-1.909 2.138-3.843 3.311-5.703 1.579-2.501 3.164-4.997 4.899-7.392 1.023-1.412 2.004-2.852 3.019-4.271.44-.617.912-1.212 1.371-1.812 1.338-1.748 2.77-3.419 4.012-5.234.129-.188.275-.365.428-.533 1.74-1.904 3.291-3.967 4.947-5.941.584-.697 1.188-1.377 1.788-2.062.299-.343.611-.674.908-1.017 2.927-3.387 5.999-6.635 9.26-9.702.055-.053.113-.101.167-.155 2.872-2.82 5.986-5.359 9.178-7.801 1.445-1.104 2.897-2.209 4.422-3.195 1.463-.944 2.868-1.988 4.446-2.75a6.44 6.44 0 0 0 .974-.584c.926-.673 1.943-1.183 2.975-1.663a964.914 964.914 0 0 1 5.369-2.48c.481-.22.959-.47 1.466-.617 1.748-.51 3.426-1.221 5.178-1.714A68.154 68.154 0 0 1 92.08 16.85a40.864 40.864 0 0 1 2.5-.043c1.518.027 3.032.079 4.546.135 3.8.14 7.549.681 11.269 1.431.894.179 1.777.394 2.668.575.819.165 1.631.356 2.423.618.288.095.579.192.874.249 1.422.273 2.78.756 4.134 1.25 2.706.99 5.404 1.997 8.104 3.004.852.318 1.68.692 2.496 1.101 1.352.682 2.741 1.293 4.094 1.976 3.659 1.846 7.228 3.845 10.61 6.166.999.688 2.025 1.335 3.006 2.05 2.881 2.099 5.683 4.303 8.34 6.679 1.922 1.718 3.802 3.486 5.51 5.421 1.96 2.215 3.843 4.491 5.481 6.962.671 1.013 1.326 2.029 1.872 3.115.237.472.521.925.812 1.37 1.04 1.601 1.818 3.319 2.383 5.139.202.651.416 1.302.678 1.93.411.983.728 1.993.973 3.028.295 1.255.629 2.5.903 3.758.581 2.673.831 5.393 1.033 8.115.174 2.352.114 4.702-.039 7.048-.138 2.116-.341 4.231-.808 6.309-.1.444-.172.894-.254 1.343-.469 2.537-1.083 5.037-1.97 7.463-.341.927-.674 1.854-.995 2.785-.101.287-.153.585-.221.881-.051.229.148.673.356.792.195.117.387.247.596.33.632.255 1.271.492 1.913.728 6.398 2.366 12.799 4.731 19.202 7.095a34.96 34.96 0 0 1 2.939 1.224c.818.39 1.677.699 2.529 1.015 9.1 3.374 18.205 6.742 27.305 10.112.64.236 1.281.469 1.915.719.282.112.55.256.815.402.53.29.789.986.595 1.575-.048.145-.085.292-.15.429a20.88 20.88 0 0 1-1.559 2.771c-.315.469-.808.688-1.376.651a51.644 51.644 0 0 1-2.491-.222c-1.207-.145-2.416-.206-3.629-.258-1.815-.078-3.638-.113-5.448-.319-.676-.075-1.362-.077-2.043-.102-2.806-.104-5.609-.2-8.411-.312-.909-.037-1.814-.115-2.724-.169-.907-.052-1.815-.115-2.726-.146-9.546-.326-19.095-.643-28.643-.969-1.742-.058-3.488-.061-5.224-.261-.148-.017-.302-.005-.453 0-.39.01-.749.111-1.05.371-.112.101-.228.2-.332.309a2542.962 2542.962 0 0 0-4.308 4.377 108.04 108.04 0 0 1-6.802 6.371c-.807.689-1.602 1.393-2.423 2.065-2.409 1.969-4.932 3.781-7.498 5.533-1.315.9-2.713 1.669-3.999 2.611-.243.177-.519.312-.788.45a29.115 29.115 0 0 0-2.944 1.717c-.564.382-1.185.677-1.8.972-1.843.886-3.695 1.759-5.454 2.596m28.689-28.379c-1.117.678-1.906 1.703-2.778 2.638-.051.054-.087.127-.121.192-.146.271-.246.562-.186.867.177.887.393 1.766.689 2.622a.84.84 0 0 0 .107.197c.043.062.098.113.146.172.107.121.509.193.633.114.962-.62 1.759-1.419 2.431-2.336.278-.381.331-.841.255-1.301a4.175 4.175 0 0 0-.238-.872c-.305-.771-.633-1.532-.949-2.3l.011.007zm62.179-3.127l.003-.008c-.948-.485-1.96-.816-2.953-1.185-14.506-5.37-29.012-10.734-43.517-16.104-.71-.262-1.421-.53-2.125-.808-.211-.083-.406-.205-.603-.318-.434-.249-.707-.888-.585-1.377.07-.295.142-.59.245-.873.229-.643.483-1.277.72-1.916.707-1.921 1.389-3.845 1.877-5.841.812-3.319 1.543-6.645 1.836-10.057.174-2.039.249-4.086.207-6.133-.053-2.504-.318-4.992-.665-7.472-.054-.374-.102-.752-.188-1.119-.473-1.99-.764-4.026-1.492-5.952a1.716 1.716 0 0 1-.058-.219c-.204-.971-.566-1.888-.973-2.786-.812-1.796-1.656-3.578-2.447-5.384-.858-1.958-2.127-3.667-3.238-5.471-1.301-1.678-2.597-3.358-4.002-4.953a62.33 62.33 0 0 0-6.655-6.517c-2.843-2.389-5.709-4.756-8.802-6.829-1.635-1.096-3.246-2.236-4.948-3.234-.85-.498-1.725-.955-2.563-1.468-1.686-1.031-3.464-1.884-5.232-2.75-1.021-.499-2-1.083-3.07-1.481a22.18 22.18 0 0 1-2.28-1.026 17.722 17.722 0 0 0-1.669-.722 344.949 344.949 0 0 0-5.119-1.895c-.64-.231-1.302-.404-1.958-.595-.363-.105-.742-.162-1.098-.291-1.428-.521-2.904-.862-4.377-1.226-2.797-.691-5.612-1.301-8.47-1.692-2.479-.338-4.975-.505-7.468-.7-.83-.065-1.667-.033-2.502-.03-.53.001-1.062.042-1.591.044-4.492.03-8.917.574-13.283 1.644-1.107.27-2.177.66-3.278.932a20.1 20.1 0 0 0-3.009 1.029c-.699.298-1.403.578-2.141.765-.813.204-1.583.525-2.34.875-.826.38-1.652.761-2.478 1.145a14.97 14.97 0 0 0-2.182 1.216c-.375.258-.758.511-1.166.707-1.646.788-3.189 1.741-4.721 2.726-1.914 1.23-3.802 2.498-5.602 3.885-3.247 2.498-6.426 5.076-9.35 7.953-.702.691-1.431 1.354-2.141 2.038-.546.525-1.101 1.044-1.622 1.593-2.824 2.965-5.64 5.937-8.194 9.143-.189.236-.377.474-.584.696-1.868 1.997-3.501 4.187-5.211 6.313-.331.412-.64.845-.957 1.271-.589.79-1.146 1.604-1.769 2.367-1.489 1.821-2.819 3.762-4.186 5.671-1.939 2.712-3.739 5.523-5.554 8.321-.372.571-.704 1.169-1.046 1.758-.267.459-.511.931-.787 1.383-1.062 1.753-2.02 3.563-2.953 5.383-.869 1.69-1.521 3.476-2.006 5.309a33.922 33.922 0 0 0-.955 5.139c-.072.678-.146 1.36-.136 2.039.059 4.042.543 8.013 1.97 11.828.106.284.197.575.276.867a18.38 18.38 0 0 0 2.443 5.355c.292.441.556.904.813 1.368 1.14 2.064 2.505 3.971 4.026 5.769.342.404.712.788 1.046 1.198 2.064 2.542 4.5 4.713 6.885 6.934 2.588 2.104 5.153 4.229 7.904 6.129 2.688 1.855 5.483 3.525 8.333 5.107 1.125.625 2.257 1.243 3.458 1.725.35.139.675.341 1.018.503.547.265 1.087.54 1.649.771.84.347 1.655.753 2.486 1.118a69.962 69.962 0 0 0 8.315 3.065c1.017.304 2.041.577 3.048.914.432.144.866.28 1.305.397 3.3.877 6.647 1.528 10.003 2.141 1.643.299 3.303.472 4.958.66 2.185.25 4.372.459 6.574.5 1.439.028 2.88.067 4.319.128 1.82.078 3.639-.005 5.454-.107 1.439-.081 2.874-.203 4.309-.326.755-.062 1.51-.147 2.26-.251 1.126-.152 2.255-.3 3.375-.502 2.236-.406 4.472-.813 6.692-1.313 2.294-.521 4.555-1.159 6.805-1.829 1.306-.388 2.583-.876 3.896-1.248.435-.126.849-.324 1.269-.502.698-.295 1.391-.604 2.089-.896.491-.202.977-.434 1.487-.568 1.776-.46 3.396-1.295 5.044-2.066.409-.191.824-.397 1.193-.653 1.061-.746 2.226-1.301 3.382-1.863 1.229-.597 2.45-1.203 3.552-2.024.303-.226.651-.389.978-.582 1.565-.926 3.071-1.942 4.568-2.979 1.998-1.38 3.851-2.948 5.746-4.462 1.955-1.565 3.768-3.292 5.535-5.06.912-.911 1.775-1.871 2.63-2.834 1.106-1.246 2.183-2.521 3.276-3.782.097-.115.209-.217.32-.321.343-.331.76-.503 1.229-.503a17.98 17.98 0 0 1 1.591.054c3.322.289 6.639.634 9.959.947 4.151.394 8.297.816 12.449 1.195 3.02.273 6.035.588 9.054.893 1.43.146 2.861.324 4.295.462 2.79.265 5.586.496 8.377.77 3.32.32 6.638.667 9.954 1.006.609.06 1.21.068 1.814-.046M48.804 161.233c.106-.102.264-.186.31-.312.264-.706.489-1.427.746-2.135.591-1.635.913-3.346 1.408-5.007.076-.258-.116-.655-.352-.776-.135-.067-.259-.156-.397-.21a448.89 448.89 0 0 0-3.598-1.364c-.137-.052-.294-.057-.443-.085-.163-.028-.527.111-.604.25-.147.26-.314.516-.428.79-.489 1.186-.958 2.378-1.562 3.514-.316.599-.531 1.248-.769 1.885-.078.204-.097.438-.116.663a.743.743 0 0 0 .239.612c.218.2.459.391.717.538 1.319.755 2.757 1.219 4.191 1.691a.572.572 0 0 0 .222.025c.147-.017.29-.052.436-.079m17.277-3.448c-.136-.105-.291-.309-.489-.365a85.338 85.338 0 0 0-3.061-.83c-.512-.13-1.035-.216-1.555-.315-.456-.087-.871.203-1.017.694-.021.073-.053.143-.067.216-.255 1.187-.672 2.321-1.08 3.46a96.68 96.68 0 0 0-.743 2.143c-.071.21-.095.44-.137.661-.046.236.202.646.437.731.142.052.28.121.423.158 1.461.39 2.942.691 4.431.947.22.039.451.036.676.028.329-.012.563-.195.727-.469.076-.128.15-.265.186-.409.475-1.906.945-3.812 1.411-5.719.035-.144.037-.304.016-.45-.021-.146-.09-.283-.158-.481m-33.553-13.319c-.126.128-.325.261-.431.447-1.021 1.771-1.733 3.678-2.403 5.602a1.983 1.983 0 0 0-.087.44c-.034.31.03.601.228.847.095.116.191.239.305.331 1.233 1.004 2.583 1.82 3.993 2.546.233.121.674-.019.803-.25.037-.064.099-.117.125-.187.83-2.182 1.662-4.364 2.473-6.555.108-.288-.004-.602-.223-.829a2.475 2.475 0 0 0-.527-.426 206.69 206.69 0 0 0-3.135-1.802 2.158 2.158 0 0 0-.632-.229c-.137-.027-.291.035-.489.065m88.464 10.247c-.089-.193-.125-.263-.154-.332-.096-.226-.516-.438-.765-.372-.807.208-1.629.37-2.415.634-1.075.363-2.145.745-3.248 1.022-.289.071-.566.217-.824.371-.263.157-.46.396-.539.703-.055.219-.113.443-.117.667a34.24 34.24 0 0 0 .191 3.854c.014.146.09.287.14.429.059.161.401.363.548.348.612-.059 1.158-.348 1.748-.482.666-.15 1.32-.338 1.952-.602 1.188-.499 2.379-.982 3.613-1.356.502-.15.846-.747.747-1.269-.111-.593-.26-1.184-.376-1.775-.135-.673-.305-1.33-.501-1.84m-62.589 1.117c-.146-.112-.302-.299-.501-.371a226.712 226.712 0 0 0-3.836-1.359c-.14-.05-.295-.048-.444-.072-.158-.023-.51.138-.588.286-.139.265-.29.527-.4.805-.749 1.899-1.128 3.909-1.733 5.854-.044.139-.037.3-.028.449.016.229.094.446.285.59.177.134.366.279.572.354.922.329 1.848.659 2.783.945.964.297 1.576-.018 1.941-1.013.677-1.841 1.321-3.693 1.973-5.541.05-.141.078-.295.074-.444-.001-.145-.057-.291-.098-.483m51.947 7.305c.632-.202 1.035-.692 1.084-1.198.008-.074.029-.148.029-.223a33.457 33.457 0 0 0-.199-4.067c-.007-.075-.039-.146-.053-.22-.07-.35-.469-.644-.842-.619-.148.009-.305 0-.451.03-1.477.312-2.953.625-4.428.947a3.479 3.479 0 0 0-.64.219c-.435.194-.78.504-.862.983-.267 1.563-.447 3.136-.385 4.728.002.075.032.147.042.223.031.244.394.54.657.525.225-.014.453-.012.677-.045 1.871-.283 3.677-.831 5.371-1.283M44.173 150.56c-.079-.125-.143-.265-.242-.37a1.268 1.268 0 0 0-.359-.271c-1.084-.528-2.172-1.046-3.258-1.564-.068-.032-.144-.044-.215-.069-.399-.155-.943.082-1.138.496-.031.067-.077.131-.104.201-.728 1.979-1.458 3.959-2.178 5.942a1.57 1.57 0 0 0-.074.443 1.04 1.04 0 0 0 .317.815c.16.158.335.316.534.415.944.466 1.895.918 2.849 1.365.312.147.8-.041.986-.352.114-.192.229-.387.341-.583 1.041-1.848 1.704-3.858 2.513-5.803.056-.136.057-.297.069-.444.006-.071-.028-.147-.041-.221m-19.479-11.992c-.131-.196-.229-.41-.39-.561-.992-.929-2.058-1.77-3.136-2.594-.059-.046-.135-.068-.199-.109-.221-.143-.654-.058-.821.159-.045.061-.107.108-.147.169a31.246 31.246 0 0 0-2.336 4.134c-.249.53-.126 1.043.24 1.479.679.806 1.356 1.62 2.081 2.388.619.656 1.298 1.257 1.958 1.876.276.257.792.123.948-.231.03-.069.077-.134.102-.204.379-1.064.794-2.119 1.125-3.201.265-.86.439-1.754.624-2.638.044-.211-.029-.444-.049-.667m43.701 19.547c-.116.096-.25.174-.34.289a1.063 1.063 0 0 0-.208.398 652.891 652.891 0 0 0-1.374 5.515 2 2 0 0 0-.045.676.976.976 0 0 0 .48.731c.127.081.273.143.417.176 1.335.313 2.692.422 4.058.466.263.008.626-.246.715-.489.026-.069.074-.133.094-.206a76.822 76.822 0 0 0 1.257-5.31c.06-.294.066-.6.09-.901.02-.26-.229-.65-.461-.729-.214-.072-.426-.166-.646-.205-.896-.152-1.796-.295-2.696-.431a6.99 6.99 0 0 0-.903-.075c-.145-.003-.292.061-.438.095m18.443 8.598c.126-.144.286-.3.407-.481.082-.121.128-.276.152-.421.303-1.856.601-3.714.897-5.576.042-.26-.259-.593-.544-.618-1.352-.119-2.707-.117-4.063-.108-.148.002-.299.037-.445.069a1.235 1.235 0 0 0-.725.503c-.224.311-.353.666-.455 1.03-.241.871-.467 1.745-.714 2.614-.143.507-.333 1.001-.47 1.509-.078.288-.096.592-.127.892-.036.345.316.773.649.814.075.012.149.037.224.035 1.504 0 3.011-.007 4.514-.098.22-.014.437-.1.7-.164M26.501 140.3c-.113.134-.319.275-.393.469-.43 1.125-.863 2.249-1.227 3.398-.273.855-.458 1.745-.653 2.625-.086.387.029.762.306 1.044.741.753 1.57 1.404 2.448 1.991.121.08.279.104.422.146.184.054.517-.062.616-.202.043-.061.104-.11.141-.176 1.073-1.829 1.81-3.802 2.478-5.804.024-.069.026-.147.038-.221.062-.401-.072-.739-.341-1.03a3.011 3.011 0 0 0-.332-.307c-.884-.704-1.83-1.319-2.799-1.898-.123-.074-.286-.087-.434-.106-.066-.009-.143.037-.27.071m54.23 19.52c-.102-.225-.275-.386-.5-.411-1.196-.136-2.395-.279-3.594-.36-.885-.062-1.207.284-1.462 1.107-.09.285-.144.583-.213.877l-.97 4.182a3.753 3.753 0 0 0-.045.221c-.15.778.173 1.209.863 1.306 1.046.146 2.1.19 3.155.123.492-.033.841-.328 1.021-.778.194-.487.397-.982.508-1.492.274-1.256.686-2.469 1.089-3.681.095-.284.137-.585.189-.88.012-.071-.027-.147-.041-.214m21.26-.938a.52.52 0 0 0-.355-.261c-.146-.028-.297-.076-.443-.067-1.201.08-2.399.204-3.583.434-.322.061-.708.443-.772.755-.015.073-.049.146-.058.219-.186 1.646-.372 3.291-.554 4.938-.009.073.012.148.009.224-.007.373.356.743.713.719 1.279-.088 2.548-.243 3.793-.563.145-.036.285-.095.422-.154.292-.128.478-.354.578-.655.023-.071.049-.145.057-.218.112-1.124.237-2.247.327-3.372.041-.525.024-1.052.011-1.579-.003-.143-.094-.282-.145-.42m-7.08.923c-.146-.285-.346-.409-.57-.43-1.131-.107-2.258-.031-3.372.169-.484.087-.776.429-.929.888-.024.072-.049.146-.062.217-.269 1.405-.54 2.812-.796 4.219-.054.293-.058.598-.076.899-.028.44.381.854.856.868.225.006.454.038.677.017.824-.079 1.647-.174 2.471-.27.146-.019.297-.056.437-.107.29-.108.522-.303.675-.57.111-.193.213-.403.267-.62.405-1.614.605-3.256.518-4.922-.01-.146-.077-.291-.096-.358m30.321-7.821l.013.026c-.495.188-.988.373-1.481.563-.211.081-.423.161-.631.248-.291.119-.565.572-.56.916.002.077-.014.152-.003.227.176 1.119.446 2.214.785 3.294.044.14.142.265.219.395.176.298.653.5.978.422.074-.016.151-.014.223-.038 1.355-.476 2.648-1.087 3.905-1.775.067-.037.124-.092.184-.136.383-.298.591-.69.556-1.172-.085-1.134-.328-2.238-.607-3.336-.019-.069-.072-.132-.097-.199-.086-.213-.517-.486-.736-.449-.222.035-.453.052-.66.135-.702.279-1.391.584-2.088.879m22.074-10.42a21.965 21.965 0 0 0-.187-.744c-.037-.146-.099-.284-.147-.43-.081-.256-.517-.379-.765-.207-1.245.858-2.484 1.719-3.725 2.58a1.016 1.016 0 0 0-.171.149c-.255.288-.44.616-.456 1.009-.01.226.001.455.031.679.103.748.207 1.496.332 2.243.037.216.142.427.229.635.103.249.555.421.775.301 1.468-.793 2.759-1.839 4.048-2.884.115-.094.202-.225.284-.351.175-.257.281-.545.222-.855-.116-.589-.26-1.177-.47-2.125m-14.936 12.97c.603-.271 2.691-1.595 3.236-2.062a.93.93 0 0 0 .312-.817c-.129-1.201-.394-2.382-.688-3.552-.068-.267-.479-.494-.717-.389-.414.185-.826.368-1.231.563a83.81 83.81 0 0 0-1.827.906 3.203 3.203 0 0 0-.559.384c-.306.252-.505.593-.485.982.054 1.213.33 2.389.634 3.56.019.069.075.13.108.198.098.207.539.4.779.342.146-.035.3-.053.438-.115M13.737 135.55c.05.107.072.181.114.242.498.75.987 1.504 1.504 2.239.125.178.327.306.512.427a.405.405 0 0 0 .43-.013c.125-.074.266-.156.345-.272.805-1.178 1.454-2.449 2.114-3.711.263-.508.209-1.05-.174-1.475a27.355 27.355 0 0 0-2.394-2.373c-.214-.188-.634-.082-.757.187-.094.204-.196.405-.279.614-.39.976-.781 1.949-1.28 2.878-.072.13-.125.274-.165.418-.079.295-.073.593.03.839m-3.365-5.862c.294.578.625 1.258.981 1.924.176.333.41.628.705.877.233.197.648.205.815-.009.046-.061.108-.108.15-.169.646-.947 1.055-2 1.333-3.104a1.095 1.095 0 0 0-.166-.867 7.375 7.375 0 0 0-.397-.55c-.659-.827-1.323-1.648-1.986-2.472-.236-.294-.466-.592-.704-.882-.157-.194-.671-.218-.83-.037-.15.167-.304.336-.434.521-.607.874-.708 1.811-.307 2.795.257.629.532 1.249.84 1.973m139.49 13.024c.133-.072.282-.12.395-.211.81-.677 1.618-1.355 2.415-2.049.224-.196.426-.43.6-.673.226-.317.327-.699.214-1.073-.285-.939-.607-1.865-.919-2.792-.088-.269-.536-.436-.748-.29-.928.65-1.769 1.41-2.59 2.182-.462.431-.662.993-.629 1.637.052.986.287 1.936.552 2.88.016.069.078.124.113.189.093.177.433.292.597.2m-11.468 2.639c-.326.227-.709.469-1.065.746-.383.297-.543.716-.492 1.194.127 1.198.384 2.371.806 3.503.068.182.389.284.59.196a9.596 9.596 0 0 0 1.958-1.109c.449-.334.703-.811.668-1.364a13.825 13.825 0 0 0-.681-3.534c-.074-.222-.567-.388-.78-.255-.321.196-.64.395-1.004.623m23.927-17.199c-.277-.482-.519-.953-.811-1.39-.236-.351-.63-.37-.98-.071-.115.096-.234.195-.33.31-.339.404-.67.813-1.002 1.226-.456.57-.57 1.208-.369 1.913.144.508.238 1.029.387 1.536.084.287.216.559.342.835.156.347.687.472.963.249.705-.573 1.306-1.252 1.929-1.904.104-.106.182-.242.256-.371.152-.271.231-.572.139-.869-.154-.502-.352-.99-.524-1.464m7.619-1.502c-.25-.647-.557-.952-1.018-1.082-.433-.122-.868-.191-1.321-.132-.252.033-.524.413-.459.665.24.944.631 1.826 1.157 2.646.04.062.094.114.141.174.333.415 1.085.603 1.639.407.248-.087.438-.45.368-.73-.186-.72-.375-1.437-.507-1.948m22.579 1.406c-.149-.089-.327-.248-.532-.301-.661-.174-1.343-.174-2.021-.154-.575.015-.979.392-1.021.993-.018.226-.006.453.013.679.03.379.356.737.688.8a8.488 8.488 0 0 0 2.256.091.83.83 0 0 0 .417-.158.54.54 0 0 0 .156-.16c.313-.564.306-1.147.044-1.79m-29.06-.901c.288.512.538.973.804 1.425.075.124.183.243.303.33.247.178.523.288.839.188.312-.098.493-.323.557-.638.026-.146.056-.301.032-.445-.149-.901-.465-1.747-1.071-2.437-.421-.473-.991-.647-1.631-.531-.292.055-.492.412-.383.7.186.489.381.975.55 1.408m12.34.693c.207.388.363.729.564 1.042.402.63.979.886 1.726.755.275-.047.54-.377.507-.644-.091-.666-.198-1.331-.46-1.954a1.096 1.096 0 0 0-.637-.598 3.515 3.515 0 0 0-1.536-.234c-.261.02-.567.395-.494.633.113.353.234.705.33 1m11.278.011a1.176 1.176 0 0 0-.652-.619 3.678 3.678 0 0 0-1.566-.165c-.377.035-.726.378-.737.733-.02.536.036 1.062.225 1.563.112.297.366.473.678.544.446.104.9.114 1.351.021a.897.897 0 0 0 .675-.546c.214-.51.215-1.029.026-1.531m-12.986-.159c-.215-.397-.409-.801-.647-1.176a1.271 1.271 0 0 0-1.114-.614c-.275-.002-.589.302-.583.562.024.829.224 1.612.621 2.345.316.583 1.037.858 1.727.649.271-.079.451-.435.357-.719-.117-.353-.242-.7-.361-1.047m8.281.041c-.069-.188-.094-.258-.124-.33-.119-.297-.35-.486-.64-.597a2.44 2.44 0 0 0-1.108-.143c-.296.03-.517.319-.514.642.009.618.177 1.192.472 1.728.277.505.709.759 1.293.767.494.005.896-.395.827-.853-.066-.445-.149-.891-.206-1.214m16.874.939a1.048 1.048 0 0 0-.493.738c-.091.496.199.944.653 1.011.522.077 1.042.146 1.571.093.257-.024.544-.284.602-.591.025-.147.043-.299.041-.446a.871.871 0 0 0-.627-.838 3.224 3.224 0 0 0-1.561-.049c-.072.014-.137.06-.186.082m-2.399-.012c-.104-.106-.191-.239-.314-.313-.398-.236-.846-.289-1.301-.241a.876.876 0 0 0-.708.489 1.27 1.27 0 0 0-.091.202c-.268.788.072 1.392.854 1.48.294.032.597.021.894-.005a.745.745 0 0 0 .563-.325c.269-.405.277-.844.103-1.287M8.704 123.462c.103-.123.267-.278.381-.462.343-.55.404-1.115.019-1.672-.254-.364-.527-.717-.798-1.069-.042-.056-.121-.079-.178-.125-.139-.113-.507 0-.576.187-.05.136-.127.283-.115.42.072.815.258 1.61.521 2.386.043.128.161.245.271.338.114.097.266.089.475-.003m201.004 6.363c-.105-.1-.195-.243-.322-.295-.495-.198-1.022-.244-1.556-.217-.074.002-.146.029-.222.043-.312.057-.6.471-.6.865-.003.287.258.57.552.623.521.097 1.046.128 1.573.02.072-.016.141-.053.211-.076.33-.108.527-.633.364-.963m2.171.089c-.166.087-.285.36-.257.579.026.202.237.438.414.479a5.248 5.248 0 0 0 2.005.078c.177-.027.408-.246.454-.449.062-.277-.152-.623-.419-.695a4.515 4.515 0 0 0-1.998-.095c-.072.013-.134.067-.199.103m-6.767-.453c-.212-.324-.479-.438-.792-.46a.8.8 0 0 0-.854.575c-.068.217-.089.444-.008.657a.715.715 0 0 0 .272.339c.345.196.711.19 1.066.008.39-.203.525-.781.316-1.119m11.869.787c-.4.176-.494.521-.375.677.088.114.191.238.315.293.49.201.997.232 1.507.069a.468.468 0 0 0 .292-.305c.067-.175-.082-.452-.27-.53-.489-.197-.985-.277-1.507-.186-.068.012-.13.059.038-.018m4.026.592c-.029.068-.078.133-.086.202-.018.167.054.308.207.368.499.206 1.019.206 1.541.129a.547.547 0 0 0 .205-.081.414.414 0 0 0 .144-.156c.062-.145.033-.301-.104-.388-.538-.334-1.125-.339-1.722-.197-.069.014-.125.082-.185.123m4.527.332c-.029.067-.083.135-.081.203-.004.159.088.283.236.354.353.168.721.177 1.095.097a.46.46 0 0 0 .191-.112c.124-.122.154-.294.022-.402-.411-.346-1.033-.392-1.463-.14M6.952 117.331c-.052-.041-.104-.078-.156-.116-.02.061-.063.125-.055.18.032.191.133.243.247.126.024-.027-.022-.125-.036-.19"/><path fill="none" d="M231.999 132.735L48.204 217.498-22.479 64.233 161.316-20.53z"/><path d="M122.872 67.441c-.036-.044-.076-.077-.071-.086.023-.041.059-.075.09-.112.021.02.065.047.061.058-.014.044-.045.083-.08.14"/><path fill="none" d="M17.349 40.745h143.953v112.287H17.349z"/><text transform="translate(139.335 149.532)" fill="#FFF" font-family="'Yrsa-Light'" font-size="12.817"></text><path fill="#FFF" d="M154.52 126.526c-.516-.421-1.027-.848-1.545-1.269-1.325-1.071-2.759-1.99-4.154-2.965-.896-.626-1.818-1.221-2.707-1.858a103.347 103.347 0 0 0-3.014-2.104 60.235 60.235 0 0 1-2.229-1.55c-1.005-.739-1.997-1.503-2.992-2.26a1858.88 1858.88 0 0 1-5.932-4.536 407.541 407.541 0 0 1-3.55-2.768c-2.46-1.939-4.913-3.886-7.375-5.825a467.922 467.922 0 0 0-4.144-3.226c-1.755-1.352-3.519-2.693-5.278-4.04-.232-.179-.46-.37-.686-.553.033-.098.072-.173.087-.252.219-1.145.436-2.291.653-3.436.349-1.847.688-3.695 1.047-5.541.179-.911.386-1.815.592-2.721.326-1.427.665-2.851.994-4.276a.713.713 0 0 1 .275-.441c1.128-.838 2.25-1.684 3.378-2.523 1.661-1.238 3.37-2.412 4.962-3.745 1.496-1.253 3.034-2.46 4.523-3.725 1.024-.87 1.991-1.809 2.998-2.703.969-.864 1.952-1.712 2.929-2.566.682-.596 1.36-1.194 2.047-1.786.666-.577 1.337-1.148 2.009-1.719 1.023-.871 2.034-1.762 3.081-2.605 1.206-.971 2.443-1.903 3.672-2.843.85-.65 1.704-1.294 2.567-1.928a93.217 93.217 0 0 1 1.953-1.382c.694-.481 1.401-.946 2.094-1.429.391-.271.769-.561 1.146-.85.136-.105.226-.231.157-.433-.027-.083.049-.202.078-.304l.045.015c.008.058.017.118.025.195.157-.088.163-.203.112-.318-.111-.25-.258-.472-.529-.566-.109.103-.23.278-.289.259-.183-.062-.232.084-.331.147-.159.102-.311.219-.468.325-.732.488-1.474.962-2.198 1.463-.95.658-1.887 1.333-2.825 2.005-1.015.729-2.035 1.453-3.037 2.198a173.707 173.707 0 0 0-2.977 2.283 86.414 86.414 0 0 0-2.113 1.704c-1.005.839-1.999 1.694-2.998 2.54-.511.431-1.031.849-1.536 1.283-.604.521-1.195 1.056-1.795 1.582-.924.806-1.856 1.604-2.774 2.417-.696.615-1.361 1.266-2.067 1.869a170.821 170.821 0 0 1-3.243 2.695c-1.119.907-2.235 1.817-3.382 2.688-1.413 1.074-2.854 2.107-4.288 3.157-.09.068-.188.127-.336.225.021-.133.025-.201.043-.266.076-.288.166-.571.236-.862.171-.716.318-1.44.503-2.152.165-.646.373-1.279.558-1.92.14-.489.086-.621-.328-.887-.041-.025-.083-.047-.121-.076-.016-.012-.02-.038-.033-.062l.26-.027c-.14-.237-.347-.237-.539-.242a32.331 32.331 0 0 0-1.393-.02c-.26.004-.521.024-.777.071-.259.047-.273.074-.25.333.035.379.091.755.143 1.148.398-.023.801-.04 1.199-.075.063-.005.117-.095.2-.167l-.086.357c-.15.563-.31 1.125-.453 1.69-.235.922-.45 1.848-.698 2.766-.158.586-.392 1.152-.529 1.74-.07.302-.247.373-.539.486.125-.742.209-1.429.365-2.095.227-.962.509-1.908.644-2.89.048-.361.114-.72.177-1.101-.191-.074-.341-.177-.494-.183a10.382 10.382 0 0 0-1.355.022c-1.268.124-2.53.248-3.81.17-1.391-.083-2.785-.086-4.176-.125l-.18-.005c-1.355-.064-2.71-.131-4.067-.192-.286-.013-.571-.007-.856-.014-1.594-.037-3.189-.094-4.784-.112-1.226-.013-2.453.022-3.68.037-.714.008-1.428.022-2.143.033-1 .016-1.999.031-2.998.043-.12.001-.238-.009-.357-.016-.688-.04-1.377-.079-2.067-.122-.2-.011-.401-.036-.602-.051-.45-.034-.899-.086-1.35-.09-.206-.001-.422.071-.617.15-.225.092-.264.186-.213.424.042.197.114.387.171.58.097.324.217.644.193 1.044-.222-.134-.403-.24-.581-.354a.187.187 0 0 1-.079-.112 136.32 136.32 0 0 1-.339-1.782c-.039-.217-.06-.437-.092-.673.125-.022.204-.044.284-.05.915-.061 1.828-.136 2.743-.172a53.088 53.088 0 0 1 2.676-.04c.869.008 1.736.065 2.605.09.617.019 1.237.014 1.855.03 1.12.029 2.237.072 3.355.099.667.017 1.334 0 2 .021 1.035.032 2.068.09 3.104.125.606.021 1.214.015 1.819.031 1.357.037 2.713.091 4.07.118 1.643.033 3.288.034 4.929.07.941.021 1.88.079 2.818.132.544.03 1.086.084 1.676.132-.014-.169-.016-.307-.041-.44a4.08 4.08 0 0 0-.146-.586c-.052-.16-.002-.28.185-.428-.75-.066-1.41-.146-2.073-.174-1.378-.06-2.76-.098-4.141-.134-1.309-.034-2.618-.051-3.928-.081a564.468 564.468 0 0 1-3.679-.09c-1.417-.037-2.832-.084-4.249-.12-1.25-.032-2.499-.054-3.75-.08l-4.285-.091c-.405-.009-.81-.021-1.214-.033-.763-.021-1.524-.064-2.285-.057-1.024.008-2.048.055-3.072.088-.226.008-.45.035-.676.049-.615.039-1.228.166-1.849.064-.061-.009-.171.008-.192.046-.133.263-.35.484-.265.839.121.496.18 1.006.259 1.512.015.095.002.197.002.348-.146-.087-.239-.135-.325-.195-1.482-1.017-2.958-2.044-4.449-3.053-1.281-.867-2.588-1.7-3.87-2.567-1.124-.763-2.222-1.561-3.344-2.326-1.17-.798-2.353-1.578-3.531-2.363-1.23-.818-2.462-1.633-3.692-2.451-.773-.514-1.522-1.07-2.322-1.538-1.796-1.055-3.571-2.146-5.421-3.11-1.657-.863-3.286-1.782-4.937-2.658-.599-.318-1.231-.57-1.833-.881a53.76 53.76 0 0 1-2.382-1.299c-.435-.255-.842-.165-1.26-.014a1.103 1.103 0 0 0-.327.209c-.127.109-.141.248-.023.376.105.113.212.225.333.32.724.574 1.546.993 2.382 1.363 1.834.806 3.58 1.783 5.348 2.715 1.715.906 3.389 1.89 5.068 2.864a60.9 60.9 0 0 1 2.951 1.815c1.839 1.213 3.657 2.458 5.484 3.689 2.063 1.392 4.124 2.787 6.19 4.173 1.831 1.228 3.668 2.441 5.5 3.667 1.584 1.061 3.161 2.129 4.747 3.186a.946.946 0 0 1 .434.619c.062.29.156.575.246.857.359 1.122.746 2.236 1.075 3.366.62 2.124 1.293 4.235 1.674 6.424.329 1.886.691 3.769 1.019 5.656.171.985.279 1.979.457 2.963.245 1.358.528 2.708.801 4.061.038.187 0 .311-.165.422-.504.338-.996.696-1.496 1.04-1.109.759-2.228 1.508-3.333 2.275-1.077.746-2.145 1.5-3.21 2.261-1.946 1.392-3.898 2.778-5.827 4.195a286.688 286.688 0 0 0-5.072 3.834c-1.208.929-2.393 1.889-3.581 2.843-1.002.806-1.999 1.62-2.991 2.438-.816.675-1.619 1.365-2.436 2.039-.806.666-1.628 1.312-2.434 1.979-.568.471-1.113.969-1.678 1.441-.748.627-1.515 1.23-2.256 1.861-.662.563-1.296 1.158-1.952 1.729-.924.805-1.856 1.601-2.784 2.399-.903.778-1.802 1.555-2.705 2.326-1.185 1.013-2.374 2.023-3.558 3.036-.067.057-.108.144-.162.215h2.431c.057-.06.109-.125.171-.179.951-.848 1.899-1.699 2.86-2.536 1.931-1.681 3.865-3.359 5.806-5.027a408.063 408.063 0 0 1 4.385-3.72 565.842 565.842 0 0 1 4.856-3.995 659.167 659.167 0 0 1 4.891-3.95 275.248 275.248 0 0 1 3.484-2.735c.818-.635 1.651-1.251 2.48-1.871.715-.535 1.428-1.075 2.153-1.595a743.882 743.882 0 0 1 4.803-3.419c1.653-1.167 3.314-2.325 4.974-3.486.092-.064.192-.117.289-.178a.83.83 0 0 1-.23.355c-1.097 1.042-2.184 2.093-3.299 3.116-.631.577-1.305 1.11-1.966 1.655-.176.143-.375.259-.61.418-.055.256-.104.568.192.818.033.028.044.083.06.129.143.423.273.43.681.402a5.908 5.908 0 0 0 1.159-.164c.987-.265 2.003-.279 3.007-.372 1.052-.099 2.116-.113 3.175-.112 1.951.001 3.904.049 5.852-.123.534-.046 1.066-.11 1.6-.132a74.965 74.965 0 0 1 3.108-.081c2.464.001 4.927.04 7.392.036.939-.002 1.879-.067 2.818-.137 1.007-.075 2.013-.184 3.02-.28.149-.015.334.023.41-.145.078-.17-.135-.228-.185-.354l.392-.208c-.037.217-.073.41-.107.604l7.206-.116a3.59 3.59 0 0 0 .015-.177h3.485c.015-.121.062-.229.028-.3-.109-.236-.05-.427.122-.579-.577-1.095-1.382-1.978-2.272-2.765-1.314-1.158-2.691-2.236-4.236-3.086-.764-.419-1.344-1.055-1.914-1.699-.117-.133-.188-.266-.094-.451.045-.092.04-.208.064-.312.035-.146.074-.289.124-.48.147.104.256.174.356.252 1.238.947 2.48 1.894 3.715 2.843 2.209 1.699 4.421 3.391 6.62 5.104 1.314 1.024 2.596 2.09 3.905 3.123 1.31 1.03 2.634 2.043 3.95 3.064 1.231.957 2.449 1.932 3.689 2.876 1.848 1.405 3.7 2.808 5.569 4.181a216.249 216.249 0 0 0 4.485 3.182c1.025.714 2.073 1.395 3.109 2.095.965.653 1.927 1.314 2.891 1.97.57.388 1.159.752 1.71 1.168a69.138 69.138 0 0 1 4.078 3.301v-1.574c-.091-.059-.193-.121-.283-.198zM81.467 70.233c.199.032.397.091.597.1 1.189.052 2.377.119 3.567.13 1.416.014 2.833-.018 4.25-.036 1.357-.019 2.713-.069 4.071-.061 1.441.007 2.88.068 4.321.107 1.119.03 2.238.059 3.356.099 1.106.038 2.212.093 3.318.131 1.035.036 2.069.057 3.103.09.502.015 1.002.073 1.499.058.735-.022 1.471-.094 2.206-.141.366-.023.734-.041 1.151-.063-.011.162-.015.298-.03.433-.121 1.02-.399 2.005-.631 3.001-.183.786-.295 1.591-.395 2.393-.049.371-.181.617-.484.849-2.238 1.705-4.561 3.287-6.86 4.903-1.365.958-2.712 1.942-4.065 2.916-.106.075-.214.149-.345.238l-.511-.373c.407.119.757.027 1.057-.255.102-.095.197-.209.26-.333.145-.282.259-.578.406-.857.037-.071.146-.112.23-.147.437-.188.877-.368 1.315-.552.067-.028.131-.06.193-.096.396-.239.704-.537.667-1.049.287-.097.564-.169.822-.284.281-.125.561-.265.811-.44.43-.303.415-.872-.027-1.208-.535-.405-1.15-.485-1.783-.53-.035-.002-.071-.001-.107-.001-.585.009-.645-.068-.524-.689.355.062.635-.083.875-.362-.092-.236-.167-.496-.421-.584-.324-.112-.667-.195-1.014-.071a.368.368 0 0 0-.149.097c-.527.581-.756 1.292-.302 2.018a.7.7 0 0 0 .388.28c.203.051.426.051.634.022.468-.063.93-.04 1.386.049.156.03.298.125.454.196-.065.55-.457.656-.813.76-.326.096-.655.075-.951-.149-.236-.178-.519-.233-.812-.217-.154.008-.306.021-.477.034-.017-.065-.037-.12-.046-.175-.075-.457-.316-.742-.784-.86-.759-.193-1.25-.01-1.634.683-.132.236-.179.53-.342.736-.165.207-.433.327-.643.501-.146.121-.263.276-.403.404-.112.102-.239.186-.361.277-.029.021-.08.025-.092.051-.173.357-.58.292-.86.507-2.357-1.684-4.708-3.364-7.059-5.042l.126-.825c.079.132.136.215.182.304.25.487.597.887 1.033 1.214.324.242.709.188.931-.142.046-.07.05-.18.05-.271-.001-.94-.009-1.882-.009-2.823 0-.141.04-.283.043-.426.006-.253-.083-.345-.329-.373a45.7 45.7 0 0 1-.528-.062l-.171 2.808-.042.015c-.221-.586-.446-1.172-.663-1.759a.82.82 0 0 0-.924-.535c-.119.021-.176.098-.208.215-.049.189-.118.373-.179.56l-.082-.002c-.064-.211-.13-.422-.192-.633-.089-.299-.647-.527-.907-.352-.065.043-.11.188-.094.272.055.303.132.604.217.899.086.297.192.588.289.883.006.02-.002.044-.004.091-.068-.037-.126-.067-.184-.1-.674-.385-.674-.385-.613-1.168.015-.189.042-.379.043-.569.003-.216-.042-.243-.253-.233-.174.008-.35.001-.544.001l-.229.959c-.074-.069-.138-.102-.159-.153-.035-.085-.048-.182-.062-.273-.026-.155-.124-.223-.273-.229-.024 0-.049-.009-.071-.004-.461.105-.788-.171-1.123-.408a13.767 13.767 0 0 0-.668-.442c-.799-.498-1.581-1.021-2.371-1.533-.187-.121-.338-.232-.387-.497-.113-.629-.292-1.245-.448-1.89.257-.077.523-.05.791-.007zm27.799 25.475l.002-.001.021-.002.222-.102.02.073c-.081.008-.161.02-.241.029l-.017.007-.007-.004a20.36 20.36 0 0 1-.369.172v-.354c-.164 0-.313-.003-.463 0-.901.014-1.805.025-2.709.042-1.188.024-2.379.052-3.566.081-.715.017-1.429.026-2.142.054-1.164.044-2.329.102-3.493.153-.988.044-1.974.078-2.96.14-1.139.073-2.275.172-3.414.254-.474.033-.951.042-1.425.07-.735.043-1.47.092-2.285.144.359-.229.658-.43.967-.613.075-.044.184-.035.277-.04 1.2-.069 2.399-.139 3.599-.2.844-.042 1.69-.043 2.532-.106 1.398-.109 2.799-.216 4.184-.455.396-.069.804-.083 1.207-.105a30.154 30.154 0 0 1 1.534-.062c.427-.005.855.041 1.283.03.761-.017 1.521-.077 2.281-.089.593-.01 1.188.029 1.781.04.382.009.758.023 1.13.132.154.045.33.025.497.024.328-.004.33-.01.421-.315.102-.341.206-.683.31-1.024.026-.076.059-.149.094-.244.228.174.43.338.642.49.14.099.157.218.122.373-.08.347-.15.697-.223 1.045-.047.209-.012.273.188.363zm-13.61-10.887c-.16-.07-.31-.152-.47-.201-.155-.047-.333-.113-.478-.076-.217.056-.416.191-.616.304-.019.011-.012.125.019.159.162.182.269.428.542.489.039.01.1.045.104.076.023.211.205.284.342.387.458.34.92.673 1.39 1.001.104.075.235.113.352.17.118.057.215.044.329-.033.471-.318.48-.335.269-.863-.03-.074-.057-.151-.102-.273.185.121.332.212.472.312.173.12.327.115.481-.033.087-.08.19-.142.312-.23l.292.222c-1.785 1.333-3.621 2.524-5.42 3.767.03-.497-.43-.792-.491-1.258.54-.1 1.071-.22 1.458.33.088-.032.158-.045.217-.081.16-.099.374-.187.344-.412-.033-.237-.213-.399-.44-.468-.317-.096-.643-.164-.997-.25.013-.106.029-.208.041-.31.041-.379.083-.759-.056-1.129-.125-.33-.286-.442-.643-.452-.107-.003-.219.008-.321-.018-.42-.104-.744.062-1.024.354-.106.111-.192.244-.297.354a1.543 1.543 0 0 1-.288.254c-.245.158-.289.237-.149.494.203.376.421.746.658 1.103.42.634.86 1.256 1.322 1.926a252.373 252.373 0 0 1-5.86 3.829c-.108-.45-.197-.852-.3-1.248-.303-1.15-.593-2.304-.922-3.446-.306-1.062-.684-2.106-.893-3.193a54.085 54.085 0 0 1-.36-2.073c-.285-1.896-.629-3.775-1.308-5.581-.411-1.091-.741-2.211-1.109-3.318-.093-.277-.194-.553-.29-.83l.078-.055c.189.122.379.239.566.363.348.229.679.487 1.044.686.322.176.479.435.566.769.078.299.178.593.248.895.083.356.265.66.46.958.142.217.271.241.462.067.197-.178.481-.284.508-.656.172.284.307.519.458.744.072.106.161.209.263.287.186.138.295.137.48-.014.181-.146.342-.315.562-.52 2.889 1.89 5.742 3.928 8.595 5.963-.072.239-.243.307-.446.35.016.142.031.266.046.408zm4.618-2.311c.302.193.576.387.479.833-.405.146-.57.53-.771.899-.271-.115-.37-.348-.518-.556.212-.428.43-.844.81-1.176zm.206-2.276c.26.351.098.687.104 1.07-.501-.532-.498-.692-.104-1.07zm-.604 1.952c-.228-.062-.399.029-.547.178-.14.141-.274.288-.429.452-.115-.106-.214-.202-.322-.305.15-.332.415-.554.651-.796.104-.107.241-.105.347.007.118.127.225.268.338.402a.641.641 0 0 0-.038.062zm.42 5.057c2.589 1.817 5.107 3.749 7.602 5.719-.034.126-.055.23-.089.332-.12.358-.246.716-.373 1.084-.407-.021-.792-.053-1.181-.058-.917-.012-1.832-.015-2.747-.013-.37 0-.739.028-1.107.036-.964.021-1.928.013-2.89.066-.793.043-1.583.162-2.376.242-.851.087-1.703.188-2.556.249-1.021.072-2.044.1-3.065.16-.903.056-1.803.13-2.704.193-.14.01-.281.001-.433.001 3.971-2.667 7.927-5.327 11.919-8.011zm-1.53-2.919c-.549-.22-.909-.609-1.043-1.244.098.037.186.042.227.09.147.167.288.344.417.527.139.203.265.416.399.627zm-6.253 3.495l-.084.017c-.07-.107-.142-.213-.208-.322-.043-.07-.079-.143-.122-.217l.315-.64c.295.425.095.797.099 1.162zm15.718 3.622l-6.779-5.119c3.193-2.35 6.462-4.577 9.731-6.856-.161.482-.293.976-.482 1.448-.467 1.175-.789 2.393-1.082 3.621-.167.693-.354 1.384-.479 2.086-.117.642-.154 1.299-.246 1.947-.136.967-.387 1.906-.663 2.873zm-7.207-9.523c.23-.177.433-.359.662-.5a1.06 1.06 0 0 1 .793-.116c.358.075.509.462.273.745-.131.159-.319.279-.502.382-.184.104-.391.165-.619.256l-.607-.767zm-17.27 5.095c-.257-1.429-.494-2.86-.796-4.278a69.292 69.292 0 0 0-.925-3.703c-.488-1.79-.971-3.583-1.608-5.328-.008-.021-.001-.045-.001-.094.139.086.273.157.392.248a.378.378 0 0 1 .131.196c.333 1.49.923 2.899 1.361 4.357.367 1.218.805 2.416 1.053 3.667.121.605.217 1.216.306 1.828.197 1.366.398 2.729.727 4.071.099.403.248.794.364 1.194.271.936.536 1.875.803 2.813.098.343.206.683.288 1.029.124.53.229 1.063.341 1.596.007.034.001.07.001.139l-.958.631c-.039-.149-.076-.267-.1-.388-.177-.886-.368-1.77-.522-2.66-.182-1.042-.329-2.091-.496-3.137a108.88 108.88 0 0 0-.361-2.181zm24.158 17.702c-.039-.066-.08-.131-.134-.218l.212-.081c-.029.116-.052.207-.078.299zm3.495-5.745c1.52.845 2.868 1.923 4.159 3.07.441.393.82.854 1.256 1.316-.959 0-1.862-.015-2.766.004a84.782 84.782 0 0 0-3.064.121c-1.091.062-2.182.148-3.272.239-.875.074-1.748.18-2.625.254a35.06 35.06 0 0 1-1.888.106c-1.117.032-2.236.06-3.353.06-1.451-.001-2.904-.039-4.356-.047a44.836 44.836 0 0 0-2.106.044c-1.224.053-2.447.129-3.671.186-1.283.059-2.566.152-3.851.141-1.345-.011-2.689-.042-4.034.036-1.185.068-2.369.14-3.572.211.29-.246.58-.488.865-.733 1.763-1.532 3.504-3.084 5.067-4.825.175-.196.353-.39.504-.604a.786.786 0 0 1 .555-.346c.589-.084 1.176-.184 1.768-.244.721-.072 1.447-.106 2.17-.165 1.054-.085 2.107-.189 3.163-.261.783-.054 1.57-.062 2.354-.103 1.129-.057 2.256-.129 3.386-.188a67.796 67.796 0 0 1 2.07-.08c.785-.018 1.571-.004 2.356-.023 1.155-.028 2.309-.079 3.463-.112.559-.016 1.12-.002 1.677-.016.511-.014 1.021-.044 1.538-.068.164.203.329.42.505.629a6.016 6.016 0 0 0 1.702 1.398zm-1.813-6.427l-.771-.607c.039-.09.093-.176.115-.27.226-.985.471-1.966.661-2.958.143-.746.202-1.509.314-2.26.061-.4.141-.797.238-1.188.227-.899.447-1.802.712-2.689.215-.718.497-1.413.731-2.126.162-.496.289-1.005.431-1.509.071-.246.071-.246.397-.458-1.151 4.653-1.938 9.331-2.828 14.065z"/><path fill="#FFF" d="M151.68 46.651l-.354-.486c-.061.072-.118.144-.171.208l.353.418.172-.14M94.358 84.886l-.056.051a.665.665 0 0 0 .37.326l-.179-.211-.135-.166M108.878 96.472l.056.321c.085-.168.085-.168-.056-.321M110.658 93.385l.055-.046c-.044-.024-.085-.05-.129-.075.026.041.051.08.074.121"/><path fill="#FFB547" d="M146.855 86.485c-1.141-.062-2.28-.15-3.42-.176-1.19-.026-2.382.002-3.572.015-.702.008-1.406.014-2.107.052-.688.036-1.376.11-2.062.169-.403.034-.806.069-1.209.106-1.35.12-2.702.231-4.054.368-.755.075-1.507.208-2.263.292-.732.082-1.471.13-2.203.199-.828.078-1.657.164-2.486.244-.32.031-.643.051-.96.089-.542.065-1.084.14-1.626.21-.27.034-.348-.008-.363-.297-.049-.808-.073-1.618-.111-2.425-.041-.829.118-1.632.253-2.443.113-.678.159-1.37.236-2.056.062-.552.163-1.104.177-1.658.019-.64-.039-1.282-.066-1.924-.006-.154-.026-.307-.032-.461-.014-.359.212-.612.579-.605.547.009 1.093.055 1.64.071 1.227.035 2.453.068 3.679.086 1.454.023 2.907.047 4.359.039.951-.006 1.903-.069 2.853-.105.227-.008.455-.005.681-.017 1.331-.069 2.66-.141 3.993-.208.629-.032 1.26-.058 1.89-.081 1.403-.049 2.807-.1 4.211-.139.81-.022 1.62-.026 2.428-.029.526-.001.904.156 1.286.536a.49.49 0 0 1 .11.312c.013 1.082.027 2.165.018 3.249-.008.922.169 1.82.294 2.725.087.611.137 1.228.234 1.838.062.373.162.742.278 1.102.199.616.295.793-.483.812-.725.02-1.451.042-2.177.065l-.005.045zm.709-10.034c-.219 0-.454-.007-.688.001-1.403.052-2.806.106-4.209.163l-6.174.241c-.606.024-1.212.056-1.82.08-1.235.049-2.474.132-3.71.134-2.216.004-4.43-.038-6.645-.069-.665-.008-1.331-.046-1.997-.065-.091-.004-.183.014-.275.023 0 .107-.009.189 0 .271a11.993 11.993 0 0 1-.03 3.31c-.113.74-.137 1.494-.269 2.23a21.394 21.394 0 0 0-.317 4.158c.005.149.014.296.02.415.192-.038.35-.085.509-.101.546-.052 1.09-.084 1.634-.139.874-.086 1.749-.186 2.622-.275.605-.061 1.212-.098 1.814-.169.839-.098 1.672-.233 2.509-.325 1.016-.112 2.033-.196 3.05-.291.896-.083 1.794-.181 2.692-.243a88.972 88.972 0 0 1 3.383-.174c.988-.032 1.978-.02 2.965-.02.368 0 .738.003 1.105.036 1.032.094 2.064.148 3.103.104.462-.02.926-.002 1.388-.007.159-.001.332.058.449-.062-.426-1.506-.578-3.039-.785-4.554-.208-1.525-.221-3.078-.324-4.672m.002-.424l-.056.041c.02.025.038.051.062.07.003.003.047-.029.045-.034-.013-.027-.034-.052-.051-.077M55.753 80.729c-.361.69-.999.946-1.581 1.251-.58.304-1.178.109-1.577-.421l-.16-.215c-.186.154-.363.306-.545.447-.292.23-.596.428-.989.446-.303.014-.528-.104-.707-.339-.265-.349-.416-.751-.515-1.167-.224-.951-.207-1.91-.069-2.872.115-.801.211-1.604.312-2.406.012-.103.01-.208.016-.326-.11 0-.205.012-.293-.004-.137-.027-.282-.053-.403-.117-.143-.075-.232-.204-.193-.385.037-.171.164-.209.314-.238.22-.043.502-.043.634-.18.132-.136.116-.419.158-.638l.279-1.435c.031-.167.133-.266.298-.237.244.043.487.102.724.176.156.052.144.189.117.33-.082.396-.153.795-.226 1.192-.027.149-.042.299-.067.471l1.361.225c-.028.219-.184.246-.31.28-.297.08-.597.156-.9.206-.182.031-.274.105-.296.289-.171 1.402-.51 2.786-.452 4.214.023.587.1 1.163.347 1.701.059.126.145.238.238.387.1-.077.186-.122.24-.19.185-.233.358-.474.537-.712.057-.076.104-.162.174-.223a.774.774 0 0 0 .229-.388c.197-.645.551-1.111 1.459-1.099.295.003.591.001.919.001 0-.05.011-.13-.001-.206a2.082 2.082 0 0 0-.458-.995c-.327-.4-.7-.444-1.123-.156-.147.1-.303.188-.458.275-.152.085-.298.083-.422-.051-.123-.131-.105-.285-.049-.435a.458.458 0 0 1 .123-.174c.414-.372.869-.623 1.455-.488.198.045.4.069.595.12.773.208 1.185.75 1.364 1.498.033.139.042.282.072.501.077-.149.122-.248.175-.34.208-.359.396-.732.631-1.073.291-.419.714-.529 1.201-.394.368.103.744.195.94.579.02.04.06.086.101.098.308.093.313.372.346.607.033.232.03.48-.014.71-.125.654-.065 1.303-.003 1.956.055.58.152 1.161.144 1.741-.014 1.086-.194 2.14-.649 3.152-.282.627-.628 1.179-1.154 1.597a6.445 6.445 0 0 1-1.89 1.053c-.899.312-1.601.001-2.285-.503-.112-.081-.195-.208-.274-.325-.065-.099-.124-.238-.006-.323.095-.069.248-.128.352-.1.191.05.367.166.547.258.179.091.356.187.533.283.462.253.919.172 1.372-.025.948-.416 1.531-1.18 1.964-2.08a5.454 5.454 0 0 0 .534-2.632c-.024-.604-.126-1.205-.197-1.808-.006-.055-.029-.108-.054-.189-.241.124-.456.249-.681.345-.249.107-.501.226-.763.272-.409.073-.717-.11-.896-.492l-.145-.28m1.397-.152c.604-.409.939-1.037.934-1.722-.001-.144-.012-.287.001-.429.024-.255-.075-.428-.303-.532-.581.683-.928 2.138-.632 2.683m-3.172-1.196c-.456.704-.403 1.516.063 1.827.412-.22.528-.43.441-.855a2.557 2.557 0 0 0-.203-.604c-.06-.127-.181-.227-.301-.368M64.887 77.172c.129-.141.242-.28.37-.403.306-.291.687-.487 1.178-.1.103.081.212.153.322.224a.887.887 0 0 1 .375.505c.342 1.147.551 2.312.422 3.517-.025.229-.117.452-.181.691l-.543.115c-.147-.123-.132-.297-.131-.457.004-.416.029-.832.03-1.248.002-.783-.167-1.534-.449-2.263-.042-.105-.102-.203-.185-.37-.128.205-.238.344-.309.5-.374.819-.5 1.68-.437 2.576.026.356.015.714.021 1.07.003.167-.069.271-.234.307-.058.012-.113.039-.17.055-.546.141-.59.016-.617-.403-.042-.663-.167-1.32-.239-1.982a6.592 6.592 0 0 1 .084-2.097c.064-.296.15-.353.451-.3.071.012.139.035.242.063M61.663 73.9l-.133 4.065-.071 2.102c-.004.095.001.193-.021.284-.047.189-.044.368.015.561.05.164.072.361-.103.489-.204.148-.422.29-.687.246-.148-.024-.188-.175-.197-.309-.058-.95-.016-1.899.009-2.848.032-1.145.03-2.285-.069-3.426-.075-.866-.123-1.733-.173-2.599-.017-.279.138-.429.398-.348.302.094.588.247.868.401.07.04.108.179.116.276.031.369.042.737.061 1.106h-.013M70.714 78.659l-.791.124c-.317.049-.636.092-.951.148-.268.047-.322.099-.346.369a4.182 4.182 0 0 0 0 .643c.023.388.309.604.689.501.167-.044.317-.151.474-.233.081-.043.155-.114.242-.138.229-.066.315-.025.435.187.056.101.101.206.146.296-.405.4-.862.578-1.393.616-.567.042-1.061-.202-1.327-.716a2.103 2.103 0 0 1-.237-.852c-.036-.583.024-1.147.299-1.665.144-.27.322-.531.532-.753.429-.456.94-.518 1.444-.148.301.222.553.518.797.809.203.24.098.515-.013.812m-1.573-.603c.281.08.523-.021.78-.077-.238-.505-.498-.376-.78.077M46.503 75.625c-.258.178-.474.367-.724.483-.129.06-.328.024-.476-.024-.347-.117-.562-.392-.699-.719-.223-.537-.338-1.085-.153-1.664.043-.132.023-.286.065-.419.055-.179.129-.356.219-.521a.43.43 0 0 1 .41-.236c.32.008.643-.003.962.015.432.027.625.314.516.731-.083.315-.253.557-.547.707-.095.048-.194.098-.272.169-.053.05-.117.146-.104.204.083.366.096.767.429 1.025.099.079.209.142.374.249M71.507 73.397c-.254-.344-.479-.647-.702-.955a.793.793 0 0 1-.136-.248c-.057-.207.088-.392.3-.366.247.03.49.085.732.138a.279.279 0 0 1 .146.095c.278.335.562.668.823 1.017.339.449.4.958.23 1.486-.159.503-.847.839-1.284.755-.585-.112-.889-.701-.698-1.333.088-.287.174-.587.589-.589M73.562 72.988l-.652-.814c-.066-.084-.165-.156-.195-.25a.506.506 0 0 1 .016-.333c.055-.118.182-.123.312-.077.157.055.328.068.482.129.159.064.331.138.453.254.224.212.417.457.62.692a2.1 2.1 0 0 1 .49 1.169c.058.55-.222 1.003-.776 1.234-.097.042-.205.059-.31.081-.353.075-.527-.017-.675-.35-.21-.469-.114-1.27.235-1.735M48.857 75.26a2.667 2.667 0 0 1-.875.649c-.21.098-.628-.122-.776-.394-.195-.359-.318-.744-.317-1.157.001-.505.131-.988.282-1.464.076-.241.236-.374.504-.364.273.01.548-.003.82.015.336.02.509.253.457.583a.858.858 0 0 1-.425.625c-.167.103-.364.18-.366.437-.003.331.032.653.268.896.092.093.265.111.428.174M63.646 81.078c-.255.053-.438.102-.625.124-.198.023-.31-.07-.329-.239-.042-.372-.075-.746-.133-1.115a10.502 10.502 0 0 1-.125-2.065 4.3 4.3 0 0 1 .099-.741c.064-.288.239-.366.507-.231.147.073.28.178.417.271.187.126.26.302.22.524-.126.713.02 1.424.007 2.138-.006.436-.023.873-.038 1.334M64.113 75.72c-.301.155-.583.133-.863.13-.182-.001-.266-.134-.323-.282-.064-.17.029-.301.131-.415.106-.115.242-.077.361-.019.268.133.488.322.694.586"/><path d="M149.77 121.47c.025.045.056.078.062.113.002.015-.06.058-.068.052-.033-.021-.057-.059-.085-.089.023-.021.047-.04.091-.076"/><path fill="#FFF" d="M114.594 78.452c.059-.043.088-.088.122-.088.026-.002.083.055.078.077a.136.136 0 0 1-.083.087c-.025.005-.065-.041-.117-.076"/><path d="M129.864 60.916c-.039-.048-.082-.084-.077-.093.024-.044.062-.083.098-.123.022.021.07.052.067.062-.016.049-.05.09-.088.154M71.769 53.693c-.061.056-.091.105-.121.105-.03.001-.068-.045-.089-.079-.004-.009.036-.066.061-.07.034-.004.075.02.149.044M144.143 45.058l-.123.088c-.033-.05-.076-.09-.069-.114M151.603 117.737l.065.082-.095.068c-.016-.027-.044-.056-.041-.079.003-.025.039-.042.071-.071M151.879 118.297c-.021-.01-.054-.013-.063-.028-.03-.044-.051-.093-.076-.139.029-.014.081-.042.086-.034.031.043.056.09.073.139.006.017-.014.044-.023.066l.003-.004z"/><path d="M151.876 118.301c.021.008.051.01.062.026.023.032.038.071.056.107a.196.196 0 0 1-.028.019c-.03-.029-.062-.055-.083-.087-.012-.018-.002-.046-.002-.069l-.005.004zM44.846 123.98c-.015.019-.036.052-.042.05-.028-.012-.052-.034-.076-.052.025-.018.05-.039.079-.048.005-.001.026.033.039.05M50.264 104.799c-.039.022-.066.053-.086.047-.023-.004-.04-.041-.058-.065.023-.017.046-.051.069-.05.021.001.043.038.075.068M64.069 54.346c.039.057.068.088.078.125.003.01-.047.056-.067.052-.026-.004-.06-.04-.067-.067-.004-.022.025-.052.056-.11M49.475 101.41c.06-.045.084-.079.108-.079s.049.034.074.052c-.028.027-.052.065-.084.076-.021.009-.055-.026-.098-.049M47.6 46.154c-.082.056-.109.089-.128.084-.022-.006-.052-.042-.05-.065.001-.021.037-.053.061-.055.029-.004.061.017.117.036"/><path fill="#FFF" d="M105.624 111.021c-.044.037-.077.079-.109.08-.026.001-.052-.054-.079-.082.034-.024.066-.057.103-.069.015-.005.044.036.085.071M81.197 106.215c-.073.019-.118.043-.143.033-.032-.015-.047-.063-.07-.098.035-.015.073-.052.103-.046.032.009.056.054.11.111"/><path d="M143.15 122.892c-.026.036-.052.084-.062.081-.038-.012-.069-.041-.104-.063.022-.022.045-.061.07-.062.026-.006.055.023.096.044M115.152 112.854c-.051.035-.086.074-.098.068-.033-.019-.056-.054-.083-.083.021-.021.05-.063.067-.06.034.008.066.041.114.075M124.084 115.817c-.036.035-.061.072-.082.069-.023 0-.048-.034-.071-.054.014-.018.028-.049.043-.049.03.001.059.02.11.034"/><path fill="#FFF" d="M104.623 76.833c-.202-.302-.169-.603-.002-.908.383-.694.97-1.166 1.651-1.537.256-.14.51-.268.835-.259.174.006.378-.17.529-.307.38-.343.742-.705 1.101-1.069.246-.251.523-.236.818-.129.149.055.201.172.122.313a1.798 1.798 0 0 1-.297.397c-.3.303-.614.593-.946.91.073.082.146.165.238.264.236-.24.453-.459.67-.676.271-.267.637-.284.913-.031.044.039.061.163.032.217a1.9 1.9 0 0 1-.256.341c-.281.321-.566.64-.869.979l.252.765c.098-.075.186-.116.234-.185.166-.242.326-.489.471-.745.067-.116.135-.156.258-.106.021.007.041.021.062.031.494.261.609.251.25.853-.181.305-.428.572-.676.83-.123.133-.301.229-.474.303-.353.149-.626.043-.799-.3a6.952 6.952 0 0 1-.278-.659c-.192-.508-.461-.964-.869-1.333-.206-.189-.212-.201-.458-.049-.23.14-.443.306-.688.477.567.322.742.903 1.106 1.332.361.428.628.92.785 1.467-.129.201-.351.21-.535.267-.062.019-.195-.079-.241-.156-.45-.781-1.106-1.397-1.652-2.104-.014-.018-.037-.027-.089-.062-.055.084-.129.162-.159.253-.143.443-.469.634-.905.68a5.35 5.35 0 0 1-.134-.064M93.297 75.702c.033-.134.066-.253.088-.373.044-.254.167-.351.421-.284.354.092.698.211.762.663l.345-1.312c.321-.038.581.101.874.207-.017.133-.015.252-.05.361-.204.634-.153 1.295-.234 1.942-.015.119-.02.238-.024.356-.007.301-.134.502-.425.624-.312.131-.464.126-.687-.137-.128-.154-.233-.327-.391-.552-.065.19-.118.326-.161.465-.107.345-.423.429-.705.533-.063.023-.22-.088-.271-.173a2.201 2.201 0 0 1-.248-.588c-.186-.774-.352-1.553-.524-2.33a1.693 1.693 0 0 1-.02-.107c-.056-.371.075-.493.431-.397.091.026.182.057.271.087.172.058.274.17.311.354.039.198.098.392.151.586.009.018.036.029.086.075"/><path fill="#FFF" d="M104.623 76.833l.136.066a6.089 6.089 0 0 1 1.447 1.56c.188.296.299.621.352.965.054.356.026.4-.299.541-.075.032-.154.052-.268.089-.076-.183-.188-.348-.212-.526-.072-.495-.368-.847-.703-1.169-.299-.288-.627-.545-.943-.817-.25-.214-.348-.417-.258-.565.136-.225.354-.2.573-.171.057.008.117.017.175.027M96.703 77.878c-.32.001-.726-.438-.738-.801-.008-.205.431-.56.701-.566.324-.009.765.407.76.72-.006.346-.341.646-.723.647M104.263 102.088l-.025.427c.143-.104.011-.345.287-.37.078.485-.089.916-.193 1.356-.917.124-1.801.098-2.694.03-.697-.052-1.403-.018-2.103.013-.962.045-1.925.102-2.883.192-1.108.103-2.213.021-3.32.002-.249-.004-.497.036-.746.06-.958.093-1.916.192-2.875.281-.249.023-.5.027-.75.021-.253-.006-.293-.046-.3-.293a16.654 16.654 0 0 1 0-.894c.005-.25.04-.293.285-.316.475-.044.95-.072 1.424-.108.296-.022.592-.046.888-.074.933-.091 1.863-.206 2.809-.166.842.034 1.687-.017 2.531-.032.298-.004.596-.006.894-.026.664-.041 1.329-.078 1.992-.143a14.383 14.383 0 0 1 2.852.019c.387.038.78.016 1.172.021h.755M86.45 102.485c.177.404.082.765-.001 1.122a.43.43 0 0 1-.347.327c-.488.102-.978.197-1.47.273-.294.045-.362-.024-.371-.322-.01-.273-.01-.548.001-.821.009-.233.079-.321.276-.354a76.003 76.003 0 0 1 1.549-.224c.115-.014.234-.001.363-.001M87.072 98.425c.016.165.047.303.04.438-.01.225-.036.449-.074.67-.038.226-.138.386-.406.417-.329.039-.65.13-.978.18-.46.069-.588-.036-.6-.494a4.91 4.91 0 0 1 .022-.708c.033-.266.082-.273.346-.299.529-.054 1.055-.129 1.65-.204m-.196.334c-.008-.018-.009-.045-.022-.056-.008-.005-.034.01-.052.016l.032.077a1.58 1.58 0 0 1 .042-.037M88.806 101.522c.016-.152.036-.365.064-.577.019-.148.108-.219.258-.247.421-.076.839-.167 1.259-.25.358-.069.503.042.496.395a4.57 4.57 0 0 1-.057.64c-.035.207-.129.377-.368.429-.373.077-.742.17-1.112.256-.058.013-.117.028-.175.034-.288.027-.36-.041-.366-.333l.001-.347M92.472 98.274c-.015.222-.026.43-.044.636-.007.083-.029.163-.045.245-.101.513-.17.578-.692.617a8.995 8.995 0 0 1-.852.039c-.316-.003-.399-.102-.366-.42.029-.294.084-.585.128-.878.019-.119.075-.188.21-.193.495-.022.989-.054 1.484-.081.034-.002.068.013.177.035M97.009 100.206c.3-.033.391.035.377.337a4.518 4.518 0 0 1-.108.737.38.38 0 0 1-.309.312c-.408.073-.817.151-1.229.183-.295.023-.361-.065-.341-.359.021-.296.067-.591.107-.884.02-.149.104-.229.26-.238.416-.027.829-.059 1.243-.088M100.87 100.528c0 .036.003.072-.001.106-.069.616-.055.631-.633.754-.3.064-.597.146-.897.211a.751.751 0 0 1-.246.004c-.246-.032-.294-.082-.263-.321.039-.292.094-.583.152-.874.035-.183.144-.273.345-.287a10.1 10.1 0 0 0 .949-.126c.482-.081.618.034.594.533M106.026 99.873c.307.077.62.133.917.242.285.103.327.219.291.523-.059.442-.076.47-.427.531-.397.07-.795.134-1.192.198a1.27 1.27 0 0 1-.106.011c-.491.04-.568-.056-.432-.532.058-.206.112-.412.159-.619.044-.189.159-.281.352-.285.142-.004.283-.015.425-.022.004-.016.008-.033.013-.047M109.804 103.215c-.349-.004-.409-.074-.364-.408.033-.258.062-.516.108-.774.044-.243.104-.307.347-.33.318-.03.639-.051.96-.058.285-.008.411.091.404.368a3.727 3.727 0 0 1-.128.839c-.022.09-.154.197-.25.216-.36.068-.729.102-1.077.147M93.777 99.518c-.083.006-.249.028-.414.03-.211.003-.286-.067-.261-.282.037-.317.094-.632.152-.947.022-.126.091-.213.239-.217.379-.012.758-.038 1.135-.042.268-.001.375.107.354.369a6.53 6.53 0 0 1-.119.771c-.045.224-.134.3-.361.315-.214.016-.429.003-.725.003M105.005 97.85c.172.02.401.027.619.078.285.067.389.237.36.525-.005.058-.021.117-.033.174-.089.439-.139.481-.577.523-.176.016-.351.048-.526.073-.107.015-.211.039-.319.045-.529.035-.637-.09-.511-.6.045-.185.117-.361.158-.546.044-.196.15-.284.349-.274.142.007.284.002.48.002M97.79 98.42c-.029.199-.053.4-.086.598-.038.222-.159.37-.395.393-.378.037-.755.076-1.133.096-.243.013-.318-.063-.287-.288.037-.293.098-.585.158-.875.039-.182.147-.283.348-.29.321-.013.638-.048.959-.065.424-.02.445.003.436.431M81.022 103.665c-.009-.628-.009-.625.596-.688.236-.024.468-.07.704-.104.275-.037.319-.004.407.267.104.321.064.64-.044.941a.466.466 0 0 1-.301.263 6.98 6.98 0 0 1-1.023.103c-.228.011-.288-.063-.327-.286a.537.537 0 0 1-.011-.106l-.001-.39M92.373 101.429c.025-.213.053-.424.074-.636.018-.182.113-.277.291-.303.34-.049.681-.102 1.021-.152.221-.031.327.011.33.202a4.38 4.38 0 0 1-.09.949c-.023.109-.18.231-.301.27-.281.093-.575.143-.866.206-.379.083-.547-.067-.454-.427.008-.034.005-.072.006-.106-.004-.001-.007-.003-.011-.003M107.204 101.845h.212c.176-.002.289.098.274.256a8.756 8.756 0 0 1-.158 1.047c-.014.067-.155.137-.246.155-.278.056-.561.086-.842.125-.349.05-.462-.042-.442-.395.015-.284.065-.563.103-.845.02-.148.099-.239.25-.258.282-.034.565-.065.847-.098-.001.004.002.009.002.013M107.167 98.984c.128-.379.251-.771.399-1.155.024-.062.147-.12.228-.124.285-.013.57-.023.852.004.446.044.634.304.515.74-.132.493-.01.579-.645.586-.258.002-.519.061-.776.095-.192.025-.378.024-.573-.146M87.593 101.199c-.078.692-.078.693-.742.835-.208.043-.416.1-.628.12-.231.023-.315-.045-.319-.275-.003-.32.025-.639.041-.958.007-.141.089-.206.226-.229.362-.06.723-.136 1.087-.188.217-.033.282.023.311.235.018.153.015.308.024.46M114.295 102.099c0 .009 0 .08-.008.151-.071.642-.129.699-.771.771-.222.026-.449.056-.673.057-.229 0-.305-.079-.277-.311.035-.295.098-.585.154-.877.032-.169.125-.27.315-.279.261-.013.52-.057.78-.062.447-.012.494.045.48.55M99.245 99.362c-.521-.002-.564-.052-.486-.426.051-.243.115-.484.172-.727.043-.188.167-.275.355-.289.318-.023.638-.058.958-.08.224-.015.335.084.321.317-.016.248-.066.493-.107.738-.029.174-.146.272-.311.304-.349.07-.699.128-.902.163M82.839 101.591l.048-.603c.009-.137.074-.222.215-.238.329-.039.656-.092.987-.115.219-.015.319.059.339.275.027.28.024.568-.001.85-.017.171-.135.299-.327.33-.257.042-.513.087-.771.126-.373.056-.462-.024-.468-.41-.002-.071 0-.143 0-.213a.164.164 0 0 0-.022-.002M88.62 98.368c.088-.017.262-.054.436-.083.539-.092.657.01.606.543-.022.225-.076.445-.115.668-.032.176-.138.26-.316.282-.223.03-.443.08-.667.118-.352.06-.531-.091-.501-.439.022-.273.053-.546.098-.814.046-.297.053-.294.459-.275M102.394 101.493c-.333-.002-.405-.075-.366-.339.043-.282.105-.56.155-.842.032-.178.13-.26.311-.282.26-.028.517-.09.776-.118.33-.036.526.166.48.493-.028.2-.062.401-.125.591-.034.101-.124.227-.214.252-.352.106-.715.174-1.017.245M108.479 101.073c.009-.141-.002-.236.023-.322.071-.24.144-.479.246-.704.049-.106.166-.245.26-.252.359-.027.725-.141 1.088.012.247.106.318.192.273.457-.023.14-.059.28-.095.417-.042.15-.146.237-.306.263-.314.05-.629.117-.945.153-.169.017-.343-.013-.544-.024M101.86 99.294c-.384.004-.461-.073-.402-.355.06-.278.136-.554.197-.831.033-.147.111-.231.261-.25.247-.03.493-.077.741-.094.346-.023.491.12.466.46-.016.2-.035.406-.094.596-.035.108-.141.244-.241.271-.33.097-.672.15-.928.203M88.516 89.617c-.043-.109-.097-.225-.136-.345-.072-.222-.021-.365.203-.403.254-.044.522-.044.78-.018.087.009.164.151.24.236l.971 1.089c.011.013.043.008.091.015a1.26 1.26 0 0 0-.154-.747c-.224-.42-.46-.835-.855-1.128a.587.587 0 0 1-.176-.219c-.088-.195.009-.334.223-.307.136.019.245 0 .371-.062.197-.098.375-.047.509.116.5.604.879 1.27 1.035 2.049.113.571-.173 1.113-.719 1.305a.712.712 0 0 1-.449-.016 2.74 2.74 0 0 1-.555-.317c-.235-.159-.458-.336-.708-.497.19.337.301.687.307 1.073.005.317-.076.591-.302.81a8.214 8.214 0 0 1-.565.489c-.242.194-.507.198-.764.037-.564-.352-.987-.823-1.181-1.471a3.033 3.033 0 0 0-.31-.749c-.298-.48-.116-.932.431-1.075.377-.1.768-.176 1.159-.08.188.046.367.14.554.215m-.14 2.406a.77.77 0 0 0 .219-.567c.003-.527-.463-1.126-1.047-1.335.057.83.35 1.512.828 1.902"/><path fill="#FFB547" d="M134.068 80.646c.066-.144.112-.248.164-.35.387-.752.94-1.319 1.775-1.548.2-.056.432-.089.631-.047.37.078.73.209 1.088.336.193.069.35.201.42.409-.04.176-.173.26-.323.304a3.924 3.924 0 0 1-.557.112c-.25.031-.457-.029-.509-.354-.105.055-.193.088-.267.14-.677.484-.977 1.16-.935 1.974.028.546.106 1.089.188 1.629.052.341.21.651.389.945.413-.17 1.906-1.662 2.182-2.196-.172.01-.316.015-.463.028-.309.027-.614.066-.923.088-.195.015-.378-.021-.511-.193-.214-.277-.115-.584.229-.629.59-.075 1.183-.129 1.776-.177.422-.036.752.197 1.057.446.087.073.139.226.149.347.048.476.044.951-.057 1.423-.124.581-.278 1.158-.25 1.761.006.133-.064.208-.169.243-.202.069-.409.125-.616.182-.15.042-.236-.053-.258-.178a12.497 12.497 0 0 1-.116-.945c-.012-.123.021-.249.04-.439-.148.134-.249.213-.338.305-.467.484-1.047.734-1.704.815a2.509 2.509 0 0 1-.67.01c-.428-.064-.729-.308-.931-.699-.29-.561-.411-1.164-.497-1.778-.037-.27-.055-.544-.08-.796-.227.468-.445.959-.699 1.432-.315.59-.753 1.093-1.376 1.352-.422.174-.89.275-1.345.323-.541.058-1.082-.37-1.299-.939-.38-.99-.399-1.994-.113-3.013.163-.578.357-1.136.72-1.622.182-.244.39-.465.71-.501a5.06 5.06 0 0 1 .816-.024 4.108 4.108 0 0 1 1.638.462c.4.204.703.526.864.962.047.119.101.235.17.4m-3.2 3.433c.37-.136.634-.333.847-.589.513-.618.879-1.326 1.152-2.076.184-.505.059-.987-.264-1.409-.153-.2-.368-.318-.65-.392.055.235-.064.308-.24.331-.07.01-.144.039-.212.032-.311-.033-.442.152-.544.406-.406 1.019-.576 2.059-.278 3.139.049.178.118.35.189.558M145.902 81.769c.086.855-.414 1.567-.958 2.258a3.474 3.474 0 0 1-.267.289c-.411.416-.882.729-1.481.788-.412.04-.835.125-1.241.08-.901-.1-1.421-.736-1.535-1.738-.079-.688-.108-1.378.009-2.06.156-.899.41-1.762 1.074-2.446.383-.395.801-.536 1.317-.286a.975.975 0 0 0 .341.094c.913.079 1.637.507 2.23 1.185.292.33.552 1.139.511 1.836m-.991-.211c-.071-.346-.134-.693-.214-1.037-.094-.416-.424-.644-.73-.885-.22-.173-.469-.139-.716-.08a.201.201 0 0 1-.106.002c-.259-.087-.403.059-.524.253-.056.091-.115.18-.161.275-.619 1.236-.663 2.535-.415 3.862.019.091.079.173.114.262.075.188.223.235.403.197.092-.019.185-.052.268-.093.408-.202.789-.437 1.074-.806.151-.198.316-.387.486-.57.356-.389.517-.843.521-1.38M124.54 84.464c.29 0 .515.011.74-.001.844-.045 1.685-.114 2.53-.139.466-.014.937.042 1.35.312.039.025.08.051.115.082.014.013.013.043.031.112-.311.06-.612.141-.922.177-.365.043-.736.042-1.103.071-1.103.087-2.204.182-3.307.271-.189.015-.38.025-.57.013-.297-.019-.438-.162-.427-.458.037-1.009.088-2.018.131-3.028.009-.213.002-.429.012-.642.026-.476.065-.95.082-1.425.009-.26 0-.523-.027-.782-.043-.426.149-.638.557-.53.306.081.597.227.888.366.067.034.119.146.139.231.03.126.04.259.034.39-.047.866-.105 1.733-.149 2.599-.04.781-.07 1.563-.104 2.381"/><path fill="#FFB547" d="M137.492 85.379c-.026.034-.054.083-.062.079-.037-.013-.066-.04-.099-.062.022-.023.043-.06.068-.063.025-.005.055.024.093.046"/><path fill="none" d="M18.897 34.847h152.765v119.159H18.897z"/></svg>
