<svg xmlns="http://www.w3.org/2000/svg" width="245" height="195" viewBox="0 0 245 195"><path fill="none" d="M1.949 1.526h239.494v190H1.949z"/><path fill="#FFB547" d="M238.934 123.191c-.69-.072-1.545-.114-2.383-.256-1.011-.172-2.025-.259-3.047-.318a22.47 22.47 0 0 1-2.287-.227 19.65 19.65 0 0 0-3.055-.229 1007.13 1007.13 0 0 0-4.602-.011c-1.363 0-2.726.033-4.067.32-.332.071-.675.094-1.013.125-3.764.342-7.363 1.301-10.877 2.678-2.395.942-4.64 2.145-6.799 3.515-.719.454-1.408.962-2.076 1.487-1.604 1.269-3.242 2.494-4.658 3.979a48.938 48.938 0 0 0-1.361 1.522c-.279.322-.516.683-.807.99-1.942 2.062-3.422 4.457-4.91 6.842-.945 1.515-1.854 3.058-2.62 4.679-1.785 3.782-3.288 7.672-4.419 11.701-1.014 3.608-1.811 7.274-2.482 10.962-.384 2.093-.699 4.199-1.035 6.303-.065.419-.08.848-.133 1.271-.093.76-.193 1.52-.293 2.277-.023.17-.076.338-.085.506-.089 2.215-.56 4.392-.688 6.603a15.27 15.27 0 0 1-.225 1.772 4.28 4.28 0 0 1-.293.977c-.32.729-1.099 1.111-1.908.691a2.842 2.842 0 0 1-.635-.425 76.01 76.01 0 0 0-3.629-3.225c-.395-.324-.738-.705-1.105-1.062-1.098-1.072-2.209-2.127-3.286-3.221-1.021-1.033-2.181-1.902-3.271-2.854-1.091-.951-2.072-2.027-3.255-2.875a10.84 10.84 0 0 1-.795-.643c-2.963-2.572-6.129-4.88-9.354-7.111-1.891-1.31-3.895-2.439-5.885-3.59-1.998-1.154-4.063-2.146-6.168-3.078a57.84 57.84 0 0 0-12.15-3.863c-1.841-.367-3.708-.527-5.552-.857-.667-.119-1.358-.109-2.039-.129a211.854 211.854 0 0 0-10.988.006c-1.025.027-2.043.086-3.048.297a9.843 9.843 0 0 1-1.013.146c-3.571.317-7.073 1.04-10.552 1.881a132.727 132.727 0 0 0-13.942 4.194c-2.241.812-4.444 1.73-6.667 2.595-2.78 1.08-5.522 2.254-8.256 3.438-2.422 1.053-4.807 2.187-7.213 3.271-1.087.49-2.185.957-3.283 1.419a3.598 3.598 0 0 1-.736.202c-.982.172-1.692-.662-1.518-1.533.049-.246.124-.5.241-.723a36.47 36.47 0 0 1 .892-1.547 23.213 23.213 0 0 0 2.142-4.631c.51-1.535 1.009-3.07 1.307-4.67.236-1.263.407-2.521.419-3.804.013-1.192-.006-2.386.025-3.579.076-3.104-.542-6.1-1.394-9.054-.759-2.627-1.75-5.16-3.044-7.575-.969-1.811-2.092-3.513-3.283-5.175a32.334 32.334 0 0 0-3.833-4.445c-.43-.414-.852-.837-1.265-1.267-1.659-1.731-3.544-3.188-5.506-4.549-.631-.438-1.276-.852-1.91-1.282-1.482-1.007-3.041-1.879-4.632-2.702-3.413-1.768-6.955-3.204-10.601-4.422a86 86 0 0 0-11.617-2.997 155.435 155.435 0 0 1-3.011-.595 2.25 2.25 0 0 1-.917-.42c-.595-.451-.697-1.273-.264-1.813.208-.267.458-.508.724-.711.886-.666 1.778-1.322 2.681-1.961.908-.644 1.732-1.378 2.52-2.16.303-.301.608-.599.907-.897 3.103-3.105 5.592-6.648 7.414-10.637 1.315-2.874 2.272-5.876 2.747-9.017.063-.42.125-.844.213-1.259a9.75 9.75 0 0 0 .201-2.794 12.1 12.1 0 0 1 .015-1.786c.114-1.45.07-2.894-.227-4.323a8.85 8.85 0 0 1-.157-1.011c-.203-2.313-.885-4.508-1.669-6.674-.375-1.041-.821-2.057-1.236-3.083a5.25 5.25 0 0 0-.215-.463c-1.208-2.253-2.435-4.496-4.08-6.473-.271-.329-.546-.654-.807-.993a27.661 27.661 0 0 0-5.256-5.19 56.157 56.157 0 0 1-1.805-1.425c-.647-.528-.875-1.233-.799-2.05.014-.169.025-.341.059-.507.354-1.752.706-3.507 1.076-5.257.124-.582.265-1.166.562-1.691.382-.678 1.101-1.125 1.909-1.027.252.029.506.071.75.142.572.167 1.139.348 1.709.533.971.318 1.938.65 2.912.962 2.919.934 5.864 1.786 8.845 2.52 1.083.268 2.171.428 3.284.42 1.62-.009 3.238-.029 4.856-.058.852-.017 1.7-.111 2.535-.279.837-.164 1.687-.252 2.52-.425 2.768-.575 5.417-1.52 7.962-2.727 1.148-.546 2.248-1.218 3.306-1.931 1.413-.95 2.782-1.969 3.968-3.209.529-.554 1.081-1.087 1.624-1.63 1.633-1.634 2.998-3.472 4.23-5.427 1.594-2.532 2.866-5.227 4.134-7.925.254-.537.448-1.104.659-1.661.334-.877.669-1.753.981-2.636.281-.802.565-1.607.799-2.425.544-1.881 1.123-3.754 1.587-5.659.081-.327.221-.642.363-.951.32-.697 1.298-1.017 1.963-.634.293.167.594.349.831.583.484.476.963.968 1.385 1.499a28.851 28.851 0 0 0 2.22 2.469c1.622 1.632 3.242 3.266 4.872 4.889 1.024 1.022 2.084 2.003 3.227 2.903 1.137.893 2.19 1.889 3.357 2.752 1.92 1.422 3.874 2.785 5.998 3.887.152.078.301.158.448.244 3.421 2 7.114 3.226 10.982 4.03 2.535.527 5.077.525 7.631.398 1.363-.068 2.703-.38 4.012-.753 1.389-.397 2.759-.88 4.113-1.393 1.276-.484 2.473-1.14 3.636-1.86 1.668-1.033 3.249-2.189 4.788-3.402.875-.688 1.66-1.47 2.341-2.35 1.512-1.952 3.016-3.911 4.264-6.053 1.541-2.65 3.203-5.229 4.658-7.932.481-.898.998-1.782 1.627-2.593.469-.602 1.502-.668 2.042-.105.232.243.456.508.627.797a182.962 182.962 0 0 1 1.786 3.1c.969 1.705 1.922 3.415 2.896 5.114.467.814.95 1.616 1.438 2.415 1.643 2.692 3.286 5.381 5.046 7.996a92.551 92.551 0 0 0 2.371 3.331c.664.893 1.407 1.709 2.176 2.507 1.127 1.173 2.382 2.178 3.716 3.108 2.527 1.759 5.203 3.245 7.992 4.532.695.321 1.405.614 2.125.877.958.354 1.938.653 2.898.999 1.688.609 3.438.988 5.197 1.32 1.002.189 2.012.354 3.023.49.674.091 1.355.138 2.036.161 3.151.104 6.305.096 9.456-.007.938-.031 1.869-.108 2.789-.318.496-.115 1.004-.19 1.507-.278 3.806-.654 7.433-1.896 10.914-3.524 2.7-1.264 5.276-2.771 7.585-4.692.393-.326.814-.617 1.236-.902.285-.189.6-.323.942-.374.456-.07.851.057 1.142.41.293.354.345.773.178 1.197a2.21 2.21 0 0 1-.381.658c-.45.509-.936.989-1.399 1.487-1.873 1.997-3.503 4.173-4.784 6.6-.199.377-.385.761-.586 1.137-2.154 4.024-3.419 8.339-4.221 12.811-.092.5-.121 1.012-.18 1.521-.068.592-.104 1.191-.215 1.776-.205 1.092-.27 2.197-.274 3.304a445.677 445.677 0 0 0-.005 3.835c.006 1.449.076 2.889.343 4.323.231 1.254.319 2.531.569 3.789.353 1.755.804 3.486 1.262 5.214.174.657.402 1.302.637 1.941.357.957.754 1.9 1.119 2.855 1.344 3.515 3.15 6.792 5.082 10.013 1.977 3.297 4.262 6.366 6.665 9.356.908 1.13 1.802 2.267 2.817 3.301.119.121.238.248.338.386 1.217 1.656 2.691 3.075 4.132 4.524a744.285 744.285 0 0 0 4.714 4.687c1.092 1.074 2.175 2.162 3.412 3.08.341.252.646.555.955.846 1.115 1.053 2.21 2.129 3.4 3.098.129.105.229.252.326.389.537.756.055 1.658-.609 1.892a2.266 2.266 0 0 1-.489.131c-.347.034-.686.042-1.186.071m-224.79-21.082l.009.011c.168-.175.335-.349.503-.521.125-.101.26-.189.374-.303.036-.036.01-.13.014-.195-.299.039-.287.312-.38.506l-.52.502m39.887-68.497c-.172.17-.343.339-.512.51l-.009-.008.511-.512.513-.513c.731-.516 1.314-1.145 1.53-2.046l.012.013c-.734.515-1.298 1.153-1.532 2.041l-.513.515m-3.073 3.061l.003.001-.003-.001zm-1.536 1.018l-.51.512.006.006.512-.51-.008-.008zm9.725-11.234a2.53 2.53 0 0 0-.514 1.018l-.009-.01c.25-.301.411-.643.51-1.02.253-.3.417-.645.51-1.026.25-.299.414-.644.514-1.019.24-.3.415-.647.515-1.019l-.002-.001-.506 1.026c-.226.31-.398.655-.51 1.021-.238.305-.41.656-.508 1.03m107.365 154.9l-.012.01c-.061-.243-.121-.487-.184-.73-.342-1.326-.914-2.521-1.932-3.477-.303-.283-.539-.637-.816-.949-.047-.051-.146-.076-.223-.078-.179-.006-.293.104-.334.293-.093.417-.054.836-.008 1.253.055.515.243.976.578 1.37a13.062 13.062 0 0 0 1.812 1.746c.334.267.712.439 1.119.562M55.047 167.043c.568-.367 1.052-.832 1.482-1.352.324-.394.646-.801.777-1.287.249-.916.79-1.658 1.304-2.424.108-.158.066-.33-.079-.433a.381.381 0 0 0-.231-.049c-.51.062-.956.303-1.405.526-.56.277-.933.728-1.07 1.328-.277 1.227-.517 2.463-.772 3.695l-.006-.004zm-.505 3.59c1.168-.273 2.264-.736 3.351-1.23 1.163-.524 2.328-1.045 3.492-1.57.155-.068.304-.15.453-.232a2.216 2.216 0 0 0 1.007-1.117c.329-.785.583-1.601.638-2.457.011-.149-.086-.32-.173-.459-.114-.184-.493-.254-.691-.166-.157.07-.322.117-.469.203-.878.52-1.755 1.044-2.628 1.574-.37.215-.691.505-.945.85-.848 1.18-1.875 2.201-2.868 3.25-.41.434-.786.897-1.176 1.348l.009.006zm9.708-11.77c.753-.174 1.434-.525 2.122-.869 1.828-.91 3.655-1.824 5.491-2.723a39.235 39.235 0 0 1 2.091-.947c3.61-1.52 7.291-2.866 11.029-4.034 2.684-.836 5.405-1.554 8.165-2.067 2.84-.531 5.683-1.102 8.58-1.277a7.5 7.5 0 0 0 1.011-.143c.924-.182 1.858-.238 2.796-.244 2.723-.009 5.448-.016 8.172-.014 1.107.002 2.209.074 3.303.279.583.107 1.184.154 1.776.185a20.82 20.82 0 0 1 3.037.392c1.249.256 2.517.442 3.76.72 2.328.514 4.638 1.101 6.908 1.834 3.086.994 6.036 2.319 9.003 3.604.39.168.756.393 1.128.598.522.287 1.022.611 1.56.876 2.069 1.017 3.987 2.28 5.891 3.571 1.904 1.293 3.759 2.645 5.43 4.235.371.353.768.675 1.167.994a26.42 26.42 0 0 1 4.319 4.326c.686.871 1.438 1.681 2.209 2.476.133.139.305.168.465.075.064-.034.139-.116.146-.188.176-1.348.395-2.689.496-4.045.103-1.36.332-2.701.551-4.045.424-2.636 1.664-7.154 2.593-9.598.848-2.232 1.886-4.376 2.959-6.506a51.805 51.805 0 0 1 4.557-7.376c1.416-1.921 3.011-3.692 4.529-5.528.594-.72 1.282-1.367 1.981-1.986 1.146-1.018 2.301-2.028 3.512-2.963 3.854-2.978 7.9-5.635 12.469-7.414a8.89 8.89 0 0 0 .702-.308c.998-.481 2.042-.853 3.096-1.19 2.515-.806 5.052-1.528 7.653-1.994.838-.151 1.688-.232 2.521-.408 1.09-.229 2.194-.262 3.297-.352 1.102-.09 2.197-.246 3.297-.365.168-.02.342-.014.511-.016 1.702-.008 3.407-.068 5.09.285.249.051.508.078.762.082 1.625.016 3.216.318 4.812.567.506.079 1.012.153 1.508.265.92.206 1.847.309 2.785.336l-.006.006c-.515-.688-1.129-1.273-1.795-1.811-.465-.373-.951-.727-1.369-1.149-2.041-2.052-4.221-3.97-6.008-6.268a8.954 8.954 0 0 0-.68-.765c-1.306-1.345-2.531-2.756-3.727-4.203-.979-1.182-1.951-2.363-2.875-3.586-3.299-4.358-6.252-8.931-8.607-13.875-1.212-2.542-2.203-5.17-3.177-7.808-.144-.4-.267-.808-.37-1.221-.725-2.804-1.479-5.6-1.859-8.481-.136-1.016-.271-2.027-.279-3.048-.018-2.216-.028-4.43-.034-6.646a37.937 37.937 0 0 1 .481-6.104c.572-3.548 1.441-7.004 2.787-10.337.7-1.738 1.397-3.478 2.286-5.131.095-.175.032-.345-.133-.44-.065-.035-.179-.048-.244-.017-2.178.979-4.422 1.777-6.694 2.504-1.707.545-3.44.959-5.197 1.321-1.506.312-3.036.422-4.547.678-.924.156-1.859.237-2.797.242-1.106.009-2.215.019-3.322.017-1.448-.004-2.896-.009-4.324-.324a5.769 5.769 0 0 0-1.016-.114c-1.711-.08-3.379-.428-5.037-.817-3.993-.935-7.873-2.204-11.522-4.108-.376-.199-.757-.39-1.141-.575-2.859-1.373-5.429-3.194-7.933-5.118a11.636 11.636 0 0 1-2.021-1.946c-1.118-1.394-2.278-2.754-3.291-4.235-3.563-5.206-6.853-10.581-9.957-16.07-.293-.518-.623-1.017-.948-1.515-.091-.14-.234-.245-.349-.369-.144-.148-.57-.169-.712-.017-.174.184-.375.357-.495.572-2.1 3.706-4.37 7.313-6.804 10.809-1.573 2.261-3.489 4.189-5.58 5.944-1.896 1.591-4.012 2.875-6.205 4.025-1.519.794-3.129 1.342-4.75 1.875-2.606.858-5.274 1.358-8.029 1.307a99.07 99.07 0 0 0-2.557-.01c-2.322.015-4.578-.417-6.797-1.047-2.298-.651-4.523-1.514-6.706-2.478a17.27 17.27 0 0 1-1.592-.813c-2.586-1.49-5.118-3.062-7.465-4.916-1.937-1.53-3.884-3.05-5.626-4.813-1.617-1.636-3.266-3.241-4.898-4.859-.422-.42-.834-.854-1.258-1.272a7.838 7.838 0 0 0-.575-.503.508.508 0 0 0-.472-.101.419.419 0 0 0-.32.352c-.2 1.433-.388 2.867-.587 4.301a20.801 20.801 0 0 1-.256 1.511c-1.042 4.885-2.973 9.405-5.613 13.634-.997 1.594-2.168 3.053-3.348 4.51-1.239 1.527-2.611 2.917-4.158 4.136-.468.371-.93.748-1.391 1.126a20.651 20.651 0 0 1-3.393 2.269c-.901.482-1.807.96-2.736 1.388-2.723 1.255-5.563 2.128-8.561 2.425-.425.044-.848.096-1.269.166a18.65 18.65 0 0 1-6.102.005c-.421-.067-.843-.142-1.267-.157-1.286-.047-2.538-.289-3.792-.529-2.762-.53-5.515-1.095-8.185-1.999-.401-.135-.823-.205-1.239-.286-.058-.011-.162.074-.195.139a.312.312 0 0 0 0 .247c.241.463.66.773 1.018 1.133 1.743 1.752 3.496 3.494 5.232 5.25.479.483.946.985 1.37 1.517 1.271 1.602 2.493 3.242 3.563 4.986.759 1.233 1.555 2.449 2.156 3.769 1.169 2.57 2.072 5.226 2.492 8.03.127.841.348 1.67.364 2.526.062 2.725.115 5.44-.37 8.15-.557 3.114-1.295 6.157-2.469 9.103-1.239 3.114-2.946 5.947-4.852 8.675a28.632 28.632 0 0 1-3.652 4.266c-.861.826-1.712 1.66-2.564 2.494-.183.178-.363.358-.543.539-.25.245-.127.741.214.834.904.243 1.805.501 2.715.715 4.812 1.136 9.571 2.455 14.23 4.114.16.058.324.105.484.166.876.33 1.753.658 2.629.99 2.796 1.058 5.445 2.431 8.07 3.84 1.277.687 2.502 1.463 3.722 2.242 1.368.867 2.647 1.861 3.903 2.881.794.644 1.563 1.318 2.348 1.974.918.763 1.761 1.61 2.518 2.532.377.462.721.953 1.132 1.386 1.301 1.367 2.349 2.924 3.317 4.526 1.588 2.634 2.881 5.406 3.723 8.381.676 2.393.891 4.854 1.197 7.302.021.168.007.342.013.511.047 1.284-.146 2.545-.308 3.812a31.187 31.187 0 0 1-1.543 6.447c-.256.724-.469 1.459-.706 2.189l-.005-.008zm-8.731-12.435c.166-.02.356.014.493-.062 2.165-1.173 4.25-2.478 6.324-3.798.071-.045.135-.104.2-.156.335-.291.544-.655.552-1.102.004-.336-.003-.682-.073-1.009-.388-1.837-1.052-3.579-1.842-5.272-.07-.149-.189-.278-.283-.418-.17-.248-.673-.344-.924-.174-.139.097-.301.166-.42.283a1708.939 1708.939 0 0 0-5.04 5.035 4.538 4.538 0 0 0-.476.594 2 2 0 0 0-.338 1.453c.023.166.047.338.099.498a269.01 269.01 0 0 0 1.21 3.617c.051.15.188.277.299.398.053.058.143.078.219.113m121.605 12.82c-.042-.391-.054-.734-.121-1.064-.233-1.166-.485-2.328-.731-3.492-.244-1.164-.498-2.323-.696-3.498-.269-1.59-.628-3.166-.95-4.746-.016-.084-.044-.163-.068-.245-.054-.181-.16-.306-.328-.333a.41.41 0 0 0-.427.195c-.897 1.447-1.622 2.982-2.295 4.543-.209.482-.223.99-.104 1.5.018.084.033.166.061.246.816 2.596 1.633 5.189 2.627 7.722.436 1.104.786 2.248 1.387 3.282.097.168.244.25.428.207.066-.018.145-.104.164-.174.287-.977.568-1.955.83-2.94.102-.41.154-.831.223-1.203m-4.087 21.65c.044-.699-.121-1.342-.551-1.905-.305-.404-.601-.816-.912-1.216-1.197-1.537-2.323-3.123-3.26-4.836-.121-.221-.283-.42-.433-.625-.049-.066-.114-.125-.175-.183-.141-.141-.305-.163-.465-.045a.354.354 0 0 0-.133.207c-.2 1.603-.117 3.203.065 4.802.025.25.095.498.171.739.696 2.174 1.402 4.349 2.32 6.44.171.394.382.762.68 1.066.409.424.844.826 1.273 1.231.061.056.148.077.215.126.195.139.553-.032.609-.27.185-.748.115-1.516.221-2.267.12-.838.255-1.672.365-2.513.037-.241.01-.499.01-.751M52.716 138.501c.083-.022.177-.026.242-.069.277-.192.573-.367.811-.604 1.564-1.551 3.116-3.115 4.668-4.678.179-.183.333-.383.5-.576.248-.293.307-.86.145-1.204a8.043 8.043 0 0 0-1.436-2.081c-.318-.333-.971-.48-1.416-.271-.382.178-.78.349-1.112.601-1.487 1.129-2.932 2.306-4.038 3.838-.098.137-.209.267-.316.396-.413.518-.47 1.078-.172 1.66.425.83.861 1.654 1.308 2.471a.995.995 0 0 0 .347.359c.136.085.311.106.469.158m122.359 29.135c-.028-.163-.069-.501-.151-.829a4.263 4.263 0 0 0-.27-.716c-1.416-3.194-2.73-6.427-3.844-9.739-.054-.16-.127-.313-.199-.469-.035-.078-.082-.15-.127-.221-.103-.156-.239-.244-.412-.244a.45.45 0 0 0-.407.244c-.483.91-.763 1.893-.957 2.896a4.271 4.271 0 0 0 .091 2.022c.163.573.331 1.149.562 1.696.867 2.039 1.839 4.029 2.963 5.939.386.658.855 1.268 1.295 1.895.16.231.484.365.658.285.25-.113.352-.345.429-.586a6.856 6.856 0 0 0 .369-2.173m5.148-17.704c-.041-.473-.056-.897-.125-1.315-.351-2.179-.712-4.353-1.076-6.528-.112-.669-.248-1.334-.379-2.001a.496.496 0 0 0-.293-.377.413.413 0 0 0-.465.092c-.717.735-1.26 1.597-1.729 2.501a2.137 2.137 0 0 0-.219 1.237c.039.336.103.67.168 1.002.617 3.08 1.235 6.153 1.859 9.233.033.16.123.312.206.459a.368.368 0 0 0 .192.146c.162.05.318-.014.412-.179.541-.969.901-2.012 1.229-3.065.126-.403.153-.832.22-1.205m-123.846 9.449c-.017-.165 0-.08 0 .003-.001.198.333.501.523.466 1.529-.285 2.871-.99 4.139-1.854.201-.138.347-.369.488-.579.141-.209.265-.436.36-.669.7-1.733 1.262-3.509 1.586-5.354.012-.08-.023-.166-.022-.252.002-.201-.356-.451-.558-.386-.162.054-.338.073-.482.153-1.709.945-3.32 2.043-4.903 3.18-.589.423-.845 1.039-.89 1.752-.07 1.098-.149 2.196-.241 3.54m-5.01-36.49c-.029-.08-.04-.176-.091-.236a6.826 6.826 0 0 0-1.906-1.652c-.305-.177-.656-.174-.98-.029a3.49 3.49 0 0 0-.656.387c-1.577 1.16-2.951 2.541-4.264 3.985-.258.282-.219.853.054 1.179.493.584 1.014 1.139 1.625 1.604.318.242.887.271 1.194.039.201-.156.416-.297.596-.473a611.673 611.673 0 0 0 3.826-3.729c.18-.177.345-.377.476-.59.084-.142.089-.323.126-.485m12.367 23.175c-.048-.289-.108-.705-.188-1.117-.051-.271-.58-.495-.839-.377-.076.035-.161.053-.235.092-2.104 1.098-4.049 2.458-6.054 3.72-.458.286-.676.775-.596 1.315.098.668.257 1.326.403 1.986.088.401.631.578 1.039.33 1.228-.748 2.458-1.494 3.671-2.263.643-.41 1.271-.843 1.885-1.295.5-.366.783-.878.846-1.5.026-.252.038-.504.068-.891m-20.567-28.798c-.157.062-.33.099-.469.187-.216.135-.418.29-.604.465-1.108 1.062-2.02 2.289-2.893 3.547-.228.33-.204.888.031 1.202.411.553.922.989 1.524 1.325.367.204.917.204 1.209-.019.163-.121 3.738-3.172 3.871-3.309.12-.122.228-.251.343-.377.443-.486.392-1.182-.104-1.566a11.836 11.836 0 0 0-1.925-1.238 2.027 2.027 0 0 0-.478-.174c-.164-.036-.337-.03-.505-.043M25.613 62.257c-.046-.255-.053-.52-.141-.749-.436-1.11-1.006-2.152-1.601-3.183-.082-.146-.206-.267-.305-.405-.179-.248-.698-.298-.924-.089-.062.058-.143.095-.197.157-.83.968-1.655 1.936-2.477 2.908-.108.13-.201.275-.289.42-.222.379-.32.794-.238 1.222.179.928.557 1.777 1.046 2.581.093.155.482.332.671.293.166-.034.351-.044.489-.129 1.09-.654 2.173-1.324 3.253-1.997.139-.088.276-.21.366-.349.138-.209.229-.445.347-.68m29.829 64.622c-.036-.164-.024-.357-.111-.486a6.66 6.66 0 0 0-1.597-1.633c-.242-.178-.735-.197-.968-.023-.069.054-.149.084-.213.14-.971.831-1.95 1.647-2.903 2.5-.634.565-1.233 1.176-1.834 1.776-.177.181-.314.4-.462.607a.535.535 0 0 0-.089.238c-.01.166-.049.354.007.498.282.73.771 1.311 1.394 1.781.157.119.57.121.733.033.461-.25.799-.633 1.154-1.002 1.363-1.406 2.762-2.778 4.431-3.836.14-.089.247-.234.354-.363.052-.062.068-.154.104-.23m-14.748-10.777c-.084-.145-.13-.336-.253-.43-.822-.619-1.763-1.018-2.72-1.379-.375-.141-.941-.029-1.181.266a31.616 31.616 0 0 1-3.14 3.344.596.596 0 0 0-.126.218c-.066.162-.071.348.05.476.172.182.364.364.582.481.822.446 1.545 1.063 2.418 1.421.332.139.663.109.979-.064.073-.041.152-.078.214-.136 1.228-1.071 2.22-2.344 3.099-3.705.082-.129.054-.326.078-.492m133.288 58.47c.051-.521-.049-1.008-.348-1.445-.096-.141-.188-.281-.296-.412-2.084-2.578-3.784-5.385-5.044-8.455a.79.79 0 0 0-.134-.213.539.539 0 0 0-.188-.15c-.17-.065-.32.002-.384.193-.108.32-.201.646-.276.975a3.084 3.084 0 0 0 .11 1.746c.172.476.327.961.533 1.424a43.813 43.813 0 0 0 2.157 4.3c.805 1.392 1.707 2.715 2.808 3.896.05.055.147.079.226.09a.371.371 0 0 0 .408-.23 5.565 5.565 0 0 0 .428-1.719m9.276-35.24l.044-.001c0-1.101.007-2.205-.003-3.306-.002-.34-.029-.678-.064-1.014a.516.516 0 0 0-.262-.404.43.43 0 0 0-.476.006c-.772.537-1.396 1.229-1.964 1.973-.209.273-.333.605-.297.951.106 1.01.234 2.018.367 3.025.08.588.217 1.17.275 1.76.127 1.264.403 2.506.654 3.748.037.193.195.279.394.244a.4.4 0 0 0 .214-.125c.719-.889 1.098-1.905 1.111-3.043.019-1.271.007-2.542.007-3.814M28.339 74.057c0-.497.004-.666-.001-.833a7.109 7.109 0 0 0-.022-.506c-.016-.167-.047-.333-.067-.499-.062-.498-.609-.879-1.1-.806-.758.114-1.462.397-2.173.657-2.446.898-2.661 1.238-2.513 3.92.009.165.065.329.096.493.049.272.449.57.752.56.169-.006.338.004.503-.012 1.179-.114 2.325-.389 3.46-.713.524-.15.85-.55.943-1.084.086-.493.105-1.002.122-1.177m77.386 78.42h-.04c.026.592.046 1.186.083 1.777.011.164.079.326.121.488.047.189.358.469.543.492 1.099.139 2.192.092 3.281-.101.354-.062.785-.571.746-.92a217.316 217.316 0 0 0-.428-3.78c-.058-.461-.561-.943-1.005-1.039a5.33 5.33 0 0 0-2.27-.008c-.425.087-.769.4-.892.817a2.695 2.695 0 0 0-.133.745c-.022.509-.006 1.019-.006 1.529m27.906 5.668c0-.174.023-.348-.003-.512-.196-1.167-.384-2.338-.618-3.499-.123-.616-.541-1.04-1.107-1.309a6.216 6.216 0 0 0-2.196-.587c-.411-.029-.828.32-.864.748a11.056 11.056 0 0 0 .342 3.773c.211.811.696 1.336 1.479 1.598.562.188 1.125.375 1.693.549.154.047.33.045.498.066.295.036.683-.271.729-.587.009-.08.03-.162.047-.24m-34.764-3.477c-.008-1.098-.267-2.25-.485-3.408-.087-.467-.638-.863-1.115-.859-.69.004-1.335.188-1.951.47-.402.183-.688.519-.752.955-.126.831-.203 1.672-.296 2.508-.045.416-.085.836-.11 1.256-.031.498.404 1.006.89 1.062 1.121.129 2.176-.104 3.181-.594.323-.158.477-.466.567-.796.044-.162.041-.336.071-.594m46.647 7.387c-.031-.734-.039-1.416-.098-2.092a1.892 1.892 0 0 0-.885-1.48 18.338 18.338 0 0 0-2.697-1.436.635.635 0 0 0-.248-.035.397.397 0 0 0-.398.27c-.121.328-.111.673-.055 1.006.189 1.091.35 2.184.396 3.29.039 1.028.535 1.771 1.421 2.263.37.206.747.404 1.13.587.15.07.325.082.488.127.201.056.56-.106.652-.303.071-.151.168-.31.186-.47.052-.591.076-1.186.108-1.727M18.337 51.39c-.056-.157-.074-.341-.17-.463-.887-1.124-1.869-2.155-3.035-2.998-.227-.161-.741-.058-.921.178-.049.067-.126.116-.167.186-.475.794-.961 1.58-1.411 2.387-.262.472-.268.975.063 1.426.605.807 1.279 1.56 2.012 2.252.129.124.562.143.719.03.954-.692 1.785-1.526 2.659-2.31a.486.486 0 0 0 .14-.206c.048-.156.076-.32.111-.482m7.273 34.923c-.046-.16-.063-.334-.141-.478a.928.928 0 0 0-.587-.449 4.006 4.006 0 0 0-2.014-.017c-.419.102-.773.38-.972.763a4.375 4.375 0 0 0-.316.693c-.339 1.05-.666 2.103-.992 3.158-.05.161-.078.33-.098.499-.067.54.082 1.018.503 1.366.259.214.555.383.848.551.262.146.748.048.939-.172.168-.193.346-.375.488-.587 1.048-1.563 1.718-3.304 2.316-5.077.028-.076.019-.166.026-.25m90.669 66.355c-.007-.082-.022-.588-.072-1.091a2.984 2.984 0 0 0-.163-.735c-.14-.408-.386-.75-.761-.975a3.573 3.573 0 0 0-2.425-.479c-.369.053-.816.473-.858.822-.029.252-.074.506-.056.754.09 1.18.313 2.336.622 3.473.091.344.361.572.672.711a4.413 4.413 0 0 0 1.962.404c.482-.018.971-.455 1.022-.949.017-.168.047-.334.052-.504.012-.335.005-.671.005-1.431m4.693 3.475c.194-.016.362-.024.53-.045.356-.043.789-.521.793-.879.002-.251.015-.507-.016-.756-.115-.926-.244-1.848-.369-2.77-.011-.084-.029-.168-.045-.252-.1-.537-.375-.957-.914-1.107-.566-.16-1.152-.258-1.731-.375-.08-.018-.168.016-.251.016-.276.002-.712.312-.78.568-.065.244-.16.494-.162.738 0 1.016.026 2.031.052 3.048.003.165.062.33.103.493.087.354.313.609.618.768.684.359 1.426.519 2.172.553m18.53 5.009c.012-.166.041-.336.03-.502-.062-.924-.13-1.849-.2-2.771-.033-.42-.062-.84-.127-1.256a1.589 1.589 0 0 0-.617-1.066 6.901 6.901 0 0 0-2.736-1.248c-.08-.016-.168-.004-.25-.014-.205-.021-.514.273-.5.484.079 1.09.235 2.174.467 3.242.511 2.439.506 2.574 3.343 3.492.069.021.164-.009.241-.031a.52.52 0 0 0 .349-.33M30.819 117.025c.45-.035.771-.156 1.037-.365.464-.365.925-.74 1.349-1.146.425-.408.812-.854 1.2-1.301.108-.121.152-.297.221-.449.09-.195-.033-.565-.209-.683-.79-.53-1.683-.769-2.6-.931-.158-.029-.341.007-.498.059a3.195 3.195 0 0 0-.692.307 346.147 346.147 0 0 0-3.214 2.022c-.069.044-.115.124-.18.175-.161.131-.141.561.033.682.068.047.118.127.191.164.907.451 1.81.908 2.728 1.336.218.103.487.103.634.13m57.489 38.034c.043.576.091 1.336.158 2.096.043.507.562.857 1.113.757.416-.076.833-.156 1.243-.265.833-.217 1.344-.795 1.415-1.592.109-1.184.142-2.367.036-3.554-.046-.528-.557-.978-1.037-.883-.664.132-1.325.282-1.98.442a1.46 1.46 0 0 0-.459.215c-.296.191-.515.461-.522.82-.014.593.016 1.184.033 1.964M24.54 83.181c.406-.03.746-.045 1.083-.079.81-.083 1.303-.558 1.512-1.191.254-.775.477-1.999.54-2.746.031-.377-.448-.837-.83-.787-1.011.137-2.019.3-3.002.578a2.776 2.776 0 0 0-.688.324 1.258 1.258 0 0 0-.59.799 4.705 4.705 0 0 0-.045 2.025c.068.351.487.836.825.898.415.077.837.126 1.195.179m-8.005 24.684c-.53-.016-1.026.078-1.453.381-.481.344-.943.71-1.406 1.076-.271.214-.489.479-.388.852.071.26.294.395.549.471.969.287 1.938.582 2.911.863.24.071.49.124.74.158.693.1 1.344-.004 1.924-.424.618-.447 1.17-.961 1.616-1.588.186-.262.017-.685-.327-.81-1.196-.434-2.441-.659-3.675-.934-.164-.033-.334-.031-.491-.045m172.574 24.803c0 .342-.006.682.002 1.021.005.172.029.342.059.508a.47.47 0 0 0 .293.379c.158.066.34.041.475-.065.746-.575 1.356-1.286 1.971-1.995.225-.26.406-.559.48-.891.221-.998.5-1.986.562-3.012.021-.336-.03-.678-.072-1.014-.041-.309-.491-.556-.78-.488-.603.14-1.078.494-1.562.847-.496.36-.828.837-1.019 1.429-.344 1.07-.414 2.17-.409 3.281M24.207 109.742c-.5-.03-.894.083-1.184.436-.534.651-1.059 1.309-1.583 1.967-.192.244-.071.758.189.9a11.71 11.71 0 0 0 2.334.949c.34.1.667.031.981-.105a4.54 4.54 0 0 0 .45-.231c.725-.433 1.448-.863 2.163-1.31.213-.133.399-.309.597-.465a.582.582 0 0 0-.133-1.018c-1.243-.533-2.529-.931-3.814-1.123m126.307 55.737l.045-.008c-.213-.99-.422-1.98-.645-2.969a1.364 1.364 0 0 0-.209-.457c-.378-.59-.896-.996-1.58-1.184-.266-.07-.748.217-.793.486-.014.084-.043.166-.053.246-.127 1.266-.094 2.53-.027 3.795.033.622.303 1.143.811 1.51.75.547 1.47 1.141 2.344 1.487.068.027.171.009.242-.021.162-.064.271-.209.246-.389-.12-.83-.252-1.663-.381-2.496M21.612 55.449c-.023-.135-.028-.22-.054-.301-.241-.753-.708-1.326-1.417-1.678-.329-.165-.668-.083-.951.12-.888.642-1.645 1.431-2.361 2.255-.056.063-.093.141-.133.214-.167.304-.251.626-.141.966a4.775 4.775 0 0 0 1.339 2.093c.145.132.529.207.715.123.154-.068.321-.123.444-.228a12.29 12.29 0 0 0 2.038-2.224c.145-.203.275-.426.363-.659.087-.232.115-.486.158-.681m50.334 105.007c.023.81-.015 1.405.149 1.987.083.295.481.611.753.563.084-.014.173-.005.253-.024a8.111 8.111 0 0 0 1.894-.741c.479-.257.778-.659.875-1.188.184-1.014.141-2.031.014-3.047-.009-.084-.056-.16-.076-.242-.09-.367-.634-.703-.991-.623a5.322 5.322 0 0 0-2.062.961c-.348.263-.598.617-.667 1.051-.081.501-.111 1.011-.142 1.303m-6.817 4.917a.508.508 0 0 0 .673.532c1.053-.332 2.08-.74 3.072-1.225.226-.113.439-.259.642-.41.365-.271.518-.656.54-1.101.004-.085.001-.17-.007-.254-.075-.761-.149-1.522-.23-2.281-.046-.438-.536-.768-.916-.647a8.038 8.038 0 0 0-2.261 1.148 1.778 1.778 0 0 0-.72 1.022c-.275 1.07-.529 2.142-.793 3.216M22.273 69.83c.225 0 .312.02.391-.003 1.369-.418 2.73-.865 4.041-1.45.15-.068.294-.169.418-.281.189-.172.338-.398.346-.652a4.62 4.62 0 0 0-.466-2.202c-.036-.074-.098-.136-.147-.205-.19-.265-.631-.385-.904-.259-1.154.538-2.148 1.33-3.205 2.019a4.74 4.74 0 0 0-.786.633c-.17.173-.323.398-.4.626-.171.504-.092.999.208 1.444.154.225.38.322.504.33m162.747 65.91c0 1.26-.004 2.111.002 2.962.002.339.026.681.051 1.021.014.187.104.33.257.396a.36.36 0 0 0 .448-.107c.265-.332.512-.678.76-1.022a4.326 4.326 0 0 0 .834-2.632c-.01-1.53-.003-3.063-.014-4.596 0-.166-.069-.33-.101-.494-.039-.222-.391-.387-.62-.295-.955.383-1.531 1.053-1.562 2.111-.032 1.021-.044 2.043-.055 2.656M83.141 156.52c.062.597.11 1.188.189 1.775.062.471.616.887 1.109.873.432-.012.833-.133 1.227-.309.609-.271.904-.75.942-1.396.08-1.29-.163-2.536-.544-3.762-.051-.17-.417-.419-.6-.416-.617.008-1.176.192-1.641.597-.259.227-.462.514-.507.862-.073.59-.119 1.183-.175 1.776m43.968-1.847c-.049-.831-.072-1.503-.127-2.172-.056-.649-.433-1.083-1.021-1.317a5.667 5.667 0 0 0-.969-.256c-.16-.029-.334 0-.5.022-.275.036-.642.411-.664.682-.021.25-.058.505-.027.749.101.832.226 1.664.347 2.494.047.332.092.664.158.994.07.347.301.604.584.791.276.186.592.301.936.354.523.082 1.078-.264 1.134-.746.067-.582.11-1.166.149-1.595m-23.457-2.04c0 .01-.01-.242-.023-.494-.012-.25-.014-.504-.044-.752a4.115 4.115 0 0 0-.155-.734c-.109-.329-.327-.594-.664-.702a2.256 2.256 0 0 0-.733-.119c-.774.015-1.3.487-1.37 1.194-.117 1.169-.1 2.348.05 3.514a1.326 1.326 0 0 0 1.162 1.143c.42.047.832.029 1.243-.091.373-.106.723-.554.695-.944-.042-.587-.093-1.169-.161-2.015m-22.501 5.444c-.021-.575-.028-1.083-.063-1.591-.018-.248-.088-.494-.142-.74-.083-.371-.606-.734-.962-.67-.676.123-1.292.381-1.796.863a1.257 1.257 0 0 0-.366.652c-.049.245-.09.5-.082.749.035 1.017.24 2.009.438 3.005.016.076.073.147.114.219.092.158.228.263.409.272.79.056 1.5-.172 2.12-.653a.844.844 0 0 0 .327-.658c.013-.505.003-1.013.003-1.448m74.544 11.008c-.023-.403-.051-.991-.094-1.578a1.95 1.95 0 0 0-.316-.95c-.529-.771-1.178-1.423-2-1.885-.072-.041-.16-.049-.238-.076-.314-.109-.691.203-.662.557.043.55.59 3.804.717 4.222.072.239.158.479.254.713a3.042 3.042 0 0 0 1.105 1.349c.131.09.305.131.463.174.234.064.533-.131.605-.336.231-.66.128-1.336.166-2.19m1.714 2.162c.022.397.046.991.099 1.581.049.52.273.977.617 1.365.564.635 1.164 1.231 1.857 1.727a.495.495 0 0 0 .479.059.473.473 0 0 0 .303-.367c.156-.928.088-1.856-.041-2.78a2.913 2.913 0 0 0-.461-1.172c-.557-.861-1.225-1.619-2.045-2.24a.488.488 0 0 0-.238-.076c-.178-.018-.33.052-.406.209-.232.48-.126.998-.164 1.694M12.687 46.216c-.053-.16-.081-.333-.161-.479a2.233 2.233 0 0 0-.899-.88 1.03 1.03 0 0 0-.232-.098c-.256-.07-.53-.081-.726.104-.814.771-1.449 1.667-1.79 2.745-.077.243-.012.513.127.735.327.517.766.907 1.357 1.107.279.095.777-.044.935-.257.565-.756.983-1.591 1.311-2.474.056-.156.053-.334.078-.503m3.931 52.585a.493.493 0 0 0 .267.402c.16.09.335.105.493.016.219-.125.467-.24.623-.426.88-1.036 1.744-2.085 2.592-3.147.154-.19.242-.448.318-.687.114-.351.023-.674-.234-.936-.118-.121-.256-.222-.391-.322-.066-.05-.15-.078-.226-.115-.31-.148-.737-.029-.899.262-.82 1.484-1.639 2.972-2.458 4.46a.732.732 0 0 0-.07.242c-.015.083-.01.167-.015.251m188.196 23.607c.039-.34-.299-.705-.601-.676-.084.01-.17-.004-.252.012a9.716 9.716 0 0 0-2.603.889 2.244 2.244 0 0 0-1.049 1.043 6.144 6.144 0 0 0-.354.936c-.044.152-.016.328-.012.494.007.228.353.453.549.367 1.227-.539 2.404-1.174 3.561-1.85.141-.091.267-.203.372-.334.232-.254.373-.553.389-.881M11.786 106.824a5.79 5.79 0 0 0-3 .729c-.373.2-.699.477-.958.811a.62.62 0 0 0-.11.228c-.053.177-.016.343.121.449.413.321.919.396 1.413.492.696.14 1.336-.017 1.924-.41.42-.281.822-.589 1.147-.981.107-.127.183-.281.271-.424.108-.171.006-.574-.192-.667-.226-.106-.465-.172-.616-.227m185.519 17.655c-.164.023-.332.033-.492.076-.879.243-1.463.779-1.654 1.695-.119.574-.26 1.143-.354 1.723-.039.238.016.494.032.744.015.205.396.385.606.299.981-.408 1.675-1.1 1.992-2.121.174-.559.273-1.137.4-1.707.018-.08-.02-.166-.018-.248.003-.21-.301-.488-.512-.461M6.49 44.979c-.052.437-.066.521-.071.604s-.005.167 0 .25a.571.571 0 0 0 .216.434c.16.135.524.073.694-.114a10.418 10.418 0 0 0 1.67-2.503.996.996 0 0 0-.057-.965 2.137 2.137 0 0 0-.91-.844c-.298-.146-.768.01-.841.303-.265 1.058-.524 2.118-.701 2.835m204.753 75.531c-.029-.168-.134-.303-.32-.316-1.123-.096-2.149.256-3.144.724-.141.065-.24.229-.346.358a.622.622 0 0 0-.098.229c-.05.179-.006.334.137.437.062.047.154.096.223.086a9.18 9.18 0 0 0 3.314-1.104.514.514 0 0 0 .167-.183c.038-.07.047-.155.067-.231m4.17-.41c.731-.107 1.065-.151 1.399-.209.074-.016.188-.067.197-.121.032-.143-.094-.215-.312-.215-.59.004-1.188-.055-1.737.233-.054.03-.104.149-.089.208.02.061.124.136.188.135.252-.01.503-.047.354-.031"/><path fill="#FFF" d="M96.401 64.311c-2.343.434-4.469.899-6.62 1.195-1.109.153-2.45-1.248-2.698-2.349-.263-1.162-.672-2.293-1.073-3.419-.28-.785-.721-1.518-.973-2.31-.927-2.909-4.674-3.866-6.936-1.993-3.498 2.897-5.659 6.513-6.825 10.863-.994 3.711-1.119 7.45-.873 11.238.334 5.109 1.978 9.737 5.05 13.844.995 1.332 2.548 1.97 4.142 1.443 2.961-.979 5.76-2.364 8.001-4.559 1.526-1.493 2.249-3.563 2.632-5.631.25-1.345.883-2.378 1.53-3.277.706.008 1.308-.104 1.837.043.919.257 1.924-.003 2.8.639.438.322 1.167.216 1.725.413.452.159.845.481 1.287.744-.481 1.172-1.071 2.167-.457 3.301.061.112.016.31-.035.447a429.89 429.89 0 0 1-1.513 3.959.842.842 0 0 1-.159.271c-2.219 2.472-3.836 5.512-6.859 7.229-3.901 2.215-8.096 3.426-12.566 3.579-1.967.067-3.857-.528-5.535-1.555-2.783-1.698-5.247-3.825-7.552-6.114-.692-.687-1.169-1.612-1.658-2.477-2.624-4.636-4.141-9.606-4.413-14.941-.011-.205-.109-.445-.035-.61.981-2.154.703-4.631 1.872-6.77 1.103-2.018 1.804-4.252 2.881-6.285 1.303-2.456 2.686-4.94 5.007-6.594 2.685-1.914 5.434-3.816 8.824-4.274 2.494-.337 5.031-.488 7.507-.02 3.038.573 6.09 1.259 8.509 3.406 1.568 1.393 2.719 3.048 2.859 5.236.106 1.669.2 3.336.317 5.328m79.345 17.878l1.469-.356c-.246.697-.384 1.172-.576 1.625-.27.622-.557 1.235-.861 1.841-.113.228-.242.464-.422.637-2.779 2.674-5.987 4.574-9.801 5.355-2.773.57-5.553 1.131-8.33 1.679-2.084.411-4.186.355-6.276.101-2.166-.267-3.957-1.235-5.409-2.903-3.773-4.339-4.906-9.521-4.832-15.068.064-4.915 1.048-9.673 2.588-14.339.766-2.32 2.203-4.118 3.873-5.82 2.398-2.449 5.434-3.901 8.383-5.489 1.98-1.065 4.102-.781 6.156-.325 2.134.474 4.221 1.15 6.332 1.728 2.146.587 3.695 2.137 5.441 3.372.201.143.31.417.463.631.565.803 1.188 1.574 1.681 2.418.546.932.997 1.922 1.446 2.907.301.661.588 1.339.765 2.039.187.742.251 1.515.331 2.277.062.628-.15 1.417.156 1.852.462.649.322 1.294.437 1.943.046.256.138.532.085.776-.464 2.226-.925 4.455-1.447 6.668-.505 2.118-1.08 4.222-1.652 6.451m-25.728-10.825c-.295 4.263-.396 7.562.782 10.746.693 1.868 1.38 3.74 2.625 5.342.499.645 1.066.976 1.899.72 1.146-.353 2.354-.568 3.449-1.046 2.17-.944 4.308-2.054 5.709-4.039 2.326-3.298 3.888-6.99 4.521-10.961.811-5.086.286-10.13-1.227-15.06-.467-1.521-1.42-2.438-3.019-2.855-2.639-.69-5.194-.244-7.76.292-.364.077-.731.433-.978.751-1.668 2.17-3.201 4.441-4.022 7.075-1.011 3.254-1.931 6.543-1.979 9.035m-16.123-2.116c-.578.896-1.367.657-1.965.882-.33.124-.767-.001-1.074.148-1.307.638-2.733.628-4.108.909-4.624.944-9.216 2.044-13.817 3.098-.245.055-.462.222-.813.398l.268 15.225c3.789-.372 7.489-.645 11.164-1.125 2.754-.359 5.469-1.005 8.207-1.478.592-.102 1.215-.014 1.822-.008.156.001.383.088.457.014.591-.579 1.343-.487 1.881-.164.748.449 1.527 1.049 1.941 1.785.406.717.41 1.679.519 2.542.058.453-.104.933-.062 1.389.179 1.83-1.879 3.609-3.695 3.164-1.698-1.703-3.76-.506-5.587-.521-3.765-.028-7.531.486-11.299.733-3.058.201-6.016.896-8.959 1.686-.253.068-.514.121-.757.218-2.534 1.014-4.812-1.064-4.645-3.677.156-2.453.237-4.912.245-7.37.009-3.25-.183-6.504-.114-9.754.088-4.248.4-8.491.522-12.74.116-4.089.124-8.184.156-12.277.009-1.162.564-1.894 1.963-1.934 1.817-.051 3.642.124 5.463.207.57.026 1.146.15 1.707.097 5.639-.529 11.271-1.127 16.915-1.608 1.685-.144 3.369.001 4.932.906 1.078.624 2.312.975 3.438 1.528.316.156.655.571.7.907.074.538-.446.567-.875.658-.974.205-1.95.42-2.899.714-1.739.538-3.532.341-5.299.419-2.617.116-5.242.095-7.856.222-2.569.125-5.133.353-7.696.555-.566.045-1.125.179-1.851.299l-.26 12.131c1.03-.218 1.874-.425 2.729-.572 3.049-.526 6.097-1.062 9.155-1.524.644-.097 1.336.071 1.996.183 1.113.189 4.689 2.08 5.681 2.847.471.369 1.086.554 1.77.888"/><path fill="#FFB547" d="M130.393 126.123c-1.813.691-3.619 1.385-5.43 2.068-1.25.473-1.252.466-2.338-.694 1.042-2.308 2.742-4.36 3.557-7.101-1.328.196-2.347.684-3.391 1.1-1.199.477-1.706.1-1.864-1.49 1.864-.545 3.757-1.104 5.653-1.646.249-.07.521-.094.779-.082 1.072.05 1.563.689 1.176 1.668-.617 1.555-1.33 3.072-1.997 4.605-.103.229-.187.463-.36.895 1.123-.031 1.913-.564 2.77-.85 1.72-.572 2.953-1.509 3.438-3.441.362-1.438 1.188-2.76 1.846-4.221 2.438 1.125 4.713-.199 7.029-.012 1.037.084 2.094-.064 3.141-.12.531-.028.947.074 1.011.938-.946.328-1.952.68-3.07 1.068-.014 1.709.546 3.356.81 5.045.023.153.09.303.134.451.17.563.364 1.154-.317 1.516-.533.281-1.265-.144-1.507-.998-.327-1.156-.528-2.35-.776-3.529-.16-.766-.311-1.533-.47-2.326-1.409-.621-2.651.57-4.173.189.146.517.205.908.361 1.258a166.155 166.155 0 0 0 2.209 4.818c.238.5.267.996-.178 1.25-.26.146-.822.026-1.096-.176-.396-.299-.768-.736-.949-1.195-.461-1.153-1.424-.873-2.271-.896-.797-.022-1.012.601-1.217 1.222-.699 2.104-.83 2.135-2.51.686m4.361-4.682l-.439.067c.058.325.104.653.182.976.004.018.26-.027.396-.043-.045-.334-.093-.666-.139-1m25.866-.445c.067.898.146 1.82.2 2.744.043.673.103 1.352.056 2.019-.017.255-.263.628-.481.696-.237.072-.672-.062-.828-.26-.278-.354-.528-.801-.588-1.238-.146-1.09-.179-2.195-.263-3.293-.092-1.195-.192-2.391-.286-3.584-.014-.206-.037-.418 0-.617.164-.886.663-1.51 1.201-1.436.811.109 1.021.729 1.178 1.438.094.426.282.903.584 1.198.771.752 1.625 1.414 2.447 2.112.098-.061.194-.121.288-.182-.104-1.175-.226-2.348-.301-3.525-.037-.602-.241-1.327.567-1.61.444-.153 1.092.562 1.252 1.403.457 2.421.902 4.843 1.289 7.273.055.326-.258.713-.401 1.07-.353-.165-.944-.254-1.022-.506-.656-2.064-2.705-2.486-4.139-3.617-.113-.09-.287-.105-.436-.145-.044-.006-.099.02-.317.06m-76.674 5.025c.157.902.335 1.805.457 2.713.036.272.001.691-.17.817-.191.146-.686.156-.846.007-.402-.369-.839-.822-.985-1.324-.23-.791-.246-1.648-.331-2.479-.089-.864.124-1.746-.484-2.571-.209-.285.059-.979.206-1.455.165-.537.44-1.043.625-1.468.765-.403 1.472-.808 2.206-1.155.652-.309 1.315-.705 2.007-.791 1.291-.16 2.423 1.152 2.15 2.461-.271 1.301-.778 2.511-2.057 3.195-.319.17-.62.373-1.141.691.943.855 1.802 1.637 2.667 2.412.188.17.479.275.581.479.101.203.11.547-.002.731-.111.179-.493.384-.638.317-.603-.271-1.214-.576-1.722-.99-.711-.582-1.215-1.42-2.099-1.779-.142.063-.283.125-.424.189m.38-2.709c1.844-.408 2.812-1.705 2.605-3.49-1.994.296-3.015 1.664-2.605 3.49m21.532-2.751l.882-1.062c.439.324 1.129.567 1.249.978.256.873.937 1.224 1.525 1.713.873.729 1.764 1.438 2.845 2.315.273-2.17-.462-4.112-.183-6.046 1.099-.382 1.735-.13 1.795.852.145 2.344.194 4.691.267 7.039.01.311-.015.641-.11.933-.202.614-.671.821-1.219.479-.384-.239-.71-.602-.99-.965-.92-1.19-1.892-2.317-3.566-3.262.198 1.479.342 2.606.503 3.731.052.363.212.719.212 1.078-.001.274-.122.734-.288.784-.293.089-.752.031-.975-.159a2.021 2.021 0 0 1-.612-1.058c-.226-1.075-.338-2.172-.532-3.253-.227-1.263-.493-2.519-.803-4.097"/><path fill="#FFB547" d="M92.813 123.385c1.103-.523 2.119-1.054 3.174-1.488.99-.406 1.874.343 1.581 1.377-.505 1.777-1.292 3.437-2.571 4.804-.89.95-2.287.993-3.415.091-3.227-2.581-2.655-6.953-.122-9.236.608-.55 1.241-.564 1.855-.136.295.207.604.593.64.927.051.477-.441.34-.764.457-1.14.409-1.542 1.536-1.891 2.538-.595 1.708.134 3.378 1.78 4.484 1.132-.488 1.553-1.575 2.226-2.688-1.001-.094-2.21.481-2.493-1.13m-19.557 2.177c.172-1.742 1.248-3.416 2.396-5.049.159-.227.504-.382.79-.445 1.738-.387 3.832.91 4.284 2.66.294 1.141.406 2.315-.252 3.358-.69 1.097-1.439 2.172-2.277 3.16-.762.896-1.838 1.278-2.985.875-1.274-.449-1.792-1.544-1.939-2.817-.055-.464-.013-.941-.017-1.742m2.391 3.106c2.142-.627 3.715-3.035 3.603-5.365-.038-.783-.254-1.443-1.038-1.766-.126-.053-.292-.008-.535-.01l-.074 1.015c-.597.226-1.186.272-1.474.591-1.163 1.285-1.365 3.853-.482 5.535m26.882-3.836c-.811.381-1.501.631-2.105 1.018-.31.199-.532.613-.674.978-.171.434-.253.912-.299 1.379-.055.558-.291.94-.865.883-.573-.06-.972-.418-.95-1.052.016-.471.039-.953.166-1.403.553-1.967 1.114-3.934 1.743-5.879.202-.62.625-1.169.938-1.735.826.104 1.439.28 1.827.953 1.472 2.561 2.395 5.342 3.314 8.125.077.233.049.504.071.75-1.137.188-1.408.104-1.877-.869-.453-.941-.797-1.931-1.289-3.148m-.349-1.344l-1.038-1.832c-.276.799-.551 1.598-.825 2.398l1.863-.566m71.466-1.372c-.676-.536-1.317-1.058-1.974-1.562-.662-.511-1.409-.938-1.983-1.531a4.43 4.43 0 0 1-1.021-1.738c-.551-1.83.495-3.217 2.385-3.1 1.245.078 2.479.397 3.709.662.281.06.592.272.756.51.156.221.282.68.164.828-.188.237-.625.465-.896.41-.442-.089-.825-.435-1.254-.625-.467-.205-.986-.552-1.436-.486-.561.08-1.223.393-1.568.824-.428.532-.146 1.248.326 1.709.562.541 1.222.979 1.836 1.465.817.649 1.707 1.233 2.438 1.973 1.08 1.092.81 2.24-.569 2.865-1.343.607-4.356.063-5.354-1.004-.238-.256-.474-.631-.479-.955-.012-.424.077-1.062.354-1.23.534-.324.719.23.973.667.666 1.149 2.31 1.319 3.593.318m-59.801-15.6l-.524-2.476c.949-.741 1.697-.218 2.518.396l-.112 1.549 2.95-.471c1.03-.16 1.501.174 1.881 1.424-.956.213-1.913.396-2.854.642-1.399.366-1.663.849-1.316 2.267.11.451.229.899.309 1.356.024.134-.078.29-.119.423-1.407.271-1.753.092-2.062-1.127-.163-.645-.266-1.301-.433-2.135-.737.263-1.306.482-1.888.662-.338.104-.726.257-1.041.182-.309-.074-.698-.365-.782-.645-.075-.246.139-.701.368-.894.341-.285.793-.455 1.222-.608.537-.194 1.095-.322 1.883-.545m38.676 11.75c.655-.35 1.153-.574 1.61-.867 1.214-.774 2.875.006 2.859 1.457-.019 1.91-.478 3.736-1.539 5.371-.464.711-.999 1.183-1.945.979-.998-.214-1.61-.819-1.763-1.773-.123-.765-.153-1.58-.02-2.339.183-1.028.561-2.016.798-2.828m1.183 4.824c1.36-1.098 1.754-2.518 2.022-3.982.028-.168-.248-.541-.41-.559-.26-.027-.717.087-.795.27-.553 1.298-1.303 2.577-.817 4.271m-34.108 5.373c-.947.021-1.426-.361-1.546-1.055-.428-2.465-.811-4.938-1.201-7.408-.015-.086.08-.186.123-.277 1.247-.246 1.839-.018 1.992.986.344 2.268.599 4.551.857 6.832.032.277-.136.579-.225.922m27.323-10.799c1.658-.031 1.938.169 2.067 1.359.152 1.406.24 2.819.402 4.226.064.56.168 1.147.416 1.642.242.484.186.877-.197 1.084-.31.168-.803.196-1.129.066-.285-.113-.604-.509-.645-.814-.335-2.475-.606-4.957-.914-7.563"/><path fill="none" d="M297.741 283.189L-57.707 257.46-37.369-23.5 318.08 2.23l-20.339 280.959z"/></svg>