<svg xmlns="http://www.w3.org/2000/svg" viewBox="0 0 220 200"><path class="bubble" fill="#FFB547" d="M203.63 96.037c-.209-.725-.422-1.447-.639-2.169-.256-.854-.527-1.703-.918-2.501a7.96 7.96 0 0 1-.243-.563c-1.158-3.027-2.722-5.782-4.451-8.419-1.027-1.567-2.078-3.111-3.051-4.727-.941-1.563-2.068-2.941-3.215-4.288a64.877 64.877 0 0 0-3.17-3.44 51.628 51.628 0 0 0-4.251-3.851c-.196-.159-.4-.307-.587-.479-1.464-1.355-3.078-2.366-4.656-3.461-.305-.21-.631-.367-.946-.548-.318-.181-.641-.348-.952-.542-1.773-1.112-3.618-1.948-5.481-2.706-2.36-.964-4.758-1.645-7.162-2.222a49.034 49.034 0 0 0-5.045-.908 70.144 70.144 0 0 0-7.224-.558c-1.507-.042-3.016-.095-4.52-.093-2.45.003-4.893.084-7.321.278-.604.051-1.215.08-1.82.135a365.2 365.2 0 0 0-3.63.344c-.274.026-.55.062-.817.123-.7.152-1.405.265-2.129.293a3.6 3.6 0 0 0-.654.091 18.08 18.08 0 0 1-2.448.374c-.494.042-.975.18-1.454.3-.855.207-1.707.417-2.596.475-.439.029-.869.143-1.296.247-.747.183-1.49.382-2.233.583-.849.232-1.704.421-2.587.513-.601.063-1.188.224-1.77.385-2.545.694-5.086 1.405-7.627 2.11-.477.132-.951.271-1.431.392-.32.08-.641.171-.97.191-1.003.065-1.951.344-2.902.612-.846.238-1.694.477-2.541.708-.211.059-.428.097-.644.139-.461.09-.82-.246-.816-.782.007-.805.005-1.612.056-2.404.091-1.395.264-2.763.551-4.093.737-3.406.632-3.123 1.887-6.173.141-.346.291-.686.431-1.033a21.522 21.522 0 0 1 1.736-3.429c1.115-1.777 2.252-3.529 3.603-5.054.347-.391.673-.806.998-1.222a21.385 21.385 0 0 1 1.973-2.198c.451-.438.894-.89 1.326-1.356.826-.888 1.64-1.789 2.525-2.597.335-.307.638-.664.96-.993.602-.618 1.213-1.224 1.808-1.85a83.206 83.206 0 0 0 1.879-2.042c.19-.214.355-.469.498-.736.177-.329.278-.725.165-1.136-.365-1.336-.458-2.685-.578-4.037a7.088 7.088 0 0 0-.106-.808 4.83 4.83 0 0 0-.229-.787c-.192-.484-.521-.765-.943-.858a3.18 3.18 0 0 0-1.329.012 45.73 45.73 0 0 0-1.765.42c-.693.174-1.389.34-2.112.374-.556.027-1.088.167-1.62.311-1.697.457-3.394.918-5.16 1.398-1.614.488-3.298.996-4.98 1.507-.632.192-1.251.417-1.833.747a7.12 7.12 0 0 1-.899.42c-1.331.537-2.596 1.223-3.829 1.979a56.277 56.277 0 0 0-2.517 1.659c-1.155.795-2.188 1.786-3.203 2.804-.323.325-.625.681-.942 1.014-1.555 1.65-2.826 3.591-3.869 5.759-.08.167-.154.339-.248.492-.76 1.235-1.327 2.619-1.839 4.034-.575 1.592-1.152 3.186-1.614 4.848-.223.798-.427 1.606-.647 2.409-.542 1.979-.855 4.047-1.105 6.14a25.646 25.646 0 0 0-.154 3.593c.011.604.017 1.209.016 1.813-.002.41-.292.692-.668.645-.673-.081-1.345-.176-2.019-.256-.896-.109-1.795-.2-2.692-.315-2.927-.374-5.813-.293-8.691-.113-.33.02-.654.092-.981.141-.327.051-.649.133-.98.146-.896.028-1.746.247-2.592.484-.688.194-1.374.394-2.06.592a11.84 11.84 0 0 0-2.298.915c-.781.416-1.598.744-2.373 1.18a29.874 29.874 0 0 0-7.534 5.975c-.624.683-1.25 1.367-1.856 2.071-.493.572-.958 1.178-1.436 1.771-.293.364-.589.726-.878 1.095-.217.276-.438.552-.635.847-.593.894-1.163 1.811-1.767 2.693-1.174 1.719-2.227 3.553-3.314 5.354a148.864 148.864 0 0 0-2.708 4.712c-.206.372-.388.762-.583 1.143-.306.596-.614 1.192-.916 1.792-.219.438-.445.871-.641 1.324a128.973 128.973 0 0 0-1.294 3.095c-.231.577-.422 1.18-.624 1.779-.121.358-.215.732-.343 1.085-.494 1.362-.868 2.786-1.188 4.235-.389 1.766-.749 3.545-1.121 5.318-.053.254-.11.505-.144.766-.276 2.082-.663 4.127-.833 6.244-.063.791-.16 1.576-.233 2.367a62.793 62.793 0 0 0 .138 12.871c.175 1.552.386 3.107.772 4.642.117.463.205.937.272 1.407.116.814.311 1.611.535 2.402.3 1.055.6 2.109.907 3.163.328 1.116.651 2.237 1.158 3.287.089.182.164.378.226.572.634 1.962 1.504 3.812 2.355 5.669.454.99.946 1.957 1.476 2.901.264.472.533.938.787 1.418.865 1.618 1.876 3.11 2.932 4.561.585.804 1.208 1.574 1.811 2.36 1.498 1.955 3.206 3.605 4.974 5.163.428.378.889.696 1.345 1.022.658.471 1.291.984 1.914 1.533 2.005 1.768 4.073 3.41 6.249 4.816.31.201.627.381.944.562.315.182.638.346.952.535 2.575 1.539 5.207 2.835 7.914 3.844 2.318.864 4.654 1.506 7.008 2.036 2.637.593 5.272.896 7.903 1.077 2.967.207 5.927.263 8.85-.012.935-.087 1.885-.094 2.813-.211 1.204-.151 2.418-.234 3.619-.415 1.361-.206 2.733-.353 4.065-.694a.763.763 0 0 1 .164-.023c1.231-.033 2.392-.383 3.562-.684.64-.164 1.279-.32 1.947-.354.556-.027 1.091-.161 1.621-.305 1.379-.372 2.76-.742 4.138-1.115.637-.174 1.276-.332 1.942-.377.555-.035 1.09-.167 1.617-.318 3.697-1.066 7.394-2.127 11.087-3.201.474-.139.942-.31 1.384-.531.695-.348 1.421-.597 2.158-.819 1.104-.337 2.205-.68 3.308-1.019.685-.209 1.36-.436 1.993-.792.533-.3 1.117-.466 1.692-.649.994-.318 1.983-.645 2.915-1.146.485-.262 1.023-.402 1.543-.58.626-.213 1.249-.426 1.826-.768.096-.057.192-.115.295-.15 1.352-.469 2.636-1.119 3.952-1.676.508-.213 1.027-.396 1.507-.684.141-.084.287-.17.442-.225 1.143-.404 2.2-1.023 3.302-1.529 1.353-.621 2.68-1.311 4.002-2.002a171.072 171.072 0 0 0 4.825-2.598c2.176-1.225 4.331-2.491 6.488-3.752.527-.308 1.031-.665 1.55-.99.66-.414 1.328-.814 1.986-1.231a73.551 73.551 0 0 0 1.682-1.101c.972-.66 1.938-1.327 2.907-1.992a114.32 114.32 0 0 0 5.041-3.653c1.562-1.202 3.154-2.352 4.678-3.618.697-.578 1.386-1.168 2.077-1.754.174-.146.344-.299.52-.439 2.028-1.623 3.938-3.432 5.858-5.219a60.093 60.093 0 0 0 5.014-5.247c.638-.755 1.236-1.562 1.847-2.351.357-.464.708-.94 1.057-1.417.873-1.194 1.641-2.487 2.342-3.843.141-.271.261-.559.411-.82.97-1.686 1.692-3.534 2.284-5.49a39.2 39.2 0 0 0 1.239-5.463c.209-1.361.284-2.76.321-4.16a36.464 36.464 0 0 0-.438-6.672l-.036-.201c-.461-2.818-.459-2.818-1.261-5.599zm-88.523-72.87c-.024-.355.083-.633.33-.804.089-.062.195-.096.333-.16.118-.019.276-.055.439-.067.468-.039.888.379.966.956a2.93 2.93 0 0 1-.02.981.856.856 0 0 1-.376.574.99.99 0 0 1-.786.139c-.241-.055-.425-.229-.557-.463a2.755 2.755 0 0 1-.329-1.156zM29.111 139.748c.076-.113.312-.059.448.09.176.195.314.431.353.695.146.992.328 1.975.573 2.952a.36.36 0 0 1-.015.187c-.005.014-.102.004-.113-.02-.433-.897-.844-1.806-1.182-2.975-.014-.059-.077-.318-.132-.579a.445.445 0 0 1 .068-.35zm-.972-6.612c.514.22.901.606 1.155 1.354.026.137.104.403.117.664.039.664.049 1.326.067 1.988.001.062-.03.123-.038.188-.02.154-.249.269-.39.205-.288-.127-.501-.374-.63-.689-.406-1.006-.682-2.045-.734-3.124-.006-.128.035-.253.056-.377.031-.172.238-.277.397-.209zm.974-4.568c.081.098.126.236.188.357.029.131.084.27.083.396-.011.666-.035 1.331-.059 1.996-.002.062-.039.119-.051.181-.027.142-.275.288-.398.251-.398-.125-.738-.406-1.077-.689a1.83 1.83 0 0 1-.66-1.199c-.107-.809-.197-1.617-.19-2.421.001-.066.02-.131.023-.196.013-.262.306-.425.492-.273.588.472 1.146.993 1.649 1.597zm-1.486-7.797c.691.36 1.325.852 1.925 1.415.044.042.09.095.121.151.064.116.117.238.175.357.019.133.06.27.052.396a25.396 25.396 0 0 1-.326 3.104c-.042.234-.352.336-.54.187-.633-.509-1.197-1.12-1.748-1.753a1.617 1.617 0 0 1-.387-.908 8.602 8.602 0 0 1 .105-2.551c.062-.321.378-.525.623-.398zm.451-5.847c.724.83 1.447 1.662 2.162 2.504.124.145.208.337.298.486.027.163.073.299.068.426-.027.664-.106 1.31-.337 1.895-.059.146-.265.282-.408.229-.161-.06-.333-.11-.479-.216-.654-.47-1.251-1.045-1.838-1.634-.241-.241-.345-.569-.339-.917.012-.867.115-1.709.245-2.543.057-.357.403-.49.628-.23zm1.004-5.957c.75.698 1.456 1.463 2.145 2.248.086.099.163.21.236.32.274.412.421.874.333 1.348-.167.893-.358 1.777-.643 2.613-.035.105-.15.16-.229.238-.112.027-.232.013-.324-.087a169.97 169.97 0 0 1-1.699-1.886c-.174-.195-.331-.408-.496-.614a2.02 2.02 0 0 1-.46-1.508c.077-.86.226-1.69.442-2.495.079-.294.462-.395.695-.177zm3.36-1.381c.334.634.4 1.297.194 1.938-.052.164-.191.28-.258.373a.455.455 0 0 1-.528-.126c-.801-.837-1.594-1.683-2.388-2.53a2.15 2.15 0 0 1-.231-.319 1.446 1.446 0 0 1-.233-.765 4.36 4.36 0 0 1 .35-1.688c.083-.191.404-.263.584-.121.049.04.106.063.152.105.957.861 1.725 1.928 2.358 3.133zm1.869-5.582c.081.1.14.227.203.346.032.059.048.127.071.191.005.133.042.283.01.396-.259.917-.527 1.827-.803 2.733a.783.783 0 0 1-.197.29.244.244 0 0 1-.304.055c-.104-.054-.223-.117-.293-.219-.604-.881-1.301-1.649-1.984-2.438-.214-.246-.435-.483-.636-.742a1.28 1.28 0 0 1-.23-1.143c.238-.854.477-1.713.789-2.527.104-.272.504-.32.722-.087.043.047.095.084.137.134.838 1.003 1.678 2.004 2.515 3.011zm1.691-5.194c.131.133.225.322.341.493.016.206.06.414.04.603-.056.462-.243.855-.402 1.26-.115.288-.234.576-.359.858-.05.109-.127.2-.19.302-.109.178-.453.208-.608.041a46.37 46.37 0 0 1-2.543-2.98.8.8 0 0 1-.103-.173c-.112-.253-.195-.524-.147-.787.14-.778.425-1.462.855-2.032.061-.081.195-.104.301-.099a.526.526 0 0 1 .321.122c.334.289.66.594.983.905.508.49 1.014.981 1.511 1.487zm-.789-5.832c.74.816 1.417 1.705 2.061 2.631.11.158.193.354.26.543.17.492.11.932-.148 1.294-.061.087-.181.113-.306.184-.131-.059-.315-.086-.443-.207-.787-.744-1.561-1.507-2.336-2.266-.046-.044-.083-.104-.122-.155a.948.948 0 0 1-.181-.76c.099-.511.287-.963.597-1.323.087-.103.357-.132.467-.044.049.038.108.057.151.103zm2.188-4.152a20.233 20.233 0 0 1 2.134 2.193c.118.139.178.352.249.5 0 .172.024.317-.007.432a8.999 8.999 0 0 1-.943 2.183c-.029.05-.076.083-.111.128-.121.159-.44.179-.616.038-.049-.04-.107-.06-.15-.106a21.034 21.034 0 0 1-2.04-2.618c-.165-.248-.212-.714-.082-.95.316-.577.638-1.15.964-1.72.109-.188.438-.223.602-.08zm4.242-.547c-.012.13-.004.271-.04.388-.13.435-.352.782-.668 1.033-.143.112-.311.103-.478.023a1.182 1.182 0 0 1-.307-.198c-.649-.615-1.288-1.248-1.875-1.955-.201-.242-.26-.656-.115-.934.168-.322.35-.635.528-.949.029-.052.074-.09.11-.136.208-.28.642-.282.909-.003.675.701 1.261 1.498 1.799 2.348.07.108.093.255.137.383zm2.76-4.763c.087.292.065.558-.048.775a11.642 11.642 0 0 1-1.465 2.203c-.181.213-.525.152-.743-.139a61.96 61.96 0 0 1-.815-1.111 38.944 38.944 0 0 1-.791-1.135c-.207-.311-.248-.852-.102-1.142.383-.76.848-1.436 1.371-2.054.128-.151.466-.17.617-.035.047.041.103.069.146.117a18.557 18.557 0 0 1 1.678 2.168c.07.104.106.245.152.353zm3.827-4.961c.084.259.04.717-.106.93-.135.193-.267.392-.416.568-.53.616-1.068 1.221-1.55 1.894-.067.094-.16.161-.239.245-.143.153-.463.153-.624-.009a10.727 10.727 0 0 1-1.868-2.547c-.136-.253-.129-.523-.055-.775.035-.12.086-.238.148-.338.685-1.054 1.487-1.961 2.358-2.788.041-.038.095-.057.141-.09.137-.097.513-.042.644.096.088.094.186.178.26.285.494.716.882 1.506 1.243 2.313.028.063.04.131.064.216zm4.822-4.236a.975.975 0 0 1-.049.574c-.023.056-.063.102-.097.148-.284.378-.663.612-1.005.903-.554.477-1.108.954-1.668 1.421-.232.195-.722.099-.935-.173-.653-.833-1.155-1.78-1.553-2.793a.822.822 0 0 1 .077-.748c.065-.097.124-.208.205-.283.58-.541 1.163-1.075 1.751-1.601.21-.189.433-.357.655-.527.133-.101.277-.182.416-.272.235-.153.589-.034.751.24.512.866.915 1.795 1.321 2.726.045.128.104.256.131.385zm4.045-3.151c.137.522-.025 1.114-.4 1.351-.51.327-1.026.646-1.557.933-.432.233-.802.058-1.043-.363a16.212 16.212 0 0 1-1.133-2.364c-.047-.126-.099-.255-.124-.387-.054-.275-.036-.537.127-.726.112-.131.226-.272.364-.354.569-.332 1.148-.643 1.726-.958.048-.027.105-.026.157-.045.234-.083.613.085.766.327.43.679.748 1.421.924 1.914.118.409.158.541.193.672zm4.587-1.974c.018.064.025.131.041.196.089.381-.075.862-.338.994a6.435 6.435 0 0 1-2.011.643c-.346.047-.661-.119-.901-.473a6.26 6.26 0 0 1-.946-2.212 1.995 1.995 0 0 1-.048-.398c-.008-.356.116-.631.343-.814.309-.25.684-.336 1.056-.453.357-.092.714-.234 1.109-.203.231.02.451.125.6.355.466.728.856 1.503 1.095 2.365zm4.952-1.029c.119.396-.046.797-.381.917-.717.252-1.448.463-2.211.538-.287.029-.563-.125-.752-.416a8.262 8.262 0 0 1-.881-1.803c-.043-.125-.065-.26-.098-.393-.091-.377.079-.838.361-.97.149-.067.295-.146.451-.189.629-.177 1.271-.284 1.947-.184.423.065.758.288.957.779.151.376.29.756.45 1.172.044.158.099.354.157.549zm4.941-.235c.097.309-.076.718-.33.742-.543.054-1.083.118-1.63.131-.269.006-.553-.065-.824-.15-.283-.088-.523-.307-.67-.625-.195-.425-.363-.868-.453-1.084-.117-.353-.159-.48-.199-.611-.021-.064-.03-.129-.049-.193-.087-.296.13-.658.406-.684a7.852 7.852 0 0 1 1.811.042c.46.063.873.305 1.155.813.226.406.444.819.656 1.236.06.116.086.254.127.383zm4.472.044c.11.384-.137.828-.471.811-.441-.023-.883-.07-1.324-.109-.055-.006-.109-.029-.164-.049-.337-.116-.646-.308-.858-.669-.268-.458-.551-.905-.715-1.43-.091-.293.082-.722.364-.756.015-.004.065-.033.119-.032.55.009 1.102.032 1.654.215.22.071.424.202.586.422.272.374.506.773.688 1.212.051.121.084.256.121.385zm5.259 1.123h.004l-.001.005-.003-.005c-.819.12-1.651.015-2.486-.152-.479-.093-.853-.417-1.117-.921-.216-.415-.478-.803-.585-1.283-.035-.16.106-.423.241-.425.557-.015 1.112.13 1.666.273.34.086.644.303.911.592.524.57 1.018 1.174 1.37 1.916zm.72-5.338c.028.199.042.401.067.602l.354 3.001c.019.168-.043.262-.177.256a.271.271 0 0 1-.156-.075 5.458 5.458 0 0 1-.847-1.067c-.103-.168-.179-.356-.229-.455-.044-.153-.068-.218-.081-.285-.244-1.262-.413-2.529-.437-3.796-.002-.127.03-.257.07-.372.044-.13.157-.167.271-.078.354.279.547.726.782 1.124.208.352.324.741.383 1.145zm.148-7.904c.032.087.062.359.039.623-.075.852-.16 1.702-.249 2.552-.013.127-.074.238-.109.36-.047.154-.292.248-.425.139-.145-.118-.3-.238-.402-.396-.224-.347-.357-.75-.31-1.156.115-.977.261-1.941.396-2.911.008-.062.047-.112.063-.173.044-.167.298-.199.425-.068.229.241.392.528.572 1.03zm1.399-6.478c.122.402.135.671.068.917-.218.79-.444 1.575-.679 2.357-.054.175-.155.323-.241.482-.102.189-.423.155-.587-.05a1.25 1.25 0 0 1-.281-.737 2.316 2.316 0 0 1 .034-.586c.211-.932.453-1.85.753-2.735.038-.114.122-.201.182-.301.078-.128.343-.091.436.07.13.231.253.467.315.583zm1.681-4.458c.148.442.193.838.096 1.221-.11.433-.274.827-.498 1.182a.368.368 0 0 1-.585.034 1.831 1.831 0 0 1-.476-1.471 3.121 3.121 0 0 1 .604-1.525c.121-.161.482-.124.598.075.098.171.187.35.261.484zm1.917-2.57c.174.573-.23 1.311-.697 1.281a.525.525 0 0 1-.315-.144c-.274-.281-.468-.642-.607-1.032a.914.914 0 0 1-.035-.396c.04-.337.179-.607.411-.785a.39.39 0 0 1 .472-.017c.377.248.623.639.771 1.093zm2.428-3.435c.062.296.071.559-.036.791-.231.5-.519.936-.921 1.249-.157.121-.445.104-.624-.056-.386-.346-.655-.793-.84-1.309a.894.894 0 0 1-.021-.583 3.763 3.763 0 0 1 1.071-1.578c.125-.111.507-.036.623.12.313.423.59.866.748 1.366zm2.653-2.905c.085.385.079.71-.07.99-.23.427-.524.773-.926.978-.167.083-.486-.017-.615-.201a6.483 6.483 0 0 1-.75-1.408c-.124-.331-.109-.656.044-.94.203-.375.486-.647.804-.874.216-.154.569-.1.776.113.369.379.605.851.737 1.342zm3.076-2.377c.104.374.073.633-.058.842-.259.411-.619.672-1.007.89-.299.165-.639.027-.892-.359a4.122 4.122 0 0 1-.5-1.103c-.144-.501-.067-.93.218-1.268.186-.223.413-.386.664-.501.234-.107.576-.016.78.241.204.255.404.514.584.795.106.162.167.363.211.463zm4.037-2.456c.116.285.047.745-.139.89-.484.375-.993.697-1.392.885-.256.074-.358.12-.465.131a.836.836 0 0 1-.641-.191c-.444-.377-.749-.879-.958-1.464-.046-.127.005-.479.08-.556.12-.121.234-.25.364-.354.53-.411 1.118-.692 1.734-.909.23-.082.592.074.757.336.248.391.482.791.66 1.232zm3.284-2.265c.036.176.069.308.088.44.064.428-.025.781-.292 1.033a2.625 2.625 0 0 1-.822.541c-.291.117-.681-.01-.926-.31a4.11 4.11 0 0 1-.687-1.202c-.082-.218-.021-.57.127-.708.415-.389.873-.68 1.415-.792.312-.065.708.141.877.484.088.178.158.37.22.514zm4.019-1.841c.121.394.146.792.138 1.188-.007.428-.176.731-.48.908-.381.221-.799.332-1.231.397-.386.059-.775-.211-.946-.702a6.064 6.064 0 0 1-.212-.777c-.084-.407.074-.845.349-.981.243-.121.492-.225.702-.322.304-.07.567-.138.833-.189.104-.021.217-.003.327-.001.186 0 .453.258.52.479zm3.126-1.025c.178.526.222 1.055.152 1.578a.804.804 0 0 1-.13.344c-.258.358-.609.476-1.022.368a.675.675 0 0 1-.414-.359 2.184 2.184 0 0 1-.183-1.548.809.809 0 0 1 .273-.45c.129-.102.277-.174.424-.264.161-.005.323-.021.487-.014.15.007.365.202.413.345zm4.001.21c.066.414-.101.813-.389.953-.194.094-.394.178-.588.266-.273.042-.54.083-.808.118-.257.034-.547-.251-.618-.597-.081-.396-.135-.79-.104-1.187.027-.376.283-.736.574-.807a2.113 2.113 0 0 1 1.142.024c.291.09.514.313.639.648.07.188.12.386.152.582zm-10.625 43.19a.724.724 0 0 1-.369.582 1.262 1.262 0 0 1-.302.131c-.695.189-1.418.177-2.147.064-.233-.036-.416-.247-.517-.521a2.308 2.308 0 0 1-.046-1.563.68.68 0 0 1 .325-.399c.197-.1.401-.18.601-.268.275-.044.543-.107.819-.117.218-.008.449.02.666.088a.972.972 0 0 1 .45.307 2.36 2.36 0 0 1 .52 1.696zm4.979-.908c.042.376-.141.808-.419.943a3.645 3.645 0 0 1-1.899.368 1.703 1.703 0 0 1-.331-.071c-.287-.087-.525-.283-.685-.598a4.574 4.574 0 0 1-.461-1.539c-.043-.36.15-.796.439-.928.297-.135.601-.249.9-.375.004.017.01.03.013.043.208-.06.416-.124.625-.177.105-.027.216-.027.323-.042.445-.061.889.271 1.092.813.191.506.345 1.023.403 1.563zm4.4-1.725c.097.45.187.845.262 1.242.069.364-.179.819-.468.884a6.169 6.169 0 0 1-1.953.13c-.294-.027-.526-.273-.669-.599a8.222 8.222 0 0 1-.603-2.137c-.054-.368.137-.807.41-.952a4.19 4.19 0 0 1 1.715-.474c.3-.018.697.267.837.625.17.441.326.886.469 1.281zm5.095-2.336c.091.329.183.664.227.996.07.538.115 1.08.142 1.616.014.27-.065.525-.254.674a1.52 1.52 0 0 1-.425.252c-.73.267-1.503.299-2.29.23-.055-.003-.11-.033-.164-.046-.178-.042-.325-.166-.439-.328a2.324 2.324 0 0 1-.287-.529 13.714 13.714 0 0 1-.566-1.968c-.028-.131-.031-.268-.046-.402-.028-.26.175-.715.371-.798.354-.15.712-.289 1.075-.435.48-.085.962-.191 1.452-.25.5-.066 1.036.385 1.204.988zm5.328-1.483c.173.937.346 1.872.508 2.806.066.386-.132.826-.415.951-.809.361-1.654.568-2.557.511-.112-.006-.224-.033-.336-.052-.3-.05-.65-.425-.749-.8-.035-.132-.085-.263-.102-.396-.097-.738-.201-1.479-.271-2.216a.869.869 0 0 1 .35-.81c.134-.097.286-.167.44-.219.312-.105.63-.186.945-.276l.005.022c.264-.076.521-.167.79-.222.212-.046.433-.053.652-.067.241-.018.586.284.671.578.02.064.057.124.069.19zm5.777 1.722c.001.066.001.135-.008.199-.045.34-.183.602-.438.743a2.15 2.15 0 0 1-.453.189c-.688.203-1.399.244-2.128.184-.311-.026-.658-.345-.801-.722a7.957 7.957 0 0 1-.488-1.974 3.564 3.564 0 0 1 .01-.794c.042-.336.2-.611.454-.735.343-.17.709-.284 1.021-.403.479-.087.908-.173 1.34-.241.313-.049.708.236.852.592.385.957.622 1.941.639 2.962zm4.993-1.611c.034.129.055.267.084.399.11.495-.076.976-.424 1.126-.822.356-1.693.428-2.599.292-.231-.034-.421-.221-.562-.464-.033-.057-.067-.115-.094-.178a10.394 10.394 0 0 1-.593-2.167 1.905 1.905 0 0 1-.016-.399c.02-.426.166-.766.482-.927.703-.354 1.46-.451 2.26-.317.359.06.653.282.824.692.156.375.281.766.358.976.13.44.209.702.28.967zm4.395-2.288c.104.666.192 1.333.275 1.998.058.468-.186.873-.574 1.01-.359.128-.728.229-1.113.229a2.643 2.643 0 0 1-.662-.085 1.034 1.034 0 0 1-.68-.599c-.194-.427-.35-.876-.49-1.235-.119-.48-.219-.873-.311-1.267-.072-.306.107-.711.332-.781a7.304 7.304 0 0 1 1.925-.334c.107-.002.221.024.331.039.486.063.878.463.967 1.025zm5.28.125c.139.528.258.919.281 1.332.014.294-.181.676-.418.741-.053.014-.101.049-.153.056-.766.095-1.529.19-2.296.275-.38.043-.774-.303-.936-.786a6.508 6.508 0 0 1-.334-1.599 3.424 3.424 0 0 1 .015-.6c.049-.426.259-.691.594-.812.103-.037.209-.077.317-.083a65.376 65.376 0 0 1 1.826-.069c.31-.006.666.313.809.707.117.322.228.645.295.838zm4.915-1.043c.163.591.307 1.184.363 1.79.025.275-.172.684-.392.766-.151.059-.304.135-.465.148-.603.04-1.208.062-1.813.082-.293.008-.668-.322-.81-.702-.118-.316-.229-.638-.297-.823-.139-.529-.272-.918-.264-1.328.004-.139.148-.419.252-.456.051-.019.1-.05.151-.063.855-.212 1.742-.157 2.634-.062.238.025.564.363.641.648zm5.271.645c.052.225.104.424.141.624.021.132.023.269.033.401.02.302-.204.657-.447.711-.701.148-1.425.149-2.149.077-.417-.043-.747-.348-.947-.836a5.892 5.892 0 0 1-.362-1.382c-.057-.4.188-.837.496-.849.719-.031 1.438-.067 2.17.061.056.01.111.019.167.035.29.091.529.282.683.612.085.183.149.378.215.546zm4.002-.044c.124.394.154.786.123 1.182-.03.398-.3.741-.613.734a5.595 5.595 0 0 1-.823-.081c-.421-.077-.728-.383-.929-.845a4.178 4.178 0 0 1-.312-1.164c-.052-.403.196-.801.511-.813.438-.019.877-.002 1.315.16.351.129.599.403.728.827zm4.118.84c.029.102.076.232.104.365.027.132.042.267.06.4.047.325-.183.656-.446.669-.5.025-1-.004-1.5-.19a1.024 1.024 0 0 1-.553-.491 3.163 3.163 0 0 1-.369-1.361c-.014-.302.197-.652.443-.707.107-.023.215-.064.322-.055.278.025.559.059.836.114.422.087.737.377.945.85.053.123.098.251.158.406zm5.139 1.209c.036.183.076.379.112.579.053.271-.128.552-.337.535-.778-.056-1.553-.241-2.323-.457-.285-.079-.518-.305-.679-.62a3.966 3.966 0 0 1-.373-1.155c-.011-.064-.004-.132-.008-.2-.017-.239.201-.516.391-.502.839.069 1.662.304 2.47.681.22.103.389.314.51.56.089.179.154.373.237.579zm3.775 1.317c.057.34-.156.666-.419.659a2.094 2.094 0 0 1-.813-.19c-.402-.182-.671-.52-.855-1.102-.013-.089-.055-.286-.073-.482-.026-.273.174-.497.382-.48.394.032.762.203 1.112.447.373.256.585.657.666 1.148zm4.275 1.656c.073.263-.115.556-.333.509a6.135 6.135 0 0 1-1.478-.512c-.406-.202-.715-.723-.755-1.309a.332.332 0 0 1 .148-.309c.05-.019.099-.044.15-.053a.405.405 0 0 1 .166.007c.558.173 1.079.483 1.582.844.26.187.425.478.52.823zm2.63 1.172c.09.222-.03.467-.193.444-.249-.038-.409-.217-.468-.518-.036-.201.132-.373.297-.304.17.07.299.198.364.378zm3.153 2.01h.007l-.002.004-.005-.004c-.27-.011-.541-.019-.776-.263a.243.243 0 0 1-.051-.166c.009-.042.072-.091.108-.084.285.061.494.309.719.513zm20.986 30.115c.6 1.839.81 3.74 1.164 5.618.319 2.916.472 5.803.134 8.646a33.939 33.939 0 0 1-1.559 6.974 30.688 30.688 0 0 1-3.282 6.772 99.86 99.86 0 0 1-2.208 3.244c-.34.484-.703.947-1.087 1.381-1.231 1.388-2.478 2.76-3.72 4.133-.233.256-.479.498-.728.732-2.294 2.145-4.62 4.237-7.047 6.178-.838.67-1.676 1.338-2.475 2.07-.335.309-.701.572-1.06.844-.76.582-1.525 1.151-2.286 1.734-.625.48-1.232.99-1.87 1.449-2.546 1.84-5.099 3.668-7.714 5.378a192.097 192.097 0 0 1-7.227 4.516 155.58 155.58 0 0 1-5.362 3.021c-.73.396-1.456.802-2.188 1.191-.735.391-1.491.722-2.226 1.108-1.274.67-2.527 1.383-3.865 1.897-.103.04-.202.09-.297.146-.575.344-1.18.609-1.796.85-.306.119-.597.284-.897.426-.398.186-.79.398-1.2.554-1.388.527-2.686 1.296-4.107 1.731a1.344 1.344 0 0 0-.299.143c-.672.4-1.396.658-2.129.894-.682.22-1.347.476-1.986.812-.438.231-.911.391-1.377.553-.624.217-1.259.397-1.883.608-.416.142-.844.267-1.229.478-.833.454-1.724.729-2.617 1.001l-5.364 1.623c-.737.221-1.465.463-2.164.805-.493.243-1.018.418-1.543.575-1.581.472-3.166.926-4.753 1.37-.475.133-.958.262-1.45.307-.886.084-1.733.305-2.582.537-1.589.436-3.181.866-4.771 1.299-.638.172-1.276.336-1.945.371-.556.028-1.091.15-1.624.287-.532.139-1.064.273-1.598.41-.532.134-1.07.253-1.626.275-.613.025-1.202.162-1.788.311-.801.202-1.604.383-2.441.408-.221.006-.44.043-.655.09-.807.174-1.619.314-2.455.346-.332.012-.652.103-.98.15-.327.046-.654.096-.985.123-1.654.139-3.315.223-4.979.281-4.004.143-8.024-.074-12.075-.807a47.856 47.856 0 0 1-11.145-3.443c-1.088-.486-2.154-1.047-3.219-1.623-1.812-.976-3.604-2.006-5.313-3.275-.401-.297-.811-.577-1.211-.875a14.94 14.94 0 0 1-.889-.697c-1.39-1.207-2.792-2.396-4.119-3.713a79.463 79.463 0 0 1-1.22-1.242c-1.264-1.307-2.381-2.787-3.521-4.242-1.968-2.513-3.59-5.295-4.993-8.266a31.762 31.762 0 0 1-1.485-3.816c-.526-1.63-.983-3.276-1.434-4.929-.491-1.798-.795-3.612-1.002-5.435-.424-3.729-.471-7.426-.243-11.084.169-2.725.53-5.396 1.019-8.014.62-3.322 1.312-6.617 2.188-9.825.539-1.972 1.077-3.944 1.752-5.84.084-.235.162-.479.224-.728.207-.811.494-1.572.802-2.32 1.067-2.585 2.149-5.163 3.204-7.754.707-1.736 1.586-3.33 2.467-4.916a50.91 50.91 0 0 1 3.688-5.721c1.553-2.083 3.184-4.063 5.074-5.715a73.132 73.132 0 0 1 2.481-2.059c1.596-1.264 3.284-2.344 5.134-3.085.153-.063.308-.124.449-.211.861-.531 1.812-.809 2.759-1.089.632-.187 1.267-.366 1.902-.544.847-.237 1.699-.448 2.594-.476.332-.009.656-.088.983-.136.328-.046.651-.123.982-.137 1.332-.05 2.661-.123 3.998-.113 3.516.021 7.046.359 10.583.878.167.027.336.038.503.051.402.033.844-.371.952-.871.067-.321.082-.656.011-.996-.082-.4-.17-.804-.291-1.195-.493-1.586-.715-3.207-.873-4.829a31.317 31.317 0 0 1 .664-10.081c.187-.816.406-1.623.677-2.393.522-1.482 1.137-2.905 1.782-4.305.129-.278.281-.54.432-.801 1.026-1.783 2.145-3.465 3.443-4.967 1.106-1.276 2.253-2.486 3.535-3.512.618-.494 1.234-.987 1.859-1.467a20.365 20.365 0 0 1 3.547-2.192c1.045-.508 2.077-1.04 3.111-1.567a10.272 10.272 0 0 1 1.676-.696c1.154-.358 2.311-.711 3.435-1.058 1.251-.338 2.475-.661 3.691-.999a7.904 7.904 0 0 1 2.46-.291c.135.004.22.105.229.261a.325.325 0 0 1-.04.181c-.399.595-.887 1.087-1.383 1.554-1.043.98-2.019 2.044-3.003 3.1-.315.338-.643.66-.972.978-.948.916-1.841 1.9-2.671 2.968-.289.37-.581.739-.888 1.086-1.382 1.576-2.571 3.359-3.695 5.21a41.869 41.869 0 0 0-.981 1.738c-.289.532-.553 1.088-.843 1.621a11.088 11.088 0 0 0-.86 2.06c-.185.606-.391 1.202-.578 1.806-.151.485-.307.97-.422 1.469-.245 1.068-.492 2.137-.69 3.225a32.098 32.098 0 0 0-.528 5.317c-.017 1.404.038 2.823.082 4.236.047 1.555.28 3.106.57 4.654.164.874.729 1.448 1.493 1.491.391.021.78.011 1.167-.004.444-.02.885-.058 1.325-.098 1.983-.172 3.965-.34 5.93-.626 1.145-.166 2.302-.267 3.426-.54.212-.052.436-.069.657-.075.669-.023 1.313-.162 1.952-.323a11.676 11.676 0 0 1 1.954-.329c.44-.034.872-.128 1.301-.222.483-.104.962-.235 1.439-.362.691-.181 1.392-.32 2.109-.382.495-.043.98-.156 1.459-.269.644-.147 1.279-.325 1.918-.491.532-.137 1.067-.261 1.624-.287.613-.032 1.2-.171 1.785-.324.585-.152 1.17-.311 1.756-.452.429-.101.855-.227 1.296-.253.946-.055 1.85-.283 2.756-.515.798-.205 1.6-.383 2.434-.442.494-.035.979-.156 1.46-.268.804-.185 1.608-.351 2.438-.423.826-.072 1.634-.255 2.448-.388.053-.009.11-.011.165-.012.559-.007 1.099-.108 1.642-.208a8.89 8.89 0 0 1 .818-.114c1.265-.12 2.53-.245 3.797-.347 1.489-.12 2.979-.243 4.482-.246 3.121-.005 6.247.081 9.396.538.168.027.337.045.504.061 1.742.174 3.479.572 5.21 1 1.955.482 3.906 1.055 5.826 1.835 1.752.714 3.501 1.435 5.202 2.389.898.506 1.786 1.049 2.688 1.547 1.6.886 3.123 1.936 4.554 3.216.19.17.387.33.587.481 1.052.792 2.02 1.732 2.984 2.679 1.012.992 1.943 2.092 2.889 3.176 1.167 1.338 2.187 2.817 3.19 4.313.932 1.387 1.763 2.859 2.526 4.378.856 1.7 1.544 3.49 2.277 5.254.132.313.224.647.322.973.198.661.373 1.325.585 1.976z"/><path fill="none" d="M218.778 148.603L43.81 199.023 1.42 51.913l174.966-50.42z"/><text transform="translate(137.783 177.158)" fill="#FFF" font-family="'Yrsa-Light'" font-size="13.712"></text><path fill="#FFF" d="M67.375 89.226c-.533.776-1.276 1.427-1.479 2.324-.279.222-.513.426-.767.605-.394.278-.801.538-1.208.811-.406-.885-.699-1.491-.127-2.229a60.362 60.362 0 0 0 1.577-2.096c.523-.737 1.007-1.5 1.515-2.245.079-.114.191-.207.298-.296.138-.116.285-.219.51-.39.427-.011.971.038 1.455.367.173.116.231.221.266.456.136.92.48 1.78 1.031 2.54.439.609.911 1.193 1.354 1.798.11.15.169.337.256.513l-1.299 1.391-1.204-1.566-.14.029c0 .275-.021.551.004.824.1 1.202.257 2.402.308 3.606.05 1.151.019 2.307-.02 3.458-.036 1.102-.123 2.201-.196 3.303-.076 1.135-.173 2.27-.238 3.406a67.385 67.385 0 0 0-.102 2.842c-.019 1.38-.029 2.762-.005 4.143.031 1.916.095 3.831.146 5.746.041 1.523.065 3.046.126 4.567.04 1.031.153 2.06.196 3.091.052 1.283.062 2.568.091 3.854l.095 3.891c.031 1.284.068 2.566.096 3.851.017.751.03 1.503.022 2.254-.006.523-.067 1.046-.075 1.569-.013.809-.003 1.615-.003 2.537.281-.236.495-.383.668-.567 1.347-1.438 2.694-2.873 4.021-4.327 1.037-1.137 2.038-2.303 3.066-3.449 1.327-1.481 2.654-2.965 3.999-4.43.696-.76 1.453-1.465 2.144-2.23.772-.854 1.479-1.77 2.251-2.623.782-.862 1.575-1.723 2.423-2.518 1.717-1.607 3.478-3.166 5.216-4.752.371-.338.733-.689 1.074-1.057.225-.244.452-.225.761-.206.846.046 1.696.008 2.545-.009 1.189-.023 2.378-.059 3.568-.092 1.465-.04 2.929-.075 4.395-.135 3.588-.141 7.177-.318 10.768-.434 1.57-.051 3.148.025 4.721.026 2.235.003 4.471-.016 6.708-.018.778-.003 1.562-.017 2.338.042.299.021.581.23.964.392-.385.336-.721.634-1.063.925a.309.309 0 0 1-.184.062c-1.437-.034-2.87-.089-4.305-.11-1.484-.023-2.971-.012-4.458-.02-1.615-.01-3.23-.049-4.848-.031-1.711.018-3.423.082-5.135.135-1.197.039-2.395.076-3.592.146-1.696.099-3.391.253-5.089.334-.873.041-1.749-.051-2.626-.035-1.135.021-2.271.102-3.408.133-.488.012-.977-.051-1.463-.041a.785.785 0 0 0-.471.191c-.899.816-1.779 1.652-2.674 2.471-1.038.948-2.139 1.835-3.113 2.842-1.419 1.465-2.741 3.023-4.121 4.526-1.127 1.229-2.287 2.43-3.418 3.655-.676.731-1.324 1.489-1.985 2.234-1.604 1.802-3.203 3.605-4.812 5.403a416.799 416.799 0 0 1-2.95 3.249c-.279.307-.574.598-.862.896l.044.09c.526-.066 1.05-.139 1.577-.201 1.059-.123 2.115-.299 3.178-.351 2.027-.1 4.058-.173 6.085-.175 2.004-.001 4.01.146 6.015.144 2.86-.003 5.722-.072 8.581-.138 3.992-.09 7.98-.238 11.972-.291 1.848-.023 3.697.12 5.545.186 2.352.086 4.703.189 7.059.249 1.812.046 3.625.048 5.439.052 1.298.002 2.595-.05 3.891-.029 1.015.016 2.028.121 3.043.164 1.439.059 2.881.087 4.322.142 1.613.062 3.228.136 4.84.208.972.043 1.94.096 2.912.145 1.314.066 2.632.146 3.948.197 1.286.049 2.572.07 3.859.096.238.006.476-.018.729-.031l.266-1.503c.488.138.937.26 1.385.392.572.171 1.149.328 1.712.529.414.148.848.302 1.186.566.162.125.132.508.18.776.086.456-.299.49-.566.673-.642.443-1.27.914-1.839 1.441-.228.207-.47.133-.687.244-.374.189-.765.376-1.2.328-.102-.012-.27-.122-.28-.205-.07-.487-.221-.992.246-1.467-.533-.031-.993-.072-1.456-.084-1.909-.045-3.816-.066-5.726-.13-.97-.032-1.934-.145-2.903-.204-.914-.054-1.831-.089-2.746-.131-1.544-.069-3.087-.146-4.631-.207-1.366-.052-2.734-.071-4.099-.129-.776-.033-1.55-.116-2.324-.163-.2-.013-.401.026-.604.042-.284.02-.572.054-.859.053-1.025-.006-2.05-.029-3.075-.039-1.758-.012-3.513-.014-5.271-.027-1.2-.008-2.397-.015-3.596-.047-.655-.017-1.309-.088-1.962-.132-.901-.06-1.799-.137-2.7-.169-1.067-.039-2.137-.032-3.205-.055-.678-.016-1.355-.076-2.033-.064-1.377.023-2.753.091-4.129.123-.906.02-1.812-.004-2.715.02-.772.02-1.541.092-2.312.116-1.881.056-3.763.104-5.644.14-1.304.023-2.609.02-3.913.029-.848.004-1.695.027-2.542.004-.882-.023-1.763-.115-2.643-.139-.631-.018-1.264.037-1.898.042-.552.006-1.105-.027-1.658-.015-.866.017-1.731.041-2.595.096-.945.061-1.889.145-2.831.246-.567.059-1.128.177-1.695.254-.686.094-1.373.228-2.062.244-.581.014-.974.311-1.413.607-.486.326-1.027.553-1.646.49-.354-.033-.575-.229-.708-.528-.234-.532-.36-1.089-.243-1.669.081-.402.33-.703.682-.888.225-.116.273-.267.272-.487-.01-1.439-.021-2.877-.02-4.316.002-1.513.037-3.024.023-4.538-.014-1.394-.071-2.787-.112-4.181-.064-2.293-.132-4.586-.2-6.881-.04-1.381-.076-2.762-.125-4.143-.052-1.511-.129-3.021-.172-4.533-.041-1.368-.086-2.74-.063-4.109.031-2.104.095-4.206.19-6.307.069-1.546.203-3.089.314-4.633.073-1.017.198-2.034.223-3.052.022-.899-.066-1.799-.095-2.698-.027-.889-.048-1.778-.057-2.667-.008-.958-.001-1.917-.001-2.904"/><path fill="#FFB547" d="M55.017 115.413c.008.079-.008.2.035.297.34.757.799 1.398 1.706 1.653 0-.373.003-.734-.001-1.098-.004-.468.011-.938-.032-1.4a.842.842 0 0 0-.267-.503c-.779-.702-.973-1.79-.232-2.481.565-.527.481-1.092.479-1.682-.001-.382.079-.68.437-.807a.925.925 0 0 1 .977.25c.14.15.096.473.131.721.007.051.001.104.036.156l.143-1.385c.024-.237.361-.627.57-.654.199-.025.781.347.804.54.015.124-.052.258-.054.386-.004.624-.004 1.248.009 1.871.001.096.062.201.123.284.456.63.457 1.025.001 1.687a.453.453 0 0 0-.064.239c-.016.526-.038 1.056-.022 1.583.004.137.11.303.22.396.428.365.844.727 1.04 1.286.147.417.121.791-.206 1.091a6.764 6.764 0 0 1-.927.73c-.287.186-.477.518-.422.842.063.388.122.777.155 1.169.026.325-.432.804-.76.831-.413.033-.695-.21-.78-.672l-.078-.443c-.063.018-.104.035-.146.041-.77.124-.928.004-1.024-.772-.027-.214-.097-.437-.065-.643.069-.429-.198-.512-.509-.63-.696-.262-1.384-.551-1.898-1.119-.508-.563-.607-1.251-.042-1.809.076-.076.229-.104.344-.098.103.005.201.087.319.143M104.478 153.951c-.505-.123-.682-.482-.673-.934.017-1.004.076-2.008.086-3.01.002-.341.174-.572.327-.842.174-.309.42-.295.675-.236.565.132.972.513 1.363.914.147.15.312.285.523.475.188-.52.322-.99.523-1.428.136-.291.352-.551.565-.795.119-.139.911.123.981.309.406 1.103.809 2.205 1.213 3.307.017.045.019.1.043.138.37.575.174 1.023-.307 1.413-.06.051-.092.134-.126.188-.768-.283-.799-1.018-1.032-1.619-.186-.471-.339-.951-.535-1.512l-1.045 1.911-1.992-1.464c0 .301-.004.556.003.811.009.358.045.718.043 1.076-.001.535-.266.951-.635 1.298M112.107 152.052c1.076-.079 2.099-.705 3.192-.206-.04.406-.576.935-.942 1.023-1.023.244-2.04.521-3.093.795-.114-.123-.3-.295-.452-.49a.594.594 0 0 1-.1-.319c-.062-.956-.115-1.912-.17-2.87a.903.903 0 0 0-.04-.175c-.192-.608.176-1.028.815-1.048.572-.016 1.143-.127 1.707-.227a2.418 2.418 0 0 1 1.356.127c-.353.938-1.091 1.229-2.051 1.18.02.041.034.082.051.125.12 0 .239.004.358-.004.134-.006.263-.025.396-.033.167-.01.334-.014.502-.021.264-.011.483.114.497.358.007.138-.17.35-.32.42-.462.222-.938.43-1.434.568-.282.08-.394.167-.321.455.033.112.035.233.049.342M130.215 111.408l-.646-1.572c-.039-.099-.065-.206-.115-.301-.283-.535-.196-.807.37-1.082.16-.078.338-.125.503-.191.935-.376 1.458-1.131 1.8-2.023.187-.497.046-.619-.504-.639-.913-.033-1.644.301-2.226 1-.125.148-.305.249-.46.373-.02-.004-.045-.004-.062-.015-.793-.466-.576-.827-.028-1.24.54-.409 1.106-.81 1.714-1.103.787-.379 1.619-.381 2.432.018.595.292.771.855.481 1.55-.449 1.067-1.191 1.89-2.087 2.599-.28.219-.515.424-.339.855.321.801-.262 1.227-.833 1.771M97.813 149.046c-.623.163-1.156.308-1.693.443a1.55 1.55 0 0 1-.459.067c-.114-.005-.233-.072-.338-.134-.194-.116-.379-.246-.575-.376.158-.518.497-.735 1.051-.801.626-.072 1.227-.328 1.852-.426.869-.139 1.75-.205 2.618-.301.129.547-.051.79-.504.812-.295.016-.708.408-.691.698.076 1.438.15 2.875.268 4.31.029.37-.123.639-.324.867-.276.313-.835.143-.918-.291a14.699 14.699 0 0 1-.272-2.061c-.05-.902-.015-1.81-.015-2.807M101.022 151.201c-.096-.511-.19-1.023-.295-1.531-.05-.242.439-.902.686-.911.013-.002.023 0 .036 0 .655.007.647.009.726.672.107.892.212 1.785.359 2.672.054.339.217.681-.005.99-.153.214-.365.458-.597.519-.143.038-.459-.199-.542-.383-.178-.396-.271-.835-.368-1.264-.053-.244-.046-.5-.065-.751.022-.003.043-.009.065-.013M130.811 112.219c.602.062 1.04.156 1.26.644.331.731.181.729-.475 1.427-.742.787-1.522.24-1.849-.404a.448.448 0 0 1-.005-.369c.192-.343.395-.688.636-.996.126-.16.343-.243.433-.302M131.729 117.511c.565-1.169.94-1.443 2.066-1.525-.055.9-.542 1.544-1.299 2.017l-.767-.492M134.239 115.215l.815-1.102c.027-.039.08-.06.1-.102.241-.492.672-.496 1.146-.439-.053.874-.581 1.48-1.164 2.051-.044.043-.165.061-.216.031-.216-.121-.417-.265-.681-.439M137.017 112.741c.648-1.214 1.288-1.499 2.062-1.279-.17.812-.628 1.401-1.333 1.81l-.729-.531M151.817 100.577c-.142-.168-.299-.326-.416-.509-.049-.077-.057-.256-.002-.305.445-.413.896-.818 1.37-1.198.185-.15.512.072.726.519-.519.516-1.059 1.056-1.603 1.595-.023-.033-.05-.068-.075-.102M143.529 107.838c.146 0 .298-.025.439.006.262.055.203.277.136.424-.246.514-.604.947-1.101 1.237-.087.05-.25-.003-.37-.04a.613.613 0 0 1-.266-.17c-.07-.076-.163-.244-.137-.275.372-.412.765-.811 1.157-1.205.024-.027.092-.009.141-.012l.001.035M145.546 107.459c-.262-.199-.475-.365-.726-.558.224-.499.685-.886 1.137-1.265.218-.184.462-.006.667.135.241.164.078.318-.029.447-.379.466-.777.921-1.049 1.241M140.241 111.523c-.077-.096-.135-.209-.227-.277-.407-.309-.434-.32-.151-.723.204-.289.443-.593.74-.766.232-.135.572-.08.905-.115-.113.891-.67 1.366-1.267 1.881M149.843 103.137l-.597-.691c.344-.376.691-.775 1.062-1.154.135-.139.729-.043.771.138.037.157-.043.39-.152.522-.347.417-.731.803-1.084 1.185M147.776 105.476l-.704-.623c.331-.369.643-.73.972-1.074.148-.157.73-.104.82.078.043.095.032.276-.034.356-.338.433-.701.847-1.054 1.263"/><path fill="none" d="M46.71 77.636h122.795v95.782H46.71z"/></svg>
