<svg xmlns="http://www.w3.org/2000/svg" viewBox="0 0 250 160"><path class="bubble" fill="#FFB547" d="M243.29 106.567c.021-.501.027-1.007.056-1.508.147-2.626-.367-5.134-1.321-7.563a12.165 12.165 0 0 0-1.116-2.182c-.785-1.216-1.589-2.418-2.573-3.49-.272-.297-.171-.726.212-.952.324-.193.656-.371.982-.56.271-.159.569-.288.805-.488.865-.731 1.776-1.407 2.565-2.226 2.09-2.176 3.526-4.727 4.378-7.615.125-.422.238-.848.377-1.266a5.16 5.16 0 0 0 .261-1.289c.038-.564.101-1.129.149-1.691.027-.313.068-.629.065-.941-.004-1.578-.142-3.145-.502-4.683-.638-2.717-1.64-5.282-3.272-7.576-.401-.564-.787-1.138-1.192-1.7-.22-.307-.457-.601-.699-.891-1.833-2.194-4.031-3.972-6.414-5.521a28.116 28.116 0 0 0-5.378-2.73c-.764-.288-1.51-.633-2.312-.812a15.225 15.225 0 0 1-2.17-.645 4.576 4.576 0 0 0-.722-.217c-1.539-.32-3.071-.695-4.659-.689-.312.001-.625-.062-.936-.106-.456-.067-.668-.455-.444-.809.202-.32.42-.629.619-.949.932-1.51 1.662-3.103 1.975-4.867.132-.743.266-1.487.412-2.227.21-1.058.222-2.123.167-3.195-.191-3.682-1.402-7.006-3.476-10.036-.464-.68-1.043-1.258-1.578-1.875-1.553-1.781-3.448-3.122-5.503-4.244-1.716-.938-3.556-1.591-5.414-2.194a4.897 4.897 0 0 0-.548-.142c-1.663-.344-3.324-.718-5.039-.676-.125.004-.251-.018-.378-.022-1.637-.067-3.268-.023-4.895.199a44.396 44.396 0 0 0-4.081.758c-.673.155-1.342.348-1.993.577-1.723.607-3.43 1.249-5.046 2.11-1.554.829-3.134 1.61-4.571 2.643-.306.221-.623.426-.937.634a7.258 7.258 0 0 1-.481.299c-.397.228-.743.188-.934-.25a7.74 7.74 0 0 1-.203-.528c-.191-.534-.344-1.083-.576-1.597-.544-1.205-1.136-2.387-1.905-3.468a70.435 70.435 0 0 1-1.074-1.554c-.706-1.048-1.539-1.986-2.448-2.863-2.57-2.477-5.485-4.407-8.847-5.641-.589-.216-1.173-.469-1.782-.616-1.958-.477-3.934-.834-5.968-.794-3.053.062-6.002.565-8.819 1.783-2.415 1.042-2.745 1.188-4.948 2.718-.62.432-1.249.857-1.824 1.343a25.768 25.768 0 0 0-4.11 4.405c-.335.455-.644.932-.932 1.418-.675 1.137-1.312 2.293-1.834 3.511a6.138 6.138 0 0 1-.546.988.885.885 0 0 1-.815.388 12.558 12.558 0 0 1-1.308-.175c-1.859-.332-3.715-.678-5.574-1.008-1.423-.251-2.847-.53-4.304-.5-.125.001-.251-.016-.377-.028-1.627-.199-3.264-.188-4.898-.187-3.166-.002-6.271.411-9.309 1.327-3.01.906-2.363.647-5.252 2.072-.621.306-1.241.619-1.825.986-1.277.807-2.499 1.688-3.597 2.743-.637.612-1.201 1.288-1.8 1.931a10.707 10.707 0 0 0-1.543 2.138c-.395.717-.777 1.44-1.153 2.166-.175.34-.406.631-.681.893-.684.651-1.384 1.288-2.031 1.973-1.62 1.715-2.849 3.672-3.576 5.93-.115.359-.255.71-.381 1.066a6.919 6.919 0 0 0-.387 2.033c-.025.629-.058 1.257-.078 1.886-.103 2.98.708 5.729 2.187 8.285 1.081 1.868 2.431 3.517 4.206 4.786.152.111.298.23.445.35.563.451.629.79.282 1.475-.086.169-.177.334-.264.502-.951 1.811-1.669 3.867-2.022 5.86-.12.68-.248 1.365-.281 2.054-.106 2.146.021 4.277.542 6.372.546 2.203 1.178 4.377 2.381 6.336.099.158.176.332.257.503.272.571.623 1.092.964 1.622.615.955 1.355 1.812 2.091 2.673 1.726 2.018 3.638 3.831 5.793 5.382.714.514 1.458.99 2.207 1.453 3.065 1.894 6.292 3.433 9.771 4.409.302.085.605.178.897.293.704.284 1.438.46 2.178.612.738.155 1.48.3 2.218.462.492.106.996.188 1.464.362 1.189.439 2.425.666 3.659.907.987.194 1.977.385 2.962.593.307.063.609.16.899.276.305.121.519.361.629.667.084.234.144.484.178.731.271 1.936.729 3.831 1.162 5.734.097.428.231.847.366 1.266.135.421.309.826.434 1.25.339 1.148.825 2.241 1.286 3.344.365.876.872 1.675 1.302 2.514.716 1.407 1.629 2.692 2.612 3.921 1.267 1.573 2.745 2.942 4.307 4.222.193.159.401.303.612.441.524.347 1.046.7 1.584 1.024 1.459.872 2.941 1.693 4.537 2.304.766.293 1.548.532 2.307.836.765.304 1.554.509 2.357.666.68.135 1.357.268 2.038.395 1.301.24 2.601.485 3.933.439.188-.006.377.018.563.04.691.086 1.383.066 2.074.036.691-.028 1.384-.049 2.074-.109 1.504-.131 3.009-.298 4.479-.65 1.652-.394 3.291-.84 4.881-1.458.292-.111.591-.215.895-.292a1.192 1.192 0 0 1 1.067.23c.5.388.925.851 1.35 1.316a87.865 87.865 0 0 0 3.938 4.069c1.929 1.868 4.197 3.193 6.637 4.252a20.75 20.75 0 0 0 2.125.776c.723.22 1.453.41 2.16.675.295.11.6.196.907.258 1.112.224 2.222.444 3.338.637a7.92 7.92 0 0 0 1.314.094c2.213.001 4.4-.193 6.524-.865.358-.113.725-.211 1.088-.31 1.403-.385 2.729-.963 4.04-1.58a7.065 7.065 0 0 0 1.729-1.141 24.223 24.223 0 0 0 2.486-2.578c1.049-1.277 1.829-2.707 2.438-4.236.116-.292.218-.592.291-.898.319-1.346.609-2.699.688-4.089.008-.125.019-.25.031-.375.007-.063.022-.122.03-.187.026-.188.354-.437.553-.448.45-.024.871.1 1.297.212.486.127.956.321 1.908.386.308.039 1.057.134 1.805.233.563.078 1.126.091 1.693.086 1.718-.01 3.375-.336 5-.873.661-.219 1.293-.491 1.876-.872.266-.173.527-.348.793-.516 1.345-.851 2.471-1.936 3.427-3.204.227-.304.453-.605.677-.91a4.73 4.73 0 0 1 1.223-1.167c.474-.31.939-.633 1.412-.946 1.581-1.051 2.965-2.318 4.222-3.745 1.3-1.478 2.319-3.127 3.157-4.899.539-1.14.89-2.352 1.291-3.544.195-.6.279-1.229.305-1.861zM86.438 44.474c.376-.918.843-1.793 1.441-2.591a.407.407 0 0 1 .327-.155c.144-.007.322.216.318.391-.003.123.008.248-.002.373-.027.308-.062.617-.094.924l.012.001c-.039.309-.066.616-.12.922a.766.766 0 0 1-.294.459c-.396.312-.833.533-1.344.582-.149.013-.364-.203-.343-.363.027-.182.032-.377.099-.543zm-1.006 5.515a3.34 3.34 0 0 1-.07-1.655c.062-.322.222-.596.495-.763.64-.388 1.297-.74 2.01-.981.268-.093.664.112.76.382.128.359.165.729.156 1.104a.875.875 0 0 1-.299.663c-.775.634-1.61 1.168-2.579 1.464-.171.053-.427-.063-.473-.214zm1.593 5.191c-.182.073-.559-.056-.669-.22a4.121 4.121 0 0 1-.694-1.907c-.056-.536.149-.978.597-1.287.204-.14.423-.26.639-.383.652-.361 1.302-.726 1.961-1.071.099-.053.242-.019.364-.025.094.076.219.137.278.236a6.96 6.96 0 0 1 .787 1.882c.067.261-.04.488-.193.693-.037.05-.075.102-.123.14-.873.701-1.784 1.35-2.771 1.881-.055.028-.119.037-.176.061zm2.285 3.334c-.104.063-.23.096-.35.13a.596.596 0 0 1-.534-.086 1.93 1.93 0 0 1-.407-.379 8.957 8.957 0 0 1-.505-.785c-.149-.253-.041-.659.208-.834.102-.071.198-.154.303-.221.158-.099.318-.198.487-.277.8-.369 1.52-.858 2.18-1.438.046-.041.108-.063.156-.1.186-.134.538-.091.694.072.39.41.713.866.951 1.379.048.104.027.242.037.364-.064.102-.108.244-.2.304-1.002.631-2.01 1.253-3.02 1.871zm2.061 2.841a5.598 5.598 0 0 1-1.185-.896c-.227-.221-.199-.611.068-.814.895-.675 1.833-1.28 2.876-1.708.169-.07.354-.133.535-.146.18-.014.382-.001.542.074.403.185.726.479.917.885.048.104.032.24.046.362-.025.056-.044.115-.074.168a.545.545 0 0 1-.107.149c-.843.741-1.775 1.358-2.732 1.937-.276.17-.59.15-.886-.011zm7.101 2.143a.664.664 0 0 1-.161.099c-.412.146-.819.32-1.242.432-1.333.346-2.623.858-3.996 1.054-.053.009-.125-.025-.169-.062-.104-.089-.125-.212-.062-.342.053-.112.112-.227.18-.328.284-.43.463-.891.449-1.414a.837.837 0 0 1 .022-.186c.054-.252.165-.48.362-.646.774-.642 1.58-1.239 2.465-1.721.345-.186.727-.196 1.098-.063a5.586 5.586 0 0 1 1.63.923c.217.174.361.577.304.82-.093.47-.307.85-.6 1.187-.08.093-.183.169-.28.247zm-.226 2.273a.663.663 0 0 1-.386.385c-.402.163-.814.311-1.226.452-.824.284-1.648.565-2.478.836-.71.23-1.423.458-2.143.656-.293.081-.608.086-.914.125l-.003.008-.006-.007.009-.001c.093-.228.169-.462.282-.68.117-.225.307-.389.537-.501.112-.054.223-.117.342-.149 1.795-.516 3.592-1.03 5.389-1.537a1.01 1.01 0 0 1 .368-.005.276.276 0 0 1 .245.236.356.356 0 0 1-.016.182zm-8.168 6.413c.012-.248.03-.497.044-.734.083-.251.148-.493.241-.725.094-.237.257-.433.473-.567.211-.132.429-.267.662-.348 1.834-.625 3.639-1.341 5.514-1.84.179-.048.37-.059.555-.084.199-.027.506.196.568.411.118.407-.063.958-.388 1.179-.103.07-.198.154-.308.213-2.1 1.119-4.243 2.138-6.509 2.884-.116.04-.244.042-.367.066-.223.047-.495-.202-.485-.455zm-.114 4.282c-.017-.06-.039-.119-.054-.18a2.658 2.658 0 0 1-.035-1.026c.092-.49.292-.802.659-.971.399-.182.81-.343 1.222-.496 1.827-.671 3.631-1.397 5.37-2.279a.855.855 0 0 1 .545-.088.319.319 0 0 1 .158.083.282.282 0 0 1 .065.341.87.87 0 0 1-.213.303c-.3.227-.595.474-.927.64-1.015.508-1.94 1.156-2.884 1.778-1.1.726-2.206 1.441-3.312 2.159-.204.132-.531-.021-.594-.264zm1.653 4.433c-.261.136-.651-.026-.784-.316-.208-.46-.35-.936-.377-1.44a.885.885 0 0 1 .261-.681c.176-.174.361-.347.566-.485 1.349-.907 2.696-1.814 4.057-2.7.837-.547 1.733-.989 2.625-1.438.2-.102.548.066.624.276.152.415.23.843.213 1.284 0 .062-.017.124-.03.233-.069.123-.141.3-.252.444a1.926 1.926 0 0 1-.409.382c-2.051 1.43-4.104 2.854-6.158 4.275-.103.07-.226.108-.336.166zm1.234 3.816c-.138-.082-.265-.125-.347-.21-.358-.378-.527-.841-.561-1.354a.908.908 0 0 1 .225-.693 3.65 3.65 0 0 1 .548-.507c1.839-1.293 3.684-2.579 5.529-3.863.152-.106.325-.188.488-.278.27-.15.669-.062.838.18.219.314.364.656.408 1.034a.832.832 0 0 1-.216.692c-.169.182-.35.357-.549.507-.498.375-1.007.738-1.515 1.101-.61.437-1.207.886-1.771 1.386a18.116 18.116 0 0 1-2.573 1.868c-.151.089-.351.096-.504.137zm2.592 3.048c-.141.098-.347.105-.494.145-.15-.066-.273-.104-.375-.173-.318-.211-.548-.502-.731-.835-.153-.276-.114-.67.101-.866.185-.168.365-.344.565-.491 1.056-.777 2.117-1.542 3.111-2.406.8-.693 1.681-1.296 2.592-1.847.102-.062.232-.084.353-.108a.391.391 0 0 1 .351.098c.297.271.407.62.366 1.012a.946.946 0 0 1-.134.345c-.062.104-.14.21-.233.29-1.517 1.303-2.964 2.682-4.446 4.023a10.23 10.23 0 0 1-1.026.813zm4.128 4.306a.867.867 0 0 1-.894.029 1.799 1.799 0 0 1-.321-.193 14.637 14.637 0 0 1-1.878-1.831 1.209 1.209 0 0 1-.184-.325.65.65 0 0 1 .004-.542 1.88 1.88 0 0 1 .443-.599c.508-.467.999-.948 1.526-1.39 1.01-.843 1.972-1.737 2.949-2.615.185-.165.392-.307.595-.452.231-.167.686-.125.874.069.043.046.102.08.137.13.624.858 1.252 1.716 1.866 2.583.065.092.057.236.083.354-.04.118-.055.251-.123.35a1.977 1.977 0 0 1-.371.419c-1.015.835-1.971 1.736-2.946 2.617-.556.504-1.125.993-1.76 1.396zm4.614 3.494c-.153.089-.352.101-.5.139-.156-.043-.288-.054-.394-.112a18.427 18.427 0 0 1-2.206-1.412c-.147-.111-.262-.266-.388-.402-.089-.1-.101-.407-.021-.537.065-.104.115-.228.202-.311 1.501-1.411 3.074-2.743 4.623-4.103.046-.04.108-.061.159-.099.178-.129.543-.137.708-.003.289.237.586.466.855.724.359.344.7.711 1.042 1.072.134.141.145.534.031.711-.066.106-.12.222-.201.314a72.105 72.105 0 0 1-3.327 3.556c-.174.175-.37.34-.583.463zm4.164 1.818a1.218 1.218 0 0 1-1.176.275 3.05 3.05 0 0 1-1.228-.595c-.251-.203-.331-.588-.157-.84.072-.104.127-.22.212-.31 1.026-1.104 2.052-2.208 3.089-3.303.17-.18.374-.336.583-.467a.728.728 0 0 1 .72-.034c.347.158.644.388.905.665.259.272.316.747.117 1.046-.104.154-.201.319-.32.463-.645.771-1.291 1.54-1.947 2.3a9.562 9.562 0 0 1-.798.8zm4.898 2.021a1.02 1.02 0 0 1-.706.191c-.248-.03-.488-.105-.785-.173-.484-.157-1.022-.322-1.553-.509a.658.658 0 0 1-.394-.377.659.659 0 0 1-.025-.36.901.901 0 0 1 .174-.327c.875-1.145 1.833-2.217 2.802-3.28.041-.046.095-.08.141-.123.129-.123.546-.177.714-.088.777.406 1.529.854 2.213 1.404.093.075.161.188.225.292.069.112.08.245.016.362-.091.162-.181.331-.307.466-.734.77-1.478 1.528-2.221 2.287-.087.09-.19.165-.294.235zm6.782-.434a8.734 8.734 0 0 1-1.146 1.695c-.08.094-.188.162-.286.238-.171.131-.508.225-.704.199-.062-.006-.127-.001-.185-.021-.769-.245-1.539-.491-2.304-.747-.283-.095-.365-.532-.161-.789.115-.146.226-.299.351-.435.296-.319.601-.632.897-.95.255-.271.504-.55.761-.819.262-.275.659-.332 1.032-.175.52.216 1.006.487 1.467.809.304.213.438.686.278.995zm3.448 1.322a6.822 6.822 0 0 1-1.138 1.226c-.419.356-.897.397-1.397.21a.698.698 0 0 1-.278-.229.534.534 0 0 1-.057-.527c.181-.467.458-.876.786-1.257.354-.407.791-.575 1.328-.488.061.01.121.023.142.026l.219.061c.593.146.654.614.395.978zm5.147 1.172c-.285.42-.639.771-1.045 1.071a1.54 1.54 0 0 1-1.062.303c-.374-.031-.745-.093-1.175-.149-.306-.091-.667-.194-1.025-.306-.199-.059-.309-.462-.189-.641a4.961 4.961 0 0 1 1.157-1.222c.205-.155.446-.231.699-.244a2.85 2.85 0 0 1 .562.022c.618.094 1.242.165 1.834.391.295.113.423.513.244.775zm1.047 4.2c-.054.03-.122.028-.18.051-.188.071-.544-.13-.6-.335-.114-.424-.19-.854-.167-1.295a1.57 1.57 0 0 1 .229-.705c.061-.109.133-.214.218-.306.545-.601 1.091-1.203 1.649-1.793a1.83 1.83 0 0 1 1.158-.567c.865-.083 1.734-.188 2.609-.112 0-.004.003-.006.003-.01l.006.011-.009-.001c-.133.412-.251.832-.402 1.238a2.425 2.425 0 0 1-.599.943c-1.191 1.113-2.484 2.091-3.915 2.881zm.532 4.934c-.193-.035-.299-.099-.368-.208-.064-.105-.142-.211-.175-.327a9.26 9.26 0 0 1-.339-1.831.923.923 0 0 1 .361-.815c.097-.078.192-.158.296-.228.883-.578 1.769-1.155 2.654-1.731.209-.136.518.049.53.316.021.372.049.744.057 1.116.036 1.924.149 1.816-1.44 2.897-.359.243-.726.482-1.104.692-.154.085-.352.09-.472.119zm1.9 4.73c-.101.065-.23.091-.348.131-.145.049-.416-.047-.505-.178-.069-.105-.155-.2-.202-.313-.236-.584-.43-1.179-.513-1.805-.053-.396.062-.756.363-1.019.666-.576 1.368-1.098 2.186-1.444.102-.044.241.006.363.013.095.077.225.135.277.234.334.611.509 1.276.598 1.963a.725.725 0 0 1-.138.535c-.377.49-1.475 1.484-2.081 1.883zm2.043 4.832c-.043.043-.11.061-.159.097-.116.084-.424.019-.507-.111-.387-.635-.771-1.271-1.075-1.954-.202-.456-.11-1.057.249-1.383.686-.627 1.365-1.264 2.124-1.805.184-.131.561-.054.669.142.331.596.665 1.189.984 1.791.053.104.037.243.052.363-.016.062-.028.122-.049.181s-.039.12-.077.169c-.681.885-1.402 1.738-2.211 2.51zm3.414 4.28c-.193.187-.678.192-.867.002-.176-.176-.352-.35-.517-.537a50.18 50.18 0 0 1-.974-1.135 2.886 2.886 0 0 1-.306-.469c-.125-.235-.101-.48.007-.717.053-.113.108-.229.188-.322.657-.752 1.315-1.5 1.984-2.237.124-.141.315-.188.516-.164.055.019.127.022.17.06.608.54 1.154 1.136 1.633 1.791.073.1.123.216.175.329a.935.935 0 0 1 .014.725.76.76 0 0 1-.078.171 20.362 20.362 0 0 1-1.806 2.381c-.04.045-.095.08-.139.122zm5.821.894a11.807 11.807 0 0 1-1.336 2.268c-.075.099-.173.177-.262.269-.194.202-.628.259-.874.108-.755-.457-1.463-.971-2.093-1.593-.204-.202-.269-.638-.118-.874a17.04 17.04 0 0 1 1.819-2.394.913.913 0 0 1 .309-.211.726.726 0 0 1 .546 0 .496.496 0 0 1 .166.086c.575.485 1.158.963 1.712 1.471.125.113.156.328.212.453-.031.176-.031.307-.081.417zm3.944 4.502c-.082.166-.204.316-.312.469-.202.284-.676.441-1.015.33-.835-.279-1.655-.598-2.426-1.027-.107-.061-.195-.155-.291-.238-.097-.085-.173-.402-.133-.53.019-.061.025-.125.05-.183.294-.696.688-1.341 1.104-1.972.069-.104.154-.201.248-.283.195-.171.426-.261.691-.213.123.022.255.039.361.099.714.397 1.41.823 2.069 1.307.165.12.321.505.299.594-.125.641-.399 1.137-.645 1.647zm4.963 1.733c-.24.308-.562.507-.96.49-.432-.02-.863-.087-1.192-.122-.462-.123-.823-.214-1.181-.317-.388-.111-.607-.528-.467-.873.259-.635.527-1.262.956-1.804.166-.212.403-.281.659-.279.123.001.252.021.366.06.706.24 1.408.485 2.11.733.27.096.441.495.354.779-.152.477-.332.938-.645 1.333zm6.416-.449c-.138.348-.297.687-.468 1.019-.216.422-.567.649-1.05.647-.624 0-1.248.017-1.872-.012-.308-.015-.614-.095-.915-.169-.343-.084-.573-.562-.455-.907.163-.472.347-.935.622-1.354a.782.782 0 0 1 .617-.376c.934-.045 1.868-.06 2.898.027.087.026.265.073.444.125.134.042.296.303.274.451-.025.185-.029.379-.095.549zm4.866.373a1.55 1.55 0 0 1-1.109.92c-.482.106-.979.16-1.471.224-.119.015-.247-.022-.37-.037-.367-.038-.66-.446-.583-.811.024-.123.031-.253.079-.364.15-.341.308-.678.479-1.011a1.24 1.24 0 0 1 .849-.675c.729-.159 1.464-.279 2.197-.411.059-.01.124.017.186.019.127.007.349.264.341.396-.001.063.023.132.004.186-.197.524-.376 1.053-.602 1.564zm6.131-1.667c-.084.312-.301.538-.571.714-.052.034-.103.072-.157.099a13.608 13.608 0 0 1-3.374 1.067c-.17.031-.408-.181-.365-.322.265-.9.667-1.741 1.133-2.552.128-.219.324-.385.546-.496a19.94 19.94 0 0 0 2.25-1.335c.203-.14.427-.254.648-.367a.27.27 0 0 1 .184-.008.29.29 0 0 1 .22.267c.009.124.016.25-.005.371-.061.368-.133.734-.203 1.104l.035.005c-.111.485-.21.974-.341 1.453zm4.317.614c-.087.16-.235.289-.361.427-.102.11-.393.149-.532.082-.057-.026-.119-.038-.173-.07a6.657 6.657 0 0 1-1.328-1.046 1.082 1.082 0 0 1-.319-.857c.034-.437.099-.872.104-.908.217-1.203.409-1.994.723-2.755.121-.289.221-.588.308-.89.16-.555.447-1.039.799-1.486.23-.294.437-.612.73-.856.178-.147.549-.073.63.156.104.296.21.591.305.89.211.659.41 1.321.621 1.977.097.3.216.591.309.891.114.375.093.747-.084 1.1-.311.616-.633 1.229-.948 1.844-.261.499-.51 1.006-.784 1.501zm4.45 1.766c-.362.794-.745 1.578-1.298 2.262-.097.12-.357.2-.516.145-.116-.043-.246-.076-.336-.152-.579-.479-1.063-1.048-1.496-1.657-.112-.159-.114-.357-.062-.543.05-.178.105-.36.193-.524.5-.934 1.013-1.86 1.522-2.79a.446.446 0 0 1 .281-.217c.07.013.151.004.188.04.444.446.7 1.022 1.053 1.532.177.255.321.536.459.813.143.29.142.602.064.914a.973.973 0 0 1-.052.177zm1.898 5.146c-.172.227-.608.294-.852.152a3.787 3.787 0 0 1-1.108-.985c-.195-.259-.271-.562-.138-.877.318-.746.706-1.454 1.186-2.108a.71.71 0 0 1 .303-.209c.11-.039.239-.027.36-.039.057.025.119.041.171.075.414.279.785.609 1.111.985a.733.733 0 0 1 .156.7c-.243.844-.654 1.606-1.189 2.306zm5.129-.012c-.339.738-.722 1.45-1.183 2.12-.034.05-.084.091-.122.139-.164.202-.608.321-.861.215-.401-.169-.797-.354-1.193-.534-.055-.025-.101-.071-.152-.105-.325-.202-.48-.65-.386-.87.329-.806.697-1.455 1.104-2.085.032-.052.084-.092.121-.14.205-.271.69-.423 1.018-.3.406.154.811.318 1.21.488.418.179.664.592.444 1.072zm3.591 3.861c-.111.244-.502.453-.784.427-.062-.006-.126.002-.188-.01-.751-.14-1.436-.445-2.087-.834-.15-.091-.281-.5-.223-.683.02-.06.019-.125.046-.181.398-.784.797-1.566 1.203-2.347a1.33 1.33 0 0 1 .232-.294c.177-.187.393-.316.654-.336.574-.04 1.122.076 1.657.283.232.089.494.494.48.754-.009.188-.024.375-.035.527-.217.961-.57 1.833-.955 2.694zm5.947 1.331c-.682.106-1.365.145-2.051.059-.246-.03-.493-.067-.83-.115-.212-.068-.509-.158-.801-.266-.23-.083-.501-.501-.493-.744.005-.188.003-.377.034-.559.154-.93.469-1.809.902-2.645.151-.291.398-.491.723-.536a7.19 7.19 0 0 1 1.865-.041c.183.021.364.082.537.148.179.07.294.223.391.386.03.053.055.113.065.174.197 1.104.352 2.215.314 3.345-.011.392-.302.739-.656.794zm5.431-1.122c-.113.051-.218.122-.336.159-.712.224-1.419.461-2.165.555-.281.036-.619-.206-.701-.498-.201-.725-.24-1.472-.294-2.215a6.817 6.817 0 0 1 .003-1.116c.027-.25.2-.46.441-.563.521-.227 1.078-.276 1.641-.268.062 0 .122.021.236.042.108.08.27.175.399.301a.854.854 0 0 1 .187.319c.29.821.573 1.644.856 2.468.02.057.017.122.031.183.048.212-.111.547-.298.633zm4.562-2.247a.522.522 0 0 1-.12.142 6.166 6.166 0 0 1-1.55 1.035c-.109.051-.236.076-.355.108-.265.077-.673-.103-.796-.358a13.363 13.363 0 0 1-.902-2.448.773.773 0 0 1-.024-.187c-.011-.323.069-.62.31-.849.363-.347.77-.63 1.237-.822.193-.079.557.005.678.182.529.771 1.062 1.539 1.57 2.322.096.142.088.352.118.491-.067.158-.109.274-.166.384zm3.698-4.337a8.149 8.149 0 0 1-1.63 2.507c-.204.216-.646.205-.847-.014a8.648 8.648 0 0 1-1.374-2.012 2.299 2.299 0 0 1-.185-.53c-.057-.249-.05-.509.079-.733.373-.652.801-1.27 1.298-1.838.088-.102.395-.182.524-.132.059.02.127.025.177.059.678.463 1.256 1.034 1.812 1.629.229.244.252.562.194.883a.806.806 0 0 1-.048.181zm-.621-12.19c.029-.158.253-.323.418-.308.062.006.123.005.202.008.535.137 1.032.39 1.433.788.36.355.551.818.622 1.323a.497.497 0 0 1-.01.184c-.013.061-.028.128-.068.17-.382.401-.816.749-1.164 1.188-.117.146-.343.122-.526.08a1.431 1.431 0 0 1-.346-.13c-.283-.157-.505-.377-.525-.715a78.532 78.532 0 0 1-.102-2.228c-.005-.119.043-.241.066-.36zm1.751 9.386c-.133.177-.472.277-.673.179-.112-.054-.238-.094-.328-.177a26.13 26.13 0 0 1-1.073-1.034c-.467-.483-.62-1.065-.466-1.722.013-.061.022-.122.054-.285.079-.192.181-.488.323-.764.196-.382.669-.587 1.111-.523.312.045.608.141.868.315.263.182.481.421.523.743.123.864.182 1.732-.032 2.597a1.85 1.85 0 0 1-.307.671zm4.907-5.833c-.12.014-.25-.002-.368-.032a3.348 3.348 0 0 1-1.159-.578 1.87 1.87 0 0 1-.754-1.236c-.04-.245.181-.5.437-.483.185.014.371.03.489.041l.425.115c.453.125.754.418.91.855.124.348.298.685.262 1.069-.015.136-.104.236-.242.249zm3.919.421a1.789 1.789 0 0 1-1.091.113 1.017 1.017 0 0 1-.622-.377 2.603 2.603 0 0 1-.517-1.178c-.033-.207.21-.531.417-.527.308.009.616.029.66.032.383.071.506.088.625.119.603.146.91.562.906 1.227a.662.662 0 0 1-.378.591zm3.654-.155c-.32.21-.679.294-1.066.223a.751.751 0 0 1-.62-.612 2.407 2.407 0 0 1-.02-.556.631.631 0 0 1 .414-.567 1.97 1.97 0 0 1 1.1-.096c.383.067.638.406.61.813-.005.062-.015.123-.021.175a.935.935 0 0 1-.397.62zm4.771-2.035c-.479.385-.975.743-1.53 1.007-.16.077-.347.107-.524.14-.23.042-.463-.254-.382-.487.039-.112.09-.239.173-.315.135-.121.287-.245.455-.297.524-.164 1.06-.297 1.59-.441.134-.035.262-.018.321.087.061.103.006.217-.103.306zm13.613-16.425c-.104.428-.232.85-.368 1.269-.097.297-.234.583-.335.881-.7 2.061-1.85 3.847-3.302 5.449-.421.466-.874.904-1.315 1.352-.442.452-.924.854-1.44 1.216-.208.145-.416.285-.619.436-1.897 1.4-4.019 2.332-6.27 2.994-.482.142-.969.272-1.455.402-.852.231-1.72.38-2.602.447-.501.038-1.003.068-1.505.103-1.069.072-2.135.058-3.199-.112-.557-.09-1.128-.11-1.691-.136a6.843 6.843 0 0 1-1.85-.34c-.536-.181-1.074-.373-1.624-.49-1.427-.305-2.762-.859-4.083-1.45-.805-.359-1.58-.777-2.374-1.159a3.588 3.588 0 0 0-.703-.262 1.235 1.235 0 0 0-.912.119c-.337.187-.561.612-.479.945.044.184.081.369.147.545.162.409.345.811.508 1.219a7.092 7.092 0 0 1 .499 3.142c-.039.628-.066 1.256-.098 1.886-.021.442-.078.881-.234 1.293a92.957 92.957 0 0 1-.979 2.456c-.34.818-.84 1.542-1.379 2.243-.628.812-1.404 1.438-2.292 1.935a6.016 6.016 0 0 1-.86.382 9.211 9.211 0 0 1-1.646.408 20.86 20.86 0 0 1-5.079.188c-.438-.035-.878-.09-1.315-.09-1.525-.002-3.007-.312-4.467-.692-.909-.237-1.793-.59-2.669-.938-.704-.276-1.346-.685-1.937-1.164-.832-.677-1.583-1.432-2.213-2.309a20.181 20.181 0 0 1-2.486-4.645c-.424-1.119-.854-2.235-1.106-3.407-.199-.923-.365-1.853-.54-2.779-.068-.371-.115-.746-.183-1.116-.021-.123-.076-.238-.116-.357-.153-.468-.746-.746-1.235-.581a1.407 1.407 0 0 0-.63.399c-.243.286-.493.575-.688.894-.821 1.35-1.813 2.571-2.772 3.816-.735.954-1.642 1.738-2.559 2.503-.335.28-.732.485-1.105.719a2.54 2.54 0 0 1-.339.167c-2.208.951-4.488 1.638-6.9 1.821-.063.004-.125.006-.188.013-1.893.183-3.771.139-5.358-.273-.454-.084-.64-.117-.824-.154-1.96-.392-2.312-.509-4.11-1.346a15.994 15.994 0 0 1-2.596-1.531c-1.953-1.398-3.705-3.017-5.359-4.749a10.142 10.142 0 0 1-.974-1.15c-.871-1.234-1.771-2.451-2.563-3.733-1.448-2.344-2.28-4.895-2.371-7.666a8.897 8.897 0 0 1 .042-1.131c.174-1.78.734-3.438 1.65-4.974.195-.323.407-.636.603-.957a7.36 7.36 0 0 0 .362-.663c.135-.297.146-.607.017-.913-.174-.412-.628-.713-1.041-.674-.313.028-.625.07-.935.119-.808.13-1.614.262-2.42.4-1.184.204-2.38.22-3.575.216a9.205 9.205 0 0 1-1.315-.107 87.848 87.848 0 0 1-2.787-.497c-.866-.165-1.72-.377-2.53-.74-2.114-.674-4.047-1.731-5.938-2.864-1.131-.678-2.25-1.382-3.309-2.179a23.78 23.78 0 0 0-1.241-.859 34.042 34.042 0 0 1-6.94-6.069 19.336 19.336 0 0 1-2.364-3.405 31.614 31.614 0 0 1-1.832-3.932c-.568-1.474-.999-2.982-1.236-4.544a55.059 55.059 0 0 1-.157-1.123 20.7 20.7 0 0 1 .168-6.197c.227-1.237.466-2.474.979-3.636.153-.345.239-.716.274-1.094.051-.55-.147-.985-.588-1.31a2.709 2.709 0 0 0-.316-.205c-.333-.177-.665-.357-1.009-.517-2.092-.969-3.841-2.378-5.301-4.155a27.394 27.394 0 0 0-.734-.863 5.956 5.956 0 0 1-.846-1.245c-.113-.226-.213-.46-.351-.669-.701-1.064-1.112-2.26-1.486-3.458a14.811 14.811 0 0 1-.686-4.65c.006-.503.038-1.004.042-1.508.013-1.273.239-2.503.702-3.688.342-.877.587-1.793 1.028-2.635.642-1.23 1.354-2.409 2.286-3.452.671-.75 1.361-1.479 2.116-2.148a15.593 15.593 0 0 1 3.251-2.245 48.144 48.144 0 0 1 2.377-1.152c1.674-.748 3.428-1.247 5.197-1.693a4 4 0 0 1 .369-.083c1.926-.314 3.851-.637 5.805-.701.879-.028 1.764-.052 2.641.009 1.942.133 3.899.127 5.822.506.986.194 1.982.325 2.994.362.625.022 1.25.132 1.87.242 1.425.25 2.845.528 4.271.783.37.066.748.116 1.123.117.392.003.729-.177.975-.495.112-.147.222-.308.295-.478.124-.289.233-.585.317-.887a11.34 11.34 0 0 1 .678-1.76c.92-1.944 2.035-3.757 3.497-5.349.512-.555 1.011-1.119 1.558-1.643 1.233-1.186 2.627-2.153 4.074-3.044a17.692 17.692 0 0 1 2.01-1.041c2.666-1.201 5.438-1.942 8.394-1.938 1.201.002 2.388.064 3.564.298.493.097.988.194 1.483.285 1.624.296 3.138.902 4.602 1.649 1.518.772 2.974 1.644 4.285 2.739.437.361.869.729 1.277 1.118a23.315 23.315 0 0 1 4.088 5.163c.766 1.307 1.333 2.708 1.786 4.153.169.542.308 1.09.471 1.633.073.24.151.481.259.709.27.563.828.802 1.42.573.232-.089.46-.203.669-.343.782-.526 1.552-1.072 2.334-1.603a41.738 41.738 0 0 1 8.867-4.569c2.798-1.043 5.685-1.605 8.654-1.783.815-.05 1.636-.042 2.453-.038.376.002.754.043 1.128.096 1.495.213 2.977.502 4.449.834.929.211 1.786.613 2.66.963 1.467.586 2.846 1.337 4.091 2.318.398.311.805.607 1.199.92 1.091.866 2.06 1.846 2.841 3.006.353.522.716 1.035 1.063 1.56 1.24 1.874 1.925 3.952 2.186 6.17.117.998.161 2.003.028 3.012-.09.686-.061 1.389-.187 2.064-.128.676-.397 1.324-.578 1.991-.509 1.859-1.476 3.461-2.74 4.896-.292.33-.612.634-.912.954-.13.139-.243.29-.36.438-.498.621-.084 1.644.726 1.739 1.123.132 2.243.32 3.378.345.127.002.252-.002.377.006 1.417.067 5.33.822 6.658 1.282.357.123.711.261 1.072.367 1.941.566 3.77 1.408 5.569 2.313.617.309 1.199.69 1.782 1.063 2.295 1.468 4.354 3.214 6.068 5.338.908 1.126 1.741 2.312 2.36 3.633.054.112.108.226.169.337 1.342 2.485 1.977 5.157 2.088 7.964.018.438.015.879-.003 1.319-.022.628-.069 1.255-.1 1.883a5.848 5.848 0 0 1-.325 1.661c-.165.476-.339.951-.479 1.431-.32 1.099-.839 2.098-1.411 3.08-.704 1.209-1.622 2.238-2.562 3.256a2.825 2.825 0 0 1-.271.265c-1.122.917-2.283 1.778-3.61 2.387-.513.237-1.041.446-1.557.678a2.264 2.264 0 0 0-.483.293c-.472.373-.617.937-.25 1.506.067.105.143.208.232.296.228.216.46.431.701.63 1.123.932 2.058 2.022 2.877 3.228 1.116 1.642 1.838 3.437 2.23 5.367.236 1.173.357 2.354.318 3.563-.038 1.132-.072 2.26-.342 3.367zM103.078 112.747c.03-.88.016-1.762-.178-2.628-.331-1.479-.78-2.92-1.481-4.267-.785-1.505-1.574-3.01-2.574-4.391-.591-.815-1.155-1.649-1.719-2.482-.886-1.306-1.933-2.482-2.999-3.634a47.712 47.712 0 0 0-4.524-4.274c-.338-.28-.688-.554-1.053-.795a45.765 45.765 0 0 0-2.066-1.324c-1.696-1.005-3.51-1.685-5.478-1.925-.5-.062-1-.083-1.506-.05a9 9 0 0 0-2.571.558c-.589.221-1.175.449-1.767.661-1.379.493-2.61 1.202-3.671 2.242a13.246 13.246 0 0 0-2.109 2.642c-.721 1.195-1.224 2.479-1.665 3.793a8.627 8.627 0 0 0-.43 2.408c-.014.377-.008.756-.013 1.133-.034 2.496.457 4.873 1.626 7.097.176.333.337.675.508 1.012.371.732.821 1.416 1.348 2.043 1.219 1.447 2.534 2.792 4.08 3.905 1.384.997 2.876 1.802 4.405 2.541a3 3 0 0 0 .347.146c1.538.56 3.069 1.134 4.699 1.377.497.075.99.184 1.483.276l.002-.01c.804.151 1.607.296 2.411.453 1.559.301 3.127.28 4.699.164.44-.032.876-.093 1.311-.16 1.311-.205 2.586-.525 3.764-1.172.273-.15.574-.252.867-.366.294-.111.6-.193.888-.318 1.131-.489 2.034-1.242 2.625-2.338.149-.277.283-.562.407-.852.198-.467.317-.956.334-1.465zm-32.825-10.532c-.165.072-.416-.02-.48-.176-.021-.057-.068-.106-.077-.166-.131-.73-.19-1.468-.109-2.208.018-.175.11-.347.194-.508.062-.117.191-.148.327-.126.12.048.223.126.253.249.191.782.342 1.567.308 2.375-.011.255-.169.452-.416.56zm1.592 4.137c-.157.088-.343.123-.491.174-.144-.062-.268-.095-.361-.166a.897.897 0 0 1-.237-.279 4.141 4.141 0 0 1-.45-1.407c-.05-.351.138-.702.508-.909.219-.122.557-.05.662.153.253.495.505.99.743 1.492.157.334 0 .734-.374.942zm3.331 3.776a1.373 1.373 0 0 1-1.006.403.763.763 0 0 1-.518-.181 9.578 9.578 0 0 1-1.481-1.665c-.124-.182-.114-.535.026-.702.247-.298.559-.486.944-.54a.6.6 0 0 1 .518.155c.579.562 1.085 1.191 1.565 1.84.066.089.062.231.09.351a.467.467 0 0 1-.138.339zm2.459 3.214c-.186.04-.371-.008-.542-.091-.452-.223-.84-.536-1.215-.866-.251-.224-.256-.611-.012-.815a1.76 1.76 0 0 1 .833-.397c.06-.012.124-.01.185-.013.12.031.25.044.358.101.443.233.849.521 1.183.901.109.126.154.382.075.529-.188.35-.481.566-.865.651zm3.407 1.861c-.474-.129-.946-.26-1.369-.521-.259-.162-.336-.516-.105-.8.157-.192.34-.354.576-.438a.694.694 0 0 1 .359-.037c.484.111.909.348 1.296.655a.59.59 0 0 1 .188.497c-.086.459-.527.759-.945.644zm4.541 1.315c-.061.008-.123.031-.183.029-.123-.006-.246-.022-.382-.036a3.838 3.838 0 0 1-1.347-.561c-.136-.091-.229-.328-.175-.483.045-.123.123-.222.247-.264a1.19 1.19 0 0 1 .354-.078 1.13 1.13 0 0 1 .366.042c.476.145.922.355 1.326.646.108.077.148.2.139.328-.01.158-.193.357-.345.377zm2.786.479a.975.975 0 0 1-.187-.006c-.062-.01-.126-.018-.18-.044-.051-.026-.117-.071-.128-.118-.035-.143.045-.228.205-.229.124-.002.248.012.372.02.322.048.504.151.427.238-.137.158-.329.129-.509.139zm10.546-1.721c-.462.21-.948.356-1.448.413-.937.104-1.878.174-2.82.015-.682-.117-1.365-.229-1.933-.324-.728-.152-1.346-.274-1.959-.412a10.085 10.085 0 0 1-1.091-.296c-1.897-.669-3.79-1.357-5.628-2.177-1.551-.691-3.061-1.469-4.47-2.427a12.602 12.602 0 0 1-1.486-1.161c-.276-.256-.542-.523-.824-.776-1.23-1.105-2.188-2.433-3.009-3.85-.993-1.713-1.575-3.561-1.532-5.568.006-.252-.002-.504-.009-.755a6.2 6.2 0 0 1 .423-2.398 21.463 21.463 0 0 1 1.623-3.397c.75-1.262 2.481-2.503 3.892-2.788.499-.102.993-.151 1.497-.094 1.002.113 1.989.308 2.956.596.299.088.595.204.875.346 1.746.88 3.409 1.888 4.874 3.198.283.25.58.484.872.722.93.756 1.769 1.601 2.547 2.515.775.908 1.562 1.804 2.25 2.785.108.154.229.301.357.438 1.026 1.116 1.817 2.407 2.663 3.655.142.208.263.43.387.646.372.657.747 1.312 1.112 1.972.858 1.555 1.459 3.2 1.716 4.963a5.247 5.247 0 0 1-.153 2.241c-.26.902-.83 1.534-1.682 1.918zM62.29 115.03c.042-1.261-.04-2.513-.328-3.745-.5-2.166-1.348-4.183-2.596-6.024-.352-.521-.714-1.035-1.066-1.554-.708-1.049-1.563-1.975-2.468-2.843-1.406-1.353-2.918-2.576-4.599-3.586-1.027-.618-2.079-1.161-3.204-1.583-.723-.272-1.442-.426-2.208-.381-.314.021-.63.009-.941.05-.936.118-1.87.183-2.817.179-1.68-.008-3.211.546-4.606 1.46-1.647 1.079-2.703 2.629-3.301 4.463-.488 1.5-.706 3.057-.53 4.65a28.66 28.66 0 0 0 1.092 5.345c.712 2.298 1.655 4.479 3.057 6.443.183.256.364.512.533.777.884 1.398 2.044 2.541 3.314 3.581.243.199.495.39.761.555.854.531 1.73 1.021 2.652 1.43.924.411 1.872.734 2.69.848.927.168 1.668.283 2.429.273 1.849-.021 3.6-.42 5.304-1.146 1.558-.662 2.761-1.719 3.768-3.038.227-.299.42-.625.628-.938.312-.474.62-.946.932-1.416.173-.264.364-.515.527-.782.561-.93.939-1.926.977-3.018zM37.937 99.698c.087-.088.166-.188.264-.267.591-.474 1.213-.896 1.922-1.183l.001.003c-.304.621-.606 1.244-.915 1.864-.056.109-.142.205-.21.312-.205.313-.693.367-.998.109-.251-.212-.281-.618-.064-.838zm-1.838 4.316c.004-.312.024-.622.038-.929.102-.305.194-.603.301-.894.104-.281.506-.447.785-.313.225.106.45.225.645.375.255.196.4.474.416.805.004.062.011.128.006.188-.083 1.057-.466 1.454-1.567 1.362-.062-.006-.121-.031-.182-.047-.225-.059-.446-.32-.442-.547zm.422 5.285c-.174-.337-.263-.699-.327-1.067a16.583 16.583 0 0 1-.157-1.293c-.035-.379.301-.736.678-.737.124-.002.248.016.363.022.069.014.131.021.191.036.458.122.769.408.878.87.146.606.2 1.226.159 1.85a.781.781 0 0 1-.224.499c-.284.29-.635.389-1.021.297-.249-.061-.422-.246-.54-.477zm2.927 4.252a1.154 1.154 0 0 1-1.026.282.707.707 0 0 1-.445-.306c-.295-.404-.463-.866-.58-1.35a.757.757 0 0 1 .496-.88c.17-.061.358-.086.539-.098a.622.622 0 0 1 .496.208c.429.469.673 1.023.741 1.657.006.06-.015.121-.024.183-.063.104-.109.227-.197.304zm2.422 3.637c-.188.16-.388.312-.601.433a.852.852 0 0 1-1.026-.172c-.421-.463-.787-.961-1.024-1.545-.085-.21.034-.537.241-.646.278-.147.569-.259.887-.261.253-.003.493.057.695.222.391.315.706.698.965 1.125a.69.69 0 0 1 .065.541c-.065.101-.112.227-.202.303zm2.797 2.282c-.218.386-.503.704-.893.92a.75.75 0 0 1-.543.074c-.106-.048-.228-.084-.328-.149a3.52 3.52 0 0 1-.809-.76c-.134-.173-.107-.52.056-.688a3.135 3.135 0 0 1 1.057-.738.712.712 0 0 1 .544-.019c.352.137.655.342.876.657a.708.708 0 0 1 .04.703zm3.515 2.144a2.738 2.738 0 0 1-.285.473c-.246.324-.59.431-.984.394-.123-.012-.242-.046-.51-.096a3.07 3.07 0 0 1-1.037-.481c-.226-.165-.316-.442-.192-.644.26-.427.578-.801.989-1.088.211-.148.453-.183.707-.144.376.058.702.228 1.008.444.386.276.51.707.304 1.142zm3.124 1.161c-.25.205-.538.296-.856.286-.319-.01-.62-.1-.768-.414-.159-.339-.054-.767.216-1.014a.683.683 0 0 1 .152-.104c.444-.208 1.031-.099 1.357.258.13.144.176.319.149.518a.746.746 0 0 1-.25.47zm3.417-.821c-.224.222-.5.335-.813.362a.309.309 0 0 1-.306-.147c-.083-.132.039-.37.221-.43.114-.037.231-.076.348-.101.178-.034.361-.077.532.012.042.022.059.095.086.143-.02.055-.029.123-.068.161zm4.506-4.941c-.139.208-.284.422-.466.589-.796.74-1.699 1.303-2.783 1.503-1.495.279-2.995.359-4.461.038-1.352-.226-2.555-.77-3.755-1.318-.228-.104-.442-.239-.665-.354-1.13-.588-2.093-1.386-2.951-2.318-.085-.093-.167-.188-.252-.28-1.343-1.486-1.699-2.007-2.444-3.771-.594-1.4-.9-2.869-.993-4.392-.054-.886-.035-1.759.125-2.629.124-.68.249-1.36.41-2.032.362-1.521 1.179-2.764 2.398-3.736.194-.154.417-.293.647-.382 1.094-.41 2.207-.509 3.311-.05 2.224.925 4.262 2.142 6.019 3.812.958.911 1.885 1.85 2.735 2.859.933 1.11 1.749 2.303 2.34 3.636.458 1.034.915 2.068 1.217 3.165.252.916.367 1.852.362 2.794-.005 1.021-.214 1.999-.794 2.866zM25.793 110.2a13.365 13.365 0 0 0-3.681-4.231 18.676 18.676 0 0 0-2.881-1.777 7.502 7.502 0 0 0-1.947-.688c-.678-.134-1.357-.261-2.036-.389a5.456 5.456 0 0 0-3.143.321c-.99.407-2.007.723-3.031 1.026a6.406 6.406 0 0 0-1.703.79c-.314.207-.629.413-.935.634-1.042.751-1.784 1.756-2.365 2.885a3.739 3.739 0 0 0-.27.703c-.336 1.222-.5 2.456-.31 3.725.122.81.303 1.599.57 2.376.35 1.02.813 1.971 1.435 2.85.291.409.574.825.858 1.238.43.622.943 1.171 1.479 1.703 1.335 1.32 2.937 2.129 4.76 2.521.307.066.617.118.925.176v.001c.246.046.494.089.741.14.992.208 1.996.204 3 .143a6.845 6.845 0 0 0 2.017-.444c1.067-.402 2.062-.925 2.866-1.759.173-.18.375-.332.562-.502.418-.385.798-.804 1.095-1.288a29.01 29.01 0 0 1 1.706-2.482c.624-.814.978-1.743 1.145-2.753.288-1.744-.013-3.39-.857-4.919zm-19.555-.567a5.053 5.053 0 0 1 1.627-2.016c.099-.07.222-.108.333-.16.155-.073.406.103.395.275-.004.062.01.124.001.188-.017.122-.044.245-.091.489-.019.059-.065.241-.138.412a.905.905 0 0 1-.204.31c-.5.475-1.024.918-1.713 1.084-.133.032-.246-.073-.257-.217a.748.748 0 0 1 .047-.365zm.416 4.479c-.207.101-.531-.014-.638-.229a2.26 2.26 0 0 1-.25-1.072c.005-.262.12-.494.344-.626.588-.34 1.19-.661 1.789-.983.21-.113.508.048.596.296.083.238.105.479.079.725-.05.32-.177.598-.409.819a6.066 6.066 0 0 1-1.511 1.07zm1.842 3.576c-.276.11-.641.024-.862-.204a2.454 2.454 0 0 1-.514-.777c-.131-.316-.105-.618.106-.884.355-.441.76-.833 1.253-1.12.054-.031.116-.05.172-.076.182-.09.559.011.685.174.315.404.503.865.606 1.36.025.118-.011.246-.02.371-.065.104-.115.226-.199.315-.347.369-.755.65-1.227.841zm3.382 1.553c-.26.429-.565.82-.979 1.108-.094.065-.231.07-.348.105-.119-.03-.25-.04-.354-.097a2.106 2.106 0 0 1-.813-.749c-.112-.181-.074-.538.077-.694a3.56 3.56 0 0 1 1.218-.838.668.668 0 0 1 .54.005c.294.13.518.345.664.629a.535.535 0 0 1-.005.531zm2.431 2.332a.88.88 0 0 1-.356.09c-.245.006-.492-.017-.709-.025-.205-.08-.378-.145-.549-.215-.135-.057-.224-.334-.167-.492.135-.372.395-.621.757-.763a.716.716 0 0 1 .544.004c.225.099.443.22.648.354a.507.507 0 0 1 .239.475c-.019.267-.173.457-.407.572zm3.757.218c-.427.282-.906.271-1.386.21-.124-.016-.203-.117-.242-.24-.046-.151.125-.382.292-.396.06-.006.119-.032.176-.027.299.024.597.057.896.085.127.035.237.093.292.202.022.043.006.144-.028.166zm6.107-6.384c-.118.428-.3.824-.552 1.191-1.102 1.614-2.639 2.463-4.576 2.612-.25.018-.501.021-.753.031a3.163 3.163 0 0 1-1.294-.208c-.175-.065-.347-.148-.527-.202-1.107-.342-2.016-1.007-2.874-1.759-.622-.546-1.092-1.215-1.486-1.933-.579-1.053-1.009-2.164-1.232-3.35-.128-.68-.21-1.366-.155-2.062.025-.313.04-.628.04-.942-.003-.781.294-1.47.679-2.126.062-.107.145-.206.232-.296.602-.598 1.321-.95 2.173-1.004.25-.015.504.003.754-.005a5.164 5.164 0 0 1 2.03.342c.703.267 1.42.491 2.099.83 1.664.827 3.044 1.988 4.205 3.426.723.897 1.187 1.921 1.452 3.036.056.24.063.498.057.747-.009.313-.056.626-.085.914-.067.27-.12.515-.187.758z"/><path fill="none" d="M203.068 159.607L1.438 121.8 24.064 1.143 225.692 38.95z"/><path fill="#FFB547" d="M175.534 74.689c.716.809 1.483 1.526 2.062 2.375.571.844.951 1.818 1.409 2.723.464-.654.895-1.394 1.456-2.016.664-.738 1.442-1.375 2.163-2.064a.39.39 0 0 0 .088-.268c-.155-2.283.328-4.465 1.048-6.605.285-.847.592-1.688 1.185-2.386.345-.404.694-.805 1.046-1.203.146-.167.299-.33.449-.495.354-.39.839-.517 1.324-.587.301-.044.623-.003.927.055.539.1 1.091.188 1.604.374.781.285 1.408.839 2.004 1.402.698.659 1.387 1.341 1.754 2.253.265.661.488 1.338.707 2.016.305.942.303 1.923.187 2.88-.098.799-.52 1.497-.985 2.162-.622.892-1.456 1.55-2.281 2.227-.116.096-.228.199-.358.318.77 1.161 1.562 2.291 1.879 3.735.31-.281.588-.521.852-.777a6.56 6.56 0 0 1 1.991-1.307.632.632 0 0 0 .303-.292c.238-.528.754-.627 1.21-.813.693-.289 1.393-.222 2.114-.081.94.186 1.814.51 2.594 1.053.341.237.656.54.906.87.604.794.991 1.692.889 2.712-.075.744-.289 1.475-.373 2.221-.098.877-.545 1.616-.915 2.371-.419.855-.979 1.646-1.51 2.443-.283.425-.637.804-.979 1.228.563.886 1.139 1.756 1.68 2.645.682 1.126 1.088 2.362 1.396 3.633.184.763.379 1.524.505 2.297.094.574.074 1.165.12 1.748.099 1.257.203 2.515.313 3.771.01.123.077.241.134.408l-1.295 1.076c-.398-.212-.562-.613-.595-1.021a86.088 86.088 0 0 1-.191-3.629c-.086-2.482-.501-4.896-1.552-7.159-.339-.729-.837-1.383-1.271-2.065-.148-.234-.32-.454-.475-.672-1.153.5-2.287.977-3.489 1.305-2.111.576-3.766-.567-4.384-2.379-.257-.755-.258-1.595-.375-2.398-.007-.053-.008-.107-.089-.196-.319.47-.685.915-.953 1.413a252.313 252.313 0 0 0-2.61 5.002c-.57 1.12-1.116 2.252-1.645 3.394-.16.346-.15.782-.347 1.098-.26.418-.559.859-1.046 1.058-.309.129-.706-.356-.604-.707.446-1.52 1.142-2.931 1.878-4.324.627-1.187 1.212-2.396 1.818-3.593.65-1.28 1.323-2.545 2.269-3.641.145-.169.253-.371.396-.541.436-.516.324-.596.952-.266.062-.441.129-.875.187-1.31.128-.959.506-1.835.904-2.701.088-.191.082-.33.015-.526a6.376 6.376 0 0 1-.241-1.048c-.157-.955-.718-1.704-1.232-2.479-.151-.231-.323-.451-.495-.687-1.021.536-2.139.801-3.292.962-.975.136-1.754-.226-2.471-.826-.58-.486-.9-1.128-1.135-1.826-.015-.043-.045-.077-.116-.192-.481.525-.961 1.005-1.391 1.524a9.38 9.38 0 0 0-1.527 2.684c-.104.276-.144.563-.41.639.442 2.136.95 4.244 1.297 6.38.349 2.125.533 4.278.787 6.413-.403.301-.809.608-1.228.899-.043.03-.211-.026-.239-.083-.19-.369-.349-.727-.371-1.18-.08-1.577-.179-3.157-.396-4.721a66.195 66.195 0 0 0-.947-5.206c-.382-1.725-.799-3.447-1.548-5.062-.611-1.317-1.493-2.406-2.679-3.247-.063-.045-.106-.117-.094-.103-.851.345-1.636.719-2.455.981-1.604.516-2.48.226-3.493-1.083l-.122-.156c-.931.741-1.895 1.428-2.288 2.631-.306.938-.64 1.866-.968 2.796-.037.104-.114.195-.185.284-.221.283-.514.534-.65.853-.103.236-.026.561.004.841.056.486.133.967.208 1.45.064.408.155.812.208 1.222.172 1.329.326 2.66.496 3.989.02.146.098.282.141.403-.312.317-.612.63-.92.933-.27.265-.478.236-.625-.125-.151-.372-.304-.761-.352-1.154-.264-2.211-.468-4.43-.752-6.639-.222-1.72-.575-3.422-1.432-4.963-.215-.389-.57-.7-.863-1.046-.075-.088-.183-.154-.234-.252-.257-.479-.248-.477-.764-.271-.87.349-1.758.354-2.65.101-.077-.021-.147-.065-.219-.096a8.67 8.67 0 0 0-1.953 2.929c-.252.616-.536 1.219-.809 1.828-.098.217-.257.422-.298.647-.044.244.012.507.039.76.137 1.22-.048 2.376-.446 3.548-.476 1.406-1.346 2.511-2.307 3.579-.089.1-.21.173-.328.269.208.231.389.475.609.673.743.672 1.057 1.582 1.391 2.477.567 1.525.807 3.14 1.246 4.696.491 1.747.64 3.522.813 5.307.037.37.135.735.188 1.105.013.077-.024.178-.071.248-.193.292-.416.566-.599.865-.163.268-.427.328-.627.085-.234-.287-.404-.571-.442-.992-.153-1.7-.325-3.403-.606-5.085-.261-1.554-.626-3.095-1.034-4.616a11.54 11.54 0 0 0-1.008-2.544c-.261-.478-.773-.836-1.229-1.17-.126-.093-.459.07-.688.146-.625.206-1.233.315-1.781-.191-.188-.177-.354-.196-.614-.07-.845.406-1.399 1.136-2.073 1.738-1.475 1.319-2.058 3.12-2.668 4.896-.479 1.4-.865 2.832-1.304 4.248-.152.491-.344.973-.498 1.466-.113.362-.168.746-.303 1.102-.165.43-.386.836-.606 1.306-.251-.17-.496-.3-.696-.48-.268-.243-.128-.547-.039-.822.404-1.252.833-2.494 1.224-3.752.331-1.063.588-2.15.935-3.211.476-1.463.984-2.927 1.896-4.182.515-.708 1.166-1.319 1.785-1.948.543-.548 1.124-1.058 1.727-1.618-.18-.34-.413-.745-.615-1.166a9.65 9.65 0 0 1-.961-3.947c-.028-1.012-.07-2.029.021-3.032.115-1.276.408-2.519 1.233-3.571.35-.446.898-.539 1.326-.839.123-.087.276-.131.405-.214.674-.435 1.363-.194 2.04-.027 1.094.266 2.12.658 2.963 1.463.449.427.566.989.801 1.508.046.102.097.205.146.31.458-.866.86-1.732 1.359-2.537.361-.585.844-1.098 1.287-1.631.125-.149.14-.257.014-.394-.703-.771-1.055-1.716-1.329-2.695-.491-1.764-.556-3.566-.403-5.376.114-1.357.491-2.639 1.21-3.821.496-.818 1.07-1.558 1.777-2.19.688-.613 1.087-.663 2.013-.297.923.364 1.855.713 2.565 1.463.524.557 1.161 1.02 1.485 1.743.163.36.33.723.454 1.098.238.729.51 1.456.656 2.204.308 1.561.097 3.109-.31 4.622a4.324 4.324 0 0 1-1.286 2.102c-.403.367-.748.799-1.113 1.194.66.27 1.063.849 1.416 1.459.559.961.967 1.989 1.262 3.173.172-.453.342-.8.435-1.165.47-1.883 1.696-3.197 3.188-4.322.259-.194.423-.374.263-.778-.436-1.093-.6-2.252-.747-3.42-.206-1.646-.09-3.268.123-4.895.196-1.492.679-2.9 1.238-4.284.264-.654.55-1.323.951-1.898.475-.682.89-1.438 1.639-1.897.137-.083.227-.261.313-.409.163-.278.346-.417.713-.452 1.769-.162 3.235.546 4.589 1.541a20.076 20.076 0 0 1 2.216 1.905c.707.699 1.02 1.625 1.173 2.595.112.703.197 1.406.162 2.128-.06 1.258-.062 2.523-.459 3.728-.249.76-.595 1.488-.932 2.215-.201.433-.481.828-.709 1.248-.553 1.015-1.417 1.773-2.151 2.537m-7.394-5.759c.01 1.133.229 2.665.701 4.156.265.833.635 1.612 1.245 2.256.296.313.645.479 1.082.299.638-.262 1.288-.494 1.911-.788 1.25-.587 2.306-1.432 3.005-2.64.564-.974 1.201-1.943 1.552-2.998.702-2.125.844-4.337.562-6.57a2.296 2.296 0 0 0-.508-1.206c-.903-1.086-2.017-1.921-3.223-2.642-.774-.462-1.586-.774-2.504-.695a.794.794 0 0 0-.349.119c-.646.411-1.084 1.035-1.413 1.681-.5.977-.902 2.009-1.26 3.048-.614 1.792-.795 3.661-.801 5.98m26.562 23.611c.487-.126.985-.222 1.459-.384.976-.336 1.928-.69 2.64-1.531a24.547 24.547 0 0 0 2.089-2.827c.979-1.561 1.629-3.233 1.802-5.071.085-.902-.308-1.629-1.047-2.101-.822-.527-1.732-.897-2.715-1.001-.472-.05-.992-.289-1.366.347-.166.28-.597.445-.939.576-.519.195-.948.489-1.363.852a7.13 7.13 0 0 0-2.151 3.3c-.319 1.012-.51 2.035-.525 3.103-.018 1.146-.052 2.292.422 3.357.373.839.77 1.377 1.694 1.38m-10.424-18.385c.051.441.07.891.158 1.325.088.436.198.876.38 1.278.527 1.168 1.284 1.755 2.569 1.464 1.128-.254 2.175-.646 3.127-1.32.764-.539 1.506-1.079 2.037-1.866.376-.559.787-1.114.871-1.792.177-1.439.083-2.875-.586-4.18-.908-1.78-2.203-3.132-4.295-3.513-.799-.144-1.385.041-1.916.676-.907 1.092-1.399 2.369-1.722 3.709-.332 1.38-.588 2.782-.623 4.219m-29.41-5.614a13.008 13.008 0 0 0 .448 3.679c.235.874.509 1.744 1.096 2.46.572.696 1.243 1.055 2.201.759 1.121-.346 2.045-.9 2.676-1.914.538-.864.68-1.842.819-2.812.229-1.585-.059-3.12-.578-4.614-.172-.492-.315-1.062-.657-1.412-.768-.786-1.514-1.62-2.588-2.058-.601-.245-1.316-.245-1.679.243-.544.726-1.014 1.498-1.297 2.372-.367 1.132-.437 2.302-.441 3.297m-10.017 14.086l.101.012c.043 1.776.137 3.025.807 4.521.415.927.854 1.814 1.594 2.532.268.261.523.328.849.141 1.464-.842 2.646-1.908 3.212-3.582.577-1.698.688-3.376.068-5.076-.308-.848-.691-1.647-1.462-2.186-.754-.524-1.616-.742-2.508-.854a1.334 1.334 0 0 0-.652.076 5.046 5.046 0 0 0-.987.532c-.29.205-.583.444-.633.837-.137 1.015-.261 2.031-.389 3.047"/><path fill="#FFF" d="M177.052 56.581c-.303-.188-.538-.285-.706-.449-.279-.273-.131-.628-.067-.935.17-.802.375-1.598.563-2.397.024-.103.04-.208.071-.37-.535-.07-1.054-.132-1.571-.205-1.145-.163-2.291-.331-3.437-.496-.047-.006-.099-.021-.14-.008-.431.155-.716-.157-1.019-.345-.228-.141-.329-.376-.232-.693.097-.322.072-.678.148-1.009.193-.831.437-1.652.619-2.486.169-.768.329-1.543.418-2.323.173-1.553.295-3.111.436-4.667.146-1.575.286-3.151.429-4.729.062-.674.121-1.348.187-2.023a1.8 1.8 0 0 1 .067-.308c.121-.396.197-.453.571-.301 1.148.465 2.372.437 3.569.574 1.647.187 3.297.354 4.944.538 1.755.196 3.509.4 5.262.603 1.159.133 2.318.268 3.477.409 1.156.142 2.316.26 3.464.448.781.128 1.55.349 2.315.555.084.021.189.237.168.335-.286 1.235-.599 2.464-.896 3.697-.222.916-.469 1.827-.643 2.751a197.273 197.273 0 0 0-.915 5.242 48.98 48.98 0 0 0-.362 2.929c-.055.545-.021 1.098-.073 1.643-.02.198-.157.392-.261.576-.099.174-.26.32-.329.504-.104.269-.3.349-.51.235-.459-.243-.922-.152-1.4-.137-.666.02-1.335-.037-2.002-.083a152.7 152.7 0 0 1-3.312-.25 257.376 257.376 0 0 1-4.355-.418c-.421-.045-.832-.169-1.251-.224-.141-.018-.354.025-.43.122-.639.824-1.247 1.67-1.872 2.506-.298.395-.608.781-.925 1.189m.889-3.393c.51-.626.97-1.199 1.441-1.762.091-.108.229-.239.352-.246.243-.01.49.057.735.096.913.15 1.822.339 2.74.446 1.65.191 3.307.34 4.962.491.573.052 1.15.061 1.727.085.621.027 1.242.048 1.864.075.272.012.414-.069.396-.382-.016-.292.015-.59.049-.884.12-.968.236-1.937.381-2.902.184-1.224.36-2.448.605-3.658.218-1.082.524-2.148.792-3.22.27-1.083.537-2.165.806-3.248.078-.315.151-.632.24-1.005-3.54-.791-7.11-.949-10.632-1.451-3.536-.504-7.097-.838-10.666-1.25-.023.132-.051.22-.058.311-.146 1.842-.271 3.684-.438 5.522a142.415 142.415 0 0 1-.569 5.347c-.12.927-.375 1.834-.562 2.754-.116.572-.214 1.149-.327 1.725-.048.244.055.335.292.368.778.104 1.554.239 2.331.339 1.158.15 2.317.274 3.474.428.106.014.24.15.279.262.049.135.029.304.008.452-.062.414-.139.824-.222 1.307M138.763 71.767c-.482.396-.948.789-1.429 1.163-.889.698-1.801 1.365-2.675 2.081-.959.788-1.886 1.614-2.825 2.427-.148.127-.287.264-.436.393-.13.115-.652.002-.85-.237-.349-.42-.702-.845-.97-1.315-.588-1.035-1.307-1.979-2.002-2.938-.837-1.161-1.437-2.451-2.052-3.735-.44-.918-.942-1.807-1.431-2.7-.371-.681-.763-1.351-1.147-2.022a3.833 3.833 0 0 0-.268-.405c-.191-.256-.148-.52.108-.717 1.124-.862 2.236-1.74 3.367-2.593a56.254 56.254 0 0 1 2.412-1.729c1.679-1.128 3.391-2.206 5.055-3.354 1.141-.787 2.225-1.655 3.33-2.491 1.163-.879 2.301-1.791 3.499-2.618.224-.156.676-.014 1.014.051.08.015.095.278.177.404.689 1.048 1.39 2.09 2.081 3.137.323.491.609 1.007.956 1.479a366.562 366.562 0 0 0 3.177 4.223c.313.41.646.806.993 1.187.174.188.077.348.013.511-.088.224-.204.437-.307.652-.104.221-.137.422-.487.501-.378.088-.7.435-1.045.672-1.754 1.207-3.478 2.464-5.279 3.594-.549.345-.636.604-.52 1.173.245 1.185.408 2.385.601 3.578.047.285.199.626.097.845-.218.458.063 1.048-.4 1.417-.068.053-.156.133-.226.125-.337-.038-.555-.253-.757-.517-.575-.759-1.177-1.492-1.774-2.242m1.927-19.347l-.119.088c-1.438 1.103-2.85 2.237-4.319 3.295-1.568 1.128-3.185 2.184-4.783 3.27-.68.461-1.376.901-2.044 1.378-.743.53-1.47 1.089-2.195 1.645-1.016.776-2.022 1.562-3.036 2.34-.18.14-.197.287-.105.489.185.418.412.807.639 1.203.724 1.264 1.379 2.566 2.06 3.854.293.558.532 1.153.89 1.667.402.58.923 1.076 1.363 1.632.434.549.831 1.127 1.246 1.692.268.368.537.733.819 1.117.414-.338.784-.647 1.161-.945 1.169-.924 2.344-1.842 3.514-2.768.624-.494 1.265-.973 1.855-1.508.396-.356.747-.715 1.315-.806.239-.038.3.029.405.184.258.375.53.738.826 1.146.018-.094.03-.119.026-.14-.182-1.157-.384-2.309-.536-3.468-.031-.231.042-.564.197-.717a10.5 10.5 0 0 1 1.437-1.18c1.263-.864 2.551-1.691 3.828-2.537.684-.452 1.364-.913 2.088-1.399-2.451-2.9-4.335-6.161-6.372-9.322-.043-.067-.097-.127-.16-.21M155.607 56.315c-.443-.021-.806-.065-1.165-.056-1.325.037-2.554-.308-3.713-.921-1.205-.637-2.436-1.23-3.595-1.942-1.743-1.069-2.994-2.592-3.726-4.513-.457-1.198-.54-2.44-.351-3.71.224-1.52.948-2.792 1.803-4.039a13.725 13.725 0 0 1 2.519-2.769c1.01-.849 2.188-1.405 3.434-1.814.622-.205 1.27-.326 1.891-.535 1.504-.504 3.064-.59 4.623-.587.978 0 1.958.159 2.933.285 1.14.15 2.067.777 2.987 1.405.479.328.978.644 1.396 1.039.906.858 1.683 1.83 2.344 2.898.663 1.075 1.01 2.248 1.309 3.461.361 1.452-.023 2.77-.561 4.069-.376.91-.822 1.784-1.481 2.542-1.25 1.441-2.696 2.619-4.445 3.402a38.53 38.53 0 0 1-1.991.843c-.515.195-.852.544-1.095 1.017a340.176 340.176 0 0 1-1.552 3c-.151.285-.332.555-.506.824-.1.155-.416.125-.572-.031-.084-.086-.204-.142-.274-.236-.102-.132-.278-.328-.239-.428.225-.59.005-1.173.025-1.756.016-.466.002-.934.002-1.448m1.099.944c.026-.001.051-.004.076-.004.488-.909.973-1.82 1.471-2.725a.737.737 0 0 1 .315-.303c.445-.193.904-.365 1.361-.534a14.438 14.438 0 0 0 5.204-3.29c1.074-1.056 1.755-2.311 1.972-3.801.214-1.464-.185-2.842-.792-4.136a10.463 10.463 0 0 0-3.133-3.898c-.843-.647-1.724-1.24-2.764-1.536-1.26-.359-2.554-.337-3.839-.279-.889.038-1.77.204-2.656.301-1.128.124-2.208.438-3.244.877-.725.308-1.422.686-2.104 1.082a6.35 6.35 0 0 0-1.246.924c-.439.431-.805.935-1.194 1.415-1.062 1.305-1.875 2.734-2.133 4.425-.12.8-.081 1.607.143 2.381.301 1.037.976 1.849 1.722 2.604.625.637 1.267 1.239 2.104 1.608.433.191.817.49 1.241.707.593.309 1.204.582 1.804.879 1.083.533 2.194.945 3.43.925.587-.012 1.175.031 1.762.041.229.004.387.055.39.33.004.285.043.57.059.855.021.385.033.768.051 1.152M195.311 66.77c-.313-.437-.614-.811-.863-1.217-.067-.109-.022-.333.043-.468.277-.582.58-1.15.879-1.723.047-.094.09-.2.16-.271.677-.683.351-1.396.131-2.145a4.069 4.069 0 0 1-.138-1.425c.147-1.945.694-3.811 1.226-5.675.221-.777.37-1.578.646-2.337.599-1.638 1.376-3.164 2.833-4.25.96-.714 2.018-1.234 3.17-1.473 1.498-.311 3.032-.422 4.557-.159 1.843.316 3.446 1.109 4.849 2.375a16.435 16.435 0 0 1 3.276 4.104c.596 1.044.917 2.207 1.201 3.377.217.897.347 1.799.271 2.724-.166 2.009-.683 3.819-2.364 5.179-.898.726-1.823 1.372-2.875 1.778-.739.287-1.568.413-2.365.459a30.1 30.1 0 0 1-3.654-.019c-1.338-.089-2.648-.331-3.892-.923-.723-.344-1.533-.503-2.304-.744-.057-.018-.118-.021-.167-.049-.641-.355-.625-.335-1.188.064-.795.565-1.506 1.225-2.24 1.861-.297.258-.586.596-1.019.688-.05.013-.081.121-.173.269m.961-2.674c.014.006.029.011.043.019.885-.676 1.768-1.353 2.656-2.022.087-.064.23-.145.312-.115.37.131.727.296 1.085.455.274.12.542.264.823.372.328.126.666.232 1.006.33 1.082.313 2.149.733 3.256.898 1.217.182 2.468.15 3.706.172a8.576 8.576 0 0 0 3.742-.762c1.349-.611 2.245-1.601 2.699-2.993.65-2 .535-3.993-.093-5.975-.682-2.138-1.923-3.906-3.519-5.462-1.458-1.423-3.241-1.973-5.2-2.117-1.316-.096-2.614.065-3.885.411-1.095.296-2.099.807-2.876 1.631a6.783 6.783 0 0 0-1.496 2.547c-.35 1.053-.628 2.129-.932 3.194-.12.42-.268.836-.329 1.264-.11.765-.081 1.558-.273 2.295-.107.404-.15.789-.177 1.193-.053.812.1 1.568.564 2.252.079.117.203.298.165.387a8.036 8.036 0 0 1-.59 1.101c-.205.322-.455.616-.687.925"/><path fill="#FFF" d="M204.668 76.925c-.569-.107-1.124-.245-1.686-.312-1.099-.13-2.178-.329-3.227-.686-.35-.117-.73-.125-.99-.46-.236-.306-.421-.558-.227-.997.263-.596.364-1.268.635-1.861.478-1.047.769-2.147.96-3.263.124-.725.031-1.486.036-2.231.001-.141-.02-.284.001-.422.031-.202.119-.36.368-.371.571-.025 1.14-.066 1.711-.095.221-.011.442-.002.707-.002l-.161.063c.201-.022.388.215.619-.005.085-.078.315-.008.479.005 1.421.11 2.846.211 4.265.341 1.254.113 2.502.274 3.756.39.878.08 1.759.128 2.639.183 1.434.085 2.866.161 4.301.244.681.041 1.36.094 2.041.136.174.011.364-.042.522.011.405.133.492.436.462.854-.047.678.002 1.36-.021 2.038-.052 1.487-.12 2.971-.376 4.447-.195 1.118-.282 2.261-.318 3.396-.019.543-.312.885-.566 1.277-.047.073-.192.128-.285.118-.289-.026-.574-.102-.863-.137-1.738-.202-3.477-.395-5.214-.603-1.157-.137-2.312-.28-3.466-.443-.986-.14-1.966-.32-2.951-.457-.119-.017-.284.094-.388.189-.89.817-1.873 1.538-2.612 2.517-.256.34-.381.317-.651-.019-.24-.298-.508-.582-.284-1.04.088-.182-.053-.463.014-.666.22-.693.488-1.369.77-2.139m16.041-7.894c-.152-.022-.312-.056-.473-.068-.713-.059-1.426-.115-2.138-.17-1.344-.101-2.687-.202-4.03-.3-.814-.057-1.63-.087-2.442-.167-1.097-.107-2.19-.271-3.288-.377a115.462 115.462 0 0 0-3.95-.316c-1-.062-2.006-.07-3.01-.104-.253-.01-.378.056-.364.362a14.33 14.33 0 0 1-.012 1.709c-.026.383-.125.766-.212 1.144-.121.513-.236 1.029-.4 1.531-.2.614-.46 1.207-.675 1.815-.144.409-.108.474.299.561 1.161.243 2.324.477 3.488.709.645.13 1.297.23 1.936.388.27.066.595.158.596.551.001.354-.094.671-.29.979-.154.243-.222.54-.328.814.619-.472 1.189-.986 1.779-1.475.116-.096.317-.137.474-.124.28.021.557.111.837.159.764.129 1.527.267 2.294.376 1.255.179 2.511.347 3.77.502 1.086.136 2.173.254 3.262.366.686.07 1.371.115 2.086.175.24-3.034 1.034-5.972.791-9.04"/><path fill="#FFB547" d="M191.627 38.984c-.058.111-.101.192-.143.277l.392.219c-.237.326-.421.664-.686.92-.545.531-.829 1.211-1.188 1.855-.206.37-.451.723-.713 1.058-.103.132-.301.184-.439-.004a9.606 9.606 0 0 1-.37-.55c-.15-.236-.295-.475-.476-.771-.566.226-1.144.411-1.683.679-1.061.526-2.076 1.142-3.151 1.635-1.094.505-2.239.892-3.35 1.364-.794.335-1.568.72-2.345 1.092-.237.114-.457.267-.721.422-.17-.144-.409-.296-.575-.504-.26-.326-.037-.912.348-1.081.354-.156.679-.381 1.034-.53 1.287-.538 2.592-1.039 3.873-1.591.723-.31 1.41-.7 2.118-1.047 1.168-.575 2.339-1.143 3.477-1.697-.151-.315-.305-.667-.483-1.004-.241-.458.021-1.027.526-1.039.676-.019 1.352.036 2.027.037.467 0 .934-.037 1.4-.059.047-.002.095-.013.141-.004.231.045.464.085.691.15.099.025.183.103.296.173M130.062 64.788c1.053-.118 2.136-.217 3.209-.37.995-.144 1.981-.345 2.969-.526.301-.055.618-.08.891-.203.431-.198.656.142.956.287.027.015-.013.146-.004.222.028.225.065.448.099.67-2.752.793-5.553 1.053-8.468 1.053-.057.585-.112 1.175-.172 1.782l-.204-.034c.013.083.026.153.039.228-.037.013-.074.037-.101.03-.491-.138-.926-.344-1.255-.769-.376-.48-.811-.915-1.195-1.391a7.326 7.326 0 0 1-.599-.9c-.105-.179.135-.566.351-.625.101-.026.261-.05.285-.116.188-.514.715-.415 1.07-.619.393-.227.774-.472 1.167-.698.273-.161.812.085.847.4.056.492.074.99.115 1.579M156.541 42.653c-.37-.243-.764-.457-1.105-.735-.447-.367-.389-.79.079-1.128.185-.135.3-.365.485-.5.62-.457 1.258-.893 1.892-1.331.198-.139.443-.226.603-.397.3-.318.654-.216.999-.193.054.003.138.123.141.192.013.336-.001.674.004 1.012.014.688.076 1.38.036 2.067-.036.618.007 1.273-.395 1.82-.503-.137-1.001-.27-1.521-.411-1.742 2.725-3.056 5.642-4.153 8.676-.26-.159-.473-.283-.68-.418-.23-.15-.236-.362-.185-.613.211-1.051.694-1.994 1.152-2.945a265.405 265.405 0 0 1 2.036-4.106c.183-.364.427-.697.612-.99M203.617 58.775c-.13-1.32-.236-2.623-.39-3.921-.126-1.062-.307-2.119-.463-3.178-.073-.502-.158-1.003-.209-1.505-.038-.379.446-.713.802-.577.117.045.254.07.346.148.085.07.138.193.173.304.106.338.21.677.291 1.021.121.499.257 1 .323 1.509.222 1.679.415 3.362.623 5.043.021.175.06.344.101.568.285-.106.547-.227.819-.3.195-.053.416-.083.61-.047.309.056.607.175.959.283-.438.833-.843 1.572-1.214 2.328-.146.297-.174.65-.326.943-.191.369-.453.702-.686 1.05a.1.1 0 0 1-.057.041c-.171.038-.089.451-.382.277-.154-.093-.27-.255-.4-.388-.378-.383-.76-.764-1.132-1.151-.328-.345-.656-.688-.963-1.051-.192-.228-.007-.818.3-1.015.134-.085.28-.149.425-.213.151-.063.306-.114.45-.169M216.01 72.163c.159-.519.189-1.146.834-1.465 1.109.546 1.781 1.671 2.831 2.289-.075.595-.476.937-.874 1.19-.49.315-1.076.48-1.61.733-.481.226-.944.491-1.426.719-.066.029-.241-.035-.277-.104-.223-.415-.467-.833-.069-1.3.122-.142.153-.36.256-.619-1.377-.327-2.706-.651-4.039-.958-1.79-.416-3.581-.812-5.372-1.224-.468-.107-.948-.194-1.388-.378-.196-.082-.299-.383-.453-.58-.278-.355-.158-.539.125-.849.078-.084.272-.13.394-.102 1.873.448 3.741.917 5.614 1.365 1.802.436 3.609.851 5.454 1.283"/><path fill="none" d="M119.75 17.402h120.66v94.119H119.75z"/></svg>
