<svg xmlns="http://www.w3.org/2000/svg" viewBox="0 0 185 160"><path fill="#FFB547" d="M153.706 109.146l.321.326.013-.012c-.109-.107-.217-.217-.325-.324l-.009.01z"/><path class="bubble" fill="#FFB547" d="M6.989 126.361c.098.484.199.969.264 1.459.131.988.369 1.945.646 2.882 1.021 3.458 2.46 6.6 4.493 9.283.157.206.312.416.456.635.404.606.862 1.138 1.326 1.663 1.82 2.064 3.83 3.756 5.971 5.19.396.265.8.511 1.198.774.597.4 1.213.732 1.846 1.014.474.211.943.437 1.418.641.582.25 1.162.495 1.749.719 1.921.738 3.886 1.187 5.853 1.598 1.146.238 2.296.414 3.455.521 1.044.096 2.086.225 3.133.207.11-.002.221.008.329.031.937.193 1.87.121 2.804.094.547-.018 1.1-.039 1.647.027.774.093 1.54.088 2.309.039 2.027-.133 4.056-.264 6.085-.398.876-.061 1.752-.096 2.636.002.548.06 1.099.025 1.646-.005 1.591-.085 3.182-.188 4.771-.282.66-.041 1.317-.041 1.978.048.44.06.883.098 1.32.064 1.432-.103 2.859.216 4.289.289 2.353.425 4.709.819 7.06 1.289 1.369.276 2.739.456 4.111.669.657.103 1.318.213 1.976.244 1.266.061 2.528.344 3.795.256.108-.008.221.002.33.024.992.196 1.979.138 2.966.086.77-.038 1.537-.068 2.31.056.55.088 1.101.044 1.648.002 1.971-.148 3.943-.297 5.914-.457.438-.034.886-.051 1.307-.18 1.119-.352 2.271-.426 3.417-.561.545-.064 1.096-.112 1.625-.266a17.283 17.283 0 0 1 2.428-.488c.273-.035.546-.079.811-.165 1.269-.419 2.577-.591 3.855-.959 1.488-.431 2.993-.79 4.474-1.256.582-.184 1.161-.383 1.742-.575 2.32-.773 4.622-1.617 6.915-2.502.522-.202 1.035-.426 1.55-.65.671-.292 1.337-.591 2.003-.894.769-.347 1.535-.7 2.301-1.058.409-.189.811-.4 1.221-.584 1.849-.829 3.652-1.795 5.439-2.802 1.836-1.035 3.66-2.11 5.459-3.246 1.798-1.134 3.606-2.252 5.342-3.534 1.922-1.421 3.822-2.891 5.73-4.344.418-.32.825-.662 1.232-1.002.634-.529 1.265-1.067 1.896-1.602.271-.229.555-.436.812-.688 1.511-1.46 3.08-2.82 4.539-4.364.711-.75 1.408-1.514 2.115-2.266.499-.53.982-1.083 1.455-1.651.79-.951 1.565-1.91 2.278-2.954.286-.415.614-.777.922-1.168a21.575 21.575 0 0 0 1.991-3.009c.434-.797.871-1.588 1.335-2.357.23-.383.438-.793.64-1.203.404-.822.795-1.657 1.199-2.479.868-1.771 1.541-3.674 2.176-5.602.571-1.741.997-3.552 1.337-5.395a22.827 22.827 0 0 1 1.148-4.136c.24-.628.434-1.278.588-1.95.092-.402.2-.799.301-1.199.877-3.478 1.436-7.043 1.469-10.753.005-.353.037-.704.046-1.057.012-.354.032-.707.011-1.06-.11-1.912-.178-3.825-.62-5.694-.082-.339-.115-.697-.179-1.043-.076-.418-.147-.836-.246-1.246-.429-1.779-.93-3.524-1.597-5.194-.742-1.855-1.511-3.681-2.493-5.367-1.148-1.972-2.377-3.833-3.825-5.452-.422-.474-.848-.946-1.267-1.427a33.676 33.676 0 0 0-4.457-4.238c-.763-.605-1.51-1.244-2.31-1.763-2.193-1.425-4.365-2.917-6.708-3.891-.105-.044-.208-.105-.309-.158-1.815-.934-3.673-1.695-5.541-2.38-2.566-.942-5.144-1.812-7.746-2.547-2.981-.842-5.984-1.464-8.991-2.056-2.242-.441-4.495-.744-6.746-1.008-1.208-.141-2.416-.283-3.628-.353-1.21-.07-2.419-.211-3.629-.217a.857.857 0 0 1-.165-.021c-.825-.163-1.649-.133-2.473-.098-.549.025-1.099.052-1.649-.042-.717-.122-1.431-.099-2.144-.053-2.413.15-4.824.303-7.251.458-2.393.216-4.802.431-7.209.653-.602.055-1.206.096-1.787.29-.745.247-1.508.328-2.271.431-.544.074-1.093.146-1.624.296-.64.18-1.285.313-1.938.421-.379.062-.752.168-1.128.262-.375.093-.748.198-1.123.296-1.068.277-2.141.533-3.206.833a95.112 95.112 0 0 0-4.92 1.561c-2.368.813-4.708 1.729-7.006 2.806-1.585.74-3.146 1.542-4.702 2.36-1.712.899-3.482 1.585-5.248 2.287a2.427 2.427 0 0 1-.317.11 3.93 3.93 0 0 1-2.925-.253 5.196 5.196 0 0 1-1.038-.702 63.375 63.375 0 0 0-2.997-2.391 314.982 314.982 0 0 1-4.777-3.612c-2.107-1.637-4.256-3.185-6.363-4.825-1.63-1.268-3.287-2.466-4.917-3.731-2.06-1.6-4.161-3.112-6.219-4.715-1.676-1.304-3.381-2.543-5.062-3.837-2.499-1.922-5.029-3.77-7.528-5.687-2.933-2.249-5.892-4.441-8.834-6.665-1.112-.84-2.188-1.75-3.167-2.845a14.632 14.632 0 0 0-.919-.942 3.685 3.685 0 0 0-.583-.42.873.873 0 0 0-.647-.103c-.445.083-.75.668-.657 1.236.045.286.126.556.256.788.299.523.606 1.038.924 1.54.423.672.868 1.325 1.292 1.997 1.978 3.138 3.921 6.312 5.923 9.428 2.324 3.613 4.558 7.32 6.884 10.933 2.002 3.112 3.931 6.3 5.926 9.424 2.635 4.124 5.192 8.33 7.833 12.451 1.569 2.45 3.053 4.989 4.66 7.399.108.163.187.356.276.54.145.297.107.746-.057.986-.251.372-.565.643-.871.924a137.43 137.43 0 0 0-4.95 4.706 139.847 139.847 0 0 0-3.142 3.282c-1.859 2.007-3.703 4.041-5.465 6.189-.625.765-1.256 1.522-1.89 2.275-1.031 1.224-1.948 2.594-2.979 3.818-.119.14-.218.306-.324.463-1.338 1.999-2.68 3.995-4.01 6-1.087 1.637-2.124 3.327-3.023 5.149-.897 1.817-1.826 3.609-2.547 5.571-.463 1.259-.988 2.478-1.625 3.606-.253.449-.476.93-.686 1.416a394.206 394.206 0 0 0-1.698 4.041 14.74 14.74 0 0 0-.423 1.129c-.652 1.996-1.256 4.018-1.584 6.164-.065.412-.142.822-.218 1.232-.327 1.783-.456 3.605-.476 5.447-.005.494-.024.99-.042 1.482-.047 1.21.045 2.406.281 3.591zM179.47 81.986c-.033.148-.097.25-.213.252-.026 0-.074-.103-.086-.164a5.976 5.976 0 0 1-.073-1.438c.021-.28.11-.523.27-.712.034-.041.097-.046.146-.067.041.037.095.065.123.114a.374.374 0 0 1 .037.191c-.058.611-.072 1.231-.204 1.824zm.295-7.469c.02.261.033.4.041.538.028.572-.062 1.108-.292 1.585-.111.231-.242.446-.367.662-.081.138-.334.081-.426-.077a2.133 2.133 0 0 1-.286-1.183c.009-.203.049-.419.122-.591.209-.475.44-.935.671-1.393.062-.126.173-.165.281-.124.104.039.175.146.206.291.027.137.047.275.05.292zm-.551-5.164c.151.404.186.823.061 1.221a10.7 10.7 0 0 1-1.133 2.475c-.136.215-.438.164-.552-.086a4.891 4.891 0 0 1-.352-1.185c-.01-.067-.011-.138-.02-.246.049-.161.079-.375.166-.542a9.477 9.477 0 0 1 1.125-1.73c.036-.046.093-.069.135-.109.143-.141.486-.016.57.202zm-1.889-5.207c.124-.183.484-.111.573.118.099.255.198.512.289.77.336.937.261 1.779-.261 2.535-.355.515-.649 1.103-1.065 1.544-.08.083-.193.116-.289.171a.34.34 0 0 1-.304-.142c-.431-.6-.541-1.287-.301-1.946a27.584 27.584 0 0 1 1.24-2.91c.029-.055.084-.088.118-.14zm-2.118-4.688c.153-.312.516-.336.689-.062.283.446.511.932.689 1.456.112.336.13.685.062 1.03-.039.2-.085.404-.162.584a253.27 253.27 0 0 1-1.318 3.072c-.081.183-.217.299-.397.306-.094-.058-.208-.091-.28-.18a3.175 3.175 0 0 1-.323-.488c-.734-1.263-.783-1.481-.214-2.837.331-.786.664-1.573.997-2.358.076-.18.171-.349.257-.523zm-2.715-3.927c.088-.167.21-.306.324-.449.035-.043.096-.052.145-.078a.308.308 0 0 1 .312.083c.448.444.776 1.024 1.085 1.618.164.311.215.671.082 1-.497 1.225-1.006 2.439-1.514 3.655-.023.061-.062.11-.094.165-.212.369-.558.487-.85.143-.506-.594-.923-1.218-1.195-1.776-.051-.108-.033-.272-.036-.41a.547.547 0 0 1 .037-.2c.548-1.265 1.064-2.556 1.704-3.751zm-2.226-4.031c.499.35.914.826 1.267 1.396.188.305.218.655.139 1.008a3.59 3.59 0 0 1-.18.583c-.475 1.177-1.019 2.297-1.584 3.398-.082.162-.244.255-.35.359-.143-.028-.258-.022-.355-.075-.261-.144-.461-.401-.671-.641-.33-.377-.432-.826-.293-1.346.068-.265.135-.532.222-.788.411-1.213.829-2.424 1.246-3.634.087-.253.387-.381.559-.26zm-3.186-2.241c.071-.17.213-.288.309-.407.143.011.257-.007.357.032.272.104.492.321.69.582.208.281.29.605.227.975-.102.618-.3 1.192-.496 1.762-.33.951-.665 1.898-.932 2.884-.018.063-.067.107-.095.167-.085.195-.422.224-.591.051-.234-.244-.335-.569-.329-.935.004-.21.038-.418.069-.624.19-1.235.379-2.469.58-3.699.046-.272.111-.546.211-.788zm-2.847-2.483c.082-.185.413-.34.579-.28.387.139.705.41.943.834.102.179.145.384.148.599.003.14.007.285-.018.42-.26 1.499-.52 2.998-.795 4.491-.035.194-.146.364-.23.54-.065.137-.315.226-.443.172-.052-.023-.108-.03-.157-.059a3.858 3.858 0 0 1-.968-.836c-.172-.2-.271-.449-.311-.749-.004-.128-.023-.276-.004-.408.057-.341.118-.681.202-1.01a244.2 244.2 0 0 1 .829-3.164c.055-.194.145-.369.225-.55zm-3.081-2.147a.394.394 0 0 1 .263-.228c.108.005.222-.018.324.021.375.14.723.369 1.043.667.195.182.268.451.263.746a1.907 1.907 0 0 1-.039.418 759.179 759.179 0 0 1-1.095 4.386c-.033.129-.108.239-.164.357-.097.204-.397.321-.584.236a2.632 2.632 0 0 1-.874-.619 1.071 1.071 0 0 1-.269-.753c.002-.141.009-.282.03-.42.227-1.518.592-2.98.944-4.448.033-.131.102-.246.158-.363zm-2.346-.414c.048-.265.15-.512.231-.764.078-.245.394-.282.555-.07a.934.934 0 0 1 .199.562c.003.209.007.424-.032.621-.158.803-.331 1.602-.503 2.399-.145.665-.289 1.33-.449 1.985-.03.118-.129.217-.215.29-.25.208-.709.026-.857-.322-.026-.061-.039-.129-.058-.195.006-.137-.005-.281.023-.41.043-.197.11-.387.172-.576.375-1.143.72-2.298.934-3.52zm-3.519 2.546c.104-1.459.188-2.923.416-4.357.023-.133.083-.255.138-.371.117-.254.303-.379.534-.387.278-.01.538.114.794.256.357.199.605.747.543 1.204-.055.412-.109.826-.195 1.227a21.56 21.56 0 0 1-.843 2.915 2.034 2.034 0 0 1-.277.5c-.155.211-.369.289-.594.216-.227-.076-.371-.295-.446-.58-.034-.133-.042-.276-.061-.415-.004-.069-.014-.139-.009-.208zm-3.482-4.191c.027-.697.055-1.395.09-2.093.016-.308.338-.596.59-.566.555.065 1.07.301 1.566.626.222.142.411.548.403.875.001.07.009.141.004.209-.13 1.527-.207 3.065-.411 4.576-.009.069-.036.132-.049.199-.053.283-.369.56-.622.545-.447-.025-.86-.215-1.24-.526a.994.994 0 0 1-.347-.695c-.025-.279-.044-.56-.069-.886.027-.728.054-1.496.085-2.264zm-2.902-2.736c.018-.202.096-.394.155-.584.072-.223.336-.377.539-.348.761.104.982.75 1.019 1.396.011.14.039.282.029.418-.07 1.114-.08 2.23-.081 3.349-.002.273-.06.552-.133.808-.075.262-.228.478-.449.542-.454.129-.859-.046-1.212-.44-.077-.087-.128-.232-.164-.361a1.314 1.314 0 0 1-.042-.413c.108-1.457.217-2.914.339-4.367zm-3.663 1.813c-.027-1.033.064-2.217.182-3.396.029-.299.354-.605.597-.571.438.062.871.169 1.266.449.199.14.333.376.364.679.008.07.021.14.02.209-.018 1.548-.16 3.075-.36 4.589-.019.137-.067.263-.103.395-.051.184-.364.411-.533.397a1.998 1.998 0 0 1-1.1-.415.906.906 0 0 1-.339-.699c-.011-.49.002-.978.006-1.637zm-2.978-1.332c.05-.916.057-1.833.061-2.753 0-.134.048-.268.085-.398.04-.138.124-.229.237-.265.39-.128.765-.038 1.107.244.19.158.316.405.358.701.019.14.056.284.045.421-.081 1.333-.067 2.682-.217 4.005-.024.208-.071.41-.108.614-.025.133-.245.359-.364.375-.519.074-1.02-.399-1.102-1.041l-.085-.674c-.008-.38-.04-.809-.017-1.229zm-3.635-3.257c.013-.14.042-.275.059-.414.037-.306.305-.619.561-.665.504-.09.986.014 1.436.356.204.157.33.408.337.701.017.777.008 1.553.01 1.873.041 1.023.071 1.588.086 2.154.007.209-.021.419-.034.629-.022.31-.282.664-.528.704-.16.024-.329.064-.486.036a8.619 8.619 0 0 1-.976-.249c-.375-.117-.592-.461-.598-.902a43.981 43.981 0 0 1 .133-4.223zm-3.624.649c-.012-.223-.048-.787-.071-1.351-.009-.21.021-.42.035-.629.015-.233.263-.529.438-.539.494-.028.981.041 1.459.248.214.093.467.521.481.821.007.14.024.282.022.422-.018.773-.041 1.546-.059 2.32a14.3 14.3 0 0 1-.187 2.086c-.041.239-.267.453-.485.461a1.455 1.455 0 0 1-.805-.19 1.038 1.038 0 0 1-.462-.597 4.546 4.546 0 0 1-.189-.813c-.065-.631-.102-1.267-.177-2.239zm-4.671 1.547c.223-1.369.443-2.739.674-4.106.064-.37.441-.683.75-.666.494.025.982.124 1.461.32.155.064.4.416.422.627.022.209.054.422.052.631-.003.563-.021 1.127-.026 1.397.042.859.076 1.424.096 1.989.006.209-.02.419-.035.628-.029.383-.374.763-.685.739-.713-.051-1.425-.155-2.12-.404a.8.8 0 0 1-.288-.211 1.114 1.114 0 0 1-.298-.735c-.004-.07-.014-.142-.003-.209zm-4.124-1.002c.054-.983.101-1.965.173-2.943.021-.273.102-.542.186-.797.114-.344.338-.529.624-.58.16-.031.329-.057.488-.029.492.086.979.193 1.469.306.308.073.561.55.535.97-.005.071.008.142-.001.211a40.993 40.993 0 0 1-.648 3.68c-.128.558-.492.887-.978.914a2.363 2.363 0 0 1-1.138-.21c-.394-.182-.672-.606-.693-1.1-.006-.14-.023-.283-.017-.422zm-3.923-3.92c.056-.485.308-.687.682-.727.054-.005.108-.003.166-.002.053 0 .107 0 .184.002.467.042.956-.031 1.445.106.188.052.415.349.424.591.005.21.017.421.013.629-.027 1.12-.138 2.227-.244 3.333-.013.135-.051.27-.093.396-.107.332-.279.597-.556.69-.645.221-1.286.187-1.913-.203-.223-.138-.424-.547-.411-.863.05-1.325.153-2.643.303-3.952zm-5.03 3.334c.022-.986.059-1.97.096-2.955.005-.14.033-.277.051-.416.062-.462.406-.893.764-.958.108-.02.218-.038.378-.065.608-.036 1.263.097 1.911.28.302.085.556.537.533.971-.068 1.263-.147 2.525-.292 3.777-.006.069-.032.132-.043.199-.035.212-.294.522-.456.535-.765.059-1.529.065-2.298-.041-.229-.031-.531-.398-.578-.699-.032-.209-.074-.421-.066-.628zm-4.452.276c.073-1.252.146-2.505.231-3.757.019-.283.14-.514.314-.694a.702.702 0 0 1 .447-.212 3.791 3.791 0 0 1 1.778.272c.222.09.375.306.452.583.055.198.096.415.091.619a232.688 232.688 0 0 1-.131 3.136c-.018.369-.324.779-.603.888-.367.141-.746.148-1.3.188-.152-.01-.478-.03-.802-.055-.181-.012-.444-.34-.455-.549-.005-.14-.031-.281-.022-.419zm-3.715-3.425c.021-.458.357-.891.732-.979.213-.048.428-.082.651-.125.211.014.43.021.646.043.304.028.63.472.635.857.001.14.018.282.01.42-.043.697-.077 1.396-.141 2.089a9.33 9.33 0 0 1-.195 1.223c-.08.346-.282.585-.556.688-.419.159-.852.18-1.292.058-.237-.066-.507-.409-.556-.721-.021-.138-.058-.278-.054-.415.035-1.047.074-2.093.12-3.138zm-3.765.384c.034-.2.095-.397.167-.578.074-.183.188-.329.348-.403.464-.215.943-.25 1.438-.125.235.06.494.408.538.732.017.139.051.279.046.415a295.626 295.626 0 0 1-.126 3.131c-.018.376-.31.805-.595.886-.261.076-.527.127-.775.186-.236-.018-.453-.027-.672-.052-.297-.029-.614-.484-.617-.87-.004-.583.15-2.747.248-3.322zm-3.419 3.079c-.009-.704-.015-1.407-.011-2.111a3.63 3.63 0 0 1 .154-1.023c.127-.421.366-.667.715-.743.218-.045.431-.048.647.038.234.093.388.309.459.579.067.265.11.561.097.833a81.48 81.48 0 0 1-.198 2.72c-.051.575-.391.977-.863 1.075-.054.01-.107.01-.274.022-.052-.011-.219-.022-.372-.09a.56.56 0 0 1-.311-.459 7.882 7.882 0 0 1-.043-.841zm-4.344.619c-.001-.77.001-1.539.006-2.307.001-.208.02-.418.032-.625.016-.263.296-.698.496-.752.316-.082.637-.151.982-.233.299.019.625.027.95.062.223.025.535.394.585.68.044.275.093.555.098.831.02.843-.064 1.672-.153 2.499-.039.365-.214.646-.485.761-.619.262-1.267.302-1.924.203-.237-.034-.538-.417-.556-.7-.01-.142-.03-.281-.031-.419zm-2.675-2.115c.021-.136.063-.264.094-.397.082-.371.412-.628.763-.594.271.026.562.354.562.657.003.558-.003 1.116-.006 1.674h.007c-.004.558.013 1.121-.019 1.674-.022.364-.199.625-.478.753a1.1 1.1 0 0 1-.642.071c-.258-.039-.521-.41-.515-.726.027-1.047.069-2.091.234-3.112zm-4.732 3.808c.12-1.111.314-2.197.606-3.246.115-.415.364-.683.699-.783.263-.08.533-.123.771-.177.196.01.359.016.524.025.378.026.723.479.747.982.003.071.013.141.014.211a20.726 20.726 0 0 1-.203 2.713 1.016 1.016 0 0 1-.367.655 1.301 1.301 0 0 1-.435.261 5.185 5.185 0 0 1-1.783.222c-.054-.002-.107-.038-.16-.048-.184-.039-.41-.378-.406-.607.002-.067-.014-.141-.007-.208zm-3.903.627c.072-.694.159-1.525.25-2.356a2.36 2.36 0 0 1 .087-.401c.107-.333.284-.601.562-.692.576-.191 1.158-.353 1.738-.522.192-.057.443.26.425.525-.007.068.006.143-.005.21-.161 1.173-.386 2.321-.733 3.418-.107.334-.3.575-.571.686-.412.168-.819.354-1.258.402-.188.021-.472-.263-.476-.494-.004-.212-.01-.422-.019-.776zm-4.16-1.201c.063-.276.215-.492.404-.619.284-.191.581-.357.887-.486.305-.128.629-.198 1.029-.319a33.4 33.4 0 0 0 .395-.067c.134-.026.357.187.371.352.006.069.035.138.032.205-.033 1.122-.085 2.239-.325 3.314a1.06 1.06 0 0 1-.533.727.63.63 0 0 1-.154.065c-.634.17-1.27.339-1.904.504-.266.069-.581-.26-.571-.586.035-1.053.141-2.087.369-3.09zM78.788 41c.106-.42.316-.716.635-.864.25-.117.51-.214.77-.292.229-.068.428.197.44.482.003.069.006.14.005.208 0 .912-.101 1.803-.259 2.681-.075.431-.284.733-.599.899-.295.157-.596.301-.928.307-.129.002-.34-.187-.374-.357-.015-.067-.047-.137-.043-.201.05-.971.12-1.94.353-2.863zm-3.74 1.663c.1-.333.283-.597.521-.769.377-.273.784-.462 1.227-.52.18-.023.467.241.496.476.016.139.049.278.044.417a11.746 11.746 0 0 1-.25 2.073 1.515 1.515 0 0 1-.591.948c-.478.348-.996.525-1.541.607-.204.018-.422-.304-.393-.588.097-.904.23-1.798.487-2.644zm-3.849 1.942c.082-.346.278-.596.521-.762.478-.325.976-.595 1.515-.739.103-.028.208-.054.311-.083v-.01l.007.008c-.002.001-.005.002-.007.001-.009 1.067-.199 2.083-.438 3.083-.12.493-.372.842-.733 1.051-.344.199-.686.417-1.068.492-.124.024-.359-.182-.375-.348-.008-.069-.034-.139-.035-.207-.007-.854.112-1.681.302-2.486zm-3.497 1.646c.117-.403.338-.708.639-.881.292-.167.603-.282.791-.366.426-.12.646.017.636.53-.016.842-.136 1.66-.292 2.465-.053.27-.179.507-.361.662-.451.379-.936.66-1.479.765-.14.028-.36-.169-.37-.341-.003-.069-.03-.139-.024-.206.087-.899.219-1.781.46-2.628zm-2.962.849c.144-.577.71-.913 1.196-.729.127.047.286.322.284.48-.001.069.003.14.01.374-.084.596-.176 1.353-.299 2.101-.12.732-.468 1.228-1.019 1.471-.15.066-.312.098-.47.136-.151.039-.341-.199-.321-.392.122-1.175.336-2.32.619-3.441zm-4.347 4.192c.346-1.397.54-2.84.684-4.299.014-.138.052-.269.077-.404.075-.416.429-.701.744-.605.376.114.745.255 1.096.476.243.15.404.536.339.888a778.09 778.09 0 0 1-.653 3.451c-.026.135-.073.262-.117.389-.113.333-.301.579-.576.671-.259.089-.532.128-.778.185-.187-.03-.35-.054-.512-.083-.125-.023-.312-.312-.304-.459.004-.071-.015-.149 0-.21zm-3.349-2.587c.174-1.526.35-3.051.531-4.575.015-.135.075-.258.112-.388.064-.229.341-.415.538-.352.105.033.22.055.315.119.198.131.39.28.576.435.401.334.628.806.691 1.404.015.141.023.281.059.755-.005.233.009.799-.044 1.353-.092.974-.196 1.95-.451 2.875-.052.191-.156.358-.246.528-.084.155-.306.227-.444.172-.544-.215-1.003-.607-1.398-1.132-.159-.212-.233-.485-.25-.775a2.256 2.256 0 0 1 .011-.419zm-1.375-6.679c.063-.154.276-.263.42-.228a.454.454 0 0 1 .27.238c.096.183.156.394.136.601a152.8 152.8 0 0 1-.329 3.123c-.055.484-.139.963-.223 1.44-.023.131-.09.248-.138.372-.053.141-.31.256-.429.2-.33-.151-.587-.423-.753-.811-.074-.179-.097-.403-.112-.609-.01-.134.025-.278.059-.41.267-1.06.533-2.12.813-3.173.071-.261.187-.498.286-.743zm-2.668-2.67c.464.246.9.551 1.292.962.2.208.325.638.251.958a28.791 28.791 0 0 1-1.164 3.873c-.042.108-.168.16-.254.238-.106-.011-.228.018-.315-.042-.498-.335-.924-.792-1.277-1.357a1.142 1.142 0 0 1-.157-.594 2.058 2.058 0 0 1 .019-.417c.195-1.164.512-2.27.885-3.348.089-.258.487-.398.72-.273zm-4.644.829c.199-1.084.378-2.18.8-3.163.065-.155.293-.27.428-.222.055.018.111.02.162.045.417.211.808.484 1.138.886.212.262.317.594.253.966-.059.339-.13.678-.222 1.004a143.86 143.86 0 0 1-.693 2.338c-.066.221-.397.329-.568.208a3.637 3.637 0 0 1-1.131-1.255c-.091-.169-.123-.391-.168-.542-.001-.124-.012-.198.001-.265zm-3.009-2.779c.187-.945.383-1.888.646-2.802.042-.146.303-.258.433-.194.102.052.212.087.31.152.2.132.395.271.584.421.545.43.698.885.574 1.605a11.628 11.628 0 0 1-.52 1.98c-.043.125-.11.235-.167.355a.511.511 0 0 1-.733.197c-.395-.282-.751-.625-1.012-1.108-.061-.113-.078-.263-.118-.395-.001-.069-.01-.145.003-.211zm-2.956-5.278c.118-.312.427-.47.687-.325.05.028.106.043.153.078.287.219.581.422.852.668.392.357.567.865.582 1.34.035.847-.112 1.505-.383 2.118-.1.224-.38.368-.563.277-.638-.316-1.145-.868-1.562-1.551a1.133 1.133 0 0 1-.149-.591c.03-.703.141-1.381.383-2.014zm-3.606-1.589c.068-.406.096-.831.284-1.177.057-.104.16-.166.244-.246.105.011.223-.011.319.039.463.24.889.563 1.267.988.269.301.399.683.336 1.131-.048.338-.109.675-.181 1.007-.027.129-.095.245-.153.361-.136.276-.481.377-.718.239-.408-.24-.739-.613-1.061-1.005-.308-.372-.425-.82-.337-1.337zm-3.127-2.809c.026-.275.064-.543.165-.789.059-.14.291-.272.419-.229.053.019.107.022.158.046.364.168.689.427 1.001.72.388.365.522.843.38 1.478a1.916 1.916 0 0 1-.21.542c-.057.096-.175.134-.267.198-.105-.019-.218-.017-.317-.062-.421-.194-.772-.531-1.079-.944a1.35 1.35 0 0 1-.25-.96zm-2.081-3.133c.314.15.578.391.811.697.256.341.287.913.054 1.334-.063.117-.175.167-.288.124-.426-.161-.788-.483-1.103-.88-.109-.138-.158-.354-.207-.469-.051-.596.353-.987.733-.806zm-3.257-2.154c.076-.095.18-.116.29-.065.357.164.69.391.967.736a.716.716 0 0 1 .136.563.394.394 0 0 1-.207.306c-.033.002-.089.028-.133.008-.472-.225-.834-.624-1.092-1.178a.361.361 0 0 1 .039-.37zm12.645 40.611c.116-.406.372-.632.683-.759.048-.019.106.005.159.007.042.044.104.077.122.131.158.507-.056 1.177-.425 1.358-.135.065-.322-.004-.438-.171a.646.646 0 0 1-.101-.566zm-2.442 2.245c.189-.454.491-.714.888-.779.224-.037.425.081.594.288.213.26.21.699-.001.919-.21.218-.435.396-.7.481a.57.57 0 0 1-.615-.167c-.08-.086-.128-.222-.191-.335a.64.64 0 0 1 .025-.407zm-3.199 2.992c.402-.571.92-.943 1.424-1.339.044-.035.104-.037.153-.061.118-.058.344.032.451.193a.69.69 0 0 1 .09.584.951.951 0 0 1-.168.347c-.363.418-.768.764-1.236.959-.214.09-.434.044-.627-.134a.458.458 0 0 1-.138-.36c.017-.063.018-.144.051-.189zm-2.36 2.623c.182-.546.569-.755.858-.905.235-.017.334.027.419.12.106.118.114.415.025.56-.231.379-.514.666-.872.829-.134.064-.363-.033-.41-.21-.031-.123-.055-.286-.02-.394zm-2.939 3.19a4.418 4.418 0 0 1 1.266-1.501c.085-.063.203-.059.308-.063.045-.001.101.045.138.088.086.099.11.23.077.371a.566.566 0 0 1-.064.183c-.39.557-.831 1.036-1.369 1.351-.101.06-.213.027-.299-.063-.037-.04-.05-.113-.075-.17.006-.067-.007-.148.018-.196zm-3.062 3.469c.382-.581.833-1.068 1.308-1.52.091-.088.201-.09.306-.037.101.097.136.237.05.357a9.875 9.875 0 0 1-1.321 1.501c-.094.087-.208.12-.303.051-.101-.074-.12-.228-.04-.352zm-2.739 3.648l.294-.451c.1-.15.199-.301.297-.453l.015-.007c.13-.284.245-.585.49-.737.032-.021.106.004.13.043a.258.258 0 0 1 .01.176c-.135.313-.384.416-.63.519l-.007.017-.297.452-.297.446c-.007.004-.005.005-.012.007-.035.048-.076.128-.101.119-.082-.024-.042-.08.101-.119a.127.127 0 0 1 .007-.012zM8.64 122.506c-.03-.494-.027-.994.009-1.484.08-1.122.142-2.248.279-3.362.152-1.253.344-2.489.629-3.698.558-2.348 1.228-4.633 2.118-6.794.583-1.414 1.18-2.819 1.856-4.165a25.3 25.3 0 0 1 1.119-2.042c.203-.325.41-.65.578-1.005.48-1.015 1.07-1.92 1.661-2.823.59-.903 1.183-1.802 1.781-2.7.527-.79 1.051-1.584 1.668-2.265.124-.136.241-.282.348-.437.782-1.15 1.637-2.209 2.475-3.289.801-1.031 1.633-2.022 2.453-3.023a98.63 98.63 0 0 1 3.608-4.182c2.595-2.826 5.219-5.606 7.991-8.153.615-.566 1.204-1.178 1.822-1.738 1.059-.961 2.116-1.928 3.251-2.748.615-.446 1.18-.979 1.726-1.549.38-.396.721-.837 1.02-1.332a6.695 6.695 0 0 0 .879-2.45c.144-.917.065-1.832-.157-2.731a6.919 6.919 0 0 0-.669-1.732 25.72 25.72 0 0 0-.613-1.032c-1.269-2.02-2.485-4.096-3.818-6.048-.111-.164-.215-.335-.32-.504-2.952-4.818-6.007-9.532-8.987-14.319-.492-.789-.974-1.587-1.472-2.366a680.945 680.945 0 0 1-5.514-8.745c-2.341-3.782-4.77-7.475-7.089-11.28-.312-.51-.624-1.021-.935-1.533a4.045 4.045 0 0 1-.393-.948l.002-.006c.228.212.462.411.682.635.875.9 1.727 1.843 2.674 2.622.283.231.534.527.794.801.737.78 1.477 1.55 2.271 2.235.509.441.974.973 1.453 1.472.651.683 1.302 1.371 2.003 1.971.467.398.894.873 1.33 1.325.61.636 1.22 1.27 1.873 1.834.465.4.896.87 1.332 1.322.611.636 1.224 1.264 1.873 1.838.551.489 1.068 1.05 1.59 1.595.657.678 1.303 1.37 2.003 1.972.467.397.895.867 1.332 1.322.61.634 1.222 1.267 1.871 1.837.509.445.982.959 1.463 1.457.742.772 1.47 1.562 2.271 2.234.42.354.801.789 1.192 1.198.611.637 1.222 1.268 1.873 1.837.508.445.981.958 1.461 1.458.742.771 1.469 1.562 2.271 2.232.42.352.802.789 1.192 1.197.61.637 1.22 1.271 1.873 1.838.508.443.983.959 1.461 1.457.569.589 1.136 1.174 1.743 1.7.463.403.899.862 1.334 1.314.943.979 2.01 1.547 3.18 1.808a3.437 3.437 0 0 0 1.798-.064c1.113-.345 2.217-.726 3.294-1.219 1.536-.704 3.071-1.41 4.57-2.228 1.5-.817 3.038-1.509 4.569-2.229.458-.216.924-.417 1.394-.592 1.466-.541 2.922-1.122 4.405-1.581 1.694-.525 3.368-1.15 5.093-1.543 1.075-.245 2.128-.62 3.203-.864 1.29-.292 2.578-.601 3.875-.848.973-.187 1.956-.295 2.917-.577.422-.125.867-.152 1.304-.197a372.72 372.72 0 0 1 3.771-.37c.658-.063 1.31-.158 1.954-.321 1.236-.314 3.486-.486 4.754-.367.664.062 1.321.059 1.979.02 1.263-.077 2.523-.155 3.787-.21.548-.024 1.102-.039 1.649.024.718.085 1.431.112 2.144.085.605-.022 1.21-.021 1.814.087.22.04.441.083.66.073 1.267-.064 2.531.148 3.794.273 2.255.224 4.508.482 6.753.894 1.096.202 2.193.392 3.288.586 1.973.353 3.93.848 5.891 1.317 1.417.34 2.826.716 4.228 1.167 1.186.381 2.381.692 3.561 1.103 2.524.873 5.023 1.858 7.477 3.046 2.506 1.213 4.956 2.608 7.292 4.337 1.116.827 2.232 1.65 3.303 2.576.467.404.922.819 1.352 1.285.772.837 1.539 1.684 2.312 2.519 1.168 1.258 2.18 2.702 3.131 4.225.702 1.126 1.39 2.263 1.978 3.496 1.238 2.597 2.179 5.349 2.861 8.238.064.272.121.552.161.831.125.913.302 1.813.463 2.718.227 1.254.311 2.529.273 3.809-.016.562-.049 1.129-.034 1.693.075 2.932-.276 5.771-.839 8.564a48.412 48.412 0 0 1-2.816 9.13c-.436 1.042-.936 2.038-1.41 3.05a29.95 29.95 0 0 1-2.183 3.875 189.527 189.527 0 0 0-1.984 3.025c-1.239 1.937-2.651 3.65-4.09 5.334a73.358 73.358 0 0 1-5.263 5.531c-1.74 1.648-3.489 3.281-5.358 4.693-.465.352-.911.746-1.358 1.135a22.446 22.446 0 0 1-2.231 1.701c-.481.319-.969.629-1.432.982-1.863 1.421-3.796 2.682-5.753 3.879-1.565.957-3.14 1.898-4.745 2.75-1.255.664-2.511 1.319-3.766 1.981-2.663 1.407-5.385 2.618-8.124 3.769-3.31 1.395-6.68 2.542-10.06 3.645-1.003.326-2.007.656-3.035.859-.757.15-1.479.49-2.244.592-1.424.496-2.913.604-4.347 1.043-.526.158-1.084.174-1.628.264-.542.09-1.093.147-1.623.298-.696.196-1.398.313-2.11.384a236.86 236.86 0 0 1-10.847.836c-.713.038-1.426.032-2.144-.059-.547-.069-1.1-.055-1.65-.047-.66.006-1.319.012-1.98-.113a3.757 3.757 0 0 0-.659-.067c-1.378-.016-2.749-.271-4.121-.45-2.144-.278-4.276-.688-6.407-1.131-1.914-.396-3.834-.685-5.758-.932a4.886 4.886 0 0 0-.66-.049 19.45 19.45 0 0 1-2.31-.135c-.602-.068-1.21-.03-1.815-.013-.768.023-1.535.069-2.309-.058-.604-.099-1.21-.047-1.812-.006-2.359.156-4.716.313-7.073.471-1.206.081-2.408.201-3.625.025-.436-.063-.88-.006-1.319.018-1.152.059-2.303.128-3.457.193-.713.042-1.427.058-2.144-.068a2.995 2.995 0 0 0-.66-.057c-1.21.061-2.418-.091-3.629-.208-3.198-.306-6.369-.894-9.485-2.014a31.55 31.55 0 0 1-5.485-2.595c-1.015-.607-1.973-1.354-2.933-2.098-1.497-1.159-2.82-2.608-4.109-4.117-.583-.682-1.098-1.45-1.588-2.235-1.054-1.69-1.992-3.471-2.673-5.472-.562-1.656-.954-3.36-1.296-5.092a7.625 7.625 0 0 1-.114-.843c-.095-1.126-.19-2.257-.258-3.388z"/><path fill="#FFB547" d="M151.818 107.557c-.048.012-.109.008-.142.039-.031.029-.057.105-.041.137.05.094.116.178.188.258.084.092.199.119.28.043.083-.076.06-.191-.037-.279-.076-.071-.165-.132-.248-.198"/><path fill="none" d="M3 0h178.405v122.654H3z"/><path fill="#FFB547" d="M106.454 82.258l-.187-.168a3.86 3.86 0 0 0-.543-.453 2.772 2.772 0 0 0-.389-.215 16.378 16.378 0 0 1-2.279-1.252c-.196-.129-.396-.256-.591-.388-.131-.088-.151-.219-.125-.362.01-.054.078-.119.127-.123.05-.002.1-.004.149-.002.137.004.27-.017.405-.039.306-.051.611-.104.922-.114.062-.003.124-.011.186-.015.408-.035.815-.066 1.223-.102.321-.028.644-.03.965-.074.171-.024.346-.016.52-.023l.44-.019c.028-.04.058-.067.069-.1.379-1.051.87-2.054 1.344-3.063.279-.596.567-1.186.88-1.764.082-.153.177-.299.263-.449.067-.119.128-.241.196-.359.053-.091.126-.153.242-.129.05.01.104.031.146.018.171-.048.317.009.46.09.032.019.067.033.101.049.074.037.105.101.108.18.003.087.008.174.004.261-.015.41.021.818.041 1.226.015.297.066.591.09.888.038.481.122.958.141 1.442.009.247.045.493.052.741.004.149.018.297.02.446.001.114.027.22.063.327.014.04.068.083.112.083.036.001.073.001.11-.002.334-.024.667-.056 1.001-.073.397-.02.794-.029 1.191-.039.223-.005.445.004.67-.002.482-.01.966-.029 1.45-.039.184-.004.37-.043.551.029.031.012.074.003.107-.006a.545.545 0 0 0 .139-.055c.135-.077.263-.058.384.027.09.065.175.137.26.209.038.031.035.107-.003.13-.084.053-.168.104-.254.155-.096.056-.196.105-.29.166-.096.06-.196.104-.304.138-.094.028-.192.055-.278.103-.338.184-.681.357-.986.596-.244.19-.507.355-.771.518-.306.189-.613.377-.92.564a8.059 8.059 0 0 1-.89.461 4.483 4.483 0 0 0-.426.229c-.057.034-.078.098-.063.163.013.06.027.122.055.177.135.279.239.57.33.867.042.141.107.277.175.408.162.309.306.624.388.964.008.036.02.071.034.106.119.263.167.543.221.824.012.061.009.125.028.184.123.35.186.719.325 1.064.031.078.029.147-.043.196-.076.054-.08.116-.042.192.018.033.032.066.046.098-.055.121-.181.123-.276.175a.737.737 0 0 1-.459.083c-.267-.173-.523-.345-.785-.509a6.492 6.492 0 0 1-.719-.53c-.284-.238-.562-.486-.873-.693-.062-.041-.122-.084-.188-.119a6.977 6.977 0 0 1-1.098-.697c-.027-.021-.066-.029-.107-.049-.06.044-.125.08-.177.131-.215.208-.459.38-.701.553-.343.245-.681.495-1.006.766a8.8 8.8 0 0 1-1.272.904c-.42.238-.831.492-1.248.738a.667.667 0 0 1-.312.111.146.146 0 0 1-.15-.082.371.371 0 0 1-.033-.252.94.94 0 0 1 .098-.239c.124-.229.249-.458.362-.692.266-.548.473-1.119.666-1.695.217-.646.428-1.293.645-1.939.055-.165.119-.326.189-.484.05-.119.073-.238.094-.371"/><path fill="#FFB547" d="M111.442 81.707c.146-.088.28-.176.419-.256.086-.051.176-.095.267-.135.579-.255 1.13-.564 1.665-.904.156-.1.314-.197.472-.297.084-.054.171-.104.247-.166a8.25 8.25 0 0 1 .85-.601c.021-.013.037-.033.058-.047.025-.019.033-.041.015-.065-.014-.017-.037-.037-.056-.039-.248-.004-.496-.01-.744-.007-.372.005-.744.022-1.116.026a19.84 19.84 0 0 0-1.669.111c-.259.023-.519.047-.768-.062-.091.016-.132-.049-.174-.109-.146-.211-.196-.457-.227-.702-.041-.345-.062-.692-.089-1.038-.005-.062-.002-.124-.008-.186-.039-.406-.082-.813-.121-1.219-.017-.173-.02-.347-.043-.519a5.869 5.869 0 0 1-.06-.927 4.939 4.939 0 0 0-.007-.298.17.17 0 0 0-.024-.066c-.005-.009-.02-.016-.031-.018-.011-.002-.026 0-.032.007-.032.037-.069.072-.09.115-.09.189-.177.382-.264.573l-.293.643c-.115.26-.221.526-.347.781a22.636 22.636 0 0 0-.989 2.326 1.24 1.24 0 0 0-.095.432c-.001.124-.087.234-.206.287a.707.707 0 0 1-.321.081c-.211-.011-.422-.015-.632-.022-.198-.009-.396-.027-.595-.025-.26.004-.521.021-.78.037-.594.035-1.188.068-1.783.107-.123.008-.244.032-.366.053-.021.002-.048.023-.053.041-.005.02.004.053.02.065.087.071.177.136.265.204.296.229.604.436.939.6.245.12.487.243.731.366.479.241.928.526 1.327.884.138.125.258.269.435.346.042.02.06.078.053.131-.003.025-.005.05-.012.074-.028.095-.054.19-.088.283-.107.303-.203.61-.296.92-.121.403-.277.795-.401 1.198-.14.451-.291.896-.466 1.334-.069.173-.123.351-.184.526a.077.077 0 0 0-.001.037c.003.011.01.023.02.031.007.006.02.014.028.012.151-.033.259-.141.377-.23.535-.402 1.066-.81 1.603-1.211.339-.253.663-.521.951-.832.118-.128.259-.23.392-.341a.19.19 0 0 1 .209-.028c.15.059.3.118.449.18a.32.32 0 0 1 .171.138c.085.157.214.267.354.373.168.129.339.25.519.36.263.164.524.328.768.523.213.171.419.35.627.525.114.097.228.193.361.261.016.008.044-.004.063-.013.01-.002.018-.02.018-.03a.227.227 0 0 0-.006-.074c-.151-.498-.288-1-.489-1.481a7.283 7.283 0 0 1-.387-1.241c-.112-.511-.291-.998-.46-1.505l.1-.297M95.439 131.844c-.014.033-.02.07-.041.099a.642.642 0 0 0-.139.261c-.031.156-.156.25-.241.369a.222.222 0 0 1-.093.059c-.217.096-.407.238-.6.373-.254.178-.5.369-.746.555-.118.088-.135.143-.09.289.063.203.123.404.229.59.336.588.517 1.232.69 1.879a.253.253 0 0 1 .007.146c-.068.188-.097.383-.14.578-.013.057-.076.098-.14.096-.078-.002-.151-.018-.204-.074-.287-.301-.641-.508-.982-.734a8.281 8.281 0 0 1-.967-.754 10.475 10.475 0 0 0-.225-.195c-.035-.029-.107-.029-.139 0-.073.068-.15.131-.213.207a6.075 6.075 0 0 1-1.062.984c-.129.098-.254.199-.379.301a4.786 4.786 0 0 0-.802.826l-.138.176c-.07.094-.164.098-.268.072-.044-.01-.095-.064-.096-.102a.887.887 0 0 1 .092-.432c.057-.111.115-.221.158-.336.08-.209.136-.424.181-.645.115-.572.174-1.15.265-1.727.019-.123.023-.248.029-.371a.149.149 0 0 0-.059-.131 2.42 2.42 0 0 0-.219-.143c-.213-.125-.432-.242-.646-.367a3.7 3.7 0 0 1-1.222-1.178.252.252 0 0 1-.019-.25 2.77 2.77 0 0 1 .142-.262c.033-.055.082-.091.152-.084.049.006.1.018.148.019.148.002.297.014.445-.017.033-.008.082-.004.105.016.105.092.229.083.352.072.198-.016.396-.035.594-.049.296-.023.593-.051.869-.022.086-.035.106-.099.131-.151.115-.248.226-.496.336-.746.051-.113.092-.23.144-.344a4.18 4.18 0 0 0 .267-.773 7.59 7.59 0 0 1 .384-1.164 2.67 2.67 0 0 1 .151-.297c.062-.104.164-.146.283-.147.057-.001.1.021.119.067.01.022.023.045.029.067.085.401.193.797.339 1.179.19.498.353 1.006.51 1.514.044.143.101.281.16.418a.998.998 0 0 0 .117.188c.046.062.11.098.19.1.348.007.694.016 1.043.018.11.001.222-.014.332-.025.223-.024.443-.052.664-.078.057-.006.073.002.213.08"/><path fill="#FFB547" d="M92.532 132.418c-.167-.385-.342-.755-.435-1.156-.018-.072-.045-.142-.072-.212l-.484-1.245c-.008-.02-.031-.033-.046-.051a.272.272 0 0 0-.112.146c-.104.266-.224.524-.289.804-.098.411-.262.8-.399 1.198-.054.152-.13.295-.238.416-.024.029-.06.049-.099.029-.1-.053-.191.014-.289.012-.07.049-.076.158-.18.189a2.228 2.228 0 0 0-.656.02 3.366 3.366 0 0 1-.52.035c-.147.004-.295.016-.443.027-.018.002-.033.031-.045.051-.004.008.003.023.01.033a.92.92 0 0 0 .097.109c.193.18.414.316.644.441.152.084.306.162.461.24.167.086.314.193.451.334-.031.283-.064.566-.104.848-.041.295-.077.588-.117.883-.039.281-.099.559-.132.855.048-.016.086-.018.111-.035.187-.143.372-.287.558-.434.332-.26.665-.518.956-.824.103-.109.204-.217.261-.359.022-.057.058-.109.09-.162.049-.076.112-.133.209-.135.025 0 .052 0 .074-.006a.27.27 0 0 1 .274.066c.147.135.298.264.446.393.168.148.332.299.504.441.096.076.203.139.308.205.027.018.05.008.06-.02.004-.01.012-.023.01-.033-.012-.047-.021-.098-.042-.141-.064-.135-.138-.264-.201-.398-.159-.338-.244-.701-.343-1.059-.084-.311.037-.562.281-.75.215-.168.445-.316.668-.475a.766.766 0 0 0 .109-.098c.005-.004-.001-.021-.004-.033-.004-.01-.01-.025-.018-.027-.172-.039-.346-.02-.519-.01a1.904 1.904 0 0 1-.795-.112"/><path fill="#FFF" d="M51.728 106.841c.074.004.148.011.222.013.344.002.619.158.859.387.152.146.285.31.389.494.086.153.133.316.135.496.004.293-.038.567-.265.782a3.49 3.49 0 0 1-.816.802 2.013 2.013 0 0 1-.806.364c-.048.009-.1.009-.145.026-.215.084-.41.031-.608-.062a.84.84 0 0 1-.315-.251 1.856 1.856 0 0 1-.297-.595 3.377 3.377 0 0 1-.158-.986c-.003-.246.026-.496.214-.691.123-.241.352-.375.557-.533a.498.498 0 0 1 .241-.09.746.746 0 0 0 .214-.053c.184-.087.377-.114.579-.103M58.033 78.711c.648-.012 1.059.184 1.395.552.151.166.273.354.38.55a.763.763 0 0 1 .012.716 1.64 1.64 0 0 1-.348.477c-.232.228-.494.414-.755.602a1.436 1.436 0 0 1-.695.244.905.905 0 0 1-.472-.081 1.514 1.514 0 0 1-.785-.757A1.981 1.981 0 0 1 56.586 80a.905.905 0 0 1 .047-.217c.031-.094.07-.186.111-.275.151-.332.384-.571.741-.685.289-.091.364-.112.548-.112M57.888 93.579c.19-.015.393.034.599.081a1 1 0 0 1 .481.27c.245.246.464.514.614.834a.842.842 0 0 1 .057.542.25.25 0 0 1-.023.07c-.198.405-.434.78-.842 1.01-.075.043-.146.093-.223.134-.109.059-.218.121-.333.164a.812.812 0 0 1-.84-.135 7.57 7.57 0 0 1-.449-.391 2.037 2.037 0 0 1-.486-.741c-.108-.274-.108-.558-.062-.843a.3.3 0 0 1 .061-.133c.09-.119.186-.232.281-.348a.525.525 0 0 1 .239-.172c.16-.051.286-.145.404-.257a.324.324 0 0 1 .238-.086c.087.002.174.001.284.001M63.41 119.27a.927.927 0 0 1 .504.111c.086.048.173.1.178.219.002.066.059.104.098.15.229.28.404.592.535.93.063.164.096.334.08.51-.011.135-.027.271-.041.406a.756.756 0 0 1-.275.511c-.178.153-.357.31-.562.427-.289.163-.589.188-.889.033-.393-.203-.471-.223-.71-.718a3.65 3.65 0 0 1-.347-1.397c-.009-.147.018-.297.032-.445a.81.81 0 0 1 .113-.312.522.522 0 0 1 .369-.284c.207-.037.413-.086.62-.121.096-.018.196-.015.295-.02M66.588 67.068a.78.78 0 0 1-.137.501c-.039.063-.071.131-.11.194a1.108 1.108 0 0 1-.264.31c-.167.128-.339.251-.509.374-.051.036-.106.064-.157.099-.269.186-.556.188-.853.086a.44.44 0 0 1-.098-.052 1.746 1.746 0 0 1-.615-2.288c.073-.142.174-.273.278-.394a.722.722 0 0 1 .46-.223 3.137 3.137 0 0 1 1 .021.66.66 0 0 1 .357.187c.156.159.309.32.447.497a.92.92 0 0 1 .199.585v.103M79.436 118.809c-.004-.38.078-.736.287-1.059.025-.041.051-.084.08-.123.191-.246.434-.359.748-.289.182.041.358.088.524.179.149.082.312.147.472.211a.498.498 0 0 1 .201.156c.262.305.354.673.387 1.06a.423.423 0 0 1-.019.184c-.095.268-.166.543-.331.783a1.457 1.457 0 0 1-.504.48c-.098.052-.195.107-.294.158-.283.146-.552.103-.802-.076a1.48 1.48 0 0 1-.479-.559 3.479 3.479 0 0 1-.252-.773c-.022-.108-.013-.221-.018-.332M92.773 85.92c0-.326.061-.64.172-.947.1-.271.294-.457.537-.594a.763.763 0 0 1 .283-.076c.306-.031.597.047.867.17.217.097.392.263.514.472.107.183.191.378.24.583.033.146.072.287.123.428.104.285.033.541-.158.762-.184.207-.43.334-.674.453a.59.59 0 0 1-.256.041c-.16 0-.32.008-.481.02-.401.027-.722-.137-.963-.457a1.034 1.034 0 0 1-.187-.52c-.012-.11-.012-.224-.017-.335M70.23 82.941c.074.008.15.004.221.022.121.033.242.048.366.048a.601.601 0 0 1 .283.079c.185.101.362.216.495.384.211.27.266.578.225.91a.975.975 0 0 1-.146.416 1.931 1.931 0 0 1-.535.557 2.867 2.867 0 0 1-.698.338.83.83 0 0 1-.581-.012c-.104-.039-.204-.088-.307-.133-.519-.219-.715-.883-.631-1.269a1.91 1.91 0 0 1 .817-1.193.83.83 0 0 1 .491-.147M78.859 69.424a.908.908 0 0 1-.301.717 2.136 2.136 0 0 1-.582.392c-.264.115-.543.167-.832.057a1.158 1.158 0 0 1-.549-.423 1.765 1.765 0 0 1-.338-1.004 3.82 3.82 0 0 1 .023-.556 1.62 1.62 0 0 1 .428-.887c.153-.165.344-.233.569-.211s.435.097.635.194a.486.486 0 0 1 .146.113c.277.318.523.657.658 1.064.019.059.045.115.069.172a.769.769 0 0 1 .074.372M104.338 62.913c.02-.282.053-.54.117-.792a.996.996 0 0 1 .31-.497.908.908 0 0 1 .467-.212.441.441 0 0 1 .184.013c.155.041.309.09.462.14.215.069.397.196.579.326.083.059.14.141.176.235.106.276.22.55.274.845.095.502-.117.953-.571 1.171-.179.085-.363.157-.544.236a.687.687 0 0 1-.673-.054c-.389-.241-.643-.574-.724-1.029-.025-.134-.041-.269-.057-.382M90.154 61.083c-.033.356-.064.652-.088.948a.32.32 0 0 1-.202.286 6.11 6.11 0 0 1-.451.168.327.327 0 0 1-.146.004c-.123-.017-.244-.04-.367-.061a.8.8 0 0 1-.396-.187 2.31 2.31 0 0 1-.589-.802c-.151-.341-.164-.696-.085-1.055.043-.193.098-.384.15-.575a.85.85 0 0 1 .267-.436.388.388 0 0 1 .308-.104c.135.017.271.03.405.052.251.042.459.177.661.322a.527.527 0 0 1 .146.165c.162.279.314.562.344.892.013.148.054.293.043.383M91.367 124.729h-.201a.56.56 0 0 1-.373-.144c-.344-.283-.461-.662-.442-1.09.011-.224.067-.439.171-.642.068-.132.123-.271.191-.401a.95.95 0 0 1 .33-.394.549.549 0 0 1 .242-.091c.074-.004.148-.008.222-.019a1.22 1.22 0 0 1 .618.078c.414.154.666.456.814.858.038.104.061.214.081.324.068.347-.028.66-.202.957a.609.609 0 0 1-.207.209 3.01 3.01 0 0 1-.854.352.789.789 0 0 1-.39.003M79.66 81.412c-.008-.322.057-.596.238-.834.137-.18.305-.324.506-.426a.908.908 0 0 1 .437-.073c.226.007.437.084.653.136a.59.59 0 0 1 .217.14c.186.167.311.384.465.577.102.252.218.498.203.783-.02.379-.2.655-.501.865-.062.042-.132.069-.193.111-.235.16-.506.193-.778.216a.89.89 0 0 1-.685-.237 1.582 1.582 0 0 1-.542-1.029c-.009-.086-.015-.172-.02-.229M70.434 107.951a1.088 1.088 0 0 1 .094-.521c.041-.088.093-.174.134-.264a.777.777 0 0 1 .413-.404c.058-.023.113-.054.172-.065.109-.024.219-.038.33-.052s.221-.021.32.052c.101.071.231.073.334.153.265.203.551.377.769.637.226.27.338.57.284.926a.695.695 0 0 1-.166.366 2.898 2.898 0 0 1-.61.538.746.746 0 0 1-.168.074c-.142.053-.289.064-.437.078a.79.79 0 0 1-.558-.164 5.524 5.524 0 0 1-.405-.324c-.259-.23-.4-.531-.488-.859-.018-.071-.016-.149-.018-.171M92.938 73.899c-.142-.049-.27-.135-.425-.126-.362-.086-.614-.309-.771-.642a1.255 1.255 0 0 1-.129-.536c0-.161.004-.322.015-.482.007-.111.032-.221.039-.331.009-.163.06-.317.106-.47a.71.71 0 0 1 .131-.22.35.35 0 0 1 .291-.139c.1.003.199.002.295.021.171.033.336.083.507.119.198.043.36.16.524.271a.656.656 0 0 1 .174.189c.084.137.16.279.226.425s.116.299.173.449c.077.2.055.391-.064.566-.096.144-.192.286-.278.438a.703.703 0 0 1-.325.293 2.377 2.377 0 0 1-.489.175"/><path fill="#FFB547" d="M104.711 129.64c.185-.021.329-.001.457.091.03.021.057.049.081.075.029.028.041.071.02.101-.105.146-.141.315-.187.482-.038.139-.203.195-.325.115-.041-.027-.071-.067-.111-.098a.284.284 0 0 0-.37.03 1.024 1.024 0 0 0-.146.214c-.046.079-.015.213.066.266.082.054.17.102.259.142.249.112.499.222.75.328.274.116.474.312.619.567.03.053.058.11.069.17.049.26.048.52-.044.77-.073.197-.147.395-.222.592-.067.18-.187.324-.334.439a.678.678 0 0 1-.526.133 3.543 3.543 0 0 1-.4-.082 5.35 5.35 0 0 1-.428-.123.442.442 0 0 1-.296-.262c-.032-.08-.085-.15-.135-.221a.252.252 0 0 1-.045-.176 1.11 1.11 0 0 1 .101-.355.371.371 0 0 1 .318-.223.317.317 0 0 1 .3.109.898.898 0 0 1 .156.25c.057.139.165.211.309.238.134.027.266.064.399.082.173.025.289-.104.306-.256.031-.309-.098-.555-.321-.756a1.218 1.218 0 0 0-.345-.217 37.932 37.932 0 0 1-.715-.318 2.162 2.162 0 0 1-.261-.137.375.375 0 0 1-.173-.275 1.36 1.36 0 0 1 .057-.66c.079-.21.17-.413.301-.596a1.08 1.08 0 0 1 .287-.289c.171-.109.353-.177.529-.15"/><path fill="#FFF" d="M71.351 94.031c.03-.279.082-.541.226-.76a1.01 1.01 0 0 1 .844-.472c.236-.008.469.032.691.123.285.118.506.31.654.58.07.13.129.269.182.407.096.261.047.513-.08.752a1.194 1.194 0 0 1-.334.394c-.168.128-.328.263-.533.335a.87.87 0 0 1-.512.024 3.036 3.036 0 0 1-.352-.119c-.403-.159-.637-.459-.725-.878-.026-.132-.043-.267-.061-.386M119.248 113.863c-.062 0-.124-.002-.186 0a.525.525 0 0 1-.445-.227c-.191-.255-.305-.531-.26-.863a1.65 1.65 0 0 1 .345-.847c.101-.124.191-.258.287-.387.047-.062.104-.103.188-.099a.447.447 0 0 0 .11-.011c.297-.081.589-.051.879.034.131.039.258.078.367.169.056.046.131.067.195.104a.734.734 0 0 1 .38.521c.014.072.024.146.028.221a.794.794 0 0 1-.269.664 3.007 3.007 0 0 1-.446.33 7.72 7.72 0 0 1-.451.258 1.54 1.54 0 0 1-.722.133M102.659 121.89c.052.004.102.004.15.011a.3.3 0 0 1 .257.23c.053.23.122.455.196.679.056.166.129.321.21.476.061.114.146.112.221-.007.092-.147.164-.305.215-.472.112-.367.233-.732.298-1.112.007-.043.06-.09.102-.097a.549.549 0 0 1 .327.037c.081.039.147.089.169.183.014.062.035.12.042.183.028.271.103.533.165.799.079.338.154.677.23 1.015.025.108.057.216.075.326a.137.137 0 0 1-.029.103c-.094.1-.214.166-.336.223-.017.009-.049-.004-.068-.016a.324.324 0 0 1-.148-.205c-.039-.145-.065-.291-.101-.435a13.082 13.082 0 0 0-.111-.433.246.246 0 0 0-.053-.096c-.01-.013-.054-.018-.062-.009a.991.991 0 0 0-.104.151 1.21 1.21 0 0 1-.612.574 1.6 1.6 0 0 0-.165.084c-.074.043-.145.029-.21-.013-.072-.047-.139-.103-.209-.151-.025-.019-.084.002-.091.031-.051.203-.113.405-.149.612-.044.244-.203.356-.418.423-.057.018-.121.016-.182.016-.021 0-.055-.02-.06-.037-.036-.115-.09-.225-.042-.357.062-.175.103-.357.146-.538.062-.255.071-.517.078-.776a7.217 7.217 0 0 0-.021-.705 2.347 2.347 0 0 1 .043-.592c.01-.045.058-.091.102-.094.048-.005.097-.007.145-.011M84.254 100.678a.584.584 0 0 1-.354-.097c-.343-.211-.57-.505-.639-.909-.01-.061-.014-.124-.028-.184-.103-.402.019-.756.233-1.09a.795.795 0 0 1 .537-.363c.035-.006.072-.018.107-.027.348-.097.656 0 .947.191.309.203.459.51.562.845a.679.679 0 0 1 .014.294c-.057.338-.182.646-.432.887a1.867 1.867 0 0 1-.729.426c-.068.021-.144.018-.218.027M119.35 122.643c.016-.213.032-.398.044-.584.006-.092-.022-.123-.137-.125-.083 0-.147-.021-.187-.092a.284.284 0 0 1 .15-.398c.289-.108.585-.088.88-.039.198.031.383.1.55.215.081.057.165.109.248.164.138.089.245.208.334.344a.557.557 0 0 1 .049.532.782.782 0 0 1-.32.396c-.095.06-.19.115-.282.176-.025.016-.021.045-.001.064.026.023.054.053.086.068.223.105.44.232.675.307.305.096.508.295.674.547.037.058.021.112-.035.16a.453.453 0 0 1-.301.127c-.047 0-.112-.01-.136-.041-.156-.193-.379-.269-.595-.361a9.2 9.2 0 0 1-.474-.217 1.886 1.886 0 0 0-.454-.154c-.025-.004-.078.039-.077.068.008.221.016.444.021.668a1.2 1.2 0 0 1-.001.147.193.193 0 0 1-.125.17c-.115.044-.229.095-.357.099-.081.002-.146-.037-.159-.119a1.394 1.394 0 0 1-.027-.258c.001-.408-.029-.816-.066-1.224-.02-.224.002-.447.023-.64m.657-.032c.011.059.018.119.034.178.006.02.036.045.054.044a.74.74 0 0 0 .546-.271c.061-.073.057-.204 0-.278a.8.8 0 0 0-.425-.284c-.044-.013-.104.016-.12.061-.014.035-.03.07-.035.105-.021.146-.037.295-.054.445M97.895 96.74c-.006.041-.015.127-.029.211a.665.665 0 0 1-.186.358c-.127.134-.254.269-.385.401a.664.664 0 0 1-.146.113c-.15.086-.303.168-.457.244-.365.184-.743.022-.957-.259a.96.96 0 0 1-.195-.551c-.014-.339.021-.668.182-.974.041-.078.067-.16.101-.24a.782.782 0 0 1 .3-.369c.021-.014.043-.025.062-.041.203-.174.442-.208.696-.188.05.004.099.016.148.018.157.008.282.08.396.184.036.033.068.071.104.107.242.252.354.426.366.986M142.397 67.738a1.52 1.52 0 0 1-.048.551.526.526 0 0 1-.171.28c-.327.258-.686.439-1.116.429-.374-.008-.666-.158-.861-.484a1.485 1.485 0 0 1-.188-1.14c.069-.291.213-.553.473-.731a.467.467 0 0 1 .237-.096c.185-.013.367-.011.548.052.268.093.542.165.798.294a.495.495 0 0 1 .258.297c.066.191.076.387.07.548"/><path fill="#FFB547" d="M101.191 130.161c.038.04.041.09.038.139-.014.235-.017.472-.048.703a3.531 3.531 0 0 0 .264 1.89.74.74 0 0 0 .471.443c.057.02.121.025.182.029a.23.23 0 0 0 .167-.068.688.688 0 0 0 .206-.346c.025-.096.043-.193.046-.293a4.707 4.707 0 0 0-.113-1.291c-.041-.17-.073-.34-.105-.51a.907.907 0 0 1 .145-.674.332.332 0 0 1 .313-.16c.04 0 .078.021.085.057.076.4.175.8.214 1.206.046.468.035.94-.096 1.401-.041.143-.073.287-.111.43a2.84 2.84 0 0 1-.294.682.663.663 0 0 1-.612.352 1.403 1.403 0 0 1-.295-.027.852.852 0 0 1-.628-.473 3.6 3.6 0 0 1-.36-1.318 4.971 4.971 0 0 1 .002-.854c.02-.248.037-.494.008-.742-.024-.198.059-.363.179-.512a.167.167 0 0 1 .092-.057c.081-.01.166-.04.25-.007"/><path fill="#FFF" d="M115.966 62.192a1.727 1.727 0 0 1 .295-1.04c.076-.112.141-.233.215-.347a.546.546 0 0 1 .424-.265c.062-.006.123-.017.184-.019.354-.016.512.044.764.292.219.216.348.485.41.777a.887.887 0 0 1-.172.77c-.162.205-.326.403-.567.522-.056.027-.104.067-.155.102a1.286 1.286 0 0 1-.846.215.286.286 0 0 1-.196-.09c-.217-.235-.358-.502-.354-.83-.002-.037-.002-.073-.002-.087M130.919 101.908c.034.231-.021.447-.084.662a.934.934 0 0 1-.454.563 2.775 2.775 0 0 1-.83.312c-.322.064-.556-.068-.737-.313a1.174 1.174 0 0 1-.205-.552c-.06-.446.022-.861.275-1.238.091-.137.211-.238.352-.322.299-.173.596-.133.889.004.146.067.29.141.405.258a.972.972 0 0 0 .241.172c.112.058.154.152.149.275-.004.06-.001.123-.001.179M109.3 121.303h.334c.128.002.24.049.348.117.059.037.071.105.021.153-.034.035-.07.068-.107.103a.324.324 0 0 1-.236.09 2.445 2.445 0 0 0-.591.052c-.132.03-.265.062-.396.095-.041.01-.093.079-.081.111.089.261.097.535.14.803a.344.344 0 0 0 .027.107c.015.033.044.062.086.06.123-.009.247-.015.368-.03.185-.024.367-.056.552-.082a2.69 2.69 0 0 1 .222-.022.19.19 0 0 1 .137.046c.046.042.092.084.136.128.034.034.036.103.007.134-.112.119-.237.211-.409.233-.258.034-.513.083-.771.126-.048.008-.096.02-.144.032-.038.009-.091.075-.088.11.02.234.039.469.062.703.012.115.071.15.178.111.209-.078.417-.16.626-.234.129-.045.26-.084.391-.121a.243.243 0 0 1 .21.039c.308.207.288.241.011.428a.855.855 0 0 1-.232.111 9.967 9.967 0 0 0-.838.303c-.149.059-.306.101-.459.149a.366.366 0 0 1-.476-.289c-.022-.134-.048-.269-.054-.403a10.349 10.349 0 0 0-.163-1.326 21.594 21.594 0 0 1-.123-.809 1.375 1.375 0 0 1 .038-.552.384.384 0 0 1 .171-.233c.234-.151.495-.223.771-.244.109-.01.222-.002.334-.002v.003zM134.084 88.088c-.19-.012-.351-.014-.507-.068a.577.577 0 0 1-.25-.154.888.888 0 0 1-.238-.532 2.066 2.066 0 0 1 .001-.261.616.616 0 0 1 .032-.182c.087-.223.201-.431.39-.582.203-.162.419-.309.63-.462a.57.57 0 0 1 .424-.098c.274.039.532.124.763.276a.455.455 0 0 1 .15.162c.109.213.164.439.106.683-.04.17-.095.331-.179.487a1 1 0 0 1-.385.394c-.161.092-.331.17-.498.252a.753.753 0 0 1-.439.085M130.944 63.871c0 .05-.002.099 0 .149.01.269-.109.48-.312.644a3.725 3.725 0 0 1-.426.297c-.137.084-.284.151-.427.225a.7.7 0 0 1-.542.034.563.563 0 0 1-.16-.09.867.867 0 0 1-.285-.384 1.585 1.585 0 0 1-.108-.392 2 2 0 0 1 .236-1.256c.029-.054.066-.105.102-.156.11-.16.269-.23.452-.181.218.058.436.078.657.099.134.013.263.07.384.134a.598.598 0 0 1 .269.248c.016.033.038.064.059.094a.546.546 0 0 1 .103.349c-.003.062-.001.124-.002.186zM106.169 121.735c.454.021.813.101 1.143.296.149.088.307.163.425.297a.46.46 0 0 1 .108.415.682.682 0 0 1-.03.107 1.026 1.026 0 0 1-.19.317 1.735 1.735 0 0 1-.593.439l-.441.197c-.078.037-.107.09-.094.181.028.185.057.368.094.55.013.059.045.114.073.17.033.066.087.127.104.196.047.192.044.341-.173.429-.114.045-.229.094-.346.137-.017.006-.051-.01-.064-.026a.472.472 0 0 1-.084-.12 2.13 2.13 0 0 1-.168-.531c-.042-.231-.076-.465-.115-.697-.005-.037-.005-.075-.02-.109-.104-.271-.102-.559-.131-.842-.018-.174-.034-.346-.053-.518-.011-.1-.021-.106-.14-.132-.118-.026-.18-.089-.187-.192a.311.311 0 0 1 .057-.211.688.688 0 0 1 .354-.26c.178-.059.36-.103.471-.093m.163.982l-.011.002c.02.17.039.342.061.513.005.041.076.078.116.065.27-.082.48-.246.651-.465.021-.029.032-.066.045-.101a.202.202 0 0 0-.076-.228c-.198-.14-.425-.191-.659-.222-.063-.008-.125.039-.126.103-.003.112-.001.222-.001.333M108.854 93.603a.575.575 0 0 1-.432-.161 1.147 1.147 0 0 1-.28-.518c-.098-.336-.009-.637.188-.912.086-.12.187-.231.29-.338.129-.133.275-.248.395-.394.077-.094.186-.122.303-.097.12.025.239.061.359.094.023.006.059.016.065.031.059.148.215.152.324.225a.406.406 0 0 1 .113.096c.142.188.292.369.369.597a.736.736 0 0 1 .04.255.377.377 0 0 1-.062.211c-.175.262-.377.49-.68.612-.102.042-.192.114-.296.153-.232.09-.48.109-.696.146M93.453 111.768c.066 0 .104.004.141-.002.181-.02.337.041.492.127.136.078.236.18.291.322.115.293.162.596.135.908a.477.477 0 0 1-.17.321c-.311.267-.635.51-1.049.597a.453.453 0 0 1-.291-.021c-.066-.03-.135-.06-.199-.097a1.622 1.622 0 0 1-.463-.422.898.898 0 0 1-.191-.513 1.456 1.456 0 0 1 .131-.685.759.759 0 0 1 .578-.471c.205-.039.412-.088.595-.064M105.521 104.903h.177c.404.005.298-.013.679.142.317.129.465.385.496.719a.659.659 0 0 1-.245.59 3.23 3.23 0 0 1-.511.365c-.203.118-.419.209-.635.301-.281.119-.535.013-.695-.19-.145-.185-.278-.386-.338-.612a1.418 1.418 0 0 1 .136-1.111.38.38 0 0 1 .266-.186c.169-.031.34-.068.515-.035.06.01.122.012.155.017M120.56 72.198c.002-.029.003-.129.013-.227.03-.315.181-.562.435-.745a.326.326 0 0 1 .133-.06c.184-.026.368-.049.553-.063.136-.01.27.016.404.041a.53.53 0 0 1 .403.291.88.88 0 0 0 .08.125c.225.299.214.618.085.949a1.041 1.041 0 0 1-.298.42c-.122.105-.239.214-.363.316a.825.825 0 0 1-.157.098c-.133.065-.27.126-.404.186a.298.298 0 0 1-.218.005.597.597 0 0 1-.278-.177c-.231-.271-.385-.575-.387-.941l-.001-.218M137.319 111.689c.049.006.125.008.195.029.177.055.352.116.525.18a.77.77 0 0 1 .441.429c.076.17.129.348.147.534a.758.758 0 0 1-.085.43 1.223 1.223 0 0 1-.254.318.349.349 0 0 1-.125.078c-.254.099-.52.158-.784.217a.427.427 0 0 1-.289-.036c-.1-.052-.2-.099-.299-.15a.889.889 0 0 1-.364-.36 1.61 1.61 0 0 1-.2-.631c-.032-.266.077-.485.241-.68.217-.253.506-.344.851-.358M123.09 124.33c.011.002-.016.002-.038-.005a81.158 81.158 0 0 1-.461-.142c-.023-.008-.044-.021-.067-.032-.177-.082-.228-.198-.171-.394.023-.078.099-.127.169-.108.071.019.143.042.214.06a1.9 1.9 0 0 0 .553.053 1.52 1.52 0 0 0 .735-.229c.057-.033.051-.115-.008-.15a1.278 1.278 0 0 0-.096-.057c-.145-.072-.288-.145-.434-.213-.303-.143-.608-.277-.909-.423a2.177 2.177 0 0 1-.348-.213c-.087-.067-.16-.154-.233-.237-.06-.066-.075-.15-.084-.24-.032-.312.087-.549.323-.748.246-.207.533-.31.843-.36a.56.56 0 0 1 .255.034c.308.108.582.274.791.531a.5.5 0 0 1 .11.311c0 .037-.042.107-.079.117-.07.016-.143.035-.216.041-.077.006-.146-.019-.186-.094-.011-.023-.026-.043-.037-.065-.082-.183-.238-.28-.411-.357a.304.304 0 0 0-.285.021 1.31 1.31 0 0 0-.309.265c-.154.173-.127.386.063.511.083.053.173.096.263.139.312.148.627.295.939.445.089.043.175.092.264.137.181.091.324.227.451.379a.328.328 0 0 1-.002.441 1.047 1.047 0 0 1-.385.285 3.942 3.942 0 0 1-1.032.299c-.047.004-.097-.002-.182-.002M99.373 123.256c-.01-.305.066-.567.163-.821a.88.88 0 0 1 .343-.429c.104-.068.219-.082.312-.012.175.131.367.186.58.215.261.037.492.162.695.332.096.08.176.176.229.289.201.438.229.879.002 1.32-.098.19-.232.348-.412.469a1.73 1.73 0 0 1-.641.281.71.71 0 0 1-.654-.174 1.845 1.845 0 0 1-.521-.841c-.066-.211-.117-.43-.096-.629m.734.035c-.027.332.091.643.24.943a.19.19 0 0 0 .219.094.898.898 0 0 0 .639-.896.796.796 0 0 0-.328-.669.613.613 0 0 0-.302-.131.357.357 0 0 0-.213.043.451.451 0 0 0-.255.417c-.002.062 0 .125 0 .199M121.378 96.434c-.11 0-.223.002-.334 0a.301.301 0 0 1-.198-.088c-.019-.016-.04-.029-.056-.049-.267-.33-.366-.693-.234-1.109.111-.356.326-.631.65-.819.227-.131.475-.146.721-.104.168.029.334.09.486.174a.64.64 0 0 1 .266.252c.159.295.213.607.116.933-.069.235-.237.402-.444.526a4.75 4.75 0 0 1-.392.21.725.725 0 0 1-.211.063c-.122.012-.246.012-.37.018v-.007zM141.778 91.281a1.345 1.345 0 0 1 .428-1.068c.088-.086.18-.169.273-.25.191-.164.416-.218.658-.164.229.051.451.133.632.291.245.215.345.477.255.799-.06.215-.154.418-.283.601a1.001 1.001 0 0 1-.254.265c-.174.116-.362.21-.549.307-.169.088-.355.104-.542.102a.489.489 0 0 1-.381-.199c-.167-.214-.257-.451-.237-.684M144.109 105.264c-.004.099-.009.197-.012.297a.915.915 0 0 1-.081.322.474.474 0 0 1-.212.254c-.188.092-.358.221-.573.254-.22.035-.438.082-.657.129a.433.433 0 0 1-.379-.106.372.372 0 0 1-.053-.052c-.174-.221-.29-.469-.281-.751.018-.507.24-.901.684-1.164a.59.59 0 0 1 .284-.074c.174-.009.348-.004.521-.001.036 0 .076.008.107.024.177.09.351.184.524.278a.223.223 0 0 1 .115.182c.011.136.017.271.024.406l-.011.002zM134.886 122.079a.905.905 0 0 1-.106.431c-.124.213-.245.428-.393.627a.932.932 0 0 1-.545.362c-.286.07-.563.037-.79-.19a1.379 1.379 0 0 1-.253-.316.734.734 0 0 1-.096-.354c0-.025.002-.051-.001-.074-.044-.399.132-.719.367-1.016a.56.56 0 0 1 .135-.127c.421-.266.856-.291 1.3-.06a.602.602 0 0 1 .318.392c.028.107.043.217.064.325M117.458 124.588c-.025 0-.05-.002-.074 0-.24.014-.41-.113-.513-.307a1.801 1.801 0 0 1-.212-1.112 2.54 2.54 0 0 1 .199-.674c.109-.258.302-.452.503-.634.154-.139.36-.163.561-.154.122.005.246.036.363.072.394.123.645.402.807.77.083.188.085.389.054.586-.105.633-.598 1.147-1.04 1.314-.211.079-.418.153-.648.139m1.129-1.725c.021-.12-.031-.266-.142-.393-.049-.057-.099-.111-.146-.168a.556.556 0 0 0-.285-.162.207.207 0 0 0-.175.033.34.34 0 0 0-.162.275.307.307 0 0 1-.138.248c-.151.107-.216.263-.243.439-.009.062-.02.123-.022.184-.013.188.012.369.076.544.029.077.081.11.169.116.14.012.27-.012.39-.086.062-.039.129-.072.189-.113.308-.206.465-.497.489-.917M130.854 77.738c.019-.259.072-.534.22-.787a1.34 1.34 0 0 1 .527-.505.477.477 0 0 1 .175-.054c.199-.023.394-.013.577.082.044.023.09.041.135.061.302.135.447.38.479.696.026.25-.016.492-.156.71a1.812 1.812 0 0 0-.094.16.845.845 0 0 1-.397.373c-.132.066-.271.121-.405.182a.663.663 0 0 1-.326.051.421.421 0 0 1-.294-.138c-.064-.073-.126-.155-.203-.213-.176-.132-.233-.31-.236-.517-.002-.026-.002-.049-.002-.101M121.535 84.152c0-.111-.006-.222.001-.332.011-.156.091-.277.202-.385.178-.173.397-.244.637-.262.184-.014.37-.014.547.061a.709.709 0 0 0 .143.041c.247.041.423.199.578.377.221.248.194.693-.01.926a.998.998 0 0 1-.256.211c-.107.062-.218.119-.316.193a.971.971 0 0 1-.369.163c-.096.022-.196.03-.29.058-.245.074-.438-.016-.597-.193a1.022 1.022 0 0 1-.271-.672c-.002-.061 0-.123 0-.186h.001zM97.713 123.63c.008.265.059.492.158.709.023.054.083.087.15.085a1.2 1.2 0 0 0 .633-.187c.052-.034.099-.079.154-.101a.196.196 0 0 1 .143 0c.076.037.146.088.215.142.083.063.084.14.018.224a.851.851 0 0 1-.314.254c-.248.116-.506.213-.778.233-.422.03-.752-.108-.964-.489a1.745 1.745 0 0 1-.223-.928c.021-.473.133-.932.371-1.348.067-.117.15-.227.236-.332a.885.885 0 0 1 .29-.227.563.563 0 0 1 .466-.036c.143.05.274.112.395.203.087.065.123.231.07.338a.169.169 0 0 1-.045.058.662.662 0 0 1-.306.125c-.065.008-.118-.021-.174-.049-.024-.014-.074.002-.101.021a.243.243 0 0 0-.069.086c-.22.386-.304.808-.325 1.219M115.79 121.27c.181.012.354.031.526.031.159 0 .286.07.412.15.035.023.046.1.023.133-.066.098-.154.166-.272.174-.147.012-.297.008-.445.013-.111.003-.224.006-.333.019a.193.193 0 0 0-.169.172c-.03.271-.039.545.009.814.082.451.166.902.253 1.352.022.121.061.238.09.359a.14.14 0 0 1-.079.152c-.09.041-.178.084-.28.092-.108.01-.194-.031-.241-.132a1.87 1.87 0 0 1-.135-.462l-.202-1.096a3.496 3.496 0 0 1-.05-.629c-.001-.596.067-.57-.526-.451a1.655 1.655 0 0 1-.186.022c-.062.006-.153-.062-.169-.123a.315.315 0 0 1 .014-.218.247.247 0 0 1 .095-.107.928.928 0 0 1 .206-.084 3.974 3.974 0 0 1 1.245-.182c.072.002.147.001.214.001M111.369 124.686c-.025-.044-.072-.094-.081-.148a2.628 2.628 0 0 1-.037-.442 7.517 7.517 0 0 0-.079-1.072 7.117 7.117 0 0 1-.048-.851c0-.072.012-.148-.039-.213-.127-.019-.246.021-.366.047a.994.994 0 0 1-.331.029c-.085-.01-.167-.082-.174-.164a1.27 1.27 0 0 1 0-.185c.006-.065.079-.146.138-.161.013-.003.024-.007.036-.008.324-.016.63-.126.944-.189a4.37 4.37 0 0 1 .844-.113.69.69 0 0 1 .445.152c.023.021.031.073.012.1a.491.491 0 0 1-.334.212c-.122.016-.243.044-.364.067-.079.017-.121.067-.138.152-.077.395-.028.787.024 1.18.058.43.093.86.083 1.295a.215.215 0 0 1-.131.205c-.123.056-.245.117-.404.107M113.646 121.771c0 .262.004.496-.001.731-.007.31.028.616.087.92.062.317.081.636.071.958-.001.049-.008.098-.011.138-.024.026-.037.052-.057.06a3.722 3.722 0 0 1-.307.125.173.173 0 0 1-.11-.004c-.048-.012-.091-.043-.104-.094a.726.726 0 0 1-.022-.146 10.972 10.972 0 0 0-.121-1.142c-.042-.242-.054-.49-.073-.736-.025-.285.022-.566.062-.848.004-.023.015-.047.021-.07.049-.145.209-.195.329-.102.08.062.15.132.236.21M97.882 133.043c-.087.025-.181.068-.276.076-.261.021-.511.088-.764.148a.753.753 0 0 1-.471-.039c-.041-.016-.077-.072-.079-.115a.553.553 0 0 1 .207-.457.427.427 0 0 1 .166-.076c.181-.037.364-.068.548-.094.232-.031.466-.055.699-.078.062-.006.123.006.185.01.028 0 .06.059.05.084l-.047.102c-.067.132-.131.263-.218.439M97.767 131.144c-.042.168-.127.277-.172.403a.517.517 0 0 1-.054.097c-.041.062-.094.119-.168.136-.193.041-.387.084-.58.114a.608.608 0 0 1-.395-.071.204.204 0 0 1-.092-.252.906.906 0 0 1 .205-.305.267.267 0 0 1 .197-.088c.224-.002.441-.051.662-.07.049-.004.099-.01.146-.005.075.006.148.022.251.041M95.593 123.4c.041.01.117.018.183.048.078.035.146.088.219.134.023.016.019.086-.008.1-.119.063-.233.143-.359.186-.28.098-.566.178-.852.262-.045.012-.098.014-.146.012-.063-.006-.121-.036-.144-.1a.698.698 0 0 1-.039-.18.24.24 0 0 1 .174-.255 5.22 5.22 0 0 1 .865-.201c.025-.004.049-.003.107-.006M95.846 122.896c-.334.141-.485.18-.756.194a37.86 37.86 0 0 1-.67.026c-.033.002-.098-.055-.107-.09-.006-.024-.016-.049-.018-.072-.019-.209.059-.309.266-.315.26-.009.521-.006.781-.003.047 0 .098.016.143.034.104.042.206.086.305.137.025.015.036.058.056.089M146.331 121.475c.012.005.026.006.031.014.016.025.005.038-.027.028-.008-.003-.016-.015-.02-.024-.002-.004.011-.013.016-.018M75.991 104.512c-.011.004-.022.014-.032.012-.037-.008-.039-.023-.009-.041.009-.004.024 0 .034.004.005.003.005.016.007.025M76.169 104.053l.03-.007-.004.022zM123.73 63.441l.035.029-.026.024c-.008-.009-.019-.017-.021-.027-.002-.005.008-.016.012-.026M108.477 81.762c.008.008.023.021.021.024-.017.033-.034.031-.045-.003-.001-.004.016-.013.024-.021"/><path fill="none" d="M44.056 49h108.355v93.742H44.056z"/></svg>
